<?xml version="1.0" encoding="UTF-8"?><svg id="b" xmlns="http://www.w3.org/2000/svg" width="256" height="64.86"  viewBox="0 0 256 65.37"><g id="c"><rect x="68.19" y="46.34" width="3.69" height="18.63" style="fill:#e5004b;"/><rect x="68.19" y="27.72" width="3.69" height="18.63" style="fill:#d1020a;"/><rect x="68.19" y="9.09" width="3.69" height="18.63" style="fill:#eb6619;" /><path d="m133.79,24.14v10.37h4.46v-11.3c0-4.87-2.86-7.85-7.18-7.85-2.97,0-5.21,1.6-6.13,3.76v-3.2h-4.16v18.59h4.46v-9.78c0-3.49,1.86-5.76,4.54-5.76,2.49,0,4.02,1.9,4.02,5.17Z" style="fill:#000000;"/><path style="fill:#000000;" d="m153.8,29.27c0-2.71-1.49-4.35-4.57-5.58l-2.31-.93c-1.26-.52-1.64-.97-1.64-1.78,0-1.08,1.19-1.71,3.2-1.71,1.67,0,3.05.48,4.09,1v-3.9c-.78-.52-2.57-1-4.2-1-4.65,0-7.47,2.49-7.47,5.5,0,2.64,1.52,4.13,4.28,5.28l2.34.97c1.52.63,2.12,1.12,2.12,2.08,0,1.15-.97,2.04-3.49,2.04-2.16,0-4.2-.78-5.28-1.56v3.94c1,.82,2.97,1.49,5.32,1.49,5.21,0,7.62-3.05,7.62-5.84Z"/><path d="m172.42,15.92h-4.46v11.12c0,2.49-1.56,4.13-4.02,4.13s-3.98-1.64-3.98-4.13v-11.12h-4.46v11.04c0,5.09,3.23,8.14,8.44,8.14s8.48-3.05,8.48-8.14v-11.04Z"/><path style="fill:#000000;" d="m179.9,35.1c.82,0,1.64-.22,2.12-.56v-3.46c-.22.15-.48.19-.86.19-.67,0-1.12-.37-1.12-1.23V9.09h-4.46v21.48c0,2.68,1.6,4.54,4.31,4.54Z"/><path style="fill:#000000;" d="m194.77,34.55v-3.98c-.45.19-1.3.37-2.12.37-2.08,0-3.01-1.15-3.01-3.2v-7.92h5.13v-3.9h-5.13v-5.76h-4.39v5.76h-3.46v3.9h3.46v7.92c0,4.61,2.49,7.36,6.62,7.36,1.04,0,2.27-.22,2.9-.56Z"/><path style="fill:#000000;" d="m205.21,35.1c5.47,0,9.96-4.28,9.96-9.89s-4.5-9.85-9.96-9.85-9.93,4.2-9.93,9.85,4.54,9.89,9.93,9.89Zm0-15.84c3.23,0,5.61,2.34,5.61,5.95s-2.38,5.99-5.61,5.99-5.61-2.42-5.61-5.99,2.49-5.95,5.61-5.95Z"/><path style="fill:#000000;" d="m221.39,19.86v-3.94h-4.16v18.59h4.46v-9.96c0-3.61,2.19-5.13,4.83-5.13,1.08,0,2.01.22,2.57.48v-4.28c-.52-.15-1.26-.26-1.93-.26-2.83,0-4.95,1.93-5.76,4.5Z"/><rect style="fill:#000000;" x="230.61" y="15.92" width="4.46" height="18.59"/><path style="fill:#000000;" d="m251.54,15.92v2.34c-1.3-1.97-3.2-2.9-5.47-2.9-4.98,0-8.74,4.35-8.74,9.93s3.76,9.82,8.7,9.82c2.45,0,4.5-1.12,5.76-3.27v2.68h4.2V15.92h-4.46Zm-4.65,15.28c-3.05,0-5.24-2.34-5.24-5.91s2.19-6.02,5.24-6.02,5.32,2.34,5.32,5.99-2.27,5.95-5.32,5.95Z"/><path style="fill:#000000;" d="m109.11,15.36c-5.2,0-9.44,3.83-9.88,8.9-.14,1.22-.29,2-1.14,3.58-1.74,3.23-5.29,3.87-8.22,2.12-1.75-1.05-2.94-2.83-2.94-4.81,0-1.58.55-2.63.56-2.66.91-1.96,2.85-3.25,5.46-3.25,1.63,0,2.92.44,3.58.81l.04-3.84c-1-.52-2.55-.85-3.95-.85-5.91,0-9.98,4.36-9.98,9.79,0,4.54,2.77,8.31,7.11,9.46,3.93,1.19,8.43.04,11.11-3.87,1.8,2.67,4.86,4.35,8.26,4.35,5.47,0,9.97-4.28,9.97-9.89s-4.5-9.85-9.97-9.85Zm0,15.84c-3.12,0-5.61-2.42-5.61-5.99s2.49-5.95,5.61-5.95,5.61,2.34,5.61,5.95-2.38,5.99-5.61,5.99Z"/><polygon style="fill:#000000;" points="230.36 10.58 237.54 8.1 237.54 11.74 230.36 14.01 230.36 10.58"/><path style="fill:#000000;" d="m96.11,52.67c-1.12-2.55-3.35-3.98-6.06-3.98-4.22,0-7.42,3.32-7.42,8.17s3.2,8.11,7.42,8.11c2.79,0,5.06-1.52,6.15-4.19v3.76h1.77v-23.29h-1.86v11.43Zm-5.75,10.62c-3.38,0-5.93-2.48-5.93-6.43s2.55-6.52,5.93-6.52,5.99,2.64,5.99,6.49-2.61,6.46-5.99,6.46Z"/><path style="fill:#000000;" d="m109.5,48.7c-4.32,0-7.52,3.17-7.52,8.01,0,5.22,2.98,8.26,8.07,8.26,2.02,0,4.22-.53,5.68-1.49v-1.68c-1.24.84-3.23,1.52-5.53,1.52-3.94,0-6.21-2.02-6.43-5.99h12.61c.06-.37.09-.75.09-1.12,0-4.47-2.61-7.52-6.99-7.52Zm-5.71,7.11c.31-3.54,2.58-5.56,5.68-5.56,3.45,0,5.19,2.21,5.28,5.56h-10.96Z"/><path style="fill:#000000;" d="m136.3,48.7c-3.07,0-5.47,1.65-6.52,4.22v-11.68h-1.77v15.37c0,4.97,3.35,8.35,7.95,8.35s8.04-3.42,8.04-8.17-3.29-8.11-7.7-8.11Zm-.34,14.63c-3.54,0-6.21-2.64-6.21-6.49s2.67-6.49,6.21-6.49,6.24,2.61,6.24,6.49-2.61,6.49-6.24,6.49Z"/><path style="fill:#000000;" d="m154.65,48.7c-4.32,0-7.52,3.17-7.52,8.01,0,5.22,2.98,8.26,8.07,8.26,2.02,0,4.22-.53,5.68-1.49v-1.68c-1.24.84-3.23,1.52-5.53,1.52-3.94,0-6.21-2.02-6.43-5.99h12.61c.06-.37.09-.75.09-1.12,0-4.47-2.61-7.52-6.99-7.52Zm-5.71,7.11c.31-3.54,2.58-5.56,5.68-5.56,3.45,0,5.19,2.21,5.28,5.56h-10.96Z"/><path style="fill:#000000;" d="m167.54,62.14v-20.9h-1.86v21.15c0,1.65,1.02,2.58,2.52,2.58.59,0,1.18-.19,1.55-.43v-1.52c-.28.25-.71.31-1.12.31-.75,0-1.09-.4-1.09-1.18Z"/><path style="fill:#000000;" d="m175.33,62.14v-20.9h-1.86v21.15c0,1.65,1.02,2.58,2.52,2.58.59,0,1.18-.19,1.55-.43v-1.52c-.28.25-.71.31-1.12.31-.75,0-1.09-.4-1.09-1.18Z"/><path style="fill:#000000;" d="m187.44,48.7c-4.32,0-7.52,3.17-7.52,8.01,0,5.22,2.98,8.26,8.07,8.26,2.02,0,4.22-.53,5.68-1.49v-1.68c-1.24.84-3.23,1.52-5.53,1.52-3.94,0-6.21-2.02-6.43-5.99h12.61c.06-.37.09-.75.09-1.12,0-4.47-2.61-7.52-6.99-7.52Zm-5.71,7.11c.31-3.54,2.58-5.56,5.68-5.56,3.45,0,5.19,2.21,5.28,5.56h-10.96Z"/><polygon style="fill:#000000;" points="209.21 49.38 209.21 49.1 197.66 49.1 197.66 50.74 206.36 50.74 196.91 64.22 196.91 64.53 209.34 64.53 209.34 62.89 199.86 62.89 209.21 49.38"/><path style="fill:#000000;" d="m225.36,52.67c-1.12-2.55-3.35-3.98-6.06-3.98-4.22,0-7.42,3.32-7.42,8.17s3.2,8.11,7.42,8.11c2.79,0,5.06-1.52,6.15-4.19v3.76h1.77v-15.43h-1.86v3.57Zm-5.75,10.62c-3.39,0-5.93-2.48-5.93-6.43s2.55-6.52,5.93-6.52,5.99,2.64,5.99,6.49-2.61,6.46-5.99,6.46Z"/><path style="fill:#000000;" d="m6.35,30.84c3.26,0,4.76,2.07,4.76,4.05v4.37h-2.05v-4.37c0-1.26-.71-3.26-2.71-3.26-1.97,0-2.69,2.01-2.69,3.26s-.01,4.37-.01,4.37H1.59v-4.37c0-1.98,1.52-4.05,4.76-4.05"/><path style="fill:#000000;" d="m34.66,39.37c-3.27,0-4.77-2.05-4.77-4.03v-4.38h2.06v4.38c0,1.24.7,3.27,2.71,3.27,1.98,0,2.71-2.03,2.71-3.27v-4.38h2.04v4.38c0,1.98-1.5,4.03-4.75,4.03"/><path style="fill:#000000;" d="m19.42,38.65c-.42.35-.97.6-1.66.69-2.08.34-4.97-1.01-5.09-4.04-.11-3.11,2.94-4.39,4.93-4.35,3.35.09,4.53,2.62,4.53,4.06v4.24h-2.06v-4.21c0-.93-.41-3.27-2.55-3.34-2.08-.06-2.74,1.88-2.76,3.31,0,.92.22,3.19,2.6,3.32.73.01,1.77-.17,2.05-.42v.73Z"/><path style="fill:#000000;" d="m28.62,40.47c-.27.09-1.02.27-1.88.05-.98-.24-2.58-.71-2.58-4v-9.2h2.09v3.67s1.91,0,1.91,0v1.26h-1.91s.06,2.61,0,4.68c-.03,1.86.52,2.51.94,2.71.51.25,1.33.16,1.43.09v.74Z"/><path style="fill:#000000;" d="m41.37,34.62c0-2.06,1.06-3.48,2.92-3.67,1.31-.16,1.79.11,1.79.11v.81s-.7-.17-1.46.04c-.83.28-1.16,1.55-1.16,1.99,0,1.5,0,5.4,0,5.4h-2.09v-4.68"/><path style="fill:#000000;" d="m52.99,38.65c-.43.34-.98.6-1.67.69-2.08.34-4.96-1.01-5.08-4.04-.1-3.11,2.93-4.4,4.93-4.35,3.36.09,4.53,2.62,4.53,4.06v4.24h-2.05v-4.21c0-.93-.42-3.27-2.55-3.34-2.08-.06-2.74,1.89-2.74,3.32,0,.92.16,3.18,2.58,3.32.74.01,1.77-.17,2.05-.42v.73Z"/><path style="fill:#000000;" d="m33.91,3.73c-2.72-.82-4.4,1.16-5.15,3.71-.64,2.04-.77,2.59-1.12,3.66-.53,1.48-1.79,1.58-2.74.44-1.11-1.35-2.59-3.35-3.41-4.31-1.09-1.26-3.72-2.34-5.04-.69-2.01,2.49.65,5.27,2.06,6.94.98,1.19,2.14,2,1.77,2.67-.16.24-.44.33-.87.33-.99-.02-4.21-.9-4.97-1.04-.63-.14-1.11-.1-1.29.39-.23.57.58,2.22,2.69,3.3,2.11,1.09,5.49,1.61,5.81,1.69,1.22.26.99.88.69,1.16-.27.3-.61.5-.55.8.19.78,1.85.95,2.85,1.11.96.17,2.18.26,3.07-.11.86-.33.92-.82,1.51-1.03.79-.3,1.06-.05,2.75.28,1.09.2,3.03-.07,4.07-.42,1.96-.64,2.78-1.29,2.78-1.58,0-.25-.34-.34-.7-.37-.42-.07-1.84-.3-2.32-.62-.47-.32-.1-.87.86-1.25,1.01-.41,4.21-1.74,5.41-2.81,1.21-1.07,2.34-2.88,1.35-3.92-1.01-1.05-2.79.02-3.73.45-1.29.62-3.34,1.67-4.05,1.82-.62.15-1.78.11-1.25-1.3.68-1.74.99-2.8,1.41-3.85.52-1.29,1.25-4.49-1.89-5.46m11.93,8.63c-.87,3.69-5.21,5.87-5.62,6.12-.43.21-.97.44-1.16.56-.08.05-.13.1.03.15.46.12,2,.03,1.97.68,0,.7-1.16,1.85-4.12,3.11-3.23,1.39-5.92.75-6.6.6l-.06.02c-.18.2-1.68,1.64-5.95.9-3.05-.53-3.82-.84-4.53-1.64-.19-.25-.32-.67-.05-1.21.05-.13.06-.21-.02-.24-4.64-.95-7.45-3.87-8.49-5.73-.51-.94-.34-1.56-.08-1.95.37-.56,1.59-.6,2.87-.28,1.42.39,2.21.57,2.51.65.1.04.11,0,.06-.07-.36-.44-1.62-2.02-2.27-3.03-1.05-1.67-2.4-6.11,1.07-7.95,3.87-2.01,7.26,1.54,8,2.47.66.8,1.99,2.59,2.09,2.77.17.29.26.05.26.05,0,0,.9-3.28,1.7-4.78C28.83.88,31.7-.36,34.2.09c4.76.89,4.94,5.69,4.56,7.46-.34,1.53-.97,3.17-1.16,3.58-.03.08,0,.09.06.05.37-.17,2.06-1,3.88-1.78,1.81-.76,5.14-.74,4.29,2.96"/><path style="fill:#000000;" d="m2.65,64.9l1.2-2.73c.31-.05.61-.08.91-.1.29-.02.57-.03.84-.03.58,0,1.11.06,1.59.17.48.11.92.28,1.32.52.4.24.77.54,1.1.9.33.36.64.79.93,1.29h2.65l-5.68-12.19h-1.83l-5.68,12.19h2.65Zm3.95-8.98l2.19,4.84c-.33-.23-.73-.41-1.22-.54-.49-.13-1.07-.19-1.74-.19-.33,0-.68.02-1.06.05l1.83-4.16Zm13.6,8.98l5.62-12.19h-2.79l-3.69,8.44-3.67-8.44h-2.84l5.54,12.19h1.83Zm13.84.47c.96,0,1.86-.17,2.68-.5.82-.33,1.54-.79,2.14-1.38.6-.59,1.08-1.29,1.42-2.09.34-.8.51-1.67.51-2.61s-.17-1.79-.51-2.59c-.34-.8-.82-1.49-1.42-2.08-.6-.59-1.32-1.04-2.14-1.38-.82-.33-1.72-.5-2.68-.5s-1.86.17-2.68.5c-.82.33-1.54.79-2.14,1.38-.6.59-1.08,1.28-1.42,2.08-.34.8-.51,1.67-.51,2.59s.17,1.81.51,2.61c.34.8.82,1.5,1.42,2.09.6.59,1.32,1.05,2.14,1.38.82.33,1.72.5,2.68.5Zm0-2.26c-.6,0-1.16-.11-1.66-.32-.5-.21-.94-.51-1.31-.9-.37-.38-.66-.84-.87-1.38-.21-.53-.31-1.11-.31-1.74s.1-1.18.31-1.71.5-.97.87-1.35c.37-.38.81-.67,1.31-.89.5-.21,1.06-.32,1.66-.32s1.16.11,1.66.32c.5.21.94.51,1.31.89.37.38.66.83.87,1.35s.31,1.09.31,1.71-.1,1.22-.31,1.75c-.21.53-.5.98-.87,1.37-.37.38-.81.68-1.31.9-.5.21-1.06.32-1.66.32Zm10.53-10.39v12.19h2.51v-7.75l6.56,7.75h1.95v-12.19h-2.51v7.75l-6.56-7.75h-1.95Z"/></g></svg>