<svg width="114" height="33" viewBox="0 0 114 33" fill="none" xmlns="http://www.w3.org/2000/svg">
<g clip-path="url(#clip0_9931_23387)">
<path d="M70.2247 24.1934L66.4776 32.3958H66.2861L62.5391 24.1934H63.4943L66.3891 30.7754L69.284 24.1934H70.2247Z" fill="white"/>
<path d="M78.0281 28.3904H71.2383C71.3559 30.4225 72.7075 31.6153 74.9417 31.6153C76.0436 31.6153 77.0134 31.3359 77.6753 30.9375L77.6898 31.7477C76.9407 32.1898 75.9115 32.4108 74.8823 32.4108C72.105 32.4108 70.3994 30.7468 70.3994 28.1256C70.3994 25.7401 72.1341 24.002 74.3816 24.002C76.6291 24.002 78.0705 25.6514 78.0705 27.89C78.0705 28.0819 78.0559 28.2434 78.0268 28.3904H78.0281ZM71.2686 27.6835H77.2498C77.1904 26.0049 76.177 24.7538 74.355 24.7538C72.7233 24.7538 71.4456 25.9174 71.2686 27.6835Z" fill="white"/>
<path d="M87.1685 27.6833V32.2041H86.2872V27.8606C86.2872 25.9463 85.258 24.7536 83.5973 24.7536C81.9365 24.7536 80.643 26.0642 80.643 28.1254V32.2041H79.7617V24.1936H80.5994V26.182C80.9812 25.0038 82.0989 24.0029 83.7439 24.0029C85.8157 24.0029 87.1685 25.3876 87.1685 27.6845V27.6833Z" fill="white"/>
<path d="M96.9851 20.7188V32.2043H96.2214V30.3641C95.5898 31.6456 94.34 32.4108 92.8271 32.4108C90.5202 32.4108 88.8291 30.6435 88.8291 28.2142C88.8291 25.785 90.5335 24.0031 92.8271 24.0031C94.2818 24.0031 95.4867 24.71 96.1486 25.9174V20.72H96.9863L96.9851 20.7188ZM96.2504 28.1997C96.2504 26.2113 94.8249 24.7841 92.9289 24.7841C91.033 24.7841 89.6813 26.2125 89.6813 28.2155C89.6813 30.2184 91.0633 31.631 92.9289 31.631C94.7945 31.631 96.2504 30.2172 96.2504 28.1997Z" fill="white"/>
<path d="M107.874 31.8361V31.0259C108.301 31.3502 109.153 31.6296 110.064 31.6296C111.533 31.6296 112.313 30.9518 112.313 30.0542C112.313 29.2744 111.799 28.8177 110.829 28.4497L109.814 28.0525C108.741 27.625 108.079 27.0662 108.079 26.0642C108.079 24.886 109.21 24.0029 110.931 24.0029C111.577 24.0029 112.282 24.1948 112.68 24.4147V25.2248C112.239 24.9746 111.622 24.7681 110.931 24.7681C109.74 24.7681 108.946 25.2832 108.946 26.0642C108.946 26.7419 109.402 27.065 110.195 27.3747L111.194 27.7719C112.473 28.2724 113.148 28.921 113.148 30.0251C113.148 31.3065 112.075 32.4106 110.076 32.4106C109.121 32.4106 108.298 32.1458 107.872 31.8361H107.874Z" fill="white"/>
<path d="M35.551 22.9717H33.7266V32.2041H35.551V22.9717Z" fill="#EC1556"/>
<path d="M35.551 13.7393H33.7266V22.9717H35.551V13.7393Z" fill="#D11437"/>
<path d="M35.551 4.50586H33.7266V13.7383H35.551V4.50586Z" fill="#F26F28"/>
<path d="M47.6068 26.1094C47.054 24.8474 45.9472 24.1392 44.6113 24.1392C42.5214 24.1392 40.9395 25.7863 40.9395 28.1876C40.9395 30.5889 42.5214 32.2056 44.6113 32.2056C45.9945 32.2056 47.1158 31.4513 47.6529 30.1274V31.9894H48.5281V20.4443H47.6068V26.1094ZM44.7653 31.3736C43.0912 31.3736 41.8305 30.142 41.8305 28.1876C41.8305 26.2333 43.09 24.9555 44.7653 24.9555C46.4406 24.9555 47.7304 26.2636 47.7304 28.173C47.7304 30.0824 46.4394 31.3748 44.7653 31.3748V31.3736Z" fill="white"/>
<path d="M54.2297 24.1377C52.0937 24.1377 50.5117 25.7082 50.5117 28.1095C50.5117 30.6955 51.987 32.2041 54.5061 32.2041C55.5049 32.2041 56.596 31.9429 57.3172 31.4656V30.6348C56.7026 31.0502 55.7195 31.389 54.5824 31.389C52.6307 31.389 51.5094 30.3882 51.4027 28.4181H57.6397C57.67 28.2334 57.6858 28.0488 57.6858 27.8642C57.6858 25.6475 56.3947 24.1389 54.2285 24.1389L54.2297 24.1377ZM51.4027 27.6638C51.5567 25.9086 52.678 24.9078 54.2139 24.9078C55.9195 24.9078 56.779 26.0009 56.8251 27.6638H51.4015H51.4027Z" fill="white"/>
<path d="M105.431 26.1098C104.878 24.8478 103.771 24.1396 102.436 24.1396C100.346 24.1396 98.7637 25.7867 98.7637 28.188C98.7637 30.5893 100.346 32.206 102.436 32.206C103.819 32.206 104.94 31.4517 105.477 30.1278V31.9898H106.352V24.3388H105.431V26.1086V26.1098ZM102.59 31.374C100.915 31.374 99.6547 30.1424 99.6547 28.188C99.6547 26.2337 100.914 24.9559 102.59 24.9559C104.265 24.9559 105.555 26.264 105.555 28.1734C105.555 30.0828 104.264 31.3752 102.59 31.3752V31.374Z" fill="white"/>
<path d="M82.1961 7.89291V9.0541C81.5524 8.07753 80.6141 7.61719 79.4928 7.61719C77.0283 7.61719 75.1699 9.77316 75.1699 12.5377C75.1699 15.3022 77.0271 17.4035 79.4746 17.4035C80.688 17.4035 81.7003 16.8508 82.3258 15.7819V17.1083H84.4048V7.89291H82.1973H82.1961ZM79.8965 15.4673C78.3884 15.4673 77.3035 14.3062 77.3035 12.5364C77.3035 10.7667 78.3884 9.55088 79.8965 9.55088C81.4045 9.55088 82.527 10.7121 82.527 12.5182C82.527 14.3244 81.4045 15.4673 79.8965 15.4673Z" fill="white"/>
<path d="M3.14054 15.2871C4.75161 15.2871 5.49351 16.3135 5.49351 17.2961V19.4606H4.48128V17.2961C4.48128 16.6742 4.13095 15.6782 3.14054 15.6782C2.16711 15.6782 1.80708 16.6742 1.80708 17.2961C1.80708 17.9071 1.80102 19.4606 1.80102 19.4606H0.785156V17.2961C0.785156 16.3147 1.53553 15.2871 3.14054 15.2871Z" fill="white"/>
<path d="M17.1469 19.518C15.5297 19.518 14.7891 18.5026 14.7891 17.5211V15.3506H15.8086V17.5211C15.8086 18.1345 16.1565 19.1414 17.1469 19.1414C18.1264 19.1414 18.4864 18.1345 18.4864 17.5211V15.3506H19.4962V17.5211C19.4962 18.5026 18.7555 19.518 17.1469 19.518Z" fill="white"/>
<path d="M9.60709 19.1608C9.39859 19.3333 9.12947 19.4596 8.78398 19.5009C7.75357 19.671 6.32555 19.0017 6.26615 17.5004C6.21039 15.9615 7.71963 15.3226 8.70518 15.3433C10.3635 15.3882 10.949 16.6405 10.949 17.3559V19.4596H9.93076V17.3705C9.93076 16.9101 9.72953 15.7502 8.67124 15.7149C7.64205 15.6846 7.31353 16.6466 7.30504 17.3559C7.30504 17.8126 7.41414 18.9361 8.59123 19.0042C8.95127 19.0102 9.46526 18.9203 9.60709 18.7989V19.1608Z" fill="white"/>
<path d="M14.1577 20.0614C14.0231 20.1064 13.6534 20.1975 13.2279 20.0845C12.743 19.9655 11.9502 19.7335 11.9502 18.1046V13.5449H12.9855V15.362H13.931V15.9888H12.9855C12.9855 15.9888 13.0158 17.2811 12.9855 18.3075C12.9685 19.2282 13.24 19.5525 13.451 19.6509C13.7007 19.776 14.1104 19.7286 14.1577 19.6934V20.0614Z" fill="white"/>
<path d="M20.4648 17.1611C20.4648 16.1396 20.9885 15.4339 21.9074 15.344C22.5572 15.2638 22.7923 15.3974 22.7923 15.3974V15.797C22.7923 15.797 22.4481 15.7132 22.0686 15.8165C21.6589 15.9561 21.4977 16.5841 21.4977 16.8003C21.4977 17.5437 21.4977 19.4786 21.4977 19.4786H20.4648V17.1611Z" fill="white"/>
<path d="M26.216 19.161C26.0014 19.3311 25.7299 19.4598 25.3905 19.5011C24.3637 19.6712 22.9344 19.0019 22.8763 17.5006C22.8253 15.9617 24.3273 15.3191 25.3153 15.3434C26.9761 15.3884 27.5592 16.6407 27.5592 17.3561V19.4598H26.5433V17.3707C26.5433 16.9103 26.3336 15.7503 25.2826 15.7127C24.2546 15.6847 23.9285 16.6467 23.9285 17.3561C23.9285 17.8128 24.0085 18.9315 25.2038 19.0043C25.5687 19.0104 26.0778 18.9205 26.216 18.7991V19.161Z" fill="white"/>
<path d="M16.7739 1.84965C15.4295 1.44154 14.5967 2.42539 14.2258 3.69103C13.9094 4.70039 13.8451 4.97733 13.6694 5.50448C13.4075 6.23811 12.7844 6.28548 12.3129 5.72068C11.7613 5.05263 11.0327 4.0615 10.6254 3.58657C10.0884 2.95982 8.78402 2.4266 8.13183 3.24405C7.13779 4.47811 8.4555 5.85793 9.15254 6.68145C9.63744 7.27298 10.2108 7.67138 10.0302 8.00297C9.94898 8.12322 9.81079 8.16695 9.60107 8.16695C9.11375 8.15602 7.51601 7.71875 7.14143 7.65073C6.82867 7.58271 6.59349 7.59972 6.505 7.84386C6.39226 8.12565 6.79473 8.9431 7.83604 9.48118C8.87736 10.0193 10.5503 10.278 10.7103 10.3181C11.3164 10.4468 11.2 10.7541 11.0497 10.8926C10.9164 11.0408 10.7491 11.1416 10.7794 11.291C10.8739 11.6784 11.6958 11.761 12.1916 11.8412C12.6656 11.925 13.2717 11.9687 13.7118 11.7853C14.1397 11.6201 14.1652 11.3772 14.4585 11.274C14.8477 11.1234 14.981 11.2497 15.8187 11.4137C16.3593 11.5145 17.317 11.3772 17.8322 11.2084C18.8044 10.8902 19.2057 10.5695 19.2057 10.4237C19.2057 10.3011 19.0384 10.2537 18.8602 10.2428C18.6517 10.21 17.951 10.0946 17.7098 9.93667C17.4794 9.77755 17.6625 9.50547 18.1365 9.3172C18.6383 9.11558 20.2215 8.45239 20.8143 7.92281C21.4132 7.39323 21.9732 6.49683 21.4798 5.98183C20.9816 5.45954 20.1015 5.99033 19.6336 6.2041C18.9959 6.51141 17.9801 7.03005 17.6322 7.10779C17.3267 7.1831 16.7497 7.16123 17.0151 6.46404C17.3497 5.60408 17.5049 5.0745 17.711 4.55585C17.9668 3.91695 18.3268 2.32943 16.7763 1.85087M22.6739 6.1288C22.2435 7.95803 20.0991 9.04027 19.8918 9.16052C19.6772 9.2674 19.4142 9.37794 19.3196 9.43988C19.2808 9.46417 19.2542 9.48968 19.3329 9.51397C19.5621 9.57592 20.3209 9.52855 20.3076 9.85286C20.304 10.2002 19.733 10.7699 18.2686 11.3954C16.6709 12.0841 15.3386 11.7683 15.0016 11.6906L14.9725 11.6991C14.884 11.7963 14.1397 12.5105 12.0304 12.1449C10.5187 11.8801 10.1405 11.7295 9.78654 11.3298C9.69077 11.2047 9.62774 10.9983 9.76472 10.7298C9.78654 10.663 9.79381 10.6266 9.7526 10.6132C7.45661 10.1444 6.06859 8.6941 5.55218 7.77341C5.30003 7.30942 5.38246 7.0009 5.51339 6.80535C5.69401 6.52841 6.30134 6.51019 6.93413 6.66566C7.63481 6.85879 8.02758 6.94989 8.17547 6.98633C8.22517 7.00698 8.22881 6.98633 8.20578 6.94989C8.02758 6.73368 7.40691 5.94903 7.08203 5.44617C6.56319 4.62023 5.89282 2.42053 7.61299 1.50834C9.52833 0.509914 11.2024 2.26991 11.5722 2.73026C11.8983 3.12866 12.5577 4.01291 12.6074 4.10279C12.6911 4.2449 12.7335 4.12709 12.7335 4.12709C12.7335 4.12709 13.1808 2.50312 13.5736 1.75855C14.2646 0.433393 15.6841 -0.179996 16.917 0.0459251C19.2723 0.486836 19.3608 2.86873 19.1741 3.74326C19.0069 4.50119 18.6929 5.31257 18.6008 5.51662C18.5838 5.55549 18.6008 5.56156 18.6311 5.54092C18.8117 5.45711 19.6518 5.04535 20.55 4.65909C21.4459 4.28256 23.0945 4.2947 22.6739 6.12758" fill="white"/>
<path d="M1.30922 32.1715L1.90322 30.8172C2.05839 30.7941 2.20749 30.7771 2.35054 30.765C2.49358 30.754 2.63178 30.748 2.76391 30.748C3.05121 30.748 3.31306 30.7759 3.55187 30.8306C3.78947 30.8852 4.00889 30.9715 4.20648 31.0893C4.40408 31.2071 4.58591 31.3553 4.74957 31.5338C4.91322 31.7124 5.06717 31.9249 5.21022 32.1727H6.51944L3.71189 26.1324H2.80755L0 32.1715H1.30922ZM3.26457 27.7187L4.34953 30.1176C4.1883 30.0022 3.98828 29.9135 3.74704 29.8503C3.5058 29.7872 3.2185 29.7556 2.88635 29.7556C2.72512 29.7556 2.55056 29.7641 2.36145 29.7811L3.26578 27.7187H3.26457ZM9.99009 32.1715L12.7722 26.1311H11.3939L9.56823 30.3168L7.75108 26.1311H6.3473L9.08576 32.1715H9.99009ZM16.8368 32.4047C17.3132 32.4047 17.7557 32.3221 18.163 32.1581C18.5703 31.9942 18.9243 31.7658 19.2225 31.4719C19.5207 31.1779 19.7547 30.833 19.9244 30.4358C20.0941 30.0386 20.179 29.6074 20.179 29.141C20.179 28.6746 20.0941 28.2519 19.9244 27.8547C19.7547 27.4575 19.5207 27.1138 19.2225 26.8235C18.9243 26.5332 18.5703 26.3061 18.163 26.1421C17.7557 25.9781 17.3132 25.8955 16.8368 25.8955C16.3604 25.8955 15.918 25.9781 15.5106 26.1421C15.1033 26.3061 14.7494 26.5332 14.4511 26.8235C14.1529 27.1138 13.919 27.4575 13.7493 27.8547C13.5795 28.2519 13.4947 28.6807 13.4947 29.141C13.4947 29.6013 13.5795 30.0386 13.7493 30.4358C13.919 30.833 14.1529 31.1779 14.4511 31.4719C14.7494 31.7658 15.1021 31.9942 15.5106 32.1581C15.918 32.3221 16.3604 32.4047 16.8368 32.4047ZM16.8368 31.2824C16.5386 31.2824 16.2647 31.229 16.0149 31.1233C15.7652 31.0164 15.5482 30.8682 15.3652 30.6787C15.1809 30.4892 15.0379 30.2621 14.9348 29.9973C14.8318 29.7325 14.7797 29.4447 14.7797 29.1349C14.7797 28.8252 14.8318 28.5483 14.9348 28.2895C15.0379 28.0308 15.1821 27.8073 15.3652 27.6203C15.5494 27.4332 15.7652 27.2863 16.0149 27.1806C16.2647 27.0737 16.5386 27.0215 16.8368 27.0215C17.135 27.0215 17.409 27.0749 17.6599 27.1806C17.9097 27.2875 18.1267 27.4332 18.3097 27.6203C18.494 27.8073 18.637 28.0296 18.7401 28.2895C18.8431 28.5483 18.8952 28.8301 18.8952 29.1349C18.8952 29.4398 18.8431 29.741 18.7401 30.0022C18.637 30.2645 18.4928 30.4892 18.3097 30.6799C18.1254 30.8694 17.9097 31.0176 17.6599 31.1245C17.4102 31.2314 17.1363 31.2836 16.8368 31.2836V31.2824ZM22.0471 26.1311V32.1715H23.2872V28.3321L26.5336 32.1715H27.4985V26.1311H26.2584V29.9706L23.012 26.1311H22.0471Z" fill="white"/>
<path d="M45.7377 7.86967V8.66283H48.1816V10.7666H45.7377V17.9766C45.7377 20.3391 44.4297 21.8234 42.261 21.8234C41.7616 21.8234 41.2973 21.7541 41.0039 21.6169L41.0378 19.5131C41.2621 19.6164 41.5543 19.6516 41.8646 19.6516C42.7944 19.6516 43.2587 19.0139 43.2587 17.9438V10.769H41.5894V8.66526H43.2587V7.80287C43.2587 5.76715 44.5667 4.50879 46.8566 4.50879C47.4252 4.50879 47.8373 4.57802 48.1816 4.69827V6.64775C47.9404 6.56152 47.6312 6.50929 47.2348 6.50929C46.202 6.50929 45.7377 7.00971 45.7377 7.8721V7.86967Z" fill="white"/>
<path d="M48.1289 12.5083C48.1289 9.74864 50.2976 7.52344 53.173 7.52344C56.0485 7.52344 58.2511 9.74864 58.2511 12.5083C58.2511 15.2679 56.0994 17.5101 53.173 17.5101C50.2467 17.5101 48.1289 15.3202 48.1289 12.5083ZM55.8582 12.5083C55.8582 10.922 54.7732 9.6624 53.173 9.6624C51.5729 9.6624 50.5049 10.922 50.5049 12.5083C50.5049 14.0946 51.6238 15.3882 53.173 15.3882C54.7223 15.3882 55.8582 14.1468 55.8582 12.5083Z" fill="white"/>
<path d="M66.3765 7.64345V10.1104C66.0492 9.9719 65.654 9.86865 65.1375 9.86865C63.6222 9.86865 62.4355 10.7651 62.4355 12.508V17.2342H59.9395V7.78313H62.2463V9.42167C62.7458 8.33457 63.9508 7.52441 65.4309 7.52441C65.7582 7.52441 66.1364 7.57664 66.3777 7.64466L66.3765 7.64345Z" fill="white"/>
<path d="M74.0368 17.077C73.6586 17.2665 73.1071 17.4219 72.5397 17.4742C72.901 17.8884 73.1943 18.4228 73.1943 19.0265C73.1943 20.0953 72.3858 20.9407 70.9396 20.9407C70.3541 20.9407 69.7516 20.8023 69.3903 20.5435V18.922C69.5625 19.0423 69.8898 19.1467 70.234 19.1467C70.8026 19.1467 71.2148 18.8188 71.2148 18.2673C71.2148 17.9564 71.1117 17.6807 70.9565 17.4389C68.3054 17.0418 66.584 15.0073 66.584 12.5063C66.584 9.74669 68.7527 7.52148 71.9542 7.52148C72.7119 7.52148 73.5374 7.69396 74.0368 7.95268L74.0029 10.0916C73.6586 9.93617 72.9871 9.69446 72.1094 9.69446C70.1819 9.69446 68.9769 10.9188 68.9769 12.5063C68.9769 14.0939 70.1819 15.3522 72.1094 15.3522C72.9871 15.3522 73.6586 15.1105 74.0029 14.938L74.0368 17.077Z" fill="white"/>
</g>
<defs>
<clipPath id="clip0_9931_23387">
<rect width="113.148" height="32.411" fill="white"/>
</clipPath>
</defs>
</svg>
