<svg width="129" height="33" viewBox="0 0 129 33" fill="none" xmlns="http://www.w3.org/2000/svg">
<path d="M58.6191 12.9809V7.99609H61.1167V13.1534C61.1167 14.6025 61.8104 15.6021 63.3188 15.6021C64.8271 15.6021 65.5208 14.6195 65.5208 13.1534V7.99609H68.0184V12.9979C68.0184 15.9131 66.3537 17.7241 63.3188 17.7241C60.2838 17.7241 58.6191 15.8961 58.6191 12.9809Z" fill="white"/>
<path d="M78.177 13.4121H71.3962C71.6564 14.8441 72.7665 15.6373 74.5521 15.6373C75.9737 15.6373 76.9972 15.2923 77.7605 14.8441L77.7947 16.9308C76.7883 17.5345 75.5743 17.724 74.3433 17.724C71.1519 17.724 69.0195 15.7065 69.0195 12.7562C69.0195 9.80582 71.1007 7.7373 73.823 7.7373C76.2852 7.7373 78.2625 9.46208 78.2625 12.3772C78.2625 12.8084 78.2283 13.1704 78.1758 13.4121H78.177ZM71.4133 11.7905H75.992C75.9053 10.514 75.0553 9.75481 73.7717 9.75481C72.5577 9.75481 71.6906 10.531 71.4133 11.7905Z" fill="white"/>
<path d="M86.4842 7.85877V10.3257C86.1545 10.1872 85.7563 10.084 85.236 10.084C83.7094 10.084 82.5137 10.9804 82.5137 12.7234V17.4495H79.999V7.99602H82.3232V9.63456C82.8264 8.54746 84.0404 7.7373 85.5316 7.7373C85.8614 7.7373 86.2424 7.78953 86.4855 7.85755L86.4842 7.85877Z" fill="white"/>
<path d="M96.0064 8.23781L91.4448 15.3094H95.8147V17.4484H87.6465V17.2066L92.2948 10.1351H87.8895V7.99609H96.0064V8.23781Z" fill="white"/>
<path d="M79.5732 24.5859L75.7981 32.7883H75.6052L71.8301 24.5859H72.7925L75.709 31.168L78.6255 24.5859H79.5732Z" fill="white"/>
<path d="M87.4348 28.782H80.5942C80.7126 30.8141 82.0744 32.0069 84.3253 32.0069C85.4355 32.0069 86.4125 31.7275 87.0794 31.3291L87.094 32.1393C86.3393 32.5814 85.3024 32.8024 84.2655 32.8024C81.4674 32.8024 79.749 31.1384 79.749 28.5172C79.749 26.1317 81.4967 24.3936 83.7611 24.3936C86.0254 24.3936 87.4775 26.043 87.4775 28.2816C87.4775 28.4735 87.4629 28.635 87.4336 28.782H87.4348ZM80.6247 28.0751H86.6507C86.5909 26.3965 85.5698 25.1454 83.7342 25.1454C82.0903 25.1454 80.803 26.309 80.6247 28.0751Z" fill="white"/>
<path d="M96.6439 28.0749V32.5957H95.756V28.2522C95.756 26.3379 94.7191 25.1452 93.0459 25.1452C91.3727 25.1452 90.0695 26.4558 90.0695 28.517V32.5957H89.1816V24.5852H90.0256V26.5736C90.4103 25.3954 91.5363 24.3945 93.1937 24.3945C95.2809 24.3945 96.6439 25.7792 96.6439 28.0761V28.0749Z" fill="white"/>
<path d="M113.941 32.2277V31.4175C114.371 31.7418 115.229 32.0212 116.147 32.0212C117.627 32.0212 118.412 31.3434 118.412 30.4458C118.412 29.666 117.894 29.2093 116.917 28.8413L115.895 28.4441C114.814 28.0166 114.147 27.4578 114.147 26.4558C114.147 25.2776 115.287 24.3945 117.02 24.3945C117.671 24.3945 118.382 24.5864 118.782 24.8063V25.6164C118.338 25.3662 117.716 25.1597 117.02 25.1597C115.821 25.1597 115.021 25.6748 115.021 26.4558C115.021 27.1335 115.48 27.4566 116.279 27.7663L117.285 28.1635C118.573 28.664 119.254 29.3126 119.254 30.4167C119.254 31.6981 118.173 32.8022 116.159 32.8022C115.196 32.8022 114.367 32.5374 113.938 32.2277H113.941Z" fill="white"/>
<path d="M44.6389 23.3633H42.8008V32.5957H44.6389V23.3633Z" fill="white"/>
<path d="M44.6389 14.1309H42.8008V23.3633H44.6389V14.1309Z" fill="white"/>
<path d="M44.6389 4.89746H42.8008V14.1299H44.6389V4.89746Z" fill="white"/>
<path d="M56.7846 26.501C56.2277 25.239 55.1127 24.5308 53.7668 24.5308C51.6612 24.5308 50.0674 26.1779 50.0674 28.5792C50.0674 30.9805 51.6612 32.5972 53.7668 32.5972C55.1603 32.5972 56.29 31.8429 56.831 30.519V32.381H57.7128V20.8359H56.7846V26.501ZM53.9219 31.7652C52.2352 31.7652 50.9651 30.5336 50.9651 28.5792C50.9651 26.6249 52.234 25.3471 53.9219 25.3471C55.6097 25.3471 56.9092 26.6552 56.9092 28.5646C56.9092 30.474 55.6085 31.7664 53.9219 31.7664V31.7652Z" fill="white"/>
<path d="M63.4567 24.5293C61.3048 24.5293 59.7109 26.0998 59.7109 28.5011C59.7109 31.0871 61.1973 32.5957 63.7352 32.5957C64.7415 32.5957 65.8407 32.3345 66.5674 31.8572V31.0264C65.9482 31.4418 64.9577 31.7806 63.8121 31.7806C61.8458 31.7806 60.7161 30.7798 60.6086 28.8097H66.8923C66.9228 28.625 66.9387 28.4404 66.9387 28.2558C66.9387 26.0391 65.638 24.5305 63.4555 24.5305L63.4567 24.5293ZM60.6086 28.0554C60.7637 26.3002 61.8934 25.2994 63.4408 25.2994C65.1592 25.2994 66.0252 26.3925 66.0716 28.0554H60.6074H60.6086Z" fill="white"/>
<path d="M111.412 26.5014C110.855 25.2394 109.74 24.5312 108.394 24.5312C106.288 24.5312 104.694 26.1783 104.694 28.5796C104.694 30.9809 106.288 32.5976 108.394 32.5976C109.787 32.5976 110.917 31.8433 111.458 30.5194V32.3814H112.34V24.7304H111.412V26.5002V26.5014ZM108.549 31.7656C106.862 31.7656 105.592 30.534 105.592 28.5796C105.592 26.6253 106.861 25.3475 108.549 25.3475C110.237 25.3475 111.536 26.6556 111.536 28.565C111.536 30.4744 110.235 31.7668 108.549 31.7668V31.7656Z" fill="white"/>
<path d="M103.814 8.28451V9.4457C103.166 8.46913 102.22 8.00879 101.091 8.00879C98.6076 8.00879 96.7354 10.1648 96.7354 12.9293C96.7354 15.6938 98.6064 17.7951 101.072 17.7951C102.295 17.7951 103.315 17.2424 103.945 16.1735V17.4999H106.039V8.28451H103.815H103.814ZM101.498 15.859C99.9792 15.859 98.8861 14.6978 98.8861 12.928C98.8861 11.1583 99.9792 9.94248 101.498 9.94248C103.018 9.94248 104.149 11.1037 104.149 12.9098C104.149 14.716 103.018 15.859 101.498 15.859Z" fill="white"/>
<path d="M11.9863 15.6787C13.6094 15.6787 14.3569 16.7051 14.3569 17.6877V19.8522H13.3371V17.6877C13.3371 17.0658 12.9841 16.0698 11.9863 16.0698C11.0056 16.0698 10.6429 17.0658 10.6429 17.6877C10.6429 18.2987 10.6367 19.8522 10.6367 19.8522H9.61328V17.6877C9.61328 16.7063 10.3693 15.6787 11.9863 15.6787Z" fill="white"/>
<path d="M26.0971 19.9096C24.4679 19.9096 23.7217 18.8942 23.7217 17.9127V15.7422H24.7488V17.9127C24.7488 18.5261 25.0993 19.5331 26.0971 19.5331C27.084 19.5331 27.4467 18.5261 27.4467 17.9127V15.7422H28.4641V17.9127C28.4641 18.8942 27.7178 19.9096 26.0971 19.9096Z" fill="white"/>
<path d="M18.5013 19.5524C18.2912 19.7249 18.0201 19.8512 17.672 19.8925C16.6339 20.0626 15.1951 19.3933 15.1353 17.892C15.0791 16.3531 16.5997 15.7142 17.5926 15.7349C19.2634 15.7798 19.8533 17.0321 19.8533 17.7475V19.8512H18.8273V17.7621C18.8273 17.3017 18.6246 16.1418 17.5584 16.1065C16.5215 16.0762 16.1905 17.0382 16.182 17.7475C16.182 18.2042 16.2919 19.3277 17.4778 19.3958C17.8405 19.4018 18.3584 19.3119 18.5013 19.1905V19.5524Z" fill="white"/>
<path d="M23.0853 20.453C22.9498 20.498 22.5773 20.5891 22.1486 20.4761C21.6601 20.3571 20.8613 20.1251 20.8613 18.4962V13.9365H21.9043V15.7536H22.857V16.3804H21.9043C21.9043 16.3804 21.9349 17.6727 21.9043 18.6991C21.8872 19.6198 22.1608 19.9441 22.3733 20.0425C22.6249 20.1676 23.0377 20.1202 23.0853 20.085V20.453Z" fill="white"/>
<path d="M29.4404 17.5527C29.4404 16.5312 29.968 15.8255 30.8938 15.7356C31.5484 15.6554 31.7854 15.789 31.7854 15.789V16.1886C31.7854 16.1886 31.4385 16.1048 31.0562 16.2081C30.6434 16.3478 30.481 16.9757 30.481 17.1919C30.481 17.9353 30.481 19.8702 30.481 19.8702H29.4404V17.5527Z" fill="white"/>
<path d="M35.2342 19.5526C35.018 19.7227 34.7444 19.8514 34.4024 19.8927C33.368 20.0628 31.9281 19.3935 31.8694 17.8922C31.8181 16.3533 33.3314 15.7107 34.3267 15.735C35.9999 15.78 36.5874 17.0323 36.5874 17.7477V19.8514H35.5639V17.7623C35.5639 17.3019 35.3526 16.1419 34.2938 16.1043C33.2581 16.0763 32.9295 17.0383 32.9295 17.7477C32.9295 18.2044 33.0101 19.3231 34.2144 19.3959C34.582 19.402 35.0949 19.3121 35.2342 19.1907V19.5526Z" fill="white"/>
<path d="M25.7215 2.24125C24.367 1.83314 23.528 2.81699 23.1542 4.08263C22.8355 5.09199 22.7707 5.36893 22.5937 5.89608C22.3299 6.62972 21.7021 6.67709 21.227 6.11228C20.6713 5.44424 19.9373 4.4531 19.5269 3.97818C18.9859 3.35143 17.6717 2.8182 17.0147 3.63565C16.0132 4.86972 17.3408 6.24954 18.043 7.07306C18.5316 7.66458 19.1092 8.06298 18.9273 8.39457C18.8454 8.51482 18.7062 8.55855 18.4949 8.55855C18.0039 8.54762 16.3942 8.11035 16.0169 8.04233C15.7018 7.97431 15.4648 7.99132 15.3757 8.23546C15.2621 8.51725 15.6676 9.3347 16.7167 9.87278C17.7658 10.4109 19.4512 10.6696 19.6124 10.7097C20.2231 10.8384 20.1058 11.1457 19.9544 11.2842C19.82 11.4324 19.6515 11.5332 19.682 11.6826C19.7773 12.07 20.6054 12.1526 21.1049 12.2328C21.5824 12.3166 22.1931 12.3603 22.6364 12.1769C23.0675 12.0117 23.0932 11.7688 23.3887 11.6656C23.7808 11.515 23.9151 11.6413 24.7591 11.8053C25.3038 11.9061 26.2686 11.7688 26.7877 11.6C27.7672 11.2818 28.1714 10.9611 28.1714 10.8153C28.1714 10.6927 28.0029 10.6453 27.8233 10.6344C27.6133 10.6016 26.9074 10.4862 26.6643 10.3283C26.4323 10.1692 26.6167 9.89707 27.0942 9.70881C27.5998 9.50718 29.1949 8.84399 29.7921 8.31441C30.3954 7.78483 30.9597 6.88843 30.4626 6.37343C29.9607 5.85114 29.074 6.38193 28.6025 6.59571C27.9601 6.90301 26.9367 7.42165 26.5861 7.49939C26.2784 7.5747 25.697 7.55283 25.9645 6.85564C26.3016 5.99568 26.4579 5.4661 26.6655 4.94745C26.9232 4.30856 27.286 2.72103 25.7239 2.24247M31.6656 6.5204C31.232 8.34963 29.0715 9.43187 28.8627 9.55212C28.6465 9.65901 28.3815 9.76954 28.2862 9.83148C28.2471 9.85578 28.2203 9.88128 28.2997 9.90558C28.5305 9.96752 29.295 9.92015 29.2816 10.2445C29.2779 10.5918 28.7027 11.1615 27.2273 11.787C25.6176 12.4757 24.2754 12.1599 23.9359 12.0822L23.9066 12.0907C23.8174 12.1879 23.0675 12.9021 20.9424 12.5365C19.4194 12.2717 19.0384 12.1211 18.6818 11.7214C18.5853 11.5963 18.5218 11.3899 18.6598 11.1214C18.6818 11.0546 18.6891 11.0182 18.6476 11.0048C16.3344 10.536 14.936 9.0857 14.4157 8.16501C14.1617 7.70102 14.2447 7.3925 14.3766 7.19695C14.5586 6.92001 15.1705 6.90179 15.808 7.05727C16.5139 7.25039 16.9096 7.34149 17.0586 7.37793C17.1087 7.39858 17.1124 7.37793 17.0892 7.34149C16.9096 7.12528 16.2843 6.34063 15.957 5.83778C15.4343 5.01183 14.7589 2.81213 16.4919 1.89994C18.4216 0.901516 20.1083 2.66152 20.4808 3.12186C20.8093 3.52026 21.4737 4.40451 21.5238 4.49439C21.6081 4.63651 21.6508 4.51869 21.6508 4.51869C21.6508 4.51869 22.1015 2.89473 22.4972 2.15016C23.1933 0.824994 24.6235 0.211605 25.8656 0.437527C28.2386 0.878438 28.3277 3.26033 28.1397 4.13486C27.9711 4.89279 27.6548 5.70417 27.562 5.90822C27.5449 5.94709 27.562 5.95317 27.5925 5.93252C27.7745 5.84871 28.6209 5.43695 29.5259 5.05069C30.4284 4.67416 32.0894 4.68631 31.6656 6.51918" fill="white"/>
<path d="M10.1413 32.5631L10.7397 31.2088C10.8961 31.1857 11.0463 31.1687 11.1904 31.1566C11.3345 31.1456 11.4737 31.1396 11.6069 31.1396C11.8963 31.1396 12.1601 31.1675 12.4007 31.2222C12.6401 31.2768 12.8612 31.3631 13.0602 31.4809C13.2593 31.5987 13.4425 31.7469 13.6074 31.9254C13.7723 32.104 13.9274 32.3165 14.0715 32.5643H15.3905L12.5619 26.524H11.6508L8.82227 32.5631H10.1413ZM12.1113 28.1103L13.2044 30.5092C13.0419 30.3938 12.8404 30.3051 12.5974 30.2419C12.3543 30.1788 12.0649 30.1472 11.7302 30.1472C11.5678 30.1472 11.3919 30.1557 11.2014 30.1727L12.1125 28.1103H12.1113ZM18.8872 32.5631L21.6901 26.5227H20.3014L18.4621 30.7084L16.6314 26.5227H15.2171L17.976 32.5631H18.8872ZM25.7852 32.7963C26.2651 32.7963 26.7109 32.7137 27.1213 32.5497C27.5316 32.3858 27.8883 32.1574 28.1887 31.8635C28.4892 31.5695 28.7249 31.2246 28.8959 30.8274C29.0668 30.4302 29.1523 29.999 29.1523 29.5326C29.1523 29.0662 29.0668 28.6435 28.8959 28.2463C28.7249 27.8491 28.4892 27.5054 28.1887 27.2151C27.8883 26.9248 27.5316 26.6977 27.1213 26.5337C26.7109 26.3697 26.2651 26.2871 25.7852 26.2871C25.3052 26.2871 24.8594 26.3697 24.449 26.5337C24.0387 26.6977 23.682 26.9248 23.3816 27.2151C23.0812 27.5054 22.8454 27.8491 22.6745 28.2463C22.5035 28.6435 22.418 29.0723 22.418 29.5326C22.418 29.9929 22.5035 30.4302 22.6745 30.8274C22.8454 31.2246 23.0812 31.5695 23.3816 31.8635C23.682 32.1574 24.0375 32.3858 24.449 32.5497C24.8594 32.7137 25.3052 32.7963 25.7852 32.7963ZM25.7852 31.674C25.4847 31.674 25.2087 31.6206 24.9571 31.5149C24.7055 31.408 24.4869 31.2598 24.3025 31.0703C24.1168 30.8808 23.9727 30.6537 23.8689 30.3889C23.7651 30.1241 23.7126 29.8363 23.7126 29.5265C23.7126 29.2168 23.7651 28.9399 23.8689 28.6811C23.9727 28.4224 24.1181 28.1989 24.3025 28.0119C24.4881 27.8248 24.7055 27.6779 24.9571 27.5722C25.2087 27.4653 25.4847 27.4131 25.7852 27.4131C26.0856 27.4131 26.3616 27.4665 26.6144 27.5722C26.866 27.6791 27.0846 27.8248 27.2691 28.0119C27.4547 28.1989 27.5988 28.4212 27.7026 28.6811C27.8064 28.9399 27.859 29.2217 27.859 29.5265C27.859 29.8314 27.8064 30.1326 27.7026 30.3938C27.5988 30.6561 27.4535 30.8808 27.2691 31.0715C27.0834 31.261 26.866 31.4092 26.6144 31.5161C26.3628 31.623 26.0868 31.6752 25.7852 31.6752V31.674ZM31.0344 26.5227V32.5631H32.2838V28.7237L35.5545 32.5631H36.5267V26.5227H35.2773V30.3622L32.0066 26.5227H31.0344Z" fill="white"/>
<path d="M54.903 8.26127V9.05443H57.3652V11.1582H54.903V18.3682C54.903 20.7307 53.5852 22.215 51.4003 22.215C50.8971 22.215 50.4293 22.1457 50.1338 22.0085L50.168 19.9047C50.3939 20.008 50.6883 20.0432 51.0009 20.0432C51.9377 20.0432 52.4054 19.4055 52.4054 18.3354V11.1606H50.7237V9.05686H52.4054V8.19447C52.4054 6.15875 53.7232 4.90039 56.0303 4.90039C56.6031 4.90039 57.0184 4.96962 57.3652 5.08987V7.03936C57.1222 6.95312 56.8107 6.90089 56.4114 6.90089C55.3708 6.90089 54.903 7.40132 54.903 8.2637V8.26127Z" fill="white"/>
<path d="M100.988 25.0069V30.1351C100.988 31.2902 101.607 31.906 102.629 31.906C103.063 31.906 103.573 31.7979 103.883 31.6133V32.4757C103.573 32.6603 103.047 32.7842 102.552 32.7842C100.988 32.7842 100.074 31.8137 100.074 30.1351V25.0069H98.4326V24.1907H100.074V21.6035H100.988V24.1907H103.883V25.0069H100.988Z" fill="white"/>
<defs>
<clipPath id="clip0_11882_24015">
<rect width="128" height="32.41" fill="white" transform="translate(0.0390625 0.392578)"/>
</clipPath>
<clipPath id="clip1_11882_24015">
<rect width="110.434" height="32.41" fill="white" transform="translate(8.82227 0.392578)"/>
</clipPath>
</defs>
</svg>
