<svg width="129" height="33" viewBox="0 0 129 33" fill="none" xmlns="http://www.w3.org/2000/svg">
<g clip-path="url(#clip0_12271_24297)">
<g clip-path="url(#clip1_12271_24297)">
<path d="M59.1621 13.018V8.0332H61.6597V13.1905C61.6597 14.6396 62.3534 15.6392 63.8617 15.6392C65.3701 15.6392 66.0638 14.6566 66.0638 13.1905V8.0332H68.5614V13.0351C68.5614 15.9502 66.8967 17.7612 63.8617 17.7612C60.8268 17.7612 59.1621 15.9332 59.1621 13.018Z" fill="#FAFAFA"/>
<path d="M78.7199 13.4492H71.9392C72.1993 14.8812 73.3095 15.6744 75.0951 15.6744C76.5167 15.6744 77.5402 15.3294 78.3035 14.8812L78.3377 16.968C77.3313 17.5716 76.1173 17.7611 74.8862 17.7611C71.6949 17.7611 69.5625 15.7436 69.5625 12.7933C69.5625 9.84293 71.6436 7.77441 74.3659 7.77441C76.8281 7.77441 78.8054 9.49919 78.8054 12.4143C78.8054 12.8455 78.7712 13.2075 78.7187 13.4492H78.7199ZM71.9563 11.8276H76.535C76.4483 10.5511 75.5983 9.79192 74.3146 9.79192C73.1007 9.79192 72.2335 10.5681 71.9563 11.8276Z" fill="#FAFAFA"/>
<path d="M87.0272 7.89588V10.3628C86.6974 10.2243 86.2993 10.1211 85.779 10.1211C84.2524 10.1211 83.0567 11.0175 83.0567 12.7605V17.4866H80.542V8.03313H82.8662V9.67167C83.3693 8.58457 84.5833 7.77441 86.0746 7.77441C86.4043 7.77441 86.7854 7.82664 87.0284 7.89466L87.0272 7.89588Z" fill="#FAFAFA"/>
<path d="M96.5494 8.27491L91.9878 15.3465H96.3576V17.4855H88.1895V17.2437L92.8378 10.1722H88.4325V8.0332H96.5494V8.27491Z" fill="#FAFAFA"/>
<path d="M80.1162 24.623L76.3411 32.8255H76.1481L72.373 24.623H73.3354L76.2519 31.2051L79.1685 24.623H80.1162Z" fill="#FAFAFA"/>
<path d="M87.9777 28.8191H81.1371C81.2556 30.8512 82.6174 32.044 84.8683 32.044C85.9785 32.044 86.9555 31.7646 87.6223 31.3662L87.637 32.1764C86.8822 32.6185 85.8453 32.8396 84.8084 32.8396C82.0104 32.8396 80.292 31.1755 80.292 28.5543C80.292 26.1688 82.0397 24.4307 84.304 24.4307C86.5684 24.4307 88.0205 26.0801 88.0205 28.3187C88.0205 28.5106 88.0058 28.6722 87.9765 28.8191H87.9777ZM81.1677 28.1122H87.1937C87.1338 26.4336 86.1128 25.1825 84.2772 25.1825C82.6333 25.1825 81.346 26.3461 81.1677 28.1122Z" fill="#FAFAFA"/>
<path d="M97.1869 28.112V32.6328H96.299V28.2893C96.299 26.375 95.2621 25.1823 93.5889 25.1823C91.9157 25.1823 90.6125 26.4929 90.6125 28.5541V32.6328H89.7246V24.6223H90.5685V26.6107C90.9533 25.4325 92.0793 24.4316 93.7366 24.4316C95.8239 24.4316 97.1869 25.8163 97.1869 28.1132V28.112Z" fill="#FAFAFA"/>
<path d="M114.484 32.2648V31.4546C114.914 31.7789 115.772 32.0583 116.69 32.0583C118.17 32.0583 118.955 31.3805 118.955 30.4829C118.955 29.7031 118.437 29.2464 117.46 28.8784L116.438 28.4812C115.357 28.0537 114.69 27.4949 114.69 26.4929C114.69 25.3147 115.83 24.4316 117.563 24.4316C118.214 24.4316 118.925 24.6236 119.325 24.8434V25.6536C118.881 25.4033 118.259 25.1969 117.563 25.1969C116.363 25.1969 115.564 25.7119 115.564 26.4929C115.564 27.1706 116.023 27.4937 116.821 27.8035L117.828 28.2006C119.116 28.7011 119.797 29.3497 119.797 30.4538C119.797 31.7352 118.716 32.8393 116.702 32.8393C115.739 32.8393 114.91 32.5745 114.481 32.2648H114.484Z" fill="#FAFAFA"/>
<path d="M45.1818 23.4004H43.3438V32.6328H45.1818V23.4004Z" fill="#E5004B"/>
<path d="M45.1818 14.168H43.3438V23.4004H45.1818V14.168Z" fill="#D11437"/>
<path d="M45.1818 4.93457H43.3438V14.167H45.1818V4.93457Z" fill="#F37029"/>
<path d="M57.3276 26.5381C56.7707 25.2761 55.6556 24.568 54.3097 24.568C52.2042 24.568 50.6104 26.215 50.6104 28.6163C50.6104 31.0176 52.2042 32.6343 54.3097 32.6343C55.7033 32.6343 56.833 31.88 57.374 30.5561V32.4181H58.2558V20.873H57.3276V26.5381ZM54.4648 31.8023C52.7782 31.8023 51.508 30.5707 51.508 28.6163C51.508 26.662 52.777 25.3842 54.4648 25.3842C56.1527 25.3842 57.4522 26.6923 57.4522 28.6017C57.4522 30.5111 56.1515 31.8035 54.4648 31.8035V31.8023Z" fill="#FAFAFA"/>
<path d="M63.9997 24.5664C61.8477 24.5664 60.2539 26.1369 60.2539 28.5382C60.2539 31.1242 61.7402 32.6328 64.2781 32.6328C65.2845 32.6328 66.3837 32.3716 67.1104 31.8943V31.0635C66.4912 31.4789 65.5007 31.8178 64.3551 31.8178C62.3888 31.8178 61.259 30.8169 61.1516 28.8468H67.4353C67.4658 28.6621 67.4817 28.4775 67.4817 28.2929C67.4817 26.0762 66.181 24.5676 63.9985 24.5676L63.9997 24.5664ZM61.1516 28.0925C61.3067 26.3373 62.4364 25.3365 63.9838 25.3365C65.7022 25.3365 66.5681 26.4297 66.6145 28.0925H61.1504H61.1516Z" fill="#FAFAFA"/>
<path d="M111.955 26.5385C111.398 25.2765 110.283 24.5684 108.937 24.5684C106.831 24.5684 105.237 26.2154 105.237 28.6167C105.237 31.0181 106.831 32.6347 108.937 32.6347C110.33 32.6347 111.46 31.8804 112.001 30.5565V32.4185H112.883V24.7676H111.955V26.5373V26.5385ZM109.092 31.8027C107.405 31.8027 106.135 30.5711 106.135 28.6167C106.135 26.6624 107.404 25.3846 109.092 25.3846C110.78 25.3846 112.079 26.6928 112.079 28.6022C112.079 30.5116 110.778 31.8039 109.092 31.8039V31.8027Z" fill="#FAFAFA"/>
<path d="M104.357 8.32162V9.48281C103.709 8.50624 102.763 8.0459 101.634 8.0459C99.1506 8.0459 97.2783 10.2019 97.2783 12.9664C97.2783 15.7309 99.1494 17.8322 101.615 17.8322C102.838 17.8322 103.858 17.2795 104.488 16.2106V17.537H106.582V8.32162H104.358H104.357ZM102.041 15.8961C100.522 15.8961 99.4291 14.7349 99.4291 12.9652C99.4291 11.1954 100.522 9.97959 102.041 9.97959C103.561 9.97959 104.692 11.1408 104.692 12.9469C104.692 14.7531 103.561 15.8961 102.041 15.8961Z" fill="#FAFAFA"/>
<path d="M12.5293 15.7158C14.1524 15.7158 14.8999 16.7422 14.8999 17.7248V19.8893H13.8801V17.7248C13.8801 17.1029 13.5271 16.1069 12.5293 16.1069C11.5486 16.1069 11.1858 17.1029 11.1858 17.7248C11.1858 18.3358 11.1797 19.8893 11.1797 19.8893H10.1562V17.7248C10.1562 16.7434 10.9122 15.7158 12.5293 15.7158Z" fill="#FAFAFA"/>
<path d="M26.6401 19.9467C25.0109 19.9467 24.2646 18.9313 24.2646 17.9498V15.7793H25.2918V17.9498C25.2918 18.5632 25.6423 19.5702 26.6401 19.5702C27.6269 19.5702 27.9897 18.5632 27.9897 17.9498V15.7793H29.007V17.9498C29.007 18.9313 28.2608 19.9467 26.6401 19.9467Z" fill="#FAFAFA"/>
<path d="M19.0442 19.5896C18.8342 19.762 18.563 19.8884 18.215 19.9296C17.1768 20.0997 15.7381 19.4304 15.6783 17.9292C15.6221 16.3902 17.1426 15.7513 18.1356 15.772C19.8063 15.8169 20.3962 17.0692 20.3962 17.7846V19.8884H19.3703V17.7992C19.3703 17.3388 19.1676 16.1789 18.1014 16.1436C17.0645 16.1133 16.7335 17.0753 16.7249 17.7846C16.7249 18.2413 16.8349 19.3648 18.0208 19.4329C18.3835 19.4389 18.9013 19.3491 19.0442 19.2276V19.5896Z" fill="#FAFAFA"/>
<path d="M23.6283 20.4901C23.4928 20.5351 23.1202 20.6262 22.6916 20.5132C22.203 20.3942 21.4043 20.1622 21.4043 18.5334V13.9736H22.4473V15.7907H23.3999V16.4175H22.4473C22.4473 16.4175 22.4778 17.7098 22.4473 18.7362C22.4302 19.6569 22.7038 19.9812 22.9163 20.0796C23.1679 20.2047 23.5807 20.1573 23.6283 20.1221V20.4901Z" fill="#FAFAFA"/>
<path d="M29.9834 17.5898C29.9834 16.5683 30.511 15.8626 31.4368 15.7727C32.0914 15.6925 32.3283 15.8261 32.3283 15.8261V16.2257C32.3283 16.2257 31.9815 16.1419 31.5992 16.2452C31.1864 16.3849 31.024 17.0128 31.024 17.229C31.024 17.9724 31.024 19.9073 31.024 19.9073H29.9834V17.5898Z" fill="#FAFAFA"/>
<path d="M35.7771 19.5897C35.561 19.7598 35.2874 19.8885 34.9454 19.9298C33.911 20.0999 32.471 19.4306 32.4124 17.9293C32.3611 16.3904 33.8743 15.7479 34.8697 15.7721C36.5429 15.8171 37.1304 17.0694 37.1304 17.7848V19.8885H36.1069V17.7994C36.1069 17.339 35.8956 16.179 34.8367 16.1414C33.801 16.1135 33.4725 17.0754 33.4725 17.7848C33.4725 18.2415 33.5531 19.3602 34.7573 19.433C35.125 19.4391 35.6379 19.3492 35.7771 19.2278V19.5897Z" fill="#FAFAFA"/>
<path d="M26.2644 2.27836C24.91 1.87025 24.0709 2.8541 23.6972 4.11974C23.3784 5.1291 23.3137 5.40604 23.1366 5.93319C22.8728 6.66682 22.2451 6.7142 21.77 6.14939C21.2143 5.48134 20.4803 4.49021 20.0699 4.01529C19.5289 3.38854 18.2147 2.85531 17.5576 3.67276C16.5562 4.90682 17.8837 6.28664 18.586 7.11017C19.0745 7.70169 19.6522 8.10009 19.4702 8.43168C19.3884 8.55193 19.2492 8.59566 19.0379 8.59566C18.5469 8.58473 16.9372 8.14746 16.5598 8.07944C16.2447 8.01142 16.0078 8.02843 15.9186 8.27257C15.805 8.55436 16.2105 9.37181 17.2596 9.90989C18.3088 10.448 19.9942 10.7067 20.1554 10.7468C20.766 10.8755 20.6488 11.1828 20.4974 11.3213C20.363 11.4695 20.1945 11.5703 20.225 11.7197C20.3203 12.1072 21.1483 12.1898 21.6478 12.2699C22.1254 12.3537 22.736 12.3975 23.1794 12.214C23.6105 12.0489 23.6361 11.8059 23.9317 11.7027C24.3237 11.5521 24.4581 11.6784 25.302 11.8424C25.8467 11.9432 26.8116 11.8059 27.3306 11.6371C28.3101 11.3189 28.7144 10.9982 28.7144 10.8524C28.7144 10.7298 28.5458 10.6824 28.3663 10.6715C28.1562 10.6387 27.4503 10.5233 27.2073 10.3654C26.9752 10.2063 27.1596 9.93418 27.6372 9.74591C28.1428 9.54429 29.7379 8.8811 30.3351 8.35152C30.9384 7.82194 31.5027 6.92554 31.0056 6.41054C30.5036 5.88825 29.6169 6.41904 29.1455 6.63281C28.5031 6.94012 27.4796 7.45876 27.1291 7.5365C26.8213 7.61181 26.24 7.58994 26.5075 6.89275C26.8446 6.03279 27.0009 5.50321 27.2085 4.98456C27.4662 4.34566 27.8289 2.75814 26.2669 2.27958M32.2086 6.55751C31.775 8.38674 29.6145 9.46898 29.4057 9.58923C29.1895 9.69612 28.9245 9.80665 28.8292 9.86859C28.7901 9.89289 28.7632 9.91839 28.8426 9.94269C29.0735 10.0046 29.838 9.95726 29.8246 10.2816C29.8209 10.629 29.2457 11.1986 27.7703 11.8241C26.1606 12.5128 24.8184 12.197 24.4789 12.1193L24.4495 12.1278C24.3604 12.225 23.6105 12.9392 21.4854 12.5736C19.9624 12.3088 19.5814 12.1582 19.2247 11.7586C19.1283 11.6335 19.0648 11.427 19.2028 11.1585C19.2247 11.0917 19.2321 11.0553 19.1905 11.0419C16.8774 10.5731 15.479 9.12281 14.9587 8.20212C14.7046 7.73813 14.7877 7.42961 14.9196 7.23406C15.1016 6.95712 15.7135 6.9389 16.351 7.09437C17.0569 7.2875 17.4526 7.3786 17.6016 7.41504C17.6517 7.43569 17.6553 7.41504 17.6321 7.3786C17.4526 7.16239 16.8273 6.37774 16.5 5.87489C15.9773 5.04894 15.3019 2.84924 17.0349 1.93705C18.9646 0.938625 20.6512 2.69863 21.0237 3.15897C21.3523 3.55737 22.0167 4.44162 22.0668 4.5315C22.151 4.67362 22.1938 4.5558 22.1938 4.5558C22.1938 4.5558 22.6444 2.93183 23.0401 2.18727C23.7363 0.862103 25.1665 0.248715 26.4085 0.474636C28.7816 0.915547 28.8707 3.29744 28.6826 4.17197C28.5141 4.9299 28.1978 5.74128 28.105 5.94533C28.0879 5.9842 28.105 5.99028 28.1355 5.96963C28.3175 5.88582 29.1638 5.47406 30.0688 5.0878C30.9714 4.71127 32.6324 4.72341 32.2086 6.55629" fill="#FAFAFA"/>
<path d="M10.6843 32.6002L11.2827 31.2459C11.439 31.2228 11.5893 31.2058 11.7334 31.1937C11.8775 31.1827 12.0167 31.1767 12.1498 31.1767C12.4393 31.1767 12.7031 31.2046 12.9437 31.2593C13.1831 31.3139 13.4041 31.4002 13.6032 31.518C13.8023 31.6358 13.9855 31.784 14.1504 31.9625C14.3152 32.1411 14.4703 32.3536 14.6145 32.6014H15.9335L13.1049 26.5611H12.1938L9.36523 32.6002H10.6843ZM12.6542 28.1474L13.7473 30.5463C13.5849 30.4309 13.3834 30.3422 13.1403 30.2791C12.8973 30.2159 12.6078 30.1843 12.2732 30.1843C12.1108 30.1843 11.9349 30.1928 11.7444 30.2098L12.6555 28.1474H12.6542ZM19.4301 32.6002L22.233 26.5599H20.8444L19.0051 30.7455L17.1743 26.5599H15.7601L18.519 32.6002H19.4301ZM26.3281 32.8334C26.8081 32.8334 27.2539 32.7508 27.6643 32.5869C28.0746 32.4229 28.4312 32.1945 28.7317 31.9006C29.0321 31.6066 29.2678 31.2617 29.4388 30.8645C29.6098 30.4673 29.6953 30.0361 29.6953 29.5697C29.6953 29.1033 29.6098 28.6806 29.4388 28.2834C29.2678 27.8862 29.0321 27.5425 28.7317 27.2522C28.4312 26.9619 28.0746 26.7348 27.6643 26.5708C27.2539 26.4068 26.8081 26.3242 26.3281 26.3242C25.8482 26.3242 25.4024 26.4068 24.992 26.5708C24.5816 26.7348 24.225 26.9619 23.9246 27.2522C23.6241 27.5425 23.3884 27.8862 23.2174 28.2834C23.0464 28.6806 22.961 29.1094 22.961 29.5697C22.961 30.0301 23.0464 30.4673 23.2174 30.8645C23.3884 31.2617 23.6241 31.6066 23.9246 31.9006C24.225 32.1945 24.5804 32.4229 24.992 32.5869C25.4024 32.7508 25.8482 32.8334 26.3281 32.8334ZM26.3281 31.7111C26.0277 31.7111 25.7517 31.6577 25.5001 31.552C25.2485 31.4451 25.0299 31.2969 24.8454 31.1074C24.6598 30.918 24.5157 30.6908 24.4119 30.426C24.3081 30.1612 24.2556 29.8734 24.2556 29.5636C24.2556 29.2539 24.3081 28.977 24.4119 28.7183C24.5157 28.4595 24.661 28.236 24.8454 28.049C25.0311 27.8619 25.2485 27.715 25.5001 27.6093C25.7517 27.5024 26.0277 27.4502 26.3281 27.4502C26.6286 27.4502 26.9046 27.5036 27.1574 27.6093C27.409 27.7162 27.6276 27.8619 27.812 28.049C27.9977 28.236 28.1418 28.4583 28.2456 28.7183C28.3494 28.977 28.4019 29.2588 28.4019 29.5636C28.4019 29.8685 28.3494 30.1697 28.2456 30.4309C28.1418 30.6932 27.9965 30.918 27.812 31.1087C27.6264 31.2981 27.409 31.4463 27.1574 31.5532C26.9058 31.6601 26.6298 31.7123 26.3281 31.7123V31.7111ZM31.5774 26.5599V32.6002H32.8268V28.7608L36.0975 32.6002H37.0696V26.5599H35.8202V30.3993L32.5495 26.5599H31.5774Z" fill="#FAFAFA"/>
<path d="M55.446 8.29838V9.09154H57.9082V11.1953H55.446V18.4053C55.446 20.7678 54.1282 22.2521 51.9433 22.2521C51.4401 22.2521 50.9723 22.1828 50.6768 22.0456L50.711 19.9418C50.9369 20.0451 51.2312 20.0803 51.5439 20.0803C52.4806 20.0803 52.9484 19.4426 52.9484 18.3725V11.1977H51.2667V9.09397H52.9484V8.23158C52.9484 6.19586 54.2662 4.9375 56.5733 4.9375C57.1461 4.9375 57.5613 5.00673 57.9082 5.12698V7.07647C57.6651 6.99023 57.3537 6.938 56.9543 6.938C55.9138 6.938 55.446 7.43843 55.446 8.30081V8.29838Z" fill="#FAFAFA"/>
<path d="M101.531 25.044V30.1722C101.531 31.3273 102.15 31.9431 103.172 31.9431C103.606 31.9431 104.116 31.835 104.426 31.6504V32.5128C104.116 32.6974 103.59 32.8213 103.095 32.8213C101.531 32.8213 100.617 31.8508 100.617 30.1722V25.044H98.9756V24.2278H100.617V21.6406H101.531V24.2278H104.426V25.044H101.531Z" fill="#FAFAFA"/>
</g>
</g>
<defs>
<clipPath id="clip0_12271_24297">
<rect width="128" height="32.41" fill="white" transform="translate(0.582031 0.429688)"/>
</clipPath>
<clipPath id="clip1_12271_24297">
<rect width="110.434" height="32.41" fill="white" transform="translate(9.36523 0.429688)"/>
</clipPath>
</defs>
</svg>
