<svg width="193" height="32" viewBox="0 0 193 32" fill="none" xmlns="http://www.w3.org/2000/svg">
<path d="M6.05719 13.0319C3.74205 13.0319 2.24051 11.3635 2.24051 9.36148C2.24051 7.35942 3.77707 5.70958 6.07779 5.70958C7.48047 5.70958 8.54329 6.22451 9.38778 7.10814V5.49743C8.68129 4.79094 7.52166 4.39135 5.8368 4.39135C2.81517 4.39135 0.68335 6.54171 0.68335 9.35942C0.68335 12.1751 2.81517 14.344 5.85534 14.344C7.42691 14.344 8.72866 13.93 9.54638 13.2235V11.6272C8.62156 12.5582 7.41455 13.0319 6.05719 13.0319Z" fill="white"/>
<path d="M15.9851 4.39341C12.8543 4.39341 10.7966 6.50669 10.7966 9.36148C10.7966 12.2163 12.8543 14.346 15.9851 14.346C19.118 14.346 21.1571 12.2163 21.1571 9.36148C21.1571 6.50463 19.118 4.39341 15.9851 4.39341ZM15.9851 13.0319C13.7421 13.0319 12.3517 11.3821 12.3517 9.36148C12.3517 7.35942 13.7421 5.70958 15.9851 5.70958C18.2281 5.70958 19.6185 7.35942 19.6185 9.36148C19.6185 11.3821 18.2281 13.0319 15.9851 13.0319Z" fill="white"/>
<path d="M28.2652 4.39341C26.3559 4.39341 25.1694 5.42945 24.5742 6.76416V4.61586H23.0191V14.1236H24.5742V7.45005C25.3363 6.42842 26.43 5.72606 27.707 5.72606C29.4125 5.72606 30.3023 6.69001 30.3023 8.33986V14.1236H31.8595V8.06385C31.8595 5.8208 30.5804 4.39341 28.2652 4.39341Z" fill="white"/>
<path d="M39.19 8.56437L36.6504 8.19361C35.6308 8.06385 35.1138 7.74665 35.1138 7.04428C35.1138 6.09681 36.1334 5.61689 37.7832 5.61689C39.3589 5.61689 40.5618 6.17096 41.396 6.85891V5.33471C40.6731 4.79506 39.155 4.39135 37.7462 4.39135C35.2436 4.39135 33.6308 5.37384 33.6308 7.11638C33.6308 8.4861 34.5783 9.26468 36.3744 9.5448L39.0438 9.95263C40.1004 10.0989 40.6586 10.6014 40.6586 11.3409C40.6586 12.5088 39.5443 13.104 37.9151 13.104C36.3394 13.104 34.8378 12.5644 33.5958 11.6395V13.1679C34.5433 13.7611 36.1519 14.346 37.8945 14.346C40.3044 14.346 42.1396 13.2338 42.1396 11.2338C42.1355 9.7137 41.1159 8.84037 39.19 8.56437Z" fill="white"/>
<path d="M51.0768 4.61586V11.3059C50.3373 12.3069 49.2807 13.0093 48.0016 13.0093C46.2776 13.0093 45.4249 12.0288 45.4249 10.414V4.61586H43.8677V10.6756C43.8677 12.9001 45.0912 14.346 47.464 14.346C49.3342 14.346 50.4856 13.2915 51.0768 11.9753V14.1256H52.6339V4.61586H51.0768Z" fill="white"/>
<path d="M66.8358 5.95057V4.61586H62.776V1.44593L61.2189 1.75901V4.61586H58.8275V5.95057H61.2189V10.9372C61.2189 13.0319 62.257 14.309 64.463 14.309C65.3301 14.309 66.084 14.1256 66.4959 13.8867V12.5314C66.0284 12.7806 65.4372 12.9578 64.7225 12.9578C63.3692 12.9578 62.776 12.1977 62.776 10.8424V5.95057H66.8358Z" fill="white"/>
<path d="M72.9223 4.39341C69.7894 4.39341 67.7318 6.50669 67.7318 9.36148C67.7318 12.2163 69.7894 14.346 72.9223 14.346C76.0531 14.346 78.0943 12.2163 78.0943 9.36148C78.0943 6.50463 76.0531 4.39341 72.9223 4.39341ZM72.9223 13.0319C70.6792 13.0319 69.2889 11.3821 69.2889 9.36148C69.2889 7.35942 70.6792 5.70958 72.9223 5.70958C75.1653 5.70958 76.5536 7.35942 76.5536 9.36148C76.5536 11.3821 75.1653 13.0319 72.9223 13.0319Z" fill="white"/>
<path d="M81.5114 8.33986V4.61586H79.9542V14.1236H81.5114V9.02781C82.6174 7.6725 84.327 6.81977 85.707 6.21627V4.4346C84.1519 5.15963 82.362 6.38105 81.5114 8.33986Z" fill="white"/>
<path d="M87.431 4.61586V14.1236H88.9882V4.61586H87.431Z" fill="white"/>
<path d="M96.1705 4.39341C94.5268 4.39341 93.1406 4.87333 92.1746 5.72194V7.207C93.2148 6.24511 94.6319 5.69104 95.9851 5.69104C97.7091 5.69104 98.2838 6.45108 98.2838 7.65396V7.76519L94.4465 8.61998C92.2961 9.0999 91.0356 9.93409 91.0356 11.5304C91.0356 13.2523 92.0901 14.346 94.0737 14.346C96.1128 14.346 97.67 13.0505 98.2817 12.0103V14.1256H99.8368V7.59835C99.8389 5.45005 98.5618 4.39341 96.1705 4.39341ZM98.2838 11.1967C97.4866 12.2698 96.0778 13.1432 94.5577 13.1432C93.223 13.1432 92.5927 12.5129 92.5927 11.4748C92.5927 10.5479 93.3898 9.99176 94.7822 9.62101L98.2858 8.67353V11.1967H98.2838Z" fill="white"/>
<path d="M58.5392 12.9104V14.2781C58.2982 14.3234 58.0242 14.346 57.707 14.346C56.6051 14.346 55.9439 14.0268 55.5608 13.4459C55.1777 12.8671 55.0685 12.0227 55.0685 10.9763V0.593203L56.6257 0.298661V10.8795H56.6277C56.6277 12.2348 56.6133 12.9557 57.9666 12.9557C58.1828 12.9557 58.3703 12.9372 58.5392 12.9104Z" fill="white"/>
<path d="M88.8337 3.41916H87.6906L88.5206 0.797116H90.4403L88.8337 3.41916Z" fill="white"/>
<path d="M18.9738 17.8229V24.105C18.4176 22.7147 17.0273 21.621 15.0809 21.621C12.1169 21.621 10.3167 23.7899 10.3167 26.5891C10.3167 29.3862 12.1149 31.5757 15.0809 31.5757C17.0459 31.5757 18.3991 30.4614 18.9738 29.0731V31.3532H20.5309V17.5263L18.9738 17.8229ZM18.9738 28.2019C18.121 29.518 16.8976 30.2595 15.4352 30.2595C13.0788 30.2595 11.8759 28.5355 11.8759 26.5891C11.8759 24.6612 13.0788 22.9372 15.4352 22.9372C16.9161 22.9372 18.1231 23.6787 18.9738 24.9949V28.2019Z" fill="white"/>
<path d="M32.4382 26.4779C32.4382 23.829 30.6772 21.6231 27.5999 21.6231C24.3929 21.6231 22.3909 23.7734 22.3909 26.5911C22.3909 29.3347 24.3744 31.5778 27.9892 31.5778C29.7297 31.5778 31.1921 31.0237 31.9913 30.3584V28.7909C31.0108 29.7075 29.67 30.2987 28.084 30.2987C25.5258 30.2987 24.0592 28.8898 23.9501 26.8342H32.4403V26.4779H32.4382ZM24.0222 25.6643C24.3167 24.0494 25.5423 22.7909 27.5814 22.7909C29.5443 22.7909 30.638 24.1071 30.9182 25.6643H24.0222Z" fill="white"/>
<path d="M42.7946 21.621C40.8667 21.621 39.4763 22.7147 38.9017 24.105V17.5242L37.3466 17.8208V31.3512H38.9017V29.0711C39.4949 30.4593 40.8502 31.5736 42.7946 31.5736C45.7606 31.5736 47.5587 29.3841 47.5587 26.587C47.5567 23.7899 45.7606 21.621 42.7946 21.621ZM42.4609 30.2595C40.9779 30.2595 39.7729 29.518 38.9017 28.2019V24.9969C39.7729 23.6807 40.9779 22.9392 42.4424 22.9392C44.8131 22.9392 46.0016 24.6632 46.0016 26.5911C46.0016 28.5355 44.8152 30.2595 42.4609 30.2595Z" fill="white"/>
<path d="M83.0314 30.0742L89.5567 23.0484V21.8455H81.326V23.1246H87.6473L81.1241 30.1318V31.3553H89.6308V30.0762H83.0314V30.0742Z" fill="white"/>
<path d="M58.9285 26.4779C58.9285 23.829 57.1674 21.6231 54.0901 21.6231C50.8831 21.6231 48.8811 23.7734 48.8811 26.5911C48.8811 29.3347 50.8646 31.5778 54.4794 31.5778C56.2199 31.5778 57.6823 31.0237 58.4815 30.3584V28.7909C57.5011 29.7075 56.1602 30.2987 54.5742 30.2987C52.016 30.2987 50.5495 28.8898 50.4403 26.8342H58.9305V26.4779H58.9285ZM50.5124 25.6643C50.8069 24.0494 52.0325 22.7909 54.0716 22.7909C56.0345 22.7909 57.1283 24.1071 57.4084 25.6643H50.5124Z" fill="white"/>
<path d="M79.6885 26.4779C79.6885 23.829 77.9274 21.6231 74.8502 21.6231C71.6432 21.6231 69.6411 23.7734 69.6411 26.5911C69.6411 29.3347 71.6246 31.5778 75.2395 31.5778C76.9799 31.5778 78.4424 31.0237 79.2415 30.3584V28.7909C78.2611 29.7075 76.9202 30.2987 75.3342 30.2987C72.776 30.2987 71.3095 28.8898 71.2003 26.8342H79.6906V26.4779H79.6885ZM71.2724 25.6643C71.567 24.0494 72.7925 22.7909 74.8316 22.7909C76.7946 22.7909 77.8883 24.1071 78.1684 25.6643H71.2724Z" fill="white"/>
<path d="M96.1519 21.6231C94.5083 21.6231 93.1221 22.103 92.1561 22.9516V24.4367C93.1962 23.4748 94.6133 22.9207 95.9666 22.9207C97.6906 22.9207 98.2652 23.6807 98.2652 24.8836V24.9949L94.4279 25.8496C92.2776 26.3296 91.017 27.1637 91.017 28.76C91.017 30.482 92.0716 31.5757 94.0551 31.5757C96.0943 31.5757 97.6514 30.2801 98.2632 29.24V31.3553H99.8183V24.828C99.8203 22.6797 98.5433 21.6231 96.1519 21.6231ZM98.2652 28.4264C97.4681 29.4995 96.0592 30.3728 94.5392 30.3728C93.2045 30.3728 92.5742 29.7425 92.5742 28.7044C92.5742 27.7775 93.3713 27.2214 94.7637 26.8507L98.2673 25.9032V28.4264H98.2652Z" fill="white"/>
<path d="M68.912 30.0844V31.5077C68.671 31.553 68.397 31.5757 68.0798 31.5757C66.9779 31.5757 66.3167 31.2564 65.9336 30.6756C65.5505 30.0968 65.4413 29.2523 65.4413 28.206V17.8229L66.9985 17.5283V28.1092H67.0005C67.0005 29.4645 66.9861 30.1298 68.3394 30.1298C68.5556 30.1277 68.7431 30.1112 68.912 30.0844Z" fill="white"/>
<path d="M64.1767 30.0844V31.5077C63.9357 31.553 63.6617 31.5757 63.3445 31.5757C62.2426 31.5757 61.5814 31.2564 61.1983 30.6756C60.8152 30.0968 60.706 29.2523 60.706 28.206V17.8229L62.2632 17.5283V28.1092H62.2652C62.2652 29.4645 62.2508 30.1298 63.6041 30.1298C63.8203 30.1277 64.0078 30.1112 64.1767 30.0844Z" fill="white"/>
<path d="M170.57 24.966L169.901 26.4902C170.043 26.4779 170.17 26.4717 170.29 26.4717C170.535 26.4717 170.749 26.4943 170.924 26.5417C171.104 26.5891 171.252 26.655 171.371 26.7394L170.57 24.966ZM181.973 25.4027C181.901 25.2194 181.798 25.0608 181.662 24.9248C181.532 24.793 181.382 24.69 181.196 24.6097C181.023 24.5335 180.825 24.4943 180.609 24.4943C180.389 24.4943 180.189 24.5355 180.016 24.6097C179.831 24.688 179.68 24.793 179.551 24.9248C179.421 25.0546 179.318 25.2132 179.239 25.4068C179.163 25.5963 179.126 25.8002 179.126 26.0144C179.126 26.2307 179.163 26.4387 179.239 26.6344C179.316 26.8301 179.419 26.9887 179.551 27.1246C179.682 27.2606 179.839 27.3677 180.016 27.4418C180.189 27.518 180.391 27.5572 180.609 27.5572C180.825 27.5572 181.023 27.516 181.196 27.4418C181.371 27.3656 181.53 27.2585 181.662 27.1246C181.798 26.9866 181.905 26.8218 181.973 26.6365C182.049 26.447 182.086 26.2369 182.086 26.0144C182.084 25.7981 182.047 25.5942 181.973 25.4027ZM181.973 25.4027C181.901 25.2194 181.798 25.0608 181.662 24.9248C181.532 24.793 181.382 24.69 181.196 24.6097C181.023 24.5335 180.825 24.4943 180.609 24.4943C180.389 24.4943 180.189 24.5355 180.016 24.6097C179.831 24.688 179.68 24.793 179.551 24.9248C179.421 25.0546 179.318 25.2132 179.239 25.4068C179.163 25.5963 179.126 25.8002 179.126 26.0144C179.126 26.2307 179.163 26.4387 179.239 26.6344C179.316 26.8301 179.419 26.9887 179.551 27.1246C179.682 27.2606 179.839 27.3677 180.016 27.4418C180.189 27.518 180.391 27.5572 180.609 27.5572C180.825 27.5572 181.023 27.516 181.196 27.4418C181.371 27.3656 181.53 27.2585 181.662 27.1246C181.798 26.9866 181.905 26.8218 181.973 26.6365C182.049 26.447 182.086 26.2369 182.086 26.0144C182.084 25.7981 182.047 25.5942 181.973 25.4027ZM165.431 4.3378V30.8939H191.983V4.3378H165.431ZM172.039 28.2987C171.93 28.1133 171.814 27.9526 171.689 27.8187C171.563 27.6849 171.429 27.5757 171.281 27.4851C171.13 27.3924 170.966 27.3306 170.786 27.2894C170.607 27.2482 170.407 27.2276 170.193 27.2276C170.09 27.2276 169.987 27.2317 169.878 27.24C169.773 27.2461 169.658 27.2585 169.542 27.2791L169.097 28.2987H168.107L170.222 23.7528H170.908L173.021 28.2987H172.039ZM177.637 23.8146L175.571 28.2945H174.848L174.836 28.2698L172.782 23.7528H173.913L175.229 26.7765L176.549 23.7528H177.662L177.637 23.8146ZM182.924 26.9907C182.795 27.2935 182.62 27.5572 182.399 27.7673C182.179 27.9835 181.911 28.1565 181.604 28.2822C181.293 28.4058 180.957 28.4676 180.607 28.4676C180.253 28.4676 179.915 28.4037 179.608 28.2822C179.297 28.1565 179.029 27.9835 178.809 27.7673C178.589 27.553 178.414 27.2935 178.284 26.9907C178.154 26.6982 178.092 26.3708 178.092 26.0185C178.092 25.6704 178.156 25.345 178.284 25.0505C178.414 24.7477 178.587 24.4964 178.809 24.2781C179.031 24.0639 179.299 23.8908 179.608 23.7652C179.917 23.6457 180.253 23.5819 180.607 23.5819C180.955 23.5819 181.293 23.6457 181.6 23.7652C181.909 23.8908 182.175 24.0639 182.399 24.2781C182.622 24.4985 182.795 24.7497 182.924 25.0505C183.054 25.345 183.116 25.6704 183.116 26.0185C183.116 26.3708 183.054 26.6982 182.924 26.9907ZM188.529 28.2945H187.756L187.74 28.2822L185.417 25.5345V28.2945H184.414V23.7528H185.19L185.202 23.7693L187.526 26.5129V23.7528H188.529V28.2945ZM181.66 24.9248C181.53 24.793 181.38 24.69 181.194 24.6097C181.021 24.5335 180.823 24.4943 180.607 24.4943C180.387 24.4943 180.187 24.5355 180.014 24.6097C179.829 24.688 179.678 24.793 179.548 24.9248C179.419 25.0546 179.316 25.2132 179.237 25.4068C179.161 25.5963 179.124 25.8002 179.124 26.0144C179.124 26.2307 179.161 26.4387 179.237 26.6344C179.314 26.8301 179.417 26.9887 179.548 27.1246C179.68 27.2606 179.837 27.3677 180.014 27.4418C180.187 27.518 180.389 27.5572 180.607 27.5572C180.823 27.5572 181.021 27.516 181.194 27.4418C181.369 27.3656 181.528 27.2585 181.66 27.1246C181.796 26.9866 181.903 26.8218 181.971 26.6365C182.047 26.447 182.084 26.2369 182.084 26.0144C182.084 25.8002 182.047 25.5963 181.971 25.4047C181.899 25.2194 181.796 25.0608 181.66 24.9248Z" fill="white"/>
<path d="M125.297 24.9928C123.295 24.9928 122.173 26.1936 122.173 28.1442V30.7085H123.534V28.0103C123.534 26.5149 124.067 25.6066 125.297 25.6066C126.446 25.6066 126.98 26.5149 126.98 28.0103V30.7085H128.341V28.1442C128.341 26.1936 127.328 24.9928 125.297 24.9928Z" fill="white"/>
<path d="M132.615 24.9928C130.986 24.9928 129.491 26.0886 129.491 28.0103C129.491 29.827 130.718 30.8939 132.428 30.8939C133.336 30.8939 134.03 30.5191 134.403 29.8249V30.7065H135.711V28.1689C135.713 26.2204 134.644 24.9928 132.615 24.9928ZM132.615 30.2801C131.415 30.2801 130.852 29.4789 130.852 28.0103C130.852 26.6756 131.413 25.6066 132.615 25.6066C133.816 25.6066 134.352 26.6756 134.352 28.0103C134.352 29.3986 133.629 30.2801 132.615 30.2801Z" fill="white"/>
<path d="M145.969 27.8764C145.969 29.3718 145.489 30.2801 144.313 30.2801C143.19 30.2801 142.71 29.3718 142.71 27.8764V25.1782H141.349V27.7425C141.349 29.6931 142.311 30.8939 144.313 30.8939C146.263 30.8939 147.33 29.6931 147.33 27.7425V25.1782H145.969V27.8764Z" fill="white"/>
<path d="M155.369 24.9928C153.74 24.9928 152.245 26.0886 152.245 28.0103C152.245 29.827 153.472 30.8939 155.182 30.8939C156.09 30.8939 156.784 30.5191 157.157 29.8249V30.7065H158.465V28.1689C158.467 26.2204 157.398 24.9928 155.369 24.9928ZM155.369 30.2801C154.168 30.2801 153.606 29.4789 153.606 28.0103C153.606 26.6756 154.166 25.6066 155.369 25.6066C156.572 25.6066 157.106 26.6756 157.106 28.0103C157.106 29.3986 156.385 30.2801 155.369 30.2801Z" fill="white"/>
<path d="M148.799 27.5551V30.7065H150.16V27.3944C150.16 26.3254 150.401 25.6313 151.495 25.6313C151.629 25.6313 151.789 25.6313 151.948 25.6581V25.0978C151.653 25.0175 151.361 24.9907 151.066 24.9907C149.761 24.9928 148.799 25.7405 148.799 27.5551Z" fill="white"/>
<path d="M139.612 30.2533C138.945 30.2533 138.543 29.827 138.543 28.517V25.8187H140.333V25.1782H138.543V23.7899H137.182V28.3028C137.182 30.2781 138.251 30.8939 139.398 30.8939C139.958 30.8939 140.467 30.7333 140.84 30.4676C140.706 30.3337 140.599 30.173 140.545 30.0144C140.28 30.173 139.985 30.2533 139.612 30.2533Z" fill="white"/>
<path d="M145.511 12.0783C145.511 12.8651 145.112 13.8187 144.83 14.3234C144.673 14.6035 144.634 14.6674 144.634 14.7106C144.634 14.7415 144.652 14.7662 144.69 14.7662C144.879 14.7662 146.453 13.5551 147.557 13.5551C148.203 13.5551 148.797 13.8991 148.797 14.7106C148.797 15.5448 148.245 16.8713 146.407 17.8558C146.276 17.9258 146 18.0721 145.806 18.1751C145.559 18.3069 145.493 18.3708 145.493 18.4531C145.493 18.6612 146.224 18.5623 146.224 18.9907C146.224 19.2194 145.946 19.5963 145.215 20.0041C144.547 20.3769 143.658 20.6818 142.554 20.6818C141.767 20.6818 141.326 20.5273 141.242 20.5273C141.209 20.5273 141.184 20.5376 141.149 20.5685C141.104 20.6076 140.539 21.0896 139.227 21.0896C137.719 21.0896 136.03 20.4717 136.03 19.897C136.03 19.6169 136.385 19.5386 136.385 19.4789C136.385 19.4542 136.344 19.4459 136.325 19.4418C134.22 18.8733 131.845 17.7528 131.845 16.241C131.845 15.8229 132.14 15.6066 132.566 15.6066C133.305 15.6066 134.329 15.9485 134.552 15.9485C134.605 15.9485 134.626 15.9197 134.626 15.8888C134.626 15.8476 134.593 15.8023 134.529 15.7487C133.18 14.6035 132.617 13.5489 132.617 12.6674C132.617 11.5263 133.441 10.6632 134.535 10.447C136.552 10.0494 137.767 11.7714 138.842 13.1535C138.873 13.1926 138.926 13.2729 138.994 13.2729C139.077 13.2729 139.097 13.1926 139.174 12.8898C139.248 12.587 139.27 12.4923 139.365 12.105C139.68 10.826 140.438 9.20082 142.628 9.20082C143.917 9.19876 145.511 10.0721 145.511 12.0783ZM139.272 14.9537C138.865 14.9537 138.65 14.725 138.234 14.206C138.168 14.1236 137.88 13.7755 137.806 13.6869C136.801 12.4717 136.07 11.9238 135.237 11.9238C134.735 11.9238 133.979 12.206 133.979 13.1658C133.979 13.2915 133.995 13.829 134.517 14.4676C135.182 15.2791 136.144 16.3522 136.23 16.4531C136.321 16.5561 136.368 16.6653 136.366 16.7621C136.366 16.8157 136.35 17.0525 135.948 17.0525C135.557 17.0525 133.843 16.552 133.244 16.552C132.966 16.552 132.786 16.6715 132.786 16.8754C132.786 17.4027 133.814 18.484 137.046 19.2132C137.452 19.3038 137.487 19.4501 137.487 19.4995C137.487 19.689 136.984 19.7755 136.984 20.0968C136.984 20.5664 138.502 20.7745 138.939 20.7745C139.713 20.7745 140.094 20.5479 140.383 20.3481C140.63 20.1792 140.77 20.1133 140.935 20.1133C141.281 20.1133 141.606 20.3296 142.659 20.3296C143.94 20.3296 145.285 19.6601 145.285 19.2976C145.285 19.1555 145.073 19.1184 144.595 18.9619C144.344 18.8795 144.199 18.7765 144.199 18.62C144.199 18.4717 144.321 18.3522 144.683 18.1957C145.071 18.0268 145.347 17.9032 145.633 17.7673C147.19 17.0175 147.794 16.1009 147.798 15.4398C147.8 15.0154 147.557 14.7271 147.159 14.7271C146.636 14.7271 146.061 15.0299 145.501 15.3141C144.453 15.8455 144.072 16.0474 143.705 16.0474C143.445 16.0474 143.324 15.8249 143.322 15.6931C143.322 15.6169 143.334 15.5304 143.367 15.4356C143.503 15.069 143.598 14.8239 143.746 14.4325C143.965 13.8558 144.228 13.1967 144.228 12.5438C144.228 11.5242 143.437 10.8301 142.397 10.8301C141.233 10.8301 140.737 11.9258 140.44 12.7971C140.36 13.036 140.053 13.9629 139.96 14.243C139.8 14.7271 139.583 14.9537 139.272 14.9537Z" fill="white"/>
<path d="M120.214 1.3656V0H119.342C113.901 0 109.474 4.42636 109.474 9.86612V32H110.84V9.86612C110.84 5.17817 114.652 1.3656 119.34 1.3656H120.214Z" fill="white"/>
</svg>
