<svg width="93" height="56" viewBox="0 0 93 56" fill="none" xmlns="http://www.w3.org/2000/svg">
<path d="M31.9684 52.4015L31.5607 53.327C31.6471 53.3189 31.7254 53.3149 31.7983 53.3149C31.9482 53.3149 32.0778 53.3283 32.1858 53.3566C32.2952 53.3848 32.3857 53.4252 32.4572 53.4763L31.9684 52.4001V52.4015ZM38.9152 52.6665C38.8707 52.5562 38.8086 52.458 38.7262 52.3759C38.6479 52.2952 38.5561 52.2333 38.4427 52.1849C38.3373 52.1391 38.2172 52.1136 38.0849 52.1136C37.9525 52.1136 37.8283 52.1378 37.723 52.1849C37.6096 52.232 37.5178 52.2952 37.4395 52.3759C37.3612 52.4539 37.2977 52.5508 37.2504 52.6678C37.2045 52.7822 37.1816 52.9059 37.1816 53.0364C37.1816 53.1669 37.2045 53.2947 37.2504 53.4117C37.2963 53.5301 37.3598 53.627 37.4395 53.709C37.5205 53.7911 37.615 53.8557 37.723 53.9014C37.8283 53.9472 37.9512 53.9714 38.0849 53.9714C38.2185 53.9714 38.3373 53.9472 38.4427 53.9014C38.5493 53.8557 38.6452 53.7911 38.7262 53.709C38.8086 53.6256 38.8734 53.5261 38.9152 53.4131C38.9611 53.2987 38.9841 53.1709 38.9841 53.0351C38.9841 52.8992 38.9611 52.7808 38.9152 52.6651V52.6665ZM38.9152 52.6665C38.8707 52.5562 38.8086 52.458 38.7262 52.3759C38.6479 52.2952 38.5561 52.2333 38.4427 52.1849C38.3373 52.1391 38.2172 52.1136 38.0849 52.1136C37.9525 52.1136 37.8283 52.1378 37.723 52.1849C37.6096 52.232 37.5178 52.2952 37.4395 52.3759C37.3612 52.4539 37.2977 52.5508 37.2504 52.6678C37.2045 52.7822 37.1816 52.9059 37.1816 53.0364C37.1816 53.1669 37.2045 53.2947 37.2504 53.4117C37.2963 53.5301 37.3598 53.627 37.4395 53.709C37.5205 53.7911 37.615 53.8557 37.723 53.9014C37.8283 53.9472 37.9512 53.9714 38.0849 53.9714C38.2185 53.9714 38.3373 53.9472 38.4427 53.9014C38.5493 53.8557 38.6452 53.7911 38.7262 53.709C38.8086 53.6256 38.8734 53.5261 38.9152 53.4131C38.9611 53.2987 38.9841 53.1709 38.9841 53.0351C38.9841 52.8992 38.9611 52.7808 38.9152 52.6651V52.6665ZM28.836 39.8785V56H45.0154V39.8785H28.836ZM32.8623 54.4234C32.7961 54.3104 32.7259 54.2135 32.6489 54.1315C32.572 54.0494 32.491 53.9835 32.4005 53.9297C32.3087 53.8732 32.2088 53.8368 32.0994 53.8113C31.9901 53.7857 31.8685 53.775 31.7376 53.775C31.6755 53.775 31.612 53.7763 31.5458 53.783C31.481 53.7871 31.4108 53.7951 31.3406 53.8059L31.0692 54.4247H30.4657L31.7551 51.6656H32.1737L33.4604 54.4247H32.8609L32.8623 54.4234ZM36.2742 51.7019L35.0159 54.4207H34.5757L34.5676 54.4059L33.3173 51.6643H34.0073L34.8093 53.5005L35.614 51.6643H36.2918L36.2742 51.7019ZM39.4958 53.6297C39.4175 53.8126 39.3095 53.9727 39.1758 54.1005C39.0422 54.2323 38.8788 54.3373 38.6911 54.4139C38.5021 54.4879 38.2968 54.5269 38.0835 54.5269C37.8702 54.5269 37.6623 54.4893 37.4746 54.4139C37.2855 54.3373 37.1222 54.2323 36.9885 54.1005C36.8548 53.9714 36.7468 53.8126 36.6685 53.6297C36.5902 53.4521 36.551 53.2543 36.551 53.0405C36.551 52.8266 36.5888 52.6315 36.6685 52.4526C36.7468 52.2696 36.8521 52.1163 36.9885 51.9831C37.1249 51.8539 37.2869 51.749 37.4746 51.6723C37.6623 51.5997 37.8675 51.562 38.0835 51.562C38.2995 51.562 38.5007 51.5997 38.6884 51.6723C38.8761 51.749 39.0395 51.8539 39.1745 51.9831C39.3108 52.1163 39.4162 52.2696 39.4945 52.4526C39.5728 52.6315 39.6119 52.8279 39.6119 53.0405C39.6119 53.253 39.5741 53.4521 39.4945 53.6297H39.4958ZM42.9105 54.422H42.4393L42.4298 54.4139L41.0148 52.7458V54.422H40.4032V51.6643H40.8757L40.8838 51.6737L42.2988 53.3391V51.6629H42.9105V54.422ZM38.7262 52.3759C38.6479 52.2952 38.5561 52.2333 38.4427 52.1849C38.3373 52.1391 38.2172 52.1136 38.0849 52.1136C37.9525 52.1136 37.8283 52.1378 37.723 52.1849C37.6096 52.232 37.5178 52.2952 37.4395 52.3759C37.3612 52.4539 37.2977 52.5508 37.2504 52.6678C37.2045 52.7822 37.1816 52.9059 37.1816 53.0364C37.1816 53.1669 37.2045 53.2947 37.2504 53.4117C37.2963 53.5301 37.3598 53.627 37.4395 53.709C37.5205 53.7911 37.615 53.8557 37.723 53.9014C37.8283 53.9472 37.9512 53.9714 38.0849 53.9714C38.2185 53.9714 38.3373 53.9472 38.4427 53.9014C38.5493 53.8557 38.6452 53.7911 38.7262 53.709C38.8086 53.6256 38.8734 53.5261 38.9152 53.4131C38.9611 53.2987 38.9841 53.1709 38.9841 53.0351C38.9841 52.8992 38.9611 52.7808 38.9152 52.6651C38.8707 52.5548 38.8086 52.4566 38.7262 52.3746V52.3759Z" fill="white"/>
<path d="M3.53049 52.2763C2.35312 52.2763 1.69422 52.9799 1.69422 54.1207V55.622H2.49489V54.0427C2.49489 53.1669 2.80813 52.6355 3.53049 52.6355C4.20559 52.6355 4.51884 53.1669 4.51884 54.0427V55.622H5.31951V54.1207C5.31951 52.9799 4.72272 52.2763 3.53049 52.2763Z" fill="white"/>
<path d="M7.82953 52.2764C6.87224 52.2764 5.99326 52.9167 5.99326 54.0427C5.99326 55.1054 6.71561 55.731 7.71881 55.731C8.25214 55.731 8.6599 55.5117 8.87999 55.1054V55.6207H9.64825V54.1355C9.64825 52.9947 9.02041 52.275 7.82818 52.275L7.82953 52.2764ZM7.82953 55.3718C7.12337 55.3718 6.79392 54.9023 6.79392 54.0427C6.79392 53.2611 7.12337 52.6356 7.82953 52.6356C8.53568 52.6356 8.84893 53.2611 8.84893 54.0427C8.84893 54.8243 8.42497 55.3718 7.82953 55.3718Z" fill="white"/>
<path d="M15.6742 53.9646C15.6742 54.8404 15.392 55.3718 14.7021 55.3718C14.0121 55.3718 13.761 54.8404 13.761 53.9646V52.3853H12.9603V53.8866C12.9603 55.0274 13.5247 55.731 14.7021 55.731C15.8794 55.731 16.4749 55.0274 16.4749 53.8866V52.3853H15.6742V53.9646Z" fill="white"/>
<path d="M21.1965 52.2764C20.2392 52.2764 19.3603 52.9167 19.3603 54.0427C19.3603 55.1054 20.0826 55.731 21.0858 55.731C21.6191 55.731 22.0269 55.5117 22.247 55.1054V55.6207H23.0152V54.1355C23.0152 52.9947 22.3874 52.275 21.1952 52.275L21.1965 52.2764ZM21.1965 55.3718C20.4904 55.3718 20.1609 54.9023 20.1609 54.0427C20.1609 53.2611 20.4904 52.6356 21.1965 52.6356C21.9027 52.6356 22.2159 53.2611 22.2159 54.0427C22.2159 54.8243 21.792 55.3718 21.1965 55.3718Z" fill="white"/>
<path d="M17.3376 53.7777V55.622H18.1383V53.6835C18.1383 53.058 18.2801 52.6517 18.9228 52.6517C19.0011 52.6517 19.0956 52.6517 19.1901 52.6678V52.3396C19.0173 52.2925 18.8445 52.2777 18.673 52.2777C17.9047 52.2777 17.339 52.7149 17.339 53.779L17.3376 53.7777Z" fill="white"/>
<path d="M11.9396 55.3556C11.5466 55.3556 11.3117 55.1054 11.3117 54.3399V52.7606H12.3635V52.3853H11.3117V51.5728H10.511V54.2148C10.511 55.3718 11.1389 55.7309 11.8126 55.7309C12.1421 55.7309 12.4405 55.6368 12.6592 55.4807C12.5809 55.4027 12.5174 55.3085 12.4864 55.2144C12.3298 55.3085 12.1569 55.3556 11.9369 55.3556H11.9396Z" fill="white"/>
<path d="M15.4055 44.6986C15.4055 45.1586 15.1719 45.7183 15.0045 46.0129C14.9127 46.177 14.8897 46.2147 14.8897 46.2402C14.8897 46.2577 14.9005 46.2739 14.9221 46.2739C15.0329 46.2739 15.9577 45.5649 16.6058 45.5649C16.9866 45.5649 17.3336 45.7667 17.3336 46.2416C17.3336 46.7164 17.0096 47.5061 15.9294 48.0819C15.8524 48.1236 15.6904 48.2083 15.577 48.2689C15.4312 48.3455 15.3934 48.3832 15.3934 48.4316C15.3934 48.5541 15.8227 48.4949 15.8227 48.7464C15.8227 48.8796 15.6594 49.1016 15.23 49.3397C14.8384 49.5576 14.3159 49.7365 13.6665 49.7365C13.2033 49.7365 12.9441 49.6464 12.8955 49.6464C12.8766 49.6464 12.8617 49.6518 12.8415 49.6706C12.8145 49.6935 12.4837 49.976 11.7127 49.976C10.827 49.976 9.83459 49.6141 9.83459 49.2778C9.83459 49.1137 10.0425 49.0679 10.0425 49.033C10.0425 49.0182 10.0182 49.0128 10.0074 49.0101C8.77063 48.6778 7.37587 48.0213 7.37587 47.1362C7.37587 46.8913 7.54869 46.7649 7.79983 46.7649C8.23459 46.7649 8.83543 46.9653 8.9664 46.9653C8.99881 46.9653 9.01096 46.9478 9.01096 46.9303C9.01096 46.9061 8.99206 46.8792 8.95425 46.8483C8.16168 46.177 7.83089 45.5609 7.83089 45.0443C7.83089 44.3771 8.31426 43.8712 8.95695 43.7448C10.1411 43.5121 10.8553 44.5196 11.4872 45.3295C11.5048 45.3524 11.5372 45.3994 11.5763 45.3994C11.625 45.3994 11.6371 45.3524 11.6817 45.1748C11.7262 44.9972 11.7384 44.9421 11.7951 44.7147C11.9801 43.9654 12.4256 43.0157 13.711 43.0157C14.4685 43.0157 15.4055 43.5255 15.4055 44.7013V44.6986ZM11.7397 46.3828C11.5007 46.3828 11.3738 46.2496 11.1294 45.9443C11.0903 45.8958 10.9215 45.6914 10.8783 45.6402C10.2869 44.93 9.85889 44.6084 9.36877 44.6084C9.07307 44.6084 8.62885 44.7739 8.62885 45.3349C8.62885 45.4089 8.63831 45.7237 8.9448 46.0963C9.33501 46.5712 9.90074 47.1994 9.95205 47.2586C10.0047 47.3191 10.0331 47.3823 10.0317 47.4388C10.0317 47.4698 10.0223 47.6083 9.78598 47.6083C9.54969 47.6083 8.54919 47.3151 8.19679 47.3151C8.03342 47.3151 7.9281 47.385 7.9281 47.5048C7.9281 47.8128 8.53164 48.4464 10.43 48.8729C10.669 48.9267 10.6893 49.0114 10.6893 49.041C10.6893 49.1513 10.3936 49.2025 10.3936 49.3908C10.3936 49.6652 11.2861 49.7877 11.5412 49.7877C11.9963 49.7877 12.2204 49.6545 12.3905 49.5388C12.535 49.4392 12.6187 49.4016 12.7146 49.4016C12.9184 49.4016 13.1088 49.528 13.7272 49.528C14.4793 49.528 15.2691 49.1366 15.2691 48.924C15.2691 48.8406 15.1436 48.8191 14.8627 48.7276C14.7156 48.6792 14.6305 48.62 14.6305 48.5285C14.6305 48.437 14.7021 48.3724 14.9154 48.281C15.1422 48.1828 15.3056 48.1101 15.473 48.0294C16.3885 47.5909 16.7422 47.0541 16.7449 46.6667C16.7463 46.4178 16.6031 46.2496 16.3696 46.2496C16.0617 46.2496 15.7242 46.4272 15.3961 46.5927C14.7804 46.9034 14.5562 47.0218 14.3402 47.0218C14.1876 47.0218 14.1161 46.8913 14.1147 46.8146C14.1147 46.7703 14.1215 46.7191 14.1417 46.664C14.2214 46.4501 14.2781 46.3061 14.3645 46.0761C14.4928 45.7384 14.6481 45.3524 14.6481 44.9703C14.6481 44.373 14.1836 43.9668 13.5733 43.9668C12.8901 43.9668 12.5971 44.6084 12.4243 45.1183C12.377 45.2582 12.1974 45.8017 12.1421 45.9644C12.0462 46.2496 11.9193 46.3828 11.737 46.3828H11.7397Z" fill="white"/>
<path d="M1.20679 41.2144H0.384521C0.384521 37.6158 3.32391 34.6872 6.9357 34.6872H46.3265V35.5065H6.9357C3.77623 35.5065 1.20679 38.0665 1.20679 41.2144Z" fill="white"/>
<path d="M5.36542 11.7575C3.21995 11.7575 1.82789 10.2172 1.82789 8.36878C1.82789 6.52041 3.25235 4.99625 5.38432 4.99625C6.68456 4.99625 7.67021 5.47112 8.45198 6.28769V4.80119C7.79578 4.14739 6.72102 3.78014 5.16019 3.78014C2.36122 3.78149 0.384521 5.76707 0.384521 8.36878C0.384521 10.9705 2.36122 12.9709 5.17774 12.9709C6.63461 12.9709 7.84169 12.5888 8.59915 11.9377V10.4647C7.74177 11.3216 6.62245 11.7588 5.36542 11.7588V11.7575Z" fill="white"/>
<path d="M14.567 3.7815C11.6655 3.7815 9.75762 5.73211 9.75762 8.3688C9.75762 11.0055 11.6655 12.9709 14.567 12.9709C17.4686 12.9709 19.3603 11.0041 19.3603 8.3688C19.3603 5.73346 17.4713 3.7815 14.567 3.7815ZM14.567 11.7575C12.4877 11.7575 11.1996 10.2333 11.1996 8.3688C11.1996 6.50428 12.4891 4.99626 14.567 4.99626C16.645 4.99626 17.9344 6.52043 17.9344 8.3688C17.9344 10.2172 16.645 11.7575 14.567 11.7575Z" fill="white"/>
<path d="M25.9465 3.78149C24.1764 3.78149 23.0774 4.7393 22.5265 5.97155V3.98731H21.0845V12.7677H22.5265V6.60651C23.2326 5.66349 24.2453 5.01374 25.4308 5.01374C27.0119 5.01374 27.8355 5.90429 27.8355 7.42577V12.7664H29.2788V7.16882C29.2788 5.09714 28.092 3.78014 25.9465 3.78014V3.78149Z" fill="white"/>
<path d="M36.0717 7.63295L33.717 7.29125C32.7732 7.17018 32.2925 6.87961 32.2925 6.22985C32.2925 5.35544 33.2363 4.91151 34.7661 4.91151C36.2958 4.91151 37.3423 5.42405 38.1146 6.05901V4.65188C37.4435 4.15413 36.038 3.7815 34.7323 3.7815C32.4127 3.7815 30.918 4.68954 30.918 6.29846C30.918 7.56434 31.7956 8.2827 33.4604 8.54099L35.934 8.91766C36.9142 9.05353 37.43 9.51764 37.43 10.1997C37.43 11.2786 36.3985 11.8274 34.8876 11.8274C33.3767 11.8274 32.036 11.3297 30.8842 10.4741V11.8839C31.7619 12.4314 33.2538 12.9709 34.8687 12.9709C37.1019 12.9709 38.8032 11.9445 38.8032 10.0961C38.8032 8.693 37.8594 7.8872 36.0731 7.6316L36.0717 7.63295Z" fill="white"/>
<path d="M47.0894 3.98732V10.1661C46.4035 11.0902 45.4246 11.74 44.2391 11.74C42.6404 11.74 41.8506 10.8346 41.8506 9.3441V3.98732H40.4072V9.58221C40.4072 11.6364 41.5414 12.9709 43.7395 12.9709C45.4732 12.9709 46.5398 11.9969 47.088 10.7808V12.7664H48.5314V3.98732H47.088H47.0894Z" fill="white"/>
<path d="M61.6945 5.21956V3.98731H57.9315V1.06005L56.4881 1.34928V3.98597H54.2711V5.21822H56.4881V9.823C56.4881 11.7575 57.4508 12.9373 59.495 12.9373C60.2984 12.9373 60.9978 12.7678 61.3785 12.5471V11.2947C60.9451 11.5247 60.3969 11.6875 59.7353 11.6875C58.4824 11.6875 57.9328 10.9866 57.9328 9.73556V5.21822H61.6958L61.6945 5.21956Z" fill="white"/>
<path d="M67.3356 3.7815C64.4313 3.7815 62.5249 5.73211 62.5249 8.3688C62.5249 11.0055 64.4327 12.9709 67.3356 12.9709C70.2386 12.9709 72.1288 11.0041 72.1288 8.3688C72.1288 5.73346 70.2386 3.7815 67.3356 3.7815ZM67.3356 11.7575C65.2563 11.7575 63.9682 10.2333 63.9682 8.3688C63.9682 6.50428 65.2577 4.99626 67.3356 4.99626C69.4136 4.99626 70.7017 6.52043 70.7017 8.3688C70.7017 10.2172 69.4149 11.7575 67.3356 11.7575Z" fill="white"/>
<path d="M75.2964 3.98731H73.8531V12.7677H75.2964V8.06072C76.3212 6.80964 77.9064 6.02133 79.1864 5.46439V3.8205C77.7443 4.48909 76.085 5.61641 75.2964 7.42711V3.98731Z" fill="white"/>
<path d="M81.506 0.530048C80.8876 0.530048 80.5258 0.922861 80.5258 1.47038C80.5258 2.01789 80.8876 2.39456 81.506 2.39456C82.1244 2.39456 82.5025 2.00175 82.5025 1.47038C82.5025 0.939004 82.1244 0.530048 81.506 0.530048ZM80.7823 3.98734V12.7678H82.2257V3.98734H80.7823Z" fill="white"/>
<path d="M88.8808 3.7815C87.3578 3.7815 86.0724 4.22543 85.1772 5.00837V6.38052C86.1426 5.49131 87.455 4.98146 88.7093 4.98146C90.308 4.98146 90.84 5.68234 90.84 6.79486V6.8971L87.2835 7.68541C85.2906 8.12934 84.1227 8.89883 84.1227 10.3732C84.1227 11.9633 85.1002 12.9736 86.9392 12.9736C88.7782 12.9736 90.2715 11.7763 90.84 10.8172V12.7691H92.282V6.74374C92.282 4.7595 91.0978 3.78419 88.8808 3.78419V3.7815ZM90.84 10.0638C90.1 11.0553 88.7944 11.8597 87.3861 11.8597C86.1494 11.8597 85.5647 11.2772 85.5647 10.3194C85.5647 9.46383 86.3046 8.94995 87.5927 8.60825L90.84 7.73384V10.0638Z" fill="white"/>
<path d="M54.0051 11.5947V12.909C53.7823 12.9507 53.5285 12.9722 53.2341 12.9722C52.2134 12.9722 51.599 12.6776 51.2439 12.1409C50.8888 11.6055 50.7889 10.8266 50.7889 9.85933V0.273085L52.2309 0V9.77054H52.2323C52.2323 11.0216 52.2201 11.6364 53.4731 11.6364C53.6743 11.6364 53.8485 11.6203 54.0051 11.5947Z" fill="white"/>
<path d="M8.40742 16.182V21.9841C7.89164 20.6994 6.6049 19.6904 4.79968 19.6904C2.05202 19.6904 0.384521 21.6935 0.384521 24.2777C0.384521 26.8619 2.05202 28.8825 4.79968 28.8825C6.6211 28.8825 7.87544 27.8547 8.40742 26.5714V28.6753H9.85079V15.9076L8.40742 16.182ZM8.40742 25.7656C7.61755 26.9817 6.48338 27.6664 5.12778 27.6664C2.9445 27.6664 1.82924 26.0736 1.82924 24.2777C1.82924 22.4818 2.9445 20.9052 5.12778 20.9052C6.50094 20.9052 7.6189 21.5899 8.40742 22.806V25.7656Z" fill="white"/>
<path d="M20.886 24.1741C20.886 21.7284 19.2536 19.6904 16.402 19.6904C13.5503 19.6904 11.5736 21.676 11.5736 24.2777C11.5736 26.8794 13.4126 28.8825 16.7611 28.8825C18.3746 28.8825 19.7302 28.3699 20.4701 27.7565V26.309C19.5614 27.1552 18.3192 27.7013 16.8489 27.7013C14.4779 27.7013 13.1196 26.4005 13.017 24.5023H20.8846V24.1755L20.886 24.1741ZM13.0872 23.4221C13.3613 21.9316 14.4955 20.7679 16.3858 20.7679C18.276 20.7679 19.2185 21.984 19.4777 23.4221H13.0872Z" fill="white"/>
<path d="M30.4846 19.6904C28.6982 19.6904 27.4088 20.6994 26.8768 21.9841V15.9076L25.4348 16.182V28.6753H26.8768V26.5714C27.4264 27.8534 28.682 28.8825 30.4846 28.8825C33.2336 28.8825 34.8997 26.8619 34.8997 24.2777C34.8997 21.6935 33.2349 19.6904 30.4846 19.6904ZM30.1754 27.6664C28.8009 27.6664 27.6856 26.9817 26.8768 25.7656V22.806C27.6856 21.5899 28.8009 20.9052 30.1592 20.9052C32.3573 20.9052 33.4577 22.4979 33.4577 24.2777C33.4577 26.0575 32.3573 27.6664 30.1754 27.6664Z" fill="white"/>
<path d="M63.5227 27.4955L69.5702 21.0074V19.8962H61.9429V21.076H67.8015L61.7552 27.5453V28.6753H69.6404V27.4955H63.5227Z" fill="white"/>
<path d="M45.4381 24.1741C45.4381 21.7284 43.8057 19.6904 40.954 19.6904C38.1024 19.6904 36.1257 21.676 36.1257 24.2777C36.1257 26.8794 37.9647 28.8825 41.3132 28.8825C42.9267 28.8825 44.2823 28.3699 45.0222 27.7565V26.309C44.1135 27.1552 42.8713 27.7013 41.401 27.7013C39.03 27.7013 37.6717 26.4005 37.5691 24.5023H45.4367V24.1755L45.4381 24.1741ZM37.6379 23.4221C37.912 21.9316 39.0462 20.7679 40.9365 20.7679C42.8268 20.7679 43.7692 21.984 44.0285 23.4221H37.6379Z" fill="white"/>
<path d="M60.424 24.1741C60.424 21.7284 58.7915 19.6904 55.9399 19.6904C53.0883 19.6904 51.1116 21.676 51.1116 24.2777C51.1116 26.8794 52.9506 28.8825 56.2991 28.8825C57.9126 28.8825 59.2682 28.3699 60.0081 27.7565V26.309C59.0994 27.1552 57.8572 27.7013 56.3868 27.7013C54.0159 27.7013 52.6576 26.4005 52.555 24.5023H60.4226V24.1755L60.424 24.1741ZM52.6252 23.4221C52.8993 21.9316 54.0334 20.7679 55.9237 20.7679C57.814 20.7679 58.7564 21.984 59.0157 23.4221H52.6252Z" fill="white"/>
<path d="M75.6826 19.6904C74.1596 19.6904 72.8742 20.1343 71.979 20.9173V22.2894C72.9444 21.4002 74.2568 20.8904 75.5111 20.8904C77.1097 20.8904 77.6417 21.5912 77.6417 22.7038V22.806L74.0853 23.5943C72.0924 24.0382 70.9245 24.8077 70.9245 26.2821C70.9245 27.8722 71.902 28.8825 73.741 28.8825C75.58 28.8825 77.0733 27.6852 77.6417 26.726V28.678H79.0837V22.6526C79.0837 20.6684 77.8996 19.6931 75.6826 19.6931V19.6904ZM77.6417 25.9727C76.9018 26.9642 75.5962 27.7686 74.1879 27.7686C72.9511 27.7686 72.3665 27.1861 72.3665 26.2283C72.3665 25.3727 73.1064 24.8588 74.3945 24.5171L77.6417 23.6427V25.9727Z" fill="white"/>
<path d="M50.3015 27.5036V28.8179C50.0787 28.8596 49.8249 28.8811 49.5305 28.8811C48.5098 28.8811 47.8954 28.5865 47.5403 28.0498C47.1852 27.5144 47.0853 26.7355 47.0853 25.7682V16.182L48.5273 15.9089V25.6794H48.5287C48.5287 26.9305 48.5165 27.5453 49.7695 27.5453C49.9707 27.5453 50.1449 27.5292 50.3015 27.5036Z" fill="white"/>
</svg>
