<svg width="84" height="56" viewBox="0 0 84 56" fill="none" xmlns="http://www.w3.org/2000/svg">
<path d="M32.8572 52.3762L32.4477 53.3071C32.5334 53.3 32.612 53.2952 32.6858 53.2952C32.8358 53.2952 32.9667 53.3095 33.0739 53.3381C33.1834 53.3667 33.2739 53.4071 33.3477 53.4595L32.8572 52.3762ZM39.8263 52.6429C39.781 52.5309 39.7191 52.4333 39.6358 52.35C39.5572 52.269 39.4644 52.2048 39.3525 52.1571C39.2477 52.1119 39.1263 52.0857 38.9929 52.0857C38.8596 52.0857 38.7358 52.1119 38.6286 52.1571C38.5144 52.2048 38.4239 52.269 38.3453 52.35C38.2667 52.4286 38.2025 52.5262 38.1548 52.6429C38.1096 52.7571 38.0858 52.8833 38.0858 53.0143C38.0858 53.1452 38.1096 53.2738 38.1548 53.3929C38.2001 53.5119 38.2644 53.6095 38.3453 53.6929C38.4263 53.7762 38.5215 53.8405 38.6286 53.8881C38.7334 53.9333 38.8572 53.9595 38.9929 53.9595C39.1286 53.9595 39.2477 53.9357 39.3525 53.8881C39.4596 53.8429 39.5572 53.7762 39.6358 53.6929C39.7191 53.6071 39.7834 53.5095 39.8263 53.3952C39.8715 53.2809 39.8953 53.1524 39.8953 53.0143C39.8953 52.8762 39.8715 52.7595 39.8263 52.6405V52.6429ZM39.8263 52.6429C39.781 52.5309 39.7191 52.4333 39.6358 52.35C39.5572 52.269 39.4644 52.2048 39.3525 52.1571C39.2477 52.1119 39.1263 52.0857 38.9929 52.0857C38.8596 52.0857 38.7358 52.1119 38.6286 52.1571C38.5144 52.2048 38.4239 52.269 38.3453 52.35C38.2667 52.4286 38.2025 52.5262 38.1548 52.6429C38.1096 52.7571 38.0858 52.8833 38.0858 53.0143C38.0858 53.1452 38.1096 53.2738 38.1548 53.3929C38.2001 53.5119 38.2644 53.6095 38.3453 53.6929C38.4263 53.7762 38.5215 53.8405 38.6286 53.8881C38.7334 53.9333 38.8572 53.9595 38.9929 53.9595C39.1286 53.9595 39.2477 53.9357 39.3525 53.8881C39.4596 53.8429 39.5572 53.7762 39.6358 53.6929C39.7191 53.6071 39.7834 53.5095 39.8263 53.3952C39.8715 53.2809 39.8953 53.1524 39.8953 53.0143C39.8953 52.8762 39.8715 52.7595 39.8263 52.6405V52.6429ZM29.7167 39.769V56.0024H45.9477V39.769H29.7167ZM33.7548 54.4143C33.6882 54.3 33.6167 54.2024 33.5405 54.1214C33.4644 54.0405 33.381 53.9714 33.2905 53.9167C33.1977 53.8595 33.0977 53.8214 32.9882 53.7976C32.8786 53.7714 32.7572 53.7595 32.6263 53.7595C32.5644 53.7595 32.5001 53.7595 32.4334 53.7667C32.3691 53.7714 32.2977 53.7786 32.2286 53.7905L31.9572 54.4143H31.3525L32.6453 51.6357H33.0644L34.3548 54.4143H33.7524H33.7548ZM37.1786 51.6738L35.9167 54.4119H35.4739L35.4667 54.3976L34.212 51.6357H34.9048L35.7096 53.4833L36.5167 51.6357H37.1977L37.181 51.6738H37.1786ZM40.4096 53.6143C40.331 53.7976 40.2239 53.9595 40.0882 54.0881C39.9525 54.2214 39.7905 54.3262 39.6025 54.4024C39.412 54.4762 39.2072 54.5167 38.9929 54.5167C38.7786 54.5167 38.5691 54.4786 38.381 54.4024C38.1905 54.3262 38.0286 54.219 37.8929 54.0881C37.7572 53.9571 37.6501 53.7976 37.5715 53.6143C37.4929 53.4357 37.4548 53.2357 37.4548 53.0214C37.4548 52.8071 37.4929 52.6095 37.5715 52.4286C37.6501 52.2452 37.7548 52.0905 37.8929 51.9548C38.0286 51.8238 38.1929 51.719 38.381 51.6405C38.5691 51.5667 38.7739 51.5286 38.9929 51.5286C39.212 51.5286 39.412 51.5667 39.6001 51.6405C39.7882 51.7167 39.9525 51.8238 40.0882 51.9548C40.2239 52.0881 40.331 52.2429 40.4096 52.4286C40.4882 52.6095 40.5263 52.8071 40.5263 53.0214C40.5263 53.2357 40.4882 53.4357 40.4096 53.6143ZM43.8358 54.4119H43.362L43.3525 54.4048L41.9334 52.7262V54.4143H41.3215V51.6381H41.7953L41.8024 51.6476L43.2215 53.3262V51.6381H43.8334V54.4143L43.8358 54.4119ZM39.6382 52.3524C39.5596 52.2714 39.4667 52.2071 39.3548 52.1595C39.2501 52.1143 39.1286 52.0881 38.9953 52.0881C38.862 52.0881 38.7382 52.1143 38.631 52.1595C38.5167 52.2071 38.4263 52.2714 38.3477 52.3524C38.2691 52.431 38.2048 52.5286 38.1572 52.6452C38.112 52.7595 38.0882 52.8857 38.0882 53.0167C38.0882 53.1476 38.112 53.2762 38.1572 53.3952C38.2024 53.5143 38.2667 53.6119 38.3477 53.6952C38.4286 53.7786 38.5239 53.8429 38.631 53.8905C38.7358 53.9357 38.8596 53.9619 38.9953 53.9619C39.131 53.9619 39.2501 53.9381 39.3548 53.8905C39.462 53.8452 39.5596 53.7786 39.6382 53.6952C39.7215 53.6095 39.7858 53.5119 39.8286 53.3976C39.8739 53.2833 39.8977 53.1548 39.8977 53.0167C39.8977 52.8786 39.8739 52.7619 39.8286 52.6429C39.7834 52.5309 39.7215 52.4333 39.6382 52.35V52.3524Z" fill="#111111"/>
<path d="M5.18351 52.3929C3.9597 52.3929 3.27399 53.1286 3.27399 54.3191V55.8857H4.10732V54.2381C4.10732 53.3238 4.43351 52.7691 5.18589 52.7691C5.88827 52.7691 6.21446 53.3238 6.21446 54.2381V55.8857H7.0478V54.3191C7.0478 53.1262 6.42637 52.3929 5.18589 52.3929H5.18351Z" fill="#111111"/>
<path d="M9.65732 52.3929C8.66208 52.3929 7.7478 53.0619 7.7478 54.2381C7.7478 55.3476 8.4978 56 9.54303 56C10.0978 56 10.5216 55.7715 10.7502 55.3476V55.8857H11.5502V54.3357C11.5502 53.1429 10.8978 52.3929 9.65732 52.3929ZM9.65732 55.6262C8.92161 55.6262 8.57875 55.1357 8.57875 54.2381C8.57875 53.4215 8.92161 52.7691 9.65732 52.7691C10.393 52.7691 10.7192 53.4215 10.7192 54.2381C10.7192 55.0548 10.2787 55.6262 9.65732 55.6262Z" fill="#111111"/>
<path d="M17.8192 54.1572C17.8192 55.0715 17.5264 55.6262 16.8073 55.6262C16.0883 55.6262 15.8287 55.0715 15.8287 54.1572V52.5095H14.9954V54.0762C14.9954 55.2691 15.5835 56.0024 16.8073 56.0024C18.0311 56.0024 18.6526 55.2667 18.6526 54.0762V52.5095H17.8192V54.1572Z" fill="#111111"/>
<path d="M23.5668 52.3929C22.5716 52.3929 21.6573 53.0619 21.6573 54.2381C21.6573 55.3476 22.4073 56 23.4526 56C24.0073 56 24.4311 55.7715 24.6597 55.3476V55.8857H25.4597V54.3357C25.4597 53.1429 24.8073 52.3929 23.5668 52.3929ZM23.5668 55.6262C22.8311 55.6262 22.4883 55.1357 22.4883 54.2381C22.4883 53.4215 22.8311 52.7691 23.5668 52.7691C24.3026 52.7691 24.6287 53.4215 24.6287 54.2381C24.6287 55.0548 24.1883 55.6262 23.5668 55.6262Z" fill="#111111"/>
<path d="M19.5502 53.9595V55.8857H20.3835V53.8619C20.3835 53.2095 20.5311 52.7834 21.2002 52.7834C21.2811 52.7834 21.3788 52.7834 21.4788 52.8V52.4572C21.3002 52.4072 21.1192 52.3929 20.9407 52.3929C20.1407 52.3929 19.5526 52.85 19.5526 53.9595H19.5502Z" fill="#111111"/>
<path d="M13.9335 55.6095C13.5264 55.6095 13.2811 55.3476 13.2811 54.5476V52.9H14.374V52.5072H13.2811V51.6572H12.4478V54.4167C12.4478 55.6238 13.1002 56 13.8026 56C14.1454 56 14.4549 55.9024 14.6835 55.7381C14.6026 55.6572 14.5359 55.5595 14.5049 55.4595C14.3407 55.5572 14.1621 55.6072 13.9335 55.6072V55.6095Z" fill="#111111"/>
<path d="M17.5406 44.5C17.5406 44.981 17.2977 45.5643 17.1239 45.8714C17.0286 46.0429 17.0048 46.081 17.0048 46.1071C17.0048 46.1262 17.0167 46.1429 17.0382 46.1429C17.1525 46.1429 18.1167 45.4024 18.7906 45.4024C19.1858 45.4024 19.5477 45.6119 19.5477 46.1095C19.5477 46.6071 19.2096 47.431 18.0858 48.031C18.0048 48.0738 17.8358 48.1643 17.7191 48.2262C17.5667 48.3071 17.5286 48.3452 17.5286 48.3952C17.5286 48.5238 17.9763 48.4619 17.9763 48.7238C17.9763 48.8643 17.8048 49.0952 17.3596 49.3429C16.9525 49.5714 16.4072 49.7571 15.7334 49.7571C15.2525 49.7571 14.9834 49.6619 14.931 49.6619C14.912 49.6619 14.8953 49.669 14.8739 49.6857C14.8453 49.7095 14.5025 50.0048 13.7001 50.0048C12.7786 50.0048 11.7453 49.6262 11.7453 49.2762C11.7453 49.1048 11.962 49.0571 11.962 49.0214C11.962 49.0071 11.9358 49 11.9263 48.9976C10.6406 48.65 9.18817 47.9643 9.18817 47.0405C9.18817 46.7857 9.36912 46.6524 9.62865 46.6524C10.081 46.6524 10.7072 46.8619 10.8429 46.8619C10.8763 46.8619 10.8882 46.8429 10.8882 46.8262C10.8882 46.8 10.8691 46.7738 10.8286 46.7405C10.0048 46.0405 9.6596 45.3952 9.6596 44.8571C9.6596 44.1595 10.162 43.631 10.831 43.5C12.0644 43.2571 12.8072 44.3095 13.4644 45.1548C13.4834 45.1786 13.5167 45.2286 13.5572 45.2286C13.6072 45.2286 13.6215 45.181 13.6667 44.9952C13.712 44.8095 13.7263 44.7524 13.7834 44.5143C13.9763 43.731 14.4382 42.7405 15.7786 42.7405C16.5667 42.7405 17.5406 43.2738 17.5406 44.5ZM13.7263 46.2571C13.4763 46.2571 13.3453 46.1167 13.0929 45.8C13.0525 45.75 12.8763 45.5357 12.831 45.4833C12.2167 44.7405 11.7691 44.4048 11.2596 44.4048C10.9525 44.4048 10.4906 44.5762 10.4906 45.1643C10.4906 45.2405 10.5001 45.569 10.8191 45.9595C11.2263 46.4571 11.812 47.1119 11.8667 47.1738C11.9215 47.2357 11.9501 47.3024 11.9501 47.3619C11.9501 47.3952 11.9406 47.5381 11.6953 47.5381C11.4501 47.5381 10.4096 47.231 10.0429 47.231C9.87389 47.231 9.76436 47.3048 9.76436 47.4286C9.76436 47.75 10.3929 48.4119 12.3667 48.8571C12.6144 48.9119 12.6358 49.0024 12.6358 49.031C12.6358 49.1452 12.3286 49.2 12.3286 49.3952C12.3286 49.6833 13.2572 49.8095 13.5239 49.8095C13.9977 49.8095 14.231 49.6714 14.4072 49.55C14.5572 49.4452 14.6429 49.4071 14.7453 49.4071C14.9572 49.4071 15.1548 49.5405 15.8001 49.5405C16.5834 49.5405 17.4048 49.131 17.4048 48.9095C17.4048 48.8214 17.2739 48.8 16.9834 48.7048C16.831 48.6548 16.7406 48.5929 16.7406 48.4952C16.7406 48.3976 16.8144 48.331 17.0358 48.2357C17.2715 48.1333 17.4406 48.0571 17.6167 47.9738C18.5691 47.5143 18.9382 46.9548 18.9406 46.55C18.9406 46.2905 18.7929 46.1143 18.5501 46.1143C18.231 46.1143 17.8786 46.3 17.5382 46.4738C16.8977 46.7976 16.6644 46.9214 16.4406 46.9214C16.281 46.9214 16.2072 46.7857 16.2072 46.7048C16.2072 46.6571 16.2144 46.6048 16.2358 46.5476C16.3191 46.3238 16.3763 46.1738 16.4667 45.9333C16.6001 45.581 16.762 45.1762 16.762 44.7786C16.762 44.1548 16.2786 43.731 15.6429 43.731C14.931 43.731 14.6286 44.4024 14.4477 44.9333C14.3977 45.0786 14.212 45.6476 14.1548 45.8167C14.0548 46.1143 13.9239 46.2524 13.7334 46.2524L13.7263 46.2571Z" fill="#111111"/>
<path d="M2.46919 41.1024H1.68585V40.6024C1.68585 37.4857 4.22157 34.95 7.33823 34.95H46.862V35.7333H7.33823C4.65252 35.7333 2.46919 37.9191 2.46919 40.6024V41.1024Z" fill="#111111"/>
<path d="M3.11203 4.75714H1.25726V3.63095H3.11203V2.90238C3.11203 1.9619 3.35726 1.24286 3.85012 0.745238C4.3406 0.247619 5.06203 0 6.01441 0C6.26917 0 6.50488 0.0214286 6.72869 0.0642857C6.9525 0.107143 7.1406 0.17619 7.30012 0.271429L7.4906 1.44524C7.30964 1.32857 7.10726 1.24286 6.88107 1.18333C6.6525 1.12619 6.41917 1.09524 6.17631 1.09524C5.60488 1.09524 5.17393 1.24524 4.88345 1.54762C4.59298 1.85 4.44774 2.32143 4.44774 2.96667V3.63333H7.45964V4.75952H4.44774V11.769H3.11679V4.75952L3.11203 4.75714Z" fill="#111111"/>
<path d="M10.2001 11.4C9.53345 11.031 9.01679 10.5238 8.64536 9.87857C8.27631 9.23333 8.0906 8.50476 8.0906 7.69048C8.0906 6.87619 8.27393 6.14762 8.63822 5.50238C9.0025 4.85714 9.52155 4.35238 10.193 3.9881C10.8644 3.62381 11.643 3.44048 12.5311 3.44048C13.4192 3.44048 14.1835 3.62381 14.8549 3.9881C15.5263 4.35238 16.0454 4.85714 16.4096 5.50238C16.7739 6.14762 16.9573 6.87619 16.9573 7.69048C16.9573 8.50476 16.7739 9.23333 16.4096 9.87857C16.0454 10.5238 15.5263 11.031 14.8549 11.4C14.1835 11.769 13.4096 11.9548 12.5311 11.9548C11.6525 11.9548 10.8668 11.769 10.2001 11.4ZM14.1739 10.4095C14.643 10.1286 15.0073 9.75238 15.2596 9.27619C15.5144 8.8 15.6406 8.27619 15.6406 7.70714C15.6406 7.13809 15.5144 6.59762 15.2596 6.12143C15.0049 5.64524 14.643 5.26905 14.1739 4.9881C13.7025 4.70714 13.1573 4.56905 12.5335 4.56905C11.9096 4.56905 11.362 4.70952 10.893 4.9881C10.4216 5.26905 10.0596 5.64524 9.80726 6.12143C9.55488 6.59762 9.42631 7.12619 9.42631 7.70714C9.42631 8.28809 9.5525 8.80238 9.80726 9.27619C10.062 9.75 10.4239 10.131 10.893 10.4095C11.362 10.6905 11.9096 10.8286 12.5335 10.8286C13.1573 10.8286 13.7049 10.6881 14.1739 10.4095Z" fill="#111111"/>
<path d="M19.0335 3.63095H20.3644V6.81905C20.693 6.05714 21.1787 5.40238 21.8239 4.85238C22.4692 4.30238 23.1835 3.84286 23.9644 3.47381L24.3763 4.82143C23.4977 5.19048 22.7263 5.56905 22.062 5.95476C21.3954 6.34048 20.8311 6.82381 20.3644 7.40476V11.7667H19.0335V3.63095Z" fill="#111111"/>
<path d="M25.7477 5.52619C26.1239 4.87619 26.6477 4.36667 27.3263 3.99524C28.0025 3.62619 28.7596 3.44048 29.593 3.44048C30.312 3.44048 30.9239 3.52619 31.4335 3.69524C31.9406 3.86429 32.3477 4.10238 32.6549 4.40952L32.893 6.05952C32.5025 5.57381 32.0501 5.20238 31.5382 4.95C31.0263 4.69524 30.4477 4.56905 29.8025 4.56905C29.1573 4.56905 28.5858 4.70714 28.0906 4.98095C27.593 5.25714 27.2073 5.63333 26.9335 6.11429C26.6573 6.59524 26.5215 7.12143 26.5215 7.69286C26.5215 8.26429 26.6573 8.79048 26.9263 9.27143C27.1954 9.75238 27.5787 10.1333 28.0763 10.4119C28.5739 10.6929 29.143 10.831 29.7882 10.831C30.4335 10.831 31.0477 10.7048 31.6049 10.45C32.1596 10.1952 32.643 9.82143 33.0549 9.32381L32.8001 10.9738C32.4525 11.281 32.0025 11.5214 31.4525 11.6952C30.9025 11.869 30.2906 11.9571 29.612 11.9571C28.7668 11.9571 28.0073 11.769 27.3358 11.3952C26.6644 11.019 26.1382 10.5071 25.7573 9.85714C25.3763 9.20714 25.1858 8.48571 25.1858 7.69286C25.1858 6.9 25.3739 6.17857 25.7477 5.52857V5.52619ZM29.1501 14.5738C28.9811 14.5429 28.812 14.4952 28.643 14.431L28.4525 13.7167C28.812 13.8643 29.193 13.9381 29.593 13.9381C29.8358 13.9381 30.0215 13.9048 30.1477 13.8357C30.2739 13.7667 30.3382 13.6524 30.3382 13.4952C30.3382 13.219 30.0954 13.0619 29.6096 13.019L28.8954 12.9548L29.4025 11.5429H30.0049L29.7501 12.431L30.0049 12.4476C30.4382 12.5 30.7715 12.6119 31.0049 12.781C31.2382 12.95 31.3525 13.1881 31.3525 13.4952C31.3525 13.8643 31.2049 14.1452 30.9073 14.3357C30.612 14.5262 30.2049 14.6214 29.6858 14.6214C29.4954 14.6214 29.3168 14.6048 29.1477 14.5738H29.1501Z" fill="#111111"/>
<path d="M34.993 8.39524C35.2192 8.07381 35.5477 7.80714 35.9763 7.59524C36.4049 7.38333 36.9358 7.20476 37.5692 7.05714L40.8525 6.32857V6.23333C40.8525 5.68333 40.7025 5.26667 40.4001 4.98095C40.0977 4.69524 39.593 4.55238 38.8858 4.55238C38.262 4.55238 37.6406 4.6881 37.0216 4.95714C36.4025 5.22619 35.8668 5.59286 35.412 6.05952L35.6192 4.58571C36.0311 4.21667 36.5311 3.93333 37.1168 3.7381C37.7025 3.54286 38.3454 3.44524 39.043 3.44524C40.0787 3.44524 40.862 3.67619 41.3906 4.13571C41.9192 4.59524 42.1835 5.28095 42.1835 6.1881V11.769H40.8525V9.9619C40.5454 10.481 40.0692 10.9429 39.4263 11.35C38.7811 11.7571 38.0573 11.9595 37.2549 11.9595C36.4525 11.9595 35.7763 11.7452 35.3287 11.3167C34.8787 10.8881 34.6549 10.3 34.6549 9.54762C34.6549 9.10476 34.7692 8.72143 34.9954 8.39762L34.993 8.39524ZM36.4049 10.5524C36.6858 10.8 37.1049 10.9238 37.6644 10.9238C38.2882 10.9238 38.8835 10.769 39.4477 10.4571C40.0144 10.1452 40.4811 9.74524 40.8501 9.25952V7.10238L37.8525 7.9119C37.2287 8.07143 36.762 8.27857 36.4501 8.5381C36.1382 8.79762 35.9835 9.11667 35.9835 9.49762C35.9835 9.95238 36.1239 10.3048 36.4025 10.5524H36.4049Z" fill="#111111"/>
<path d="M2.24774 21.3524C2.58107 20.7071 3.0525 20.2 3.66679 19.831C4.27869 19.4619 4.99774 19.2762 5.82393 19.2762C6.65012 19.2762 7.30726 19.4738 7.89298 19.8714C8.47869 20.269 8.90012 20.7786 9.1525 21.4024V16.0262L10.4835 15.7714V27.6H9.1525V25.65C8.88822 26.2833 8.46441 26.8 7.88345 27.1952C7.3025 27.5905 6.61441 27.7905 5.82155 27.7905C5.02869 27.7905 4.27869 27.6024 3.66441 27.2286C3.05012 26.8524 2.57869 26.3429 2.24536 25.6976C1.91203 25.0524 1.74536 24.3286 1.74536 23.5262C1.74536 22.7238 1.91203 21.9976 2.24536 21.3548L2.24774 21.3524ZM3.42869 25.0929C3.66202 25.569 4.00726 25.95 4.46679 26.2333C4.92631 26.5167 5.47869 26.6619 6.12393 26.6619C6.76917 26.6619 7.31679 26.5119 7.82869 26.2095C8.3406 25.9071 8.78345 25.4714 9.1525 24.9V22.1571C8.78345 21.5857 8.3406 21.15 7.82869 20.85C7.31679 20.5476 6.74774 20.3976 6.12393 20.3976C5.50012 20.3976 4.92631 20.5405 4.46679 20.8262C4.00726 21.1119 3.65964 21.4905 3.42869 21.9595C3.19536 22.431 3.07869 22.95 3.07869 23.5214C3.07869 24.0929 3.19536 24.6167 3.42869 25.0905V25.0929Z" fill="#111111"/>
<path d="M19.3192 27.4952C18.7168 27.6905 18.062 27.7881 17.3525 27.7881C16.3477 27.7881 15.4858 27.5976 14.7668 27.2167C14.0477 26.8357 13.5001 26.3214 13.1263 25.6714C12.7501 25.0214 12.5644 24.3048 12.5644 23.5238C12.5644 22.7429 12.7477 21.9952 13.112 21.3524C13.4763 20.7071 13.9977 20.2 14.6739 19.831C15.3501 19.4619 16.1335 19.2762 17.0215 19.2762C17.9096 19.2762 18.6049 19.4619 19.2335 19.831C19.862 20.2 20.3406 20.7 20.6692 21.3286C20.9977 21.9571 21.1596 22.6571 21.1596 23.4286V23.731H13.4525V22.731H20.5573L19.9073 23.0952C19.8644 22.5881 19.7263 22.119 19.4954 21.6929C19.2644 21.2667 18.9382 20.9214 18.5192 20.6619C18.1025 20.4024 17.5977 20.2738 17.0049 20.2738C16.3501 20.2738 15.7882 20.4167 15.3239 20.7024C14.8596 20.9881 14.5049 21.3667 14.262 21.8357C14.0192 22.3071 13.8977 22.8333 13.8977 23.4143V23.5405C13.8977 24.1643 14.0358 24.7143 14.3096 25.1905C14.5835 25.6667 14.9882 26.0357 15.5215 26.3C16.0549 26.5643 16.693 26.6976 17.4335 26.6976C18.1739 26.6976 18.8715 26.5524 19.4954 26.2619C20.1192 25.9714 20.6525 25.5786 21.0977 25.081L20.7811 26.7452C20.412 27.0524 19.9239 27.3024 19.3215 27.4976L19.3192 27.4952Z" fill="#111111"/>
<path d="M26.9763 19.4643L29.7192 26.1714L32.4477 19.4643H33.8596L30.4192 27.6H28.9763L25.5501 19.4643H26.9763Z" fill="#111111"/>
<path d="M41.4549 27.4952C40.8525 27.6905 40.1977 27.7881 39.4882 27.7881C38.4835 27.7881 37.6216 27.5976 36.9025 27.2167C36.1835 26.8357 35.6358 26.3214 35.262 25.6714C34.8858 25.0214 34.7001 24.3048 34.7001 23.5238C34.7001 22.7429 34.8835 21.9952 35.2477 21.3524C35.612 20.7071 36.1335 20.2 36.8096 19.831C37.4858 19.4619 38.2692 19.2762 39.1573 19.2762C40.0454 19.2762 40.7406 19.4619 41.3692 19.831C41.9977 20.2 42.4763 20.7 42.8049 21.3286C43.1335 21.9571 43.2954 22.6571 43.2954 23.4286V23.731H35.5882V22.731H42.693L42.043 23.0952C42.0001 22.5881 41.862 22.119 41.6311 21.6929C41.4001 21.2667 41.0739 20.9214 40.6549 20.6619C40.2382 20.4024 39.7335 20.2738 39.1406 20.2738C38.4858 20.2738 37.9239 20.4167 37.4596 20.7024C36.9954 20.9881 36.6406 21.3667 36.3977 21.8357C36.1549 22.3071 36.0335 22.8333 36.0335 23.4143V23.5405C36.0335 24.1643 36.1715 24.7143 36.4454 25.1905C36.7192 25.6667 37.1239 26.0357 37.6573 26.3C38.1906 26.5643 38.8287 26.6976 39.5692 26.6976C40.3096 26.6976 41.0073 26.5524 41.6311 26.2619C42.2549 25.9714 42.7882 25.5786 43.2335 25.081L42.9168 26.7452C42.5477 27.0524 42.0596 27.3024 41.4573 27.4976L41.4549 27.4952Z" fill="#111111"/>
<path d="M46.6549 19.4643V21.3048C46.9287 20.681 47.3311 20.1857 47.8596 19.8214C48.3882 19.4571 49.0382 19.2738 49.8096 19.2738C50.7811 19.2738 51.5382 19.5571 52.0763 20.1214C52.6144 20.6881 52.8858 21.45 52.8858 22.4119V27.5976H51.5549V22.65C51.5549 21.9429 51.3644 21.3929 50.9835 21C50.6025 20.6095 50.0525 20.4143 49.3335 20.4143C48.7954 20.4143 48.2977 20.5476 47.843 20.8119C47.3882 21.0762 46.9906 21.4357 46.6525 21.8905V27.6H45.3216V19.4643H46.6549Z" fill="#111111"/>
<path d="M55.3692 21.3524C55.7025 20.7071 56.1739 20.2 56.7882 19.831C57.4001 19.4619 58.1192 19.2762 58.9454 19.2762C59.7715 19.2762 60.4287 19.4738 61.0144 19.8714C61.6001 20.269 62.0215 20.7786 62.2739 21.4024V16.0262L63.6049 15.7714V27.6H62.2739V25.65C62.0096 26.2833 61.5858 26.8 61.0049 27.1952C60.4239 27.5905 59.7358 27.7905 58.943 27.7905C58.1501 27.7905 57.4001 27.6024 56.7858 27.2286C56.1716 26.8524 55.7001 26.3429 55.3668 25.6976C55.0335 25.0524 54.8668 24.3286 54.8668 23.5262C54.8668 22.7238 55.0335 21.9976 55.3668 21.3548L55.3692 21.3524ZM56.5501 25.0929C56.7835 25.569 57.1287 25.95 57.5882 26.2333C58.0477 26.5167 58.6001 26.6619 59.2454 26.6619C59.8906 26.6619 60.4382 26.5119 60.9501 26.2095C61.462 25.9071 61.9049 25.4714 62.2739 24.9V22.1571C61.9049 21.5857 61.462 21.15 60.9501 20.85C60.4382 20.5476 59.8692 20.3976 59.2454 20.3976C58.6216 20.3976 58.0477 20.5405 57.5882 20.8262C57.1287 21.1119 56.7811 21.4905 56.5501 21.9595C56.3168 22.431 56.2001 22.95 56.2001 23.5214C56.2001 24.0929 56.3168 24.6167 56.5501 25.0905V25.0929Z" fill="#111111"/>
<path d="M66.2001 24.2286C66.4263 23.9071 66.7549 23.6405 67.1835 23.4286C67.612 23.2167 68.143 23.0381 68.7763 22.8905L72.0596 22.1619V22.0667C72.0596 21.5167 71.9097 21.1 71.6073 20.8143C71.3049 20.5286 70.8001 20.3857 70.093 20.3857C69.4692 20.3857 68.8477 20.5214 68.2287 20.7905C67.6097 21.0595 67.0739 21.4262 66.6192 21.8929L66.8263 20.419C67.2382 20.05 67.7382 19.7667 68.3239 19.5714C68.9097 19.3762 69.5525 19.2786 70.2501 19.2786C71.2858 19.2786 72.0692 19.5095 72.5977 19.969C73.1263 20.4286 73.3906 21.1143 73.3906 22.0214V27.6024H72.0596V25.7952C71.7525 26.3143 71.2763 26.7762 70.6335 27.1833C69.9882 27.5905 69.2644 27.7929 68.462 27.7929C67.6597 27.7929 66.9835 27.5786 66.5358 27.15C66.0858 26.7214 65.862 26.1333 65.862 25.381C65.862 24.9381 65.9763 24.5548 66.2025 24.231L66.2001 24.2286ZM67.6096 26.3857C67.8906 26.6333 68.3096 26.7571 68.8692 26.7571C69.493 26.7571 70.0882 26.6024 70.6525 26.2905C71.2192 25.9786 71.6858 25.5786 72.0549 25.0929V22.9357L69.0573 23.7452C68.4335 23.9048 67.9668 24.1119 67.6549 24.3714C67.343 24.631 67.1882 24.95 67.1882 25.331C67.1882 25.7857 67.3287 26.1381 67.6073 26.3857H67.6096Z" fill="#111111"/>
<path d="M77.1882 26.4024C77.8168 26.619 78.4644 26.7286 79.1311 26.7286C79.8501 26.7286 80.4216 26.6 80.843 26.3405C81.2668 26.081 81.4763 25.7095 81.4763 25.2214C81.4763 24.9048 81.3573 24.6429 81.1192 24.4357C80.8811 24.2286 80.5406 24.0952 80.0954 24.031L77.812 23.6833C77.0406 23.5667 76.4573 23.3381 76.0597 22.9929C75.662 22.65 75.4644 22.1881 75.4644 21.6048C75.4644 20.8643 75.7811 20.2905 76.4168 19.8833C77.0501 19.4762 77.9073 19.2738 78.9858 19.2738C79.5882 19.2738 80.143 19.3357 80.6501 19.4571C81.1573 19.5786 81.5644 19.75 81.8716 19.9738L82.1096 21.3857C81.7192 21.069 81.2644 20.8119 80.7454 20.6167C80.2263 20.4214 79.6501 20.3238 79.0168 20.3238C78.2977 20.3238 77.7382 20.4262 77.3358 20.6333C76.9335 20.8405 76.7335 21.1429 76.7335 21.5452C76.7335 21.8405 76.8382 22.0643 77.0501 22.2119C77.262 22.3595 77.5954 22.4667 78.0501 22.5286L80.2215 22.8452C81.0454 22.9619 81.6716 23.2095 82.1001 23.5905C82.5287 23.9714 82.743 24.4833 82.743 25.1286C82.743 25.9643 82.4049 26.6167 81.7287 27.0881C81.0525 27.5595 80.1811 27.7929 79.112 27.7929C77.7596 27.7929 76.6168 27.4976 75.6858 26.9048L75.4311 25.4786C75.9692 25.881 76.5549 26.1905 77.1835 26.4071L77.1882 26.4024Z" fill="#111111"/>
</svg>
