<svg width="193" height="32" viewBox="0 0 193 32" fill="none" xmlns="http://www.w3.org/2000/svg">
<path d="M6.39061 13.0319C4.07547 13.0319 2.57393 11.3635 2.57393 9.36148C2.57393 7.35942 4.11049 5.70958 6.41121 5.70958C7.81389 5.70958 8.87671 6.22451 9.7212 7.10814V5.49743C9.01471 4.79094 7.85508 4.39135 6.17022 4.39135C3.14859 4.39135 1.01677 6.54171 1.01677 9.35942C1.01677 12.1751 3.14859 14.344 6.18876 14.344C7.76033 14.344 9.06208 13.93 9.8798 13.2235V11.6272C8.95498 12.5582 7.74797 13.0319 6.39061 13.0319Z" fill="#AE0025"/>
<path d="M16.3185 4.39341C13.1877 4.39341 11.1301 6.50669 11.1301 9.36148C11.1301 12.2163 13.1877 14.346 16.3185 14.346C19.4514 14.346 21.4905 12.2163 21.4905 9.36148C21.4905 6.50463 19.4514 4.39341 16.3185 4.39341ZM16.3185 13.0319C14.0755 13.0319 12.6852 11.3821 12.6852 9.36148C12.6852 7.35942 14.0755 5.70958 16.3185 5.70958C18.5616 5.70958 19.9519 7.35942 19.9519 9.36148C19.9519 11.3821 18.5616 13.0319 16.3185 13.0319Z" fill="#AE0025"/>
<path d="M28.5986 4.39341C26.6893 4.39341 25.5029 5.42945 24.9076 6.76416V4.61586H23.3525V14.1236H24.9076V7.45005C25.6697 6.42842 26.7634 5.72606 28.0405 5.72606C29.7459 5.72606 30.6357 6.69001 30.6357 8.33986V14.1236H32.1929V8.06385C32.1929 5.8208 30.9138 4.39341 28.5986 4.39341Z" fill="#AE0025"/>
<path d="M39.5235 8.56437L36.9838 8.19361C35.9642 8.06385 35.4473 7.74665 35.4473 7.04428C35.4473 6.09681 36.4668 5.61689 38.1167 5.61689C39.6924 5.61689 40.8952 6.17096 41.7294 6.85891V5.33471C41.0065 4.79506 39.4884 4.39135 38.0796 4.39135C35.577 4.39135 33.9642 5.37384 33.9642 7.11638C33.9642 8.4861 34.9117 9.26468 36.7078 9.5448L39.3772 9.95263C40.4339 10.0989 40.9921 10.6014 40.9921 11.3409C40.9921 12.5088 39.8777 13.104 38.2485 13.104C36.6728 13.104 35.1712 12.5644 33.9292 11.6395V13.1679C34.8767 13.7611 36.4854 14.346 38.2279 14.346C40.6378 14.346 42.473 13.2338 42.473 11.2338C42.4689 9.7137 41.4493 8.84037 39.5235 8.56437Z" fill="#AE0025"/>
<path d="M51.4102 4.61586V11.3059C50.6707 12.3069 49.6141 13.0093 48.335 13.0093C46.611 13.0093 45.7583 12.0288 45.7583 10.414V4.61586H44.2011V10.6756C44.2011 12.9001 45.4246 14.346 47.7974 14.346C49.6676 14.346 50.819 13.2915 51.4102 11.9753V14.1256H52.9673V4.61586H51.4102Z" fill="#AE0025"/>
<path d="M67.1692 5.95057V4.61586H63.1095V1.44593L61.5523 1.75901V4.61586H59.161V5.95057H61.5523V10.9372C61.5523 13.0319 62.5904 14.309 64.7964 14.309C65.6635 14.309 66.4174 14.1256 66.8293 13.8867V12.5314C66.3618 12.7806 65.7706 12.9578 65.0559 12.9578C63.7027 12.9578 63.1095 12.1977 63.1095 10.8424V5.95057H67.1692Z" fill="#AE0025"/>
<path d="M73.2557 4.39341C70.1228 4.39341 68.0652 6.50669 68.0652 9.36148C68.0652 12.2163 70.1228 14.346 73.2557 14.346C76.3865 14.346 78.4277 12.2163 78.4277 9.36148C78.4277 6.50463 76.3865 4.39341 73.2557 4.39341ZM73.2557 13.0319C71.0126 13.0319 69.6223 11.3821 69.6223 9.36148C69.6223 7.35942 71.0126 5.70958 73.2557 5.70958C75.4987 5.70958 76.887 7.35942 76.887 9.36148C76.887 11.3821 75.4987 13.0319 73.2557 13.0319Z" fill="#AE0025"/>
<path d="M81.8448 8.33986V4.61586H80.2876V14.1236H81.8448V9.02781C82.9509 7.6725 84.6604 6.81977 86.0405 6.21627V4.4346C84.4854 5.15963 82.6954 6.38105 81.8448 8.33986Z" fill="#AE0025"/>
<path d="M87.7645 4.61586V14.1236H89.3216V4.61586H87.7645Z" fill="#AE0025"/>
<path d="M96.5039 4.39341C94.8602 4.39341 93.474 4.87333 92.508 5.72194V7.207C93.5482 6.24511 94.9653 5.69104 96.3185 5.69104C98.0425 5.69104 98.6172 6.45108 98.6172 7.65396V7.76519L94.7799 8.61998C92.6295 9.0999 91.369 9.93409 91.369 11.5304C91.369 13.2523 92.4236 14.346 94.4071 14.346C96.4462 14.346 98.0034 13.0505 98.6151 12.0103V14.1256H100.17V7.59835C100.172 5.45005 98.8952 4.39341 96.5039 4.39341ZM98.6172 11.1967C97.8201 12.2698 96.4112 13.1432 94.8911 13.1432C93.5564 13.1432 92.9261 12.5129 92.9261 11.4748C92.9261 10.5479 93.7233 9.99176 95.1156 9.62101L98.6192 8.67353V11.1967H98.6172Z" fill="#AE0025"/>
<path d="M58.8726 12.9104V14.2781C58.6316 14.3234 58.3577 14.346 58.0405 14.346C56.9385 14.346 56.2773 14.0268 55.8942 13.4459C55.5111 12.8671 55.4019 12.0227 55.4019 10.9763V0.593203L56.9591 0.298661V10.8795H56.9612C56.9612 12.2348 56.9467 12.9557 58.3 12.9557C58.5163 12.9557 58.7037 12.9372 58.8726 12.9104Z" fill="#AE0025"/>
<path d="M89.1671 3.41916H88.024L88.854 0.797116H90.7737L89.1671 3.41916Z" fill="#AE0025"/>
<path d="M19.3072 17.8229V24.105C18.7511 22.7147 17.3607 21.621 15.4143 21.621C12.4503 21.621 10.6501 23.7899 10.6501 26.5891C10.6501 29.3862 12.4483 31.5757 15.4143 31.5757C17.3793 31.5757 18.7325 30.4614 19.3072 29.0731V31.3532H20.8643V17.5263L19.3072 17.8229ZM19.3072 28.2019C18.4545 29.518 17.231 30.2595 15.7686 30.2595C13.4122 30.2595 12.2094 28.5355 12.2094 26.5891C12.2094 24.6612 13.4122 22.9372 15.7686 22.9372C17.2495 22.9372 18.4565 23.6787 19.3072 24.9949V28.2019Z" fill="#AE0025"/>
<path d="M32.7717 26.4779C32.7717 23.829 31.0106 21.6231 27.9333 21.6231C24.7263 21.6231 22.7243 23.7734 22.7243 26.5911C22.7243 29.3347 24.7078 31.5778 28.3226 31.5778C30.0631 31.5778 31.5255 31.0237 32.3247 30.3584V28.7909C31.3443 29.7075 30.0034 30.2987 28.4174 30.2987C25.8592 30.2987 24.3927 28.8898 24.2835 26.8342H32.7737V26.4779H32.7717ZM24.3556 25.6643C24.6501 24.0494 25.8757 22.7909 27.9148 22.7909C29.8777 22.7909 30.9715 24.1071 31.2516 25.6643H24.3556Z" fill="#AE0025"/>
<path d="M43.128 21.621C41.2001 21.621 39.8098 22.7147 39.2351 24.105V17.5242L37.68 17.8208V31.3512H39.2351V29.0711C39.8283 30.4593 41.1836 31.5736 43.128 31.5736C46.094 31.5736 47.8922 29.3841 47.8922 26.587C47.8901 23.7899 46.094 21.621 43.128 21.621ZM42.7943 30.2595C41.3113 30.2595 40.1064 29.518 39.2351 28.2019V24.9969C40.1064 23.6807 41.3113 22.9392 42.7758 22.9392C45.1465 22.9392 46.335 24.6632 46.335 26.5911C46.335 28.5355 45.1486 30.2595 42.7943 30.2595Z" fill="#AE0025"/>
<path d="M83.3649 30.0742L89.8901 23.0484V21.8455H81.6594V23.1246H87.9807L81.4576 30.1318V31.3553H89.9642V30.0762H83.3649V30.0742Z" fill="#AE0025"/>
<path d="M59.2619 26.4779C59.2619 23.829 57.5008 21.6231 54.4236 21.6231C51.2166 21.6231 49.2145 23.7734 49.2145 26.5911C49.2145 29.3347 51.198 31.5778 54.8129 31.5778C56.5533 31.5778 58.0157 31.0237 58.8149 30.3584V28.7909C57.8345 29.7075 56.4936 30.2987 54.9076 30.2987C52.3494 30.2987 50.8829 28.8898 50.7737 26.8342H59.2639V26.4779H59.2619ZM50.8458 25.6643C51.1404 24.0494 52.3659 22.7909 54.405 22.7909C56.368 22.7909 57.4617 24.1071 57.7418 25.6643H50.8458Z" fill="#AE0025"/>
<path d="M80.0219 26.4779C80.0219 23.829 78.2608 21.6231 75.1836 21.6231C71.9766 21.6231 69.9745 23.7734 69.9745 26.5911C69.9745 29.3347 71.9581 31.5778 75.5729 31.5778C77.3134 31.5778 78.7758 31.0237 79.575 30.3584V28.7909C78.5945 29.7075 77.2536 30.2987 75.6676 30.2987C73.1095 30.2987 71.6429 28.8898 71.5338 26.8342H80.024V26.4779H80.0219ZM71.6059 25.6643C71.9004 24.0494 73.1259 22.7909 75.1651 22.7909C77.128 22.7909 78.2217 24.1071 78.5018 25.6643H71.6059Z" fill="#AE0025"/>
<path d="M96.4854 21.6231C94.8417 21.6231 93.4555 22.103 92.4895 22.9516V24.4367C93.5296 23.4748 94.9467 22.9207 96.3 22.9207C98.024 22.9207 98.5986 23.6807 98.5986 24.8836V24.9949L94.7614 25.8496C92.611 26.3296 91.3504 27.1637 91.3504 28.76C91.3504 30.482 92.405 31.5757 94.3885 31.5757C96.4277 31.5757 97.9848 30.2801 98.5966 29.24V31.3553H100.152V24.828C100.154 22.6797 98.8767 21.6231 96.4854 21.6231ZM98.5986 28.4264C97.8015 29.4995 96.3927 30.3728 94.8726 30.3728C93.5379 30.3728 92.9076 29.7425 92.9076 28.7044C92.9076 27.7775 93.7047 27.2214 95.0971 26.8507L98.6007 25.9032V28.4264H98.5986Z" fill="#AE0025"/>
<path d="M69.2454 30.0844V31.5077C69.0044 31.553 68.7305 31.5757 68.4133 31.5757C67.3113 31.5757 66.6501 31.2564 66.267 30.6756C65.8839 30.0968 65.7747 29.2523 65.7747 28.206V17.8229L67.3319 17.5283V28.1092H67.334C67.334 29.4645 67.3195 30.1298 68.6728 30.1298C68.8891 30.1277 69.0765 30.1112 69.2454 30.0844Z" fill="#AE0025"/>
<path d="M64.5101 30.0844V31.5077C64.2691 31.553 63.9951 31.5757 63.6779 31.5757C62.576 31.5757 61.9148 31.2564 61.5317 30.6756C61.1486 30.0968 61.0394 29.2523 61.0394 28.206V17.8229L62.5966 17.5283V28.1092H62.5986C62.5986 29.4645 62.5842 30.1298 63.9375 30.1298C64.1537 30.1277 64.3412 30.1112 64.5101 30.0844Z" fill="#AE0025"/>
<path d="M170.903 24.966L170.234 26.4902C170.376 26.4779 170.504 26.4717 170.623 26.4717C170.868 26.4717 171.083 26.4943 171.258 26.5417C171.437 26.5891 171.585 26.655 171.705 26.7394L170.903 24.966ZM182.306 25.4027C182.234 25.2194 182.131 25.0608 181.995 24.9248C181.865 24.793 181.715 24.69 181.53 24.6097C181.357 24.5335 181.159 24.4943 180.943 24.4943C180.722 24.4943 180.522 24.5355 180.349 24.6097C180.164 24.688 180.014 24.793 179.884 24.9248C179.754 25.0546 179.651 25.2132 179.573 25.4068C179.497 25.5963 179.46 25.8002 179.46 26.0144C179.46 26.2307 179.497 26.4387 179.573 26.6344C179.649 26.8301 179.752 26.9887 179.884 27.1246C180.016 27.2606 180.172 27.3677 180.349 27.4418C180.522 27.518 180.724 27.5572 180.943 27.5572C181.159 27.5572 181.357 27.516 181.53 27.4418C181.705 27.3656 181.863 27.2585 181.995 27.1246C182.131 26.9866 182.238 26.8218 182.306 26.6365C182.382 26.447 182.419 26.2369 182.419 26.0144C182.417 25.7981 182.38 25.5942 182.306 25.4027ZM182.306 25.4027C182.234 25.2194 182.131 25.0608 181.995 24.9248C181.865 24.793 181.715 24.69 181.53 24.6097C181.357 24.5335 181.159 24.4943 180.943 24.4943C180.722 24.4943 180.522 24.5355 180.349 24.6097C180.164 24.688 180.014 24.793 179.884 24.9248C179.754 25.0546 179.651 25.2132 179.573 25.4068C179.497 25.5963 179.46 25.8002 179.46 26.0144C179.46 26.2307 179.497 26.4387 179.573 26.6344C179.649 26.8301 179.752 26.9887 179.884 27.1246C180.016 27.2606 180.172 27.3677 180.349 27.4418C180.522 27.518 180.724 27.5572 180.943 27.5572C181.159 27.5572 181.357 27.516 181.53 27.4418C181.705 27.3656 181.863 27.2585 181.995 27.1246C182.131 26.9866 182.238 26.8218 182.306 26.6365C182.382 26.447 182.419 26.2369 182.419 26.0144C182.417 25.7981 182.38 25.5942 182.306 25.4027ZM165.764 4.3378V30.8939H192.316V4.3378H165.764ZM172.372 28.2987C172.263 28.1133 172.148 27.9526 172.022 27.8187C171.896 27.6849 171.762 27.5757 171.614 27.4851C171.464 27.3924 171.299 27.3306 171.12 27.2894C170.941 27.2482 170.741 27.2276 170.527 27.2276C170.424 27.2276 170.321 27.2317 170.211 27.24C170.106 27.2461 169.991 27.2585 169.876 27.2791L169.431 28.2987H168.44L170.555 23.7528H171.241L173.355 28.2987H172.372ZM177.97 23.8146L175.905 28.2945H175.182L175.169 28.2698L173.116 23.7528H174.246L175.563 26.7765L176.883 23.7528H177.995L177.97 23.8146ZM183.258 26.9907C183.128 27.2935 182.953 27.5572 182.733 27.7673C182.512 27.9835 182.244 28.1565 181.937 28.2822C181.626 28.4058 181.291 28.4676 180.941 28.4676C180.586 28.4676 180.249 28.4037 179.942 28.2822C179.631 28.1565 179.363 27.9835 179.142 27.7673C178.922 27.553 178.747 27.2935 178.617 26.9907C178.487 26.6982 178.426 26.3708 178.426 26.0185C178.426 25.6704 178.489 25.345 178.617 25.0505C178.747 24.7477 178.92 24.4964 179.142 24.2781C179.365 24.0639 179.633 23.8908 179.942 23.7652C180.251 23.6457 180.586 23.5819 180.941 23.5819C181.289 23.5819 181.626 23.6457 181.933 23.7652C182.242 23.8908 182.508 24.0639 182.733 24.2781C182.955 24.4985 183.128 24.7497 183.258 25.0505C183.388 25.345 183.449 25.6704 183.449 26.0185C183.449 26.3708 183.388 26.6982 183.258 26.9907ZM188.862 28.2945H188.09L188.073 28.2822L185.75 25.5345V28.2945H184.747V23.7528H185.523L185.536 23.7693L187.859 26.5129V23.7528H188.862V28.2945ZM181.993 24.9248C181.863 24.793 181.713 24.69 181.528 24.6097C181.355 24.5335 181.157 24.4943 180.941 24.4943C180.72 24.4943 180.52 24.5355 180.347 24.6097C180.162 24.688 180.012 24.793 179.882 24.9248C179.752 25.0546 179.649 25.2132 179.571 25.4068C179.495 25.5963 179.458 25.8002 179.458 26.0144C179.458 26.2307 179.495 26.4387 179.571 26.6344C179.647 26.8301 179.75 26.9887 179.882 27.1246C180.014 27.2606 180.17 27.3677 180.347 27.4418C180.52 27.518 180.722 27.5572 180.941 27.5572C181.157 27.5572 181.355 27.516 181.528 27.4418C181.703 27.3656 181.861 27.2585 181.993 27.1246C182.129 26.9866 182.236 26.8218 182.304 26.6365C182.38 26.447 182.417 26.2369 182.417 26.0144C182.417 25.8002 182.38 25.5963 182.304 25.4047C182.232 25.2194 182.129 25.0608 181.993 24.9248Z" fill="#AE0025"/>
<path d="M125.631 24.9928C123.629 24.9928 122.506 26.1936 122.506 28.1442V30.7085H123.867V28.0103C123.867 26.5149 124.401 25.6066 125.631 25.6066C126.78 25.6066 127.313 26.5149 127.313 28.0103V30.7085H128.675V28.1442C128.675 26.1936 127.661 24.9928 125.631 24.9928Z" fill="#AE0025"/>
<path d="M132.949 24.9928C131.32 24.9928 129.824 26.0886 129.824 28.0103C129.824 29.827 131.052 30.8939 132.761 30.8939C133.67 30.8939 134.364 30.5191 134.737 29.8249V30.7065H136.045V28.1689C136.047 26.2204 134.978 24.9928 132.949 24.9928ZM132.949 30.2801C131.748 30.2801 131.186 29.4789 131.186 28.0103C131.186 26.6756 131.746 25.6066 132.949 25.6066C134.15 25.6066 134.685 26.6756 134.685 28.0103C134.685 29.3986 133.962 30.2801 132.949 30.2801Z" fill="#AE0025"/>
<path d="M146.302 27.8764C146.302 29.3718 145.822 30.2801 144.646 30.2801C143.523 30.2801 143.044 29.3718 143.044 27.8764V25.1782H141.682V27.7425C141.682 29.6931 142.644 30.8939 144.646 30.8939C146.597 30.8939 147.664 29.6931 147.664 27.7425V25.1782H146.302V27.8764Z" fill="#AE0025"/>
<path d="M155.703 24.9928C154.073 24.9928 152.578 26.0886 152.578 28.0103C152.578 29.827 153.806 30.8939 155.515 30.8939C156.424 30.8939 157.118 30.5191 157.491 29.8249V30.7065H158.798V28.1689C158.801 26.2204 157.732 24.9928 155.703 24.9928ZM155.703 30.2801C154.502 30.2801 153.94 29.4789 153.94 28.0103C153.94 26.6756 154.5 25.6066 155.703 25.6066C156.906 25.6066 157.439 26.6756 157.439 28.0103C157.439 29.3986 156.718 30.2801 155.703 30.2801Z" fill="#AE0025"/>
<path d="M149.132 27.5551V30.7065H150.494V27.3944C150.494 26.3254 150.735 25.6313 151.828 25.6313C151.962 25.6313 152.123 25.6313 152.281 25.6581V25.0978C151.987 25.0175 151.694 24.9907 151.4 24.9907C150.094 24.9928 149.132 25.7405 149.132 27.5551Z" fill="#AE0025"/>
<path d="M139.946 30.2533C139.278 30.2533 138.877 29.827 138.877 28.517V25.8187H140.667V25.1782H138.877V23.7899H137.515V28.3028C137.515 30.2781 138.584 30.8939 139.732 30.8939C140.292 30.8939 140.8 30.7333 141.173 30.4676C141.039 30.3337 140.932 30.173 140.879 30.0144C140.613 30.173 140.319 30.2533 139.946 30.2533Z" fill="#AE0025"/>
<path d="M145.845 12.0783C145.845 12.8651 145.445 13.8187 145.163 14.3234C145.006 14.6035 144.967 14.6674 144.967 14.7106C144.967 14.7415 144.986 14.7662 145.023 14.7662C145.212 14.7662 146.786 13.5551 147.89 13.5551C148.537 13.5551 149.13 13.8991 149.13 14.7106C149.13 15.5448 148.578 16.8713 146.741 17.8558C146.609 17.9258 146.333 18.0721 146.139 18.1751C145.892 18.3069 145.826 18.3708 145.826 18.4531C145.826 18.6612 146.557 18.5623 146.557 18.9907C146.557 19.2194 146.279 19.5963 145.548 20.0041C144.881 20.3769 143.991 20.6818 142.887 20.6818C142.1 20.6818 141.659 20.5273 141.575 20.5273C141.542 20.5273 141.517 20.5376 141.482 20.5685C141.437 20.6076 140.873 21.0896 139.561 21.0896C138.053 21.0896 136.364 20.4717 136.364 19.897C136.364 19.6169 136.718 19.5386 136.718 19.4789C136.718 19.4542 136.677 19.4459 136.658 19.4418C134.553 18.8733 132.178 17.7528 132.178 16.241C132.178 15.8229 132.473 15.6066 132.899 15.6066C133.639 15.6066 134.663 15.9485 134.885 15.9485C134.939 15.9485 134.959 15.9197 134.959 15.8888C134.959 15.8476 134.926 15.8023 134.862 15.7487C133.513 14.6035 132.951 13.5489 132.951 12.6674C132.951 11.5263 133.775 10.6632 134.868 10.447C136.885 10.0494 138.1 11.7714 139.175 13.1535C139.206 13.1926 139.26 13.2729 139.328 13.2729C139.41 13.2729 139.431 13.1926 139.507 12.8898C139.581 12.587 139.604 12.4923 139.699 12.105C140.014 10.826 140.772 9.20082 142.961 9.20082C144.251 9.19876 145.845 10.0721 145.845 12.0783ZM139.606 14.9537C139.198 14.9537 138.984 14.725 138.568 14.206C138.502 14.1236 138.213 13.7755 138.139 13.6869C137.134 12.4717 136.403 11.9238 135.571 11.9238C135.068 11.9238 134.312 12.206 134.312 13.1658C134.312 13.2915 134.329 13.829 134.85 14.4676C135.515 15.2791 136.477 16.3522 136.564 16.4531C136.654 16.5561 136.702 16.6653 136.7 16.7621C136.7 16.8157 136.683 17.0525 136.281 17.0525C135.89 17.0525 134.176 16.552 133.577 16.552C133.299 16.552 133.12 16.6715 133.12 16.8754C133.12 17.4027 134.148 18.484 137.379 19.2132C137.785 19.3038 137.82 19.4501 137.82 19.4995C137.82 19.689 137.318 19.7755 137.318 20.0968C137.318 20.5664 138.836 20.7745 139.272 20.7745C140.047 20.7745 140.428 20.5479 140.716 20.3481C140.963 20.1792 141.103 20.1133 141.268 20.1133C141.614 20.1133 141.94 20.3296 142.992 20.3296C144.273 20.3296 145.618 19.6601 145.618 19.2976C145.618 19.1555 145.406 19.1184 144.928 18.9619C144.677 18.8795 144.533 18.7765 144.533 18.62C144.533 18.4717 144.654 18.3522 145.017 18.1957C145.404 18.0268 145.68 17.9032 145.966 17.7673C147.523 17.0175 148.127 16.1009 148.131 15.4398C148.133 15.0154 147.89 14.7271 147.493 14.7271C146.969 14.7271 146.395 15.0299 145.834 15.3141C144.786 15.8455 144.405 16.0474 144.038 16.0474C143.779 16.0474 143.657 15.8249 143.655 15.6931C143.655 15.6169 143.668 15.5304 143.701 15.4356C143.837 15.069 143.931 14.8239 144.08 14.4325C144.298 13.8558 144.562 13.1967 144.562 12.5438C144.562 11.5242 143.771 10.8301 142.73 10.8301C141.567 10.8301 141.07 11.9258 140.774 12.7971C140.693 13.036 140.386 13.9629 140.294 14.243C140.133 14.7271 139.917 14.9537 139.606 14.9537Z" fill="#AE0025"/>
<path d="M120.547 1.3656V0H119.676C114.234 0 109.808 4.42636 109.808 9.86612V32H111.173V9.86612C111.173 5.17817 114.986 1.3656 119.674 1.3656H120.547Z" fill="#AE0025"/>
</svg>
