<?xml version="1.0" encoding="UTF-8"?><svg id="Camada_2" xmlns="http://www.w3.org/2000/svg" width="255.22" height="78" viewBox="0 0 255.22 78"><g id="Layer_1"><rect x="88.14" y="10.05" width="3.93" height="67.37"/><g><g><path d="m22.37,77.44l-6.59-13.79h1.79c.81,0,1.56.47,1.9,1.22l3.63,7.7,3.59-7.7c.34-.75,1.09-1.22,1.9-1.22h1.81l-6.59,13.77-1.43.02h0Z"/><path d="m8.24,63.66h-1.47l-6.77,13.77h1.64c.81,0,1.52-.41,2.01-1.22l1.43-2.75c2.52.32,4.76,1.24,6.79,3.97h3.18l-6.81-13.77Zm-.75,4.74l1.79,3.78c-.98-.47-2.03-.81-3.12-1.02,0,0,1.32-2.75,1.32-2.75Z"/><path d="m63.62,63.66c-.81,0-1.45.64-1.45,1.45v7.26l-7.19-8.71h-2.13v13.77h1.32c.81,0,1.45-.64,1.45-1.45v-7.26l5.89,7.17s1.15,1.54,2.84,1.54h.6v-13.77s-1.32,0-1.32,0Z"/><path d="m40.48,75.1c-2.52,0-4.57-2.07-4.52-4.59.04-2.54,2.39-4.63,4.91-4.42,2.3.19,4.14,2.13,4.14,4.5s-2.03,4.5-4.52,4.5m5.19-9.65c-1.37-1.34-3.16-2.05-5.19-2.05s-3.8.7-5.19,2.05c-1.37,1.34-2.13,3.18-2.13,5.14s.75,3.73,2.13,5.1c1.41,1.37,3.2,2.11,5.19,2.11s3.8-.75,5.16-2.09c1.39-1.34,2.16-3.16,2.16-5.1.02-1.98-.75-3.82-2.13-5.16"/></g><g><path d="m7.49,34.49c3.65,0,5.34,2.33,5.34,4.55v4.89h-2.28v-4.89c0-1.41-.79-3.65-3.03-3.65s-3.01,2.24-3.01,3.65-.02,4.89-.02,4.89h-2.3v-4.89c-.02-2.22,1.69-4.55,5.31-4.55"/><path d="m39.18,44.05c-3.67,0-5.34-2.28-5.34-4.5v-4.91h2.3v4.91c0,1.39.79,3.67,3.03,3.67s3.03-2.28,3.03-3.67v-4.91h2.28v4.91c.02,2.22-1.66,4.5-5.31,4.5"/><path d="m22.13,43.23c-.47.38-1.09.68-1.86.77-2.33.38-5.57-1.13-5.7-4.52-.13-3.48,3.29-4.91,5.53-4.87,3.76.11,5.08,2.92,5.08,4.55v4.76h-2.3v-4.72c0-1.05-.45-3.67-2.86-3.73-2.33-.06-3.07,2.11-3.09,3.71,0,1.02.26,3.56,2.9,3.71.81.02,1.98-.19,2.3-.47v.81Z"/><path d="m32.42,45.28c-.3.11-1.13.3-2.11.04-1.09-.28-2.88-.79-2.88-4.48v-10.31h2.35v4.1h2.13v1.41h-2.13s.06,2.92,0,5.23c-.04,2.07.58,2.82,1.05,3.03.58.28,1.49.17,1.6.11v.87Z"/><path d="m46.69,38.73c0-2.3,1.2-3.91,3.27-4.1,1.47-.19,2.01.13,2.01.13v.9s-.79-.19-1.64.04c-.92.32-1.3,1.73-1.3,2.22v6.04h-2.35v-5.23"/><path d="m59.71,43.23c-.49.38-1.11.68-1.88.77-2.33.38-5.55-1.13-5.7-4.52-.11-3.48,3.29-4.93,5.53-4.87,3.76.11,5.08,2.92,5.08,4.55v4.76h-2.3v-4.72c0-1.05-.47-3.67-2.86-3.73-2.33-.06-3.07,2.11-3.07,3.71,0,1.02.19,3.56,2.88,3.71.83.02,1.98-.19,2.28-.47v.81h.04,0Z"/><path d="m38.35,4.14c-3.05-.92-4.93,1.3-5.76,4.16-.73,2.28-.85,2.9-1.26,4.1-.6,1.66-2.01,1.77-3.07.49-1.24-1.52-2.9-3.76-3.82-4.82-1.22-1.41-4.16-2.62-5.63-.77-2.24,2.8.73,5.91,2.3,7.77,1.09,1.34,2.39,2.24,1.98,2.99-.19.28-.49.36-.96.36-1.11-.02-4.72-1-5.57-1.17-.7-.15-1.24-.11-1.43.43-.26.64.66,2.48,3.01,3.69s6.15,1.79,6.51,1.9c1.37.3,1.11.98.77,1.3-.3.34-.68.55-.62.9.21.87,2.07,1.07,3.2,1.24,1.07.19,2.45.3,3.44-.13.96-.38,1.02-.92,1.69-1.15.87-.34,1.17-.06,3.07.32,1.22.23,3.39-.09,4.55-.47,2.2-.73,3.12-1.45,3.12-1.77,0-.28-.38-.38-.79-.41-.47-.09-2.05-.34-2.6-.68-.51-.36-.11-.98.96-1.41,1.13-.45,4.72-1.96,6.06-3.16,1.34-1.2,2.62-3.22,1.52-4.37-1.13-1.17-3.12.02-4.18.51-1.45.7-3.73,1.86-4.52,2.05-.68.17-2.01.13-1.39-1.45.75-1.94,1.11-3.14,1.58-4.31.55-1.45,1.37-5.04-2.13-6.12m13.34,9.67c-.98,4.14-5.83,6.57-6.3,6.85-.49.23-1.09.49-1.3.64-.09.06-.15.11.02.17.51.15,2.24.04,2.2.77,0,.79-1.3,2.07-4.61,3.48-3.61,1.56-6.64.83-7.38.66l-.06.02c-.19.21-1.88,1.84-6.66,1-3.41-.6-4.27-.94-5.08-1.84-.21-.28-.36-.75-.04-1.34.04-.15.06-.23-.02-.26-5.21-1.07-8.34-4.33-9.5-6.4-.58-1.05-.38-1.75-.09-2.18.41-.62,1.79-.66,3.22-.32,1.58.43,2.48.64,2.82.73.11.04.13,0,.06-.09-.41-.49-1.81-2.26-2.54-3.39-1.17-1.86-2.69-6.83,1.2-8.9,4.33-2.26,8.13,1.73,8.96,2.75.75.9,2.24,2.9,2.35,3.09.19.32.28.06.28.06,0,0,1-3.67,1.9-5.36,1.56-2.99,4.78-4.37,7.58-3.86,5.34,1,5.53,6.38,5.1,8.34-.38,1.71-1.09,3.54-1.3,4.01-.04.09,0,.11.06.06.41-.19,2.3-1.11,4.33-1.98,2.03-.9,5.76-.87,4.8,3.27"/></g></g><g><g><g><path d="m123.03,20.93c-.55.3-1.39.41-2.07.41-3.33,0-5.8-2.45-5.8-5.72s2.5-5.72,5.83-5.72c.68,0,1.52.13,2.07.38v2.41c-.55-.28-1.17-.41-1.92-.41-1.94,0-3.39,1.37-3.39,3.35s1.45,3.33,3.39,3.33c.75,0,1.37-.13,1.92-.38l-.02,2.35h0Z"/><path d="m124.91,15.62c0-3.27,2.45-5.72,5.76-5.72s5.8,2.45,5.8,5.72-2.43,5.74-5.8,5.74-5.76-2.5-5.76-5.74Zm9.01,0c0-1.94-1.34-3.37-3.22-3.37s-3.2,1.45-3.2,3.37,1.32,3.37,3.2,3.37c1.88-.02,3.22-1.47,3.22-3.37Z"/><path d="m149.11,10.05v11.14h-.28l-7.38-6.3v6.21h-2.52v-11.14h.28l7.38,6.25v-6.17s2.52,0,2.52,0Z"/><path d="m151.8,20.68v-2.24c.49.36,1.26.75,2.24.75,1.37,0,1.98-.68,1.98-1.37,0-.55-.32-1.02-1.13-1.43l-1.11-.55c-1.22-.62-2.01-1.45-2.01-2.75,0-1.84,1.64-3.18,4.2-3.18.96,0,1.69.17,2.07.41v2.24c-.41-.26-1.09-.49-1.81-.49-1.13,0-1.79.45-1.79,1.13,0,.45.28.77.96,1.09l1.07.53c1.45.7,2.11,1.69,2.11,3.03,0,1.92-1.37,3.54-4.29,3.54-1-.02-1.92-.32-2.5-.7Z"/><path d="m160.87,16.39v-6.34h2.58v6.36c0,1.54.92,2.58,2.45,2.58s2.45-1.05,2.45-2.58v-6.36h2.58v6.34c0,3.03-1.98,4.95-5.04,4.95-3.01.02-5.04-1.9-5.04-4.95Z"/><path d="m179.76,18.86v2.24h-5.85v-11.05h2.58v8.81h3.27Z"/><path d="m182.55,12.29h-2.45v-2.24h7.49v2.24h-2.45v8.81h-2.58v-8.81Z"/><path d="m188.53,15.62c0-3.27,2.45-5.72,5.76-5.72s5.8,2.45,5.8,5.72-2.43,5.74-5.8,5.74-5.76-2.5-5.76-5.74Zm8.98,0c0-1.94-1.34-3.37-3.22-3.37s-3.2,1.45-3.2,3.37,1.32,3.37,3.2,3.37c1.88-.02,3.22-1.47,3.22-3.37Z"/><path d="m209.06,21.1l-1.71-3.18c-.26.02-.51.02-.79.02-.53,0-.98-.04-1.41-.13v3.27h-2.6v-11.03h4.55c2.88,0,4.57,1.41,4.57,3.8,0,1.58-.68,2.73-1.88,3.39l2.11,3.88h-2.84v-.02h0Zm-.06-7.13c0-1.02-.6-1.66-2.18-1.66h-1.69v3.44c.41.06.83.11,1.32.11,1.75,0,2.54-.66,2.54-1.88Z"/><path d="m214.07,10.05h2.56v11.05h-2.56v-11.05Z"/><path d="m226.26,19.4h-3.91l-.68,1.73h-2.8l5.29-11.05h.3l5.29,11.05h-2.8l-.7-1.73h0Zm-1.96-4.97l-1.22,3.07h2.45l-1.24-3.07Z"/></g><path d="m245.77,15.6c0,3.44-2.52,5.85-6.47,5.85-1.49,0-2.95-.26-3.61-.51v-10.88h3.93c3.71,0,6.15,2.37,6.15,5.55Zm-2.62.06c0-1.81-1.26-3.33-3.48-3.33h-1.47v6.7c.47.06.98.11,1.45.11,2.3,0,3.5-1.52,3.5-3.48Z"/><path d="m255.22,18.86v2.24h-7.49v-11.05h7.38v2.24h-4.95v2.01h4.72v2.09h-4.72v2.48h5.06Z"/></g><polygon points="213.75 9.28 213.75 7.83 217.38 7.06 217.38 8.62 213.75 9.28"/></g><path d="m150.52,32.14c-3.09,0-5.59.9-7.43,2.69-1.86,1.79-2.77,4.48-2.77,8.07v24.35c0,3.65.87,6.34,2.6,8.11,1.73,1.77,4.14,2.65,7.26,2.65s5.48-.96,7.34-2.86,2.77-4.7,2.77-8.32v-3.5h-6.45v4.12c0,1.66-.3,3.01-.9,3.99s-1.52,1.47-2.77,1.47-2.07-.36-2.65-1.11-.85-1.9-.85-3.46v-.28c0-1.43.06-2.56.17-3.39.13-.83.43-1.64.9-2.41.47-.77,1.22-1.56,2.24-2.33l4.29-3.39c2.16-1.66,3.76-3.46,4.84-5.34,1.07-1.88,1.62-4.01,1.62-6.4v-1.88c0-3.69-.85-6.42-2.56-8.15-1.71-1.75-4.27-2.62-7.66-2.62h0Zm3.5,12.72c0,1.79-.28,3.33-.81,4.61s-1.52,2.56-2.95,3.8l-2.95,2.5c-.13.11-.26.21-.36.32v-14.13c0-1.56.32-2.73.94-3.54s1.52-1.22,2.65-1.22,2.01.41,2.6,1.22.9,1.98.9,3.54v2.9h-.02Z"/><path d="m171.05,70.1v-37.35h-6.62v37.6c0,2.45.6,4.33,1.79,5.63,1.2,1.32,2.9,1.96,5.1,1.96,1.3,0,2.48-.23,3.5-.73v-4.29h-1.34c-1.62.02-2.43-.92-2.43-2.84h0Z"/><path d="m183.51,70.1v-37.35h-6.62v37.6c0,2.45.6,4.33,1.79,5.63,1.2,1.32,2.9,1.96,5.1,1.96,1.3,0,2.48-.23,3.5-.73v-4.29h-1.34c-1.62.02-2.43-.92-2.43-2.84h0Z"/><path d="m199.63,32.14c-3.09,0-5.59.9-7.43,2.69-1.86,1.79-2.77,4.48-2.77,8.07v24.35c0,3.65.87,6.34,2.6,8.11s4.14,2.65,7.26,2.65,5.48-.96,7.34-2.86,2.77-4.7,2.77-8.32v-3.5h-6.47v4.12c0,1.66-.3,3.01-.9,3.99s-1.52,1.47-2.77,1.47-2.07-.36-2.65-1.11-.85-1.9-.85-3.46v-.28c0-1.43.06-2.56.17-3.39.13-.83.43-1.64.9-2.41.47-.77,1.22-1.56,2.24-2.33l4.29-3.39c2.16-1.66,3.76-3.46,4.84-5.34,1.07-1.88,1.62-4.01,1.62-6.4v-1.88c0-3.69-.85-6.42-2.56-8.15-1.69-1.75-4.23-2.62-7.64-2.62Zm3.5,12.72c0,1.79-.28,3.33-.81,4.61s-1.52,2.56-2.95,3.8l-2.95,2.5c-.13.11-.26.21-.36.32v-14.13c0-1.56.32-2.73.94-3.54s1.52-1.22,2.65-1.22,2.01.41,2.6,1.22.9,1.98.9,3.54l-.02,2.9h0Z"/><path d="m219.37,70.81c0-1.3.21-2.6.62-3.84.43-1.26,1.13-2.86,2.16-4.82l6.89-12.89c1.02-1.9,1.71-3.8,2.05-5.68.36-1.88.53-4.16.53-6.85v-3.95h-18.35v5.38h11.99v1.43c0,1.26-.19,2.41-.58,3.5-.38,1.07-1.07,2.6-2.01,4.57l-.36.62-6.72,12.8c-1.02,1.92-1.71,3.84-2.11,5.78-.38,1.94-.58,4.25-.58,6.94v3.67h18.89v-5.38h-12.42v-1.28h0Z"/><path d="m130.86,51.84c1.69-1.52,2.86-2.92,3.54-4.23.81-1.52,1.22-3.09,1.22-4.72v-1.17c0-2.75-1-4.93-3.01-6.55-2.01-1.62-4.65-2.41-7.94-2.41h-9.41v44.67h10.59c3.29-.06,5.91-1.09,7.85-3.09s2.92-4.72,2.92-8.11v-2.24c0-2.62-.68-5.12-2.03-7.45-1.05-1.77-2.28-3.35-3.73-4.7Zm-6.72-13.96c1.43,0,2.62.43,3.54,1.3s1.39,2.03,1.39,3.46v.81c0,1.43-.26,2.65-.77,3.63-.51.98-1.52,2.13-3.01,3.46l-3.22,2.86c-.15.13-.3.28-.45.43v-15.94h2.52,0Zm5.74,28.7c0,1.73-.49,3.12-1.47,4.16-.98,1.05-2.33,1.58-3.99,1.58h-2.77v-7.98c0-2.09.28-3.61.81-4.57s1.71-2.22,3.5-3.78l.81-.68c1.05,1.05,1.79,2.09,2.24,3.16.6,1.47.9,3.56.9,6.32l-.02,1.79h0Z"/><path d="m252.66,34.78c-1.71-1.75-4.1-2.65-7.21-2.65s-5.57.96-7.38,2.86c-1.81,1.92-2.73,4.7-2.73,8.32v3.5h6.36v-4.12c0-1.66.3-3.01.9-3.99.6-.98,1.56-1.47,2.86-1.47,1.2,0,2.05.38,2.6,1.11.53.75.81,1.9.81,3.46v.28c0,1.43-.06,2.56-.17,3.39-.13.83-.43,1.64-.9,2.41s-1.2,1.56-2.16,2.33l-4.29,3.39c-2.16,1.66-3.76,3.46-4.84,5.34-1.07,1.88-1.62,4.01-1.62,6.4v1.88c0,3.69.85,6.42,2.56,8.15s4.23,2.6,7.58,2.6c3.16,0,5.66-.9,7.47-2.69s2.73-4.48,2.73-8.07v-24.33c0-3.65-.85-6.36-2.56-8.11h0Zm-4.93,36.9c-.62.81-1.54,1.22-2.73,1.22-1.13,0-1.98-.41-2.56-1.22-.58-.81-.85-1.98-.85-3.54v-2.86c0-1.79.26-3.33.77-4.61s1.47-2.56,2.9-3.8l3.05-2.5c.13-.13.23-.23.36-.38v14.17c0,1.54-.3,2.71-.94,3.52h0Z"/></g></svg>