<?xml version="1.0" encoding="UTF-8"?><svg id="Camada_2" xmlns="http://www.w3.org/2000/svg" width="255.17" height="78" viewBox="0 0 255.17 78"><g id="Camada_2-2"><g id="Layer_1"><g><g><rect x="88.12" y="54.99" width="3.92" height="22.46" style="fill:#e5004b;"/><rect x="88.12" y="32.54" width="3.92" height="22.46" style="fill:#d1020a;"/><rect x="88.12" y="10.08" width="3.92" height="22.46" style="fill:#eb6619;"/></g><g><g><path fill="#000000" d="m22.36,77.45l-6.58-13.76h1.79c.82,0,1.56.47,1.91,1.21l3.62,7.71,3.59-7.71c.35-.74,1.09-1.22,1.91-1.22h1.8l-6.58,13.76h-1.45Z"/><path fill="#000000" d="m8.24,63.68h-1.48l-6.76,13.77h1.64c.82,0,1.52-.41,2.01-1.21l1.42-2.75c2.52.31,4.76,1.24,6.78,3.96h3.17l-6.77-13.76h0Zm-.73,4.73l1.79,3.78c-.99-.47-2.03-.81-3.11-1.02l1.31-2.77h0Z"/><path fill="#000000" d="m63.6,63.68c-.8,0-1.45.65-1.45,1.45v7.26s-7.18-8.71-7.18-8.71h-2.13v13.76h1.32c.8,0,1.45-.65,1.45-1.45v-7.25s5.89,7.16,5.89,7.16c0,0,1.15,1.53,2.84,1.53h.59v-13.76h-1.32Z"/><path fill="#000000" d="m40.49,75.12c-2.52,0-4.56-2.07-4.51-4.6.04-2.53,2.38-4.64,4.9-4.42,2.31.2,4.14,2.14,4.14,4.5,0,2.49-2.03,4.51-4.52,4.51m5.18-9.65c-1.36-1.35-3.15-2.06-5.18-2.06s-3.81.71-5.18,2.06c-1.37,1.35-2.13,3.18-2.13,5.13s.76,3.74,2.13,5.1c1.4,1.38,3.19,2.1,5.18,2.1s3.79-.75,5.17-2.1c1.4-1.34,2.17-3.15,2.17-5.1s-.77-3.78-2.15-5.13"/></g><g><path fill="#000000" d="m7.5,34.52c3.65,0,5.32,2.32,5.32,4.54v4.89h-2.29v-4.89c0-1.41-.79-3.65-3.03-3.65s-3.02,2.25-3.02,3.65-.01,4.89-.01,4.89h-2.3v-4.89c0-2.22,1.7-4.54,5.33-4.54"/><path fill="#000000" d="m39.19,44.07c-3.66,0-5.33-2.29-5.33-4.51v-4.9h2.31v4.9c0,1.39.79,3.66,3.03,3.66s3.03-2.27,3.03-3.66v-4.9h2.28v4.9c0,2.22-1.67,4.51-5.32,4.51"/><path fill="#000000" d="m22.13,43.26c-.47.39-1.08.68-1.86.77-2.33.38-5.56-1.13-5.69-4.52-.13-3.48,3.29-4.92,5.52-4.87,3.75.1,5.08,2.93,5.08,4.54v4.75h-2.3v-4.72c0-1.04-.45-3.66-2.85-3.74-2.33-.07-3.07,2.11-3.09,3.71,0,1.03.25,3.57,2.91,3.72.82.01,1.98-.19,2.3-.47v.82h0Z"/><path fill="#000000" d="m32.43,45.3c-.31.1-1.14.31-2.11.05-1.1-.27-2.89-.79-2.89-4.47v-10.29h2.34v4.1h2.14v1.42h-2.14s.07,2.92,0,5.24c-.04,2.08.58,2.81,1.05,3.03.57.28,1.49.18,1.6.1v.83h0Z"/><path fill="#000000" d="m46.7,38.75c0-2.31,1.19-3.9,3.26-4.1,1.47-.18,2,.12,2,.12v.9s-.78-.19-1.64.04c-.93.32-1.29,1.73-1.29,2.22v6.05h-2.34v-5.23"/><path fill="#000000" d="m59.71,43.26c-.49.38-1.1.68-1.87.77-2.32.38-5.56-1.13-5.69-4.52-.12-3.48,3.28-4.93,5.52-4.87,3.76.1,5.08,2.93,5.08,4.54v4.75h-2.3v-4.72c0-1.04-.48-3.66-2.85-3.74-2.33-.06-3.06,2.11-3.06,3.71,0,1.03.18,3.56,2.88,3.72.83.01,1.98-.19,2.29-.47v.82h0Z"/><path fill="#000000" d="m38.35,4.18c-3.04-.92-4.93,1.3-5.77,4.16-.72,2.28-.86,2.9-1.26,4.09-.59,1.66-2,1.76-3.07.49-1.25-1.51-2.9-3.75-3.82-4.82-1.22-1.42-4.17-2.62-5.64-.77-2.25,2.79.73,5.9,2.31,7.76,1.1,1.34,2.39,2.24,1.98,2.98-.18.27-.5.37-.97.37-1.1-.02-4.72-1.01-5.56-1.16-.71-.15-1.24-.12-1.44.44-.25.64.66,2.48,3.01,3.7,2.36,1.22,6.14,1.8,6.5,1.89,1.37.29,1.11.99.77,1.3-.3.33-.68.56-.61.9.21.88,2.07,1.06,3.19,1.24,1.07.19,2.45.29,3.44-.13.97-.37,1.03-.92,1.69-1.15.88-.34,1.18-.06,3.08.32,1.22.23,3.39-.08,4.56-.47,2.2-.72,3.11-1.44,3.11-1.77,0-.28-.38-.38-.78-.41-.47-.07-2.06-.33-2.6-.69-.52-.36-.11-.97.96-1.4,1.14-.45,4.72-1.95,6.06-3.15,1.35-1.2,2.62-3.22,1.51-4.38-1.13-1.18-3.12.02-4.18.5-1.44.7-3.74,1.86-4.53,2.04-.69.17-1.99.12-1.4-1.45.76-1.94,1.11-3.14,1.57-4.31.58-1.44,1.4-5.03-2.12-6.11m13.35,9.66c-.97,4.13-5.83,6.57-6.29,6.85-.49.24-1.08.49-1.3.63-.09.06-.15.11.03.17.52.14,2.24.03,2.21.76,0,.79-1.3,2.07-4.61,3.48-3.61,1.56-6.63.84-7.39.67l-.07.02c-.2.22-1.88,1.83-6.66,1.01-3.42-.6-4.28-.94-5.08-1.84-.22-.28-.36-.75-.05-1.35.05-.15.07-.23-.03-.26-5.2-1.06-8.33-4.33-9.51-6.41-.57-1.05-.38-1.75-.09-2.18.41-.63,1.78-.67,3.21-.32,1.58.44,2.47.64,2.81.72.11.04.12,0,.07-.08-.4-.49-1.81-2.26-2.54-3.39-1.17-1.86-2.69-6.83,1.2-8.89,4.33-2.26,8.12,1.72,8.96,2.76.74.9,2.23,2.9,2.34,3.1.19.32.29.06.29.06,0,0,1.01-3.67,1.9-5.35,1.57-2.99,4.78-4.38,7.57-3.86,5.33,1,5.53,6.37,5.11,8.35-.38,1.71-1.09,3.54-1.3,4-.04.09,0,.1.07.06.41-.19,2.31-1.12,4.34-1.99,2.03-.85,5.76-.82,4.8,3.32"/></g></g><g><g><g><path fill="#000000" d="m123,20.96c-.55.29-1.39.4-2.08.4-3.32,0-5.81-2.45-5.81-5.72s2.49-5.72,5.82-5.72c.69,0,1.52.12,2.07.38v2.4c-.55-.28-1.16-.41-1.92-.41-1.95,0-3.39,1.37-3.39,3.35s1.44,3.33,3.39,3.33c.75,0,1.37-.12,1.92-.38v2.37h0Z"/><path fill="#000000" d="m124.89,15.64c0-3.26,2.45-5.72,5.77-5.72s5.79,2.46,5.79,5.72-2.43,5.74-5.79,5.74-5.77-2.48-5.77-5.74Zm9,0c0-1.93-1.34-3.38-3.23-3.38s-3.2,1.44-3.2,3.38,1.33,3.36,3.2,3.36,3.23-1.46,3.23-3.36Z"/><path fill="#000000" d="m149.09,10.08v11.15h-.28l-7.39-6.3v6.21h-2.52v-11.15h.28l7.37,6.25v-6.16h2.54s0,0,0,0Z"/><path fill="#000000" d="m151.78,20.7v-2.24c.49.37,1.25.74,2.24.74,1.37,0,1.98-.69,1.98-1.37,0-.56-.31-1.03-1.12-1.43l-1.11-.55c-1.21-.62-2.01-1.44-2.01-2.74,0-1.84,1.64-3.19,4.2-3.19.96,0,1.7.18,2.08.4v2.24c-.4-.26-1.09-.5-1.81-.5-1.12,0-1.78.44-1.78,1.14,0,.46.28.77.96,1.09l1.06.53c1.44.71,2.11,1.7,2.11,3.02,0,1.92-1.37,3.54-4.29,3.54-1.03,0-1.95-.28-2.51-.68,0,0,0,0,0,0Z"/><path fill="#000000" d="m160.84,16.42v-6.34h2.58v6.36c0,1.53.92,2.58,2.45,2.58s2.46-1.05,2.46-2.58v-6.36h2.58v6.34c0,3.04-1.99,4.95-5.04,4.95s-5.03-1.92-5.03-4.95h0Z"/><path fill="#000000" d="m179.73,18.9v2.24h-5.85v-11.06h2.58v8.82h3.28Z"/><path fill="#000000" d="m182.51,12.32h-2.46v-2.24h7.49v2.24h-2.45v8.82h-2.58v-8.82h0Z"/><path fill="#000000" d="m188.48,15.64c0-3.26,2.45-5.72,5.77-5.72s5.79,2.46,5.79,5.72-2.43,5.74-5.79,5.74-5.77-2.48-5.77-5.74Zm9,0c0-1.93-1.34-3.38-3.23-3.38s-3.2,1.44-3.2,3.38,1.33,3.36,3.2,3.36,3.23-1.46,3.23-3.36Z"/><path fill="#000000" d="m209.01,21.14l-1.71-3.19c-.25.01-.52.03-.8.03-.53,0-.99-.04-1.4-.12v3.27h-2.61v-11.06h4.54c2.89,0,4.56,1.41,4.56,3.79,0,1.58-.69,2.73-1.89,3.39l2.11,3.88h-2.8Zm-.06-7.14c0-1.03-.59-1.67-2.17-1.67h-1.68v3.44c.4.07.84.1,1.33.1,1.74,0,2.52-.65,2.52-1.87h0Z"/><path fill="#000000" d="m214.04,10.08h2.57v11.06h-2.57v-11.06Z"/><path fill="#000000" d="m226.21,19.42h-3.91l-.69,1.72h-2.8l5.29-11.05h.29l5.29,11.05h-2.79l-.69-1.72Zm-1.96-4.97l-1.22,3.07h2.46l-1.24-3.07h0Z"/></g><path fill="#000000" d="m245.72,15.63c0,3.44-2.51,5.85-6.46,5.85-1.5,0-2.95-.25-3.62-.51v-10.89h3.93c3.72,0,6.14,2.37,6.14,5.55h0Zm-2.62.06c0-1.82-1.25-3.32-3.48-3.32h-1.47v6.7c.46.06.98.1,1.46.1,2.29,0,3.5-1.52,3.5-3.48Z"/><path fill="#000000" d="m255.17,18.9v2.24h-7.48v-11.06h7.38v2.24h-4.95v2.01h4.71v2.09h-4.71v2.48h5.05,0Z"/></g><polygon fill="#000000" points="213.7 9.31 213.7 7.86 217.35 7.09 217.35 8.65 213.7 9.31"/></g><path fill="#000000" d="m150.5,32.16c-3.1,0-5.58.9-7.43,2.69-1.85,1.79-2.78,4.48-2.78,8.06v24.35c0,3.64.86,6.34,2.6,8.1,1.73,1.76,4.15,2.64,7.25,2.64s5.49-.95,7.34-2.87c1.85-1.91,2.78-4.68,2.78-8.33v-3.49h-6.45v4.12c0,1.67-.3,3-.9,3.98-.6.98-1.52,1.48-2.78,1.48s-2.07-.37-2.64-1.12c-.57-.74-.85-1.89-.85-3.45v-.27c0-1.43.06-2.56.18-3.4.12-.83.42-1.64.9-2.42.48-.77,1.22-1.55,2.24-2.33l4.3-3.4c2.15-1.67,3.76-3.45,4.83-5.33,1.07-1.88,1.61-4.01,1.61-6.4v-1.88c0-3.7-.85-6.41-2.55-8.15-1.7-1.73-4.25-2.6-7.65-2.6h0Zm3.49,12.71c0,1.79-.27,3.33-.81,4.61-.54,1.28-1.52,2.55-2.96,3.8l-2.96,2.51c-.13.1-.25.21-.36.33v-14.12c0-1.55.31-2.73.94-3.54.63-.81,1.51-1.21,2.64-1.21s2,.4,2.6,1.21c.6.81.9,1.98.9,3.54v2.87h0Z"/><path fill="#000000" d="m171.02,70.12v-37.33h-6.62v37.6c0,2.45.6,4.33,1.79,5.64,1.19,1.31,2.89,1.97,5.1,1.97,1.31,0,2.48-.24,3.49-.72v-4.3h-1.34c-1.61,0-2.42-.95-2.42-2.87h0Z"/><path fill="#000000" d="m183.48,70.12v-37.33h-6.62v37.6c0,2.45.6,4.33,1.79,5.64,1.19,1.31,2.89,1.97,5.1,1.97,1.31,0,2.48-.24,3.49-.72v-4.3h-1.34c-1.61,0-2.42-.95-2.42-2.87h0Z"/><path fill="#000000" d="m199.59,32.16c-3.1,0-5.58.9-7.43,2.69-1.85,1.79-2.78,4.48-2.78,8.06v24.35c0,3.64.86,6.34,2.6,8.1,1.73,1.76,4.15,2.64,7.25,2.64s5.49-.95,7.34-2.87c1.85-1.91,2.78-4.68,2.78-8.33v-3.49h-6.45v4.12c0,1.67-.3,3-.9,3.98-.6.98-1.52,1.48-2.78,1.48s-2.07-.37-2.64-1.12c-.57-.74-.85-1.89-.85-3.45v-.27c0-1.43.06-2.56.18-3.4.12-.83.42-1.64.9-2.42.48-.77,1.22-1.55,2.24-2.33l4.3-3.4c2.15-1.67,3.76-3.45,4.83-5.33,1.07-1.88,1.61-4.01,1.61-6.4v-1.88c0-3.7-.85-6.41-2.55-8.15-1.7-1.73-4.25-2.6-7.65-2.6h0Zm3.49,12.71c0,1.79-.27,3.33-.81,4.61-.54,1.28-1.52,2.55-2.96,3.8l-2.96,2.51c-.13.1-.25.21-.36.33v-14.12c0-1.55.31-2.73.94-3.54.63-.81,1.51-1.21,2.64-1.21s2,.4,2.6,1.21c.6.81.9,1.98.9,3.54v2.87h0Z"/><path fill="#000000" d="m219.32,70.83c0-1.31.21-2.59.63-3.85.42-1.25,1.13-2.86,2.15-4.83l6.89-12.89c1.01-1.91,1.7-3.8,2.06-5.68.36-1.88.54-4.16.54-6.85v-3.94h-18.35v5.37h11.99v1.43c0,1.25-.19,2.42-.58,3.49-.39,1.07-1.06,2.59-2.01,4.56l-.36.63-6.71,12.8c-1.02,1.91-1.72,3.83-2.1,5.77-.39,1.94-.58,4.25-.58,6.94v3.67h18.88v-5.37h-12.44v-1.25h0Z"/><path fill="#000000" d="m130.84,51.85c1.68-1.52,2.87-2.93,3.55-4.22.81-1.53,1.21-3.09,1.21-4.71v-1.16c0-2.75-1-4.93-3-6.55-2-1.62-4.65-2.42-7.94-2.42h-9.42v44.66h10.58c3.29-.06,5.9-1.09,7.85-3.09,1.94-2,2.91-4.71,2.91-8.12v-2.24c0-2.63-.67-5.11-2.02-7.44-1.03-1.78-2.27-3.35-3.73-4.71,0,0,0,0,0,0Zm-6.72-13.95c1.43,0,2.61.44,3.54,1.3.93.87,1.39,2.02,1.39,3.45v.81c0,1.43-.26,2.65-.76,3.63-.51.99-1.51,2.14-3,3.45l-3.23,2.87c-.15.14-.3.28-.45.42v-15.94h2.51Zm5.74,28.7c0,1.73-.49,3.12-1.48,4.17-.99,1.05-2.32,1.57-3.99,1.57h-2.78v-7.98c0-2.09.27-3.62.81-4.57.54-.96,1.7-2.21,3.5-3.77l.82-.68c1.06,1.04,1.8,2.09,2.23,3.15.6,1.47.9,3.57.9,6.32v1.79h0Z"/><path fill="#000000" d="m252.61,34.81c-1.7-1.76-4.1-2.64-7.21-2.64s-5.56.96-7.38,2.87c-1.82,1.91-2.73,4.69-2.73,8.33v3.49h6.36v-4.12c0-1.67.3-3,.9-3.98.6-.99,1.55-1.48,2.87-1.48,1.19,0,2.06.37,2.6,1.12.54.75.81,1.89.81,3.45v.27c0,1.43-.06,2.57-.18,3.4-.12.84-.42,1.64-.9,2.42-.48.78-1.19,1.55-2.15,2.33l-4.3,3.4c-2.15,1.67-3.76,3.45-4.83,5.33-1.07,1.88-1.61,4.01-1.61,6.4v1.88c0,3.7.85,6.42,2.55,8.15,1.7,1.73,4.22,2.6,7.56,2.6,3.16,0,5.65-.9,7.47-2.69,1.82-1.79,2.73-4.48,2.73-8.06v-24.35c0-3.64-.85-6.34-2.55-8.1h0Zm-4.92,36.89c-.63.81-1.54,1.21-2.73,1.21s-1.98-.4-2.55-1.21c-.57-.81-.85-1.98-.85-3.54v-2.87c0-1.79.25-3.33.76-4.61.51-1.28,1.48-2.55,2.91-3.8l3.04-2.51c.13-.12.25-.25.36-.38v14.16c0,1.55-.31,2.73-.94,3.54h0Z"/></g></g></g></svg>