<svg width="162" height="96" viewBox="0 0 162 96" fill="none" xmlns="http://www.w3.org/2000/svg">
<path d="M14.6426 69.9207C5.7949 69.9207 0.840332 75.2311 0.840332 83.8452V95.1737H6.85673V83.2554C6.85673 76.6471 9.21613 72.6351 14.6426 72.6351C19.7152 72.6351 22.0746 76.6471 22.0746 83.2554V95.1737H28.091V83.8452C28.091 75.2311 23.6083 69.9207 14.6426 69.9207Z" fill="#EB6619"/>
<path d="M46.9663 69.9207C39.77 69.9207 33.164 74.759 33.164 83.2551C33.164 91.2794 38.5905 95.9993 46.1406 95.9993C50.1514 95.9993 53.2188 94.3474 54.8702 91.2791V95.173H60.6508V83.9626C60.6508 75.3484 55.9316 69.9207 46.9663 69.9207ZM46.9663 93.2856C41.6575 93.2856 39.1804 89.7456 39.1804 83.2554C39.1804 77.3553 41.6579 72.6351 46.9663 72.6351C52.2747 72.6351 54.6341 77.3553 54.6341 83.2554C54.6341 89.3917 51.449 93.2856 46.9663 93.2856Z" fill="#EB6619"/>
<path d="M105.95 82.6653C105.95 89.2736 103.827 93.2856 98.6363 93.2856C93.6818 93.2856 91.5581 89.2736 91.5581 82.6653V70.747H85.5417V82.0755C85.5417 90.69 89.7887 96 98.6363 96C107.248 96 111.967 90.69 111.967 82.0755V70.747H105.95V82.6653Z" fill="#EB6619"/>
<path d="M147.476 69.9207C140.28 69.9207 133.673 74.759 133.673 83.2551C133.673 91.2794 139.1 95.9993 146.65 95.9993C150.661 95.9993 153.728 94.3474 155.379 91.2791V95.173H161.16V83.9626C161.16 75.3484 156.441 69.9207 147.476 69.9207ZM147.476 93.2856C142.167 93.2856 139.69 89.7456 139.69 83.2554C139.69 77.3553 142.167 72.6351 147.476 72.6351C152.784 72.6351 155.144 77.3553 155.144 83.2554C155.144 89.3917 151.959 93.2856 147.476 93.2856Z" fill="#EB6619"/>
<path d="M118.455 81.2492V95.1737H124.471V80.5414C124.471 75.8212 125.533 72.7532 130.37 72.7532C130.96 72.7532 131.667 72.7532 132.375 72.8713V70.3931C131.078 70.0392 129.78 69.9211 128.483 69.9211C122.702 69.9211 118.455 73.2249 118.455 81.2492Z" fill="#EB6619"/>
<path d="M77.8739 93.1675C74.9246 93.1675 73.1551 91.2794 73.1551 85.4971V73.5788H81.059V70.7467H73.1551V64.6104H67.1387V84.553C67.1387 93.2852 71.8575 95.9993 76.9302 95.9993C79.4076 95.9993 81.649 95.2914 83.3004 94.1112C82.7104 93.5211 82.2386 92.8132 82.0028 92.105C80.8233 92.8129 79.5253 93.1675 77.8739 93.1675Z" fill="#EB6619"/>
<path d="M103.932 12.7199C103.932 16.1929 102.171 20.4125 100.918 22.6409C100.224 23.8759 100.054 24.1608 100.054 24.3529C100.054 24.4879 100.137 24.6027 100.298 24.6027C101.132 24.6027 108.084 19.2498 112.962 19.2498C115.82 19.2498 118.436 20.7697 118.436 24.3587C118.436 28.0429 115.999 33.9043 107.878 38.2556C107.297 38.5669 106.079 39.2132 105.226 39.6659C104.133 40.2453 103.847 40.5298 103.847 40.8905C103.847 41.8127 107.075 41.3722 107.075 43.2624C107.075 44.2716 105.844 45.9417 102.62 47.7425C99.6724 49.3887 95.7453 50.7411 90.8619 50.7411C87.3842 50.7411 85.4348 50.0582 85.0631 50.0582C84.921 50.0582 84.8105 50.1016 84.6549 50.2368C84.4534 50.4125 81.9631 52.5429 76.1692 52.5429C69.5082 52.5429 62.0457 49.8145 62.0457 47.2694C62.0457 46.0312 63.6116 45.6852 63.6116 45.42C63.6116 45.3123 63.427 45.2725 63.3522 45.2521C54.0552 42.7442 43.5633 37.7875 43.5633 31.1051C43.5633 29.2582 44.8669 28.3045 46.7462 28.3045C50.0133 28.3045 54.535 29.8172 55.5191 29.8172C55.7592 29.8172 55.8497 29.6862 55.8497 29.5516C55.8497 29.3705 55.7048 29.1687 55.4226 28.9286C49.4656 23.8655 46.9809 19.2097 46.9809 15.3144C46.9809 10.2739 50.6186 6.458 55.4519 5.50751C64.3593 3.75542 69.73 11.3575 74.4745 17.4655C74.6073 17.6366 74.8491 17.9905 75.145 17.9905C75.5099 17.9905 75.6025 17.6391 75.9327 16.2985C76.263 14.958 76.3613 14.5464 76.7835 12.8294C78.173 7.17444 81.5223 0 91.1936 0C96.8866 0 103.932 3.85311 103.932 12.7199ZM76.3728 25.4269C74.5743 25.4269 73.6245 24.4177 71.7878 22.1199C71.4962 21.7552 70.2233 20.2139 69.8988 19.8224C65.4548 14.4566 62.2317 12.0324 58.5493 12.0324C56.3252 12.0324 52.9877 13.2767 52.9877 17.5206C52.9877 18.0749 53.0596 20.4526 55.3639 23.2704C58.2986 26.8591 62.5473 31.6011 62.9369 32.0438C63.3347 32.4958 63.544 32.9774 63.5408 33.4051C63.539 33.6431 63.4656 34.6844 61.6922 34.6844C59.9607 34.6844 52.3938 32.47 49.7442 32.47C48.5161 32.47 47.7251 33.0014 47.7251 33.9025C47.7251 36.2293 52.2661 41.0147 66.5373 44.2337C68.3297 44.6381 68.4875 45.2793 68.4875 45.4984C68.4875 46.3329 66.2658 46.7197 66.2658 48.134C66.2658 50.2096 72.9755 51.1301 74.8995 51.1301C78.3243 51.1301 80.0051 50.1255 81.2819 49.2484C82.3727 48.499 82.9927 48.2106 83.7211 48.2106C85.253 48.2106 86.6851 49.1668 91.336 49.1668C96.9942 49.1668 102.934 46.213 102.934 44.6041C102.934 43.9753 101.995 43.816 99.8817 43.1193C98.7726 42.7535 98.1333 42.3041 98.1333 41.6123C98.1333 40.9531 98.6743 40.4335 100.275 39.7389C101.985 38.9967 103.208 38.4506 104.469 37.8429C111.35 34.5277 114.016 30.4828 114.032 27.5572C114.043 25.6828 112.965 24.4106 111.21 24.4106C108.898 24.4106 106.362 25.7482 103.889 27.0018C99.2613 29.3476 97.576 30.2444 95.9532 30.2444C94.8037 30.2444 94.2671 29.2625 94.2599 28.6817C94.2556 28.3453 94.3114 27.9588 94.4645 27.5444C95.062 25.9265 95.4874 24.8429 96.1413 23.1087C97.1034 20.5578 98.2689 17.6437 98.2689 14.7629C98.2689 10.2581 94.7729 7.18768 90.1833 7.18768C85.0459 7.18768 82.8471 12.0328 81.5434 15.8834C81.1871 16.9355 79.8344 21.0388 79.422 22.2702C78.7011 24.422 77.7502 25.4269 76.3728 25.4269Z" fill="#EB6619"/>
</svg>
