<svg width="256" height="27" viewBox="0 0 256 27" fill="none" xmlns="http://www.w3.org/2000/svg">
<path d="M247.356 12.6995H241.431V5.28532H247.356C247.856 5.21396 248.365 5.26053 248.845 5.42129C249.323 5.58206 249.758 5.85258 250.113 6.21121C250.468 6.56987 250.736 7.0067 250.891 7.4868C251.048 7.9669 251.091 8.47696 251.014 8.97623C251.096 9.47792 251.058 9.99173 250.904 10.4761C250.751 10.9605 250.485 11.4018 250.128 11.7643C249.772 12.1268 249.335 12.4004 248.853 12.5629C248.373 12.7253 247.859 12.7721 247.356 12.6995ZM247.356 1.59441H237.643V24.9054H241.463V16.3904H247.227C248.243 16.4944 249.271 16.3773 250.239 16.047C251.206 15.7168 252.091 15.181 252.833 14.4768C253.573 13.7725 254.153 12.9164 254.533 11.9669C254.912 11.0175 255.081 9.99729 255.029 8.97623C255.094 7.97322 254.941 6.96805 254.581 6.02983C254.221 5.09162 253.661 4.24261 252.941 3.54117C252.22 2.83974 251.358 2.30253 250.411 1.96648C249.463 1.63042 248.454 1.50349 247.453 1.59441H247.356ZM223.171 5.09106C226.797 5.09106 229.258 8.3287 229.258 13.2822C229.258 18.2358 226.926 21.4087 223.301 21.4087C219.674 21.4087 217.213 18.1711 217.213 13.2175C217.213 8.26394 219.545 5.09106 223.171 5.09106ZM223.171 1.23827C217.181 1.23827 213.166 6.09473 213.166 13.2822C213.166 20.4698 217.149 25.2939 223.107 25.2939C229.064 25.2939 233.111 20.4374 233.111 13.2175C233.111 5.9976 229.129 1.23827 223.171 1.23827ZM204.749 10.9512H194.679V1.59441H190.794V24.9054H194.679V14.7392H204.716V24.9054H208.601V1.59441H204.716L204.749 10.9512ZM178.847 11.1131C174.704 9.88277 174.024 9.10573 174.024 7.87543C174.024 6.64513 175.351 5.25295 177.618 5.25295C178.58 5.20334 179.543 5.36944 180.432 5.73913C181.323 6.10883 182.12 6.67277 182.765 7.38978L185.517 4.60542L185.355 4.44353C184.373 3.40796 183.187 2.58604 181.872 2.029C180.558 1.47196 179.142 1.19176 177.714 1.20589C176.773 1.08911 175.818 1.1667 174.909 1.43385C174 1.70101 173.154 2.15203 172.426 2.75903C171.697 3.36603 171.101 4.11605 170.674 4.96271C170.248 5.80936 169.999 6.73461 169.944 7.68117C169.944 12.1167 172.696 13.2822 177.261 14.6421C181.081 15.7752 182.247 16.617 182.247 18.2035C182.247 18.9481 182.247 21.2792 177.747 21.2792C176.66 21.25 175.59 21.0029 174.6 20.5524C173.609 20.1019 172.72 19.4572 171.984 18.6567V18.4949L169.2 21.1821C170.227 22.4851 171.543 23.5337 173.042 24.2467C174.541 24.9597 176.184 25.318 177.843 25.2939C185.388 25.2939 186.521 20.7936 186.521 18.1387C186.521 13.6384 183.283 12.2463 179.042 11.0159L178.847 11.1131ZM152.397 8.06969C151.684 9.33237 150.745 11.1131 150.259 12.1491C149.741 11.0807 148.77 9.23524 148.09 8.00493L144.464 1.52965H139.737L148.122 15.6457V24.8406H151.942V15.7105L160.329 1.59441H155.893L152.397 8.06969ZM125.232 5.38245H127.822C128.858 5.29343 129.901 5.4398 130.872 5.8106C131.844 6.1814 132.718 6.76704 133.431 7.52369C134.145 8.28035 134.677 9.18844 134.99 10.1801C135.302 11.1717 135.386 12.2211 135.237 13.2499C135.391 14.2934 135.305 15.3587 134.984 16.3635C134.662 17.3685 134.114 18.2862 133.382 19.0461C132.651 19.8061 131.755 20.388 130.762 20.747C129.771 21.1062 128.709 21.2328 127.66 21.1174H125.07L125.232 5.38245ZM127.822 1.59441H121.347V24.9054H127.822C129.353 24.987 130.883 24.7374 132.308 24.1735C133.732 23.6098 135.02 22.7452 136.08 21.6388C137.141 20.5323 137.949 19.21 138.452 17.7622C138.954 16.3146 139.139 14.7755 138.992 13.2499C139.154 11.7047 138.973 10.1429 138.463 8.67523C137.954 7.20759 137.128 5.87011 136.043 4.75771C134.958 3.64532 133.642 2.78526 132.188 2.23856C130.733 1.69187 129.177 1.47195 127.629 1.59441H127.822ZM106.616 5.09106C110.242 5.09106 112.703 8.3287 112.703 13.2822C112.703 18.2358 110.372 21.4087 106.745 21.4087C103.119 21.4087 100.659 18.1711 100.659 13.2175C100.659 8.26394 102.99 5.09106 106.616 5.09106ZM106.616 1.23827C100.626 1.23827 96.6115 6.09473 96.6115 13.2822C96.6115 20.4698 100.594 25.2939 106.551 25.2939C112.508 25.2939 116.555 20.4374 116.555 13.2175C116.555 5.9976 112.573 1.23827 106.616 1.23827ZM85.4093 10.6598H79.6139V5.18819H85.5064C85.8933 5.12669 86.2891 5.15485 86.6633 5.27051C87.0375 5.38617 87.3802 5.58622 87.6648 5.85526C87.9496 6.1243 88.1685 6.45512 88.3052 6.82221C88.4419 7.18931 88.4923 7.58287 88.4526 7.97256C88.4649 8.35137 88.395 8.72833 88.2476 9.0775C88.1001 9.42666 87.8789 9.73973 87.5988 9.99514C87.3188 10.2505 86.9868 10.4422 86.6255 10.557C86.2643 10.6717 85.8825 10.7068 85.5064 10.6598H85.4093ZM85.5064 21.3116H79.6139V14.2212H85.5711C86.0679 14.1273 86.5798 14.151 87.0657 14.2904C87.5516 14.4299 87.9982 14.6812 88.3696 15.0242C88.7409 15.3673 89.0268 15.7926 89.2042 16.2659C89.3818 16.7393 89.4459 17.2476 89.3916 17.7502C89.3916 20.1461 88.1289 21.3116 85.474 21.3116H85.5064ZM89.7801 12.2786C90.5825 11.8401 91.2467 11.1868 91.6984 10.3919C92.1502 9.59703 92.3717 8.69199 92.3378 7.7783C92.3745 6.9026 92.2184 6.02954 91.8807 5.22074C91.543 4.41194 91.032 3.6871 90.3836 3.09738C89.7351 2.50765 88.9653 2.0674 88.1281 1.80771C87.291 1.54802 86.4071 1.4752 85.5388 1.59441H75.8259V24.9054H85.1179C90.3305 24.9054 93.1796 22.3477 93.1796 17.6531C93.2264 16.5052 92.9151 15.3712 92.2885 14.4081C91.662 13.4451 90.7514 12.701 89.683 12.2786H89.7801ZM49.1801 14.383H55.6554V10.5951H49.1801V5.38245H60.4795V1.59441H45.3921V24.9054H61.0623V21.1174H49.2772L49.1801 14.383ZM35.8086 10.8541H25.8367V1.59441H21.9515V24.9054H25.8367V14.7392H35.9058V24.9054H39.7909V1.59441H35.9058L35.8086 10.8541ZM1.03638 5.41483H7.51166V24.8406H11.3968V5.41483H18.2282V1.59441H1.03638V5.41483Z" fill="#004236"/>
</svg>
