<svg width="192" height="32" viewBox="0 0 192 32" fill="none" xmlns="http://www.w3.org/2000/svg">
<path d="M6.68599 12.8671C4.42028 12.8671 2.95169 11.2358 2.95169 9.27703C2.95169 7.31823 4.4553 5.70546 6.70452 5.70546C8.07631 5.70546 9.11647 6.20803 9.94242 7.07312V5.49743C9.25035 4.80536 8.11544 4.41607 6.46765 4.41607C3.514 4.41607 1.42749 6.51905 1.42749 9.27497C1.42749 12.0309 3.514 14.1504 6.48619 14.1504C8.02275 14.1504 9.29773 13.7446 10.099 13.0546V11.4933C9.19474 12.4016 8.01245 12.863 6.68599 12.863V12.8671Z" fill="#AE0025"/>
<path d="M16.3976 4.41607C13.3348 4.41607 11.3204 6.48198 11.3204 9.27703C11.3204 12.0721 13.3327 14.1524 16.3976 14.1524C19.4625 14.1524 21.4563 12.068 21.4563 9.27703C21.4563 6.4861 19.4625 4.41607 16.3976 4.41607ZM16.3976 12.8671C14.204 12.8671 12.8425 11.2523 12.8425 9.27703C12.8425 7.30175 14.204 5.70546 16.3976 5.70546C18.5912 5.70546 19.9527 7.32029 19.9527 9.27703C19.9527 11.2338 18.5912 12.8671 16.3976 12.8671Z" fill="#AE0025"/>
<path d="M28.41 4.41607C26.5418 4.41607 25.3822 5.43151 24.7993 6.73532V4.6344H23.2771V13.9361H24.7993V7.40886C25.5449 6.40989 26.6139 5.72194 27.8642 5.72194C29.5325 5.72194 30.4017 6.66529 30.4017 8.27806V13.9361H31.9259V8.00618C31.9259 5.81256 30.6736 4.41607 28.4079 4.41607H28.41Z" fill="#AE0025"/>
<path d="M39.0959 8.4964L36.6098 8.13388C35.6129 8.00618 35.1062 7.69722 35.1062 7.00927C35.1062 6.08239 36.1031 5.61277 37.7179 5.61277C39.3327 5.61277 40.4368 6.15448 41.2524 6.82801V5.33677C40.5439 4.80947 39.0609 4.41401 37.6829 4.41401C35.2359 4.41401 33.6561 5.3759 33.6561 7.0793C33.6561 8.42019 34.583 9.18023 36.34 9.45417L38.9517 9.85376C39.9857 9.99794 40.5315 10.4882 40.5315 11.2132C40.5315 12.3563 39.4419 12.9372 37.8477 12.9372C36.2534 12.9372 34.8384 12.4099 33.6232 11.5036V12.9969C34.55 13.5778 36.1237 14.1483 37.8291 14.1483C40.1855 14.1483 41.9816 13.0608 41.9816 11.102C41.9816 9.61483 40.9846 8.7621 39.1 8.49022L39.0959 8.4964Z" fill="#AE0025"/>
<path d="M50.7251 4.6344V11.1802C50.0022 12.1586 48.9682 12.8465 47.7179 12.8465C46.031 12.8465 45.1968 11.8867 45.1968 10.309V4.6344H43.6726V10.5623C43.6726 12.7394 44.8693 14.1524 47.1906 14.1524C49.0217 14.1524 50.1463 13.1205 50.7251 11.8332V13.9361H52.2493V4.6344H50.7251Z" fill="#AE0025"/>
<path d="M66.1422 5.94027V4.6344H62.1711V1.53244L60.6469 1.83934V4.63234H58.307V5.93821H60.6469V10.8157C60.6469 12.8651 61.6644 14.1153 63.8209 14.1153C64.6674 14.1153 65.4069 13.9361 65.8085 13.7034V12.3769C65.3513 12.62 64.7725 12.793 64.0742 12.793C62.7519 12.793 62.1711 12.0494 62.1711 10.725V5.94027H66.1422Z" fill="#AE0025"/>
<path d="M72.0969 4.41607C69.032 4.41607 67.0176 6.48198 67.0176 9.27703C67.0176 12.0721 69.03 14.1524 72.0969 14.1524C75.1638 14.1524 77.1556 12.068 77.1556 9.27703C77.1556 6.4861 75.1597 4.41607 72.0969 4.41607ZM72.0969 12.8671C69.9033 12.8671 68.5418 11.2523 68.5418 9.27703C68.5418 7.30175 69.9033 5.70546 72.0969 5.70546C74.2905 5.70546 75.6499 7.32029 75.6499 9.27703C75.6499 11.2338 74.2905 12.8671 72.0969 12.8671Z" fill="#AE0025"/>
<path d="M80.4986 8.27806V4.6344H78.9743V13.9361H80.4986V8.94954C81.5799 7.62513 83.2524 6.78888 84.6036 6.19979V4.45726C83.0815 5.16581 81.3307 6.36045 80.4986 8.27806Z" fill="#AE0025"/>
<path d="M87.0526 0.970134C86.3997 0.970134 86.0186 1.3862 86.0186 1.96704C86.0186 2.54789 86.3997 2.94542 87.0526 2.94542C87.7056 2.94542 88.1051 2.52935 88.1051 1.96704C88.1051 1.40474 87.7056 0.970134 87.0526 0.970134ZM86.2905 4.6344V13.9361H87.8147V4.6344H86.2905Z" fill="#AE0025"/>
<path d="M94.8384 4.41607C93.2298 4.41607 91.8745 4.88568 90.929 5.71576V7.16787C91.9465 6.22657 93.3327 5.68486 94.6572 5.68486C96.3441 5.68486 96.9064 6.42842 96.9064 7.60659V7.7137L93.1535 8.54995C91.0506 9.01957 89.8168 9.83522 89.8168 11.3965C89.8168 13.0814 90.8487 14.1504 92.789 14.1504C94.7292 14.1504 96.307 12.8816 96.9064 11.8661V13.9341H98.4285V7.55098C98.4285 5.45005 97.1783 4.41401 94.8384 4.41401V4.41607ZM96.9064 11.0711C96.1257 12.1215 94.7478 12.9743 93.2607 12.9743C91.9548 12.9743 91.3369 12.3563 91.3369 11.3429C91.3369 10.4367 92.1175 9.89289 93.479 9.53038L96.9064 8.6035V11.0711Z" fill="#AE0025"/>
<path d="M58.0269 12.6941V14.0865C57.7921 14.1298 57.5243 14.1545 57.2133 14.1545C56.136 14.1545 55.4872 13.8414 55.1124 13.2729C54.7375 12.7065 54.6324 11.8805 54.6324 10.8568V0.698249L56.1546 0.409887V10.7621C56.1546 12.0865 56.1422 12.7374 57.4646 12.7374C57.6767 12.7374 57.86 12.7209 58.0248 12.6941H58.0269Z" fill="#AE0025"/>
<path d="M23.8271 18.138V24.2842C23.2833 22.9228 21.9239 21.8538 20.0186 21.8538C17.1185 21.8538 15.3595 23.9753 15.3595 26.7147C15.3595 29.4542 17.1185 31.5922 20.0186 31.5922C21.9424 31.5922 23.2648 30.5026 23.8271 29.1452V31.3738H25.3513V17.8476L23.8271 18.138ZM23.8271 28.2904C22.9929 29.5778 21.7962 30.3028 20.3647 30.3028C18.0598 30.3028 16.8817 28.6159 16.8817 26.7127C16.8817 24.8095 18.0598 23.1411 20.3647 23.1411C21.8147 23.1411 22.9929 23.8661 23.8271 25.1535V28.2904Z" fill="#AE0025"/>
<path d="M36.9991 26.6035C36.9991 24.0124 35.2771 21.8538 32.2658 21.8538C29.2545 21.8538 27.17 23.9567 27.17 26.7147C27.17 29.4727 29.1103 31.5922 32.6448 31.5922C34.3482 31.5922 35.7797 31.0505 36.5603 30.3996V28.8651C35.6005 29.7611 34.2885 30.3399 32.7375 30.3399C30.2349 30.3399 28.8013 28.9619 28.6922 26.9495H36.997V26.6035H36.9991ZM28.7663 25.8084C29.0547 24.2286 30.2534 22.9969 32.2493 22.9969C34.2452 22.9969 35.2401 24.2842 35.514 25.8084H28.7663Z" fill="#AE0025"/>
<path d="M47.1309 21.8538C45.2462 21.8538 43.8847 22.9228 43.3224 24.2842V17.8476L41.8003 18.138V31.3738H43.3224V29.1452C43.9033 30.5046 45.2277 31.5922 47.1309 31.5922C50.0331 31.5922 51.79 29.4501 51.79 26.7147C51.79 23.9794 50.0331 21.8538 47.1309 21.8538ZM46.8034 30.3048C45.3533 30.3048 44.1752 29.5798 43.3204 28.2925V25.1555C44.1731 23.8682 45.3513 23.1432 46.7849 23.1432C49.1041 23.1432 50.2679 24.8301 50.2679 26.7147C50.2679 28.5994 49.1062 30.3048 46.8034 30.3048Z" fill="#AE0025"/>
<path d="M82.0022 30.1236L88.3853 23.2503V22.0721H80.3338V23.3223H86.5171L80.134 30.1771V31.3738H88.4574V30.1236H82.0001H82.0022Z" fill="#AE0025"/>
<path d="M62.9146 26.6035C62.9146 24.0124 61.1927 21.8538 58.1814 21.8538C55.17 21.8538 53.0856 23.9567 53.0856 26.7147C53.0856 29.4727 55.0258 31.5922 58.5603 31.5922C60.2637 31.5922 61.6953 31.0505 62.4759 30.3996V28.8651C61.5161 29.7611 60.204 30.3399 58.653 30.3399C56.1505 30.3399 54.7169 28.9619 54.6077 26.9495H62.9126V26.6035H62.9146ZM54.6819 25.8084C54.9702 24.2286 56.169 22.9969 58.1649 22.9969C60.1608 22.9969 61.1556 24.2842 61.4296 25.8084H54.6819Z" fill="#AE0025"/>
<path d="M78.7334 26.6035C78.7334 24.0124 77.0114 21.8538 74.0001 21.8538C70.9888 21.8538 68.9043 23.9567 68.9043 26.7147C68.9043 29.4727 70.8446 31.5922 74.3791 31.5922C76.0825 31.5922 77.514 31.0505 78.2946 30.3996V28.8651C77.3348 29.7611 76.0228 30.3399 74.4718 30.3399C71.9692 30.3399 70.5356 28.9619 70.4265 26.9495H78.7313V26.6035H78.7334ZM70.5006 25.8084C70.789 24.2286 71.9877 22.9969 73.9836 22.9969C75.9795 22.9969 76.9743 24.2842 77.2483 25.8084H70.5006Z" fill="#AE0025"/>
<path d="M94.8384 21.8538C93.2298 21.8538 91.8745 22.3234 90.929 23.1535V24.6056C91.9465 23.6643 93.3327 23.1226 94.6572 23.1226C96.3441 23.1226 96.9064 23.8661 96.9064 25.0443V25.1514L93.1535 25.9876C91.0506 26.4573 89.8168 27.2729 89.8168 28.8342C89.8168 30.5191 90.8487 31.5881 92.789 31.5881C94.7292 31.5881 96.307 30.3193 96.9064 29.3038V31.3718H98.4285V24.9887C98.4285 22.8877 97.1783 21.8517 94.8384 21.8517V21.8538ZM96.9064 28.5108C96.1257 29.5613 94.7478 30.414 93.2607 30.414C91.9548 30.414 91.3369 29.7961 91.3369 28.7827C91.3369 27.8764 92.1175 27.3326 93.479 26.9701L96.9064 26.0433V28.5108Z" fill="#AE0025"/>
<path d="M68.0475 30.1318V31.5242C67.8127 31.5675 67.5449 31.5922 67.2339 31.5922C66.1566 31.5922 65.5078 31.2791 65.1329 30.7106C64.7581 30.1442 64.653 29.3182 64.653 28.2945V18.138L66.1752 17.8496V28.2019C66.1752 29.5263 66.1628 30.1771 67.4852 30.1771C67.6973 30.1771 67.8806 30.1607 68.0454 30.1339L68.0475 30.1318Z" fill="#AE0025"/>
<path d="M169.16 24.966L168.49 26.4902C168.632 26.4779 168.76 26.4717 168.88 26.4717C169.125 26.4717 169.339 26.4943 169.514 26.5417C169.693 26.5891 169.841 26.655 169.961 26.7394L169.16 24.966ZM180.56 25.4027C180.488 25.2194 180.385 25.0608 180.249 24.9248C180.12 24.793 179.969 24.69 179.784 24.6097C179.611 24.5335 179.413 24.4943 179.197 24.4943C178.981 24.4943 178.777 24.5355 178.604 24.6097C178.418 24.688 178.268 24.793 178.138 24.9248C178.008 25.0546 177.905 25.2132 177.827 25.4068C177.751 25.5963 177.714 25.8002 177.714 26.0144C177.714 26.2286 177.751 26.4387 177.827 26.6344C177.903 26.8301 178.006 26.9887 178.138 27.1246C178.27 27.2606 178.426 27.3677 178.604 27.4418C178.777 27.518 178.978 27.5572 179.197 27.5572C179.415 27.5572 179.611 27.516 179.784 27.4418C179.959 27.3656 180.118 27.2585 180.249 27.1246C180.385 26.9866 180.492 26.8218 180.56 26.6365C180.637 26.447 180.674 26.2369 180.674 26.0144C180.674 25.792 180.637 25.5963 180.56 25.4047V25.4027ZM180.56 25.4027C180.488 25.2194 180.385 25.0608 180.249 24.9248C180.12 24.793 179.969 24.69 179.784 24.6097C179.611 24.5335 179.413 24.4943 179.197 24.4943C178.981 24.4943 178.777 24.5355 178.604 24.6097C178.418 24.688 178.268 24.793 178.138 24.9248C178.008 25.0546 177.905 25.2132 177.827 25.4068C177.751 25.5963 177.714 25.8002 177.714 26.0144C177.714 26.2286 177.751 26.4387 177.827 26.6344C177.903 26.8301 178.006 26.9887 178.138 27.1246C178.27 27.2606 178.426 27.3677 178.604 27.4418C178.777 27.518 178.978 27.5572 179.197 27.5572C179.415 27.5572 179.611 27.516 179.784 27.4418C179.959 27.3656 180.118 27.2585 180.249 27.1246C180.385 26.9866 180.492 26.8218 180.56 26.6365C180.637 26.447 180.674 26.2369 180.674 26.0144C180.674 25.792 180.637 25.5963 180.56 25.4047V25.4027ZM164.021 4.3378V30.8939H190.573V4.3378H164.021ZM170.628 28.2987C170.519 28.1133 170.404 27.9526 170.278 27.8187C170.153 27.6849 170.019 27.5757 169.87 27.4851C169.72 27.3924 169.555 27.3306 169.376 27.2894C169.197 27.2482 168.997 27.2276 168.783 27.2276C168.68 27.2276 168.577 27.2317 168.468 27.24C168.363 27.2461 168.247 27.2585 168.132 27.2791L167.687 28.2987H166.696L168.812 23.7528H169.498L171.611 28.2987H170.626H170.628ZM176.227 23.8146L174.161 28.2945H173.438L173.425 28.2698L171.372 23.7528H172.503L173.819 26.7765L175.139 23.7528H176.251L176.223 23.8167L176.227 23.8146ZM181.514 26.9907C181.384 27.2935 181.209 27.5572 180.989 27.7673C180.768 27.9835 180.501 28.1565 180.194 28.2822C179.883 28.4058 179.547 28.4676 179.197 28.4676C178.847 28.4676 178.505 28.4037 178.198 28.2822C177.887 28.1565 177.619 27.9835 177.399 27.7673C177.178 27.553 177.003 27.2935 176.873 26.9907C176.744 26.6982 176.682 26.3708 176.682 26.0185C176.682 25.6663 176.746 25.345 176.873 25.0505C177.003 24.7477 177.176 24.4964 177.399 24.2781C177.621 24.0639 177.889 23.8908 178.198 23.7652C178.507 23.6457 178.843 23.5819 179.197 23.5819C179.551 23.5819 179.883 23.6457 180.19 23.7652C180.499 23.8908 180.764 24.0639 180.989 24.2781C181.211 24.4985 181.384 24.7497 181.514 25.0505C181.644 25.345 181.706 25.6704 181.706 26.0185C181.706 26.3666 181.644 26.6982 181.514 26.9907ZM187.119 28.2945H186.346L186.33 28.2822L184.006 25.5345V28.2945H183.003V23.7528H183.78L183.792 23.7693L186.115 26.5129V23.7528H187.119V28.2945ZM180.249 24.9248C180.12 24.793 179.969 24.69 179.784 24.6097C179.611 24.5335 179.413 24.4943 179.197 24.4943C178.981 24.4943 178.777 24.5355 178.604 24.6097C178.418 24.688 178.268 24.793 178.138 24.9248C178.008 25.0546 177.905 25.2132 177.827 25.4068C177.751 25.5963 177.714 25.8002 177.714 26.0144C177.714 26.2286 177.751 26.4387 177.827 26.6344C177.903 26.8301 178.006 26.9887 178.138 27.1246C178.27 27.2606 178.426 27.3677 178.604 27.4418C178.777 27.518 178.978 27.5572 179.197 27.5572C179.415 27.5572 179.611 27.516 179.784 27.4418C179.959 27.3656 180.118 27.2585 180.249 27.1246C180.385 26.9866 180.492 26.8218 180.56 26.6365C180.637 26.447 180.674 26.2369 180.674 26.0144C180.674 25.792 180.637 25.5963 180.56 25.4047C180.488 25.2214 180.385 25.0628 180.249 24.9269V24.9248Z" fill="#AE0025"/>
<path d="M123.887 24.9928C121.885 24.9928 120.762 26.1936 120.762 28.1442V30.7085H122.124V28.0103C122.124 26.5149 122.657 25.6066 123.887 25.6066C125.036 25.6066 125.57 26.5149 125.57 28.0103V30.7085H126.931V28.1442C126.931 26.1936 125.916 24.9928 123.887 24.9928Z" fill="#AE0025"/>
<path d="M131.203 24.9928C129.574 24.9928 128.078 26.0886 128.078 28.0103C128.078 29.827 129.306 30.8939 131.016 30.8939C131.924 30.8939 132.618 30.5191 132.991 29.8249V30.7065H134.299V28.1689C134.299 26.2183 133.23 24.9907 131.201 24.9907L131.203 24.9928ZM131.203 30.2801C130.002 30.2801 129.44 29.4789 129.44 28.0103C129.44 26.6756 130 25.6066 131.203 25.6066C132.406 25.6066 132.939 26.6756 132.939 28.0103C132.939 29.345 132.218 30.2801 131.203 30.2801Z" fill="#AE0025"/>
<path d="M144.556 27.8764C144.556 29.3718 144.076 30.2801 142.9 30.2801C141.724 30.2801 141.298 29.3718 141.298 27.8764V25.1782H139.936V27.7425C139.936 29.6931 140.898 30.8939 142.9 30.8939C144.902 30.8939 145.918 29.6931 145.918 27.7425V25.1782H144.556V27.8764Z" fill="#AE0025"/>
<path d="M153.957 24.9928C152.328 24.9928 150.832 26.0886 150.832 28.0103C150.832 29.827 152.06 30.8939 153.769 30.8939C154.678 30.8939 155.372 30.5191 155.745 29.8249V30.7065H157.053V28.1689C157.053 26.2183 155.984 24.9907 153.955 24.9907L153.957 24.9928ZM153.957 30.2801C152.756 30.2801 152.194 29.4789 152.194 28.0103C152.194 26.6756 152.754 25.6066 153.957 25.6066C155.16 25.6066 155.693 26.6756 155.693 28.0103C155.693 29.345 154.972 30.2801 153.957 30.2801Z" fill="#AE0025"/>
<path d="M147.388 27.5572V30.7085H148.75V27.3965C148.75 26.3275 148.991 25.6334 150.085 25.6334C150.218 25.6334 150.379 25.6334 150.538 25.6601V25.0999C150.243 25.0196 149.951 24.9928 149.656 24.9928C148.348 24.9928 147.386 25.7405 147.386 27.5572H147.388Z" fill="#AE0025"/>
<path d="M138.202 30.2533C137.535 30.2533 137.133 29.827 137.133 28.517V25.8187H138.923V25.1782H137.133V23.7899H135.771V28.3028C135.771 30.2781 136.84 30.8939 137.988 30.8939C138.548 30.8939 139.057 30.7333 139.43 30.4676C139.296 30.3337 139.189 30.173 139.135 30.0144C138.867 30.1751 138.575 30.2554 138.2 30.2554L138.202 30.2533Z" fill="#AE0025"/>
<path d="M144.101 12.0783C144.101 12.8651 143.701 13.8187 143.419 14.3234C143.263 14.6035 143.224 14.6674 143.224 14.7106C143.224 14.7415 143.242 14.7662 143.279 14.7662C143.469 14.7662 145.042 13.5551 146.146 13.5551C146.793 13.5551 147.386 13.8991 147.386 14.7106C147.386 15.5221 146.834 16.8713 144.997 17.8558C144.865 17.9258 144.589 18.0721 144.396 18.1751C144.148 18.3069 144.082 18.3708 144.082 18.4531C144.082 18.6612 144.814 18.5623 144.814 18.9907C144.814 19.2194 144.536 19.5963 143.804 20.0041C143.137 20.3769 142.247 20.6818 141.143 20.6818C140.356 20.6818 139.916 20.5273 139.831 20.5273C139.798 20.5273 139.774 20.5376 139.739 20.5685C139.693 20.6076 139.129 21.0896 137.817 21.0896C136.309 21.0896 134.62 20.4717 134.62 19.897C134.62 19.6169 134.974 19.5386 134.974 19.4789C134.974 19.4542 134.933 19.4459 134.915 19.4418C132.81 18.8733 130.435 17.7528 130.435 16.241C130.435 15.8229 130.729 15.6066 131.156 15.6066C131.895 15.6066 132.919 15.9485 133.141 15.9485C133.195 15.9485 133.215 15.9197 133.215 15.8888C133.215 15.8476 133.182 15.8023 133.119 15.7487C131.769 14.6035 131.207 13.5489 131.207 12.6674C131.207 11.5263 132.031 10.6632 133.125 10.447C135.141 10.0494 136.356 11.7714 137.432 13.1535C137.463 13.1926 137.516 13.2729 137.584 13.2729C137.666 13.2729 137.687 13.1926 137.763 12.8898C137.837 12.587 137.86 12.4923 137.955 12.105C138.27 10.826 139.028 9.20082 141.217 9.20082C142.507 9.20082 144.101 10.0721 144.101 12.0803V12.0783ZM137.862 14.9537C137.454 14.9537 137.24 14.725 136.824 14.206C136.758 14.1236 136.47 13.7755 136.396 13.6869C135.39 12.4717 134.659 11.9238 133.827 11.9238C133.324 11.9238 132.569 12.206 132.569 13.1658C132.569 13.2915 132.585 13.829 133.106 14.4676C133.771 15.2791 134.733 16.3522 134.82 16.4531C134.91 16.5561 134.958 16.6653 134.956 16.7621C134.956 16.8157 134.939 17.0525 134.538 17.0525C134.136 17.0525 132.433 16.552 131.833 16.552C131.555 16.552 131.376 16.6715 131.376 16.8754C131.376 17.4027 132.404 18.484 135.636 19.2132C136.041 19.3038 136.076 19.4501 136.076 19.4995C136.076 19.689 135.574 19.7755 135.574 20.0968C135.574 20.5664 137.092 20.7745 137.528 20.7745C138.303 20.7745 138.684 20.5479 138.972 20.3481C139.219 20.1792 139.36 20.1133 139.524 20.1133C139.87 20.1133 140.196 20.3296 141.248 20.3296C142.529 20.3296 143.874 19.6601 143.874 19.2976C143.874 19.1555 143.662 19.1184 143.184 18.9619C142.933 18.8795 142.789 18.7765 142.789 18.62C142.789 18.4634 142.91 18.3522 143.273 18.1957C143.66 18.0268 143.936 17.9032 144.223 17.7673C145.78 17.0175 146.383 16.1009 146.387 15.4398C146.389 15.0154 146.146 14.7271 145.749 14.7271C145.226 14.7271 144.651 15.0299 144.091 15.3141C143.042 15.8455 142.661 16.0474 142.295 16.0474C142.035 16.0474 141.914 15.8249 141.912 15.6931C141.912 15.6169 141.924 15.5304 141.957 15.4356C142.093 15.069 142.188 14.8239 142.336 14.4325C142.554 13.8558 142.818 13.1967 142.818 12.5438C142.818 11.5242 142.027 10.8301 140.987 10.8301C139.823 10.8301 139.327 11.9258 139.03 12.7971C138.95 13.036 138.643 13.9629 138.55 14.243C138.387 14.7291 138.171 14.9578 137.86 14.9578L137.862 14.9537Z" fill="#AE0025"/>
<path d="M118.803 1.3656V0H117.932C112.49 0 108.064 4.42636 108.064 9.86612V32H109.43V9.86612C109.43 5.17817 113.242 1.3656 117.93 1.3656H118.803Z" fill="#AE0025"/>
</svg>
