<?xml version="1.0" encoding="UTF-8"?><svg id="Camada_2" xmlns="http://www.w3.org/2000/svg" width="255.63" height="80" viewBox="0 0 255.63 80"><g id="Layer_1"><rect x="90.4" y="10.31" width="4.03" height="69.1"/><g><g><path d="m125.84,20.99c-.53.28-1.36.39-2.04.39-3.26,0-5.71-2.41-5.71-5.63s2.45-5.63,5.71-5.63c.68,0,1.49.11,2.04.37v2.36c-.53-.28-1.14-.42-1.88-.42-1.9,0-3.33,1.36-3.33,3.28s1.42,3.28,3.33,3.28c.74,0,1.36-.11,1.88-.37v2.34Z"/><path d="m127.68,15.78c0-3.2,2.41-5.63,5.67-5.63s5.69,2.41,5.69,5.63-2.39,5.63-5.69,5.63-5.67-2.43-5.67-5.63Zm8.84,0c0-1.9-1.31-3.33-3.17-3.33s-3.15,1.42-3.15,3.33,1.31,3.31,3.15,3.31c1.86-.02,3.17-1.44,3.17-3.31Z"/><path d="m151.45,10.31v10.94h-.28l-7.25-6.17v6.11h-2.47v-10.94h.28l7.25,6.15v-6.08h2.47Z"/><path d="m154.09,20.73v-2.21c.48.37,1.23.72,2.21.72,1.36,0,1.95-.68,1.95-1.36,0-.55-.31-1.01-1.09-1.4l-1.09-.53c-1.18-.61-1.97-1.42-1.97-2.69,0-1.82,1.6-3.13,4.14-3.13.94,0,1.66.18,2.04.39v2.21c-.39-.26-1.07-.48-1.77-.48-1.09,0-1.75.44-1.75,1.12,0,.46.28.74.94,1.07l1.05.53c1.42.7,2.08,1.66,2.08,2.98,0,1.88-1.36,3.48-4.22,3.48-1.05-.02-1.95-.31-2.5-.7Z"/><path d="m162.98,16.55v-6.24h2.54v6.24c0,1.51.9,2.54,2.41,2.54s2.41-1.03,2.41-2.54v-6.24h2.54v6.22c0,2.98-1.95,4.86-4.95,4.86-2.93.02-4.95-1.86-4.95-4.84Z"/><path d="m181.54,18.97v2.21h-5.76v-10.88h2.54v8.67h3.22Z"/><path d="m184.28,12.52h-2.41v-2.21h7.35v2.21h-2.41v8.67h-2.54s0-8.67,0-8.67Z"/><path d="m190.14,15.78c0-3.2,2.41-5.63,5.67-5.63s5.69,2.41,5.69,5.63-2.39,5.63-5.69,5.63-5.67-2.43-5.67-5.63Zm8.82,0c0-1.9-1.31-3.33-3.17-3.33s-3.15,1.42-3.15,3.33,1.31,3.31,3.15,3.31c1.86-.02,3.17-1.44,3.17-3.31Z"/><path d="m210.3,21.16l-1.69-3.13c-.24.02-.5.02-.79.02-.53,0-.96-.04-1.38-.11v3.22h-2.56v-10.86h4.47c2.85,0,4.47,1.4,4.47,3.72,0,1.55-.68,2.67-1.86,3.33l2.08,3.81h-2.74Zm-.07-7c0-1.01-.57-1.64-2.12-1.64h-1.64v3.37c.39.07.83.11,1.31.11,1.69,0,2.45-.63,2.45-1.84Z"/><path d="m215.23,10.31h2.52v10.86h-2.52v-10.86Z"/><path d="m227.18,19.48h-3.83l-.68,1.69h-2.76l5.21-10.86h.28l5.21,10.86h-2.74l-.7-1.69h0Zm-1.93-4.88l-1.2,3.02h2.41l-1.2-3.02Z"/></g><path d="m246.35,15.76c0,3.37-2.47,5.73-6.35,5.73-1.47,0-2.89-.24-3.55-.5v-10.68h3.85c3.66,0,6.04,2.32,6.04,5.45Zm-2.58.07c0-1.77-1.23-3.26-3.41-3.26h-1.44v6.57c.46.07.96.11,1.42.11,2.25,0,3.44-1.49,3.44-3.41Z"/><path d="m255.61,18.97v2.21h-7.35v-10.88h7.25v2.21h-4.86v1.97h4.62v2.06h-4.62v2.43h4.97Z"/><path d="m134.22,53.16c1.73-1.55,2.93-3,3.63-4.33.83-1.55,1.25-3.17,1.25-4.84v-1.2c0-2.82-1.03-5.06-3.09-6.72-2.06-1.66-4.77-2.47-8.14-2.47h-9.65v45.81h10.86c3.37-.07,6.06-1.12,8.05-3.17s3-4.84,3-8.32v-2.3c0-2.69-.7-5.25-2.08-7.64-1.07-1.82-2.34-3.44-3.83-4.82Zm-6.89-14.32c1.47,0,2.69.44,3.63,1.34s1.42,2.08,1.42,3.55v.83c0,1.47-.26,2.71-.79,3.72-.53,1.01-1.55,2.19-3.09,3.55l-3.31,2.93c-.15.13-.31.28-.46.44v-16.35h2.58,0Zm5.89,29.44c0,1.77-.5,3.2-1.51,4.27-1.01,1.07-2.39,1.62-4.09,1.62h-2.85v-8.19c0-2.15.28-3.7.83-4.68s1.75-2.28,3.59-3.87l.83-.7c1.07,1.07,1.84,2.15,2.3,3.24.61,1.51.92,3.66.92,6.48l-.02,1.84h0Z"/><path d="m155.1,32.96c-3.17,0-5.73.92-7.62,2.76-1.9,1.84-2.85,4.6-2.85,8.27v24.97c0,3.74.9,6.5,2.67,8.32,1.77,1.82,4.25,2.71,7.44,2.71s5.63-.98,7.53-2.93,2.85-4.82,2.85-8.54v-3.59h-6.61v4.22c0,1.71-.31,3.09-.92,4.09s-1.55,1.51-2.85,1.51-2.12-.37-2.71-1.14-.88-1.95-.88-3.55v-.28c0-1.47.07-2.63.18-3.48.13-.85.44-1.69.92-2.47.48-.79,1.25-1.6,2.3-2.39l4.4-3.48c2.21-1.71,3.85-3.55,4.97-5.47,1.09-1.93,1.66-4.12,1.66-6.57v-1.93c0-3.79-.88-6.59-2.63-8.36-1.75-1.79-4.36-2.69-7.86-2.69h0Zm3.59,13.05c0,1.84-.28,3.41-.83,4.73s-1.55,2.63-3.02,3.9l-3.02,2.56c-.13.11-.26.22-.37.33v-14.49c0-1.6.33-2.8.96-3.63s1.55-1.25,2.71-1.25,2.06.42,2.67,1.25.92,2.04.92,3.63v2.98h-.02Z"/><path d="m178,71.9v-38.3h-6.79v38.57c0,2.52.61,4.44,1.84,5.78,1.23,1.36,2.98,2.01,5.23,2.01,1.34,0,2.54-.24,3.59-.74v-4.4h-1.38c-1.66.02-2.5-.94-2.5-2.91h0Z"/><path d="m196.89,32.96c-3.17,0-5.73.92-7.62,2.76-1.9,1.84-2.85,4.6-2.85,8.27v24.97c0,3.74.9,6.5,2.67,8.32s4.25,2.71,7.44,2.71,5.63-.98,7.53-2.93,2.85-4.82,2.85-8.54v-3.59h-6.61v4.22c0,1.71-.31,3.09-.92,4.09s-1.55,1.51-2.85,1.51-2.12-.37-2.71-1.14-.88-1.95-.88-3.55v-.28c0-1.47.07-2.63.18-3.48.13-.85.44-1.69.92-2.47.48-.79,1.25-1.6,2.3-2.39l4.4-3.48c2.21-1.71,3.85-3.55,4.97-5.47,1.09-1.93,1.66-4.12,1.66-6.57v-1.93c0-3.79-.88-6.59-2.63-8.36-1.75-1.79-4.38-2.69-7.86-2.69h0Zm3.57,13.05c0,1.84-.28,3.41-.83,4.73s-1.55,2.63-3.02,3.9l-3.02,2.56c-.13.11-.26.22-.37.33v-14.49c0-1.6.33-2.8.96-3.63s1.55-1.25,2.71-1.25,2.06.42,2.67,1.25.92,2.04.92,3.63l-.02,2.98h0Z"/><path d="m219.21,72.62c0-1.34.22-2.67.63-3.94.44-1.29,1.16-2.93,2.21-4.95l7.07-13.22c1.05-1.95,1.75-3.9,2.1-5.82.37-1.93.55-4.27.55-7.03v-4.05h-18.82v5.52h12.3v1.47c0,1.29-.2,2.47-.59,3.59-.39,1.09-1.09,2.67-2.06,4.68l-.37.63-6.89,13.13c-1.05,1.97-1.75,3.94-2.17,5.93-.39,1.99-.59,4.36-.59,7.11v3.76h19.37v-5.52h-12.76l.02-1.31h0Z"/><path d="m253.01,35.68c-1.75-1.79-4.2-2.71-7.4-2.71s-5.71.98-7.57,2.93c-1.86,1.97-2.8,4.82-2.8,8.54v3.59h6.52v-4.22c0-1.71.31-3.09.92-4.09.61-1.01,1.6-1.51,2.93-1.51,1.23,0,2.1.39,2.67,1.14.55.77.83,1.95.83,3.55v.28c0,1.47-.07,2.63-.18,3.48-.13.85-.44,1.69-.92,2.47s-1.23,1.6-2.21,2.39l-4.4,3.48c-2.21,1.71-3.85,3.55-4.97,5.47-1.09,1.93-1.66,4.12-1.66,6.57v1.93c0,3.79.88,6.59,2.63,8.36s4.33,2.67,7.77,2.67c3.24,0,5.8-.92,7.66-2.76s2.8-4.6,2.8-8.27v-24.95c-.02-3.74-.9-6.52-2.63-8.32h0Zm-5.06,37.85c-.63.83-1.58,1.25-2.8,1.25-1.16,0-2.04-.42-2.63-1.25-.59-.83-.88-2.04-.88-3.63v-2.93c0-1.84.26-3.41.79-4.73s1.51-2.63,2.98-3.9l3.13-2.56c.13-.13.24-.24.37-.39v14.53c0,1.58-.33,2.78-.96,3.61h0Z"/></g><g><g><path d="m22.94,79.43l-6.76-14.14h1.84c.83,0,1.6.48,1.95,1.25l3.72,7.9,3.68-7.9c.35-.77,1.12-1.25,1.95-1.25h1.86l-6.76,14.12-1.47.02h0Z"/><path d="m8.45,65.29h-1.51l-6.94,14.12h1.69c.83,0,1.55-.42,2.06-1.25l1.47-2.82c2.58.33,4.88,1.27,6.96,4.07h3.26l-6.98-14.12Zm-.77,4.86l1.84,3.87c-1.01-.48-2.08-.83-3.2-1.05,0,0,1.36-2.82,1.36-2.82Z"/><path d="m65.25,65.29c-.83,0-1.49.66-1.49,1.49v7.44l-7.38-8.93h-2.19v14.12h1.36c.83,0,1.49-.66,1.49-1.49v-7.44l6.04,7.35s1.18,1.58,2.91,1.58h.61v-14.12s-1.36,0-1.36,0Z"/><path d="m41.52,77.02c-2.58,0-4.68-2.12-4.64-4.71.04-2.6,2.45-4.75,5.03-4.53,2.36.2,4.25,2.19,4.25,4.62s-2.08,4.62-4.64,4.62m5.32-9.89c-1.4-1.38-3.24-2.1-5.32-2.1s-3.9.72-5.32,2.1c-1.4,1.38-2.19,3.26-2.19,5.28s.77,3.83,2.19,5.23c1.44,1.4,3.28,2.17,5.32,2.17s3.9-.77,5.3-2.15c1.42-1.38,2.21-3.24,2.21-5.23.02-2.04-.77-3.92-2.19-5.3"/></g><g><path d="m7.68,35.37c3.74,0,5.47,2.39,5.47,4.66v5.01h-2.34v-5.01c0-1.44-.81-3.74-3.11-3.74s-3.09,2.3-3.09,3.74-.02,5.01-.02,5.01h-2.36v-5.01c-.02-2.28,1.73-4.66,5.45-4.66"/><path d="m40.19,45.18c-3.76,0-5.47-2.34-5.47-4.62v-5.03h2.36v5.03c0,1.42.81,3.76,3.11,3.76s3.11-2.34,3.11-3.76v-5.03h2.34v5.03c.02,2.28-1.71,4.62-5.45,4.62"/><path d="m22.7,44.34c-.48.39-1.12.7-1.9.79-2.39.39-5.71-1.16-5.84-4.64-.13-3.57,3.37-5.03,5.67-4.99,3.85.11,5.21,3,5.21,4.66v4.88h-2.36v-4.84c0-1.07-.46-3.76-2.93-3.83-2.39-.07-3.15,2.17-3.17,3.81,0,1.05.26,3.66,2.98,3.81.83.02,2.04-.2,2.36-.48v.83Z"/><path d="m33.25,46.44c-.31.11-1.16.31-2.17.04-1.12-.28-2.95-.81-2.95-4.6v-10.57h2.41v4.2h2.19v1.44h-2.19s.07,3,0,5.36c-.04,2.12.59,2.89,1.07,3.11.59.28,1.53.18,1.64.11v.9Z"/><path d="m47.89,39.73c0-2.36,1.23-4.01,3.35-4.2,1.51-.2,2.06.13,2.06.13v.92s-.81-.2-1.69.04c-.94.33-1.34,1.77-1.34,2.28v6.19h-2.41v-5.36"/><path d="m61.24,44.34c-.5.39-1.14.7-1.93.79-2.39.39-5.69-1.16-5.84-4.64-.11-3.57,3.37-5.06,5.67-4.99,3.85.11,5.21,3,5.21,4.66v4.88h-2.36v-4.84c0-1.07-.48-3.76-2.93-3.83-2.39-.07-3.15,2.17-3.15,3.81,0,1.05.2,3.66,2.95,3.81.85.02,2.04-.2,2.34-.48v.83h.04,0Z"/><path d="m39.33,4.24c-3.13-.94-5.06,1.34-5.91,4.27-.74,2.34-.88,2.98-1.29,4.2-.61,1.71-2.06,1.82-3.15.5-1.27-1.55-2.98-3.85-3.92-4.95-1.25-1.44-4.27-2.69-5.78-.79-2.3,2.87.74,6.06,2.36,7.97,1.12,1.38,2.45,2.3,2.04,3.06-.2.28-.5.37-.98.37-1.14-.02-4.84-1.03-5.71-1.2-.72-.15-1.27-.11-1.47.44-.26.66.68,2.54,3.09,3.79s6.3,1.84,6.68,1.95c1.4.31,1.14,1.01.79,1.34-.31.35-.7.57-.63.92.22.9,2.12,1.09,3.28,1.27,1.09.2,2.52.31,3.52-.13.98-.39,1.05-.94,1.73-1.18.9-.35,1.2-.07,3.15.33,1.25.24,3.48-.09,4.66-.48,2.25-.74,3.2-1.49,3.2-1.82,0-.28-.39-.39-.81-.42-.48-.09-2.1-.35-2.67-.7-.53-.37-.11-1.01.98-1.44,1.16-.46,4.84-2.01,6.22-3.24,1.38-1.23,2.69-3.31,1.55-4.49-1.16-1.2-3.2.02-4.29.53-1.49.72-3.83,1.9-4.64,2.1-.7.18-2.06.13-1.42-1.49.77-1.99,1.14-3.22,1.62-4.42.57-1.49,1.4-5.17-2.19-6.28m13.68,9.92c-1.01,4.25-5.98,6.74-6.46,7.03-.5.24-1.12.5-1.34.66-.09.07-.15.11.02.18.53.15,2.3.04,2.25.79,0,.81-1.34,2.12-4.73,3.57-3.7,1.6-6.81.85-7.57.68l-.07.02c-.2.22-1.93,1.88-6.83,1.03-3.5-.61-4.38-.96-5.21-1.88-.22-.28-.37-.77-.04-1.38.04-.15.07-.24-.02-.26-5.34-1.09-8.56-4.44-9.74-6.57-.59-1.07-.39-1.79-.09-2.23.42-.63,1.84-.68,3.31-.33,1.62.44,2.54.66,2.89.74.11.04.13,0,.07-.09-.42-.5-1.86-2.32-2.6-3.48-1.2-1.9-2.76-7,1.23-9.13,4.44-2.32,8.34,1.77,9.19,2.82.77.92,2.3,2.98,2.41,3.17.2.33.28.07.28.07,0,0,1.03-3.76,1.95-5.49,1.6-3.06,4.9-4.49,7.77-3.96,5.47,1.03,5.67,6.54,5.23,8.56-.39,1.75-1.12,3.63-1.34,4.12-.04.09,0,.11.07.07.42-.2,2.36-1.14,4.44-2.04,2.08-.92,5.91-.9,4.92,3.35"/></g></g></g></svg>