<svg width="92" height="56" viewBox="0 0 92 56" fill="none" xmlns="http://www.w3.org/2000/svg">
<path d="M31.6352 52.4015L31.2274 53.327C31.3138 53.3189 31.3922 53.3149 31.4651 53.3149C31.6149 53.3149 31.7446 53.3283 31.8526 53.3566C31.9619 53.3848 32.0524 53.4252 32.124 53.4763L31.6352 52.4001V52.4015ZM38.582 52.6665C38.5374 52.5562 38.4753 52.458 38.393 52.3759C38.3146 52.2952 38.2228 52.2333 38.1094 52.1849C38.0041 52.1391 37.8839 52.1136 37.7516 52.1136C37.6193 52.1136 37.4951 52.1378 37.3898 52.1849C37.2763 52.232 37.1845 52.2952 37.1062 52.3759C37.0279 52.4539 36.9644 52.5508 36.9172 52.6678C36.8713 52.7822 36.8483 52.9059 36.8483 53.0364C36.8483 53.1669 36.8713 53.2947 36.9172 53.4117C36.9631 53.5301 37.0266 53.627 37.1062 53.709C37.1872 53.7911 37.2817 53.8557 37.3898 53.9014C37.4951 53.9472 37.6179 53.9714 37.7516 53.9714C37.8853 53.9714 38.0041 53.9472 38.1094 53.9014C38.2161 53.8557 38.3119 53.7911 38.393 53.709C38.4753 53.6256 38.5401 53.5261 38.582 53.4131C38.6279 53.2987 38.6508 53.1709 38.6508 53.0351C38.6508 52.8992 38.6279 52.7808 38.582 52.6651V52.6665ZM38.582 52.6665C38.5374 52.5562 38.4753 52.458 38.393 52.3759C38.3146 52.2952 38.2228 52.2333 38.1094 52.1849C38.0041 52.1391 37.8839 52.1136 37.7516 52.1136C37.6193 52.1136 37.4951 52.1378 37.3898 52.1849C37.2763 52.232 37.1845 52.2952 37.1062 52.3759C37.0279 52.4539 36.9644 52.5508 36.9172 52.6678C36.8713 52.7822 36.8483 52.9059 36.8483 53.0364C36.8483 53.1669 36.8713 53.2947 36.9172 53.4117C36.9631 53.5301 37.0266 53.627 37.1062 53.709C37.1872 53.7911 37.2817 53.8557 37.3898 53.9014C37.4951 53.9472 37.6179 53.9714 37.7516 53.9714C37.8853 53.9714 38.0041 53.9472 38.1094 53.9014C38.2161 53.8557 38.3119 53.7911 38.393 53.709C38.4753 53.6256 38.5401 53.5261 38.582 53.4131C38.6279 53.2987 38.6508 53.1709 38.6508 53.0351C38.6508 52.8992 38.6279 52.7808 38.582 52.6651V52.6665ZM28.5027 39.8785V56H44.6822V39.8785H28.5027ZM32.529 54.4234C32.4629 54.3104 32.3927 54.2135 32.3157 54.1315C32.2387 54.0494 32.1577 53.9835 32.0673 53.9297C31.9754 53.8732 31.8755 53.8368 31.7662 53.8113C31.6568 53.7857 31.5353 53.775 31.4043 53.775C31.3422 53.775 31.2787 53.7763 31.2126 53.783C31.1478 53.7871 31.0776 53.7951 31.0074 53.8059L30.736 54.4247H30.1324L31.4219 51.6656H31.8404L33.1272 54.4247H32.5277L32.529 54.4234ZM35.941 51.7019L34.6826 54.4207H34.2424L34.2343 54.4059L32.984 51.6643H33.674L34.476 53.5005L35.2807 51.6643H35.9585L35.941 51.7019ZM39.1626 53.6297C39.0843 53.8126 38.9762 53.9727 38.8426 54.1005C38.7089 54.2323 38.5455 54.3373 38.3578 54.4139C38.1688 54.4879 37.9636 54.5269 37.7503 54.5269C37.5369 54.5269 37.329 54.4893 37.1413 54.4139C36.9523 54.3373 36.7889 54.2323 36.6552 54.1005C36.5216 53.9714 36.4136 53.8126 36.3353 53.6297C36.2569 53.4521 36.2178 53.2543 36.2178 53.0405C36.2178 52.8266 36.2556 52.6315 36.3353 52.4526C36.4136 52.2696 36.5189 52.1163 36.6552 51.9831C36.7916 51.8539 36.9536 51.749 37.1413 51.6723C37.329 51.5997 37.5342 51.562 37.7503 51.562C37.9663 51.562 38.1675 51.5997 38.3552 51.6723C38.5428 51.749 38.7062 51.8539 38.8412 51.9831C38.9776 52.1163 39.0829 52.2696 39.1612 52.4526C39.2395 52.6315 39.2787 52.8279 39.2787 53.0405C39.2787 53.253 39.2409 53.4521 39.1612 53.6297H39.1626ZM42.5772 54.422H42.106L42.0966 54.4139L40.6815 52.7458V54.422H40.0699V51.6643H40.5425L40.5506 51.6737L41.9656 53.3391V51.6629H42.5772V54.422ZM38.393 52.3759C38.3146 52.2952 38.2228 52.2333 38.1094 52.1849C38.0041 52.1391 37.8839 52.1136 37.7516 52.1136C37.6193 52.1136 37.4951 52.1378 37.3898 52.1849C37.2763 52.232 37.1845 52.2952 37.1062 52.3759C37.0279 52.4539 36.9644 52.5508 36.9172 52.6678C36.8713 52.7822 36.8483 52.9059 36.8483 53.0364C36.8483 53.1669 36.8713 53.2947 36.9172 53.4117C36.9631 53.5301 37.0266 53.627 37.1062 53.709C37.1872 53.7911 37.2817 53.8557 37.3898 53.9014C37.4951 53.9472 37.6179 53.9714 37.7516 53.9714C37.8853 53.9714 38.0041 53.9472 38.1094 53.9014C38.2161 53.8557 38.3119 53.7911 38.393 53.709C38.4753 53.6256 38.5401 53.5261 38.582 53.4131C38.6279 53.2987 38.6508 53.1709 38.6508 53.0351C38.6508 52.8992 38.6279 52.7808 38.582 52.6651C38.5374 52.5548 38.4753 52.4566 38.393 52.3746V52.3759Z" fill="#AE0025"/>
<path d="M3.19724 52.2763C2.01986 52.2763 1.36097 52.9799 1.36097 54.1207V55.622H2.16163V54.0427C2.16163 53.1669 2.47488 52.6355 3.19724 52.6355C3.87234 52.6355 4.18559 53.1669 4.18559 54.0427V55.622H4.98626V54.1207C4.98626 52.9799 4.38947 52.2763 3.19724 52.2763Z" fill="#AE0025"/>
<path d="M7.49628 52.2764C6.53898 52.2764 5.66 52.9167 5.66 54.0427C5.66 55.1054 6.38236 55.731 7.38556 55.731C7.91889 55.731 8.32665 55.5117 8.54673 55.1054V55.6207H9.315V54.1355C9.315 52.9947 8.68715 52.275 7.49493 52.275L7.49628 52.2764ZM7.49628 55.3718C6.79012 55.3718 6.46067 54.9023 6.46067 54.0427C6.46067 53.2611 6.79012 52.6356 7.49628 52.6356C8.20243 52.6356 8.51568 53.2611 8.51568 54.0427C8.51568 54.8243 8.09172 55.3718 7.49628 55.3718Z" fill="#AE0025"/>
<path d="M15.341 53.9646C15.341 54.8404 15.0588 55.3718 14.3688 55.3718C13.6789 55.3718 13.4277 54.8404 13.4277 53.9646V52.3853H12.6271V53.8866C12.6271 55.0274 13.1914 55.731 14.3688 55.731C15.5462 55.731 16.1416 55.0274 16.1416 53.8866V52.3853H15.341V53.9646Z" fill="#AE0025"/>
<path d="M20.8633 52.2764C19.906 52.2764 19.027 52.9167 19.027 54.0427C19.027 55.1054 19.7494 55.731 20.7526 55.731C21.2859 55.731 21.6936 55.5117 21.9137 55.1054V55.6207H22.682V54.1355C22.682 52.9947 22.0542 52.275 20.8619 52.275L20.8633 52.2764ZM20.8633 55.3718C20.1571 55.3718 19.8277 54.9023 19.8277 54.0427C19.8277 53.2611 20.1571 52.6356 20.8633 52.6356C21.5694 52.6356 21.8827 53.2611 21.8827 54.0427C21.8827 54.8243 21.4587 55.3718 20.8633 55.3718Z" fill="#AE0025"/>
<path d="M17.0044 53.7777V55.622H17.8051V53.6835C17.8051 53.058 17.9468 52.6517 18.5895 52.6517C18.6678 52.6517 18.7624 52.6517 18.8569 52.6678V52.3396C18.684 52.2925 18.5112 52.2777 18.3397 52.2777C17.5715 52.2777 17.0057 52.7149 17.0057 53.779L17.0044 53.7777Z" fill="#AE0025"/>
<path d="M11.6063 55.3556C11.2134 55.3556 10.9785 55.1054 10.9785 54.3399V52.7606H12.0303V52.3853H10.9785V51.5728H10.1778V54.2148C10.1778 55.3718 10.8056 55.7309 11.4794 55.7309C11.8088 55.7309 12.1072 55.6368 12.326 55.4807C12.2477 55.4027 12.1842 55.3085 12.1531 55.2144C11.9965 55.3085 11.8237 55.3556 11.6036 55.3556H11.6063Z" fill="#AE0025"/>
<path d="M15.0723 44.6986C15.0723 45.1586 14.8387 45.7183 14.6713 46.0129C14.5794 46.177 14.5565 46.2147 14.5565 46.2402C14.5565 46.2577 14.5673 46.2739 14.5889 46.2739C14.6996 46.2739 15.6245 45.5649 16.2726 45.5649C16.6534 45.5649 17.0004 45.7667 17.0004 46.2416C17.0004 46.7164 16.6763 47.5061 15.5961 48.0819C15.5192 48.1236 15.3572 48.2083 15.2437 48.2689C15.0979 48.3455 15.0601 48.3832 15.0601 48.4316C15.0601 48.5541 15.4895 48.4949 15.4895 48.7464C15.4895 48.8796 15.3261 49.1016 14.8967 49.3397C14.5052 49.5576 13.9827 49.7365 13.3332 49.7365C12.8701 49.7365 12.6108 49.6464 12.5622 49.6464C12.5433 49.6464 12.5285 49.6518 12.5082 49.6706C12.4812 49.6935 12.1504 49.976 11.3795 49.976C10.4937 49.976 9.50133 49.6141 9.50133 49.2778C9.50133 49.1137 9.70926 49.0679 9.70926 49.033C9.70926 49.0182 9.68496 49.0128 9.67416 49.0101C8.43737 48.6778 7.04262 48.0213 7.04262 47.1362C7.04262 46.8913 7.21544 46.7649 7.46658 46.7649C7.90134 46.7649 8.50218 46.9653 8.63315 46.9653C8.66556 46.9653 8.67771 46.9478 8.67771 46.9303C8.67771 46.9061 8.65881 46.8792 8.621 46.8483C7.82843 46.177 7.49763 45.5609 7.49763 45.0443C7.49763 44.3771 7.98101 43.8712 8.6237 43.7448C9.80783 43.5121 10.5221 44.5196 11.154 45.3295C11.1715 45.3524 11.2039 45.3994 11.2431 45.3994C11.2917 45.3994 11.3039 45.3524 11.3484 45.1748C11.393 44.9972 11.4051 44.9421 11.4618 44.7147C11.6468 43.9654 12.0924 43.0157 13.3778 43.0157C14.1352 43.0157 15.0723 43.5255 15.0723 44.7013V44.6986ZM11.4065 46.3828C11.1675 46.3828 11.0406 46.2496 10.7962 45.9443C10.757 45.8958 10.5882 45.6914 10.545 45.6402C9.95365 44.93 9.52564 44.6084 9.03551 44.6084C8.73982 44.6084 8.2956 44.7739 8.2956 45.3349C8.2956 45.4089 8.30505 45.7237 8.61155 46.0963C9.00176 46.5712 9.56749 47.1994 9.6188 47.2586C9.67146 47.3191 9.69981 47.3823 9.69846 47.4388C9.69846 47.4698 9.68901 47.6083 9.45273 47.6083C9.21644 47.6083 8.21594 47.3151 7.86354 47.3151C7.70016 47.3151 7.59485 47.385 7.59485 47.5048C7.59485 47.8128 8.19839 48.4464 10.0968 48.8729C10.3358 48.9267 10.356 49.0114 10.356 49.041C10.356 49.1513 10.0603 49.2025 10.0603 49.3908C10.0603 49.6652 10.9528 49.7877 11.208 49.7877C11.663 49.7877 11.8871 49.6545 12.0573 49.5388C12.2017 49.4392 12.2854 49.4016 12.3813 49.4016C12.5852 49.4016 12.7756 49.528 13.394 49.528C14.146 49.528 14.9359 49.1366 14.9359 48.924C14.9359 48.8406 14.8103 48.8191 14.5295 48.7276C14.3823 48.6792 14.2972 48.62 14.2972 48.5285C14.2972 48.437 14.3688 48.3724 14.5821 48.281C14.809 48.1828 14.9724 48.1101 15.1398 48.0294C16.0552 47.5909 16.409 47.0541 16.4117 46.6667C16.413 46.4178 16.2699 46.2496 16.0363 46.2496C15.7285 46.2496 15.3909 46.4272 15.0628 46.5927C14.4471 46.9034 14.223 47.0218 14.007 47.0218C13.8544 47.0218 13.7828 46.8913 13.7815 46.8146C13.7815 46.7703 13.7882 46.7191 13.8085 46.664C13.8881 46.4501 13.9448 46.3061 14.0313 46.0761C14.1595 45.7384 14.3148 45.3524 14.3148 44.9703C14.3148 44.373 13.8503 43.9668 13.24 43.9668C12.5568 43.9668 12.2638 44.6084 12.091 45.1183C12.0438 45.2582 11.8642 45.8017 11.8088 45.9644C11.713 46.2496 11.586 46.3828 11.4038 46.3828H11.4065Z" fill="#AE0025"/>
<path d="M0.873542 41.2144H0.0512695C0.0512695 37.6158 2.99066 34.6872 6.60245 34.6872H45.9932V35.5065H6.60245C3.44298 35.5065 0.873542 38.0665 0.873542 41.2144Z" fill="#AE0025"/>
<path d="M5.03216 11.7575C2.88669 11.7575 1.49464 10.2172 1.49464 8.36878C1.49464 6.52041 2.9191 4.99625 5.05107 4.99625C6.35131 4.99625 7.33696 5.47112 8.11873 6.28769V4.80119C7.46253 4.14739 6.38777 3.78014 4.82693 3.78014C2.02797 3.78149 0.0512695 5.76707 0.0512695 8.36878C0.0512695 10.9705 2.02797 12.9709 4.84449 12.9709C6.30135 12.9709 7.50843 12.5888 8.2659 11.9377V10.4647C7.40852 11.3216 6.2892 11.7588 5.03216 11.7588V11.7575Z" fill="#AE0025"/>
<path d="M14.2338 3.7815C11.3322 3.7815 9.42437 5.73211 9.42437 8.3688C9.42437 11.0055 11.3322 12.9709 14.2338 12.9709C17.1354 12.9709 19.027 11.0041 19.027 8.3688C19.027 5.73346 17.1381 3.7815 14.2338 3.7815ZM14.2338 11.7575C12.1545 11.7575 10.8664 10.2333 10.8664 8.3688C10.8664 6.50428 12.1558 4.99626 14.2338 4.99626C16.3117 4.99626 17.6012 6.52043 17.6012 8.3688C17.6012 10.2172 16.3117 11.7575 14.2338 11.7575Z" fill="#AE0025"/>
<path d="M25.6133 3.78149C23.8432 3.78149 22.7441 4.7393 22.1932 5.97155V3.98731H20.7512V12.7677H22.1932V6.60651C22.8994 5.66349 23.912 5.01374 25.0975 5.01374C26.6786 5.01374 27.5022 5.90429 27.5022 7.42577V12.7664H28.9456V7.16882C28.9456 5.09714 27.7588 3.78014 25.6133 3.78014V3.78149Z" fill="#AE0025"/>
<path d="M35.7385 7.63295L33.3837 7.29125C32.4399 7.17018 31.9592 6.87961 31.9592 6.22985C31.9592 5.35544 32.903 4.91151 34.4328 4.91151C35.9626 4.91151 37.009 5.42405 37.7813 6.05901V4.65188C37.1103 4.15413 35.7047 3.7815 34.3991 3.7815C32.0794 3.7815 30.5847 4.68954 30.5847 6.29846C30.5847 7.56434 31.4624 8.2827 33.1272 8.54099L35.6007 8.91766C36.581 9.05353 37.0968 9.51764 37.0968 10.1997C37.0968 11.2786 36.0652 11.8274 34.5543 11.8274C33.0435 11.8274 31.7027 11.3297 30.551 10.4741V11.8839C31.4286 12.4314 32.9206 12.9709 34.5354 12.9709C36.7687 12.9709 38.4699 11.9445 38.4699 10.0961C38.4699 8.693 37.5261 7.8872 35.7398 7.6316L35.7385 7.63295Z" fill="#AE0025"/>
<path d="M46.7561 3.98732V10.1661C46.0702 11.0902 45.0913 11.74 43.9058 11.74C42.3072 11.74 41.5173 10.8346 41.5173 9.3441V3.98732H40.074V9.58221C40.074 11.6364 41.2081 12.9709 43.4062 12.9709C45.1399 12.9709 46.2066 11.9969 46.7548 10.7808V12.7664H48.1981V3.98732H46.7548H46.7561Z" fill="#AE0025"/>
<path d="M61.3612 5.21956V3.98731H57.5982V1.06005L56.1549 1.34928V3.98597H53.9378V5.21822H56.1549V9.823C56.1549 11.7575 57.1176 12.9373 59.1618 12.9373C59.9651 12.9373 60.6645 12.7678 61.0453 12.5471V11.2947C60.6119 11.5247 60.0637 11.6875 59.4021 11.6875C58.1491 11.6875 57.5996 10.9866 57.5996 9.73556V5.21822H61.3626L61.3612 5.21956Z" fill="#AE0025"/>
<path d="M67.0024 3.7815C64.0981 3.7815 62.1916 5.73211 62.1916 8.3688C62.1916 11.0055 64.0994 12.9709 67.0024 12.9709C69.9053 12.9709 71.7956 11.0041 71.7956 8.3688C71.7956 5.73346 69.9053 3.7815 67.0024 3.7815ZM67.0024 11.7575C64.9231 11.7575 63.635 10.2333 63.635 8.3688C63.635 6.50428 64.9244 4.99626 67.0024 4.99626C69.0803 4.99626 70.3684 6.52043 70.3684 8.3688C70.3684 10.2172 69.0817 11.7575 67.0024 11.7575Z" fill="#AE0025"/>
<path d="M74.9632 3.98731H73.5198V12.7677H74.9632V8.06072C75.988 6.80964 77.5731 6.02133 78.8531 5.46439V3.8205C77.4111 4.48909 75.7517 5.61641 74.9632 7.42711V3.98731Z" fill="#AE0025"/>
<path d="M81.1728 0.530048C80.5544 0.530048 80.1925 0.922861 80.1925 1.47038C80.1925 2.01789 80.5544 2.39456 81.1728 2.39456C81.7912 2.39456 82.1692 2.00175 82.1692 1.47038C82.1692 0.939004 81.7912 0.530048 81.1728 0.530048ZM80.4491 3.98734V12.7678H81.8924V3.98734H80.4491Z" fill="#AE0025"/>
<path d="M88.5476 3.7815C87.0245 3.7815 85.7391 4.22543 84.844 5.00837V6.38052C85.8093 5.49131 87.1217 4.98146 88.3761 4.98146C89.9747 4.98146 90.5067 5.68234 90.5067 6.79486V6.8971L86.9503 7.68541C84.9574 8.12934 83.7894 8.89883 83.7894 10.3732C83.7894 11.9633 84.767 12.9736 86.606 12.9736C88.4449 12.9736 89.9383 11.7763 90.5067 10.8172V12.7691H91.9487V6.74374C91.9487 4.7595 90.7646 3.78419 88.5476 3.78419V3.7815ZM90.5067 10.0638C89.7668 11.0553 88.4612 11.8597 87.0529 11.8597C85.8161 11.8597 85.2315 11.2772 85.2315 10.3194C85.2315 9.46383 85.9714 8.94995 87.2595 8.60825L90.5067 7.73384V10.0638Z" fill="#AE0025"/>
<path d="M53.6718 11.5947V12.909C53.4491 12.9507 53.1952 12.9722 52.9009 12.9722C51.8801 12.9722 51.2658 12.6776 50.9107 12.1409C50.5556 11.6055 50.4557 10.8266 50.4557 9.85933V0.273085L51.8977 0V9.77054H51.899C51.899 11.0216 51.8869 11.6364 53.1399 11.6364C53.341 11.6364 53.5152 11.6203 53.6718 11.5947Z" fill="#AE0025"/>
<path d="M8.07417 16.182V21.9841C7.55839 20.6994 6.27165 19.6904 4.46643 19.6904C1.71877 19.6904 0.0512695 21.6935 0.0512695 24.2777C0.0512695 26.8619 1.71877 28.8825 4.46643 28.8825C6.28785 28.8825 7.54219 27.8547 8.07417 26.5714V28.6753H9.51753V15.9076L8.07417 16.182ZM8.07417 25.7656C7.2843 26.9817 6.15013 27.6664 4.79453 27.6664C2.61125 27.6664 1.49599 26.0736 1.49599 24.2777C1.49599 22.4818 2.61125 20.9052 4.79453 20.9052C6.16768 20.9052 7.28565 21.5899 8.07417 22.806V25.7656Z" fill="#AE0025"/>
<path d="M20.5527 24.1741C20.5527 21.7284 18.9203 19.6904 16.0687 19.6904C13.2171 19.6904 11.2404 21.676 11.2404 24.2777C11.2404 26.8794 13.0794 28.8825 16.4279 28.8825C18.0414 28.8825 19.397 28.3699 20.1369 27.7565V26.309C19.2282 27.1552 17.986 27.7013 16.5156 27.7013C14.1447 27.7013 12.7864 26.4005 12.6837 24.5023H20.5514V24.1755L20.5527 24.1741ZM12.754 23.4221C13.0281 21.9316 14.1622 20.7679 16.0525 20.7679C17.9428 20.7679 18.8852 21.984 19.1445 23.4221H12.754Z" fill="#AE0025"/>
<path d="M30.1513 19.6904C28.365 19.6904 27.0756 20.6994 26.5436 21.9841V15.9076L25.1016 16.182V28.6753H26.5436V26.5714C27.0931 27.8534 28.3488 28.8825 30.1513 28.8825C32.9003 28.8825 34.5665 26.8619 34.5665 24.2777C34.5665 21.6935 32.9017 19.6904 30.1513 19.6904ZM29.8421 27.6664C28.4676 27.6664 27.3524 26.9817 26.5436 25.7656V22.806C27.3524 21.5899 28.4676 20.9052 29.8259 20.9052C32.024 20.9052 33.1245 22.4979 33.1245 24.2777C33.1245 26.0575 32.024 27.6664 29.8421 27.6664Z" fill="#AE0025"/>
<path d="M63.1894 27.4955L69.237 21.0074V19.8962H61.6097V21.076H67.4682L61.422 27.5453V28.6753H69.3072V27.4955H63.1894Z" fill="#AE0025"/>
<path d="M45.1048 24.1741C45.1048 21.7284 43.4724 19.6904 40.6208 19.6904C37.7692 19.6904 35.7925 21.676 35.7925 24.2777C35.7925 26.8794 37.6314 28.8825 40.9799 28.8825C42.5934 28.8825 43.949 28.3699 44.6889 27.7565V26.309C43.7803 27.1552 42.5381 27.7013 41.0677 27.7013C38.6968 27.7013 37.3384 26.4005 37.2358 24.5023H45.1035V24.1755L45.1048 24.1741ZM37.3047 23.4221C37.5788 21.9316 38.713 20.7679 40.6032 20.7679C42.4935 20.7679 43.436 21.984 43.6952 23.4221H37.3047Z" fill="#AE0025"/>
<path d="M60.0907 24.1741C60.0907 21.7284 58.4583 19.6904 55.6067 19.6904C52.755 19.6904 50.7784 21.676 50.7784 24.2777C50.7784 26.8794 52.6173 28.8825 55.9658 28.8825C57.5793 28.8825 58.9349 28.3699 59.6748 27.7565V26.309C58.7661 27.1552 57.524 27.7013 56.0536 27.7013C53.6826 27.7013 52.3243 26.4005 52.2217 24.5023H60.0893V24.1755L60.0907 24.1741ZM52.2919 23.4221C52.566 21.9316 53.7002 20.7679 55.5905 20.7679C57.4808 20.7679 58.4232 21.984 58.6824 23.4221H52.2919Z" fill="#AE0025"/>
<path d="M75.3493 19.6904C73.8263 19.6904 72.5409 20.1343 71.6457 20.9173V22.2894C72.6111 21.4002 73.9235 20.8904 75.1778 20.8904C76.7765 20.8904 77.3085 21.5912 77.3085 22.7038V22.806L73.752 23.5943C71.7591 24.0382 70.5912 24.8077 70.5912 26.2821C70.5912 27.8722 71.5688 28.8825 73.4077 28.8825C75.2467 28.8825 76.74 27.6852 77.3085 26.726V28.678H78.7505V22.6526C78.7505 20.6684 77.5664 19.6931 75.3493 19.6931V19.6904ZM77.3085 25.9727C76.5686 26.9642 75.2629 27.7686 73.8547 27.7686C72.6179 27.7686 72.0332 27.1861 72.0332 26.2283C72.0332 25.3727 72.7731 24.8588 74.0612 24.5171L77.3085 23.6427V25.9727Z" fill="#AE0025"/>
<path d="M49.9682 27.5036V28.8179C49.7455 28.8596 49.4916 28.8811 49.1973 28.8811C48.1765 28.8811 47.5622 28.5865 47.2071 28.0498C46.852 27.5144 46.7521 26.7355 46.7521 25.7682V16.182L48.1941 15.9089V25.6794H48.1954C48.1954 26.9305 48.1833 27.5453 49.4363 27.5453C49.6374 27.5453 49.8116 27.5292 49.9682 27.5036Z" fill="#AE0025"/>
</svg>
