<?xml version="1.0" encoding="UTF-8"?><svg id="Layer_1" xmlns="http://www.w3.org/2000/svg" width="1167.87" height="365.56" viewBox="0 0 1167.87 365.56"><rect x="413" y="47.24" width="18.36" height="315.75" style="fill:#fff;"/><g><g><path d="m574.91,96.07c-2.45,1.32-6.22,1.79-9.33,1.79-14.89,0-26.07-10.98-26.07-25.67s11.18-25.67,26.13-25.67c3.11,0,6.81.53,9.26,1.72v10.78c-2.45-1.26-5.23-1.85-8.6-1.85-8.73,0-15.22,6.15-15.22,15.02s6.48,14.95,15.22,14.95c3.37,0,6.15-.53,8.6-1.72v10.65Z" style="fill:#fff;"/><path d="m583.38,72.18c0-14.62,10.98-25.67,25.87-25.67s26,11.05,26,25.67-10.92,25.74-26,25.74-25.87-11.11-25.87-25.74Zm40.36,0c0-8.67-6.02-15.15-14.49-15.15s-14.36,6.48-14.36,15.15,5.95,15.08,14.36,15.08,14.49-6.55,14.49-15.08Z" style="fill:#fff;"/><path d="m691.94,47.24v50.02h-1.26l-33.15-28.25v27.85h-11.31v-50.02h1.26l33.08,28.05v-27.65h11.38Z" style="fill:#fff;"/><path d="m704.04,94.87v-10.06c2.18,1.65,5.62,3.31,10.06,3.31,6.15,0,8.87-3.11,8.87-6.15,0-2.51-1.39-4.63-5.03-6.42l-4.96-2.45c-5.43-2.78-9-6.48-9-12.31,0-8.27,7.34-14.29,18.86-14.29,4.3,0,7.61.79,9.33,1.79v10.06c-1.79-1.19-4.9-2.25-8.14-2.25-5.03,0-8.01,1.98-8.01,5.09,0,2.05,1.26,3.44,4.3,4.9l4.76,2.38c6.48,3.18,9.46,7.61,9.46,13.56,0,8.6-6.15,15.88-19.25,15.88-4.63,0-8.73-1.26-11.25-3.04Z" style="fill:#fff;"/><path d="m744.66,75.69v-28.45h11.58v28.51c0,6.88,4.1,11.58,10.98,11.58s11.05-4.7,11.05-11.58v-28.51h11.58v28.45c0,13.63-8.93,22.23-22.63,22.23s-22.56-8.6-22.56-22.23Z" style="fill:#fff;"/><path d="m829.41,86.8v10.06h-26.27v-49.62h11.58v39.56h14.69Z" style="fill:#fff;"/><path d="m841.91,57.3h-11.05v-10.06h33.61v10.06h-10.98v39.56h-11.58v-39.56Z" style="fill:#fff;"/><path d="m868.7,72.18c0-14.62,10.98-25.67,25.87-25.67s26,11.05,26,25.67-10.92,25.74-26,25.74-25.87-11.11-25.87-25.74Zm40.36,0c0-8.67-6.02-15.15-14.49-15.15s-14.36,6.48-14.36,15.15,5.95,15.08,14.36,15.08,14.49-6.55,14.49-15.08Z" style="fill:#fff;"/><path d="m960.79,96.86l-7.67-14.29c-1.12.07-2.32.13-3.57.13-2.38,0-4.43-.2-6.29-.53v14.69h-11.71v-49.62h20.38c12.97,0,20.44,6.35,20.44,17,0,7.08-3.11,12.24-8.47,15.22l9.46,17.4h-12.57Zm-.26-32.02c0-4.63-2.65-7.48-9.73-7.48h-7.54v15.41c1.79.33,3.77.46,5.95.46,7.81,0,11.31-2.91,11.31-8.4Z" style="fill:#fff;"/><path d="m983.35,47.24h11.51v49.62h-11.51v-49.62Z" style="fill:#fff;"/><path d="m1037.98,89.13h-17.53l-3.11,7.73h-12.57l23.75-49.59h1.32l23.75,49.59h-12.5l-3.11-7.73Zm-8.8-22.31l-5.49,13.76h11.05l-5.56-13.76Z" style="fill:#fff;"/></g><path d="m1125.49,72.14c0,15.42-11.28,26.23-28.97,26.23-6.74,0-13.22-1.13-16.22-2.27v-48.86h17.62c16.69,0,27.57,10.61,27.57,24.9Zm-11.75.27c0-8.14-5.61-14.89-15.62-14.89h-6.61v30.04c2.07.27,4.41.47,6.54.47,10.28,0,15.69-6.81,15.69-15.62Z" style="fill:#fff;"/><path d="m1167.87,86.8v10.05h-33.59v-49.61h33.12v10.05h-22.19v9h21.12v9.39h-21.12v11.11h22.66Z" style="fill:#fff;"/><path d="m613.2,243c7.89-7.13,13.45-13.72,16.64-19.76,3.78-7.15,5.67-14.5,5.67-22.06v-5.46c0-12.88-4.7-23.12-14.08-30.68-9.39-7.57-21.79-11.35-37.19-11.35h-44.13v209.3h49.59c15.41-.28,27.67-5.11,36.77-14.5,9.1-9.38,13.66-22.06,13.66-38.04v-10.51c0-12.33-3.15-23.96-9.46-34.88-4.81-8.33-10.64-15.68-17.48-22.06Zm-31.48-65.36c6.72,0,12.25,2.04,16.6,6.09,4.34,4.06,6.51,9.46,6.51,16.18v3.78c0,6.72-1.2,12.4-3.57,17.02-2.38,4.62-7.08,10.02-14.08,16.18l-15.13,13.45c-.72.64-1.42,1.31-2.1,1.99v-74.7h11.77Zm26.9,134.49c0,8.13-2.31,14.64-6.93,19.54-4.62,4.91-10.86,7.35-18.7,7.35h-13.03v-37.4c0-9.8,1.26-16.95,3.78-21.43,2.52-4.48,7.99-10.36,16.39-17.65l3.82-3.21c4.95,4.89,8.44,9.81,10.47,14.77,2.8,6.87,4.2,16.75,4.2,29.63v8.41Z" style="fill:#fff;"/><path d="m708.67,150.75c-14.55,0-26.16,4.2-34.82,12.59-8.67,8.39-13.01,20.98-13.01,37.76v114.12c0,17.06,4.05,29.72,12.17,37.97,8.11,8.25,19.44,12.38,33.98,12.38s25.73-4.47,34.4-13.43c8.67-8.95,13.01-21.95,13.01-39.02v-16.36h-30.21v19.3c0,7.83-1.4,14.05-4.2,18.67-2.8,4.61-7.13,6.92-13.01,6.92s-9.72-1.74-12.38-5.24c-2.66-3.49-3.99-8.88-3.99-16.15v-1.26c0-6.71.27-12.02.84-15.94.56-3.91,1.95-7.69,4.2-11.33,2.24-3.63,5.73-7.27,10.49-10.91l20.14-15.94c10.07-7.83,17.62-16.15,22.66-24.96,5.03-8.81,7.55-18.81,7.55-30v-8.81c0-17.34-3.99-30.06-11.96-38.18-7.97-8.11-19.93-12.17-35.87-12.17Zm16.36,59.58c0,8.39-1.26,15.6-3.78,21.61-2.52,6.02-7.13,11.96-13.85,17.83l-13.85,11.75c-.6.48-1.15,1-1.68,1.55v-66.16c0-7.27,1.47-12.8,4.41-16.57,2.94-3.78,7.06-5.66,12.38-5.66s9.37,1.89,12.17,5.66c2.79,3.78,4.2,9.3,4.2,16.57v13.43Z" style="fill:#fff;"/><path d="m813.23,328.64v-174.95h-31.05v176.21c0,11.47,2.79,20.28,8.39,26.43,5.59,6.16,13.56,9.23,23.91,9.23,6.15,0,11.6-1.12,16.36-3.36v-20.14h-6.29c-7.55,0-11.33-4.47-11.33-13.43Z" style="fill:#fff;"/><path d="m899.49,150.75c-14.55,0-26.16,4.2-34.82,12.59-8.67,8.39-13.01,20.98-13.01,37.76v114.12c0,17.06,4.05,29.72,12.17,37.97,8.11,8.25,19.44,12.38,33.98,12.38s25.73-4.47,34.4-13.43c8.67-8.95,13.01-21.95,13.01-39.02v-16.36h-30.21v19.3c0,7.83-1.4,14.05-4.2,18.67-2.8,4.61-7.13,6.92-13.01,6.92s-9.72-1.74-12.38-5.24c-2.66-3.49-3.99-8.88-3.99-16.15v-1.26c0-6.71.27-12.02.84-15.94.56-3.91,1.95-7.69,4.2-11.33,2.24-3.63,5.73-7.27,10.49-10.91l20.14-15.94c10.07-7.83,17.62-16.15,22.66-24.96,5.03-8.81,7.55-18.81,7.55-30v-8.81c0-17.34-3.99-30.06-11.96-38.18-7.97-8.11-19.93-12.17-35.87-12.17Zm16.36,59.58c0,8.39-1.26,15.6-3.78,21.61-2.52,6.02-7.13,11.96-13.85,17.83l-13.85,11.75c-.6.48-1.15,1-1.68,1.55v-66.16c0-7.27,1.47-12.8,4.41-16.57,2.94-3.78,7.06-5.66,12.38-5.66s9.37,1.89,12.17,5.66c2.79,3.78,4.2,9.3,4.2,16.57v13.43Z" style="fill:#fff;"/><path d="m1001.52,331.95c0-6.15.98-12.16,2.94-18.04,1.95-5.87,5.31-13.42,10.07-22.65l32.3-60.4c4.75-8.95,7.97-17.83,9.65-26.63,1.68-8.81,2.52-19.5,2.52-32.09v-18.46h-85.99v25.17h56.21v6.71c0,5.87-.91,11.32-2.73,16.36-1.82,5.03-4.97,12.16-9.44,21.39l-1.68,2.94-31.46,59.98c-4.76,8.95-8.04,17.97-9.86,27.05-1.82,9.09-2.73,19.92-2.73,32.51v17.2h88.5v-25.17h-58.3v-5.87Z" style="fill:#fff;"/><path d="m1155.91,163.13c-7.97-8.25-19.23-12.38-33.77-12.38s-26.08,4.48-34.61,13.43c-8.54,8.95-12.8,21.96-12.8,39.02v16.36h29.79v-19.3c0-7.83,1.4-14.05,4.2-18.67,2.79-4.62,7.27-6.92,13.43-6.92,5.59,0,9.65,1.75,12.17,5.24,2.52,3.5,3.78,8.88,3.78,16.15v1.26c0,6.71-.28,12.03-.84,15.94-.56,3.92-1.96,7.7-4.2,11.33-2.24,3.64-5.6,7.28-10.07,10.91l-20.14,15.94c-10.07,7.83-17.62,16.15-22.66,24.96-5.03,8.81-7.55,18.81-7.55,30v8.81c0,17.35,3.99,30.07,11.96,38.18,7.97,8.12,19.78,12.17,35.45,12.17,14.82,0,26.5-4.2,35.03-12.59,8.53-8.39,12.8-20.98,12.8-37.76v-114.12c0-17.06-3.99-29.72-11.96-37.97Zm-23.07,172.86c-2.94,3.78-7.21,5.66-12.8,5.66s-9.3-1.89-11.96-5.66c-2.66-3.78-3.99-9.3-3.99-16.57v-13.43c0-8.39,1.19-15.59,3.57-21.61,2.37-6.01,6.92-11.96,13.64-17.83l14.26-11.75c.6-.56,1.15-1.15,1.68-1.76v66.37c0,7.28-1.47,12.8-4.4,16.57Z" style="fill:#fff;"/></g><g><g><path d="m104.82,362.99l-30.86-64.51h8.39c3.83,0,7.31,2.21,8.94,5.68l16.96,36.14,16.83-36.12c1.62-3.48,5.11-5.7,8.95-5.7h8.45l-30.85,64.51h-6.8Z" style="fill:#fff;"/><path d="m38.6,298.47h-6.93L0,362.99h7.67c3.83,0,7.13-1.9,9.4-5.67l6.66-12.89c11.82,1.45,22.32,5.83,31.77,18.56h14.86l-31.75-64.51Zm-3.44,22.17l8.4,17.72c-4.62-2.19-9.52-3.8-14.57-4.76l6.16-12.96Z" style="fill:#fff;"/><path d="m298.09,298.47c-3.75,0-6.79,3.04-6.79,6.8l.04,34.03-33.69-40.83h-9.99v64.51h6.17c3.75,0,6.79-3.04,6.79-6.8l-.03-33.96,27.62,33.58s5.4,7.17,13.3,7.17h2.76v-64.51h-6.17Z" style="fill:#fff;"/><path d="m189.78,352.05c-11.8,0-21.37-9.7-21.16-21.55s11.16-21.73,22.98-20.73c10.84.92,19.38,10.04,19.38,21.11,0,11.67-9.51,21.16-21.2,21.16m24.26-45.22c-6.37-6.31-14.76-9.64-24.26-9.64s-17.84,3.33-24.26,9.64c-6.44,6.34-9.99,14.89-9.99,24.06s3.54,17.54,9.99,23.9c6.57,6.45,14.97,9.86,24.26,9.86s17.76-3.5,24.21-9.83c6.54-6.27,10.15-14.76,10.15-23.92s-3.59-17.71-10.09-24.06" style="fill:#fff;"/></g><g><path d="m35.15,161.77c17.09,0,24.95,10.87,24.95,21.26v22.91h-10.73v-22.91c0-6.59-3.72-17.13-14.22-17.13-10.32,0-14.14,10.54-14.14,17.13,0,6.46-.06,22.91-.06,22.91h-10.78v-22.91c0-10.39,7.96-21.26,24.98-21.26" style="fill:#fff;"/><path d="m183.67,206.56c-17.15,0-25-10.74-25-21.13v-22.97h10.81v22.97c0,6.5,3.69,17.15,14.2,17.15,10.39,0,14.21-10.65,14.21-17.15v-22.97h10.7v22.97c0,10.39-7.85,21.13-24.92,21.13" style="fill:#fff;"/><path d="m103.72,202.77c-2.22,1.83-5.07,3.17-8.73,3.61-10.93,1.8-26.07-5.28-26.69-21.17-.59-16.29,15.41-23.05,25.87-22.82,17.59.48,23.79,13.73,23.79,21.3v22.26h-10.79v-22.11c0-4.87-2.13-17.15-13.36-17.52-10.92-.33-14.4,9.87-14.49,17.37,0,4.83,1.15,16.73,13.63,17.44,3.82.06,9.26-.89,10.77-2.18v3.83Z" style="fill:#fff;"/><path d="m151.97,212.31c-1.43.48-5.35,1.44-9.87.24-5.15-1.26-13.55-3.72-13.55-20.96v-48.25h10.98v19.23s10.03,0,10.03,0v6.64h-10.03s.33,13.67,0,24.54c-.17,9.74,2.7,13.17,4.93,14.22,2.65,1.33,7,.83,7.5.45v3.89Z" style="fill:#fff;"/><path d="m218.86,181.62c0-10.81,5.56-18.28,15.3-19.23,6.89-.85,9.39.56,9.39.56v4.23s-3.66-.89-7.67.2c-4.34,1.48-6.06,8.13-6.06,10.42-.01,7.86,0,28.35,0,28.35h-10.96v-24.53" style="fill:#fff;"/><path d="m279.84,202.77c-2.28,1.8-5.16,3.17-8.75,3.61-10.89,1.8-26.04-5.28-26.66-21.17-.54-16.29,15.39-23.09,25.87-22.82,17.62.48,23.79,13.73,23.79,21.3v22.26h-10.77v-22.11c0-4.87-2.23-17.15-13.37-17.54-10.91-.3-14.36,9.89-14.36,17.39,0,4.83.85,16.68,13.52,17.44,3.87.06,9.27-.89,10.73-2.18v3.83Z" style="fill:#fff;"/><path d="m179.72,19.57c-14.26-4.32-23.09,6.1-27.02,19.48-3.36,10.68-4.03,13.61-5.9,19.19-2.78,7.76-9.39,8.26-14.39,2.29-5.85-7.07-13.57-17.57-17.89-22.59-5.7-6.64-19.53-12.28-26.44-3.63-10.54,13.06,3.43,27.67,10.83,36.38,5.15,6.26,11.22,10.48,9.3,13.99-.86,1.28-2.33,1.74-4.54,1.74-5.17-.11-22.11-4.75-26.08-5.46-3.32-.71-5.81-.54-6.75,2.04-1.19,2.98,3.07,11.63,14.11,17.33,11.04,5.7,28.78,8.44,30.47,8.85,6.42,1.37,5.2,4.62,3.59,6.09-1.42,1.57-3.19,2.63-2.87,4.22,1,4.11,9.72,4.97,14.97,5.82,5.02.89,11.46,1.35,16.13-.59,4.53-1.75,4.81-4.32,7.91-5.41,4.13-1.59,5.55-.26,14.42,1.48,5.73,1.06,15.89-.39,21.35-2.18,10.3-3.37,14.56-6.76,14.56-8.3,0-1.3-1.78-1.8-3.67-1.92-2.22-.35-9.64-1.57-12.19-3.24-2.44-1.69-.5-4.56,4.52-6.56,5.32-2.13,22.11-9.15,28.4-14.76,6.35-5.61,12.3-15.09,7.06-20.55-5.28-5.53-14.61.09-19.58,2.35-6.76,3.26-17.53,8.74-21.22,9.57-3.24.8-9.35.56-6.55-6.81,3.54-9.1,5.2-14.71,7.37-20.19,2.72-6.76,6.54-23.56-9.92-28.63m62.56,45.29c-4.56,19.36-27.31,30.81-29.5,32.09-2.28,1.13-5.07,2.3-6.07,2.95-.41.26-.69.53.14.79,2.43.65,10.48.15,10.34,3.58-.04,3.68-6.1,9.7-21.62,16.33-16.94,7.29-31.07,3.94-34.64,3.13l-.31.09c-.94,1.03-8.83,8.59-31.2,4.72-16.03-2.8-20.05-4.39-23.79-8.63-1.01-1.33-1.69-3.51-.24-6.35.24-.7.31-1.09-.12-1.24-24.35-4.96-39.06-20.31-44.55-30.05-2.68-4.91-1.8-8.18-.41-10.24,1.92-2.93,8.35-3.13,15.06-1.48,7.42,2.04,11.59,3.01,13.16,3.39.53.21.56,0,.33-.39-1.89-2.29-8.48-10.59-11.92-15.91-5.5-8.74-12.61-32.03,5.63-41.68,20.31-10.57,38.06,8.06,41.98,12.93,3.46,4.22,10.45,13.57,10.98,14.52.89,1.5,1.34.26,1.34.26,0,0,4.74-17.19,8.91-25.07C153.1,4.59,168.15-1.91,181.23.49c24.98,4.67,25.92,29.87,23.94,39.13-1.78,8.03-5.11,16.61-6.08,18.77-.18.41,0,.48.33.26,1.92-.89,10.83-5.25,20.35-9.33,9.5-3.98,26.98-3.86,22.52,15.54" style="fill:#fff;"/></g></g></svg>