<svg width="256" height="82" viewBox="0 0 256 82" fill="none" xmlns="http://www.w3.org/2000/svg"><g clip-path="url(#a)"><path d="M14.928 36.73a137.814 137.814 0 0 0-7.803 21.96 16.278 16.278 0 0 0-3.435-.492c-1.243.05-2.48.215-3.692.492C7.459 42.436 19.865 15.09 25.815 0c.693.138 1.396.22 2.102.246A6.695 6.695 0 0 0 29.769 0c6.45 17.62 24.977 58.367 25.152 58.69a26.014 26.014 0 0 0-4.951-.492 31.76 31.76 0 0 0-5.369.492 153.224 153.224 0 0 0-8.469-21.96H14.928zm10.484-24.99-8.815 20.8h17.867l-9.052-20.8zM68.417 38.322c0 2.349 0 7.125 2.261 10.973a12.8 12.8 0 0 0 11.74 6.545 15.687 15.687 0 0 0 13.34-6.777l1.009.232a27.06 27.06 0 0 0-.595 5.031c-3.685 3.529-8.805 5.463-15.596 5.463-12.747 0-20.545-8.049-20.545-20.972 0-11.569 6.373-21.292 20.131-21.292 18.693 0 18.439 16.27 18.363 20.8l-30.108-.003zm21.72-3.528c0-2.767 0-13.921-10.06-13.921-7.298 0-10.822 5.538-11.578 13.92h21.638zM130.459 27.247a7.816 7.816 0 0 0-3.265-5.023 9.678 9.678 0 0 0-5.45-1.429c-5.112 0-7.794 2.683-7.794 6.284 0 4.866 4.951 6.63 7.877 7.385 7.464 1.927 13.51 3.529 13.51 11.911 0 6.373-4.452 13.495-16.107 13.495a22.744 22.744 0 0 1-12.403-3.514c.947-2.14 1.595-4.4 1.926-6.717l1.001-.246a10.101 10.101 0 0 0 4.533 5.539 11.75 11.75 0 0 0 6.118 1.587c4.365 0 8.469-2.092 8.469-6.873 0-4.782-2.851-5.705-11.649-8.55-3.611-1.18-9.566-3.78-9.566-11.155 0-4.772 2.938-12.486 14.515-12.486 3.864-.069 7.68.88 11.06 2.753a24.503 24.503 0 0 0-1.675 7.046l-1.1-.007zM187.065 38.15c0 13.336-9.224 21.718-21.956 21.718-8.902 0-21.31-4.03-21.31-21.223 0-13.07 8.718-21.199 21.31-21.199 15.916.001 21.956 10.483 21.956 20.704zm-34.717.255c0 11.657 5.117 18.108 12.83 18.108 8.054 0 13.336-6.957 13.336-18.028 0-6.54-2.014-17.69-12.923-17.69-13.244-.001-13.244 15.086-13.244 17.61h.001zM219.182 59.953c-7.891 0-12.324-4.353-13.671-7.793 0 13.154-.082 20.8.423 28.5a15.319 15.319 0 0 0-4.367-.491 16.491 16.491 0 0 0-4.522.492c.668-10.895.919-21.876.919-32.78 0-7.631-.162-17.946-.422-30.102a18.77 18.77 0 0 0 4.112.492c1.384-.02 2.76-.185 4.108-.492-.333 4.609-.333 5.862-.333 7.63a15.5 15.5 0 0 1 14.246-8.049c8.388 0 18.628 6.118 18.628 21.046-.001 13.243-8.143 21.547-19.121 21.547zm-10.398-34.04c-1.68 2.092-3.446 5.115-3.446 13.415 0 7.376 1.675 10.151 3.446 12.236a10.977 10.977 0 0 0 8.88 4.117c11.994 0 11.994-14.17 11.994-16.861 0-12.663-6.04-17.258-11.483-17.258a11.336 11.336 0 0 0-9.391 4.35zM92.09 9.669H68.918V7.05H92.09V9.67zM250.513 48.563a5.5 5.5 0 1 1-5.467 5.501 5.433 5.433 0 0 1 3.364-5.088 5.441 5.441 0 0 1 2.103-.413zm0 .984a4.513 4.513 0 0 0 0 9.028 4.518 4.518 0 0 0 4.441-4.514 4.518 4.518 0 0 0-4.441-4.514zm2.976 7.478a4.488 4.488 0 0 0-.627-.065c-.213 0-.426.042-.761.065a30.935 30.935 0 0 0-2.451-3.036h-.204c0 .951 0 1.69.079 3.036a5.796 5.796 0 0 0-.7-.065 2.987 2.987 0 0 0-.58.065c.09-1.07.124-2.143.102-3.217 0-1.556-.032-2.321-.07-2.98.464.019.794.019 1.504.019 1.537 0 3.105-.019 3.105 1.467 0 1.295-1.402 1.494-2.02 1.554.404.558 2.275 2.661 2.67 3.059l-.047.098zm-4.019-5.746c-.024.827-.024 1.56-.024 2.288.664 0 2.251 0 2.251-1.183.001-1.102-1.221-1.102-2.227-1.102v-.003z" fill="#000"/></g><defs><clipPath id="a"><path fill="#fff" d="M0 0H256V81.231H0z"/></clipPath></defs></svg>