<?xml version="1.0" encoding="UTF-8"?><svg id="Camada_2" width="256" height="256" xmlns="http://www.w3.org/2000/svg" viewBox="0 0 256 256"><defs><style></style></defs><g id="Artwork"><path  d="m0,0h256v256H0V0Z" fill="#e5004b"/><path fill="#ffffff" d="m35.61,230.54l4.24-9.64c1.1-.16,2.17-.29,3.19-.37,1.02-.08,2-.12,2.95-.12,2.05,0,3.92.19,5.62.58,1.7.39,3.25,1,4.67,1.84,1.41.84,2.7,1.89,3.87,3.16,1.17,1.27,2.26,2.78,3.28,4.54h9.33l-20.01-42.97h-6.45l-20.01,42.97h9.33Zm13.93-31.67l7.73,17.06c-1.15-.82-2.58-1.45-4.3-1.9-1.72-.45-3.77-.67-6.14-.67-1.15,0-2.39.06-3.74.18l6.45-14.67Zm47.94,31.67l19.83-42.97h-9.82l-13.01,29.77-12.95-29.77h-10.01l19.52,42.97h6.45Zm48.8,1.66c3.4,0,6.55-.58,9.45-1.75,2.9-1.17,5.42-2.79,7.55-4.88,2.13-2.09,3.8-4.54,5-7.37,1.21-2.82,1.81-5.89,1.81-9.21s-.6-6.32-1.81-9.15c-1.21-2.82-2.88-5.27-5-7.34-2.13-2.07-4.65-3.68-7.55-4.85-2.91-1.17-6.06-1.75-9.45-1.75s-6.55.58-9.45,1.75c-2.91,1.17-5.42,2.78-7.55,4.85-2.13,2.07-3.8,4.51-5,7.34-1.21,2.82-1.81,5.87-1.81,9.15s.6,6.38,1.81,9.21c1.21,2.82,2.87,5.28,5,7.37,2.13,2.09,4.64,3.71,7.55,4.88,2.9,1.17,6.06,1.75,9.45,1.75Zm0-7.98c-2.13,0-4.08-.38-5.86-1.14-1.78-.76-3.33-1.81-4.63-3.16-1.31-1.35-2.33-2.97-3.07-4.85-.74-1.88-1.1-3.93-1.1-6.14s.37-4.17,1.1-6.02,1.76-3.43,3.07-4.76c1.31-1.33,2.85-2.37,4.63-3.13,1.78-.76,3.73-1.14,5.86-1.14s4.08.38,5.86,1.14c1.78.76,3.32,1.8,4.63,3.13,1.31,1.33,2.33,2.92,3.07,4.76s1.1,3.85,1.1,6.02-.37,4.31-1.1,6.17c-.74,1.86-1.76,3.47-3.07,4.82-1.31,1.35-2.85,2.4-4.63,3.16-1.78.76-3.74,1.14-5.86,1.14Zm37.14-36.65v42.97h8.84v-27.32l23.14,27.32h6.88v-42.97h-8.84v27.32l-23.14-27.32h-6.88Z"/></g></svg>