<svg xmlns="http://www.w3.org/2000/svg" width="256" height="56.757" viewBox="0 0 256 56.757"><path fill="#000000" d="M88.189,55.361,62.224,1.084h7.058A8.3,8.3,0,0,1,76.8,5.87L91.074,36.278,105.235,5.87a8.3,8.3,0,0,1,7.528-4.786h7.112L93.923,55.361Zm-63.8-24.723a50.8,50.8,0,0,1,12.255,4.005l-7.071-14.9ZM59.176,55.361H46.691c-7.947-10.7-16.78-14.391-26.728-15.624l-5.6,10.837a9.012,9.012,0,0,1-7.907,4.764H0L26.642,1.079H32.48ZM250.807,1.084A5.711,5.711,0,0,0,245.1,6.8l.031,28.633L216.783,1.084h-8.409V55.361h5.211a5.711,5.711,0,0,0,5.712-5.717l-.031-28.574,23.218,28.254s4.548,6.037,11.19,6.037H256V1.084ZM188.578,28.358a27.6,27.6,0,0,1-8.534,20.126,28.9,28.9,0,0,1-20.366,8.272A28.455,28.455,0,0,1,139.264,8.105a29.725,29.725,0,0,1,40.825.023,28.075,28.075,0,0,1,8.49,20.23Zm-11.068,0a17.849,17.849,0,1,0-5.237,12.586A17.822,17.822,0,0,0,177.51,28.358Z"/></svg>