<?xml version="1.0" encoding="UTF-8"?><svg id="Camada_2" xmlns="http://www.w3.org/2000/svg" width="256" height="111.51" viewBox="0 0 256 111.51"><g id="Camada_1-2"><path d="m211.52,34.46c0,9.21,6.9,14.27,16.31,14.27,6.85,0,10.86-1.31,14.48-4.4l5,4.93,7.63-7.23-5.46-5.33c2.3-3.09,3.35-7.63,3.35-11.65h-10.32c.07,1.78-.13,3.16-.53,4.28l-4.87-4.74c4.8-2.37,8.48-7.17,8.48-11.38,0-8.48-6.57-12.75-13.94-12.75-7.83,0-15.92,4.21-15.92,12.29,0,3.62,1.05,5.86,4.21,9.34-4.74,2.5-8.42,7.11-8.42,12.37h0Zm22.76-21.39c0,2.11-1.25,4.61-3.49,5.59-1.91-1.71-3.16-3.03-3.16-5.4,0-1.97,1.18-3.75,3.55-3.75,2.11,0,3.1,1.65,3.1,3.55h0Zm-9.94,20.27c0-1.84.99-3.36,2.57-4.21l.33.33,7.7,7.57c-1.18.92-2.7,1.38-4.28,1.38-3.16,0-6.32-1.78-6.32-5.07h0Z"/><path d="m1.12,110.46h37.33v-11.01H14.25v-6.33h18.73v-10.68H14.25v-7.45h22.82v-11.01H1.12v46.49h0Zm64.76,1.06c6.46,0,11.21-1.31,14.25-3.92,3.03-2.62,4.55-6.45,4.55-11.51,0-4.44-1.25-7.73-3.76-9.86-2.51-2.13-6.24-3.68-11.21-4.65-3.65-.75-6.17-1.41-7.55-1.98-1.38-.57-2.08-1.43-2.08-2.57,0-.97.43-1.66,1.28-2.08.86-.42,2.1-.63,3.73-.63,3.47,0,7.65.9,12.53,2.7l5.41-10.42c-4.97-2.42-10.99-3.63-18.07-3.63-6.15,0-10.8,1.33-13.95,3.99-3.14,2.66-4.72,6.39-4.72,11.18,0,3.08.73,5.6,2.18,7.55,1.45,1.96,3.44,3.49,5.97,4.58,2.53,1.1,5.73,2.02,9.59,2.77,2.46.48,4.19,1.03,5.18,1.65.99.62,1.48,1.47,1.48,2.57,0,2.07-1.8,3.1-5.41,3.1-2.24,0-4.77-.38-7.58-1.15-2.81-.77-5.23-1.72-7.25-2.87l-4.95,10.68c3.12,1.54,6.29,2.67,9.5,3.4,3.21.73,6.84,1.09,10.88,1.09h0Zm37.52-1.06h13.52v-35.28h13.58v-11.21h-40.75v11.21h13.65v35.28h0Zm36.27,0h13.52v-46.49h-13.52v46.49h0Zm25.19,0h35.48v-11.67h-21.96v-34.82h-13.52v46.49h0Zm66.27,1.06c4.97,0,9.33-1.02,13.09-3.07,3.76-2.04,6.66-4.91,8.7-8.61,2.05-3.69,3.07-7.89,3.07-12.6s-1.02-8.96-3.07-12.63c-2.04-3.67-4.94-6.54-8.7-8.61-3.76-2.07-8.12-3.1-13.09-3.1s-9.33,1.03-13.09,3.1c-3.76,2.07-6.66,4.94-8.71,8.61-2.04,3.67-3.07,7.88-3.07,12.63s1.02,8.9,3.07,12.6c2.05,3.69,4.95,6.56,8.71,8.61,3.76,2.04,8.12,3.07,13.09,3.07h0Zm0-12c-3.25,0-5.88-1.13-7.88-3.4-2-2.26-3-5.22-3-8.87s1-6.62,3-8.9c2-2.29,4.63-3.43,7.88-3.43s5.95,1.13,7.95,3.4c2,2.26,3,5.24,3,8.94s-1,6.61-3,8.87c-2,2.26-4.65,3.4-7.95,3.4h0Z"/><path d="m24.73,48.54c4.66,0,8.66-.77,12-2.31,3.34-1.54,6.2-3.74,8.57-6.59l-10.35-8.44c-.97,1.67-2.27,2.97-3.89,3.89-1.63.92-3.54,1.39-5.74,1.39-3.65,0-6.46-1.09-8.44-3.26-1.98-2.18-2.97-5.18-2.97-9s.99-6.74,2.97-8.87c1.98-2.13,4.79-3.2,8.44-3.2,2.15,0,4.04.46,5.67,1.38,1.63.92,2.95,2.22,3.96,3.89l10.35-8.44c-2.33-2.81-5.24-5.01-8.74-6.59-3.5-1.58-7.44-2.37-11.84-2.37-5.14,0-9.57.97-13.29,2.9-3.72,1.94-6.55,4.73-8.51,8.37-1.96,3.65-2.94,7.96-2.94,12.93s.98,9.34,2.94,12.99c1.96,3.65,4.79,6.45,8.51,8.41,3.71,1.96,8.14,2.93,13.29,2.93h0Zm60.74-1.05h14.38L77.36.86h-7.26l-22.42,46.62h14.31l2.9-6.66h17.67l2.9,6.66h0Zm-11.74-29.61l4.94,12.79h-9.89l4.95-12.79h0Zm51.77,30.66c6.46,0,11.21-1.31,14.24-3.92,3.03-2.62,4.55-6.45,4.55-11.51,0-4.44-1.25-7.73-3.76-9.86-2.51-2.13-6.24-3.68-11.21-4.65-3.65-.75-6.17-1.41-7.55-1.98-1.39-.57-2.08-1.43-2.08-2.57,0-.97.43-1.66,1.28-2.08.86-.42,2.1-.63,3.73-.63,3.47,0,7.65.9,12.53,2.7l5.41-10.42c-4.97-2.42-10.99-3.63-18.07-3.63-6.16,0-10.81,1.33-13.95,3.99-3.14,2.66-4.72,6.39-4.72,11.18,0,3.08.73,5.6,2.18,7.55,1.45,1.96,3.44,3.48,5.97,4.58,2.53,1.1,5.73,2.02,9.6,2.77,2.46.48,4.19,1.03,5.18,1.65.99.62,1.48,1.47,1.48,2.57,0,2.07-1.8,3.1-5.41,3.1-2.24,0-4.77-.38-7.59-1.15-2.81-.77-5.23-1.72-7.25-2.87l-4.94,10.68c3.12,1.54,6.29,2.67,9.5,3.4,3.21.73,6.84,1.09,10.88,1.09h0Zm60.01-1.05h14.38L177.4.86h-7.25l-22.42,46.62h14.31l2.9-6.66h17.67l2.9,6.66h0Zm-11.74-29.61l4.95,12.79h-9.89l4.94-12.79h0Z"/></g></svg>