<svg width="93" height="56" viewBox="0 0 93 56" fill="none" xmlns="http://www.w3.org/2000/svg">
<path d="M32.3019 52.4015L31.8941 53.327C31.9805 53.3189 32.0588 53.3149 32.1317 53.3149C32.2816 53.3149 32.4112 53.3283 32.5192 53.3566C32.6286 53.3848 32.7191 53.4252 32.7906 53.4763L32.3019 52.4001V52.4015ZM39.2486 52.6665C39.2041 52.5562 39.142 52.458 39.0596 52.3759C38.9813 52.2952 38.8895 52.2333 38.7761 52.1849C38.6708 52.1391 38.5506 52.1136 38.4183 52.1136C38.286 52.1136 38.1617 52.1378 38.0564 52.1849C37.943 52.232 37.8512 52.2952 37.7729 52.3759C37.6946 52.4539 37.6311 52.5508 37.5839 52.6678C37.5379 52.7822 37.515 52.9059 37.515 53.0364C37.515 53.1669 37.5379 53.2947 37.5839 53.4117C37.6298 53.5301 37.6932 53.627 37.7729 53.709C37.8539 53.7911 37.9484 53.8557 38.0564 53.9014C38.1617 53.9471 38.2846 53.9714 38.4183 53.9714C38.5519 53.9714 38.6708 53.9471 38.7761 53.9014C38.8827 53.8557 38.9786 53.7911 39.0596 53.709C39.142 53.6256 39.2068 53.5261 39.2486 53.4131C39.2946 53.2987 39.3175 53.1709 39.3175 53.0351C39.3175 52.8992 39.2946 52.7808 39.2486 52.6651V52.6665ZM39.2486 52.6665C39.2041 52.5562 39.142 52.458 39.0596 52.3759C38.9813 52.2952 38.8895 52.2333 38.7761 52.1849C38.6708 52.1391 38.5506 52.1136 38.4183 52.1136C38.286 52.1136 38.1617 52.1378 38.0564 52.1849C37.943 52.232 37.8512 52.2952 37.7729 52.3759C37.6946 52.4539 37.6311 52.5508 37.5839 52.6678C37.5379 52.7822 37.515 52.9059 37.515 53.0364C37.515 53.1669 37.5379 53.2947 37.5839 53.4117C37.6298 53.5301 37.6932 53.627 37.7729 53.709C37.8539 53.7911 37.9484 53.8557 38.0564 53.9014C38.1617 53.9471 38.2846 53.9714 38.4183 53.9714C38.5519 53.9714 38.6708 53.9471 38.7761 53.9014C38.8827 53.8557 38.9786 53.7911 39.0596 53.709C39.142 53.6256 39.2068 53.5261 39.2486 53.4131C39.2946 53.2987 39.3175 53.1709 39.3175 53.0351C39.3175 52.8992 39.2946 52.7808 39.2486 52.6651V52.6665ZM29.1694 39.8785V56H45.3489V39.8785H29.1694ZM33.1957 54.4234C33.1295 54.3104 33.0593 54.2135 32.9824 54.1315C32.9054 54.0494 32.8244 53.9835 32.7339 53.9297C32.6421 53.8732 32.5422 53.8368 32.4328 53.8113C32.3235 53.7857 32.202 53.775 32.071 53.775C32.0089 53.775 31.9454 53.7763 31.8793 53.783C31.8144 53.7871 31.7442 53.7951 31.674 53.8059L31.4026 54.4247H30.7991L32.0885 51.6656H32.5071L33.7938 54.4247H33.1943L33.1957 54.4234ZM36.6077 51.7033L35.3493 54.422H34.9091L34.901 54.4072L33.6507 51.6656H34.3407L35.1427 53.5019L35.9474 51.6656H36.6252L36.6077 51.7033ZM39.8292 53.6297C39.7509 53.8126 39.6429 53.9727 39.5092 54.1005C39.3756 54.2323 39.2122 54.3373 39.0245 54.4139C38.8355 54.4879 38.6303 54.527 38.4169 54.527C38.2036 54.527 37.9957 54.4893 37.808 54.4139C37.619 54.3373 37.4556 54.2323 37.3219 54.1005C37.1882 53.9714 37.0802 53.8126 37.0019 53.6297C36.9236 53.4521 36.8844 53.2543 36.8844 53.0405C36.8844 52.8266 36.9223 52.6315 37.0019 52.4526C37.0802 52.2696 37.1855 52.1163 37.3219 51.9831C37.4583 51.8539 37.6203 51.749 37.808 51.6723C37.9957 51.5997 38.2009 51.562 38.4169 51.562C38.633 51.562 38.8341 51.5997 39.0218 51.6723C39.2095 51.749 39.3729 51.8539 39.5079 51.9831C39.6443 52.1163 39.7496 52.2696 39.8279 52.4526C39.9062 52.6315 39.9454 52.8279 39.9454 53.0405C39.9454 53.253 39.9076 53.4521 39.8279 53.6297H39.8292ZM43.2439 54.422H42.7727L42.7632 54.4139L41.3482 52.7458V54.422H40.7366V51.6643H41.2091L41.2172 51.6737L42.6323 53.3391V51.6629H43.2439V54.422ZM39.0596 52.3759C38.9813 52.2952 38.8895 52.2333 38.7761 52.1849C38.6708 52.1391 38.5506 52.1136 38.4183 52.1136C38.286 52.1136 38.1617 52.1378 38.0564 52.1849C37.943 52.232 37.8512 52.2952 37.7729 52.3759C37.6946 52.4539 37.6311 52.5508 37.5839 52.6678C37.5379 52.7822 37.515 52.9059 37.515 53.0364C37.515 53.1669 37.5379 53.2947 37.5839 53.4117C37.6298 53.5301 37.6932 53.627 37.7729 53.709C37.8539 53.7911 37.9484 53.8557 38.0564 53.9014C38.1617 53.9471 38.2846 53.9714 38.4183 53.9714C38.5519 53.9714 38.6708 53.9471 38.7761 53.9014C38.8827 53.8557 38.9786 53.7911 39.0596 53.709C39.142 53.6256 39.2068 53.5261 39.2486 53.4131C39.2946 53.2987 39.3175 53.1709 39.3175 53.0351C39.3175 52.8992 39.2946 52.7808 39.2486 52.6651C39.2041 52.5548 39.142 52.4566 39.0596 52.3746V52.3759Z" fill="#AE0025"/>
<path d="M3.86391 52.2764C2.68653 52.2764 2.02764 52.9799 2.02764 54.1207V55.622H2.82831V54.0427C2.82831 53.1669 3.14155 52.6355 3.86391 52.6355C4.53901 52.6355 4.85226 53.1669 4.85226 54.0427V55.622H5.65293V54.1207C5.65293 52.9799 5.05614 52.2764 3.86391 52.2764Z" fill="#AE0025"/>
<path d="M8.16295 52.2764C7.20566 52.2764 6.32668 52.9167 6.32668 54.0427C6.32668 55.1054 7.04904 55.731 8.05224 55.731C8.58557 55.731 8.99333 55.5117 9.21341 55.1054V55.6206H9.98168V54.1355C9.98168 52.9947 9.35383 52.275 8.1616 52.275L8.16295 52.2764ZM8.16295 55.3718C7.4568 55.3718 7.12735 54.9023 7.12735 54.0427C7.12735 53.2611 7.4568 52.6355 8.16295 52.6355C8.86911 52.6355 9.18236 53.2611 9.18236 54.0427C9.18236 54.8243 8.75839 55.3718 8.16295 55.3718Z" fill="#AE0025"/>
<path d="M16.0076 53.9646C16.0076 54.8404 15.7254 55.3718 15.0355 55.3718C14.3455 55.3718 14.0944 54.8404 14.0944 53.9646V52.3853H13.2937V53.8866C13.2937 55.0274 13.8581 55.731 15.0355 55.731C16.2129 55.731 16.8083 55.0274 16.8083 53.8866V52.3853H16.0076V53.9646Z" fill="#AE0025"/>
<path d="M21.53 52.2764C20.5727 52.2764 19.6937 52.9167 19.6937 54.0427C19.6937 55.1054 20.416 55.731 21.4192 55.731C21.9526 55.731 22.3603 55.5117 22.5804 55.1054V55.6206H23.3487V54.1355C23.3487 52.9947 22.7208 52.275 21.5286 52.275L21.53 52.2764ZM21.53 55.3718C20.8238 55.3718 20.4943 54.9023 20.4943 54.0427C20.4943 53.2611 20.8238 52.6355 21.53 52.6355C22.2361 52.6355 22.5494 53.2611 22.5494 54.0427C22.5494 54.8243 22.1254 55.3718 21.53 55.3718Z" fill="#AE0025"/>
<path d="M17.6711 53.7777V55.622H18.4717V53.6835C18.4717 53.0579 18.6135 52.6517 19.2562 52.6517C19.3345 52.6517 19.429 52.6517 19.5236 52.6678V52.3396C19.3507 52.2925 19.1779 52.2777 19.0064 52.2777C18.2382 52.2777 17.6724 52.7149 17.6724 53.779L17.6711 53.7777Z" fill="#AE0025"/>
<path d="M12.273 55.357C11.8801 55.357 11.6451 55.1068 11.6451 54.3413V52.762H12.6969V52.3867H11.6451V51.5741H10.8445V54.2162C10.8445 55.3731 11.4723 55.7323 12.146 55.7323C12.4755 55.7323 12.7739 55.6381 12.9926 55.4821C12.9143 55.4041 12.8509 55.3099 12.8198 55.2157C12.6632 55.3099 12.4903 55.357 12.2703 55.357H12.273Z" fill="#AE0025"/>
<path d="M15.7389 44.6999C15.7389 45.16 15.5054 45.7196 15.3379 46.0142C15.2461 46.1783 15.2232 46.216 15.2232 46.2416C15.2232 46.2591 15.234 46.2752 15.2556 46.2752C15.3663 46.2752 16.2912 45.5663 16.9393 45.5663C17.32 45.5663 17.667 45.768 17.667 46.2429C17.667 46.7178 17.343 47.5074 16.2628 48.0832C16.1859 48.1249 16.0238 48.2097 15.9104 48.2702C15.7646 48.3469 15.7268 48.3845 15.7268 48.433C15.7268 48.5554 16.1561 48.4962 16.1561 48.7478C16.1561 48.8809 15.9928 49.1029 15.5634 49.341C15.1719 49.559 14.6493 49.7379 13.9999 49.7379C13.5368 49.7379 13.2775 49.6477 13.2289 49.6477C13.21 49.6477 13.1952 49.6531 13.1749 49.672C13.1479 49.6948 12.8171 49.9773 12.0461 49.9773C11.1604 49.9773 10.168 49.6155 10.168 49.2791C10.168 49.115 10.3759 49.0693 10.3759 49.0343C10.3759 49.0195 10.3516 49.0141 10.3408 49.0114C9.10404 48.6792 7.70929 48.0227 7.70929 47.1375C7.70929 46.8927 7.88211 46.7662 8.13325 46.7662C8.56801 46.7662 9.16885 46.9667 9.29982 46.9667C9.33223 46.9667 9.34438 46.9492 9.34438 46.9317C9.34438 46.9075 9.32548 46.8806 9.28767 46.8496C8.4951 46.1783 8.1643 45.5622 8.1643 45.0456C8.1643 44.3784 8.64768 43.8726 9.29037 43.7461C10.4745 43.5134 11.1888 44.521 11.8207 45.3308C11.8382 45.3537 11.8706 45.4008 11.9098 45.4008C11.9584 45.4008 11.9705 45.3537 12.0151 45.1761C12.0596 44.9986 12.0718 44.9434 12.1285 44.7161C12.3135 43.9668 12.759 43.017 14.0444 43.017C14.8019 43.017 15.7389 43.5269 15.7389 44.7026V44.6999ZM12.0731 46.3828C11.8342 46.3828 11.7072 46.2496 11.4628 45.9443C11.4237 45.8958 11.2549 45.6914 11.2117 45.6402C10.6203 44.9299 10.1923 44.6084 9.70218 44.6084C9.40649 44.6084 8.96227 44.7739 8.96227 45.3349C8.96227 45.4089 8.97173 45.7237 9.27822 46.0963C9.66843 46.5712 10.2342 47.1994 10.2855 47.2586C10.3381 47.3191 10.3665 47.3823 10.3651 47.4388C10.3651 47.4698 10.3557 47.6083 10.1194 47.6083C9.88311 47.6083 8.88261 47.3151 8.53021 47.3151C8.36684 47.3151 8.26152 47.385 8.26152 47.5048C8.26152 47.8128 8.86506 48.4464 10.7634 48.8729C11.0024 48.9267 11.0227 49.0114 11.0227 49.041C11.0227 49.1513 10.727 49.2025 10.727 49.3908C10.727 49.6652 11.6195 49.7876 11.8747 49.7876C12.3297 49.7876 12.5538 49.6545 12.7239 49.5388C12.8684 49.4392 12.9521 49.4016 13.048 49.4016C13.2519 49.4016 13.4422 49.528 14.0606 49.528C14.8127 49.528 15.6026 49.1365 15.6026 48.924C15.6026 48.8406 15.477 48.8191 15.1962 48.7276C15.049 48.6792 14.9639 48.62 14.9639 48.5285C14.9639 48.437 15.0355 48.3724 15.2488 48.281C15.4756 48.1828 15.639 48.1101 15.8064 48.0294C16.7219 47.5909 17.0756 47.0541 17.0783 46.6667C17.0797 46.4178 16.9366 46.2496 16.703 46.2496C16.3951 46.2496 16.0576 46.4272 15.7295 46.5927C15.1138 46.9034 14.8897 47.0218 14.6736 47.0218C14.5211 47.0218 14.4495 46.8913 14.4481 46.8146C14.4481 46.7703 14.4549 46.7191 14.4751 46.664C14.5548 46.4501 14.6115 46.3061 14.6979 46.0761C14.8262 45.7384 14.9815 45.3524 14.9815 44.9703C14.9815 44.373 14.517 43.9668 13.9067 43.9668C13.2235 43.9668 12.9305 44.6084 12.7577 45.1183C12.7104 45.2582 12.5309 45.8017 12.4755 45.9644C12.3796 46.2496 12.2527 46.3828 12.0704 46.3828H12.0731Z" fill="#AE0025"/>
<path d="M1.54021 41.2144H0.717941C0.717941 37.6158 3.65733 34.6872 7.26912 34.6872H46.6599V35.5065H7.26912C4.10965 35.5065 1.54021 38.0665 1.54021 41.2144Z" fill="#AE0025"/>
<path d="M5.69884 11.7575C3.55336 11.7575 2.16131 10.2172 2.16131 8.36879C2.16131 6.52042 3.58577 4.99625 5.71774 4.99625C7.01798 4.99625 8.00363 5.47112 8.7854 6.28769V4.80119C8.1292 4.1474 7.05444 3.78015 5.4936 3.78015C2.69464 3.78149 0.717941 5.76708 0.717941 8.36879C0.717941 10.9705 2.69464 12.9709 5.51116 12.9709C6.96802 12.9709 8.17511 12.5888 8.93257 11.9377V10.4647C8.07519 11.3216 6.95587 11.7588 5.69884 11.7588V11.7575Z" fill="#AE0025"/>
<path d="M14.9005 3.78149C11.9989 3.78149 10.091 5.7321 10.091 8.36879C10.091 11.0055 11.9989 12.9709 14.9005 12.9709C17.802 12.9709 19.6937 11.0041 19.6937 8.36879C19.6937 5.73345 17.8047 3.78149 14.9005 3.78149ZM14.9005 11.7575C12.8211 11.7575 11.5331 10.2333 11.5331 8.36879C11.5331 6.50428 12.8225 4.99625 14.9005 4.99625C16.9784 4.99625 18.2679 6.52042 18.2679 8.36879C18.2679 10.2172 16.9784 11.7575 14.9005 11.7575Z" fill="#AE0025"/>
<path d="M26.28 3.78149C24.5098 3.78149 23.4108 4.73931 22.8599 5.97156V3.98731H21.4179V12.7678H22.8599V6.60651C23.5661 5.66349 24.5787 5.01374 25.7642 5.01374C27.3453 5.01374 28.1689 5.90429 28.1689 7.42577V12.7664H29.6123V7.16883C29.6123 5.09714 28.4254 3.78015 26.28 3.78015V3.78149Z" fill="#AE0025"/>
<path d="M36.4051 7.63294L34.0504 7.29125C33.1066 7.17018 32.6259 6.8796 32.6259 6.22985C32.6259 5.35544 33.5697 4.9115 35.0995 4.9115C36.6293 4.9115 37.6757 5.42404 38.448 6.059V4.65187C37.7769 4.15413 36.3714 3.78149 35.0657 3.78149C32.7461 3.78149 31.2514 4.68954 31.2514 6.29845C31.2514 7.56433 32.129 8.2827 33.7938 8.54098L36.2674 8.91765C37.2477 9.05352 37.7634 9.51763 37.7634 10.1997C37.7634 11.2786 36.7319 11.8274 35.221 11.8274C33.7101 11.8274 32.3694 11.3297 31.2176 10.4741V11.8839C32.0953 12.4314 33.5872 12.9709 35.2021 12.9709C37.4353 12.9709 39.1366 11.9445 39.1366 10.0961C39.1366 8.693 38.1928 7.88719 36.4065 7.6316L36.4051 7.63294Z" fill="#AE0025"/>
<path d="M47.4228 3.98732V10.166C46.7369 11.0902 45.758 11.74 44.5725 11.74C42.9739 11.74 42.184 10.8346 42.184 9.34409V3.98732H40.7406V9.5822C40.7406 11.6364 41.8748 12.9709 44.0729 12.9709C45.8066 12.9709 46.8732 11.9969 47.4214 10.7808V12.7664H48.8648V3.98732H47.4214H47.4228Z" fill="#AE0025"/>
<path d="M62.0279 5.21956V3.98731H58.2649V1.06005L56.8215 1.34928V3.98597H54.6045V5.21822H56.8215V9.823C56.8215 11.7575 57.7842 12.9373 59.8284 12.9373C60.6318 12.9373 61.3312 12.7678 61.712 12.5471V11.2947C61.2785 11.5247 60.7304 11.6875 60.0688 11.6875C58.8158 11.6875 58.2662 10.9866 58.2662 9.73556V5.21822H62.0293L62.0279 5.21956Z" fill="#AE0025"/>
<path d="M67.669 3.78149C64.7648 3.78149 62.8583 5.7321 62.8583 8.36879C62.8583 11.0055 64.7661 12.9709 67.669 12.9709C70.572 12.9709 72.4623 11.0041 72.4623 8.36879C72.4623 5.73345 70.572 3.78149 67.669 3.78149ZM67.669 11.7575C65.5897 11.7575 64.3016 10.2333 64.3016 8.36879C64.3016 6.50428 65.5911 4.99625 67.669 4.99625C69.747 4.99625 71.0351 6.52042 71.0351 8.36879C71.0351 10.2172 69.7483 11.7575 67.669 11.7575Z" fill="#AE0025"/>
<path d="M75.6298 3.98732H74.1865V12.7678H75.6298V8.06073C76.6546 6.80965 78.2398 6.02133 79.5198 5.4644V3.8205C78.0778 4.48909 76.4184 5.61641 75.6298 7.42712V3.98732Z" fill="#AE0025"/>
<path d="M81.1157 3.98732V12.7678H82.5591V3.98732H81.1157Z" fill="#AE0025"/>
<path d="M89.2142 3.78149C87.6912 3.78149 86.4058 4.22543 85.5106 5.00836V6.38051C86.476 5.49131 87.7884 4.98146 89.0427 4.98146C90.6414 4.98146 91.1734 5.68233 91.1734 6.79485V6.89709L87.6169 7.68541C85.624 8.12934 84.4561 8.89882 84.4561 10.3732C84.4561 11.9633 85.4337 12.9736 87.2726 12.9736C89.1116 12.9736 90.6049 11.7763 91.1734 10.8171V12.7691H92.6154V6.74373C92.6154 4.75949 91.4313 3.78418 89.2142 3.78418V3.78149ZM91.1734 10.0638C90.4335 11.0553 89.1278 11.8597 87.7196 11.8597C86.4828 11.8597 85.8981 11.2772 85.8981 10.3194C85.8981 9.46382 86.638 8.94994 87.9261 8.60825L91.1734 7.73383V10.0638Z" fill="#AE0025"/>
<path d="M54.3385 11.6458V12.909C54.1157 12.9507 53.8619 12.9722 53.5675 12.9722C52.5468 12.9722 51.9324 12.6776 51.5773 12.1409C51.2222 11.6055 51.1223 10.8266 51.1223 9.85933V0.273085L52.5643 0V9.77054H52.5657C52.5657 11.0216 52.5535 11.6875 53.8065 11.6875C54.0077 11.6875 54.1819 11.6714 54.3385 11.6458Z" fill="#AE0025"/>
<path d="M82.416 2.88153H81.356L82.1257 0.461425H83.9039L82.416 2.88153Z" fill="#AE0025"/>
<path d="M8.74084 16.182V21.984C8.22506 20.6993 6.93832 19.6904 5.1331 19.6904C2.38544 19.6904 0.717941 21.6935 0.717941 24.2777C0.717941 26.8619 2.38544 28.8825 5.1331 28.8825C6.95452 28.8825 8.20886 27.8547 8.74084 26.5713V28.6753H10.1842V15.9076L8.74084 16.182ZM8.74084 25.7655C7.95097 26.9816 6.8168 27.6664 5.4612 27.6664C3.27792 27.6664 2.16266 26.0736 2.16266 24.2777C2.16266 22.4818 3.27792 20.9052 5.4612 20.9052C6.83436 20.9052 7.95232 21.5899 8.74084 22.806V25.7655Z" fill="#AE0025"/>
<path d="M21.2194 24.1741C21.2194 21.7285 19.587 19.6904 16.7354 19.6904C13.8838 19.6904 11.9071 21.676 11.9071 24.2777C11.9071 26.8794 13.746 28.8825 17.0945 28.8825C18.708 28.8825 20.0636 28.3699 20.8035 27.7565V26.309C19.8949 27.1552 18.6527 27.7014 17.1823 27.7014C14.8114 27.7014 13.453 26.4005 13.3504 24.5024H21.2181V24.1755L21.2194 24.1741ZM13.4206 23.4221C13.6947 21.9316 14.8289 20.7679 16.7192 20.7679C18.6095 20.7679 19.5519 21.9841 19.8111 23.4221H13.4206Z" fill="#AE0025"/>
<path d="M30.818 19.6904C29.0317 19.6904 27.7422 20.6993 27.2102 21.984V15.9076L25.7682 16.182V28.6753H27.2102V26.5713C27.7598 27.8534 29.0155 28.8825 30.818 28.8825C33.567 28.8825 35.2332 26.8619 35.2332 24.2777C35.2332 21.6935 33.5683 19.6904 30.818 19.6904ZM30.5088 27.6664C29.1343 27.6664 28.019 26.9816 27.2102 25.7655V22.806C28.019 21.5899 29.1343 20.9052 30.4926 20.9052C32.6907 20.9052 33.7911 22.4979 33.7911 24.2777C33.7911 26.0575 32.6907 27.6664 30.5088 27.6664Z" fill="#AE0025"/>
<path d="M68.1092 27.4955L74.1568 21.0074V19.8962H66.5295V21.076H72.388L66.3418 27.5453V28.6753H74.227V27.4955H68.1092Z" fill="#AE0025"/>
<path d="M45.7715 24.1741C45.7715 21.7285 44.1391 19.6904 41.2875 19.6904C38.4358 19.6904 36.4591 21.676 36.4591 24.2777C36.4591 26.8794 38.2981 28.8825 41.6466 28.8825C43.2601 28.8825 44.6157 28.3699 45.3556 27.7565V26.309C44.4469 27.1552 43.2047 27.7014 41.7344 27.7014C39.3634 27.7014 38.0051 26.4005 37.9025 24.5024H45.7701V24.1755L45.7715 24.1741ZM37.9714 23.4221C38.2454 21.9316 39.3796 20.7679 41.2699 20.7679C43.1602 20.7679 44.1026 21.9841 44.3619 23.4221H37.9714Z" fill="#AE0025"/>
<path d="M65.0105 24.1741C65.0105 21.7285 63.3781 19.6904 60.5265 19.6904C57.6748 19.6904 55.6982 21.676 55.6982 24.2777C55.6982 26.8794 57.5371 28.8825 60.8856 28.8825C62.4991 28.8825 63.8547 28.3699 64.5946 27.7565V26.309C63.6859 27.1552 62.4438 27.7014 60.9734 27.7014C58.6024 27.7014 57.2441 26.4005 57.1415 24.5024H65.0091V24.1755L65.0105 24.1741ZM57.2117 23.4221C57.4858 21.9316 58.62 20.7679 60.5103 20.7679C62.4006 20.7679 63.343 21.9841 63.6022 23.4221H57.2117Z" fill="#AE0025"/>
<path d="M80.2691 19.6904C78.7461 19.6904 77.4607 20.1343 76.5655 20.9173V22.2894C77.5309 21.4002 78.8433 20.8904 80.0977 20.8904C81.6963 20.8904 82.2283 21.5912 82.2283 22.7038V22.806L78.6718 23.5943C76.6789 24.0382 75.511 24.8077 75.511 26.2821C75.511 27.8722 76.4886 28.8825 78.3275 28.8825C80.1665 28.8825 81.6598 27.6852 82.2283 26.726V28.678H83.6703V22.6526C83.6703 20.6684 82.4862 19.6931 80.2691 19.6931V19.6904ZM82.2283 25.9727C81.4884 26.9642 80.1827 27.7686 78.7745 27.7686C77.5377 27.7686 76.953 27.1861 76.953 26.2283C76.953 25.3727 77.693 24.8588 78.981 24.5172L82.2283 23.6427V25.9727Z" fill="#AE0025"/>
<path d="M55.0231 27.5036V28.8179C54.8003 28.8596 54.5464 28.8811 54.2521 28.8811C53.2313 28.8811 52.617 28.5865 52.2619 28.0498C51.9068 27.5144 51.8069 26.7355 51.8069 25.7682V16.182L53.2489 15.9089V25.6795H53.2502C53.2502 26.9305 53.2381 27.5453 54.4911 27.5453C54.6923 27.5453 54.8664 27.5292 55.0231 27.5036Z" fill="#AE0025"/>
<path d="M50.6349 27.5036V28.8179C50.4121 28.8596 50.1583 28.8811 49.8639 28.8811C48.8432 28.8811 48.2288 28.5865 47.8737 28.0498C47.5186 27.5144 47.4187 26.7355 47.4187 25.7682V16.182L48.8607 15.9089V25.6795H48.8621C48.8621 26.9305 48.8499 27.5453 50.1029 27.5453C50.3041 27.5453 50.4783 27.5292 50.6349 27.5036Z" fill="#AE0025"/>
</svg>
