<svg width="128" height="10" viewBox="0 0 128 10" fill="none" xmlns="http://www.w3.org/2000/svg">
<path d="M120.511 7.7382L120.276 8.24586C120.325 8.24196 120.37 8.23937 120.412 8.23937C120.498 8.23937 120.573 8.24716 120.635 8.26274C120.697 8.27832 120.749 8.30039 120.791 8.32895L120.511 7.7382ZM124.498 7.88362C124.472 7.82259 124.436 7.76936 124.389 7.72392C124.344 7.67977 124.291 7.64472 124.227 7.61875C124.167 7.59408 124.097 7.5798 124.021 7.5798C123.945 7.5798 123.874 7.59408 123.813 7.61875C123.747 7.64472 123.695 7.67977 123.65 7.72392C123.606 7.76676 123.569 7.82 123.541 7.88362C123.516 7.94594 123.502 8.01475 123.502 8.08616C123.502 8.15757 123.516 8.22768 123.541 8.2926C123.567 8.35752 123.604 8.41075 123.65 8.45619C123.697 8.50163 123.751 8.53669 123.813 8.56266C123.872 8.58732 123.943 8.60161 124.021 8.60161C124.099 8.60161 124.167 8.58862 124.227 8.56266C124.288 8.53799 124.344 8.50163 124.389 8.45619C124.436 8.40945 124.473 8.35622 124.498 8.2939C124.524 8.23158 124.537 8.16146 124.537 8.08616C124.537 8.01085 124.524 7.94724 124.498 7.88232V7.88362ZM124.498 7.88362C124.472 7.82259 124.436 7.76936 124.389 7.72392C124.344 7.67977 124.291 7.64472 124.227 7.61875C124.167 7.59408 124.097 7.5798 124.021 7.5798C123.945 7.5798 123.874 7.59408 123.813 7.61875C123.747 7.64472 123.695 7.67977 123.65 7.72392C123.606 7.76676 123.569 7.82 123.541 7.88362C123.516 7.94594 123.502 8.01475 123.502 8.08616C123.502 8.15757 123.516 8.22768 123.541 8.2926C123.567 8.35752 123.604 8.41075 123.65 8.45619C123.697 8.50163 123.751 8.53669 123.813 8.56266C123.872 8.58732 123.943 8.60161 124.021 8.60161C124.099 8.60161 124.167 8.58862 124.227 8.56266C124.288 8.53799 124.344 8.50163 124.389 8.45619C124.436 8.40945 124.473 8.35622 124.498 8.2939C124.524 8.23158 124.537 8.16146 124.537 8.08616C124.537 8.01085 124.524 7.94724 124.498 7.88232V7.88362ZM118.714 0.862108V9.7143H128V0.862108H118.714ZM121.024 8.84959C120.986 8.78727 120.945 8.73404 120.902 8.6899C120.858 8.64575 120.81 8.6081 120.758 8.57824C120.705 8.54708 120.648 8.5263 120.585 8.51332C120.523 8.49904 120.453 8.49255 120.378 8.49255C120.343 8.49255 120.306 8.49255 120.268 8.49644C120.231 8.49904 120.19 8.50293 120.151 8.50942L119.996 8.84959H119.65L120.389 7.33441H120.629L121.367 8.84959H121.023H121.024ZM122.983 7.35519L122.261 8.8483H122.008L122.004 8.8405L121.286 7.33441H121.682L122.143 8.34194L122.604 7.33441H122.994L122.984 7.35519H122.983ZM124.831 8.41335C124.787 8.51332 124.725 8.60161 124.648 8.67172C124.57 8.74443 124.477 8.80155 124.37 8.8431C124.261 8.88335 124.144 8.90542 124.021 8.90542C123.898 8.90542 123.779 8.88465 123.671 8.8431C123.562 8.80155 123.469 8.74313 123.392 8.67172C123.314 8.60031 123.253 8.51332 123.208 8.41335C123.163 8.31597 123.141 8.20691 123.141 8.09006C123.141 7.9732 123.163 7.86544 123.208 7.76676C123.253 7.66679 123.313 7.5824 123.392 7.50839C123.469 7.43698 123.563 7.37985 123.671 7.33701C123.779 7.29676 123.896 7.27599 124.021 7.27599C124.146 7.27599 124.261 7.29676 124.368 7.33701C124.476 7.37856 124.57 7.43698 124.648 7.50839C124.725 7.5811 124.787 7.66549 124.831 7.76676C124.876 7.86544 124.898 7.9732 124.898 8.09006C124.898 8.20691 124.876 8.31597 124.831 8.41335ZM126.792 8.8483H126.521L126.515 8.8444L125.703 7.92906V8.84959H125.353V7.33571H125.624L125.628 7.3409L126.44 8.25624V7.33571H126.79V8.84959L126.792 8.8483ZM124.389 7.72522C124.344 7.68107 124.291 7.64602 124.227 7.62005C124.167 7.59538 124.097 7.5811 124.021 7.5811C123.945 7.5811 123.874 7.59538 123.813 7.62005C123.747 7.64602 123.695 7.68107 123.65 7.72522C123.606 7.76806 123.569 7.82129 123.541 7.88491C123.516 7.94724 123.502 8.01605 123.502 8.08746C123.502 8.15887 123.516 8.22898 123.541 8.2939C123.567 8.35881 123.604 8.41205 123.65 8.45749C123.697 8.50293 123.751 8.53799 123.813 8.56395C123.872 8.58862 123.943 8.60291 124.021 8.60291C124.099 8.60291 124.167 8.58992 124.227 8.56395C124.288 8.53929 124.344 8.50293 124.389 8.45749C124.436 8.41075 124.473 8.35752 124.498 8.29519C124.524 8.23287 124.537 8.16276 124.537 8.08746C124.537 8.01215 124.524 7.94853 124.498 7.88362C124.472 7.82259 124.436 7.76936 124.389 7.72392V7.72522Z" fill="black"/>
<path d="M104.678 7.74729C103.977 7.74729 103.585 8.14848 103.585 8.79766V9.65198H104.062V8.75351C104.062 8.25495 104.249 7.95243 104.679 7.95243C105.081 7.95243 105.267 8.25495 105.267 8.75351V9.65198H105.744V8.79766C105.744 8.14718 105.389 7.74729 104.679 7.74729H104.678Z" fill="black"/>
<path d="M107.237 7.74729C106.668 7.74729 106.145 8.11213 106.145 8.75351C106.145 9.35855 106.574 9.7143 107.172 9.7143C107.489 9.7143 107.732 9.58966 107.862 9.35855V9.65198H108.32V8.80675C108.32 8.15627 107.947 7.74729 107.237 7.74729ZM107.237 9.50916C106.816 9.50916 106.62 9.2417 106.62 8.75222C106.62 8.30688 106.816 7.95113 107.237 7.95113C107.658 7.95113 107.845 8.30688 107.845 8.75222C107.845 9.19755 107.593 9.50916 107.237 9.50916Z" fill="black"/>
<path d="M111.907 8.70807C111.907 9.20664 111.739 9.50916 111.328 9.50916C110.917 9.50916 110.768 9.20664 110.768 8.70807V7.80961H110.291V8.66393C110.291 9.3144 110.628 9.7143 111.328 9.7143C112.028 9.7143 112.384 9.31311 112.384 8.66393V7.80961H111.907V8.70807Z" fill="black"/>
<path d="M115.195 7.74729C114.626 7.74729 114.103 8.11213 114.103 8.75351C114.103 9.35855 114.532 9.7143 115.13 9.7143C115.447 9.7143 115.69 9.58966 115.82 9.35855V9.65198H116.278V8.80675C116.278 8.15627 115.905 7.74729 115.195 7.74729ZM115.195 9.50916C114.774 9.50916 114.578 9.2417 114.578 8.75222C114.578 8.30688 114.774 7.95113 115.195 7.95113C115.616 7.95113 115.803 8.30688 115.803 8.75222C115.803 9.19755 115.551 9.50916 115.195 9.50916Z" fill="black"/>
<path d="M112.897 8.60161V9.65198H113.374V8.54837C113.374 8.19263 113.458 7.96022 113.841 7.96022C113.888 7.96022 113.943 7.96022 114.001 7.96931V7.78234C113.898 7.75508 113.795 7.74729 113.693 7.74729C113.235 7.74729 112.899 7.99657 112.899 8.60161H112.897Z" fill="black"/>
<path d="M109.684 9.50137C109.451 9.50137 109.31 9.35855 109.31 8.9223V8.02384H109.936V7.80961H109.31V7.3461H108.834V8.85089C108.834 9.50916 109.207 9.7143 109.609 9.7143C109.805 9.7143 109.982 9.66107 110.113 9.57148C110.067 9.52734 110.028 9.4741 110.011 9.41957C109.917 9.4728 109.815 9.50007 109.684 9.50007V9.50137Z" fill="black"/>
<path d="M111.747 3.44194C111.747 3.70421 111.609 4.02231 111.509 4.18979C111.455 4.28328 111.441 4.30405 111.441 4.31833C111.441 4.32872 111.448 4.33781 111.46 4.33781C111.525 4.33781 112.077 3.93402 112.463 3.93402C112.689 3.93402 112.896 4.04827 112.896 4.31963C112.896 4.59099 112.702 5.04022 112.059 5.3674C112.013 5.39077 111.916 5.44011 111.85 5.47387C111.762 5.51801 111.741 5.53879 111.741 5.56605C111.741 5.63616 111.997 5.60241 111.997 5.74522C111.997 5.82183 111.899 5.94777 111.644 6.0828C111.411 6.20744 111.099 6.30871 110.714 6.30871C110.438 6.30871 110.284 6.25678 110.254 6.25678C110.244 6.25678 110.234 6.26067 110.222 6.26976C110.205 6.28274 110.009 6.44374 109.55 6.44374C109.023 6.44374 108.432 6.2373 108.432 6.04644C108.432 5.95296 108.556 5.92699 108.556 5.90752C108.556 5.89973 108.541 5.89583 108.535 5.89454C107.8 5.70498 106.969 5.33105 106.969 4.82729C106.969 4.68836 107.072 4.61565 107.221 4.61565C107.48 4.61565 107.838 4.72991 107.916 4.72991C107.935 4.72991 107.941 4.71952 107.941 4.71043C107.941 4.69615 107.931 4.68187 107.907 4.66369C107.436 4.28198 107.239 3.93012 107.239 3.63669C107.239 3.25628 107.526 2.96804 107.909 2.89663C108.614 2.7642 109.039 3.33807 109.415 3.79899C109.426 3.81197 109.445 3.83924 109.468 3.83924C109.497 3.83924 109.505 3.81327 109.531 3.712C109.557 3.61073 109.565 3.57957 109.598 3.44973C109.708 3.02257 109.973 2.48246 110.739 2.48246C111.19 2.48246 111.747 2.77329 111.747 3.44194ZM109.565 4.40143C109.422 4.40143 109.347 4.32482 109.203 4.15214C109.18 4.12488 109.079 4.00802 109.053 3.97946C108.702 3.57437 108.445 3.39131 108.154 3.39131C107.978 3.39131 107.714 3.48479 107.714 3.80548C107.714 3.84703 107.719 4.0262 107.902 4.23913C108.135 4.51049 108.47 4.86754 108.501 4.90129C108.533 4.93505 108.549 4.97141 108.549 5.00386C108.549 5.02204 108.544 5.09994 108.403 5.09994C108.263 5.09994 107.668 4.93245 107.458 4.93245C107.361 4.93245 107.299 4.9727 107.299 5.04022C107.299 5.2155 107.658 5.57644 108.787 5.81923C108.929 5.84909 108.941 5.89843 108.941 5.91401C108.941 5.97633 108.766 6.00619 108.766 6.11266C108.766 6.26976 109.297 6.33857 109.449 6.33857C109.721 6.33857 109.854 6.26327 109.955 6.19705C110.041 6.13993 110.09 6.11915 110.148 6.11915C110.269 6.11915 110.383 6.19186 110.752 6.19186C111.2 6.19186 111.67 5.96854 111.67 5.8478C111.67 5.79976 111.595 5.78807 111.429 5.73614C111.342 5.70887 111.29 5.67511 111.29 5.62188C111.29 5.56865 111.332 5.53229 111.459 5.48036C111.594 5.42453 111.69 5.38298 111.791 5.33754C112.336 5.08696 112.547 4.78184 112.548 4.56112C112.548 4.4196 112.464 4.32352 112.325 4.32352C112.143 4.32352 111.941 4.4248 111.746 4.51958C111.38 4.69615 111.246 4.76367 111.118 4.76367C111.027 4.76367 110.985 4.68966 110.985 4.64552C110.985 4.61955 110.989 4.59099 111.001 4.55983C111.049 4.43778 111.081 4.35598 111.133 4.22485C111.209 4.03269 111.302 3.81197 111.302 3.59515C111.302 3.25498 111.026 3.02387 110.662 3.02387C110.254 3.02387 110.081 3.39001 109.978 3.67954C109.949 3.75874 109.843 4.06905 109.81 4.16123C109.753 4.32352 109.678 4.39883 109.569 4.39883L109.565 4.40143Z" fill="black"/>
<path d="M2.75302 9.18067C1.56654 9.18067 0.798254 8.3666 0.798254 7.38894C0.798254 6.41128 1.58561 5.6063 2.76392 5.6063C3.48317 5.6063 4.02669 5.85688 4.45987 6.28924V5.50373C4.09753 5.15837 3.5036 4.96361 2.63996 4.96361C1.09249 4.96232 0 6.01269 0 7.38894C0 8.7652 1.09249 9.82206 2.6495 9.82206C3.45456 9.82206 4.12205 9.61952 4.54024 9.27545V8.49644C4.06619 8.94957 3.44775 9.18067 2.75302 9.18067Z" fill="black"/>
<path d="M7.83815 4.96232C6.23347 4.96232 5.17912 5.99321 5.17912 7.38764C5.17912 8.78208 6.23347 9.82076 7.83815 9.82076C9.44284 9.82076 10.4876 8.78078 10.4876 7.38764C10.4876 5.99451 9.4442 4.96232 7.83815 4.96232ZM7.83815 9.18067C6.68981 9.18067 5.97738 8.37439 5.97738 7.38894C5.97738 6.40349 6.68981 5.6063 7.83815 5.6063C8.9865 5.6063 9.70029 6.41258 9.70029 7.38894C9.70029 8.36531 8.98786 9.18067 7.83815 9.18067Z" fill="black"/>
<path d="M14.1288 4.96232C13.1508 4.96232 12.5432 5.46867 12.2381 6.12045V5.07138H11.4412V9.7143H12.2381V6.45672C12.6277 5.95815 13.1889 5.61539 13.8428 5.61539C14.7173 5.61539 15.1723 6.08669 15.1723 6.89167V9.7156H15.9705V6.75534C15.9705 5.66083 15.3153 4.96361 14.1288 4.96361V4.96232Z" fill="black"/>
<path d="M19.7262 6.99944L18.4252 6.81896C17.9035 6.75535 17.6379 6.60084 17.6379 6.25808C17.6379 5.79586 18.1596 5.56086 19.0055 5.56086C19.8515 5.56086 20.4291 5.83221 20.8568 6.16719V5.42323C20.4863 5.15967 19.7084 4.96361 18.9865 4.96361C17.7046 4.96361 16.8778 5.44401 16.8778 6.29443C16.8778 6.96308 17.3627 7.3435 18.2836 7.47983L19.6512 7.67848C20.1934 7.74989 20.4781 7.99528 20.4781 8.35622C20.4781 8.9262 19.9073 9.21703 19.0723 9.21703C18.2373 9.21703 17.4962 8.95346 16.8601 8.50163V9.24689C17.345 9.53642 18.1691 9.82206 19.0628 9.82206C20.2969 9.82206 21.2368 9.27935 21.2368 8.30169C21.2368 7.56033 20.7151 7.13447 19.7275 6.99814L19.7262 6.99944Z" fill="black"/>
<path d="M25.8152 5.07138V8.33804C25.4365 8.82622 24.8944 9.17029 24.2405 9.17029C23.3578 9.17029 22.9205 8.69119 22.9205 7.90309V5.07138H22.1223V8.03033C22.1223 9.11705 22.7489 9.82206 23.964 9.82206C24.923 9.82206 25.5115 9.30661 25.8152 8.66393V9.7143H26.6135V5.07138H25.8152Z" fill="black"/>
<path d="M33.8877 5.72315V5.07138H31.8076V3.52374L31.0093 3.67694V5.07138H29.7847V5.72315H31.0093V8.15757C31.0093 9.18067 31.542 9.80389 32.6712 9.80389C33.1153 9.80389 33.5022 9.7143 33.712 9.59745V8.93528C33.4722 9.05733 33.1698 9.14302 32.8034 9.14302C32.11 9.14302 31.8062 8.77169 31.8062 8.11083V5.72185H33.8863L33.8877 5.72315Z" fill="black"/>
<path d="M37.0058 4.96232C35.4011 4.96232 34.3467 5.99321 34.3467 7.38764C34.3467 8.78208 35.4011 9.82076 37.0058 9.82076C38.6105 9.82076 39.6553 8.78078 39.6553 7.38764C39.6553 5.99451 38.6105 4.96232 37.0058 4.96232ZM37.0058 9.18067C35.8574 9.18067 35.145 8.37439 35.145 7.38894C35.145 6.40349 35.8574 5.6063 37.0058 5.6063C38.1541 5.6063 38.8666 6.41258 38.8666 7.38894C38.8666 8.36531 38.1555 9.18067 37.0058 9.18067Z" fill="black"/>
<path d="M41.4057 6.89037V5.07138H40.6075V9.7143H41.4057V7.22535C41.9724 6.56449 42.8483 6.14642 43.5553 5.85299V4.98309C42.7584 5.33624 41.8416 5.93349 41.4057 6.89037Z" fill="black"/>
<path d="M44.8385 3.24329C44.4966 3.24329 44.2963 3.45103 44.2963 3.74056C44.2963 4.0301 44.4966 4.22874 44.8385 4.22874C45.1804 4.22874 45.3888 4.02101 45.3888 3.74056C45.3888 3.46012 45.1804 3.24329 44.8385 3.24329ZM44.438 5.07138V9.7143H45.2362V5.07138H44.438Z" fill="black"/>
<path d="M48.9142 4.96232C48.0724 4.96232 47.3613 5.19732 46.8668 5.61149V6.33728C47.4008 5.86727 48.1255 5.59721 48.8189 5.59721C49.7016 5.59721 49.9972 5.96854 49.9972 6.5554V6.60993L48.0315 7.0267C46.9295 7.2617 46.2838 7.66809 46.2838 8.4471C46.2838 9.28844 46.8246 9.82206 47.8408 9.82206C48.857 9.82206 49.6825 9.18847 49.9972 8.68211V9.7143H50.7941V6.52813C50.7941 5.47906 50.1388 4.96232 48.9142 4.96232ZM49.9985 8.28481C49.5899 8.80935 48.8679 9.2352 48.0901 9.2352C47.4062 9.2352 47.0834 8.9275 47.0834 8.42114C47.0834 7.96931 47.4921 7.69665 48.2045 7.51618L49.9985 7.05397V8.28611V8.28481Z" fill="black"/>
<path d="M29.6376 9.09368V9.7883C29.5136 9.81038 29.3733 9.82206 29.2112 9.82206C28.6473 9.82206 28.3081 9.66626 28.1119 9.38192C27.9158 9.09888 27.8599 8.6873 27.8599 8.17575V3.10697L28.6568 2.96285V8.12901C28.6568 8.78987 28.65 9.11576 29.3433 9.11576C29.4551 9.11576 29.5504 9.10667 29.6376 9.09368Z" fill="black"/>
<path d="M57.6691 3.10826V6.17628C57.3844 5.49724 56.672 4.96361 55.6749 4.96361C54.156 4.96361 53.2351 6.02307 53.2351 7.38894C53.2351 8.75481 54.156 9.82336 55.6749 9.82336C56.6815 9.82336 57.3749 9.27935 57.6691 8.60161V9.7143H58.4674V2.96285L57.6691 3.10826ZM57.6691 8.17575C57.2332 8.81843 56.6053 9.18067 55.856 9.18067C54.6491 9.18067 54.032 8.33934 54.032 7.38894C54.032 6.43855 54.6491 5.6063 55.856 5.6063C56.6148 5.6063 57.2332 5.96854 57.6691 6.61123V8.17704V8.17575Z" fill="black"/>
<path d="M64.566 7.33311C64.566 6.03995 63.6642 4.96232 62.0881 4.96232C60.5121 4.96232 59.4196 6.01269 59.4196 7.38764C59.4196 8.7626 60.4358 9.82206 62.287 9.82206C63.1793 9.82206 63.9285 9.5507 64.3371 9.22612V8.46009C63.8345 8.90802 63.1479 9.19625 62.3361 9.19625C61.0256 9.19625 60.275 8.50813 60.2178 7.5045H64.5674V7.33182L64.566 7.33311ZM60.256 6.93582C60.4072 6.14771 61.0338 5.53229 62.08 5.53229C63.1261 5.53229 63.6465 6.17498 63.7895 6.93582H60.256Z" fill="black"/>
<path d="M69.8718 4.96232C68.8842 4.96232 68.1718 5.49594 67.8775 6.17498V2.96155L67.0806 3.10697V9.713H67.8775V8.60031C68.1813 9.27805 68.8747 9.82206 69.8718 9.82206C71.392 9.82206 72.3115 8.75352 72.3115 7.38764C72.3115 6.02177 71.3907 4.96232 69.8718 4.96232ZM69.7002 9.18067C68.94 9.18067 68.323 8.81843 67.8762 8.17575V6.60993C68.323 5.96724 68.94 5.605 69.6906 5.605C70.9057 5.605 71.5146 6.44634 71.5146 7.38764C71.5146 8.32895 70.9057 9.17937 69.7002 9.17937V9.18067Z" fill="black"/>
<path d="M88.1322 9.08979L91.4751 5.65953V5.07138H87.259V5.69589H90.497L87.1555 9.11705V9.7143H91.5132V9.08979H88.1322Z" fill="black"/>
<path d="M78.1363 7.33311C78.1363 6.03995 77.2345 4.96232 75.6585 4.96232C74.0824 4.96232 72.9899 6.01269 72.9899 7.38764C72.9899 8.7626 74.0061 9.82206 75.8574 9.82206C76.7496 9.82206 77.4988 9.5507 77.9075 9.22612V8.46009C77.4048 8.90802 76.7183 9.19625 75.9064 9.19625C74.5959 9.19625 73.8454 8.50813 73.7882 7.5045H78.1377V7.33182L78.1363 7.33311ZM73.8263 6.93582C73.9775 6.14771 74.6041 5.53229 75.6503 5.53229C76.6965 5.53229 77.2168 6.17498 77.3599 6.93582H73.8263Z" fill="black"/>
<path d="M86.4199 7.33311C86.4199 6.03995 85.5181 4.96232 83.9421 4.96232C82.366 4.96232 81.2735 6.01269 81.2735 7.38764C81.2735 8.7626 82.2897 9.82206 84.1409 9.82206C85.0332 9.82206 85.7824 9.5507 86.1911 9.22612V8.46009C85.6884 8.90802 85.0019 9.19625 84.19 9.19625C82.8795 9.19625 82.129 8.50813 82.0717 7.5045H86.4213V7.33182L86.4199 7.33311ZM82.1099 6.93582C82.2611 6.14771 82.8877 5.53229 83.9339 5.53229C84.9801 5.53229 85.5004 6.17498 85.6435 6.93582H82.1099Z" fill="black"/>
<path d="M94.8534 4.96361C94.0115 4.96361 93.3004 5.19862 92.806 5.61279V6.33857C93.34 5.86857 94.0646 5.59851 94.758 5.59851C95.6407 5.59851 95.9363 5.96984 95.9363 6.5567V6.61123L93.9707 7.028C92.8686 7.263 92.2229 7.66939 92.2229 8.4484C92.2229 9.28974 92.7637 9.82336 93.7799 9.82336C94.7962 9.82336 95.6217 9.18976 95.9363 8.6834V9.7156H96.7332V6.52943C96.7332 5.48036 96.078 4.96361 94.8534 4.96361ZM95.9363 8.28481C95.5277 8.80935 94.8057 9.2352 94.0279 9.2352C93.344 9.2352 93.0212 8.9275 93.0212 8.42114C93.0212 7.96931 93.4299 7.69665 94.1423 7.51618L95.9363 7.05397V8.28611V8.28481Z" fill="black"/>
<path d="M80.824 9.09368V9.7883C80.7 9.81038 80.5597 9.82206 80.3976 9.82206C79.8336 9.82206 79.4945 9.66626 79.2983 9.38192C79.1021 9.09888 79.0463 8.6873 79.0463 8.17575V3.10697L79.8432 2.96285V8.12901C79.8432 8.78987 79.8364 9.11576 80.5297 9.11576C80.6414 9.11576 80.7368 9.10667 80.824 9.09368Z" fill="black"/>
<path d="M101.293 9.7143H100.844V3.0823C100.844 1.38275 102.295 0 104.078 0H104.364V0.427159H104.078C102.542 0.427159 101.293 1.61905 101.293 3.0823V9.7143Z" fill="black"/>
</svg>
