<svg width="128" height="79" viewBox="0 0 128 79" fill="none" xmlns="http://www.w3.org/2000/svg">

<path d="M43.9919 73.2565L43.4239 74.5504C43.5443 74.5391 43.6534 74.5334 43.7549 74.5334C43.9637 74.5334 44.1442 74.5523 44.2946 74.5917C44.447 74.6312 44.573 74.6877 44.6727 74.7591L43.9919 73.2546V73.2565ZM53.6677 73.627C53.6057 73.4728 53.5192 73.3355 53.4045 73.2208C53.2954 73.1079 53.1675 73.0214 53.0095 72.9537C52.8628 72.8898 52.6955 72.854 52.5112 72.854C52.3269 72.854 52.1538 72.8879 52.0071 72.9537C51.8492 73.0195 51.7213 73.1079 51.6122 73.2208C51.5031 73.3298 51.4147 73.4652 51.3489 73.6289C51.285 73.7887 51.253 73.9617 51.253 74.1442C51.253 74.3266 51.285 74.5052 51.3489 74.6689C51.4129 74.8344 51.5013 74.9698 51.6122 75.0845C51.725 75.1992 51.8567 75.2895 52.0071 75.3534C52.1538 75.4173 52.325 75.4512 52.5112 75.4512C52.6973 75.4512 52.8628 75.4173 53.0095 75.3534C53.1581 75.2895 53.2916 75.1992 53.4045 75.0845C53.5192 74.9679 53.6094 74.8287 53.6677 74.6707C53.7317 74.5109 53.7637 74.3322 53.7637 74.1423C53.7637 73.9523 53.7317 73.7868 53.6677 73.6251V73.627ZM53.6677 73.627C53.6057 73.4728 53.5192 73.3355 53.4045 73.2208C53.2954 73.1079 53.1675 73.0214 53.0095 72.9537C52.8628 72.8898 52.6955 72.854 52.5112 72.854C52.3269 72.854 52.1538 72.8879 52.0071 72.9537C51.8492 73.0195 51.7213 73.1079 51.6122 73.2208C51.5031 73.3298 51.4147 73.4652 51.3489 73.6289C51.285 73.7887 51.253 73.9617 51.253 74.1442C51.253 74.3266 51.285 74.5052 51.3489 74.6689C51.4129 74.8344 51.5013 74.9698 51.6122 75.0845C51.725 75.1992 51.8567 75.2895 52.0071 75.3534C52.1538 75.4173 52.325 75.4512 52.5112 75.4512C52.6973 75.4512 52.8628 75.4173 53.0095 75.3534C53.1581 75.2895 53.2916 75.1992 53.4045 75.0845C53.5192 74.9679 53.6094 74.8287 53.6677 74.6707C53.7317 74.5109 53.7637 74.3322 53.7637 74.1423C53.7637 73.9523 53.7317 73.7868 53.6677 73.6251V73.627ZM39.6288 55.7496V78.2872H62.1645V55.7496H39.6288ZM45.2368 76.0831C45.1447 75.9251 45.0469 75.7897 44.9397 75.675C44.8325 75.5603 44.7197 75.4681 44.5937 75.3929C44.4658 75.3139 44.3266 75.2631 44.1743 75.2274C44.022 75.1917 43.8527 75.1766 43.6703 75.1766C43.5838 75.1766 43.4954 75.1785 43.4032 75.1879C43.313 75.1935 43.2152 75.2048 43.1174 75.2199L42.7394 76.085H41.8987L43.6947 72.2278H44.2777L46.07 76.085H45.235L45.2368 76.0831ZM49.9892 72.2804L48.2365 76.0812H47.6234L47.6121 76.0605L45.8706 72.2278H46.8316L47.9487 74.7949L49.0696 72.2278H50.0137L49.9892 72.2804ZM54.4764 74.9735C54.3673 75.2293 54.2169 75.4531 54.0307 75.6317C53.8445 75.816 53.617 75.9627 53.3556 76.0699C53.0923 76.1734 52.8064 76.2279 52.5093 76.2279C52.2121 76.2279 51.9225 76.1752 51.6611 76.0699C51.3978 75.9627 51.1703 75.816 50.9841 75.6317C50.7979 75.4512 50.6474 75.2293 50.5384 74.9735C50.4293 74.7253 50.3747 74.4488 50.3747 74.1498C50.3747 73.8508 50.4274 73.5781 50.5384 73.328C50.6474 73.0722 50.7941 72.8578 50.9841 72.6716C51.174 72.4911 51.3997 72.3444 51.6611 72.2372C51.9225 72.1356 52.2084 72.083 52.5093 72.083C52.8102 72.083 53.0904 72.1356 53.3518 72.2372C53.6132 72.3444 53.8408 72.4911 54.0288 72.6716C54.2188 72.8578 54.3655 73.0722 54.4745 73.328C54.5836 73.5781 54.6382 73.8527 54.6382 74.1498C54.6382 74.4469 54.5855 74.7253 54.4745 74.9735H54.4764ZM59.2326 76.0812H58.5762L58.563 76.0699L56.5921 73.7379V76.0812H55.7402V72.2259H56.3984L56.4097 72.2391L58.3806 74.5673V72.224H59.2326V76.0793V76.0812ZM53.4045 73.2208C53.2954 73.1079 53.1675 73.0214 53.0095 72.9537C52.8628 72.8898 52.6955 72.854 52.5112 72.854C52.3269 72.854 52.1538 72.8879 52.0071 72.9537C51.8492 73.0195 51.7213 73.1079 51.6122 73.2208C51.5031 73.3298 51.4147 73.4652 51.3489 73.6289C51.285 73.7887 51.253 73.9617 51.253 74.1442C51.253 74.3266 51.285 74.5052 51.3489 74.6689C51.4129 74.8344 51.5013 74.9698 51.6122 75.0845C51.725 75.1992 51.8567 75.2895 52.0071 75.3534C52.1538 75.4173 52.325 75.4512 52.5112 75.4512C52.6973 75.4512 52.8628 75.4173 53.0095 75.3534C53.1581 75.2895 53.2916 75.1992 53.4045 75.0845C53.5192 74.9679 53.6094 74.8287 53.6677 74.6707C53.7317 74.5109 53.7637 74.3322 53.7637 74.1423C53.7637 73.9523 53.7317 73.7868 53.6677 73.6251C53.6057 73.4709 53.5192 73.3336 53.4045 73.2189V73.2208Z" fill="white"/>
<path d="M4.38189 73.0817C2.74197 73.0817 1.82422 74.0652 1.82422 75.66V77.7588H2.93944V75.5509C2.93944 74.3266 3.37575 73.5838 4.38189 73.5838C5.32221 73.5838 5.75851 74.3266 5.75851 75.5509V77.7588H6.87373V75.66C6.87373 74.0652 6.04249 73.0817 4.38189 73.0817Z" fill="white"/>
<path d="M10.3698 73.0817C9.03643 73.0817 7.81213 73.9769 7.81213 75.551C7.81213 77.0367 8.81827 77.9112 10.2156 77.9112C10.9584 77.9112 11.5264 77.6047 11.8329 77.0367V77.757H12.903V75.6808C12.903 74.086 12.0285 73.0798 10.3679 73.0798L10.3698 73.0817ZM10.3698 77.4091C9.38623 77.4091 8.92735 76.7527 8.92735 75.551C8.92735 74.4583 9.38623 73.5838 10.3698 73.5838C11.3534 73.5838 11.7897 74.4583 11.7897 75.551C11.7897 76.6436 11.1992 77.4091 10.3698 77.4091Z" fill="white"/>
<path d="M21.2963 75.4419C21.2963 76.6662 20.9033 77.409 19.9423 77.409C18.9813 77.409 18.6315 76.6662 18.6315 75.4419V73.234H17.5162V75.3328C17.5162 76.9276 18.3023 77.9112 19.9423 77.9112C21.5822 77.9112 22.4115 76.9276 22.4115 75.3328V73.234H21.2963V75.4419Z" fill="white"/>
<path d="M28.9882 73.0817C27.6548 73.0817 26.4305 73.9769 26.4305 75.551C26.4305 77.0367 27.4367 77.9112 28.834 77.9112C29.5769 77.9112 30.1448 77.6047 30.4513 77.0367V77.757H31.5214V75.6808C31.5214 74.086 30.6469 73.0798 28.9863 73.0798L28.9882 73.0817ZM28.9882 77.4091C28.0046 77.4091 27.5458 76.7527 27.5458 75.551C27.5458 74.4583 28.0046 73.5838 28.9882 73.5838C29.9718 73.5838 30.4081 74.4583 30.4081 75.551C30.4081 76.6436 29.8176 77.4091 28.9882 77.4091Z" fill="white"/>
<path d="M23.6133 75.1804V77.7588H24.7285V75.0488C24.7285 74.1743 24.926 73.6063 25.8212 73.6063C25.9302 73.6063 26.0619 73.6063 26.1935 73.6289V73.17C25.9528 73.1042 25.7121 73.0835 25.4732 73.0835C24.4031 73.0835 23.6152 73.6947 23.6152 75.1823L23.6133 75.1804Z" fill="white"/>
<path d="M16.0945 77.3883C15.5472 77.3883 15.22 77.0385 15.22 75.9684V73.7606H16.685V73.2359H15.22V72.1H14.1047V75.7935C14.1047 77.4109 14.9792 77.913 15.9177 77.913C16.3765 77.913 16.7922 77.7814 17.0968 77.5632C16.9878 77.4542 16.8994 77.3225 16.8561 77.1909C16.638 77.3225 16.3972 77.3883 16.0907 77.3883H16.0945Z" fill="white"/>
<path d="M20.9221 62.4899C20.9221 63.1331 20.5967 63.9154 20.3635 64.3273C20.2356 64.5567 20.2037 64.6094 20.2037 64.6451C20.2037 64.6695 20.2187 64.6921 20.2488 64.6921C20.403 64.6921 21.6913 63.701 22.594 63.701C23.1243 63.701 23.6076 63.9831 23.6076 64.647C23.6076 65.3108 23.1563 66.4148 21.6518 67.2197C21.5446 67.278 21.3189 67.3965 21.1609 67.4811C20.9578 67.5883 20.9051 67.641 20.9051 67.7087C20.9051 67.8798 21.5032 67.797 21.5032 68.1487C21.5032 68.3349 21.2756 68.6452 20.6776 68.9781C20.1322 69.2828 19.4044 69.5329 18.4998 69.5329C17.8548 69.5329 17.4937 69.4069 17.426 69.4069C17.3996 69.4069 17.3789 69.4144 17.3507 69.4407C17.3131 69.4727 16.8524 69.8676 15.7785 69.8676C14.5448 69.8676 13.1626 69.3617 13.1626 68.8916C13.1626 68.6621 13.4522 68.5982 13.4522 68.5493C13.4522 68.5286 13.4183 68.5211 13.4033 68.5173C11.6806 68.0528 9.73792 67.1351 9.73792 65.8976C9.73792 65.5553 9.97864 65.3786 10.3284 65.3786C10.934 65.3786 11.7709 65.6588 11.9533 65.6588C11.9984 65.6588 12.0154 65.6343 12.0154 65.6099C12.0154 65.576 11.989 65.5384 11.9364 65.4951C10.8324 64.5567 10.3717 63.6954 10.3717 62.9732C10.3717 62.0404 11.045 61.3333 11.9401 61.1565C13.5895 60.8312 14.5843 62.2398 15.4645 63.3719C15.4889 63.4039 15.534 63.4697 15.5886 63.4697C15.6563 63.4697 15.6732 63.4039 15.7353 63.1556C15.7973 62.9074 15.8143 62.8303 15.8932 62.5125C16.1509 61.4649 16.7715 60.1372 18.5619 60.1372C19.6169 60.1372 20.9221 60.85 20.9221 62.4936V62.4899ZM15.8161 64.8426C15.4833 64.8426 15.3065 64.6564 14.9661 64.2295C14.9116 64.1618 14.6765 63.8759 14.6163 63.8045C13.7926 62.8115 13.1964 62.362 12.5137 62.362C12.1019 62.362 11.4831 62.5933 11.4831 63.3775C11.4831 63.481 11.4963 63.9211 11.9232 64.442C12.4667 65.1059 13.2547 65.9841 13.3262 66.0669C13.3995 66.1515 13.439 66.2399 13.4371 66.3189C13.4371 66.3621 13.424 66.5558 13.0949 66.5558C12.7657 66.5558 11.3722 66.1458 10.8813 66.1458C10.6538 66.1458 10.5071 66.2436 10.5071 66.411C10.5071 66.8417 11.3477 67.7275 13.9919 68.3236C14.3248 68.3989 14.353 68.5173 14.353 68.5587C14.353 68.7129 13.9411 68.7844 13.9411 69.0477C13.9411 69.4313 15.1842 69.6025 15.5397 69.6025C16.1735 69.6025 16.4856 69.4163 16.7226 69.2545C16.9238 69.1154 17.0404 69.0627 17.174 69.0627C17.4579 69.0627 17.7231 69.2395 18.5844 69.2395C19.632 69.2395 20.7321 68.6922 20.7321 68.3951C20.7321 68.2785 20.5572 68.2484 20.1661 68.1205C19.9611 68.0528 19.8426 67.9701 19.8426 67.8422C19.8426 67.7143 19.9423 67.624 20.2394 67.4961C20.5553 67.3589 20.7829 67.2573 21.0161 67.1445C22.2912 66.5314 22.7839 65.781 22.7877 65.2394C22.7895 64.8915 22.5902 64.6564 22.2648 64.6564C21.8361 64.6564 21.3659 64.9046 20.9089 65.1359C20.0513 65.5704 19.7392 65.7359 19.4382 65.7359C19.2257 65.7359 19.1261 65.5534 19.1242 65.4463C19.1242 65.3842 19.1336 65.3127 19.1618 65.2356C19.2728 64.9366 19.3517 64.7354 19.4721 64.4138C19.6508 63.9417 19.867 63.402 19.867 62.8679C19.867 62.0329 19.2201 61.4649 18.37 61.4649C17.4184 61.4649 17.0103 62.362 16.7696 63.0748C16.7038 63.2704 16.4537 64.0301 16.3766 64.2577C16.243 64.6564 16.0663 64.8426 15.8124 64.8426H15.8161Z" fill="white"/>
<path d="M1.14531 57.6172H0C0 52.5865 4.09415 48.4923 9.12486 48.4923H63.9906V49.6376H9.12486C4.72416 49.6376 1.14531 53.2165 1.14531 57.6172Z" fill="white"/>
<path d="M6.93767 16.4367C3.94934 16.4367 2.0104 14.2834 2.0104 11.6994C2.0104 9.11541 3.99448 6.98464 6.964 6.98464C8.77506 6.98464 10.1479 7.64851 11.2368 8.79006V6.71195C10.3228 5.79796 8.82583 5.28455 6.65182 5.28455C2.75325 5.28643 0 8.06225 0 11.6994C0 15.3366 2.75325 18.1331 6.67627 18.1331C8.70547 18.1331 10.3868 17.599 11.4418 16.6887V14.6294C10.2476 15.8274 8.68855 16.4386 6.93767 16.4386V16.4367Z" fill="white"/>
<path d="M19.7543 5.2865C15.7128 5.2865 13.0554 8.01342 13.0554 11.6995C13.0554 15.3855 15.7128 18.1331 19.7543 18.1331C23.7957 18.1331 26.4305 15.3836 26.4305 11.6995C26.4305 8.0153 23.7995 5.2865 19.7543 5.2865ZM19.7543 16.4368C16.8581 16.4368 15.0639 14.306 15.0639 11.6995C15.0639 9.09291 16.86 6.98472 19.7543 6.98472C22.6486 6.98472 24.4446 9.11548 24.4446 11.6995C24.4446 14.2835 22.6486 16.4368 19.7543 16.4368Z" fill="white"/>
<path d="M35.6042 5.28643C33.1387 5.28643 31.6079 6.62544 30.8406 8.34811V5.57416H28.832V17.8491H30.8406V9.23577C31.8241 7.91744 33.2346 7.00909 34.8858 7.00909C37.088 7.00909 38.2352 8.25407 38.2352 10.3811V17.8472H40.2456V10.0219C40.2456 7.12569 38.5925 5.28455 35.6042 5.28455V5.28643Z" fill="white"/>
<path d="M49.7071 10.6708L46.4273 10.1931C45.1127 10.0238 44.4432 9.61761 44.4432 8.70926C44.4432 7.48685 45.7578 6.86623 47.8885 6.86623C50.0193 6.86623 51.4768 7.58276 52.5525 8.47042V6.50327C51.6178 5.80744 49.6601 5.2865 47.8415 5.2865C44.6106 5.2865 42.5287 6.55593 42.5287 8.80517C42.5287 10.5749 43.7511 11.5791 46.0699 11.9402L49.5153 12.4668C50.8806 12.6567 51.599 13.3055 51.599 14.259C51.599 15.7673 50.1622 16.5346 48.0578 16.5346C45.9533 16.5346 44.0859 15.8388 42.4817 14.6427V16.6136C43.7041 17.379 45.7822 18.1331 48.0315 18.1331C51.142 18.1331 53.5116 16.6982 53.5116 14.1142C53.5116 12.1527 52.1971 11.0262 49.709 10.6689L49.7071 10.6708Z" fill="white"/>
<path d="M65.0531 5.57422V14.212C64.0978 15.504 62.7343 16.4123 61.0831 16.4123C58.8564 16.4123 57.7562 15.1467 57.7562 13.0629V5.57422H55.7458V13.3958C55.7458 16.2675 57.3256 18.1331 60.3873 18.1331C62.802 18.1331 64.2877 16.7715 65.0512 15.0714V17.8473H67.0616V5.57422H65.0512H65.0531Z" fill="white"/>
<path d="M85.396 7.29687V5.5742H80.1547V1.48193L78.1443 1.88627V5.57232H75.0563V7.29499H78.1443V13.7324C78.1443 16.4368 79.4852 18.0861 82.3325 18.0861C83.4514 18.0861 84.4256 17.8491 84.956 17.5407V15.7898C84.3523 16.1114 83.5887 16.339 82.6672 16.339C80.922 16.339 80.1566 15.3592 80.1566 13.6102V7.29499H85.3979L85.396 7.29687Z" fill="white"/>
<path d="M93.2533 5.2865C89.2081 5.2865 86.5526 8.01342 86.5526 11.6995C86.5526 15.3855 89.2099 18.1331 93.2533 18.1331C97.2967 18.1331 99.9296 15.3836 99.9296 11.6995C99.9296 8.0153 97.2967 5.2865 93.2533 5.2865ZM93.2533 16.4368C90.3571 16.4368 88.563 14.306 88.563 11.6995C88.563 9.09291 90.359 6.98472 93.2533 6.98472C96.1476 6.98472 97.9418 9.11548 97.9418 11.6995C97.9418 14.2835 96.1495 16.4368 93.2533 16.4368Z" fill="white"/>
<path d="M104.342 10.3812V5.57426H102.331V17.8492H104.342V11.2688C105.769 9.51984 107.977 8.41779 109.76 7.6392V5.34106C107.751 6.27574 105.44 7.85172 104.342 10.3831V10.3812Z" fill="white"/>
<path d="M111.983 5.57422V17.8491H113.993V5.57422H111.983Z" fill="white"/>
<path d="M123.263 5.2865C121.141 5.2865 119.351 5.90711 118.104 7.00164V8.91989C119.449 7.67679 121.277 6.96403 123.024 6.96403C125.25 6.96403 125.991 7.94384 125.991 9.49913V9.64206L121.038 10.7441C118.262 11.3647 116.635 12.4404 116.635 14.5016C116.635 16.7245 117.997 18.1369 120.558 18.1369C123.12 18.1369 125.2 16.4631 125.991 15.1222V17.851H128V9.42766C128 6.65372 126.351 5.29026 123.263 5.29026V5.2865ZM125.991 14.0691C124.961 15.4551 123.142 16.5797 121.181 16.5797C119.458 16.5797 118.644 15.7654 118.644 14.4264C118.644 13.2303 119.674 12.5119 121.468 12.0342L125.991 10.8118V14.0672V14.0691Z" fill="white"/>
<path d="M74.6857 16.2807V18.0466C74.3754 18.1049 74.0219 18.135 73.6119 18.135C72.1901 18.135 71.3344 17.7231 70.8398 16.9728C70.3452 16.2243 70.2061 15.1354 70.2061 13.7832V0.38177L72.2146 0V13.6591H72.2165C72.2165 15.4081 72.1995 16.339 73.9448 16.339C74.225 16.339 74.4676 16.3164 74.6857 16.2807Z" fill="white"/>
<path d="M113.794 4.02829H112.317L113.389 0.64502H115.866L113.794 4.02829Z" fill="white"/>
<path d="M11.1748 22.6222V30.7334C10.4563 28.9374 8.6641 27.5269 6.14969 27.5269C2.32259 27.5269 0 30.3272 0 33.9399C0 37.5526 2.32259 40.3773 6.14969 40.3773C8.68667 40.3773 10.4338 38.9405 11.1748 37.1463V40.0877H13.1852V22.2385L11.1748 22.6222ZM11.1748 36.0198C10.0746 37.7199 8.49484 38.6772 6.60668 38.6772C3.56569 38.6772 2.01228 36.4505 2.01228 33.9399C2.01228 31.4292 3.56569 29.2251 6.60668 29.2251C8.51929 29.2251 10.0765 30.1823 11.1748 31.8824V36.0198Z" fill="white"/>
<path d="M28.5556 33.795C28.5556 30.376 26.2819 27.5269 22.31 27.5269C18.3381 27.5269 15.5848 30.3027 15.5848 33.9398C15.5848 37.577 18.1463 40.3773 22.8103 40.3773C25.0576 40.3773 26.9458 39.6607 27.9764 38.8032V36.7796C26.7107 37.9625 24.9805 38.7261 22.9325 38.7261C19.6301 38.7261 17.7382 36.9075 17.5952 34.2539H28.5537V33.7969L28.5556 33.795ZM17.693 32.7437C18.0748 30.66 19.6545 29.0332 22.2874 29.0332C24.9203 29.0332 26.233 30.7333 26.5941 32.7437H17.693Z" fill="white"/>
<path d="M41.9251 27.5269C39.437 27.5269 37.641 28.9374 36.9 30.7334V22.2385L34.8915 22.6222V40.0877H36.9V37.1463C37.6654 38.9386 39.4144 40.3773 41.9251 40.3773C45.754 40.3773 48.0748 37.5526 48.0748 33.9399C48.0748 30.3272 45.7559 27.5269 41.9251 27.5269ZM41.4944 38.6772C39.5799 38.6772 38.0265 37.7199 36.9 36.0198V31.8824C38.0265 30.1823 39.5799 29.2251 41.4718 29.2251C44.5335 29.2251 46.0662 31.4518 46.0662 33.9399C46.0662 36.4279 44.5335 38.6772 41.4944 38.6772Z" fill="white"/>
<path d="M93.8664 38.4383L102.29 29.368V27.8146H91.6661V29.4639H99.8262L91.4047 38.5079V40.0876H102.388V38.4383H93.8664Z" fill="white"/>
<path d="M62.7531 33.795C62.7531 30.376 60.4794 27.5269 56.5075 27.5269C52.5356 27.5269 49.7823 30.3027 49.7823 33.9398C49.7823 37.577 52.3438 40.3773 57.0078 40.3773C59.2551 40.3773 61.1433 39.6607 62.1739 38.8032V36.7796C60.9082 37.9625 59.178 38.7261 57.13 38.7261C53.8276 38.7261 51.9357 36.9075 51.7928 34.2539H62.7512V33.7969L62.7531 33.795ZM51.8887 32.7437C52.2704 30.66 53.8502 29.0332 56.4831 29.0332C59.116 29.0332 60.4286 30.7333 60.7897 32.7437H51.8887Z" fill="white"/>
<path d="M89.5504 33.795C89.5504 30.376 87.2767 27.5269 83.3047 27.5269C79.3328 27.5269 76.5796 30.3027 76.5796 33.9398C76.5796 37.577 79.141 40.3773 83.805 40.3773C86.0524 40.3773 87.9405 39.6607 88.9711 38.8032V36.7796C87.7054 37.9625 85.9753 38.7261 83.9272 38.7261C80.6248 38.7261 78.7329 36.9075 78.59 34.2539H89.5485V33.7969L89.5504 33.795ZM78.6878 32.7437C79.0696 30.66 80.6493 29.0332 83.2822 29.0332C85.9151 29.0332 87.2278 30.7333 87.5888 32.7437H78.6878Z" fill="white"/>
<path d="M110.803 27.5269C108.682 27.5269 106.892 28.1475 105.645 29.242V31.1602C106.989 29.9171 108.817 29.2044 110.565 29.2044C112.791 29.2044 113.532 30.1842 113.532 31.7395V31.8824L108.579 32.9845C105.803 33.6051 104.176 34.6808 104.176 36.742C104.176 38.9649 105.538 40.3773 108.099 40.3773C110.66 40.3773 112.74 38.7035 113.532 37.3626V40.0914H115.541V31.668C115.541 28.8941 113.891 27.5306 110.803 27.5306V27.5269ZM113.532 36.3094C112.502 37.6955 110.683 38.8201 108.722 38.8201C106.999 38.8201 106.185 38.0058 106.185 36.6668C106.185 35.4707 107.215 34.7523 109.009 34.2746L113.532 33.0522V36.3076V36.3094Z" fill="white"/>
<path d="M75.6392 38.4496V40.287C75.3289 40.3453 74.9754 40.3754 74.5654 40.3754C73.1436 40.3754 72.2879 39.9635 71.7933 39.2131C71.2987 38.4646 71.1595 37.3757 71.1595 36.0236V22.6221L73.1681 22.2404V35.8994H73.1699C73.1699 37.6484 73.153 38.5079 74.8983 38.5079C75.1785 38.5079 75.4211 38.4853 75.6392 38.4496Z" fill="white"/>
<path d="M69.5272 38.4496V40.287C69.2169 40.3453 68.8633 40.3754 68.4533 40.3754C67.0316 40.3754 66.1759 39.9635 65.6813 39.2131C65.1867 38.4646 65.0475 37.3757 65.0475 36.0236V22.6221L67.056 22.2404V35.8994H67.0579C67.0579 37.6484 67.041 38.5079 68.7862 38.5079C69.0664 38.5079 69.309 38.4853 69.5272 38.4496Z" fill="white"/>

</svg>
