<svg width="92" height="56" viewBox="0 0 92 56" fill="none" xmlns="http://www.w3.org/2000/svg">
<path d="M31.6352 52.4015L31.2274 53.327C31.3138 53.3189 31.3922 53.3149 31.4651 53.3149C31.6149 53.3149 31.7446 53.3283 31.8526 53.3566C31.9619 53.3848 32.0524 53.4252 32.124 53.4763L31.6352 52.4001V52.4015ZM38.582 52.6665C38.5374 52.5562 38.4753 52.458 38.393 52.3759C38.3146 52.2952 38.2228 52.2333 38.1094 52.1849C38.0041 52.1391 37.8839 52.1136 37.7516 52.1136C37.6193 52.1136 37.4951 52.1378 37.3898 52.1849C37.2763 52.232 37.1845 52.2952 37.1062 52.3759C37.0279 52.4539 36.9644 52.5508 36.9172 52.6678C36.8713 52.7822 36.8483 52.9059 36.8483 53.0364C36.8483 53.1669 36.8713 53.2947 36.9172 53.4117C36.9631 53.5301 37.0266 53.627 37.1062 53.709C37.1872 53.7911 37.2817 53.8557 37.3898 53.9014C37.4951 53.9471 37.6179 53.9714 37.7516 53.9714C37.8853 53.9714 38.0041 53.9471 38.1094 53.9014C38.2161 53.8557 38.3119 53.7911 38.393 53.709C38.4753 53.6256 38.5401 53.5261 38.582 53.4131C38.6279 53.2987 38.6508 53.1709 38.6508 53.0351C38.6508 52.8992 38.6279 52.7808 38.582 52.6651V52.6665ZM38.582 52.6665C38.5374 52.5562 38.4753 52.458 38.393 52.3759C38.3146 52.2952 38.2228 52.2333 38.1094 52.1849C38.0041 52.1391 37.8839 52.1136 37.7516 52.1136C37.6193 52.1136 37.4951 52.1378 37.3898 52.1849C37.2763 52.232 37.1845 52.2952 37.1062 52.3759C37.0279 52.4539 36.9644 52.5508 36.9172 52.6678C36.8713 52.7822 36.8483 52.9059 36.8483 53.0364C36.8483 53.1669 36.8713 53.2947 36.9172 53.4117C36.9631 53.5301 37.0266 53.627 37.1062 53.709C37.1872 53.7911 37.2817 53.8557 37.3898 53.9014C37.4951 53.9471 37.6179 53.9714 37.7516 53.9714C37.8853 53.9714 38.0041 53.9471 38.1094 53.9014C38.2161 53.8557 38.3119 53.7911 38.393 53.709C38.4753 53.6256 38.5401 53.5261 38.582 53.4131C38.6279 53.2987 38.6508 53.1709 38.6508 53.0351C38.6508 52.8992 38.6279 52.7808 38.582 52.6651V52.6665ZM28.5027 39.8785V56H44.6822V39.8785H28.5027ZM32.529 54.4234C32.4629 54.3104 32.3927 54.2135 32.3157 54.1315C32.2387 54.0494 32.1577 53.9835 32.0673 53.9297C31.9754 53.8732 31.8755 53.8368 31.7662 53.8113C31.6568 53.7857 31.5353 53.775 31.4043 53.775C31.3422 53.775 31.2787 53.7763 31.2126 53.783C31.1478 53.7871 31.0776 53.7951 31.0074 53.8059L30.736 54.4247H30.1324L31.4219 51.6656H31.8404L33.1272 54.4247H32.5277L32.529 54.4234ZM35.941 51.7033L34.6826 54.422H34.2424L34.2343 54.4072L32.984 51.6656H33.674L34.476 53.5019L35.2807 51.6656H35.9585L35.941 51.7033ZM39.1626 53.6297C39.0843 53.8126 38.9762 53.9727 38.8426 54.1005C38.7089 54.2323 38.5455 54.3373 38.3578 54.4139C38.1688 54.4879 37.9636 54.527 37.7503 54.527C37.5369 54.527 37.329 54.4893 37.1413 54.4139C36.9523 54.3373 36.7889 54.2323 36.6552 54.1005C36.5216 53.9714 36.4136 53.8126 36.3352 53.6297C36.2569 53.4521 36.2178 53.2543 36.2178 53.0405C36.2178 52.8266 36.2556 52.6315 36.3352 52.4526C36.4136 52.2696 36.5189 52.1163 36.6552 51.9831C36.7916 51.8539 36.9536 51.749 37.1413 51.6723C37.329 51.5997 37.5342 51.562 37.7503 51.562C37.9663 51.562 38.1675 51.5997 38.3551 51.6723C38.5428 51.749 38.7062 51.8539 38.8412 51.9831C38.9776 52.1163 39.0829 52.2696 39.1612 52.4526C39.2395 52.6315 39.2787 52.8279 39.2787 53.0405C39.2787 53.253 39.2409 53.4521 39.1612 53.6297H39.1626ZM42.5772 54.422H42.106L42.0966 54.4139L40.6815 52.7458V54.422H40.0699V51.6643H40.5425L40.5506 51.6737L41.9656 53.3391V51.6629H42.5772V54.422ZM38.393 52.3759C38.3146 52.2952 38.2228 52.2333 38.1094 52.1849C38.0041 52.1391 37.8839 52.1136 37.7516 52.1136C37.6193 52.1136 37.4951 52.1378 37.3898 52.1849C37.2763 52.232 37.1845 52.2952 37.1062 52.3759C37.0279 52.4539 36.9644 52.5508 36.9172 52.6678C36.8713 52.7822 36.8483 52.9059 36.8483 53.0364C36.8483 53.1669 36.8713 53.2947 36.9172 53.4117C36.9631 53.5301 37.0266 53.627 37.1062 53.709C37.1872 53.7911 37.2817 53.8557 37.3898 53.9014C37.4951 53.9471 37.6179 53.9714 37.7516 53.9714C37.8853 53.9714 38.0041 53.9471 38.1094 53.9014C38.2161 53.8557 38.3119 53.7911 38.393 53.709C38.4753 53.6256 38.5401 53.5261 38.582 53.4131C38.6279 53.2987 38.6508 53.1709 38.6508 53.0351C38.6508 52.8992 38.6279 52.7808 38.582 52.6651C38.5374 52.5548 38.4753 52.4566 38.393 52.3746V52.3759Z" fill="#AE0025"/>
<path d="M3.19724 52.2764C2.01986 52.2764 1.36097 52.9799 1.36097 54.1207V55.622H2.16163V54.0427C2.16163 53.1669 2.47488 52.6355 3.19724 52.6355C3.87234 52.6355 4.18559 53.1669 4.18559 54.0427V55.622H4.98626V54.1207C4.98626 52.9799 4.38947 52.2764 3.19724 52.2764Z" fill="#AE0025"/>
<path d="M7.49628 52.2764C6.53899 52.2764 5.66001 52.9167 5.66001 54.0427C5.66001 55.1054 6.38237 55.731 7.38557 55.731C7.91889 55.731 8.32665 55.5117 8.54674 55.1054V55.6206H9.315V54.1355C9.315 52.9947 8.68716 52.275 7.49493 52.275L7.49628 52.2764ZM7.49628 55.3718C6.79013 55.3718 6.46068 54.9023 6.46068 54.0427C6.46068 53.2611 6.79013 52.6355 7.49628 52.6355C8.20244 52.6355 8.51568 53.2611 8.51568 54.0427C8.51568 54.8243 8.09172 55.3718 7.49628 55.3718Z" fill="#AE0025"/>
<path d="M15.341 53.9646C15.341 54.8404 15.0588 55.3718 14.3688 55.3718C13.6789 55.3718 13.4277 54.8404 13.4277 53.9646V52.3853H12.627V53.8866C12.627 55.0274 13.1914 55.731 14.3688 55.731C15.5462 55.731 16.1416 55.0274 16.1416 53.8866V52.3853H15.341V53.9646Z" fill="#AE0025"/>
<path d="M20.8633 52.2764C19.906 52.2764 19.027 52.9167 19.027 54.0427C19.027 55.1054 19.7494 55.731 20.7526 55.731C21.2859 55.731 21.6937 55.5117 21.9137 55.1054V55.6206H22.682V54.1355C22.682 52.9947 22.0542 52.275 20.8619 52.275L20.8633 52.2764ZM20.8633 55.3718C20.1571 55.3718 19.8277 54.9023 19.8277 54.0427C19.8277 53.2611 20.1571 52.6355 20.8633 52.6355C21.5694 52.6355 21.8827 53.2611 21.8827 54.0427C21.8827 54.8243 21.4587 55.3718 20.8633 55.3718Z" fill="#AE0025"/>
<path d="M17.0044 53.7777V55.622H17.8051V53.6835C17.8051 53.0579 17.9468 52.6517 18.5895 52.6517C18.6679 52.6517 18.7624 52.6517 18.8569 52.6678V52.3396C18.6841 52.2925 18.5112 52.2777 18.3398 52.2777C17.5715 52.2777 17.0058 52.7149 17.0058 53.779L17.0044 53.7777Z" fill="#AE0025"/>
<path d="M11.6063 55.357C11.2134 55.357 10.9785 55.1068 10.9785 54.3413V52.762H12.0303V52.3867H10.9785V51.5741H10.1778V54.2162C10.1778 55.3731 10.8056 55.7323 11.4794 55.7323C11.8088 55.7323 12.1072 55.6381 12.326 55.4821C12.2476 55.4041 12.1842 55.3099 12.1531 55.2157C11.9965 55.3099 11.8237 55.357 11.6036 55.357H11.6063Z" fill="#AE0025"/>
<path d="M15.0723 44.6999C15.0723 45.16 14.8387 45.7196 14.6713 46.0142C14.5794 46.1783 14.5565 46.216 14.5565 46.2416C14.5565 46.2591 14.5673 46.2752 14.5889 46.2752C14.6996 46.2752 15.6245 45.5663 16.2726 45.5663C16.6534 45.5663 17.0004 45.768 17.0004 46.2429C17.0004 46.7178 16.6763 47.5074 15.5961 48.0832C15.5192 48.1249 15.3572 48.2097 15.2437 48.2702C15.0979 48.3469 15.0601 48.3845 15.0601 48.433C15.0601 48.5554 15.4895 48.4962 15.4895 48.7478C15.4895 48.8809 15.3261 49.1029 14.8967 49.341C14.5052 49.559 13.9827 49.7379 13.3332 49.7379C12.8701 49.7379 12.6108 49.6477 12.5622 49.6477C12.5433 49.6477 12.5285 49.6531 12.5082 49.672C12.4812 49.6948 12.1504 49.9773 11.3795 49.9773C10.4937 49.9773 9.50133 49.6155 9.50133 49.2791C9.50133 49.115 9.70926 49.0693 9.70926 49.0343C9.70926 49.0195 9.68496 49.0141 9.67416 49.0114C8.43737 48.6792 7.04261 48.0227 7.04261 47.1375C7.04261 46.8927 7.21544 46.7662 7.46658 46.7662C7.90134 46.7662 8.50218 46.9667 8.63315 46.9667C8.66556 46.9667 8.67771 46.9492 8.67771 46.9317C8.67771 46.9075 8.65881 46.8806 8.621 46.8496C7.82843 46.1783 7.49763 45.5622 7.49763 45.0456C7.49763 44.3784 7.98101 43.8726 8.6237 43.7461C9.80783 43.5134 10.5221 44.521 11.154 45.3308C11.1715 45.3537 11.2039 45.4008 11.2431 45.4008C11.2917 45.4008 11.3039 45.3537 11.3484 45.1761C11.393 44.9986 11.4051 44.9434 11.4618 44.7161C11.6468 43.9668 12.0924 43.017 13.3778 43.017C14.1352 43.017 15.0723 43.5269 15.0723 44.7026V44.6999ZM11.4065 46.3828C11.1675 46.3828 11.0406 46.2496 10.7962 45.9443C10.757 45.8958 10.5882 45.6914 10.545 45.6402C9.95365 44.9299 9.52564 44.6084 9.03551 44.6084C8.73982 44.6084 8.2956 44.7739 8.2956 45.3349C8.2956 45.4089 8.30505 45.7237 8.61155 46.0963C9.00176 46.5712 9.56749 47.1994 9.6188 47.2586C9.67146 47.3191 9.69981 47.3823 9.69846 47.4388C9.69846 47.4698 9.68901 47.6083 9.45272 47.6083C9.21644 47.6083 8.21594 47.3151 7.86354 47.3151C7.70016 47.3151 7.59485 47.385 7.59485 47.5048C7.59485 47.8128 8.19839 48.4464 10.0968 48.8729C10.3358 48.9267 10.356 49.0114 10.356 49.041C10.356 49.1513 10.0603 49.2025 10.0603 49.3908C10.0603 49.6652 10.9528 49.7876 11.208 49.7876C11.663 49.7876 11.8871 49.6545 12.0573 49.5388C12.2017 49.4392 12.2854 49.4016 12.3813 49.4016C12.5852 49.4016 12.7756 49.528 13.394 49.528C14.146 49.528 14.9359 49.1365 14.9359 48.924C14.9359 48.8406 14.8103 48.8191 14.5295 48.7276C14.3823 48.6792 14.2972 48.62 14.2972 48.5285C14.2972 48.437 14.3688 48.3724 14.5821 48.281C14.809 48.1828 14.9724 48.1101 15.1398 48.0294C16.0552 47.5909 16.409 47.0541 16.4117 46.6667C16.413 46.4178 16.2699 46.2496 16.0363 46.2496C15.7285 46.2496 15.3909 46.4272 15.0628 46.5927C14.4471 46.9034 14.223 47.0218 14.007 47.0218C13.8544 47.0218 13.7828 46.8913 13.7815 46.8146C13.7815 46.7703 13.7882 46.7191 13.8085 46.664C13.8881 46.4501 13.9448 46.3061 14.0313 46.0761C14.1595 45.7384 14.3148 45.3524 14.3148 44.9703C14.3148 44.373 13.8503 43.9668 13.24 43.9668C12.5568 43.9668 12.2638 44.6084 12.091 45.1183C12.0438 45.2582 11.8642 45.8017 11.8088 45.9644C11.713 46.2496 11.586 46.3828 11.4038 46.3828H11.4065Z" fill="#AE0025"/>
<path d="M0.873542 41.2144H0.0512695C0.0512695 37.6158 2.99066 34.6872 6.60245 34.6872H45.9932V35.5065H6.60245C3.44298 35.5065 0.873542 38.0665 0.873542 41.2144Z" fill="#AE0025"/>
<path d="M5.03216 11.7575C2.88669 11.7575 1.49464 10.2172 1.49464 8.36879C1.49464 6.52042 2.9191 4.99625 5.05107 4.99625C6.35131 4.99625 7.33696 5.47112 8.11872 6.28769V4.80119C7.46253 4.1474 6.38777 3.78015 4.82693 3.78015C2.02796 3.78149 0.0512695 5.76708 0.0512695 8.36879C0.0512695 10.9705 2.02796 12.9709 4.84449 12.9709C6.30135 12.9709 7.50843 12.5888 8.2659 11.9377V10.4647C7.40852 11.3216 6.2892 11.7588 5.03216 11.7588V11.7575Z" fill="#AE0025"/>
<path d="M14.2338 3.78149C11.3322 3.78149 9.42437 5.7321 9.42437 8.36879C9.42437 11.0055 11.3322 12.9709 14.2338 12.9709C17.1354 12.9709 19.027 11.0041 19.027 8.36879C19.027 5.73345 17.1381 3.78149 14.2338 3.78149ZM14.2338 11.7575C12.1545 11.7575 10.8664 10.2333 10.8664 8.36879C10.8664 6.50428 12.1558 4.99625 14.2338 4.99625C16.3117 4.99625 17.6012 6.52042 17.6012 8.36879C17.6012 10.2172 16.3117 11.7575 14.2338 11.7575Z" fill="#AE0025"/>
<path d="M25.6133 3.78149C23.8432 3.78149 22.7441 4.73931 22.1932 5.97156V3.98731H20.7512V12.7678H22.1932V6.60651C22.8994 5.66349 23.912 5.01374 25.0975 5.01374C26.6786 5.01374 27.5022 5.90429 27.5022 7.42577V12.7664H28.9456V7.16883C28.9456 5.09714 27.7588 3.78015 25.6133 3.78015V3.78149Z" fill="#AE0025"/>
<path d="M35.7384 7.63294L33.3837 7.29125C32.4399 7.17018 31.9592 6.8796 31.9592 6.22985C31.9592 5.35544 32.903 4.9115 34.4328 4.9115C35.9626 4.9115 37.009 5.42404 37.7813 6.059V4.65187C37.1103 4.15413 35.7047 3.78149 34.399 3.78149C32.0794 3.78149 30.5847 4.68954 30.5847 6.29845C30.5847 7.56433 31.4624 8.2827 33.1272 8.54098L35.6007 8.91765C36.581 9.05352 37.0968 9.51763 37.0968 10.1997C37.0968 11.2786 36.0652 11.8274 34.5543 11.8274C33.0434 11.8274 31.7027 11.3297 30.551 10.4741V11.8839C31.4286 12.4314 32.9206 12.9709 34.5354 12.9709C36.7687 12.9709 38.4699 11.9445 38.4699 10.0961C38.4699 8.693 37.5261 7.88719 35.7398 7.6316L35.7384 7.63294Z" fill="#AE0025"/>
<path d="M46.7561 3.98732V10.166C46.0702 11.0902 45.0913 11.74 43.9058 11.74C42.3072 11.74 41.5173 10.8346 41.5173 9.34409V3.98732H40.074V9.5822C40.074 11.6364 41.2081 12.9709 43.4062 12.9709C45.1399 12.9709 46.2066 11.9969 46.7547 10.7808V12.7664H48.1981V3.98732H46.7547H46.7561Z" fill="#AE0025"/>
<path d="M61.3612 5.21956V3.98731H57.5982V1.06005L56.1549 1.34928V3.98597H53.9378V5.21822H56.1549V9.823C56.1549 11.7575 57.1175 12.9373 59.1618 12.9373C59.9651 12.9373 60.6645 12.7678 61.0453 12.5471V11.2947C60.6119 11.5247 60.0637 11.6875 59.4021 11.6875C58.1491 11.6875 57.5996 10.9866 57.5996 9.73556V5.21822H61.3626L61.3612 5.21956Z" fill="#AE0025"/>
<path d="M67.0024 3.78149C64.0981 3.78149 62.1916 5.7321 62.1916 8.36879C62.1916 11.0055 64.0994 12.9709 67.0024 12.9709C69.9053 12.9709 71.7956 11.0041 71.7956 8.36879C71.7956 5.73345 69.9053 3.78149 67.0024 3.78149ZM67.0024 11.7575C64.9231 11.7575 63.635 10.2333 63.635 8.36879C63.635 6.50428 64.9244 4.99625 67.0024 4.99625C69.0803 4.99625 70.3684 6.52042 70.3684 8.36879C70.3684 10.2172 69.0817 11.7575 67.0024 11.7575Z" fill="#AE0025"/>
<path d="M74.9632 3.98732H73.5198V12.7678H74.9632V8.06073C75.988 6.80965 77.5731 6.02133 78.8531 5.4644V3.8205C77.4111 4.48909 75.7517 5.61641 74.9632 7.42712V3.98732Z" fill="#AE0025"/>
<path d="M80.449 3.98732V12.7678H81.8924V3.98732H80.449Z" fill="#AE0025"/>
<path d="M88.5475 3.78149C87.0245 3.78149 85.7391 4.22543 84.8439 5.00836V6.38051C85.8093 5.49131 87.1217 4.98146 88.3761 4.98146C89.9747 4.98146 90.5067 5.68233 90.5067 6.79485V6.89709L86.9503 7.68541C84.9574 8.12934 83.7894 8.89882 83.7894 10.3732C83.7894 11.9633 84.767 12.9736 86.606 12.9736C88.4449 12.9736 89.9383 11.7763 90.5067 10.8171V12.7691H91.9487V6.74373C91.9487 4.75949 90.7646 3.78418 88.5475 3.78418V3.78149ZM90.5067 10.0638C89.7668 11.0553 88.4611 11.8597 87.0529 11.8597C85.8161 11.8597 85.2315 11.2772 85.2315 10.3194C85.2315 9.46382 85.9714 8.94994 87.2595 8.60825L90.5067 7.73383V10.0638Z" fill="#AE0025"/>
<path d="M53.6718 11.6458V12.909C53.4491 12.9507 53.1952 12.9722 52.9009 12.9722C51.8801 12.9722 51.2658 12.6776 50.9107 12.1409C50.5556 11.6055 50.4557 10.8266 50.4557 9.85933V0.273085L51.8977 0V9.77054H51.899C51.899 11.0216 51.8869 11.6875 53.1399 11.6875C53.341 11.6875 53.5152 11.6714 53.6718 11.6458Z" fill="#AE0025"/>
<path d="M81.7493 2.88153H80.6894L81.459 0.461425H83.2372L81.7493 2.88153Z" fill="#AE0025"/>
<path d="M8.07417 16.182V21.984C7.55839 20.6993 6.27165 19.6904 4.46643 19.6904C1.71877 19.6904 0.0512695 21.6935 0.0512695 24.2777C0.0512695 26.8619 1.71877 28.8825 4.46643 28.8825C6.28785 28.8825 7.54219 27.8547 8.07417 26.5713V28.6753H9.51753V15.9076L8.07417 16.182ZM8.07417 25.7655C7.2843 26.9816 6.15013 27.6664 4.79453 27.6664C2.61125 27.6664 1.49599 26.0736 1.49599 24.2777C1.49599 22.4818 2.61125 20.9052 4.79453 20.9052C6.16768 20.9052 7.28565 21.5899 8.07417 22.806V25.7655Z" fill="#AE0025"/>
<path d="M20.5527 24.1741C20.5527 21.7285 18.9203 19.6904 16.0687 19.6904C13.2171 19.6904 11.2404 21.676 11.2404 24.2777C11.2404 26.8794 13.0794 28.8825 16.4279 28.8825C18.0414 28.8825 19.397 28.3699 20.1369 27.7565V26.309C19.2282 27.1552 17.986 27.7014 16.5156 27.7014C14.1447 27.7014 12.7864 26.4005 12.6838 24.5024H20.5514V24.1755L20.5527 24.1741ZM12.754 23.4221C13.0281 21.9316 14.1622 20.7679 16.0525 20.7679C17.9428 20.7679 18.8852 21.9841 19.1445 23.4221H12.754Z" fill="#AE0025"/>
<path d="M30.1513 19.6904C28.365 19.6904 27.0756 20.6993 26.5436 21.984V15.9076L25.1016 16.182V28.6753H26.5436V26.5713C27.0931 27.8534 28.3488 28.8825 30.1513 28.8825C32.9003 28.8825 34.5665 26.8619 34.5665 24.2777C34.5665 21.6935 32.9017 19.6904 30.1513 19.6904ZM29.8421 27.6664C28.4676 27.6664 27.3523 26.9816 26.5436 25.7655V22.806C27.3523 21.5899 28.4676 20.9052 29.8259 20.9052C32.024 20.9052 33.1245 22.4979 33.1245 24.2777C33.1245 26.0575 32.024 27.6664 29.8421 27.6664Z" fill="#AE0025"/>
<path d="M67.4425 27.4955L73.4901 21.0074V19.8962H65.8628V21.076H71.7213L65.6751 27.5453V28.6753H73.5603V27.4955H67.4425Z" fill="#AE0025"/>
<path d="M45.1048 24.1741C45.1048 21.7285 43.4724 19.6904 40.6208 19.6904C37.7692 19.6904 35.7925 21.676 35.7925 24.2777C35.7925 26.8794 37.6314 28.8825 40.9799 28.8825C42.5934 28.8825 43.949 28.3699 44.6889 27.7565V26.309C43.7803 27.1552 42.5381 27.7014 41.0677 27.7014C38.6968 27.7014 37.3384 26.4005 37.2358 24.5024H45.1035V24.1755L45.1048 24.1741ZM37.3047 23.4221C37.5788 21.9316 38.713 20.7679 40.6032 20.7679C42.4935 20.7679 43.436 21.9841 43.6952 23.4221H37.3047Z" fill="#AE0025"/>
<path d="M64.3438 24.1741C64.3438 21.7285 62.7114 19.6904 59.8598 19.6904C57.0082 19.6904 55.0315 21.676 55.0315 24.2777C55.0315 26.8794 56.8705 28.8825 60.219 28.8825C61.8325 28.8825 63.1881 28.3699 63.928 27.7565V26.309C63.0193 27.1552 61.7771 27.7014 60.3067 27.7014C57.9358 27.7014 56.5775 26.4005 56.4749 24.5024H64.3425V24.1755L64.3438 24.1741ZM56.5451 23.4221C56.8191 21.9316 57.9533 20.7679 59.8436 20.7679C61.7339 20.7679 62.6763 21.9841 62.9356 23.4221H56.5451Z" fill="#AE0025"/>
<path d="M79.6025 19.6904C78.0794 19.6904 76.7941 20.1343 75.8989 20.9173V22.2894C76.8643 21.4002 78.1766 20.8904 79.431 20.8904C81.0296 20.8904 81.5616 21.5912 81.5616 22.7038V22.806L78.0052 23.5943C76.0123 24.0382 74.8444 24.8077 74.8444 26.2821C74.8444 27.8722 75.8219 28.8825 77.6609 28.8825C79.4998 28.8825 80.9932 27.6852 81.5616 26.726V28.678H83.0036V22.6526C83.0036 20.6684 81.8195 19.6931 79.6025 19.6931V19.6904ZM81.5616 25.9727C80.8217 26.9642 79.5161 27.7686 78.1078 27.7686C76.871 27.7686 76.2864 27.1861 76.2864 26.2283C76.2864 25.3727 77.0263 24.8588 78.3144 24.5172L81.5616 23.6427V25.9727Z" fill="#AE0025"/>
<path d="M54.3564 27.5036V28.8179C54.1336 28.8596 53.8798 28.8811 53.5854 28.8811C52.5647 28.8811 51.9503 28.5865 51.5952 28.0498C51.2401 27.5144 51.1402 26.7355 51.1402 25.7682V16.182L52.5822 15.9089V25.6795H52.5836C52.5836 26.9305 52.5714 27.5453 53.8244 27.5453C54.0256 27.5453 54.1998 27.5292 54.3564 27.5036Z" fill="#AE0025"/>
<path d="M49.9682 27.5036V28.8179C49.7454 28.8596 49.4916 28.8811 49.1973 28.8811C48.1765 28.8811 47.5622 28.5865 47.2071 28.0498C46.852 27.5144 46.752 26.7355 46.752 25.7682V16.182L48.1941 15.9089V25.6795H48.1954C48.1954 26.9305 48.1833 27.5453 49.4362 27.5453C49.6374 27.5453 49.8116 27.5292 49.9682 27.5036Z" fill="#AE0025"/>
</svg>
