<?xml version="1.0" encoding="UTF-8"?><svg id="b" xmlns="http://www.w3.org/2000/svg" fill="none" width="256" height="64.86"  viewBox="0 0 256 65.19"><rect x="68.58" y="8.98" width="3.68" height="55.73" fill="#000000"/><path d="m96.54,52.44c-1.11-2.54-3.34-3.96-6.04-3.96-4.21,0-7.4,3.31-7.4,8.15s3.19,8.08,7.4,8.08c2.79,0,5.05-1.52,6.13-4.18v3.75h1.77v-23.23h-1.86v11.4Zm-5.73,10.59c-3.38,0-5.92-2.48-5.92-6.41s2.54-6.5,5.92-6.5,5.98,2.63,5.98,6.47-2.6,6.44-5.98,6.44Z" fill="#000000"/><path d="m109.89,48.48c-4.3,0-7.49,3.16-7.49,7.99,0,5.2,2.97,8.24,8.05,8.24,2.01,0,4.21-.53,5.67-1.49v-1.67c-1.24.84-3.22,1.52-5.51,1.52-3.93,0-6.19-2.01-6.41-5.98h12.57c.06-.37.09-.74.09-1.12,0-4.46-2.6-7.49-6.97-7.49Zm-5.7,7.09c.31-3.53,2.57-5.54,5.67-5.54,3.44,0,5.17,2.2,5.27,5.54h-10.93Z" fill="#000000"/><path d="m136.62,48.48c-3.07,0-5.45,1.64-6.5,4.21v-11.64h-1.77v15.33c0,4.96,3.34,8.33,7.93,8.33s8.02-3.41,8.02-8.15-3.28-8.08-7.68-8.08Zm-.34,14.59c-3.53,0-6.19-2.63-6.19-6.47s2.66-6.47,6.19-6.47,6.23,2.6,6.23,6.47-2.6,6.47-6.23,6.47Z" fill="#000000"/><path d="m154.93,48.48c-4.3,0-7.49,3.16-7.49,7.99,0,5.2,2.97,8.24,8.05,8.24,2.01,0,4.21-.53,5.67-1.49v-1.67c-1.24.84-3.22,1.52-5.51,1.52-3.93,0-6.19-2.01-6.41-5.98h12.57c.06-.37.09-.74.09-1.12,0-4.46-2.6-7.49-6.97-7.49Zm-5.7,7.09c.31-3.53,2.57-5.54,5.67-5.54,3.44,0,5.17,2.2,5.27,5.54h-10.93Z" fill="#000000"/><path d="m167.78,61.89v-20.84h-1.86v21.09c0,1.64,1.02,2.57,2.51,2.57.59,0,1.18-.19,1.55-.43v-1.52c-.28.25-.71.31-1.12.31-.74,0-1.08-.4-1.08-1.18Z" fill="#000000"/><path d="m179.86,48.48c-4.3,0-7.49,3.16-7.49,7.99,0,5.2,2.97,8.24,8.05,8.24,2.01,0,4.21-.53,5.67-1.49v-1.67c-1.24.84-3.22,1.52-5.51,1.52-3.93,0-6.19-2.01-6.41-5.98h12.57c.06-.37.09-.74.09-1.12,0-4.46-2.6-7.49-6.97-7.49Zm-5.7,7.09c.31-3.53,2.57-5.54,5.67-5.54,3.44,0,5.17,2.2,5.27,5.54h-10.93Z" fill="#000000"/><polygon points="201.57 49.16 201.57 48.88 190.05 48.88 190.05 50.52 198.72 50.52 189.3 63.96 189.3 64.27 201.69 64.27 201.69 62.63 192.25 62.63 201.57 49.16" fill="#000000"/><path d="m217.67,52.44c-1.12-2.54-3.34-3.96-6.04-3.96-4.21,0-7.4,3.31-7.4,8.15s3.19,8.08,7.4,8.08c2.79,0,5.05-1.52,6.13-4.18v3.75h1.77v-15.39h-1.86v3.56Zm-5.73,10.59c-3.38,0-5.92-2.48-5.92-6.41s2.54-6.5,5.92-6.5,5.98,2.63,5.98,6.47-2.6,6.44-5.98,6.44Z" fill="#000000"/><path d="m232.94,7.15c-1.67,0-2.82.93-2.82,2.74,0,1.67,1.15,2.63,2.82,2.63s2.82-.96,2.82-2.63c0-1.82-1.11-2.74-2.82-2.74Z" fill="#000000"/><path d="m134.13,23.99v10.35h4.45v-11.27c0-4.86-2.86-7.82-7.16-7.82-2.97,0-5.19,1.59-6.12,3.75v-3.19h-4.15v18.54h4.45v-9.75c0-3.49,1.85-5.75,4.52-5.75,2.48,0,4,1.89,4,5.15Z" fill="#000000"/><path d="m154.07,29.1c0-2.71-1.48-4.34-4.56-5.56l-2.3-.93c-1.26-.52-1.63-.96-1.63-1.78,0-1.08,1.19-1.71,3.19-1.71,1.67,0,3.04.48,4.08,1v-3.89c-.78-.52-2.56-1-4.19-1-4.63,0-7.45,2.48-7.45,5.49,0,2.63,1.52,4.12,4.26,5.27l2.34.96c1.52.63,2.11,1.11,2.11,2.08,0,1.15-.96,2.04-3.49,2.04-2.15,0-4.19-.78-5.27-1.56v3.93c1,.82,2.97,1.48,5.3,1.48,5.19,0,7.6-3.04,7.6-5.82Z" fill="#000000"/><path d="m172.65,15.79h-4.45v11.09c0,2.48-1.56,4.12-4,4.12s-3.97-1.63-3.97-4.12v-11.09h-4.45v11.01c0,5.08,3.23,8.12,8.42,8.12s8.45-3.04,8.45-8.12v-11.01Z" fill="#000000"/><path d="m180.1,34.92c.82,0,1.63-.22,2.11-.56v-3.45c-.22.15-.48.19-.85.19-.67,0-1.11-.37-1.11-1.22V8.98h-4.45v21.42c0,2.67,1.59,4.52,4.3,4.52Z" fill="#000000"/><path d="m194.93,34.37v-3.97c-.45.19-1.3.37-2.11.37-2.08,0-3-1.15-3-3.19v-7.9h5.12v-3.89h-5.12v-5.75h-4.38v5.75h-3.45v3.89h3.45v7.9c0,4.6,2.48,7.34,6.6,7.34,1.04,0,2.26-.22,2.89-.56Z" fill="#000000"/><path d="m205.35,34.92c5.45,0,9.94-4.26,9.94-9.86s-4.49-9.83-9.94-9.83-9.9,4.19-9.9,9.83,4.52,9.86,9.9,9.86Zm0-15.8c3.23,0,5.6,2.34,5.6,5.93s-2.37,5.97-5.6,5.97-5.6-2.41-5.6-5.97,2.48-5.93,5.6-5.93Z" fill="#000000"/><path d="m221.48,19.72v-3.93h-4.15v18.54h4.45v-9.94c0-3.6,2.19-5.12,4.82-5.12,1.08,0,2,.22,2.56.48v-4.26c-.52-.15-1.26-.26-1.93-.26-2.82,0-4.93,1.93-5.75,4.49Z" fill="#000000"/><rect x="230.68" y="15.79" width="4.45" height="18.54" fill="#000000"/><path d="m251.55,15.79v2.34c-1.3-1.97-3.19-2.89-5.45-2.89-4.97,0-8.71,4.34-8.71,9.9s3.75,9.79,8.68,9.79c2.45,0,4.49-1.11,5.75-3.26v2.67h4.19V15.79h-4.45Zm-4.63,15.24c-3.04,0-5.23-2.34-5.23-5.9s2.19-6.01,5.23-6.01,5.3,2.34,5.3,5.97-2.26,5.93-5.3,5.93Z" fill="#000000"/><path d="m109.51,15.23c-5.19,0-9.41,3.82-9.86,8.88-.14,1.21-.29,2-1.14,3.57-1.74,3.22-5.28,3.86-8.2,2.12-1.75-1.04-2.94-2.82-2.94-4.8,0-1.57.55-2.62.56-2.65.9-1.95,2.85-3.24,5.44-3.24,1.62,0,2.91.44,3.58.81l.04-3.83c-1-.52-2.54-.85-3.94-.85-5.9,0-9.95,4.35-9.95,9.77,0,4.52,2.76,8.29,7.09,9.44,3.92,1.19,8.41.04,11.08-3.86,1.79,2.66,4.84,4.34,8.24,4.34,5.45,0,9.94-4.26,9.94-9.86s-4.49-9.83-9.94-9.83Zm0,15.8c-3.11,0-5.6-2.41-5.6-5.97s2.48-5.93,5.6-5.93,5.6,2.34,5.6,5.93-2.37,5.97-5.6,5.97Z" fill="#000000"/><path d="m6.33,30.75c3.25,0,4.74,2.07,4.74,4.04v4.36h-2.04v-4.36c0-1.25-.71-3.26-2.7-3.26-1.96,0-2.69,2-2.69,3.26s-.01,4.36-.01,4.36H1.58v-4.36c0-1.98,1.51-4.04,4.75-4.04" fill="#000000"/><path d="m34.57,39.27c-3.26,0-4.75-2.04-4.75-4.02v-4.37h2.05v4.37c0,1.24.7,3.26,2.7,3.26,1.98,0,2.7-2.03,2.7-3.26v-4.37h2.04v4.37c0,1.98-1.49,4.02-4.74,4.02" fill="#000000"/><path d="m19.37,38.55c-.42.35-.96.6-1.66.69-2.08.34-4.96-1-5.07-4.02-.11-3.1,2.93-4.38,4.92-4.34,3.34.09,4.52,2.61,4.52,4.05v4.23h-2.05v-4.2c0-.93-.4-3.26-2.54-3.33-2.08-.06-2.74,1.88-2.75,3.3,0,.92.22,3.18,2.59,3.32.73.01,1.76-.17,2.05-.41v.73Z" fill="#000000"/><path d="m28.54,40.36c-.27.09-1.02.27-1.88.05-.98-.24-2.58-.71-2.58-3.98v-9.17h2.09v3.66s1.91,0,1.91,0v1.26h-1.91s.06,2.6,0,4.67c-.03,1.85.51,2.5.94,2.7.5.25,1.33.16,1.43.09v.74Z" fill="#000000"/><path d="m41.26,34.53c0-2.05,1.06-3.48,2.91-3.66,1.31-.16,1.79.11,1.79.11v.8s-.69-.17-1.46.04c-.83.28-1.15,1.54-1.15,1.98,0,1.49,0,5.39,0,5.39h-2.08v-4.66" fill="#000000"/><path d="m52.85,38.55c-.43.34-.98.6-1.66.69-2.07.34-4.95-1-5.07-4.02-.1-3.1,2.93-4.39,4.92-4.34,3.35.09,4.52,2.61,4.52,4.05v4.23h-2.05v-4.2c0-.93-.42-3.26-2.54-3.33-2.07-.06-2.73,1.88-2.73,3.31,0,.92.16,3.17,2.57,3.32.74.01,1.76-.17,2.04-.41v.73Z" fill="#000000"/><path d="m33.82,3.72c-2.71-.82-4.39,1.16-5.14,3.7-.64,2.03-.77,2.59-1.12,3.65-.53,1.48-1.79,1.57-2.73.44-1.11-1.34-2.58-3.34-3.4-4.29-1.08-1.26-3.71-2.33-5.03-.69-2,2.48.65,5.26,2.06,6.92.98,1.19,2.13,1.99,1.77,2.66-.16.24-.44.33-.86.33-.98-.02-4.2-.9-4.96-1.04-.63-.14-1.1-.1-1.28.39-.23.57.58,2.21,2.68,3.29,2.1,1.08,5.47,1.6,5.79,1.68,1.22.26.99.88.68,1.16-.27.3-.61.5-.55.8.19.78,1.85.94,2.85,1.11.95.17,2.18.26,3.07-.11.86-.33.91-.82,1.5-1.03.79-.3,1.05-.05,2.74.28,1.09.2,3.02-.07,4.06-.41,1.96-.64,2.77-1.29,2.77-1.58,0-.25-.34-.34-.7-.36-.42-.07-1.83-.3-2.32-.62-.46-.32-.1-.87.86-1.25,1.01-.4,4.2-1.74,5.4-2.81,1.21-1.07,2.34-2.87,1.34-3.91-1-1.05-2.78.02-3.72.45-1.29.62-3.33,1.66-4.03,1.82-.62.15-1.78.11-1.24-1.29.67-1.73.99-2.8,1.4-3.84.52-1.29,1.24-4.48-1.89-5.44m11.89,8.61c-.87,3.68-5.19,5.86-5.61,6.1-.43.21-.96.44-1.15.56-.08.05-.13.1.03.15.46.12,1.99.03,1.97.68,0,.7-1.16,1.84-4.11,3.1-3.22,1.39-5.91.75-6.59.6l-.06.02c-.18.2-1.68,1.63-5.93.9-3.05-.53-3.81-.84-4.52-1.64-.19-.25-.32-.67-.05-1.21.05-.13.06-.21-.02-.24-4.63-.94-7.43-3.86-8.47-5.71-.51-.93-.34-1.55-.08-1.95.36-.56,1.59-.6,2.86-.28,1.41.39,2.2.57,2.5.65.1.04.11,0,.06-.07-.36-.44-1.61-2.01-2.27-3.03-1.05-1.66-2.4-6.09,1.07-7.92,3.86-2.01,7.24,1.53,7.98,2.46.66.8,1.99,2.58,2.09,2.76.17.29.25.05.25.05,0,0,.9-3.27,1.69-4.77C28.75.87,31.62-.36,34.1.09c4.75.89,4.93,5.68,4.55,7.44-.34,1.53-.97,3.16-1.16,3.57-.03.08,0,.09.06.05.36-.17,2.06-1,3.87-1.77,1.81-.76,5.13-.73,4.28,2.95" fill="#000000"/><path d="m2.64,64.73l1.2-2.73c.31-.05.61-.08.9-.1.29-.02.57-.03.83-.03.58,0,1.11.06,1.59.16.48.11.92.28,1.32.52.4.24.76.54,1.09.89.33.36.64.79.93,1.28h2.64l-5.66-12.15h-1.82l-5.66,12.15h2.64Zm3.94-8.96l2.19,4.83c-.32-.23-.73-.41-1.22-.54-.49-.13-1.06-.19-1.74-.19-.32,0-.68.02-1.06.05l1.82-4.15Zm13.56,8.96l5.61-12.15h-2.78l-3.68,8.42-3.66-8.42h-2.83l5.52,12.15h1.82Zm13.8.47c.96,0,1.85-.16,2.67-.49.82-.33,1.53-.79,2.14-1.38.6-.59,1.07-1.28,1.41-2.08.34-.8.51-1.67.51-2.6s-.17-1.79-.51-2.59c-.34-.8-.81-1.49-1.41-2.07-.6-.58-1.31-1.04-2.14-1.37-.82-.33-1.71-.49-2.67-.49s-1.85.16-2.67.49c-.82.33-1.53.79-2.14,1.37-.6.58-1.07,1.28-1.41,2.07-.34.8-.51,1.66-.51,2.59s.17,1.81.51,2.6c.34.8.81,1.49,1.41,2.08.6.59,1.31,1.05,2.14,1.38.82.33,1.71.49,2.67.49Zm0-2.26c-.6,0-1.15-.11-1.66-.32-.5-.21-.94-.51-1.31-.89-.37-.38-.66-.84-.87-1.37-.21-.53-.31-1.11-.31-1.74s.1-1.18.31-1.7.5-.97.87-1.35c.37-.38.81-.67,1.31-.89.5-.21,1.06-.32,1.66-.32s1.15.11,1.66.32c.5.21.94.51,1.31.89.37.38.66.82.87,1.35s.31,1.09.31,1.7-.1,1.22-.31,1.74c-.21.53-.5.98-.87,1.36-.37.38-.81.68-1.31.89-.5.21-1.06.32-1.66.32Zm10.5-10.36v12.15h2.5v-7.73l6.55,7.73h1.94v-12.15h-2.5v7.73l-6.55-7.73h-1.94Z" fill="#000000"/></svg>