<?xml version="1.0" encoding="utf-8"?>
<!-- Generator: Adobe Illustrator 24.3.2, SVG Export Plug-In . SVG Version: 6.00 Build 0)  -->
<svg version="1.1" id="Layer_1" xmlns="http://www.w3.org/2000/svg" xmlns:xlink="http://www.w3.org/1999/xlink" x="0px" y="0px"
	 viewBox="0 0 1530 700" style="enable-background:new 0 0 1530 700;" xml:space="preserve">
<style type="text/css">
	.Drop_x0020_Shadow{fill:none;}
	.Outer_x0020_Glow_x0020_5_x0020_pt{fill:none;}
	.Blue_x0020_Neon{fill:none;stroke:#8AACDA;stroke-width:7;stroke-linecap:round;stroke-linejoin:round;}
	.Chrome_x0020_Highlight{fill:url(#SVGID_1_);stroke:#FFFFFF;stroke-width:0.3629;stroke-miterlimit:1;}
	.Jive_GS{fill:#FFDD00;}
	.Alyssa_GS{fill:#A6D0E4;}
	.st0{fill:#FFFFFF;}
</style>
<linearGradient id="SVGID_1_" gradientUnits="userSpaceOnUse" x1="444.2234" y1="-190" x2="444.2234" y2="-191">
	<stop  offset="0" style="stop-color:#656565"/>
	<stop  offset="0.618" style="stop-color:#1B1B1B"/>
	<stop  offset="0.6292" style="stop-color:#545454"/>
	<stop  offset="0.9831" style="stop-color:#3E3E3E"/>
</linearGradient>
<g>
	<rect width="1530" height="700"/>
</g>
<rect x="594.1" y="214" class="st0" width="18.4" height="315.7"/>
<g>
	<g>
		<g>
			<path class="st0" d="M756,262.8c-2.4,1.3-6.2,1.8-9.3,1.8c-14.9,0-26.1-11-26.1-25.7s11.2-25.7,26.1-25.7c3.1,0,6.8,0.5,9.3,1.7
				v10.8c-2.4-1.3-5.2-1.9-8.6-1.9c-8.7,0-15.2,6.2-15.2,15c0,8.8,6.5,15,15.2,15c3.4,0,6.2-0.5,8.6-1.7V262.8z"/>
			<path class="st0" d="M764.4,239c0-14.6,11-25.7,25.9-25.7c15.1,0,26,11,26,25.7c0,14.6-10.9,25.7-26,25.7
				C775.4,264.7,764.4,253.6,764.4,239z M804.8,239c0-8.7-6-15.2-14.5-15.2c-8.4,0-14.4,6.5-14.4,15.2c0,8.5,6,15.1,14.4,15.1
				C798.8,254,804.8,247.5,804.8,239z"/>
			<path class="st0" d="M873,214v50h-1.3l-33.1-28.2v27.9h-11.3v-50h1.3l33.1,28.1V214H873z"/>
			<path class="st0" d="M885.1,261.6v-10.1c2.2,1.7,5.6,3.3,10.1,3.3c6.2,0,8.9-3.1,8.9-6.2c0-2.5-1.4-4.6-5-6.4l-5-2.4
				c-5.4-2.8-9-6.5-9-12.3c0-8.3,7.3-14.3,18.9-14.3c4.3,0,7.6,0.8,9.3,1.8v10.1c-1.8-1.2-4.9-2.2-8.1-2.2c-5,0-8,2-8,5.1
				c0,2.1,1.3,3.4,4.3,4.9l4.8,2.4c6.5,3.2,9.5,7.6,9.5,13.6c0,8.6-6.2,15.9-19.3,15.9C891.7,264.7,887.6,263.4,885.1,261.6z"/>
			<path class="st0" d="M925.7,242.5V214h11.6v28.5c0,6.9,4.1,11.6,11,11.6c6.9,0,11-4.7,11-11.6V214h11.6v28.4
				c0,13.6-8.9,22.2-22.6,22.2C934.9,264.7,925.7,256.1,925.7,242.5z"/>
			<path class="st0" d="M1010.5,253.6v10.1h-26.3V214h11.6v39.6H1010.5z"/>
			<path class="st0" d="M1023,224.1h-11V214h33.6v10.1h-11v39.6H1023V224.1z"/>
			<path class="st0" d="M1049.8,239c0-14.6,11-25.7,25.9-25.7c15.1,0,26,11,26,25.7c0,14.6-10.9,25.7-26,25.7
				C1060.7,264.7,1049.8,253.6,1049.8,239z M1090.1,239c0-8.7-6-15.2-14.5-15.2c-8.4,0-14.4,6.5-14.4,15.2c0,8.5,6,15.1,14.4,15.1
				C1084.1,254,1090.1,247.5,1090.1,239z"/>
			<path class="st0" d="M1141.9,263.6l-7.7-14.3c-1.1,0.1-2.3,0.1-3.6,0.1c-2.4,0-4.4-0.2-6.3-0.5v14.7h-11.7V214h20.4
				c13,0,20.4,6.4,20.4,17c0,7.1-3.1,12.2-8.5,15.2l9.5,17.4H1141.9z M1141.6,231.6c0-4.6-2.6-7.5-9.7-7.5h-7.5v15.4
				c1.8,0.3,3.8,0.5,6,0.5C1138.1,240,1141.6,237.1,1141.6,231.6z"/>
			<path class="st0" d="M1164.4,214h11.5v49.6h-11.5V214z"/>
			<path class="st0" d="M1219,255.9h-17.5l-3.1,7.7h-12.6l23.8-49.6h1.3l23.8,49.6h-12.5L1219,255.9z M1210.2,233.6l-5.5,13.8h11
				L1210.2,233.6z"/>
		</g>
	</g>
	<path class="st0" d="M1306.6,238.9c0,15.4-11.3,26.2-29,26.2c-6.7,0-13.2-1.1-16.2-2.3V214h17.6
		C1295.7,214,1306.6,224.6,1306.6,238.9z M1294.8,239.2c0-8.1-5.6-14.9-15.6-14.9h-6.6v30c2.1,0.3,4.4,0.5,6.5,0.5
		C1289.4,254.8,1294.8,248,1294.8,239.2z"/>
	<path class="st0" d="M1348.9,253.6v10.1h-33.6V214h33.1v10.1h-22.2v9h21.1v9.4h-21.1v11.1H1348.9z"/>
	<path class="st0" d="M794.3,409.8c7.9-7.1,13.4-13.7,16.6-19.8c3.8-7.1,5.7-14.5,5.7-22.1v-5.5c0-12.9-4.7-23.1-14.1-30.7
		c-9.4-7.6-21.8-11.3-37.2-11.3h-44.1v209.3h12.6H751h19.8c15.4-0.3,27.7-5.1,36.8-14.5c9.1-9.4,13.7-22.1,13.7-38v-10.5
		c0-12.3-3.2-24-9.5-34.9C806.9,423.5,801.1,416.1,794.3,409.8z M762.8,344.4c6.7,0,12.3,2,16.6,6.1c4.3,4.1,6.5,9.5,6.5,16.2v3.8
		c0,6.7-1.2,12.4-3.6,17c-2.4,4.6-7.1,10-14.1,16.2l-15.1,13.4c-0.7,0.6-1.4,1.3-2.1,2v-74.7H762.8z M789.7,478.9
		c0,8.1-2.3,14.6-6.9,19.5c-4.6,4.9-10.9,7.4-18.7,7.4h-13v-37.4c0-9.8,1.3-16.9,3.8-21.4c2.5-4.5,8-10.4,16.4-17.7l3.8-3.2
		c4.9,4.9,8.4,9.8,10.5,14.8c2.8,6.9,4.2,16.7,4.2,29.6V478.9z"/>
	<path class="st0" d="M889.7,317.5c-14.5,0-26.2,4.2-34.8,12.6c-8.7,8.4-13,21-13,37.8V482c0,17.1,4.1,29.7,12.2,38
		c8.1,8.3,19.4,12.4,34,12.4c14.3,0,25.7-4.5,34.4-13.4c8.7-8.9,13-22,13-39v-16.4h-30.2v19.3c0,7.8-1.4,14.1-4.2,18.7
		c-2.8,4.6-7.1,6.9-13,6.9c-5.6,0-9.7-1.7-12.4-5.2c-2.7-3.5-4-8.9-4-16.2v-1.3c0-6.7,0.3-12,0.8-15.9c0.6-3.9,2-7.7,4.2-11.3
		c2.2-3.6,5.7-7.3,10.5-10.9l20.1-15.9c10.1-7.8,17.6-16.2,22.7-25c5-8.8,7.6-18.8,7.6-30v-8.8c0-17.3-4-30.1-12-38.2
		C917.6,321.6,905.7,317.5,889.7,317.5z M906.1,377.1c0,8.4-1.3,15.6-3.8,21.6c-2.5,6-7.1,12-13.8,17.8l-13.8,11.7
		c-0.6,0.5-1.2,1-1.7,1.5v-66.2c0-7.3,1.5-12.8,4.4-16.6c2.9-3.8,7.1-5.7,12.4-5.7c5.3,0,9.4,1.9,12.2,5.7c2.8,3.8,4.2,9.3,4.2,16.6
		V377.1z"/>
	<path class="st0" d="M994.3,495.4v-175h-31v176.2c0,11.5,2.8,20.3,8.4,26.4c5.6,6.2,13.6,9.2,23.9,9.2c6.1,0,11.6-1.1,16.4-3.4
		v-20.1h-6.3C998.1,508.8,994.3,504.4,994.3,495.4z"/>
	<path class="st0" d="M1080.6,317.5c-14.5,0-26.2,4.2-34.8,12.6c-8.7,8.4-13,21-13,37.8V482c0,17.1,4.1,29.7,12.2,38
		c8.1,8.3,19.4,12.4,34,12.4c14.3,0,25.7-4.5,34.4-13.4c8.7-8.9,13-22,13-39v-16.4h-30.2v19.3c0,7.8-1.4,14.1-4.2,18.7
		c-2.8,4.6-7.1,6.9-13,6.9c-5.6,0-9.7-1.7-12.4-5.2c-2.7-3.5-4-8.9-4-16.2v-1.3c0-6.7,0.3-12,0.8-15.9c0.6-3.9,2-7.7,4.2-11.3
		c2.2-3.6,5.7-7.3,10.5-10.9l20.1-15.9c10.1-7.8,17.6-16.2,22.7-25c5-8.8,7.6-18.8,7.6-30v-8.8c0-17.3-4-30.1-12-38.2
		C1108.5,321.6,1096.5,317.5,1080.6,317.5z M1096.9,377.1c0,8.4-1.3,15.6-3.8,21.6c-2.5,6-7.1,12-13.8,17.8l-13.8,11.7
		c-0.6,0.5-1.2,1-1.7,1.5v-66.2c0-7.3,1.5-12.8,4.4-16.6c2.9-3.8,7.1-5.7,12.4-5.7c5.3,0,9.4,1.9,12.2,5.7c2.8,3.8,4.2,9.3,4.2,16.6
		V377.1z"/>
	<path class="st0" d="M1182.6,498.7c0-6.1,1-12.2,2.9-18c2-5.9,5.3-13.4,10.1-22.6l32.3-60.4c4.8-8.9,8-17.8,9.6-26.6
		c1.7-8.8,2.5-19.5,2.5-32.1v-18.5h-86v25.2h56.2v6.7c0,5.9-0.9,11.3-2.7,16.4c-1.8,5-5,12.2-9.4,21.4l-1.7,2.9l-31.5,60
		c-4.8,9-8,18-9.9,27.1c-1.8,9.1-2.7,19.9-2.7,32.5v17.2h88.5v-25.2h-58.3V498.7z"/>
	<path class="st0" d="M1337,329.9c-8-8.2-19.2-12.4-33.8-12.4c-14.5,0-26.1,4.5-34.6,13.4c-8.5,9-12.8,22-12.8,39v16.4h29.8V367
		c0-7.8,1.4-14.1,4.2-18.7c2.8-4.6,7.3-6.9,13.4-6.9c5.6,0,9.6,1.8,12.2,5.2c2.5,3.5,3.8,8.9,3.8,16.2v1.3c0,6.7-0.3,12-0.8,15.9
		c-0.6,3.9-2,7.7-4.2,11.3c-2.2,3.6-5.6,7.3-10.1,10.9l-20.1,15.9c-10.1,7.8-17.6,16.2-22.7,25c-5,8.8-7.6,18.8-7.6,30v8.8
		c0,17.3,4,30.1,12,38.2c8,8.1,19.8,12.2,35.5,12.2c14.8,0,26.5-4.2,35-12.6c8.5-8.4,12.8-21,12.8-37.8V367.9
		C1348.9,350.8,1344.9,338.1,1337,329.9z M1313.9,502.8c-2.9,3.8-7.2,5.7-12.8,5.7c-5.3,0-9.3-1.9-12-5.7c-2.7-3.8-4-9.3-4-16.6
		v-13.4c0-8.4,1.2-15.6,3.6-21.6c2.4-6,6.9-12,13.6-17.8l14.3-11.7c0.6-0.6,1.1-1.1,1.7-1.8v66.4
		C1318.3,493.5,1316.8,499,1313.9,502.8z"/>
</g>
<g>
	<g>
		<path class="st0" d="M285.9,529.8L255,465.2h8.4c3.8,0,7.3,2.2,8.9,5.7l17,36.1l16.8-36.1c1.6-3.5,5.1-5.7,8.9-5.7h8.5l-30.9,64.5
			H285.9z"/>
		<path class="st0" d="M219.7,465.2h-6.9l-31.7,64.5h7.7c3.8,0,7.1-1.9,9.4-5.7l6.7-12.9c11.8,1.5,22.3,5.8,31.8,18.6h14.9
			L219.7,465.2z M216.2,487.4l8.4,17.7c-4.6-2.2-9.5-3.8-14.6-4.8L216.2,487.4z"/>
		<path class="st0" d="M479.2,465.2c-3.8,0-6.8,3-6.8,6.8l0,34l-33.7-40.8h-10h0v64.5h6.2c3.8,0,6.8-3,6.8-6.8l0-34l27.6,33.6
			c0,0,5.4,7.2,13.3,7.2h2.8v-64.5H479.2z"/>
		<path class="st0" d="M370.8,518.8c-11.8,0-21.4-9.7-21.2-21.5c0.2-11.9,11.2-21.7,23-20.7c10.8,0.9,19.4,10,19.4,21.1
			C392,509.3,382.5,518.8,370.8,518.8 M395.1,473.6c-6.4-6.3-14.8-9.6-24.3-9.6c-9.5,0-17.8,3.3-24.3,9.6c-6.4,6.3-10,14.9-10,24.1
			c0,9,3.5,17.5,10,23.9c6.6,6.4,15,9.9,24.3,9.9c9.2,0,17.8-3.5,24.2-9.8c6.5-6.3,10.1-14.8,10.1-23.9
			C405.2,488.5,401.6,479.9,395.1,473.6"/>
	</g>
	<g>
		<path class="st0" d="M216.2,328.5c17.1,0,25,10.9,25,21.3v22.9h-10.7v-22.9c0-6.6-3.7-17.1-14.2-17.1c-10.3,0-14.1,10.5-14.1,17.1
			c0,6.5-0.1,22.9-0.1,22.9h-10.8v-22.9C191.2,339.4,199.2,328.5,216.2,328.5"/>
		<path class="st0" d="M364.7,373.3c-17.2,0-25-10.7-25-21.1v-23h10.8v23c0,6.5,3.7,17.2,14.2,17.2c10.4,0,14.2-10.7,14.2-17.2v-23
			h10.7v23C389.7,362.6,381.8,373.3,364.7,373.3"/>
		<path class="st0" d="M284.8,369.5c-2.2,1.8-5.1,3.2-8.7,3.6c-10.9,1.8-26.1-5.3-26.7-21.2c-0.6-16.3,15.4-23,25.9-22.8
			c17.6,0.5,23.8,13.7,23.8,21.3v22.3h-10.8v-22.1c0-4.9-2.1-17.2-13.4-17.5c-10.9-0.3-14.4,9.9-14.5,17.4c0,4.8,1.2,16.7,13.6,17.4
			c3.8,0.1,9.3-0.9,10.8-2.2V369.5z"/>
		<path class="st0" d="M333,379.1c-1.4,0.5-5.3,1.4-9.9,0.2c-5.1-1.3-13.5-3.7-13.5-21v-48.3h11v19.2h10v6.6h-10
			c0,0,0.3,13.7,0,24.5c-0.2,9.7,2.7,13.2,4.9,14.2c2.7,1.3,7,0.8,7.5,0.5V379.1z"/>
		<path class="st0" d="M399.9,348.4c0-10.8,5.6-18.3,15.3-19.2c6.9-0.9,9.4,0.6,9.4,0.6v4.2c0,0-3.7-0.9-7.7,0.2
			c-4.3,1.5-6.1,8.1-6.1,10.4c0,7.9,0,28.3,0,28.3h-11V348.4"/>
		<path class="st0" d="M460.9,369.5c-2.3,1.8-5.2,3.2-8.8,3.6c-10.9,1.8-26-5.3-26.7-21.2c-0.5-16.3,15.4-23.1,25.9-22.8
			c17.6,0.5,23.8,13.7,23.8,21.3v22.3h-10.8v-22.1c0-4.9-2.2-17.2-13.4-17.5c-10.9-0.3-14.4,9.9-14.4,17.4c0,4.8,0.9,16.7,13.5,17.4
			c3.9,0.1,9.3-0.9,10.7-2.2V369.5z"/>
		<path class="st0" d="M360.8,186.3c-14.3-4.3-23.1,6.1-27,19.5c-3.4,10.7-4,13.6-5.9,19.2c-2.8,7.8-9.4,8.3-14.4,2.3
			c-5.8-7.1-13.6-17.6-17.9-22.6c-5.7-6.6-19.5-12.3-26.4-3.6c-10.5,13.1,3.4,27.7,10.8,36.4c5.1,6.3,11.2,10.5,9.3,14
			c-0.9,1.3-2.3,1.7-4.5,1.7c-5.2-0.1-22.1-4.7-26.1-5.5c-3.3-0.7-5.8-0.5-6.7,2c-1.2,3,3.1,11.6,14.1,17.3
			c11,5.7,28.8,8.4,30.5,8.9c6.4,1.4,5.2,4.6,3.6,6.1c-1.4,1.6-3.2,2.6-2.9,4.2c1,4.1,9.7,5,15,5.8c5,0.9,11.5,1.4,16.1-0.6
			c4.5-1.8,4.8-4.3,7.9-5.4c4.1-1.6,5.5-0.3,14.4,1.5c5.7,1.1,15.9-0.4,21.3-2.2c10.3-3.4,14.6-6.8,14.6-8.3c0-1.3-1.8-1.8-3.7-1.9
			c-2.2-0.4-9.6-1.6-12.2-3.2c-2.4-1.7-0.5-4.6,4.5-6.6c5.3-2.1,22.1-9.2,28.4-14.8c6.3-5.6,12.3-15.1,7.1-20.5
			c-5.3-5.5-14.6,0.1-19.6,2.4c-6.8,3.3-17.5,8.7-21.2,9.6c-3.2,0.8-9.4,0.6-6.5-6.8c3.5-9.1,5.2-14.7,7.4-20.2
			C373.4,208.2,377.2,191.4,360.8,186.3 M423.3,231.6c-4.6,19.4-27.3,30.8-29.5,32.1c-2.3,1.1-5.1,2.3-6.1,3
			c-0.4,0.3-0.7,0.5,0.1,0.8c2.4,0.7,10.5,0.2,10.3,3.6c0,3.7-6.1,9.7-21.6,16.3c-16.9,7.3-31.1,3.9-34.6,3.1l-0.3,0.1
			c-0.9,1-8.8,8.6-31.2,4.7c-16-2.8-20-4.4-23.8-8.6c-1-1.3-1.7-3.5-0.2-6.3c0.2-0.7,0.3-1.1-0.1-1.2c-24.4-5-39.1-20.3-44.5-30
			c-2.7-4.9-1.8-8.2-0.4-10.2c1.9-2.9,8.4-3.1,15.1-1.5c7.4,2,11.6,3,13.2,3.4c0.5,0.2,0.6,0,0.3-0.4c-1.9-2.3-8.5-10.6-11.9-15.9
			c-5.5-8.7-12.6-32,5.6-41.7c20.3-10.6,38.1,8.1,42,12.9c3.5,4.2,10.5,13.6,11,14.5c0.9,1.5,1.3,0.3,1.3,0.3s4.7-17.2,8.9-25.1
			c7.3-14,22.4-20.5,35.5-18.1c25,4.7,25.9,29.9,23.9,39.1c-1.8,8-5.1,16.6-6.1,18.8c-0.2,0.4,0,0.5,0.3,0.3
			c1.9-0.9,10.8-5.2,20.3-9.3C410.3,212.1,427.8,212.2,423.3,231.6"/>
	</g>
</g>
</svg>
