<?xml version="1.0" encoding="UTF-8"?><svg id="Camada_2" xmlns="http://www.w3.org/2000/svg" fill="none" width="256.01" height="64.82" viewBox="0 0 256.01 64.82"><g id="Camada_1-2"><path d="m20.04,64.49l-5.9-12.34h1.61c.73,0,1.39.41,1.71,1.1l3.24,6.9,3.22-6.9c.32-.66.98-1.1,1.71-1.1h1.61l-5.9,12.34h-1.3Z" fill="#000"/><path d="m7.39,52.15h-1.32l-6.07,12.34h1.46c.73,0,1.37-.37,1.8-1.07l1.27-2.46c2.27.27,4.27,1.12,6.07,3.56h2.85l-6.07-12.36h0Zm-.66,4.24l1.61,3.39c-.88-.41-1.83-.73-2.78-.9,0,0,1.17-2.49,1.17-2.49Z" fill="#000"/><path d="m57.01,52.15c-.71,0-1.29.59-1.29,1.29v6.51l-6.44-7.8h-1.9v12.34h1.17c.71,0,1.29-.59,1.29-1.29v-6.49l5.29,6.41s1.02,1.37,2.54,1.37h.54v-12.34h-1.2Z" fill="#000"/><path d="m36.31,62.42c-2.27,0-4.1-1.85-4.05-4.12s2.15-4.15,4.39-3.97c2.07.17,3.71,1.93,3.71,4.05s-1.83,4.05-4.05,4.05m4.63-8.66c-1.22-1.19-2.83-1.85-4.63-1.85s-3.41.63-4.63,1.85c-1.24,1.22-1.9,2.85-1.9,4.61s.68,3.36,1.9,4.56c1.27,1.24,2.85,1.88,4.63,1.88s3.39-.66,4.63-1.88c1.24-1.19,1.95-2.83,1.95-4.58s-.71-3.36-1.95-4.58" fill="#000"/><path d="m6.9,30.62c3.24,0,4.73,2.07,4.73,4.02v4.34h-2.02v-4.34c0-1.24-.71-3.24-2.71-3.24s-2.68,2-2.68,3.24v4.34h-2.05v-4.34c0-1.95,1.51-4.02,4.73-4.02" fill="#000"/><path d="m35.09,39.11c-3.24,0-4.75-2.05-4.75-4v-4.36h2.05v4.36c0,1.24.71,3.24,2.68,3.24s2.71-2.02,2.71-3.24v-4.36h2.02v4.36c.02,1.98-1.49,4-4.71,4" fill="#000"/><path d="m19.92,38.4c-.41.34-.95.61-1.66.68-2.07.34-4.95-1-5.07-4.02-.12-3.1,2.93-4.36,4.9-4.34,3.34.1,4.51,2.61,4.51,4.05v4.22h-2.05v-4.17c0-.93-.41-3.24-2.54-3.32-2.07-.07-2.73,1.88-2.76,3.29,0,.93.22,3.17,2.58,3.32.73,0,1.76-.17,2.05-.41v.71h.04Z" fill="#000"/><path d="m29.06,40.2c-.27.1-1.02.27-1.88.05-.98-.24-2.56-.71-2.56-3.97v-9.14h2.07v3.66h1.9v1.27h-1.9s.07,2.58,0,4.66c-.02,1.85.51,2.49.93,2.71.51.24,1.32.15,1.41.1v.68h.02v-.02Z" fill="#000"/><path d="m41.74,34.38c0-2.05,1.05-3.46,2.9-3.66,1.32-.17,1.78.1,1.78.1v.8s-.68-.17-1.46.05c-.83.27-1.15,1.54-1.15,1.98v5.39h-2.07v-4.66" fill="#000"/><path d="m53.33,38.4c-.44.34-.98.61-1.66.68-2.07.34-4.95-1-5.05-4.02-.1-3.1,2.93-4.39,4.9-4.34,3.34.1,4.51,2.61,4.51,4.05v4.22h-2.05v-4.17c0-.93-.41-3.24-2.54-3.32-2.07-.05-2.73,1.88-2.73,3.29,0,.93.17,3.17,2.56,3.32.73,0,1.76-.17,2.02-.41v.71h.04Z" fill="#000"/><path d="m34.33,3.65c-2.71-.83-4.39,1.15-5.12,3.71-.63,2.02-.76,2.58-1.12,3.63-.54,1.46-1.78,1.56-2.73.44-1.1-1.34-2.58-3.34-3.39-4.29-1.07-1.27-3.71-2.34-5.02-.68-2,2.49.66,5.24,2.05,6.9.98,1.19,2.12,2,1.76,2.66-.17.24-.44.34-.85.34-.98-.02-4.19-.9-4.95-1.02-.63-.15-1.1-.1-1.27.39-.22.56.59,2.19,2.68,3.29,2.1,1.07,5.46,1.61,5.78,1.68,1.22.27.98.88.68,1.15-.27.29-.61.49-.54.8.2.78,1.85.95,2.83,1.1.95.17,2.17.27,3.05-.12.85-.34.9-.83,1.51-1.02.78-.29,1.05-.05,2.73.27,1.1.2,3.02-.07,4.05-.41,1.95-.63,2.76-1.29,2.76-1.58,0-.24-.34-.34-.71-.37-.41-.07-1.83-.29-2.32-.61-.46-.32-.1-.85.85-1.24,1-.41,4.19-1.73,5.39-2.8,1.19-1.07,2.34-2.85,1.34-3.9s-2.78.02-3.71.44c-1.29.61-3.32,1.66-4.02,1.8-.61.15-1.78.1-1.24-1.29.68-1.73.98-2.78,1.39-3.83.54-1.27,1.27-4.46-1.85-5.41m11.87,8.58c-.85,3.68-5.17,5.85-5.58,6.1-.44.22-.95.44-1.15.56-.07.05-.12.1.02.15.46.12,2,.02,1.95.68,0,.71-1.15,1.83-4.1,3.1-3.22,1.39-5.9.76-6.56.59l-.05.02c-.17.2-1.68,1.63-5.93.9-3.05-.54-3.8-.83-4.51-1.63-.2-.24-.32-.66-.05-1.19.05-.12.05-.2-.02-.24-4.61-.95-7.41-3.85-8.46-5.71-.51-.93-.34-1.56-.07-1.95.37-.56,1.58-.59,2.85-.27,1.41.39,2.19.56,2.49.63.1.05.1,0,.07-.07-.37-.44-1.61-2-2.27-3.02-1.05-1.66-2.39-6.07,1.07-7.9,3.85-2,7.22,1.54,7.97,2.46.66.8,1.98,2.58,2.07,2.76.17.29.24.05.24.05,0,0,.9-3.27,1.68-4.75,1.39-2.66,4.24-3.9,6.73-3.44,4.73.88,4.93,5.66,4.54,7.41-.34,1.51-.98,3.15-1.15,3.56-.02.07,0,.1.07.05.37-.17,2.05-1,3.85-1.78,1.78-.76,5.1-.73,4.27,2.95" fill="#000"/><rect x="69" y="8.9" width="3.68" height="55.59" fill="#000"/><path d="m134.42,23.87v10.31h4.44v-11.24c0-4.85-2.85-7.8-7.14-7.8-2.95,0-5.17,1.58-6.1,3.73v-3.17h-4.15v18.51h4.44v-9.73c0-3.49,1.85-5.73,4.51-5.73,2.46-.02,4,1.88,4,5.12Z" fill="#000"/><path d="m154.32,28.96c0-2.71-1.49-4.34-4.56-5.56l-2.29-.93c-1.27-.51-1.63-.95-1.63-1.78,0-1.07,1.19-1.71,3.17-1.71,1.66,0,3.02.49,4.07,1v-3.88c-.78-.51-2.56-1-4.17-1-4.63,0-7.44,2.49-7.44,5.49,0,2.63,1.51,4.1,4.24,5.24l2.34.95c1.51.63,2.1,1.12,2.1,2.07,0,1.15-.95,2.02-3.49,2.02-2.15,0-4.17-.78-5.24-1.56v3.93c1,.8,2.95,1.49,5.29,1.49,5.19.05,7.61-3,7.61-5.78h0Z" fill="#000"/><path d="m172.85,15.7h-4.44v11.07c0,2.49-1.56,4.1-4,4.1s-3.95-1.63-3.95-4.1v-11.07h-4.44v11c0,5.07,3.22,8.1,8.39,8.1s8.44-3.02,8.44-8.1v-11h0Z" fill="#000"/><path d="m180.29,34.79c.8,0,1.63-.22,2.1-.56v-3.44c-.22.15-.49.2-.85.2-.66,0-1.12-.37-1.12-1.22V8.92h-4.44v21.38c.02,2.63,1.61,4.49,4.32,4.49h-.01Z" fill="#000"/><path d="m195.09,34.23v-3.95c-.44.2-1.29.37-2.1.37-2.07,0-3-1.15-3-3.17v-7.88h5.1v-3.88h-5.1v-5.73h-4.36v5.73h-3.44v3.88h3.44v7.88c0,4.58,2.49,7.31,6.58,7.31,1.02,0,2.24-.22,2.88-.56Z" fill="#000"/><path d="m205.48,34.79c5.44,0,9.92-4.24,9.92-9.85s-4.49-9.8-9.92-9.8-9.88,4.17-9.88,9.8,4.51,9.85,9.88,9.85Zm0-15.78c3.22,0,5.58,2.34,5.58,5.93s-2.37,5.95-5.58,5.95-5.58-2.41-5.58-5.95,2.49-5.93,5.58-5.93Z" fill="#000"/><path d="m221.57,19.62v-3.93h-4.15v18.51h4.44v-9.92c0-3.58,2.19-5.1,4.8-5.1,1.07,0,2,.22,2.56.49v-4.24c-.51-.15-1.27-.27-1.93-.27-2.8-.02-4.9,1.9-5.73,4.46h0Z" fill="#000"/><rect x="230.76" y="15.7" width="4.44" height="18.51" fill="#000"/><path d="m251.59,15.7v2.34c-1.29-1.95-3.17-2.88-5.44-2.88-4.95,0-8.7,4.34-8.7,9.88s3.73,9.78,8.66,9.78c2.44,0,4.49-1.12,5.73-3.27v2.66h4.17V15.7h-4.42Zm-4.63,15.19c-3.02,0-5.22-2.34-5.22-5.88s2.19-6,5.22-6,5.29,2.34,5.29,5.95-2.27,5.93-5.29,5.93Z" fill="#000"/><path d="m109.85,15.14c-5.17,0-9.39,3.8-9.83,8.85-.15,1.22-.29,2-1.15,3.56-1.73,3.22-5.27,3.85-8.17,2.12-1.73-1.05-2.93-2.8-2.93-4.78,0-1.56.54-2.61.56-2.66.9-1.95,2.85-3.24,5.44-3.24,1.61,0,2.9.44,3.56.8l.05-3.83c-1-.51-2.54-.85-3.93-.85-5.88,0-9.92,4.34-9.92,9.75,0,4.51,2.76,8.27,7.07,9.41,3.9,1.19,8.39.02,11.05-3.85,1.78,2.66,4.83,4.34,8.22,4.34,5.44,0,9.92-4.27,9.92-9.85-.02-5.56-4.51-9.78-9.95-9.78h0Zm0,15.75c-3.1,0-5.58-2.41-5.58-5.95s2.49-5.93,5.58-5.93,5.58,2.34,5.58,5.93-2.37,5.95-5.58,5.95Z" fill="#000"/><polygon points="230.52 10.38 237.64 7.92 237.64 11.53 230.52 13.8 230.52 10.38" fill="#000"/><path d="m96.92,52.27c-1.12-2.54-3.34-3.95-6.02-3.95-4.19,0-7.39,3.32-7.39,8.12s3.19,8.07,7.39,8.07c2.78,0,5.05-1.51,6.12-4.17v3.73h1.76v-23.16h-1.85v11.36h-.01Zm-5.73,10.56c-3.36,0-5.9-2.46-5.9-6.39s2.54-6.49,5.9-6.49,5.97,2.63,5.97,6.46-2.61,6.41-5.97,6.41h0Z" fill="#000"/><path d="m110.24,48.3c-4.29,0-7.49,3.15-7.49,7.97,0,5.19,2.97,8.22,8.02,8.22,2,0,4.19-.54,5.66-1.49v-1.66c-1.24.83-3.22,1.51-5.51,1.51-3.93,0-6.17-2-6.39-5.97h12.56c.07-.37.1-.73.1-1.12,0-4.41-2.58-7.46-6.95-7.46Zm-5.68,7.1c.32-3.51,2.56-5.54,5.66-5.54,3.44,0,5.17,2.19,5.24,5.54h-10.9Z" fill="#000"/><path d="m136.91,48.3c-3.05,0-5.44,1.63-6.49,4.19v-11.63h-1.76v15.29c0,4.95,3.34,8.31,7.9,8.31s8-3.39,8-8.12-3.27-8.05-7.66-8.05h.01Zm-.34,14.56c-3.51,0-6.17-2.63-6.17-6.46s2.66-6.46,6.17-6.46,6.22,2.58,6.22,6.46-2.61,6.46-6.22,6.46Z" fill="#000"/><path d="m155.18,48.3c-4.29,0-7.49,3.15-7.49,7.97,0,5.19,2.97,8.22,8.02,8.22,2,0,4.19-.54,5.66-1.49v-1.66c-1.24.83-3.22,1.51-5.51,1.51-3.93,0-6.17-2-6.39-5.97h12.56c.07-.37.1-.73.1-1.12,0-4.41-2.61-7.46-6.95-7.46h0Zm-5.68,7.1c.32-3.51,2.56-5.54,5.66-5.54,3.44,0,5.17,2.19,5.24,5.54h-10.9Z" fill="#000"/><path d="m168,61.69v-20.8h-1.85v21.04c0,1.63,1.02,2.56,2.51,2.56.59,0,1.17-.2,1.54-.44v-1.51c-.27.24-.71.32-1.12.32-.73,0-1.07-.39-1.07-1.17h0Z" fill="#000"/><path d="m175.75,61.69v-20.8h-1.85v21.04c0,1.63,1.02,2.56,2.51,2.56.59,0,1.17-.2,1.54-.44v-1.51c-.27.24-.71.32-1.12.32-.73,0-1.07-.39-1.07-1.17h0Z" fill="#000"/><path d="m187.8,48.3c-4.29,0-7.49,3.15-7.49,7.97,0,5.19,2.97,8.22,8.05,8.22,2,0,4.19-.54,5.66-1.49v-1.66c-1.24.83-3.22,1.51-5.51,1.51-3.93,0-6.17-2-6.39-5.97h12.56c.07-.37.1-.73.1-1.12-.02-4.41-2.61-7.46-6.97-7.46h-.01Zm-5.68,7.1c.32-3.51,2.56-5.54,5.66-5.54,3.44,0,5.17,2.19,5.24,5.54h-10.9Z" fill="#000"/><polygon points="209.45 48.98 209.45 48.71 197.97 48.71 197.97 50.35 206.62 50.35 197.24 63.76 197.24 64.08 209.6 64.08 209.6 62.44 200.16 62.44 209.45 48.98" fill="#000"/><path d="m225.52,52.27c-1.12-2.54-3.34-3.95-6.02-3.95-4.19,0-7.39,3.32-7.39,8.12s3.19,8.07,7.39,8.07c2.78,0,5.05-1.51,6.12-4.17v3.73h1.76v-15.36h-1.85v3.56h0Zm-5.71,10.56c-3.36,0-5.9-2.46-5.9-6.39s2.54-6.49,5.9-6.49,5.97,2.63,5.97,6.46-2.61,6.41-5.97,6.41h0Z" fill="#000"/></g></svg>