<?xml version="1.0" encoding="utf-8"?>
<!-- Generator: Adobe Illustrator 27.2.0, SVG Export Plug-In . SVG Version: 6.00 Build 0)  -->
<svg version="1.1" id="Layer_1" xmlns="http://www.w3.org/2000/svg" xmlns:xlink="http://www.w3.org/1999/xlink" x="0px" y="0px"
	 viewBox="0 0 1530 700" style="enable-background:new 0 0 1530 700;" xml:space="preserve">
<g>
	<rect x="594.1" y="214" width="18.4" height="315.7"/>
	<g>
		<g>
			<path d="M285.9,529.8L255,465.2h8.4c3.8,0,7.3,2.2,8.9,5.7l17,36.1l16.8-36.1c1.6-3.5,5.1-5.7,8.9-5.7h8.5l-30.9,64.5
				L285.9,529.8L285.9,529.8z"/>
			<path d="M219.7,465.2h-6.9l-31.7,64.5h7.7c3.8,0,7.1-1.9,9.4-5.7l6.7-12.9c11.8,1.5,22.3,5.8,31.8,18.6h14.9L219.7,465.2z
				 M216.2,487.4l8.4,17.7c-4.6-2.2-9.5-3.8-14.6-4.8L216.2,487.4z"/>
			<path d="M479.2,465.2c-3.8,0-6.8,3-6.8,6.8v34l-33.7-40.8h-10l0,0v64.5h6.2c3.8,0,6.8-3,6.8-6.8v-34l27.6,33.6
				c0,0,5.4,7.2,13.3,7.2h2.8v-64.5H479.2z"/>
			<path d="M370.8,518.8c-11.8,0-21.4-9.7-21.2-21.5c0.2-11.9,11.2-21.7,23-20.7c10.8,0.9,19.4,10,19.4,21.1
				C392,509.3,382.5,518.8,370.8,518.8 M395.1,473.6c-6.4-6.3-14.8-9.6-24.3-9.6s-17.8,3.3-24.3,9.6c-6.4,6.3-10,14.9-10,24.1
				c0,9,3.5,17.5,10,23.9c6.6,6.4,15,9.9,24.3,9.9c9.2,0,17.8-3.5,24.2-9.8c6.5-6.3,10.1-14.8,10.1-23.9
				C405.2,488.5,401.6,479.9,395.1,473.6"/>
		</g>
		<g>
			<path d="M216.2,328.5c17.1,0,25,10.9,25,21.3v22.9h-10.7v-22.9c0-6.6-3.7-17.1-14.2-17.1c-10.3,0-14.1,10.5-14.1,17.1
				c0,6.5-0.1,22.9-0.1,22.9h-10.8v-22.9C191.2,339.4,199.2,328.5,216.2,328.5"/>
			<path d="M364.7,373.3c-17.2,0-25-10.7-25-21.1v-23h10.8v23c0,6.5,3.7,17.2,14.2,17.2c10.4,0,14.2-10.7,14.2-17.2v-23h10.7v23
				C389.7,362.6,381.8,373.3,364.7,373.3"/>
			<path d="M284.8,369.5c-2.2,1.8-5.1,3.2-8.7,3.6c-10.9,1.8-26.1-5.3-26.7-21.2c-0.6-16.3,15.4-23,25.9-22.8
				c17.6,0.5,23.8,13.7,23.8,21.3v22.3h-10.8v-22.1c0-4.9-2.1-17.2-13.4-17.5c-10.9-0.3-14.4,9.9-14.5,17.4
				c0,4.8,1.2,16.7,13.6,17.4c3.8,0.1,9.3-0.9,10.8-2.2V369.5z"/>
			<path d="M333,379.1c-1.4,0.5-5.3,1.4-9.9,0.2c-5.1-1.3-13.5-3.7-13.5-21V310h11v19.2h10v6.6h-10c0,0,0.3,13.7,0,24.5
				c-0.2,9.7,2.7,13.2,4.9,14.2c2.7,1.3,7,0.8,7.5,0.5V379.1z"/>
			<path d="M399.9,348.4c0-10.8,5.6-18.3,15.3-19.2c6.9-0.9,9.4,0.6,9.4,0.6v4.2c0,0-3.7-0.9-7.7,0.2c-4.3,1.5-6.1,8.1-6.1,10.4
				c0,7.9,0,28.3,0,28.3h-11v-24.5"/>
			<path d="M460.9,369.5c-2.3,1.8-5.2,3.2-8.8,3.6c-10.9,1.8-26-5.3-26.7-21.2c-0.5-16.3,15.4-23.1,25.9-22.8
				c17.6,0.5,23.8,13.7,23.8,21.3v22.3h-10.8v-22.1c0-4.9-2.2-17.2-13.4-17.5c-10.9-0.3-14.4,9.9-14.4,17.4
				c0,4.8,0.9,16.7,13.5,17.4c3.9,0.1,9.3-0.9,10.7-2.2v3.8H460.9z"/>
			<path d="M360.8,186.3c-14.3-4.3-23.1,6.1-27,19.5c-3.4,10.7-4,13.6-5.9,19.2c-2.8,7.8-9.4,8.3-14.4,2.3
				c-5.8-7.1-13.6-17.6-17.9-22.6c-5.7-6.6-19.5-12.3-26.4-3.6c-10.5,13.1,3.4,27.7,10.8,36.4c5.1,6.3,11.2,10.5,9.3,14
				c-0.9,1.3-2.3,1.7-4.5,1.7c-5.2-0.1-22.1-4.7-26.1-5.5c-3.3-0.7-5.8-0.5-6.7,2c-1.2,3,3.1,11.6,14.1,17.3
				c11,5.7,28.8,8.4,30.5,8.9c6.4,1.4,5.2,4.6,3.6,6.1c-1.4,1.6-3.2,2.6-2.9,4.2c1,4.1,9.7,5,15,5.8c5,0.9,11.5,1.4,16.1-0.6
				c4.5-1.8,4.8-4.3,7.9-5.4c4.1-1.6,5.5-0.3,14.4,1.5c5.7,1.1,15.9-0.4,21.3-2.2c10.3-3.4,14.6-6.8,14.6-8.3c0-1.3-1.8-1.8-3.7-1.9
				c-2.2-0.4-9.6-1.6-12.2-3.2c-2.4-1.7-0.5-4.6,4.5-6.6c5.3-2.1,22.1-9.2,28.4-14.8c6.3-5.6,12.3-15.1,7.1-20.5
				c-5.3-5.5-14.6,0.1-19.6,2.4c-6.8,3.3-17.5,8.7-21.2,9.6c-3.2,0.8-9.4,0.6-6.5-6.8c3.5-9.1,5.2-14.7,7.4-20.2
				C373.4,208.2,377.2,191.4,360.8,186.3 M423.3,231.6c-4.6,19.4-27.3,30.8-29.5,32.1c-2.3,1.1-5.1,2.3-6.1,3
				c-0.4,0.3-0.7,0.5,0.1,0.8c2.4,0.7,10.5,0.2,10.3,3.6c0,3.7-6.1,9.7-21.6,16.3c-16.9,7.3-31.1,3.9-34.6,3.1l-0.3,0.1
				c-0.9,1-8.8,8.6-31.2,4.7c-16-2.8-20-4.4-23.8-8.6c-1-1.3-1.7-3.5-0.2-6.3c0.2-0.7,0.3-1.1-0.1-1.2c-24.4-5-39.1-20.3-44.5-30
				c-2.7-4.9-1.8-8.2-0.4-10.2c1.9-2.9,8.4-3.1,15.1-1.5c7.4,2,11.6,3,13.2,3.4c0.5,0.2,0.6,0,0.3-0.4c-1.9-2.3-8.5-10.6-11.9-15.9
				c-5.5-8.7-12.6-32,5.6-41.7c20.3-10.6,38.1,8.1,42,12.9c3.5,4.2,10.5,13.6,11,14.5c0.9,1.5,1.3,0.3,1.3,0.3s4.7-17.2,8.9-25.1
				c7.3-14,22.4-20.5,35.5-18.1c25,4.7,25.9,29.9,23.9,39.1c-1.8,8-5.1,16.6-6.1,18.8c-0.2,0.4,0,0.5,0.3,0.3
				c1.9-0.9,10.8-5.2,20.3-9.3C410.3,212.1,427.8,212.2,423.3,231.6"/>
		</g>
	</g>
	<g>
		<g>
			<g>
				<g>
					<path d="M757.6,265c-2.6,1.4-6.5,1.9-9.7,1.9c-15.6,0-27.2-11.5-27.2-26.8s11.7-26.8,27.3-26.8c3.2,0,7.1,0.6,9.7,1.8v11.3
						c-2.6-1.3-5.5-1.9-9-1.9c-9.1,0-15.9,6.4-15.9,15.7c0,9.2,6.8,15.6,15.9,15.6c3.5,0,6.4-0.6,9-1.8L757.6,265L757.6,265z"/>
					<path d="M766.4,240.1c0-15.3,11.5-26.8,27-26.8c15.8,0,27.2,11.5,27.2,26.8S809.2,267,793.4,267
						C777.9,267,766.4,255.3,766.4,240.1z M808.6,240.1c0-9.1-6.3-15.8-15.1-15.8s-15,6.8-15,15.8c0,8.9,6.2,15.8,15,15.8
						C802.3,255.8,808.6,249,808.6,240.1z"/>
					<path d="M879.8,214v52.2h-1.3l-34.6-29.5v29.1h-11.8v-52.2h1.3l34.6,29.3V214H879.8z"/>
					<path d="M892.4,263.8v-10.5c2.3,1.7,5.9,3.5,10.5,3.5c6.4,0,9.3-3.2,9.3-6.4c0-2.6-1.5-4.8-5.3-6.7l-5.2-2.6
						c-5.7-2.9-9.4-6.8-9.4-12.9c0-8.6,7.7-14.9,19.7-14.9c4.5,0,7.9,0.8,9.7,1.9v10.5c-1.9-1.2-5.1-2.3-8.5-2.3
						c-5.3,0-8.4,2.1-8.4,5.3c0,2.1,1.3,3.6,4.5,5.1l5,2.5c6.8,3.3,9.9,7.9,9.9,14.2c0,9-6.4,16.6-20.1,16.6
						C899.4,267,895.1,265.6,892.4,263.8z"/>
					<path d="M934.9,243.7V214H947v29.8c0,7.2,4.3,12.1,11.5,12.1c7.3,0,11.5-4.9,11.5-12.1V214h12.1v29.7
						c0,14.2-9.3,23.2-23.6,23.2C944.4,267,934.9,258,934.9,243.7z"/>
					<path d="M1023.4,255.3v10.5H996V214h12.1v41.3H1023.4z"/>
					<path d="M1036.5,224.5H1025V214h35.1v10.5h-11.5v41.3h-12.1V224.5z"/>
					<path d="M1064.5,240.1c0-15.3,11.5-26.8,27-26.8c15.8,0,27.2,11.5,27.2,26.8s-11.4,26.9-27.2,26.9
						C1075.9,267,1064.5,255.3,1064.5,240.1z M1106.6,240.1c0-9.1-6.3-15.8-15.1-15.8c-8.8,0-15,6.8-15,15.8c0,8.9,6.2,15.8,15,15.8
						C1100.3,255.8,1106.6,249,1106.6,240.1z"/>
					<path d="M1160.7,265.8l-8-14.9c-1.2,0.1-2.4,0.1-3.7,0.1c-2.5,0-4.6-0.2-6.6-0.6v15.3h-12.2V214h21.3
						c13.5,0,21.4,6.6,21.4,17.8c0,7.4-3.2,12.8-8.8,15.9l9.9,18.2h-13.3V265.8z M1160.4,232.4c0-4.8-2.8-7.8-10.2-7.8h-7.9v16.1
						c1.9,0.3,3.9,0.5,6.2,0.5C1156.7,241.2,1160.4,238.1,1160.4,232.4z"/>
					<path d="M1184.2,214h12v51.8h-12V214z"/>
					<path d="M1241.3,257.8H1223l-3.2,8.1h-13.1l24.8-51.8h1.4l24.8,51.8h-13.1L1241.3,257.8z M1232.1,234.5l-5.7,14.4h11.5
						L1232.1,234.5z"/>
				</g>
			</g>
			<path d="M1332.7,240c0,16.1-11.8,27.4-30.3,27.4c-7,0-13.8-1.2-16.9-2.4v-51h18.4C1321.3,214,1332.7,225.1,1332.7,240z
				 M1320.4,240.3c0-8.5-5.9-15.6-16.3-15.6h-6.9v31.4c2.2,0.3,4.6,0.5,6.8,0.5C1314.8,256.6,1320.4,249.5,1320.4,240.3z"/>
			<path d="M1377,255.3v10.5h-35.1V214h34.6v10.5h-23.2v9.4h22.1v9.8h-22.1v11.6H1377z"/>
		</g>
		<polygon points="1182.7,210.4 1182.7,203.6 1199.7,200 1199.7,207.3 		"/>
	</g>
	<path d="M886.4,317.5c-14.5,0-26.2,4.2-34.8,12.6c-8.7,8.4-13,21-13,37.8V482c0,17.1,4.1,29.7,12.2,38c8.1,8.3,19.4,12.4,34,12.4
		c14.3,0,25.7-4.5,34.4-13.4c8.7-8.9,13-22,13-39v-16.4H902v19.3c0,7.8-1.4,14.1-4.2,18.7s-7.1,6.9-13,6.9c-5.6,0-9.7-1.7-12.4-5.2
		s-4-8.9-4-16.2v-1.3c0-6.7,0.3-12,0.8-15.9c0.6-3.9,2-7.7,4.2-11.3c2.2-3.6,5.7-7.3,10.5-10.9l20.1-15.9
		c10.1-7.8,17.6-16.2,22.7-25c5-8.8,7.6-18.8,7.6-30V368c0-17.3-4-30.1-12-38.2C914.3,321.6,902.3,317.5,886.4,317.5z M902.8,377.1
		c0,8.4-1.3,15.6-3.8,21.6s-7.1,12-13.8,17.8l-13.8,11.7c-0.6,0.5-1.2,1-1.7,1.5v-66.2c0-7.3,1.5-12.8,4.4-16.6
		c2.9-3.8,7.1-5.7,12.4-5.7c5.3,0,9.4,1.9,12.2,5.7c2.8,3.8,4.2,9.3,4.2,16.6v13.6H902.8z"/>
	<path d="M982.6,495.4v-175h-31v176.2c0,11.5,2.8,20.3,8.4,26.4c5.6,6.2,13.6,9.2,23.9,9.2c6.1,0,11.6-1.1,16.4-3.4v-20.1H994
		C986.4,508.8,982.6,504.4,982.6,495.4z"/>
	<path d="M1041,495.4v-175h-31v176.2c0,11.5,2.8,20.3,8.4,26.4c5.6,6.2,13.6,9.2,23.9,9.2c6.1,0,11.6-1.1,16.4-3.4v-20.1h-6.3
		C1044.8,508.8,1041,504.4,1041,495.4z"/>
	<path d="M1116.5,317.5c-14.5,0-26.2,4.2-34.8,12.6c-8.7,8.4-13,21-13,37.8V482c0,17.1,4.1,29.7,12.2,38s19.4,12.4,34,12.4
		c14.3,0,25.7-4.5,34.4-13.4c8.7-8.9,13-22,13-39v-16.4H1132v19.3c0,7.8-1.4,14.1-4.2,18.7c-2.8,4.6-7.1,6.9-13,6.9
		c-5.6,0-9.7-1.7-12.4-5.2c-2.7-3.5-4-8.9-4-16.2v-1.3c0-6.7,0.3-12,0.8-15.9c0.6-3.9,2-7.7,4.2-11.3c2.2-3.6,5.7-7.3,10.5-10.9
		l20.1-15.9c10.1-7.8,17.6-16.2,22.7-25c5-8.8,7.6-18.8,7.6-30V368c0-17.3-4-30.1-12-38.2C1144.4,321.6,1132.5,317.5,1116.5,317.5z
		 M1132.9,377.1c0,8.4-1.3,15.6-3.8,21.6s-7.1,12-13.8,17.8l-13.8,11.7c-0.6,0.5-1.2,1-1.7,1.5v-66.2c0-7.3,1.5-12.8,4.4-16.6
		c2.9-3.8,7.1-5.7,12.4-5.7s9.4,1.9,12.2,5.7c2.8,3.8,4.2,9.3,4.2,16.6L1132.9,377.1L1132.9,377.1z"/>
	<path d="M1209,498.7c0-6.1,1-12.2,2.9-18c2-5.9,5.3-13.4,10.1-22.6l32.3-60.4c4.8-8.9,8-17.8,9.6-26.6c1.7-8.8,2.5-19.5,2.5-32.1
		v-18.5h-86v25.2h56.2v6.7c0,5.9-0.9,11.3-2.7,16.4c-1.8,5-5,12.2-9.4,21.4l-1.7,2.9l-31.5,60c-4.8,9-8,18-9.9,27.1
		c-1.8,9.1-2.7,19.9-2.7,32.5v17.2h88.5v-25.2H1209V498.7z"/>
	<path d="M794.3,409.8c7.9-7.1,13.4-13.7,16.6-19.8c3.8-7.1,5.7-14.5,5.7-22.1v-5.5c0-12.9-4.7-23.1-14.1-30.7
		c-9.4-7.6-21.8-11.3-37.2-11.3h-44.1v209.3h12.6H751h19.8c15.4-0.3,27.7-5.1,36.8-14.5c9.1-9.4,13.7-22.1,13.7-38v-10.5
		c0-12.3-3.2-24-9.5-34.9C806.9,423.5,801.1,416.1,794.3,409.8z M762.8,344.4c6.7,0,12.3,2,16.6,6.1s6.5,9.5,6.5,16.2v3.8
		c0,6.7-1.2,12.4-3.6,17c-2.4,4.6-7.1,10-14.1,16.2l-15.1,13.4c-0.7,0.6-1.4,1.3-2.1,2v-74.7L762.8,344.4L762.8,344.4z M789.7,478.9
		c0,8.1-2.3,14.6-6.9,19.5c-4.6,4.9-10.9,7.4-18.7,7.4h-13v-37.4c0-9.8,1.3-16.9,3.8-21.4s8-10.4,16.4-17.7l3.8-3.2
		c4.9,4.9,8.4,9.8,10.5,14.8c2.8,6.9,4.2,16.7,4.2,29.6L789.7,478.9L789.7,478.9z"/>
	<path d="M1365,329.9c-8-8.2-19.2-12.4-33.8-12.4c-14.5,0-26.1,4.5-34.6,13.4c-8.5,9-12.8,22-12.8,39v16.4h29.8V367
		c0-7.8,1.4-14.1,4.2-18.7c2.8-4.6,7.3-6.9,13.4-6.9c5.6,0,9.6,1.8,12.2,5.2c2.5,3.5,3.8,8.9,3.8,16.2v1.3c0,6.7-0.3,12-0.8,15.9
		c-0.6,3.9-2,7.7-4.2,11.3c-2.2,3.6-5.6,7.3-10.1,10.9l-20.1,15.9c-10.1,7.8-17.6,16.2-22.7,25c-5,8.8-7.6,18.8-7.6,30v8.8
		c0,17.3,4,30.1,12,38.2c8,8.1,19.8,12.2,35.5,12.2c14.8,0,26.5-4.2,35-12.6c8.5-8.4,12.8-21,12.8-37.8v-114
		C1377,350.8,1373,338.1,1365,329.9z M1341.9,502.8c-2.9,3.8-7.2,5.7-12.8,5.7c-5.3,0-9.3-1.9-12-5.7c-2.7-3.8-4-9.3-4-16.6v-13.4
		c0-8.4,1.2-15.6,3.6-21.6s6.9-12,13.6-17.8l14.3-11.7c0.6-0.6,1.1-1.1,1.7-1.8v66.4C1346.3,493.5,1344.9,499,1341.9,502.8z"/>
</g>
</svg>
