<?xml version="1.0" encoding="UTF-8"?><svg id="Layer_1" xmlns="http://www.w3.org/2000/svg" width="1195.9" height="365.49" viewBox="0 0 1195.9 365.49"><rect x="413" y="47.09" width="18.4" height="315.7"/><g><g><path d="m104.8,362.89l-30.9-64.6h8.4c3.8,0,7.3,2.2,8.9,5.7l17,36.1,16.8-36.1c1.6-3.5,5.1-5.7,8.9-5.7h8.5l-30.9,64.5-6.7.1h0Z"/><path d="m38.6,298.29h-6.9L0,362.79h7.7c3.8,0,7.1-1.9,9.4-5.7l6.7-12.9c11.8,1.5,22.3,5.8,31.8,18.6h14.9l-31.9-64.5Zm-3.5,22.2l8.4,17.7c-4.6-2.2-9.5-3.8-14.6-4.8l6.2-12.9Z"/><path d="m298.1,298.29c-3.8,0-6.8,3-6.8,6.8v34l-33.7-40.8h-10v64.5h6.2c3.8,0,6.8-3,6.8-6.8v-34l27.6,33.6s5.4,7.2,13.3,7.2h2.8v-64.5h-6.2Z"/><path d="m189.7,351.89c-11.8,0-21.4-9.7-21.2-21.5.2-11.9,11.2-21.7,23-20.7,10.8.9,19.4,10,19.4,21.1,0,11.6-9.5,21.1-21.2,21.1m24.3-45.2c-6.4-6.3-14.8-9.6-24.3-9.6s-17.8,3.3-24.3,9.6c-6.4,6.3-10,14.9-10,24.1s3.5,17.5,10,23.9c6.6,6.4,15,9.9,24.3,9.9s17.8-3.5,24.2-9.8c6.5-6.3,10.1-14.8,10.1-23.9.1-9.3-3.5-17.9-10-24.2"/></g><g><path d="m35.1,161.59c17.1,0,25,10.9,25,21.3v22.9h-10.7v-22.9c0-6.6-3.7-17.1-14.2-17.1s-14.1,10.5-14.1,17.1-.1,22.9-.1,22.9h-10.8v-22.9c-.1-10.4,7.9-21.3,24.9-21.3"/><path d="m183.6,206.39c-17.2,0-25-10.7-25-21.1v-23h10.8v23c0,6.5,3.7,17.2,14.2,17.2s14.2-10.7,14.2-17.2v-23h10.7v23c.1,10.4-7.8,21.1-24.9,21.1"/><path d="m103.7,202.59c-2.2,1.8-5.1,3.2-8.7,3.6-10.9,1.8-26.1-5.3-26.7-21.2-.6-16.3,15.4-23,25.9-22.8,17.6.5,23.8,13.7,23.8,21.3v22.3h-10.8v-22.1c0-4.9-2.1-17.2-13.4-17.5-10.9-.3-14.4,9.9-14.5,17.4,0,4.8,1.2,16.7,13.6,17.4,3.8.1,9.3-.9,10.8-2.2v3.8Z"/><path d="m151.9,212.19c-1.4.5-5.3,1.4-9.9.2-5.1-1.3-13.5-3.7-13.5-21v-48.3h11v19.2h10v6.6h-10s.3,13.7,0,24.5c-.2,9.7,2.7,13.2,4.9,14.2,2.7,1.3,7,.8,7.5.5v4.1Z"/><path d="m218.8,181.49c0-10.8,5.6-18.3,15.3-19.2,6.9-.9,9.4.6,9.4.6v4.2s-3.7-.9-7.7.2c-4.3,1.5-6.1,8.1-6.1,10.4v28.3h-11v-24.5"/><path d="m279.8,202.59c-2.3,1.8-5.2,3.2-8.8,3.6-10.9,1.8-26-5.3-26.7-21.2-.5-16.3,15.4-23.1,25.9-22.8,17.6.5,23.8,13.7,23.8,21.3v22.3h-10.8v-22.1c0-4.9-2.2-17.2-13.4-17.5-10.9-.3-14.4,9.9-14.4,17.4,0,4.8.9,16.7,13.5,17.4,3.9.1,9.3-.9,10.7-2.2v3.8h.2Z"/><path d="m179.7,19.39c-14.3-4.3-23.1,6.1-27,19.5-3.4,10.7-4,13.6-5.9,19.2-2.8,7.8-9.4,8.3-14.4,2.3-5.8-7.1-13.6-17.6-17.9-22.6-5.7-6.6-19.5-12.3-26.4-3.6-10.5,13.1,3.4,27.7,10.8,36.4,5.1,6.3,11.2,10.5,9.3,14-.9,1.3-2.3,1.7-4.5,1.7-5.2-.1-22.1-4.7-26.1-5.5-3.3-.7-5.8-.5-6.7,2-1.2,3,3.1,11.6,14.1,17.3,11,5.7,28.8,8.4,30.5,8.9,6.4,1.4,5.2,4.6,3.6,6.1-1.4,1.6-3.2,2.6-2.9,4.2,1,4.1,9.7,5,15,5.8,5,.9,11.5,1.4,16.1-.6,4.5-1.8,4.8-4.3,7.9-5.4,4.1-1.6,5.5-.3,14.4,1.5,5.7,1.1,15.9-.4,21.3-2.2,10.3-3.4,14.6-6.8,14.6-8.3,0-1.3-1.8-1.8-3.7-1.9-2.2-.4-9.6-1.6-12.2-3.2-2.4-1.7-.5-4.6,4.5-6.6,5.3-2.1,22.1-9.2,28.4-14.8,6.3-5.6,12.3-15.1,7.1-20.5-5.3-5.5-14.6.1-19.6,2.4-6.8,3.3-17.5,8.7-21.2,9.6-3.2.8-9.4.6-6.5-6.8,3.5-9.1,5.2-14.7,7.4-20.2,2.6-6.8,6.4-23.6-10-28.7m62.5,45.3c-4.6,19.4-27.3,30.8-29.5,32.1-2.3,1.1-5.1,2.3-6.1,3-.4.3-.7.5.1.8,2.4.7,10.5.2,10.3,3.6,0,3.7-6.1,9.7-21.6,16.3-16.9,7.3-31.1,3.9-34.6,3.1l-.3.1c-.9,1-8.8,8.6-31.2,4.7-16-2.8-20-4.4-23.8-8.6-1-1.3-1.7-3.5-.2-6.3.2-.7.3-1.1-.1-1.2-24.4-5-39.1-20.3-44.5-30-2.7-4.9-1.8-8.2-.4-10.2,1.9-2.9,8.4-3.1,15.1-1.5,7.4,2,11.6,3,13.2,3.4.5.2.6,0,.3-.4-1.9-2.3-8.5-10.6-11.9-15.9-5.5-8.7-12.6-32,5.6-41.7,20.3-10.6,38.1,8.1,42,12.9,3.5,4.2,10.5,13.6,11,14.5.9,1.5,1.3.3,1.3.3,0,0,4.7-17.2,8.9-25.1C153.1,4.59,168.2-1.91,181.3.49c25,4.7,25.9,29.9,23.9,39.1-1.8,8-5.1,16.6-6.1,18.8-.2.4,0,.5.3.3,1.9-.9,10.8-5.2,20.3-9.3,9.5-4.2,27-4.1,22.5,15.3"/></g></g><g><g><g><path d="m576.5,98.09c-2.6,1.4-6.5,1.9-9.7,1.9-15.6,0-27.2-11.5-27.2-26.8s11.7-26.8,27.3-26.8c3.2,0,7.1.6,9.7,1.8v11.3c-2.6-1.3-5.5-1.9-9-1.9-9.1,0-15.9,6.4-15.9,15.7s6.8,15.6,15.9,15.6c3.5,0,6.4-.6,9-1.8l-.1,11h0Z"/><path d="m585.3,73.19c0-15.3,11.5-26.8,27-26.8s27.2,11.5,27.2,26.8-11.4,26.9-27.2,26.9-27-11.7-27-26.9Zm42.2,0c0-9.1-6.3-15.8-15.1-15.8s-15,6.8-15,15.8,6.2,15.8,15,15.8c8.8-.1,15.1-6.9,15.1-15.8Z"/><path d="m698.7,47.09v52.2h-1.3l-34.6-29.5v29.1h-11.8v-52.2h1.3l34.6,29.3v-28.9h11.8Z"/><path d="m711.3,96.89v-10.5c2.3,1.7,5.9,3.5,10.5,3.5,6.4,0,9.3-3.2,9.3-6.4,0-2.6-1.5-4.8-5.3-6.7l-5.2-2.6c-5.7-2.9-9.4-6.8-9.4-12.9,0-8.6,7.7-14.9,19.7-14.9,4.5,0,7.9.8,9.7,1.9v10.5c-1.9-1.2-5.1-2.3-8.5-2.3-5.3,0-8.4,2.1-8.4,5.3,0,2.1,1.3,3.6,4.5,5.1l5,2.5c6.8,3.3,9.9,7.9,9.9,14.2,0,9-6.4,16.6-20.1,16.6-4.7-.1-9-1.5-11.7-3.3Z"/><path d="m753.8,76.79v-29.7h12.1v29.8c0,7.2,4.3,12.1,11.5,12.1s11.5-4.9,11.5-12.1v-29.8h12.1v29.7c0,14.2-9.3,23.2-23.6,23.2-14.1.1-23.6-8.9-23.6-23.2Z"/><path d="m842.3,88.39v10.5h-27.4v-51.8h12.1v41.3h15.3Z"/><path d="m855.4,57.59h-11.5v-10.5h35.1v10.5h-11.5v41.3h-12.1v-41.3Z"/><path d="m883.4,73.19c0-15.3,11.5-26.8,27-26.8s27.2,11.5,27.2,26.8-11.4,26.9-27.2,26.9-27-11.7-27-26.9Zm42.1,0c0-9.1-6.3-15.8-15.1-15.8s-15,6.8-15,15.8,6.2,15.8,15,15.8c8.8-.1,15.1-6.9,15.1-15.8Z"/><path d="m979.6,98.89l-8-14.9c-1.2.1-2.4.1-3.7.1-2.5,0-4.6-.2-6.6-.6v15.3h-12.2v-51.7h21.3c13.5,0,21.4,6.6,21.4,17.8,0,7.4-3.2,12.8-8.8,15.9l9.9,18.2h-13.3v-.1h0Zm-.3-33.4c0-4.8-2.8-7.8-10.2-7.8h-7.9v16.1c1.9.3,3.9.5,6.2.5,8.2,0,11.9-3.1,11.9-8.8Z"/><path d="m1003.1,47.09h12v51.8h-12v-51.8Z"/><path d="m1060.2,90.89h-18.3l-3.2,8.1h-13.1l24.8-51.8h1.4l24.8,51.8h-13.1l-3.3-8.1Zm-9.2-23.3l-5.7,14.4h11.5l-5.8-14.4Z"/></g><path d="m1151.6,73.09c0,16.1-11.8,27.4-30.3,27.4-7,0-13.8-1.2-16.9-2.4v-51h18.4c17.4,0,28.8,11.1,28.8,26Zm-12.3.3c0-8.5-5.9-15.6-16.3-15.6h-6.9v31.4c2.2.3,4.6.5,6.8.5,10.8,0,16.4-7.1,16.4-16.3Z"/><path d="m1195.9,88.39v10.5h-35.1v-51.8h34.6v10.5h-23.2v9.4h22.1v9.8h-22.1v11.6h23.7Z"/></g><polygon points="1001.6 43.49 1001.6 36.69 1018.6 33.09 1018.6 40.39 1001.6 43.49"/></g><path d="m705.3,150.59c-14.5,0-26.2,4.2-34.8,12.6-8.7,8.4-13,21-13,37.8v114.1c0,17.1,4.1,29.7,12.2,38,8.1,8.3,19.4,12.4,34,12.4s25.7-4.5,34.4-13.4c8.7-8.9,13-22,13-39v-16.4h-30.2v19.3c0,7.8-1.4,14.1-4.2,18.7s-7.1,6.9-13,6.9-9.7-1.7-12.4-5.2-4-8.9-4-16.2v-1.3c0-6.7.3-12,.8-15.9.6-3.9,2-7.7,4.2-11.3,2.2-3.6,5.7-7.3,10.5-10.9l20.1-15.9c10.1-7.8,17.6-16.2,22.7-25,5-8.8,7.6-18.8,7.6-30v-8.8c0-17.3-4-30.1-12-38.2-8-8.2-20-12.3-35.9-12.3Zm16.4,59.6c0,8.4-1.3,15.6-3.8,21.6s-7.1,12-13.8,17.8l-13.8,11.7c-.6.5-1.2,1-1.7,1.5v-66.2c0-7.3,1.5-12.8,4.4-16.6,2.9-3.8,7.1-5.7,12.4-5.7s9.4,1.9,12.2,5.7c2.8,3.8,4.2,9.3,4.2,16.6v13.6h-.1Z"/><path d="m801.5,328.49v-175h-31v176.2c0,11.5,2.8,20.3,8.4,26.4,5.6,6.2,13.6,9.2,23.9,9.2,6.1,0,11.6-1.1,16.4-3.4v-20.1h-6.3c-7.6.1-11.4-4.3-11.4-13.3Z"/><path d="m859.9,328.49v-175h-31v176.2c0,11.5,2.8,20.3,8.4,26.4,5.6,6.2,13.6,9.2,23.9,9.2,6.1,0,11.6-1.1,16.4-3.4v-20.1h-6.3c-7.6.1-11.4-4.3-11.4-13.3Z"/><path d="m935.4,150.59c-14.5,0-26.2,4.2-34.8,12.6-8.7,8.4-13,21-13,37.8v114.1c0,17.1,4.1,29.7,12.2,38s19.4,12.4,34,12.4,25.7-4.5,34.4-13.4c8.7-8.9,13-22,13-39v-16.4h-30.3v19.3c0,7.8-1.4,14.1-4.2,18.7-2.8,4.6-7.1,6.9-13,6.9s-9.7-1.7-12.4-5.2c-2.7-3.5-4-8.9-4-16.2v-1.3c0-6.7.3-12,.8-15.9.6-3.9,2-7.7,4.2-11.3,2.2-3.6,5.7-7.3,10.5-10.9l20.1-15.9c10.1-7.8,17.6-16.2,22.7-25,5-8.8,7.6-18.8,7.6-30v-8.8c0-17.3-4-30.1-12-38.2-7.9-8.2-19.8-12.3-35.8-12.3Zm16.4,59.6c0,8.4-1.3,15.6-3.8,21.6s-7.1,12-13.8,17.8l-13.8,11.7c-.6.5-1.2,1-1.7,1.5v-66.2c0-7.3,1.5-12.8,4.4-16.6,2.9-3.8,7.1-5.7,12.4-5.7s9.4,1.9,12.2,5.7c2.8,3.8,4.2,9.3,4.2,16.6l-.1,13.6h0Z"/><path d="m1027.9,331.79c0-6.1,1-12.2,2.9-18,2-5.9,5.3-13.4,10.1-22.6l32.3-60.4c4.8-8.9,8-17.8,9.6-26.6,1.7-8.8,2.5-19.5,2.5-32.1v-18.5h-86v25.2h56.2v6.7c0,5.9-.9,11.3-2.7,16.4-1.8,5-5,12.2-9.4,21.4l-1.7,2.9-31.5,60c-4.8,9-8,18-9.9,27.1-1.8,9.1-2.7,19.9-2.7,32.5v17.2h88.5v-25.2h-58.2v-6Z"/><path d="m613.2,242.89c7.9-7.1,13.4-13.7,16.6-19.8,3.8-7.1,5.7-14.5,5.7-22.1v-5.5c0-12.9-4.7-23.1-14.1-30.7-9.4-7.6-21.8-11.3-37.2-11.3h-44.1v209.3h49.6c15.4-.3,27.7-5.1,36.8-14.5,9.1-9.4,13.7-22.1,13.7-38v-10.5c0-12.3-3.2-24-9.5-34.9-4.9-8.3-10.7-15.7-17.5-22Zm-31.5-65.4c6.7,0,12.3,2,16.6,6.1s6.5,9.5,6.5,16.2v3.8c0,6.7-1.2,12.4-3.6,17-2.4,4.6-7.1,10-14.1,16.2l-15.1,13.4c-.7.6-1.4,1.3-2.1,2v-74.7h11.8Zm26.9,134.5c0,8.1-2.3,14.6-6.9,19.5-4.6,4.9-10.9,7.4-18.7,7.4h-13v-37.4c0-9.8,1.3-16.9,3.8-21.4s8-10.4,16.4-17.7l3.8-3.2c4.9,4.9,8.4,9.8,10.5,14.8,2.8,6.9,4.2,16.7,4.2,29.6l-.1,8.4h0Z"/><path d="m1183.9,162.99c-8-8.2-19.2-12.4-33.8-12.4s-26.1,4.5-34.6,13.4c-8.5,9-12.8,22-12.8,39v16.4h29.8v-19.3c0-7.8,1.4-14.1,4.2-18.7,2.8-4.6,7.3-6.9,13.4-6.9,5.6,0,9.6,1.8,12.2,5.2,2.5,3.5,3.8,8.9,3.8,16.2v1.3c0,6.7-.3,12-.8,15.9-.6,3.9-2,7.7-4.2,11.3-2.2,3.6-5.6,7.3-10.1,10.9l-20.1,15.9c-10.1,7.8-17.6,16.2-22.7,25-5,8.8-7.6,18.8-7.6,30v8.8c0,17.3,4,30.1,12,38.2,8,8.1,19.8,12.2,35.5,12.2,14.8,0,26.5-4.2,35-12.6,8.5-8.4,12.8-21,12.8-37.8v-114c0-17.1-4-29.8-12-38Zm-23.1,172.9c-2.9,3.8-7.2,5.7-12.8,5.7-5.3,0-9.3-1.9-12-5.7-2.7-3.8-4-9.3-4-16.6v-13.4c0-8.4,1.2-15.6,3.6-21.6s6.9-12,13.6-17.8l14.3-11.7c.6-.6,1.1-1.1,1.7-1.8v66.4c0,7.2-1.4,12.7-4.4,16.5Z"/></svg>