<svg width="128" height="79" viewBox="0 0 128 79" fill="none" xmlns="http://www.w3.org/2000/svg">
<path fill-rule="evenodd" clip-rule="evenodd" d="M74.6858 18.7167V16.8861C74.4676 16.9217 74.225 16.9442 73.9448 16.9442C72.2163 16.9442 72.2164 16.1042 72.2165 14.395V14.3453H72.2146V0.736328L70.2061 1.1167V14.469C70.2061 15.8162 70.3453 16.9011 70.8399 17.6468C71.3345 18.3944 72.1902 18.8048 73.612 18.8048C74.0219 18.8048 74.3755 18.7748 74.6858 18.7167ZM111.625 2.78435C111.625 2.02174 112.129 1.47461 112.991 1.47461C113.852 1.47461 114.379 2.04423 114.379 2.78435C114.379 3.52448 113.852 4.07161 112.991 4.07161C112.129 4.07161 111.625 3.54696 111.625 2.78435ZM111.983 18.52V6.29012H113.993V18.52H111.983ZM85.396 8.00643V8.00456H85.3979L85.396 8.00643ZM85.396 8.00456V6.29009H80.1547V2.21283L78.1443 2.61568V6.28821H75.0563V8.00456H78.1443V14.4184C78.1443 17.1128 79.4852 18.7561 82.3325 18.7561C83.4514 18.7561 84.4256 18.52 84.9559 18.2127V16.4682C84.3523 16.7886 83.5887 17.0154 82.6672 17.0154C80.922 17.0154 80.1566 16.0392 80.1566 14.2966V8.00456H85.396ZM2.0104 12.3928C2.0104 14.9674 3.94934 17.1128 6.93767 17.1128V17.1147C8.68855 17.1147 10.2476 16.5057 11.4418 15.3121V17.3639C10.3868 18.2708 8.70548 18.8029 6.67627 18.8029C2.75325 18.8029 0 16.0167 0 12.3928C0 8.76904 2.75325 6.0034 6.65182 6.00153C8.82584 6.00153 10.3228 6.51306 11.2368 7.42369V9.49418C10.1479 8.35682 8.77506 7.69539 6.964 7.69539C3.99448 7.69539 2.0104 9.81833 2.0104 12.3928ZM1.14531 58.142H0C0 53.1298 4.09415 49.0507 9.12486 49.0507H63.9906V50.1918H9.12486C4.72416 50.1918 1.14531 53.7575 1.14531 58.142ZM43.4239 75.0132L43.9919 73.7241V73.7222L44.6727 75.2212C44.573 75.15 44.447 75.0938 44.2947 75.0544C44.1442 75.0151 43.9637 74.9963 43.7549 74.9963C43.6534 74.9963 43.5443 75.002 43.4239 75.0132ZM53.0096 73.4224C53.1675 73.4899 53.2954 73.576 53.4045 73.6885V73.6866C53.5192 73.8009 53.6057 73.9377 53.6678 74.0913C53.7317 74.2525 53.7637 74.4174 53.7637 74.6066C53.7637 74.7958 53.7317 74.9738 53.6678 75.1331C53.6095 75.2905 53.5192 75.4292 53.4045 75.5453C53.2917 75.6596 53.1581 75.7496 53.0096 75.8133C52.8629 75.877 52.6974 75.9107 52.5112 75.9107C52.325 75.9107 52.1539 75.877 52.0072 75.8133C51.8567 75.7496 51.7251 75.6596 51.6122 75.5453C51.5013 75.431 51.4129 75.2961 51.349 75.1312C51.285 74.9682 51.253 74.7902 51.253 74.6085C51.253 74.4267 51.285 74.2543 51.349 74.0951C51.4148 73.9321 51.5032 73.7971 51.6122 73.6885C51.7213 73.576 51.8492 73.488 52.0072 73.4224C52.1539 73.3568 52.3269 73.3231 52.5112 73.3231C52.6955 73.3231 52.8629 73.3587 53.0096 73.4224ZM39.6288 78.7363V56.2814H62.1645V78.7363H39.6288ZM44.9397 76.1337C45.0469 76.248 45.1447 76.3829 45.2369 76.5403L45.235 76.5422H46.07L44.2778 72.6991H43.6948L41.8987 76.5422H42.7394L43.1174 75.6803C43.2152 75.6653 43.313 75.654 43.4033 75.6484C43.4954 75.639 43.5838 75.6372 43.6703 75.6372C43.8527 75.6372 44.022 75.6521 44.1743 75.6877C44.3266 75.7234 44.4658 75.7739 44.5937 75.8526C44.7197 75.9276 44.8325 76.0194 44.9397 76.1337ZM48.2365 76.5366L49.9893 72.7497L50.0137 72.6973H49.0696L47.9488 75.2549L46.8317 72.6973H45.8707L47.6121 76.5159L47.6234 76.5366H48.2365ZM54.0307 76.0906C54.2169 75.9126 54.3674 75.6896 54.4765 75.4348H54.4746C54.5855 75.1875 54.6382 74.9101 54.6382 74.6141C54.6382 74.318 54.5836 74.0445 54.4746 73.7953C54.3655 73.5404 54.2188 73.3268 54.0289 73.1413C53.8408 72.9615 53.6132 72.8153 53.3518 72.7085C53.0904 72.6073 52.8102 72.5549 52.5093 72.5549C52.2084 72.5549 51.9226 72.6073 51.6611 72.7085C51.3997 72.8153 51.1741 72.9615 50.9841 73.1413C50.7942 73.3268 50.6475 73.5404 50.5384 73.7953C50.4274 74.0445 50.3748 74.3162 50.3748 74.6141C50.3748 74.912 50.4293 75.1875 50.5384 75.4348C50.6475 75.6896 50.7979 75.9107 50.9841 76.0906C51.1703 76.2742 51.3979 76.4204 51.6611 76.5272C51.9226 76.6321 52.2122 76.6846 52.5093 76.6846C52.8064 76.6846 53.0923 76.6302 53.3556 76.5272C53.617 76.4204 53.8446 76.2742 54.0307 76.0906ZM58.5762 76.5384H59.2326V76.5366V72.6954H58.3807V75.0301L56.4098 72.7104L56.3985 72.6973H55.7402V76.5384H56.5922V74.2037L58.5631 76.5272L58.5762 76.5384ZM1.82422 76.1187C1.82422 74.5298 2.74197 73.5498 4.38189 73.5498C6.04249 73.5498 6.87373 74.5298 6.87373 76.1187V78.2098H5.75851V76.01C5.75851 74.7902 5.32221 74.0501 4.38189 74.0501C3.37575 74.0501 2.93944 74.7902 2.93944 76.01V78.2098H1.82422V76.1187ZM10.3698 73.5499C9.03646 73.5499 7.81216 74.4417 7.81216 76.0101C7.81216 77.4903 8.81831 78.3616 10.2156 78.3616C10.9585 78.3616 11.5264 78.0562 11.833 77.4903V78.208H12.9031V76.1394C12.9031 74.5504 12.0286 73.548 10.368 73.548L10.3698 73.5499ZM10.3698 77.8613C9.38626 77.8613 8.92738 77.2074 8.92738 76.0101C8.92738 74.9214 9.38626 74.0501 10.3698 74.0501C11.3534 74.0501 11.7897 74.9214 11.7897 76.0101C11.7897 77.0987 11.1992 77.8613 10.3698 77.8613ZM19.9423 77.8613C20.9033 77.8613 21.2963 77.1212 21.2963 75.9014V73.7016H22.4116V75.7927C22.4116 77.3816 21.5822 78.3616 19.9423 78.3616C18.3024 78.3616 17.5163 77.3816 17.5163 75.7927V73.7016H18.6315V75.9014C18.6315 77.1212 18.9813 77.8613 19.9423 77.8613ZM28.9881 73.5499C27.6548 73.5499 26.4305 74.4417 26.4305 76.0101C26.4305 77.4903 27.4366 78.3616 28.8339 78.3616C29.5768 78.3616 30.1447 78.0562 30.4513 77.4903V78.208H31.5214V76.1394C31.5214 74.5504 30.6469 73.548 28.9863 73.548L28.9881 73.5499ZM28.9881 77.8613C28.0046 77.8613 27.5457 77.2074 27.5457 76.0101C27.5457 74.9214 28.0046 74.0501 28.9881 74.0501C29.9717 74.0501 30.408 74.9214 30.408 76.0101C30.408 77.0987 29.8175 77.8613 28.9881 77.8613ZM23.6133 78.2098V75.6409L23.6152 75.6428C23.6152 74.1607 24.4031 73.5517 25.4732 73.5517C25.7121 73.5517 25.9528 73.5723 26.1935 73.6379V74.0951C26.0619 74.0726 25.9302 74.0726 25.8212 74.0726C24.926 74.0726 24.7285 74.6385 24.7285 75.5098V78.2098H23.6133ZM16.0929 77.8388C15.5466 77.8381 15.22 77.4892 15.22 76.4241V74.2243H16.685V73.7016H15.22V72.5698H14.1048V76.2498C14.1048 77.8613 14.9793 78.3615 15.9177 78.3615C16.3766 78.3615 16.7922 78.2304 17.0969 78.013C16.9878 77.9044 16.8994 77.7732 16.8562 77.642C16.6385 77.7729 16.3984 77.8385 16.0929 77.8388ZM20.3636 64.8257C20.5965 64.4157 20.9215 63.6372 20.9221 62.9967C20.921 61.3605 19.6165 60.651 18.5619 60.651C16.7715 60.651 16.1509 61.9739 15.8933 63.0175C15.8536 63.1765 15.8296 63.275 15.8077 63.365C15.7859 63.4543 15.7662 63.5352 15.7353 63.6583C15.6732 63.9057 15.6563 63.9713 15.5886 63.9713C15.5382 63.9713 15.4958 63.9152 15.4704 63.8816L15.4645 63.8738L15.4085 63.8019L15.3388 63.7121C14.4888 62.617 13.5115 61.3577 11.9402 61.6666C11.045 61.8427 10.3717 62.5472 10.3717 63.4766C10.3717 64.1961 10.8325 65.0543 11.9364 65.9893C11.9891 66.0324 12.0154 66.0698 12.0154 66.1036C12.0154 66.1279 11.9985 66.1523 11.9533 66.1523C11.8887 66.1523 11.7419 66.1172 11.5523 66.072C11.2068 65.9895 10.7194 65.8731 10.3285 65.8731C9.97867 65.8731 9.73795 66.0492 9.73795 66.3903C9.73795 67.6232 11.6806 68.5376 13.4033 69.0004L13.4052 69.0008C13.421 69.0047 13.4522 69.0124 13.4522 69.0322C13.4522 69.0476 13.4233 69.0645 13.3838 69.0876C13.2982 69.1376 13.1626 69.2169 13.1626 69.3733C13.1626 69.8417 14.5449 70.3457 15.7786 70.3457C16.8487 70.3457 17.31 69.955 17.3504 69.9207L17.3508 69.9204C17.379 69.8942 17.3997 69.8867 17.426 69.8867C17.4426 69.8867 17.4767 69.8942 17.5283 69.9055C17.6874 69.9406 18.0126 70.0122 18.4998 70.0122C19.4044 70.0122 20.1322 69.763 20.6776 69.4594C21.2757 69.1278 21.5032 68.8186 21.5032 68.6331C21.5032 68.4267 21.2957 68.3705 21.1251 68.3243C21.0062 68.2921 20.9052 68.2647 20.9052 68.1947C20.9052 68.1272 20.9578 68.0748 21.1609 67.9679C21.2293 67.9315 21.3102 67.8887 21.3888 67.8472L21.3916 67.8457C21.4938 67.7918 21.5915 67.7402 21.6518 67.7075C23.1563 66.9055 23.6077 65.8057 23.6077 65.1442C23.6077 64.4828 23.1243 64.2017 22.594 64.2017C21.9553 64.2017 21.1236 64.6961 20.6371 64.9852C20.436 65.1047 20.2939 65.1892 20.2488 65.1892C20.2187 65.1892 20.2037 65.1667 20.2037 65.1424C20.2037 65.1108 20.2288 65.0659 20.3237 64.8968L20.3636 64.8257ZM14.9661 64.7301C15.3058 65.1546 15.4825 65.3402 15.814 65.341C16.067 65.3402 16.2434 65.1546 16.3766 64.7582C16.4198 64.6312 16.5174 64.3375 16.6064 64.0696L16.607 64.0679L16.6071 64.0674L16.6072 64.0671C16.6767 63.858 16.7408 63.665 16.7697 63.5797C17.0104 62.8695 17.4185 61.9757 18.3701 61.9757C19.2201 61.9757 19.8671 62.5416 19.8671 63.3735C19.8671 63.8777 19.673 64.3869 19.5006 64.8389L19.4721 64.9138C19.4171 65.0604 19.3706 65.1819 19.3259 65.2991L19.3258 65.2994C19.2727 65.4382 19.222 65.5711 19.1618 65.7326C19.1336 65.8094 19.1242 65.8806 19.1242 65.9424C19.1261 66.0492 19.2258 66.231 19.4383 66.231C19.7256 66.231 20.0232 66.0807 20.796 65.6903L20.9089 65.6333L20.9682 65.6033C21.4065 65.3819 21.8546 65.1555 22.2649 65.1555C22.5902 65.1555 22.7896 65.3897 22.7877 65.7363C22.7839 66.276 22.2912 67.0236 21.0161 67.6344C20.7829 67.7468 20.5554 67.848 20.2394 67.9848C19.9423 68.1122 19.8426 68.2022 19.8426 68.3296C19.8426 68.457 19.9611 68.5394 20.1661 68.6069C20.2345 68.6292 20.2964 68.6485 20.3518 68.6658C20.6131 68.7474 20.7322 68.7846 20.7322 68.8805C20.7322 69.1765 19.632 69.7218 18.5845 69.7218C18.0373 69.7218 17.7307 69.6507 17.5071 69.5988L17.507 69.5988C17.3786 69.5691 17.2775 69.5456 17.174 69.5456C17.0405 69.5456 16.9239 69.5981 16.7226 69.7368C16.4857 69.8979 16.1735 70.0834 15.5397 70.0834C15.1843 70.0834 13.9412 69.9129 13.9412 69.5306C13.9412 69.382 14.0733 69.2948 14.1879 69.2191C14.2756 69.1612 14.353 69.1101 14.353 69.0435C14.353 69.0023 14.3248 68.8842 13.992 68.8093C11.3478 68.2153 10.5071 67.3328 10.5071 66.9037C10.5071 66.7369 10.6538 66.6395 10.8814 66.6395C11.1512 66.6395 11.694 66.7629 12.1827 66.8741C12.5828 66.9652 12.9467 67.0479 13.0949 67.0479C13.424 67.0479 13.4372 66.8549 13.4372 66.8119C13.439 66.7332 13.3995 66.6451 13.3262 66.5608C13.3142 66.5469 13.2819 66.5106 13.2339 66.4567L13.232 66.4545C12.9932 66.1862 12.3741 65.4905 11.9232 64.9419C11.4963 64.4228 11.4832 63.9844 11.4832 63.8813C11.4832 63.1 12.1019 62.8695 12.5138 62.8695C13.1964 62.8695 13.7926 63.3173 14.6163 64.3067C14.6765 64.3779 14.9116 64.6627 14.9661 64.7301ZM19.7542 6.00342C15.7127 6.00342 13.0554 8.72034 13.0554 12.3929C13.0554 16.0654 15.7127 18.8029 19.7542 18.8029C23.7957 18.8029 26.4305 16.0635 26.4305 12.3929C26.4305 8.72221 23.7995 6.00342 19.7542 6.00342ZM19.7542 17.1128C16.858 17.1128 15.0639 14.9899 15.0639 12.3929C15.0639 9.79587 16.8599 7.6954 19.7542 7.6954C22.6485 7.6954 24.4445 9.81835 24.4445 12.3929C24.4445 14.9674 22.6485 17.1128 19.7542 17.1128ZM30.8406 9.05385C31.6079 7.3375 33.1387 6.0034 35.6042 6.0034V6.00153C38.5926 6.00153 40.2457 7.83592 40.2457 10.7215V18.5181H38.2353V11.0794C38.2353 8.96016 37.0881 7.71974 34.8858 7.71974C33.2346 7.71974 31.8242 8.62476 30.8406 9.93825V18.52H28.8321V6.29008H30.8406V9.05385ZM49.7072 11.3679L46.4273 10.892C45.1128 10.7234 44.4433 10.3186 44.4433 9.41362C44.4433 8.19569 45.7578 7.57736 47.8886 7.57736C50.0193 7.57736 51.4768 8.29125 52.5526 9.17566V7.21573C51.6179 6.52244 49.6601 6.00342 47.8416 6.00342C44.6106 6.00342 42.5288 7.26819 42.5288 9.50918C42.5288 11.2724 43.7512 12.2729 46.07 12.6327L49.5153 13.1574C50.8807 13.3466 51.5991 13.993 51.5991 14.943C51.5991 16.4458 50.1623 17.2103 48.0578 17.2103C45.9534 17.2103 44.0859 16.517 42.4818 15.3253V17.2889C43.7042 18.0516 45.7823 18.8029 48.0315 18.8029C51.1421 18.8029 53.5117 17.3733 53.5117 14.7987C53.5117 12.8444 52.1971 11.7221 49.709 11.3661L49.7072 11.3679ZM65.0532 14.8962V6.2901H67.0617V18.5181H65.0513V15.7525C64.2877 17.4463 62.802 18.8029 60.3873 18.8029C57.3256 18.8029 55.7459 16.9442 55.7459 14.083V6.2901H57.7563V13.7513C57.7563 15.8274 58.8564 17.0885 61.0831 17.0885C62.7343 17.0885 64.0978 16.1834 65.0532 14.8962ZM86.5526 12.3929C86.5526 8.72034 89.2081 6.00342 93.2533 6.00342C97.2967 6.00342 99.9296 8.72221 99.9296 12.3929C99.9296 16.0635 97.2967 18.8029 93.2533 18.8029C89.2099 18.8029 86.5526 16.0654 86.5526 12.3929ZM88.563 12.3929C88.563 14.9899 90.3571 17.1128 93.2533 17.1128C96.1495 17.1128 97.9417 14.9674 97.9417 12.3929C97.9417 9.81835 96.1476 7.6954 93.2533 7.6954C90.359 7.6954 88.563 9.79587 88.563 12.3929ZM104.342 11.0794V6.29008H102.331V18.52H104.342V11.9638C105.769 10.2212 107.977 9.12318 109.76 8.34745V6.05774C107.751 6.98899 105.44 8.55918 104.342 11.0812V11.0794ZM123.263 6.00342C121.141 6.00342 119.351 6.62175 118.104 7.71227V9.62348C119.449 8.38494 121.277 7.67479 123.024 7.67479C125.251 7.67479 125.991 8.65101 125.991 10.2006V10.343L121.038 11.441C118.262 12.0593 116.635 13.1311 116.635 15.1847C116.635 17.3995 117.997 18.8067 120.558 18.8067C123.12 18.8067 125.2 17.139 125.991 15.8031V18.5219H128V10.1294C128 7.36563 126.351 6.00716 123.263 6.00716V6.00342ZM125.991 14.7538C124.961 16.1347 123.142 17.2552 121.181 17.2552C119.458 17.2552 118.644 16.4439 118.644 15.1098C118.644 13.9181 119.674 13.2023 121.469 12.7264L125.991 11.5085V14.7519V14.7538ZM11.1748 23.2756V31.357C10.4563 29.5676 8.6641 28.1623 6.14969 28.1623C2.32259 28.1623 0 30.9523 0 34.5517C0 38.1512 2.32259 40.9655 6.14969 40.9655C8.68667 40.9655 10.4338 39.534 11.1748 37.7464V40.677H13.1852V22.8933L11.1748 23.2756ZM11.1748 36.6241C10.0746 38.3179 8.49484 39.2717 6.60668 39.2717C3.56569 39.2717 2.01228 37.0532 2.01228 34.5517C2.01228 32.0503 3.56569 29.8542 6.60668 29.8542C8.51929 29.8542 10.0765 30.808 11.1748 32.5018V36.6241ZM22.31 28.1622C26.2819 28.1622 28.5556 31.0009 28.5556 34.4074L28.5537 34.4093V34.8646H17.5952C17.7382 37.5084 19.6301 39.3203 22.9325 39.3203C24.9805 39.3203 26.7107 38.5596 27.9764 37.381V39.3972C26.9458 40.2516 25.0576 40.9655 22.8103 40.9655C18.1463 40.9655 15.5848 38.1755 15.5848 34.5517C15.5848 30.9279 18.3381 28.1622 22.31 28.1622ZM22.2874 29.6631C19.6545 29.6631 18.0748 31.2839 17.693 33.36H26.5941C26.233 31.357 24.9203 29.6631 22.2874 29.6631ZM41.9251 28.1623C39.437 28.1623 37.641 29.5676 36.9 31.357V22.8933L34.8915 23.2756V40.677H36.9V37.7464C37.6654 39.5321 39.4144 40.9655 41.9251 40.9655C45.754 40.9655 48.0748 38.1512 48.0748 34.5517C48.0748 30.9523 45.7559 28.1623 41.9251 28.1623ZM41.4944 39.2717C39.5799 39.2717 38.0265 38.3179 36.9 36.6241V32.5018C38.0265 30.808 39.5799 29.8542 41.4718 29.8542C44.5335 29.8542 46.0662 32.0728 46.0662 34.5517C46.0662 37.0307 44.5335 39.2717 41.4944 39.2717ZM96.3658 29.9966L87.9424 39.0337H96.4636V40.6769H85.4807V39.103L93.9022 30.0922H85.7421V28.4489H96.3658V29.9966ZM62.7531 34.4074C62.7531 31.0009 60.4795 28.1622 56.5075 28.1622C52.5356 28.1622 49.7824 30.9279 49.7824 34.5517C49.7824 38.1755 52.3438 40.9655 57.0078 40.9655C59.2552 40.9655 61.1433 40.2516 62.1739 39.3972V37.381C60.9082 38.5596 59.1781 39.3203 57.13 39.3203C53.8276 39.3203 51.9357 37.5084 51.7928 34.8646H62.7513V34.4093L62.7531 34.4074ZM51.8887 33.36C52.2705 31.2839 53.8502 29.6631 56.4831 29.6631C59.116 29.6631 60.4287 31.357 60.7898 33.36H51.8887ZM77.3807 28.1622C81.3526 28.1622 83.6263 31.0009 83.6263 34.4074L83.6245 34.4093V34.8646H72.666C72.8089 37.5084 74.7008 39.3203 78.0032 39.3203C80.0512 39.3203 81.7814 38.5596 83.0471 37.381V39.3972C82.0165 40.2516 80.1283 40.9655 77.881 40.9655C73.217 40.9655 70.6556 38.1755 70.6556 34.5517C70.6556 30.9279 73.4088 28.1622 77.3807 28.1622ZM77.3582 29.6631C74.7253 29.6631 73.1455 31.2839 72.7638 33.36H81.6648C81.3037 31.357 79.9911 29.6631 77.3582 29.6631ZM104.879 28.1622C102.758 28.1622 100.968 28.7806 99.7209 29.8711V31.7823C101.066 30.5438 102.893 29.8336 104.641 29.8336C106.867 29.8336 107.608 30.8098 107.608 32.3594V32.5018L102.655 33.5998C99.8788 34.2182 98.2521 35.2899 98.2521 37.3436C98.2521 39.5583 99.6137 40.9655 102.175 40.9655C104.737 40.9655 106.817 39.2979 107.608 37.9619V40.6807H109.617V32.2882C109.617 29.5244 107.967 28.166 104.879 28.166V28.1622ZM107.608 36.9126C106.578 38.2935 104.759 39.414 102.798 39.414C101.075 39.414 100.261 38.6027 100.261 37.2686C100.261 36.0769 101.291 35.3611 103.085 34.8852L107.608 33.6673V36.9107V36.9126ZM69.5272 40.8755V39.0449C69.309 39.0805 69.0664 39.103 68.7862 39.103C67.0577 39.103 67.0578 38.263 67.0579 36.5538V36.5041H67.056V22.8951L65.0475 23.2755V36.6278C65.0475 37.975 65.1867 39.0599 65.6813 39.8056C66.1759 40.5533 67.0316 40.9636 68.4533 40.9636C68.8633 40.9636 69.2169 40.9336 69.5272 40.8755Z" fill="black"/>
</svg>
