<svg width="93" height="56" viewBox="0 0 93 56" fill="none" xmlns="http://www.w3.org/2000/svg">
<path d="M31.9684 52.4015L31.5607 53.327C31.6471 53.3189 31.7254 53.3149 31.7983 53.3149C31.9482 53.3149 32.0778 53.3283 32.1858 53.3566C32.2952 53.3848 32.3857 53.4252 32.4572 53.4763L31.9684 52.4001V52.4015ZM38.9152 52.6665C38.8707 52.5562 38.8086 52.458 38.7262 52.3759C38.6479 52.2952 38.5561 52.2333 38.4427 52.1849C38.3373 52.1391 38.2172 52.1136 38.0849 52.1136C37.9525 52.1136 37.8283 52.1378 37.723 52.1849C37.6096 52.232 37.5178 52.2952 37.4395 52.3759C37.3612 52.4539 37.2977 52.5508 37.2504 52.6678C37.2045 52.7822 37.1816 52.9059 37.1816 53.0364C37.1816 53.1669 37.2045 53.2947 37.2504 53.4117C37.2963 53.5301 37.3598 53.627 37.4395 53.709C37.5205 53.7911 37.615 53.8557 37.723 53.9014C37.8283 53.9471 37.9512 53.9714 38.0849 53.9714C38.2185 53.9714 38.3373 53.9471 38.4427 53.9014C38.5493 53.8557 38.6452 53.7911 38.7262 53.709C38.8086 53.6256 38.8734 53.5261 38.9152 53.4131C38.9611 53.2987 38.9841 53.1709 38.9841 53.0351C38.9841 52.8992 38.9611 52.7808 38.9152 52.6651V52.6665ZM38.9152 52.6665C38.8707 52.5562 38.8086 52.458 38.7262 52.3759C38.6479 52.2952 38.5561 52.2333 38.4427 52.1849C38.3373 52.1391 38.2172 52.1136 38.0849 52.1136C37.9525 52.1136 37.8283 52.1378 37.723 52.1849C37.6096 52.232 37.5178 52.2952 37.4395 52.3759C37.3612 52.4539 37.2977 52.5508 37.2504 52.6678C37.2045 52.7822 37.1816 52.9059 37.1816 53.0364C37.1816 53.1669 37.2045 53.2947 37.2504 53.4117C37.2963 53.5301 37.3598 53.627 37.4395 53.709C37.5205 53.7911 37.615 53.8557 37.723 53.9014C37.8283 53.9471 37.9512 53.9714 38.0849 53.9714C38.2185 53.9714 38.3373 53.9471 38.4427 53.9014C38.5493 53.8557 38.6452 53.7911 38.7262 53.709C38.8086 53.6256 38.8734 53.5261 38.9152 53.4131C38.9611 53.2987 38.9841 53.1709 38.9841 53.0351C38.9841 52.8992 38.9611 52.7808 38.9152 52.6651V52.6665ZM28.836 39.8785V56H45.0154V39.8785H28.836ZM32.8623 54.4234C32.7961 54.3104 32.7259 54.2135 32.6489 54.1315C32.572 54.0494 32.491 53.9835 32.4005 53.9297C32.3087 53.8732 32.2088 53.8368 32.0994 53.8113C31.99 53.7857 31.8685 53.775 31.7376 53.775C31.6755 53.775 31.612 53.7763 31.5458 53.783C31.481 53.7871 31.4108 53.7951 31.3406 53.8059L31.0692 54.4247H30.4657L31.7551 51.6656H32.1737L33.4604 54.4247H32.8609L32.8623 54.4234ZM36.2742 51.7033L35.0159 54.422H34.5757L34.5676 54.4072L33.3173 51.6656H34.0073L34.8093 53.5019L35.614 51.6656H36.2918L36.2742 51.7033ZM39.4958 53.6297C39.4175 53.8126 39.3095 53.9727 39.1758 54.1005C39.0421 54.2323 38.8788 54.3373 38.6911 54.4139C38.5021 54.4879 38.2968 54.527 38.0835 54.527C37.8702 54.527 37.6622 54.4893 37.4746 54.4139C37.2855 54.3373 37.1222 54.2323 36.9885 54.1005C36.8548 53.9714 36.7468 53.8126 36.6685 53.6297C36.5902 53.4521 36.551 53.2543 36.551 53.0405C36.551 52.8266 36.5888 52.6315 36.6685 52.4526C36.7468 52.2696 36.8521 52.1163 36.9885 51.9831C37.1249 51.8539 37.2869 51.749 37.4746 51.6723C37.6622 51.5997 37.8675 51.562 38.0835 51.562C38.2995 51.562 38.5007 51.5997 38.6884 51.6723C38.8761 51.749 39.0395 51.8539 39.1745 51.9831C39.3108 52.1163 39.4162 52.2696 39.4945 52.4526C39.5728 52.6315 39.6119 52.8279 39.6119 53.0405C39.6119 53.253 39.5741 53.4521 39.4945 53.6297H39.4958ZM42.9105 54.422H42.4393L42.4298 54.4139L41.0148 52.7458V54.422H40.4032V51.6643H40.8757L40.8838 51.6737L42.2988 53.3391V51.6629H42.9105V54.422ZM38.7262 52.3759C38.6479 52.2952 38.5561 52.2333 38.4427 52.1849C38.3373 52.1391 38.2172 52.1136 38.0849 52.1136C37.9525 52.1136 37.8283 52.1378 37.723 52.1849C37.6096 52.232 37.5178 52.2952 37.4395 52.3759C37.3612 52.4539 37.2977 52.5508 37.2504 52.6678C37.2045 52.7822 37.1816 52.9059 37.1816 53.0364C37.1816 53.1669 37.2045 53.2947 37.2504 53.4117C37.2963 53.5301 37.3598 53.627 37.4395 53.709C37.5205 53.7911 37.615 53.8557 37.723 53.9014C37.8283 53.9471 37.9512 53.9714 38.0849 53.9714C38.2185 53.9714 38.3373 53.9471 38.4427 53.9014C38.5493 53.8557 38.6452 53.7911 38.7262 53.709C38.8086 53.6256 38.8734 53.5261 38.9152 53.4131C38.9611 53.2987 38.9841 53.1709 38.9841 53.0351C38.9841 52.8992 38.9611 52.7808 38.9152 52.6651C38.8707 52.5548 38.8086 52.4566 38.7262 52.3746V52.3759Z" fill="white"/>
<path d="M3.53049 52.2764C2.35312 52.2764 1.69422 52.9799 1.69422 54.1207V55.622H2.49489V54.0427C2.49489 53.1669 2.80813 52.6355 3.53049 52.6355C4.20559 52.6355 4.51884 53.1669 4.51884 54.0427V55.622H5.31951V54.1207C5.31951 52.9799 4.72272 52.2764 3.53049 52.2764Z" fill="white"/>
<path d="M7.82953 52.2764C6.87224 52.2764 5.99326 52.9167 5.99326 54.0427C5.99326 55.1054 6.71562 55.731 7.71882 55.731C8.25215 55.731 8.65991 55.5117 8.87999 55.1054V55.6206H9.64826V54.1355C9.64826 52.9947 9.02041 52.275 7.82818 52.275L7.82953 52.2764ZM7.82953 55.3718C7.12338 55.3718 6.79393 54.9023 6.79393 54.0427C6.79393 53.2611 7.12338 52.6355 7.82953 52.6355C8.53569 52.6355 8.84894 53.2611 8.84894 54.0427C8.84894 54.8243 8.42497 55.3718 7.82953 55.3718Z" fill="white"/>
<path d="M15.6742 53.9646C15.6742 54.8404 15.392 55.3718 14.7021 55.3718C14.0121 55.3718 13.761 54.8404 13.761 53.9646V52.3853H12.9603V53.8866C12.9603 55.0274 13.5247 55.731 14.7021 55.731C15.8794 55.731 16.4749 55.0274 16.4749 53.8866V52.3853H15.6742V53.9646Z" fill="white"/>
<path d="M21.1965 52.2764C20.2392 52.2764 19.3603 52.9167 19.3603 54.0427C19.3603 55.1054 20.0826 55.731 21.0858 55.731C21.6191 55.731 22.0269 55.5117 22.247 55.1054V55.6206H23.0153V54.1355C23.0153 52.9947 22.3874 52.275 21.1952 52.275L21.1965 52.2764ZM21.1965 55.3718C20.4904 55.3718 20.1609 54.9023 20.1609 54.0427C20.1609 53.2611 20.4904 52.6355 21.1965 52.6355C21.9027 52.6355 22.2159 53.2611 22.2159 54.0427C22.2159 54.8243 21.792 55.3718 21.1965 55.3718Z" fill="white"/>
<path d="M17.3377 53.7777V55.622H18.1383V53.6835C18.1383 53.0579 18.2801 52.6517 18.9228 52.6517C19.0011 52.6517 19.0956 52.6517 19.1901 52.6678V52.3396C19.0173 52.2925 18.8445 52.2777 18.673 52.2777C17.9047 52.2777 17.339 52.7149 17.339 53.779L17.3377 53.7777Z" fill="white"/>
<path d="M11.9395 55.357C11.5466 55.357 11.3117 55.1068 11.3117 54.3413V52.762H12.3635V52.3867H11.3117V51.5741H10.511V54.2162C10.511 55.3731 11.1389 55.7323 11.8126 55.7323C12.1421 55.7323 12.4405 55.6381 12.6592 55.4821C12.5809 55.4041 12.5174 55.3099 12.4864 55.2157C12.3298 55.3099 12.1569 55.357 11.9368 55.357H11.9395Z" fill="white"/>
<path d="M15.4055 44.6999C15.4055 45.16 15.1719 45.7196 15.0045 46.0142C14.9127 46.1783 14.8897 46.216 14.8897 46.2416C14.8897 46.2591 14.9005 46.2752 14.9221 46.2752C15.0329 46.2752 15.9577 45.5663 16.6058 45.5663C16.9866 45.5663 17.3336 45.768 17.3336 46.2429C17.3336 46.7178 17.0096 47.5074 15.9294 48.0832C15.8524 48.1249 15.6904 48.2097 15.577 48.2702C15.4312 48.3469 15.3934 48.3845 15.3934 48.433C15.3934 48.5554 15.8227 48.4962 15.8227 48.7478C15.8227 48.8809 15.6594 49.1029 15.23 49.341C14.8384 49.559 14.3159 49.7379 13.6665 49.7379C13.2033 49.7379 12.9441 49.6477 12.8955 49.6477C12.8766 49.6477 12.8617 49.6531 12.8415 49.672C12.8145 49.6948 12.4837 49.9773 11.7127 49.9773C10.827 49.9773 9.83458 49.6155 9.83458 49.2791C9.83458 49.115 10.0425 49.0693 10.0425 49.0343C10.0425 49.0195 10.0182 49.0141 10.0074 49.0114C8.77062 48.6792 7.37587 48.0227 7.37587 47.1375C7.37587 46.8927 7.54869 46.7662 7.79983 46.7662C8.23459 46.7662 8.83543 46.9667 8.9664 46.9667C8.99881 46.9667 9.01096 46.9492 9.01096 46.9317C9.01096 46.9075 8.99206 46.8806 8.95425 46.8496C8.16168 46.1783 7.83088 45.5622 7.83088 45.0456C7.83088 44.3784 8.31426 43.8726 8.95695 43.7461C10.1411 43.5134 10.8553 44.521 11.4872 45.3308C11.5048 45.3537 11.5372 45.4008 11.5763 45.4008C11.625 45.4008 11.6371 45.3537 11.6817 45.1761C11.7262 44.9986 11.7384 44.9434 11.7951 44.7161C11.9801 43.9668 12.4256 43.017 13.711 43.017C14.4685 43.017 15.4055 43.5269 15.4055 44.7026V44.6999ZM11.7397 46.3828C11.5007 46.3828 11.3738 46.2496 11.1294 45.9443C11.0903 45.8958 10.9215 45.6914 10.8783 45.6402C10.2869 44.9299 9.85889 44.6084 9.36876 44.6084C9.07307 44.6084 8.62885 44.7739 8.62885 45.3349C8.62885 45.4089 8.63831 45.7237 8.9448 46.0963C9.33501 46.5712 9.90074 47.1994 9.95205 47.2586C10.0047 47.3191 10.0331 47.3823 10.0317 47.4388C10.0317 47.4698 10.0223 47.6083 9.78598 47.6083C9.54969 47.6083 8.54919 47.3151 8.19679 47.3151C8.03342 47.3151 7.9281 47.385 7.9281 47.5048C7.9281 47.8128 8.53164 48.4464 10.43 48.8729C10.669 48.9267 10.6893 49.0114 10.6893 49.041C10.6893 49.1513 10.3936 49.2025 10.3936 49.3908C10.3936 49.6652 11.2861 49.7876 11.5412 49.7876C11.9963 49.7876 12.2204 49.6545 12.3905 49.5388C12.535 49.4392 12.6187 49.4016 12.7146 49.4016C12.9184 49.4016 13.1088 49.528 13.7272 49.528C14.4793 49.528 15.2691 49.1365 15.2691 48.924C15.2691 48.8406 15.1436 48.8191 14.8627 48.7276C14.7156 48.6792 14.6305 48.62 14.6305 48.5285C14.6305 48.437 14.7021 48.3724 14.9154 48.281C15.1422 48.1828 15.3056 48.1101 15.473 48.0294C16.3885 47.5909 16.7422 47.0541 16.7449 46.6667C16.7463 46.4178 16.6031 46.2496 16.3696 46.2496C16.0617 46.2496 15.7242 46.4272 15.3961 46.5927C14.7804 46.9034 14.5562 47.0218 14.3402 47.0218C14.1876 47.0218 14.1161 46.8913 14.1147 46.8146C14.1147 46.7703 14.1215 46.7191 14.1417 46.664C14.2214 46.4501 14.2781 46.3061 14.3645 46.0761C14.4928 45.7384 14.6481 45.3524 14.6481 44.9703C14.6481 44.373 14.1836 43.9668 13.5733 43.9668C12.8901 43.9668 12.5971 44.6084 12.4243 45.1183C12.377 45.2582 12.1974 45.8017 12.1421 45.9644C12.0462 46.2496 11.9193 46.3828 11.737 46.3828H11.7397Z" fill="white"/>
<path d="M1.20679 41.2144H0.384521C0.384521 37.6158 3.32391 34.6872 6.9357 34.6872H46.3265V35.5065H6.9357C3.77623 35.5065 1.20679 38.0665 1.20679 41.2144Z" fill="white"/>
<path d="M5.36542 11.7575C3.21994 11.7575 1.82789 10.2172 1.82789 8.36879C1.82789 6.52042 3.25235 4.99625 5.38432 4.99625C6.68456 4.99625 7.67021 5.47112 8.45198 6.28769V4.80119C7.79578 4.1474 6.72102 3.78015 5.16018 3.78015C2.36122 3.78149 0.384521 5.76708 0.384521 8.36879C0.384521 10.9705 2.36122 12.9709 5.17774 12.9709C6.6346 12.9709 7.84169 12.5888 8.59915 11.9377V10.4647C7.74177 11.3216 6.62245 11.7588 5.36542 11.7588V11.7575Z" fill="white"/>
<path d="M14.567 3.78149C11.6655 3.78149 9.75762 5.7321 9.75762 8.36879C9.75762 11.0055 11.6655 12.9709 14.567 12.9709C17.4686 12.9709 19.3603 11.0041 19.3603 8.36879C19.3603 5.73345 17.4713 3.78149 14.567 3.78149ZM14.567 11.7575C12.4877 11.7575 11.1996 10.2333 11.1996 8.36879C11.1996 6.50428 12.4891 4.99625 14.567 4.99625C16.645 4.99625 17.9344 6.52042 17.9344 8.36879C17.9344 10.2172 16.645 11.7575 14.567 11.7575Z" fill="white"/>
<path d="M25.9465 3.78149C24.1764 3.78149 23.0774 4.73931 22.5265 5.97156V3.98731H21.0845V12.7678H22.5265V6.60651C23.2326 5.66349 24.2453 5.01374 25.4308 5.01374C27.0118 5.01374 27.8355 5.90429 27.8355 7.42577V12.7664H29.2788V7.16883C29.2788 5.09714 28.092 3.78015 25.9465 3.78015V3.78149Z" fill="white"/>
<path d="M36.0717 7.63294L33.7169 7.29125C32.7732 7.17018 32.2925 6.8796 32.2925 6.22985C32.2925 5.35544 33.2363 4.9115 34.7661 4.9115C36.2958 4.9115 37.3422 5.42404 38.1146 6.059V4.65187C37.4435 4.15413 36.0379 3.78149 34.7323 3.78149C32.4127 3.78149 30.918 4.68954 30.918 6.29845C30.918 7.56433 31.7956 8.2827 33.4604 8.54098L35.934 8.91765C36.9142 9.05352 37.43 9.51763 37.43 10.1997C37.43 11.2786 36.3984 11.8274 34.8876 11.8274C33.3767 11.8274 32.0359 11.3297 30.8842 10.4741V11.8839C31.7619 12.4314 33.2538 12.9709 34.8687 12.9709C37.1019 12.9709 38.8032 11.9445 38.8032 10.0961C38.8032 8.693 37.8594 7.88719 36.0731 7.6316L36.0717 7.63294Z" fill="white"/>
<path d="M47.0893 3.98732V10.166C46.4034 11.0902 45.4245 11.74 44.2391 11.74C42.6404 11.74 41.8506 10.8346 41.8506 9.34409V3.98732H40.4072V9.5822C40.4072 11.6364 41.5414 12.9709 43.7395 12.9709C45.4732 12.9709 46.5398 11.9969 47.088 10.7808V12.7664H48.5314V3.98732H47.088H47.0893Z" fill="white"/>
<path d="M61.6945 5.21956V3.98731H57.9315V1.06005L56.4881 1.34928V3.98597H54.2711V5.21822H56.4881V9.823C56.4881 11.7575 57.4508 12.9373 59.495 12.9373C60.2984 12.9373 60.9978 12.7678 61.3785 12.5471V11.2947C60.9451 11.5247 60.3969 11.6875 59.7353 11.6875C58.4824 11.6875 57.9328 10.9866 57.9328 9.73556V5.21822H61.6958L61.6945 5.21956Z" fill="white"/>
<path d="M67.3356 3.78149C64.4313 3.78149 62.5249 5.7321 62.5249 8.36879C62.5249 11.0055 64.4327 12.9709 67.3356 12.9709C70.2385 12.9709 72.1288 11.0041 72.1288 8.36879C72.1288 5.73345 70.2385 3.78149 67.3356 3.78149ZM67.3356 11.7575C65.2563 11.7575 63.9682 10.2333 63.9682 8.36879C63.9682 6.50428 65.2577 4.99625 67.3356 4.99625C69.4136 4.99625 70.7017 6.52042 70.7017 8.36879C70.7017 10.2172 69.4149 11.7575 67.3356 11.7575Z" fill="white"/>
<path d="M75.2964 3.98732H73.8531V12.7678H75.2964V8.06073C76.3212 6.80965 77.9064 6.02133 79.1863 5.4644V3.8205C77.7443 4.48909 76.0849 5.61641 75.2964 7.42712V3.98732Z" fill="white"/>
<path d="M80.7823 3.98732V12.7678H82.2256V3.98732H80.7823Z" fill="white"/>
<path d="M88.8808 3.78149C87.3578 3.78149 86.0724 4.22543 85.1772 5.00836V6.38051C86.1426 5.49131 87.455 4.98146 88.7093 4.98146C90.308 4.98146 90.84 5.68233 90.84 6.79485V6.89709L87.2835 7.68541C85.2906 8.12934 84.1227 8.89882 84.1227 10.3732C84.1227 11.9633 85.1002 12.9736 86.9392 12.9736C88.7782 12.9736 90.2715 11.7763 90.84 10.8171V12.7691H92.282V6.74373C92.282 4.75949 91.0978 3.78418 88.8808 3.78418V3.78149ZM90.84 10.0638C90.1 11.0553 88.7944 11.8597 87.3861 11.8597C86.1493 11.8597 85.5647 11.2772 85.5647 10.3194C85.5647 9.46382 86.3046 8.94994 87.5927 8.60825L90.84 7.73383V10.0638Z" fill="white"/>
<path d="M54.0051 11.6458V12.909C53.7823 12.9507 53.5285 12.9722 53.2341 12.9722C52.2134 12.9722 51.599 12.6776 51.2439 12.1409C50.8888 11.6055 50.7889 10.8266 50.7889 9.85933V0.273085L52.2309 0V9.77054H52.2323C52.2323 11.0216 52.2201 11.6875 53.4731 11.6875C53.6743 11.6875 53.8485 11.6714 54.0051 11.6458Z" fill="white"/>
<path d="M82.0825 2.88153H81.0226L81.7922 0.461425H83.5704L82.0825 2.88153Z" fill="white"/>
<path d="M8.40742 16.182V21.984C7.89164 20.6993 6.6049 19.6904 4.79968 19.6904C2.05202 19.6904 0.384521 21.6935 0.384521 24.2777C0.384521 26.8619 2.05202 28.8825 4.79968 28.8825C6.6211 28.8825 7.87544 27.8547 8.40742 26.5713V28.6753H9.85079V15.9076L8.40742 16.182ZM8.40742 25.7655C7.61755 26.9816 6.48338 27.6664 5.12778 27.6664C2.9445 27.6664 1.82924 26.0736 1.82924 24.2777C1.82924 22.4818 2.9445 20.9052 5.12778 20.9052C6.50094 20.9052 7.6189 21.5899 8.40742 22.806V25.7655Z" fill="white"/>
<path d="M20.886 24.1741C20.886 21.7285 19.2536 19.6904 16.402 19.6904C13.5503 19.6904 11.5736 21.676 11.5736 24.2777C11.5736 26.8794 13.4126 28.8825 16.7611 28.8825C18.3746 28.8825 19.7302 28.3699 20.4701 27.7565V26.309C19.5614 27.1552 18.3193 27.7014 16.8489 27.7014C14.4779 27.7014 13.1196 26.4005 13.017 24.5024H20.8846V24.1755L20.886 24.1741ZM13.0872 23.4221C13.3613 21.9316 14.4955 20.7679 16.3858 20.7679C18.276 20.7679 19.2185 21.9841 19.4777 23.4221H13.0872Z" fill="white"/>
<path d="M30.4846 19.6904C28.6982 19.6904 27.4088 20.6993 26.8768 21.984V15.9076L25.4348 16.182V28.6753H26.8768V26.5713C27.4264 27.8534 28.682 28.8825 30.4846 28.8825C33.2336 28.8825 34.8997 26.8619 34.8997 24.2777C34.8997 21.6935 33.2349 19.6904 30.4846 19.6904ZM30.1754 27.6664C28.8009 27.6664 27.6856 26.9816 26.8768 25.7655V22.806C27.6856 21.5899 28.8009 20.9052 30.1592 20.9052C32.3573 20.9052 33.4577 22.4979 33.4577 24.2777C33.4577 26.0575 32.3573 27.6664 30.1754 27.6664Z" fill="white"/>
<path d="M67.7758 27.4955L73.8233 21.0074V19.8962H66.1961V21.076H72.0546L66.0084 27.5453V28.6753H73.8936V27.4955H67.7758Z" fill="white"/>
<path d="M45.4381 24.1741C45.4381 21.7285 43.8057 19.6904 40.954 19.6904C38.1024 19.6904 36.1257 21.676 36.1257 24.2777C36.1257 26.8794 37.9647 28.8825 41.3132 28.8825C42.9267 28.8825 44.2823 28.3699 45.0222 27.7565V26.309C44.1135 27.1552 42.8713 27.7014 41.401 27.7014C39.03 27.7014 37.6717 26.4005 37.5691 24.5024H45.4367V24.1755L45.4381 24.1741ZM37.6379 23.4221C37.912 21.9316 39.0462 20.7679 40.9365 20.7679C42.8268 20.7679 43.7692 21.9841 44.0284 23.4221H37.6379Z" fill="white"/>
<path d="M64.6771 24.1741C64.6771 21.7285 63.0447 19.6904 60.1931 19.6904C57.3414 19.6904 55.3647 21.676 55.3647 24.2777C55.3647 26.8794 57.2037 28.8825 60.5522 28.8825C62.1657 28.8825 63.5213 28.3699 64.2612 27.7565V26.309C63.3525 27.1552 62.1103 27.7014 60.64 27.7014C58.269 27.7014 56.9107 26.4005 56.8081 24.5024H64.6757V24.1755L64.6771 24.1741ZM56.8783 23.4221C57.1524 21.9316 58.2866 20.7679 60.1769 20.7679C62.0671 20.7679 63.0096 21.9841 63.2688 23.4221H56.8783Z" fill="white"/>
<path d="M79.9357 19.6904C78.4127 19.6904 77.1273 20.1343 76.2321 20.9173V22.2894C77.1975 21.4002 78.5099 20.8904 79.7642 20.8904C81.3629 20.8904 81.8949 21.5912 81.8949 22.7038V22.806L78.3384 23.5943C76.3455 24.0382 75.1776 24.8077 75.1776 26.2821C75.1776 27.8722 76.1552 28.8825 77.9941 28.8825C79.8331 28.8825 81.3264 27.6852 81.8949 26.726V28.678H83.3369V22.6526C83.3369 20.6684 82.1527 19.6931 79.9357 19.6931V19.6904ZM81.8949 25.9727C81.1549 26.9642 79.8493 27.7686 78.441 27.7686C77.2043 27.7686 76.6196 27.1861 76.6196 26.2283C76.6196 25.3727 77.3595 24.8588 78.6476 24.5172L81.8949 23.6427V25.9727Z" fill="white"/>
<path d="M54.6896 27.5036V28.8179C54.4669 28.8596 54.213 28.8811 53.9187 28.8811C52.8979 28.8811 52.2836 28.5865 51.9285 28.0498C51.5734 27.5144 51.4735 26.7355 51.4735 25.7682V16.182L52.9155 15.9089V25.6795H52.9168C52.9168 26.9305 52.9047 27.5453 54.1577 27.5453C54.3588 27.5453 54.533 27.5292 54.6896 27.5036Z" fill="white"/>
<path d="M50.3015 27.5036V28.8179C50.0787 28.8596 49.8249 28.8811 49.5305 28.8811C48.5098 28.8811 47.8954 28.5865 47.5403 28.0498C47.1852 27.5144 47.0853 26.7355 47.0853 25.7682V16.182L48.5273 15.9089V25.6795H48.5287C48.5287 26.9305 48.5165 27.5453 49.7695 27.5453C49.9707 27.5453 50.1449 27.5292 50.3015 27.5036Z" fill="white"/>
</svg>
