<?xml version="1.0" encoding="UTF-8"?><svg id="Camada_2" xmlns="http://www.w3.org/2000/svg" width="255.57" height="80" viewBox="0 0 255.57 80"><g id="Camada_2-2"><g id="Layer_1"><g><g><rect x="90.38" y="56.4" width="4.02" height="23.03" style="fill:#e5004b;"/><rect x="90.38" y="33.37" width="4.02" height="23.03" style="fill:#d1020a;"/><rect x="90.38" y="10.34" width="4.02" height="23.03" style="fill:#eb6619;"/></g><g><g><path d="m125.81,21.02c-.54.29-1.36.39-2.04.39-3.26,0-5.71-2.4-5.71-5.62s2.45-5.62,5.72-5.62c.68,0,1.49.12,2.03.38v2.36c-.54-.28-1.14-.4-1.88-.4-1.91,0-3.33,1.35-3.33,3.29s1.42,3.27,3.33,3.27c.74,0,1.35-.12,1.88-.38v2.33h0Z"/><path d="m127.66,15.8c0-3.2,2.4-5.62,5.66-5.62s5.69,2.42,5.69,5.62-2.39,5.63-5.69,5.63-5.66-2.43-5.66-5.63Zm8.83,0c0-1.9-1.32-3.32-3.17-3.32s-3.14,1.42-3.14,3.32,1.3,3.3,3.14,3.3,3.17-1.43,3.17-3.3Z"/><path d="m151.42,10.34v10.95h-.28l-7.25-6.18v6.09h-2.48v-10.95h.28l7.24,6.14v-6.05s2.49,0,2.49,0Z"/><path d="m154.07,20.76v-2.2c.48.36,1.23.72,2.2.72,1.35,0,1.94-.68,1.94-1.35,0-.55-.3-1.01-1.1-1.4l-1.09-.54c-1.19-.61-1.97-1.42-1.97-2.69,0-1.81,1.61-3.13,4.13-3.13.94,0,1.67.17,2.04.39v2.2c-.39-.26-1.07-.49-1.78-.49-1.1,0-1.75.43-1.75,1.11,0,.45.28.75.94,1.07l1.04.52c1.42.7,2.07,1.67,2.07,2.97,0,1.88-1.35,3.48-4.21,3.48-1.01,0-1.91-.28-2.46-.67h0Z"/><path d="m162.96,16.56v-6.23h2.53v6.24c0,1.51.9,2.53,2.4,2.53s2.42-1.03,2.42-2.53v-6.24h2.53v6.23c0,2.98-1.95,4.86-4.95,4.86s-4.94-1.88-4.94-4.86Z"/><path d="m181.51,18.99v2.2h-5.75v-10.86h2.53v8.66h3.21Z"/><path d="m184.24,12.54h-2.42v-2.2h7.36v2.2h-2.4v8.66h-2.53v-8.66Z"/><path d="m190.1,15.8c0-3.2,2.4-5.62,5.66-5.62s5.69,2.42,5.69,5.62-2.39,5.63-5.69,5.63-5.66-2.43-5.66-5.63Zm8.83,0c0-1.9-1.32-3.32-3.17-3.32s-3.14,1.42-3.14,3.32,1.3,3.3,3.14,3.3,3.17-1.43,3.17-3.3Z"/><path d="m210.26,21.2l-1.68-3.13c-.25.02-.51.03-.78.03-.52,0-.97-.04-1.38-.12v3.21h-2.56v-10.86h4.46c2.84,0,4.47,1.39,4.47,3.72,0,1.55-.68,2.68-1.85,3.33l2.07,3.81h-2.75Zm-.06-7.01c0-1.01-.58-1.64-2.13-1.64h-1.65v3.37c.39.07.83.1,1.3.1,1.71,0,2.48-.64,2.48-1.84h0Z"/><path d="m215.19,10.34h2.52v10.86h-2.52v-10.86Z"/><path d="m227.15,19.5h-3.84l-.68,1.69h-2.75l5.2-10.85h.29l5.2,10.85h-2.74l-.68-1.69Zm-1.93-4.88l-1.2,3.01h2.42l-1.22-3.01Z"/></g><path d="m246.3,15.79c0,3.37-2.47,5.74-6.34,5.74-1.47,0-2.89-.25-3.55-.5v-10.69h3.86c3.65,0,6.03,2.32,6.03,5.45Zm-2.57.06c0-1.78-1.23-3.26-3.42-3.26h-1.45v6.57c.45.06.97.1,1.43.1,2.25,0,3.43-1.49,3.43-3.42Z"/><path d="m255.57,18.99v2.2h-7.35v-10.86h7.25v2.2h-4.86v1.97h4.62v2.05h-4.62v2.43h4.96,0Z"/><path d="m134.19,53.18c1.73-1.56,2.94-3,3.64-4.32.83-1.56,1.24-3.17,1.24-4.83v-1.19c0-2.82-1.03-5.06-3.08-6.71-2.05-1.66-4.77-2.48-8.14-2.48h-9.66v45.8h10.85c3.37-.06,6.06-1.12,8.05-3.17,1.99-2.05,2.99-4.83,2.99-8.32v-2.3c0-2.7-.69-5.24-2.07-7.63-1.05-1.82-2.33-3.43-3.83-4.83,0,0,0,0,0,0Zm-6.89-14.3c1.47,0,2.68.45,3.63,1.33.95.89,1.42,2.07,1.42,3.54v.83c0,1.47-.26,2.71-.78,3.72-.52,1.01-1.55,2.19-3.08,3.54l-3.31,2.94c-.16.14-.31.29-.46.44v-16.35h2.58Zm5.89,29.44c0,1.78-.51,3.2-1.52,4.28-1.01,1.07-2.38,1.61-4.09,1.61h-2.85v-8.18c0-2.14.28-3.71.83-4.69.55-.98,1.75-2.27,3.59-3.86l.84-.7c1.08,1.07,1.85,2.15,2.29,3.23.61,1.5.92,3.67.92,6.48v1.84h0Z"/><path d="m155.08,32.99c-3.18,0-5.72.92-7.62,2.76-1.9,1.84-2.85,4.59-2.85,8.26v24.97c0,3.73.89,6.5,2.66,8.31,1.77,1.81,4.25,2.71,7.44,2.71s5.63-.98,7.53-2.94c1.9-1.96,2.85-4.8,2.85-8.54v-3.58h-6.61v4.22c0,1.71-.31,3.07-.92,4.09-.61,1.01-1.56,1.51-2.85,1.51s-2.13-.38-2.71-1.15c-.58-.76-.87-1.94-.87-3.53v-.28c0-1.47.06-2.63.18-3.49.12-.86.43-1.68.92-2.48.49-.79,1.25-1.59,2.3-2.39l4.41-3.49c2.2-1.71,3.86-3.53,4.96-5.46,1.1-1.93,1.65-4.12,1.65-6.57v-1.93c0-3.79-.87-6.58-2.62-8.36-1.74-1.77-4.36-2.66-7.85-2.66h0Zm3.58,13.03c0,1.84-.28,3.41-.83,4.73-.55,1.32-1.56,2.62-3.03,3.9l-3.03,2.57c-.13.11-.25.22-.37.34v-14.48c0-1.59.32-2.8.97-3.63.64-.83,1.54-1.24,2.71-1.24s2.05.41,2.66,1.24c.61.83.92,2.04.92,3.63v2.94h0Z"/><path d="m177.96,71.92v-38.29h-6.79v38.56c0,2.51.61,4.44,1.84,5.78,1.22,1.35,2.97,2.02,5.23,2.02,1.35,0,2.54-.25,3.58-.74v-4.41h-1.38c-1.65,0-2.48-.98-2.48-2.94h0Z"/><path d="m196.84,32.99c-3.18,0-5.72.92-7.62,2.76-1.9,1.84-2.85,4.59-2.85,8.26v24.97c0,3.73.89,6.5,2.66,8.31,1.77,1.81,4.25,2.71,7.44,2.71s5.63-.98,7.53-2.94c1.9-1.96,2.85-4.8,2.85-8.54v-3.58h-6.61v4.22c0,1.71-.31,3.07-.92,4.09-.61,1.01-1.56,1.51-2.85,1.51s-2.13-.38-2.71-1.15c-.58-.76-.87-1.94-.87-3.53v-.28c0-1.47.06-2.63.18-3.49.12-.86.43-1.68.92-2.48.49-.79,1.25-1.59,2.3-2.39l4.41-3.49c2.2-1.71,3.86-3.53,4.96-5.46,1.1-1.93,1.65-4.12,1.65-6.57v-1.93c0-3.79-.87-6.58-2.62-8.36-1.74-1.77-4.36-2.66-7.85-2.66h0Zm3.58,13.03c0,1.84-.28,3.41-.83,4.73-.55,1.32-1.56,2.62-3.03,3.9l-3.03,2.57c-.13.11-.25.22-.37.34v-14.48c0-1.59.32-2.8.97-3.63.64-.83,1.54-1.24,2.71-1.24s2.05.41,2.66,1.24c.61.83.92,2.04.92,3.63v2.94h0Z"/><path d="m219.17,72.64c0-1.35.21-2.66.64-3.95.43-1.28,1.16-2.94,2.2-4.96l7.07-13.22c1.04-1.96,1.74-3.9,2.11-5.83.37-1.93.55-4.27.55-7.02v-4.04h-18.82v5.51h12.3v1.47c0,1.28-.2,2.48-.6,3.58-.4,1.1-1.09,2.66-2.07,4.68l-.37.64-6.88,13.13c-1.04,1.96-1.76,3.93-2.16,5.92-.4,1.99-.6,4.36-.6,7.11v3.76h19.37v-5.51h-12.76v-1.28h0Z"/><path d="m252.96,35.7c-1.74-1.81-4.21-2.71-7.39-2.71s-5.71.98-7.57,2.94c-1.87,1.96-2.8,4.81-2.8,8.54v3.58h6.52v-4.22c0-1.71.31-3.07.92-4.09.61-1.01,1.59-1.51,2.94-1.51,1.22,0,2.11.38,2.66,1.15.55.77.83,1.94.83,3.53v.28c0,1.47-.06,2.63-.18,3.49-.12.86-.43,1.69-.92,2.48-.49.8-1.23,1.59-2.2,2.39l-4.41,3.49c-2.2,1.71-3.86,3.53-4.96,5.46-1.1,1.93-1.65,4.12-1.65,6.57v1.93c0,3.8.87,6.58,2.62,8.36,1.74,1.78,4.33,2.66,7.76,2.66,3.24,0,5.8-.92,7.67-2.76,1.87-1.84,2.8-4.59,2.8-8.26v-24.97c0-3.73-.87-6.5-2.62-8.31h0Zm-5.05,37.83c-.64.83-1.58,1.24-2.8,1.24s-2.04-.41-2.62-1.24c-.58-.83-.87-2.04-.87-3.63v-2.94c0-1.84.26-3.41.78-4.73.52-1.32,1.51-2.62,2.98-3.9l3.12-2.57c.13-.12.25-.25.37-.39v14.52c0,1.59-.32,2.8-.96,3.63h0Z"/></g><g><g><path d="m22.94,79.44l-6.75-14.12h1.84c.84,0,1.6.48,1.96,1.24l3.71,7.91,3.68-7.9c.35-.76,1.12-1.25,1.96-1.25h1.85l-6.75,14.12h-1.49Z"/><path d="m8.45,65.32h-1.52l-6.93,14.12h1.68c.84,0,1.56-.42,2.06-1.24l1.46-2.82c2.59.32,4.88,1.28,6.95,4.06h3.25l-6.95-14.12h0Zm-.75,4.85l1.84,3.88c-1.01-.48-2.08-.83-3.19-1.04l1.35-2.84h0Z"/><path d="m65.23,65.32c-.82,0-1.49.67-1.49,1.49v7.45s-7.36-8.94-7.36-8.94h-2.19v14.12h1.35c.82,0,1.49-.67,1.49-1.49v-7.43s6.04,7.35,6.04,7.35c0,0,1.18,1.57,2.91,1.57h.6v-14.12h-1.35Z"/><path d="m41.53,77.04c-2.58,0-4.68-2.12-4.63-4.72s2.44-4.76,5.03-4.54c2.37.2,4.24,2.2,4.24,4.62,0,2.55-2.08,4.63-4.64,4.63m5.31-9.9c-1.39-1.38-3.23-2.11-5.31-2.11s-3.9.73-5.31,2.11c-1.41,1.39-2.19,3.26-2.19,5.27s.77,3.84,2.19,5.23c1.44,1.41,3.28,2.16,5.31,2.16s3.89-.77,5.3-2.15c1.43-1.37,2.22-3.23,2.22-5.23s-.79-3.88-2.21-5.27"/></g><g><path d="m7.69,35.4c3.74,0,5.46,2.38,5.46,4.65v5.01h-2.35v-5.01c0-1.44-.81-3.75-3.11-3.75s-3.09,2.31-3.09,3.75-.01,5.01-.01,5.01h-2.36v-5.01c0-2.27,1.74-4.65,5.47-4.65"/><path d="m40.19,45.2c-3.75,0-5.47-2.35-5.47-4.62v-5.03h2.37v5.03c0,1.42.81,3.75,3.11,3.75s3.11-2.33,3.11-3.75v-5.03h2.34v5.03c0,2.27-1.72,4.62-5.45,4.62"/><path d="m22.7,44.37c-.49.4-1.11.69-1.91.79-2.39.39-5.71-1.16-5.84-4.63-.13-3.56,3.37-5.04,5.66-4.99,3.85.11,5.21,3,5.21,4.66v4.87h-2.36v-4.84c0-1.07-.47-3.75-2.92-3.83-2.39-.07-3.15,2.16-3.17,3.8,0,1.06.25,3.66,2.98,3.82.84.01,2.03-.19,2.36-.48v.84h0Z"/><path d="m33.26,46.46c-.31.11-1.17.32-2.16.05-1.13-.28-2.97-.81-2.97-4.59v-10.56h2.4v4.21h2.19v1.45h-2.19s.07,2.99,0,5.37c-.04,2.13.59,2.88,1.08,3.11.58.29,1.53.18,1.64.1v.85h0Z"/><path d="m47.89,39.74c0-2.37,1.22-4,3.35-4.21,1.51-.19,2.05.12,2.05.12v.93s-.8-.19-1.68.04c-.95.32-1.33,1.78-1.33,2.28v6.2h-2.4v-5.37"/><path d="m61.24,44.37c-.5.39-1.13.69-1.91.79-2.38.39-5.7-1.16-5.83-4.63-.12-3.56,3.37-5.05,5.66-4.99,3.86.11,5.21,3,5.21,4.66v4.87h-2.36v-4.84c0-1.07-.49-3.75-2.93-3.84-2.39-.07-3.14,2.16-3.14,3.81,0,1.06.19,3.65,2.96,3.82.85.01,2.03-.19,2.35-.48v.84h0Z"/><path d="m39.33,4.28c-3.12-.95-5.05,1.33-5.91,4.26-.74,2.34-.88,2.98-1.29,4.2-.61,1.7-2.05,1.81-3.15.5-1.28-1.55-2.97-3.84-3.91-4.94-1.25-1.45-4.27-2.69-5.79-.79-2.31,2.86.75,6.06,2.37,7.96,1.13,1.37,2.46,2.29,2.04,3.06-.19.28-.51.38-.99.38-1.13-.02-4.84-1.04-5.71-1.19-.73-.16-1.27-.12-1.48.45-.26.65.67,2.55,3.09,3.79,2.42,1.25,6.3,1.85,6.67,1.94,1.4.3,1.14,1.01.79,1.33-.31.34-.7.58-.63.92.22.9,2.13,1.09,3.28,1.27,1.1.19,2.51.3,3.53-.13.99-.38,1.05-.95,1.73-1.18.9-.35,1.21-.06,3.16.32,1.25.23,3.48-.09,4.67-.48,2.25-.74,3.19-1.48,3.19-1.82,0-.28-.39-.39-.8-.42-.49-.08-2.11-.34-2.67-.71-.53-.37-.11-1,.99-1.44,1.16-.47,4.84-2,6.21-3.23,1.39-1.23,2.69-3.3,1.54-4.5-1.16-1.21-3.2.02-4.28.51-1.48.71-3.84,1.91-4.64,2.09-.71.18-2.05.12-1.43-1.49.77-1.99,1.14-3.22,1.61-4.42.6-1.48,1.43-5.16-2.17-6.27m13.69,9.91c-1,4.24-5.98,6.74-6.46,7.02-.5.25-1.11.5-1.33.65-.09.06-.15.12.03.17.53.14,2.29.03,2.26.78,0,.81-1.33,2.12-4.73,3.57-3.71,1.6-6.8.86-7.58.68l-.07.02c-.21.23-1.93,1.88-6.83,1.03-3.51-.61-4.39-.96-5.21-1.89-.22-.29-.37-.77-.05-1.39.05-.15.07-.24-.03-.27-5.33-1.09-8.55-4.44-9.75-6.58-.59-1.07-.39-1.79-.09-2.24.42-.64,1.83-.68,3.3-.32,1.62.45,2.54.66,2.88.74.12.05.12,0,.07-.09-.41-.5-1.86-2.32-2.61-3.48-1.2-1.91-2.76-7.01,1.23-9.12,4.44-2.31,8.33,1.76,9.19,2.83.76.92,2.29,2.97,2.4,3.18.19.33.29.06.29.06,0,0,1.04-3.76,1.95-5.49,1.61-3.07,4.9-4.49,7.76-3.96,5.47,1.02,5.67,6.54,5.24,8.56-.39,1.76-1.12,3.63-1.33,4.11-.04.09,0,.11.07.06.42-.19,2.37-1.15,4.45-2.04,2.08-.87,5.9-.84,4.93,3.4"/></g></g></g></g></g></svg>