<svg width="128" height="11" viewBox="0 0 128 11" fill="none" xmlns="http://www.w3.org/2000/svg">
<path d="M99.9318 11.0004H99.4552V3.73286C99.4552 1.67439 101.13 0 103.188 0V0.476633C101.393 0.476633 99.9326 1.93738 99.9326 3.73209V10.9996L99.9318 11.0004Z" fill="white"/>
<path d="M2.6184 9.84348C1.49006 9.84348 0.758912 9.03058 0.758912 8.05572C0.758912 7.08086 1.5078 6.27644 2.62843 6.27644C3.31175 6.27644 3.83004 6.5271 4.24111 6.95823V6.17387C3.89636 5.82912 3.33104 5.63553 2.51042 5.63553C1.03888 5.63476 0 6.68289 0 8.05572C0 9.42855 1.03888 10.4844 2.51968 10.4844C3.28553 10.4844 3.92027 10.2823 4.31824 9.93912V9.1617C3.86783 9.61442 3.27936 9.84348 2.6184 9.84348Z" fill="white"/>
<path d="M7.45569 5.63476C5.93015 5.63476 4.92753 6.66361 4.92753 8.05572C4.92753 9.44783 5.93015 10.4844 7.45569 10.4844C8.98123 10.4844 9.97537 9.44629 9.97537 8.05572C9.97537 6.66516 8.98277 5.63476 7.45569 5.63476ZM7.45569 9.84348C6.36283 9.84348 5.6849 9.03984 5.6849 8.05572C5.6849 7.07161 6.36283 6.27644 7.45569 6.27644C8.54855 6.27644 9.22648 7.08009 9.22648 8.05572C9.22648 9.03136 8.54855 9.84348 7.45569 9.84348Z" fill="white"/>
<path d="M13.4391 5.63476C12.5089 5.63476 11.9313 6.13993 11.6413 6.7901V5.74351H10.8831V10.3764H11.6413V7.12559C12.0122 6.62814 12.5452 6.2857 13.1676 6.2857C13.999 6.2857 14.4317 6.75539 14.4317 7.55904V10.3772H15.1906V7.42407C15.1906 6.3312 14.5666 5.63631 13.4383 5.63631L13.4391 5.63476Z" fill="white"/>
<path d="M18.7615 7.66701L17.5236 7.48654C17.0269 7.42252 16.7747 7.26905 16.7747 6.92661C16.7747 6.4654 17.2714 6.23094 18.0751 6.23094C18.8787 6.23094 19.4294 6.50088 19.8358 6.83637V6.09443C19.4834 5.8322 18.7437 5.63554 18.0573 5.63554C16.838 5.63554 16.0521 6.11448 16.0521 6.96363C16.0521 7.63153 16.5133 8.01022 17.3886 8.14673L18.689 8.34571C19.2042 8.41744 19.4756 8.66193 19.4756 9.0221C19.4756 9.59128 18.9335 9.88127 18.1391 9.88127C17.3447 9.88127 16.6398 9.61905 16.0343 9.1671V9.91135C16.4955 10.2006 17.2799 10.4852 18.129 10.4852C19.3029 10.4852 20.1975 9.94375 20.1975 8.96811C20.1975 8.22771 19.7009 7.80275 18.7622 7.66778L18.7615 7.66701Z" fill="white"/>
<path d="M24.5536 5.74351V9.00359C24.1934 9.49102 23.6782 9.83423 23.055 9.83423C22.2151 9.83423 21.7994 9.35605 21.7994 8.57015V5.74428H21.0405V8.69663C21.0405 9.78101 21.6367 10.4852 22.7928 10.4852C23.7044 10.4852 24.2643 9.97074 24.5536 9.32983V10.378H25.3125V5.74505H24.5536V5.74351Z" fill="white"/>
<path d="M32.2321 6.39368V5.74351H30.2539V4.19946L29.495 4.35217V5.74351H28.3296V6.39368H29.495V8.82312C29.495 9.84348 30.0009 10.4667 31.0753 10.4667C31.4971 10.4667 31.8658 10.3772 32.0656 10.2607V9.59977C31.8373 9.72085 31.5496 9.80724 31.2018 9.80724C30.5423 9.80724 30.2539 9.43703 30.2539 8.77684V6.39368H32.2321Z" fill="white"/>
<path d="M35.1976 5.63476C33.6713 5.63476 32.6679 6.66361 32.6679 8.05572C32.6679 9.44783 33.6705 10.4844 35.1976 10.4844C36.7247 10.4844 37.7173 9.44629 37.7173 8.05572C37.7173 6.66516 36.7231 5.63476 35.1976 5.63476ZM35.1976 9.84348C34.1047 9.84348 33.4268 9.03984 33.4268 8.05572C33.4268 7.07161 34.1047 6.27644 35.1976 6.27644C36.2905 6.27644 36.9669 7.08009 36.9669 8.05572C36.9669 9.03136 36.2905 9.84348 35.1976 9.84348Z" fill="white"/>
<path d="M39.3824 7.55827V5.74351H38.6235V10.3764H39.3824V7.89299C39.9208 7.2328 40.7545 6.81709 41.427 6.52325V5.65559C40.6689 6.00805 39.7966 6.60346 39.3824 7.55827Z" fill="white"/>
<path d="M42.2669 5.74351V10.3764H43.0258V5.74351H42.2669Z" fill="white"/>
<path d="M46.525 5.63476C45.7236 5.63476 45.048 5.86845 44.5783 6.28184V7.00528C45.0858 6.53636 45.7761 6.26719 46.4347 6.26719C47.2746 6.26719 47.5554 6.63739 47.5554 7.22431V7.2783L45.6859 7.69478C44.6377 7.92847 44.0238 8.33492 44.0238 9.11311C44.0238 9.95223 44.5382 10.4852 45.5046 10.4852C46.471 10.4852 47.2569 9.85351 47.5554 9.34757V10.378H48.3135V7.19809C48.3135 6.1515 47.6903 5.63631 46.5258 5.63631L46.525 5.63476ZM47.5546 8.9496C47.1659 9.47251 46.4795 9.89747 45.7391 9.89747C45.0889 9.89747 44.7812 9.58974 44.7812 9.08457C44.7812 8.63339 45.1699 8.36191 45.8478 8.18144L47.5546 7.72023V8.9496Z" fill="white"/>
<path d="M28.19 9.78487V10.4512C28.0728 10.4728 27.9394 10.4844 27.7843 10.4844C27.2475 10.4844 26.9252 10.3286 26.7377 10.0456C26.5511 9.76327 26.4987 9.3522 26.4987 8.84163V3.78376L27.2568 3.63954V8.79535C27.2568 9.45554 27.2506 9.80646 27.9101 9.80646C28.0157 9.80646 28.1083 9.79798 28.19 9.78487Z" fill="white"/>
<path d="M42.9502 5.15967H42.3934L42.7975 3.88325H43.733L42.9502 5.15967Z" fill="white"/>
<path d="M55.6157 3.78376V6.84486C55.3442 6.16693 54.6679 5.63476 53.7192 5.63476C52.2747 5.63476 51.3985 6.69138 51.3985 8.05572C51.3985 9.42007 52.2747 10.4852 53.7192 10.4852C54.6771 10.4852 55.3358 9.94297 55.6157 9.26582V10.3764H56.3746V3.63876L55.6157 3.78376ZM55.6157 8.84086C55.2008 9.48254 54.6038 9.84348 53.8912 9.84348C52.7436 9.84348 52.1567 9.00359 52.1567 8.05572C52.1567 7.10785 52.7436 6.27644 53.8912 6.27644C54.6131 6.27644 55.2008 6.63816 55.6157 7.27907V8.84086Z" fill="white"/>
<path d="M62.1768 8.00096C62.1768 6.71066 61.3191 5.63476 59.8198 5.63476C58.3205 5.63476 57.2816 6.68289 57.2816 8.05572C57.2816 9.42855 58.248 10.4852 60.0088 10.4852C60.8572 10.4852 61.5698 10.2152 61.9585 9.89053V9.12699C61.4803 9.57354 60.8271 9.86122 60.055 9.86122C58.8087 9.86122 58.0945 9.17481 58.0405 8.17295H62.1768V8.00096ZM58.076 7.60377C58.2202 6.81709 58.8164 6.20318 59.8106 6.20318C60.8047 6.20318 61.2998 6.84486 61.4364 7.60377H58.076Z" fill="white"/>
<path d="M67.2223 5.63476C66.2829 5.63476 65.6057 6.1677 65.3258 6.84486V3.63876L64.5676 3.78376V10.3764H65.3258V9.26582C65.615 9.9422 66.2744 10.4852 67.2223 10.4852C68.6676 10.4852 69.543 9.41852 69.543 8.05572C69.543 6.69292 68.6676 5.63476 67.2223 5.63476ZM67.0596 9.84348C66.3369 9.84348 65.75 9.48177 65.325 8.84086V7.27907C65.75 6.63739 66.3369 6.27644 67.0503 6.27644C68.2056 6.27644 68.7848 7.11634 68.7848 8.05572C68.7848 8.99511 68.2064 9.84348 67.0596 9.84348Z" fill="white"/>
<path d="M86.8267 9.75325L90.0066 6.32966V5.74274H85.9969V6.36591H89.0765L85.8981 9.77947V10.3756H90.0436V9.75248H86.8275L86.8267 9.75325Z" fill="white"/>
<path d="M75.0837 8.00096C75.0837 6.71066 74.226 5.63476 72.7267 5.63476C71.2274 5.63476 70.1885 6.68289 70.1885 8.05572C70.1885 9.42855 71.1549 10.4852 72.9157 10.4852C73.764 10.4852 74.4767 10.2152 74.8654 9.89053V9.12699C74.3872 9.57354 73.734 9.86122 72.9619 9.86122C71.7156 9.86122 71.0014 9.17481 70.9474 8.17295H75.0837V8.00096ZM70.9837 7.60377C71.1279 6.81709 71.7241 6.20318 72.7182 6.20318C73.7124 6.20318 74.2075 6.84486 74.344 7.60377H70.9837Z" fill="white"/>
<path d="M85.1986 8.00096C85.1986 6.71066 84.341 5.63476 82.8417 5.63476C81.3424 5.63476 80.3035 6.68289 80.3035 8.05572C80.3035 9.42855 81.2699 10.4852 83.0306 10.4852C83.879 10.4852 84.5916 10.2152 84.9804 9.89053V9.12699C84.5022 9.57354 83.8489 9.86122 83.0769 9.86122C81.8306 9.86122 81.1164 9.17481 81.0624 8.17295H85.1986V8.00096ZM81.0979 7.60377C81.2421 6.81709 81.8383 6.20318 82.8324 6.20318C83.8266 6.20318 84.3217 6.84486 84.4582 7.60377H81.0979Z" fill="white"/>
<path d="M93.2196 5.63554C92.4183 5.63554 91.7427 5.86922 91.273 6.28262V7.00605C91.7805 6.53713 92.4708 6.26796 93.1294 6.26796C93.9693 6.26796 94.25 6.63816 94.25 7.22508V7.27907L92.3805 7.69555C91.3324 7.92924 90.7185 8.33569 90.7185 9.11388C90.7185 9.953 91.2329 10.4859 92.1993 10.4859C93.1656 10.4859 93.9516 9.85428 94.25 9.34834V10.3787H95.0082V7.19886C95.0082 6.15227 94.385 5.63708 93.2204 5.63708L93.2196 5.63554ZM94.25 8.95037C93.8613 9.47328 93.1749 9.89824 92.4345 9.89824C91.7843 9.89824 91.4766 9.59051 91.4766 9.08534C91.4766 8.63416 91.8653 8.36268 92.5433 8.18221L94.25 7.721V8.95037Z" fill="white"/>
<path d="M79.9472 9.75787V10.4512C79.8299 10.4728 79.6965 10.4844 79.5415 10.4844C79.0047 10.4844 78.6823 10.3286 78.4949 10.0456C78.3083 9.76327 78.2558 9.3522 78.2558 8.84163V3.78376L79.014 3.63954V8.79535C79.014 9.45554 79.0078 9.77947 79.6672 9.77947C79.7729 9.77947 79.8654 9.77099 79.9472 9.75787Z" fill="white"/>
<path d="M77.6404 9.75787V10.4512C77.5231 10.4728 77.3897 10.4844 77.2347 10.4844C76.6979 10.4844 76.3755 10.3286 76.1881 10.0456C76.0014 9.76327 75.949 9.3522 75.949 8.84163V3.78376L76.7071 3.63954V8.79535C76.7071 9.45554 76.701 9.77947 77.3604 9.77947C77.466 9.77947 77.5586 9.77099 77.6404 9.75787Z" fill="white"/>
<path d="M120.547 8.63956L120.314 9.17018C120.364 9.16555 120.409 9.16324 120.45 9.16324C120.536 9.16324 120.61 9.17095 120.672 9.18715C120.734 9.20334 120.786 9.22648 120.827 9.25579L120.547 8.63956ZM124.515 8.79227C124.49 8.72902 124.455 8.67272 124.408 8.62568C124.363 8.5794 124.31 8.54392 124.246 8.51616C124.185 8.48994 124.117 8.47528 124.041 8.47528C123.966 8.47528 123.895 8.48917 123.834 8.51616C123.77 8.54315 123.717 8.5794 123.673 8.62568C123.628 8.67041 123.592 8.72594 123.565 8.79304C123.538 8.8586 123.525 8.92955 123.525 9.00436C123.525 9.07917 123.538 9.15244 123.565 9.21954C123.591 9.28741 123.627 9.34294 123.673 9.38999C123.719 9.43703 123.773 9.47405 123.834 9.50028C123.895 9.5265 123.965 9.54038 124.041 9.54038C124.118 9.54038 124.185 9.5265 124.246 9.50028C124.306 9.47405 124.361 9.43703 124.408 9.38999C124.455 9.34217 124.492 9.2851 124.515 9.22031C124.542 9.15476 124.555 9.08149 124.555 9.00359C124.555 8.92569 124.542 8.8586 124.515 8.79227ZM124.515 8.79227C124.49 8.72902 124.455 8.67272 124.408 8.62568C124.363 8.5794 124.31 8.54392 124.246 8.51616C124.185 8.48994 124.117 8.47528 124.041 8.47528C123.966 8.47528 123.895 8.48917 123.834 8.51616C123.77 8.54315 123.717 8.5794 123.673 8.62568C123.628 8.67041 123.592 8.72594 123.565 8.79304C123.538 8.8586 123.525 8.92955 123.525 9.00436C123.525 9.07917 123.538 9.15244 123.565 9.21954C123.591 9.28741 123.627 9.34294 123.673 9.38999C123.719 9.43703 123.773 9.47405 123.834 9.50028C123.895 9.5265 123.965 9.54038 124.041 9.54038C124.118 9.54038 124.185 9.5265 124.246 9.50028C124.306 9.47405 124.361 9.43703 124.408 9.38999C124.455 9.34217 124.492 9.2851 124.515 9.22031C124.542 9.15476 124.555 9.08149 124.555 9.00359C124.555 8.92569 124.542 8.8586 124.515 8.79227ZM118.759 1.46075V10.7034H128.001V1.46075H118.759ZM121.058 9.79952C121.02 9.73474 120.98 9.67921 120.936 9.63216C120.892 9.58511 120.846 9.54732 120.794 9.51647C120.742 9.48408 120.685 9.46326 120.622 9.4486C120.56 9.43395 120.49 9.42778 120.416 9.42778C120.38 9.42778 120.344 9.42855 120.306 9.43241C120.269 9.43472 120.229 9.43935 120.189 9.44552L120.034 9.80029H119.689L120.426 8.21846H120.665L121.4 9.80029H121.057L121.058 9.79952ZM123.007 8.23928L122.288 9.79798H122.037L122.032 9.7895L121.318 8.21769H121.712L122.17 9.27044L122.63 8.21769H123.017L123.007 8.23928ZM124.847 9.34448C124.802 9.44937 124.741 9.54115 124.664 9.61442C124.588 9.69 124.495 9.75016 124.387 9.79412C124.279 9.83654 124.162 9.85891 124.04 9.85891C123.919 9.85891 123.8 9.83731 123.693 9.79412C123.585 9.75016 123.491 9.69 123.415 9.61442C123.339 9.54038 123.277 9.44937 123.232 9.34448C123.187 9.24268 123.165 9.1293 123.165 9.00668C123.165 8.88405 123.187 8.77221 123.232 8.66964C123.277 8.56475 123.337 8.47683 123.415 8.40047C123.493 8.32643 123.585 8.26627 123.693 8.22231C123.8 8.18067 123.917 8.15907 124.04 8.15907C124.164 8.15907 124.279 8.18067 124.386 8.22231C124.493 8.26627 124.586 8.32643 124.664 8.40047C124.741 8.47683 124.802 8.56475 124.846 8.66964C124.891 8.77221 124.913 8.88482 124.913 9.00668C124.913 9.12853 124.893 9.24268 124.847 9.34448ZM126.798 9.79875H126.528L126.523 9.79412L125.715 8.83777V9.79875H125.365V8.21769H125.635L125.64 8.22308L126.448 9.17789V8.21691H126.798V9.79875ZM124.408 8.62568C124.363 8.5794 124.31 8.54392 124.246 8.51616C124.185 8.48994 124.117 8.47528 124.041 8.47528C123.966 8.47528 123.895 8.48917 123.834 8.51616C123.77 8.54315 123.717 8.5794 123.673 8.62568C123.628 8.67041 123.592 8.72594 123.565 8.79304C123.538 8.8586 123.525 8.92955 123.525 9.00436C123.525 9.07917 123.538 9.15244 123.565 9.21954C123.591 9.28741 123.627 9.34294 123.673 9.38999C123.719 9.43703 123.773 9.47405 123.834 9.50028C123.895 9.5265 123.965 9.54038 124.041 9.54038C124.118 9.54038 124.185 9.5265 124.246 9.50028C124.306 9.47405 124.361 9.43703 124.408 9.38999C124.455 9.34217 124.492 9.2851 124.515 9.22031C124.542 9.15476 124.555 9.08149 124.555 9.00359C124.555 8.92569 124.542 8.8586 124.515 8.79227C124.49 8.72902 124.455 8.67272 124.408 8.62568Z" fill="white"/>
<path d="M104.303 8.5686C103.631 8.5686 103.254 8.97197 103.254 9.62599V10.4867H103.712V9.58126C103.712 9.07917 103.891 8.77453 104.303 8.77453C104.689 8.77453 104.868 9.07917 104.868 9.58126V10.4867H105.325V9.62599C105.325 8.97197 104.984 8.5686 104.303 8.5686Z" fill="white"/>
<path d="M106.759 8.5686C106.212 8.5686 105.71 8.93572 105.71 9.58126C105.71 10.1905 106.123 10.5492 106.696 10.5492C107 10.5492 107.233 10.4235 107.359 10.1905V10.4859H107.798V9.63447C107.798 8.98045 107.439 8.56783 106.758 8.56783L106.759 8.5686ZM106.759 10.3433C106.356 10.3433 106.167 10.0741 106.167 9.58126C106.167 9.13316 106.356 8.77453 106.759 8.77453C107.162 8.77453 107.341 9.13316 107.341 9.58126C107.341 10.0294 107.099 10.3433 106.759 10.3433Z" fill="white"/>
<path d="M111.24 9.53653C111.24 10.0386 111.079 10.3433 110.685 10.3433C110.291 10.3433 110.147 10.0386 110.147 9.53653V8.63108H109.69V9.49179C109.69 10.1458 110.012 10.5492 110.685 10.5492C111.357 10.5492 111.697 10.1458 111.697 9.49179V8.63108H111.24V9.53653Z" fill="white"/>
<path d="M114.394 8.5686C113.848 8.5686 113.345 8.93572 113.345 9.58126C113.345 10.1905 113.758 10.5492 114.331 10.5492C114.636 10.5492 114.869 10.4235 114.994 10.1905V10.4859H115.433V9.63447C115.433 8.98045 115.075 8.56783 114.394 8.56783L114.394 8.5686ZM114.394 10.3433C113.991 10.3433 113.803 10.0741 113.803 9.58126C113.803 9.13316 113.991 8.77453 114.394 8.77453C114.798 8.77453 114.977 9.13316 114.977 9.58126C114.977 10.0294 114.734 10.3433 114.394 10.3433Z" fill="white"/>
<path d="M112.19 9.42932V10.4867H112.647V9.37533C112.647 9.0167 112.728 8.78378 113.096 8.78378C113.14 8.78378 113.194 8.78378 113.248 8.79304V8.60485C113.15 8.57786 113.051 8.56938 112.953 8.56938C112.514 8.56938 112.191 8.82003 112.191 9.43009L112.19 9.42932Z" fill="white"/>
<path d="M109.107 10.334C108.882 10.334 108.748 10.1905 108.748 9.75171V8.84626H109.349V8.63108H108.748V8.16524H108.291V9.67998C108.291 10.3433 108.649 10.5492 109.034 10.5492C109.222 10.5492 109.393 10.4952 109.518 10.4057C109.473 10.361 109.437 10.307 109.419 10.253C109.33 10.307 109.231 10.334 109.105 10.334H109.107Z" fill="white"/>
<path d="M111.086 4.22414C111.086 4.48791 110.953 4.80875 110.857 4.97766C110.805 5.07175 110.792 5.09335 110.792 5.108C110.792 5.11803 110.798 5.12728 110.81 5.12728C110.874 5.12728 111.402 4.72083 111.772 4.72083C111.99 4.72083 112.188 4.83652 112.188 5.10877C112.188 5.38102 112.003 5.83375 111.386 6.16384C111.342 6.18775 111.249 6.23634 111.184 6.27105C111.101 6.31501 111.08 6.3366 111.08 6.36437C111.08 6.43455 111.325 6.40062 111.325 6.54484C111.325 6.62119 111.231 6.74845 110.986 6.88496C110.763 7.00991 110.464 7.11248 110.093 7.11248C109.829 7.11248 109.68 7.06081 109.653 7.06081C109.642 7.06081 109.633 7.06389 109.622 7.07469C109.606 7.0878 109.417 7.24976 108.977 7.24976C108.471 7.24976 107.904 7.0423 107.904 6.84948C107.904 6.75539 108.023 6.72917 108.023 6.70912C108.023 6.70063 108.009 6.69755 108.003 6.69601C107.297 6.50551 106.5 6.12914 106.5 5.62165C106.5 5.48128 106.599 5.40879 106.742 5.40879C106.99 5.40879 107.334 5.5237 107.408 5.5237C107.427 5.5237 107.434 5.51368 107.434 5.50365C107.434 5.48977 107.423 5.47434 107.401 5.4566C106.949 5.07175 106.76 4.71852 106.76 4.42236C106.76 4.03982 107.036 3.74983 107.403 3.67733C108.079 3.5439 108.487 4.12157 108.848 4.58586C108.858 4.59897 108.877 4.62597 108.899 4.62597C108.927 4.62597 108.934 4.59897 108.959 4.49717C108.985 4.39536 108.992 4.36374 109.024 4.2334C109.13 3.80381 109.384 3.25931 110.119 3.25931C110.551 3.25931 111.086 3.55161 111.086 4.22569V4.22414ZM108.993 5.18975C108.857 5.18975 108.784 5.1134 108.645 4.93832C108.622 4.91056 108.526 4.79333 108.501 4.76402C108.163 4.3568 107.919 4.17247 107.639 4.17247C107.47 4.17247 107.216 4.26733 107.216 4.58895C107.216 4.63137 107.222 4.81184 107.397 5.02548C107.62 5.29773 107.943 5.6579 107.972 5.69184C108.002 5.72654 108.018 5.76279 108.018 5.79518C108.018 5.81292 108.012 5.89236 107.877 5.89236C107.742 5.89236 107.171 5.72423 106.97 5.72423C106.876 5.72423 106.816 5.76433 106.816 5.83298C106.816 6.00959 107.161 6.37285 108.245 6.61734C108.382 6.64819 108.393 6.69678 108.393 6.71375C108.393 6.77699 108.224 6.8063 108.224 6.91427C108.224 7.07161 108.734 7.14179 108.88 7.14179C109.14 7.14179 109.268 7.06544 109.365 6.99911C109.448 6.94204 109.495 6.92044 109.55 6.92044C109.667 6.92044 109.775 6.99294 110.129 6.99294C110.558 6.99294 111.009 6.7685 111.009 6.64665C111.009 6.59883 110.938 6.58649 110.777 6.53404C110.693 6.50628 110.645 6.47234 110.645 6.4199C110.645 6.36745 110.685 6.33043 110.807 6.27799C110.937 6.22169 111.03 6.18004 111.126 6.13376C111.649 5.88234 111.851 5.57461 111.852 5.35249C111.853 5.2098 111.771 5.1134 111.638 5.1134C111.462 5.1134 111.269 5.2152 111.082 5.31007C110.73 5.48823 110.602 5.5561 110.479 5.5561C110.392 5.5561 110.351 5.48129 110.35 5.43732C110.35 5.41187 110.354 5.38256 110.365 5.35094C110.411 5.22831 110.443 5.14579 110.493 5.01391C110.566 4.82032 110.655 4.59897 110.655 4.37994C110.655 4.0375 110.389 3.80458 110.041 3.80458C109.65 3.80458 109.483 4.17247 109.384 4.46478C109.357 4.54499 109.255 4.85657 109.223 4.94989C109.168 5.1134 109.096 5.18975 108.992 5.18975H108.993Z" fill="white"/>
</svg>
