<svg width="193" height="32" viewBox="0 0 193 32" fill="none" xmlns="http://www.w3.org/2000/svg">
<path d="M7.01924 12.8671C4.75353 12.8671 3.28494 11.2358 3.28494 9.27703C3.28494 7.31823 4.78855 5.70546 7.03778 5.70546C8.40956 5.70546 9.44972 6.20803 10.2757 7.07312V5.49743C9.5836 4.80536 8.44869 4.41607 6.80091 4.41607C3.84725 4.41607 1.76074 6.51905 1.76074 9.27497C1.76074 12.0309 3.84725 14.1504 6.81944 14.1504C8.356 14.1504 9.63098 13.7446 10.4322 13.0546V11.4933C9.52799 12.4016 8.34571 12.863 7.01924 12.863V12.8671Z" fill="white"/>
<path d="M16.7309 4.41607C13.6681 4.41607 11.6536 6.48198 11.6536 9.27703C11.6536 12.0721 13.666 14.1524 16.7309 14.1524C19.7958 14.1524 21.7896 12.068 21.7896 9.27703C21.7896 6.4861 19.7958 4.41607 16.7309 4.41607ZM16.7309 12.8671C14.5373 12.8671 13.1758 11.2523 13.1758 9.27703C13.1758 7.30175 14.5373 5.70546 16.7309 5.70546C18.9245 5.70546 20.286 7.32029 20.286 9.27703C20.286 11.2338 18.9245 12.8671 16.7309 12.8671Z" fill="white"/>
<path d="M28.7432 4.41607C26.8751 4.41607 25.7154 5.43151 25.1325 6.73532V4.6344H23.6104V13.9361H25.1325V7.40886C25.8781 6.40989 26.9471 5.72194 28.1974 5.72194C29.8658 5.72194 30.735 6.66529 30.735 8.27806V13.9361H32.2592V8.00618C32.2592 5.81256 31.0069 4.41607 28.7412 4.41607H28.7432Z" fill="white"/>
<path d="M39.4291 8.4964L36.943 8.13388C35.9461 8.00618 35.4394 7.69722 35.4394 7.00927C35.4394 6.08239 36.4363 5.61277 38.0512 5.61277C39.666 5.61277 40.77 6.15448 41.5857 6.82801V5.33677C40.8771 4.80947 39.3941 4.41401 38.0162 4.41401C35.5692 4.41401 33.9894 5.3759 33.9894 7.0793C33.9894 8.42019 34.9163 9.18023 36.6732 9.45417L39.2849 9.85376C40.3189 9.99794 40.8648 10.4882 40.8648 11.2132C40.8648 12.3563 39.7752 12.9372 38.1809 12.9372C36.5867 12.9372 35.1717 12.4099 33.9564 11.5036V12.9969C34.8833 13.5778 36.4569 14.1483 38.1624 14.1483C40.5187 14.1483 42.3148 13.0608 42.3148 11.102C42.3148 9.61483 41.3179 8.7621 39.4332 8.49022L39.4291 8.4964Z" fill="white"/>
<path d="M51.0584 4.6344V11.1802C50.3354 12.1586 49.3014 12.8465 48.0512 12.8465C46.3642 12.8465 45.5301 11.8867 45.5301 10.309V4.6344H44.0059V10.5623C44.0059 12.7394 45.2026 14.1524 47.5239 14.1524C49.355 14.1524 50.4796 13.1205 51.0584 11.8332V13.9361H52.5826V4.6344H51.0584Z" fill="white"/>
<path d="M66.4755 5.94027V4.6344H62.5043V1.53244L60.9801 1.83934V4.63234H58.6402V5.93821H60.9801V10.8157C60.9801 12.8651 61.9976 14.1153 64.1542 14.1153C65.0007 14.1153 65.7401 13.9361 66.1418 13.7034V12.3769C65.6845 12.62 65.1057 12.793 64.4075 12.793C63.0851 12.793 62.5043 12.0494 62.5043 10.725V5.94027H66.4755Z" fill="white"/>
<path d="M72.4302 4.41607C69.3653 4.41607 67.3509 6.48198 67.3509 9.27703C67.3509 12.0721 69.3632 14.1524 72.4302 14.1524C75.4971 14.1524 77.4889 12.068 77.4889 9.27703C77.4889 6.4861 75.493 4.41607 72.4302 4.41607ZM72.4302 12.8671C70.2365 12.8671 68.8751 11.2523 68.8751 9.27703C68.8751 7.30175 70.2365 5.70546 72.4302 5.70546C74.6238 5.70546 75.9832 7.32029 75.9832 9.27703C75.9832 11.2338 74.6238 12.8671 72.4302 12.8671Z" fill="white"/>
<path d="M80.8318 8.27806V4.6344H79.3076V13.9361H80.8318V8.94954C81.9132 7.62513 83.5857 6.78888 84.9369 6.19979V4.45726C83.4147 5.16581 81.6639 6.36045 80.8318 8.27806Z" fill="white"/>
<path d="M87.3859 0.970134C86.7329 0.970134 86.3519 1.3862 86.3519 1.96704C86.3519 2.54789 86.7329 2.94542 87.3859 2.94542C88.0388 2.94542 88.4384 2.52935 88.4384 1.96704C88.4384 1.40474 88.0388 0.970134 87.3859 0.970134ZM86.6238 4.6344V13.9361H88.148V4.6344H86.6238Z" fill="white"/>
<path d="M95.1717 4.41607C93.563 4.41607 92.2077 4.88568 91.2623 5.71576V7.16787C92.2798 6.22657 93.666 5.68486 94.9904 5.68486C96.6773 5.68486 97.2396 6.42842 97.2396 7.60659V7.7137L93.4868 8.54995C91.3838 9.01957 90.15 9.83522 90.15 11.3965C90.15 13.0814 91.182 14.1504 93.1222 14.1504C95.0625 14.1504 96.6402 12.8816 97.2396 11.8661V13.9341H98.7618V7.55098C98.7618 5.45005 97.5115 4.41401 95.1717 4.41401V4.41607ZM97.2396 11.0711C96.459 12.1215 95.081 12.9743 93.5939 12.9743C92.288 12.9743 91.6701 12.3563 91.6701 11.3429C91.6701 10.4367 92.4508 9.89289 93.8122 9.53038L97.2396 8.6035V11.0711Z" fill="white"/>
<path d="M58.3601 12.6941V14.0865C58.1253 14.1298 57.8575 14.1545 57.5465 14.1545C56.4693 14.1545 55.8205 13.8414 55.4456 13.2729C55.0707 12.7065 54.9657 11.8805 54.9657 10.8568V0.698249L56.4878 0.409887V10.7621C56.4878 12.0865 56.4755 12.7374 57.7978 12.7374C58.01 12.7374 58.1933 12.7209 58.3581 12.6941H58.3601Z" fill="white"/>
<path d="M24.1603 18.138V24.2842C23.6166 22.9228 22.2571 21.8538 20.3519 21.8538C17.4518 21.8538 15.6928 23.9753 15.6928 26.7147C15.6928 29.4542 17.4518 31.5922 20.3519 31.5922C22.2757 31.5922 23.598 30.5026 24.1603 29.1452V31.3738H25.6845V17.8476L24.1603 18.138ZM24.1603 28.2904C23.3261 29.5778 22.1294 30.3028 20.6979 30.3028C18.3931 30.3028 17.2149 28.6159 17.2149 26.7127C17.2149 24.8095 18.3931 23.1411 20.6979 23.1411C22.148 23.1411 23.3261 23.8661 24.1603 25.1535V28.2904Z" fill="white"/>
<path d="M37.3323 26.6035C37.3323 24.0124 35.6104 21.8538 32.5991 21.8538C29.5877 21.8538 27.5033 23.9567 27.5033 26.7147C27.5033 29.4727 29.4435 31.5922 32.978 31.5922C34.6814 31.5922 36.113 31.0505 36.8936 30.3996V28.8651C35.9338 29.7611 34.6217 30.3399 33.0707 30.3399C30.5682 30.3399 29.1346 28.9619 29.0254 26.9495H37.3303V26.6035H37.3323ZM29.0996 25.8084C29.3879 24.2286 30.5867 22.9969 32.5826 22.9969C34.5785 22.9969 35.5733 24.2842 35.8473 25.8084H29.0996Z" fill="white"/>
<path d="M47.4641 21.8538C45.5795 21.8538 44.218 22.9228 43.6557 24.2842V17.8476L42.1336 18.138V31.3738H43.6557V29.1452C44.2365 30.5046 45.561 31.5922 47.4641 31.5922C50.3663 31.5922 52.1233 29.4501 52.1233 26.7147C52.1233 23.9794 50.3663 21.8538 47.4641 21.8538ZM47.1366 30.3048C45.6866 30.3048 44.5084 29.5798 43.6536 28.2925V25.1555C44.5064 23.8682 45.6845 23.1432 47.1181 23.1432C49.4374 23.1432 50.6011 24.8301 50.6011 26.7147C50.6011 28.5994 49.4394 30.3048 47.1366 30.3048Z" fill="white"/>
<path d="M82.3354 30.1236L88.7185 23.2503V22.0721H80.667V23.3223H86.8503L80.4672 30.1771V31.3738H88.7906V30.1236H82.3333H82.3354Z" fill="white"/>
<path d="M63.2479 26.6035C63.2479 24.0124 61.5259 21.8538 58.5146 21.8538C55.5033 21.8538 53.4188 23.9567 53.4188 26.7147C53.4188 29.4727 55.3591 31.5922 58.8936 31.5922C60.597 31.5922 62.0285 31.0505 62.8091 30.3996V28.8651C61.8493 29.7611 60.5373 30.3399 58.9863 30.3399C56.4837 30.3399 55.0501 28.9619 54.941 26.9495H63.2458V26.6035H63.2479ZM55.0151 25.8084C55.3035 24.2286 56.5022 22.9969 58.4981 22.9969C60.494 22.9969 61.4889 24.2842 61.7628 25.8084H55.0151Z" fill="white"/>
<path d="M79.0666 26.6035C79.0666 24.0124 77.3447 21.8538 74.3333 21.8538C71.322 21.8538 69.2376 23.9567 69.2376 26.7147C69.2376 29.4727 71.1778 31.5922 74.7123 31.5922C76.4157 31.5922 77.8473 31.0505 78.6279 30.3996V28.8651C77.6681 29.7611 76.356 30.3399 74.805 30.3399C72.3025 30.3399 70.8689 28.9619 70.7597 26.9495H79.0646V26.6035H79.0666ZM70.8339 25.8084C71.1222 24.2286 72.321 22.9969 74.3169 22.9969C76.3128 22.9969 77.3076 24.2842 77.5815 25.8084H70.8339Z" fill="white"/>
<path d="M95.1717 21.8538C93.563 21.8538 92.2077 22.3234 91.2623 23.1535V24.6056C92.2798 23.6643 93.666 23.1226 94.9904 23.1226C96.6773 23.1226 97.2396 23.8661 97.2396 25.0443V25.1514L93.4868 25.9876C91.3838 26.4573 90.15 27.2729 90.15 28.8342C90.15 30.5191 91.182 31.5881 93.1222 31.5881C95.0625 31.5881 96.6402 30.3193 97.2396 29.3038V31.3718H98.7618V24.9887C98.7618 22.8877 97.5115 21.8517 95.1717 21.8517V21.8538ZM97.2396 28.5108C96.459 29.5613 95.081 30.414 93.5939 30.414C92.288 30.414 91.6701 29.7961 91.6701 28.7827C91.6701 27.8764 92.4508 27.3326 93.8122 26.9701L97.2396 26.0433V28.5108Z" fill="white"/>
<path d="M68.3807 30.1318V31.5242C68.1459 31.5675 67.8781 31.5922 67.5671 31.5922C66.4899 31.5922 65.8411 31.2791 65.4662 30.7106C65.0913 30.1442 64.9863 29.3182 64.9863 28.2945V18.138L66.5084 17.8496V28.2019C66.5084 29.5263 66.4961 30.1771 67.8184 30.1771C68.0306 30.1771 68.2139 30.1607 68.3787 30.1339L68.3807 30.1318Z" fill="white"/>
<path d="M169.493 24.966L168.824 26.4902C168.966 26.4779 169.093 26.4717 169.213 26.4717C169.458 26.4717 169.672 26.4943 169.847 26.5417C170.026 26.5891 170.175 26.655 170.294 26.7394L169.493 24.966ZM180.894 25.4027C180.822 25.2194 180.719 25.0608 180.583 24.9248C180.453 24.793 180.302 24.69 180.117 24.6097C179.944 24.5335 179.746 24.4943 179.53 24.4943C179.314 24.4943 179.11 24.5355 178.937 24.6097C178.751 24.688 178.601 24.793 178.471 24.9248C178.342 25.0546 178.239 25.2132 178.16 25.4068C178.084 25.5963 178.047 25.8002 178.047 26.0144C178.047 26.2286 178.084 26.4387 178.16 26.6344C178.237 26.8301 178.34 26.9887 178.471 27.1246C178.603 27.2606 178.76 27.3677 178.937 27.4418C179.11 27.518 179.312 27.5572 179.53 27.5572C179.748 27.5572 179.944 27.516 180.117 27.4418C180.292 27.3656 180.451 27.2585 180.583 27.1246C180.719 26.9866 180.826 26.8218 180.894 26.6365C180.97 26.447 181.007 26.2369 181.007 26.0144C181.007 25.792 180.97 25.5963 180.894 25.4047V25.4027ZM180.894 25.4027C180.822 25.2194 180.719 25.0608 180.583 24.9248C180.453 24.793 180.302 24.69 180.117 24.6097C179.944 24.5335 179.746 24.4943 179.53 24.4943C179.314 24.4943 179.11 24.5355 178.937 24.6097C178.751 24.688 178.601 24.793 178.471 24.9248C178.342 25.0546 178.239 25.2132 178.16 25.4068C178.084 25.5963 178.047 25.8002 178.047 26.0144C178.047 26.2286 178.084 26.4387 178.16 26.6344C178.237 26.8301 178.34 26.9887 178.471 27.1246C178.603 27.2606 178.76 27.3677 178.937 27.4418C179.11 27.518 179.312 27.5572 179.53 27.5572C179.748 27.5572 179.944 27.516 180.117 27.4418C180.292 27.3656 180.451 27.2585 180.583 27.1246C180.719 26.9866 180.826 26.8218 180.894 26.6365C180.97 26.447 181.007 26.2369 181.007 26.0144C181.007 25.792 180.97 25.5963 180.894 25.4047V25.4027ZM164.354 4.3378V30.8939H190.906V4.3378H164.354ZM170.962 28.2987C170.852 28.1133 170.737 27.9526 170.611 27.8187C170.486 27.6849 170.352 27.5757 170.204 27.4851C170.053 27.3924 169.888 27.3306 169.709 27.2894C169.53 27.2482 169.33 27.2276 169.116 27.2276C169.013 27.2276 168.91 27.2317 168.801 27.24C168.696 27.2461 168.581 27.2585 168.465 27.2791L168.02 28.2987H167.03L169.145 23.7528H169.831L171.944 28.2987H170.96H170.962ZM176.56 23.8146L174.494 28.2945H173.771L173.759 28.2698L171.705 23.7528H172.836L174.152 26.7765L175.472 23.7528H176.585L176.556 23.8167L176.56 23.8146ZM181.847 26.9907C181.717 27.2935 181.542 27.5572 181.322 27.7673C181.102 27.9835 180.834 28.1565 180.527 28.2822C180.216 28.4058 179.88 28.4676 179.53 28.4676C179.18 28.4676 178.838 28.4037 178.531 28.2822C178.22 28.1565 177.952 27.9835 177.732 27.7673C177.512 27.553 177.336 27.2935 177.207 26.9907C177.077 26.6982 177.015 26.3708 177.015 26.0185C177.015 25.6663 177.079 25.345 177.207 25.0505C177.336 24.7477 177.509 24.4964 177.732 24.2781C177.954 24.0639 178.222 23.8908 178.531 23.7652C178.84 23.6457 179.176 23.5819 179.53 23.5819C179.884 23.5819 180.216 23.6457 180.523 23.7652C180.832 23.8908 181.098 24.0639 181.322 24.2781C181.544 24.4985 181.717 24.7497 181.847 25.0505C181.977 25.345 182.039 25.6704 182.039 26.0185C182.039 26.3666 181.977 26.6982 181.847 26.9907ZM187.452 28.2945H186.679L186.663 28.2822L184.34 25.5345V28.2945H183.336V23.7528H184.113L184.125 23.7693L186.449 26.5129V23.7528H187.452V28.2945ZM180.583 24.9248C180.453 24.793 180.302 24.69 180.117 24.6097C179.944 24.5335 179.746 24.4943 179.53 24.4943C179.314 24.4943 179.11 24.5355 178.937 24.6097C178.751 24.688 178.601 24.793 178.471 24.9248C178.342 25.0546 178.239 25.2132 178.16 25.4068C178.084 25.5963 178.047 25.8002 178.047 26.0144C178.047 26.2286 178.084 26.4387 178.16 26.6344C178.237 26.8301 178.34 26.9887 178.471 27.1246C178.603 27.2606 178.76 27.3677 178.937 27.4418C179.11 27.518 179.312 27.5572 179.53 27.5572C179.748 27.5572 179.944 27.516 180.117 27.4418C180.292 27.3656 180.451 27.2585 180.583 27.1246C180.719 26.9866 180.826 26.8218 180.894 26.6365C180.97 26.447 181.007 26.2369 181.007 26.0144C181.007 25.792 180.97 25.5963 180.894 25.4047C180.822 25.2214 180.719 25.0628 180.583 24.9269V24.9248Z" fill="white"/>
<path d="M124.22 24.9928C122.218 24.9928 121.095 26.1936 121.095 28.1442V30.7085H122.457V28.0103C122.457 26.5149 122.99 25.6066 124.22 25.6066C125.369 25.6066 125.903 26.5149 125.903 28.0103V30.7085H127.264V28.1442C127.264 26.1936 126.249 24.9928 124.22 24.9928Z" fill="white"/>
<path d="M131.536 24.9928C129.907 24.9928 128.412 26.0886 128.412 28.0103C128.412 29.827 129.639 30.8939 131.349 30.8939C132.257 30.8939 132.951 30.5191 133.324 29.8249V30.7065H134.632V28.1689C134.632 26.2183 133.563 24.9907 131.534 24.9907L131.536 24.9928ZM131.536 30.2801C130.335 30.2801 129.773 29.4789 129.773 28.0103C129.773 26.6756 130.333 25.6066 131.536 25.6066C132.739 25.6066 133.273 26.6756 133.273 28.0103C133.273 29.345 132.552 30.2801 131.536 30.2801Z" fill="white"/>
<path d="M144.889 27.8764C144.889 29.3718 144.41 30.2801 143.233 30.2801C142.057 30.2801 141.631 29.3718 141.631 27.8764V25.1782H140.27V27.7425C140.27 29.6931 141.231 30.8939 143.233 30.8939C145.236 30.8939 146.251 29.6931 146.251 27.7425V25.1782H144.889V27.8764Z" fill="white"/>
<path d="M154.29 24.9928C152.661 24.9928 151.165 26.0886 151.165 28.0103C151.165 29.827 152.393 30.8939 154.103 30.8939C155.011 30.8939 155.705 30.5191 156.078 29.8249V30.7065H157.386V28.1689C157.386 26.2183 156.317 24.9907 154.288 24.9907L154.29 24.9928ZM154.29 30.2801C153.089 30.2801 152.527 29.4789 152.527 28.0103C152.527 26.6756 153.087 25.6066 154.29 25.6066C155.493 25.6066 156.026 26.6756 156.026 28.0103C156.026 29.345 155.306 30.2801 154.29 30.2801Z" fill="white"/>
<path d="M147.722 27.5572V30.7085H149.083V27.3965C149.083 26.3275 149.324 25.6334 150.418 25.6334C150.552 25.6334 150.712 25.6334 150.871 25.6601V25.0999C150.576 25.0196 150.284 24.9928 149.989 24.9928C148.681 24.9928 147.72 25.7405 147.72 27.5572H147.722Z" fill="white"/>
<path d="M138.535 30.2533C137.868 30.2533 137.466 29.827 137.466 28.517V25.8187H139.256V25.1782H137.466V23.7899H136.105V28.3028C136.105 30.2781 137.174 30.8939 138.321 30.8939C138.881 30.8939 139.39 30.7333 139.763 30.4676C139.629 30.3337 139.522 30.173 139.468 30.0144C139.201 30.1751 138.908 30.2554 138.533 30.2554L138.535 30.2533Z" fill="white"/>
<path d="M144.434 12.0783C144.434 12.8651 144.035 13.8187 143.753 14.3234C143.596 14.6035 143.557 14.6674 143.557 14.7106C143.557 14.7415 143.575 14.7662 143.612 14.7662C143.802 14.7662 145.376 13.5551 146.48 13.5551C147.126 13.5551 147.72 13.8991 147.72 14.7106C147.72 15.5221 147.168 16.8713 145.33 17.8558C145.198 17.9258 144.922 18.0721 144.729 18.1751C144.482 18.3069 144.416 18.3708 144.416 18.4531C144.416 18.6612 145.147 18.5623 145.147 18.9907C145.147 19.2194 144.869 19.5963 144.138 20.0041C143.47 20.3769 142.581 20.6818 141.477 20.6818C140.69 20.6818 140.249 20.5273 140.164 20.5273C140.132 20.5273 140.107 20.5376 140.072 20.5685C140.026 20.6076 139.462 21.0896 138.15 21.0896C136.642 21.0896 134.953 20.4717 134.953 19.897C134.953 19.6169 135.308 19.5386 135.308 19.4789C135.308 19.4542 135.266 19.4459 135.248 19.4418C133.143 18.8733 130.768 17.7528 130.768 16.241C130.768 15.8229 131.062 15.6066 131.489 15.6066C132.228 15.6066 133.252 15.9485 133.474 15.9485C133.528 15.9485 133.549 15.9197 133.549 15.8888C133.549 15.8476 133.516 15.8023 133.452 15.7487C132.103 14.6035 131.54 13.5489 131.54 12.6674C131.54 11.5263 132.364 10.6632 133.458 10.447C135.474 10.0494 136.69 11.7714 137.765 13.1535C137.796 13.1926 137.849 13.2729 137.917 13.2729C138 13.2729 138.02 13.1926 138.096 12.8898C138.171 12.587 138.193 12.4923 138.288 12.105C138.603 10.826 139.361 9.20082 141.551 9.20082C142.84 9.20082 144.434 10.0721 144.434 12.0803V12.0783ZM138.195 14.9537C137.788 14.9537 137.573 14.725 137.157 14.206C137.091 14.1236 136.803 13.7755 136.729 13.6869C135.724 12.4717 134.992 11.9238 134.16 11.9238C133.658 11.9238 132.902 12.206 132.902 13.1658C132.902 13.2915 132.918 13.829 133.439 14.4676C134.105 15.2791 135.067 16.3522 135.153 16.4531C135.244 16.5561 135.291 16.6653 135.289 16.7621C135.289 16.8157 135.273 17.0525 134.871 17.0525C134.469 17.0525 132.766 16.552 132.167 16.552C131.888 16.552 131.709 16.6715 131.709 16.8754C131.709 17.4027 132.737 18.484 135.969 19.2132C136.375 19.3038 136.41 19.4501 136.41 19.4995C136.41 19.689 135.907 19.7755 135.907 20.0968C135.907 20.5664 137.425 20.7745 137.862 20.7745C138.636 20.7745 139.017 20.5479 139.306 20.3481C139.553 20.1792 139.693 20.1133 139.858 20.1133C140.204 20.1133 140.529 20.3296 141.582 20.3296C142.863 20.3296 144.208 19.6601 144.208 19.2976C144.208 19.1555 143.996 19.1184 143.518 18.9619C143.266 18.8795 143.122 18.7765 143.122 18.62C143.122 18.4634 143.244 18.3522 143.606 18.1957C143.993 18.0268 144.27 17.9032 144.556 17.7673C146.113 17.0175 146.716 16.1009 146.721 15.4398C146.723 15.0154 146.48 14.7271 146.082 14.7271C145.559 14.7271 144.984 15.0299 144.424 15.3141C143.376 15.8455 142.995 16.0474 142.628 16.0474C142.368 16.0474 142.247 15.8249 142.245 15.6931C142.245 15.6169 142.257 15.5304 142.29 15.4356C142.426 15.069 142.521 14.8239 142.669 14.4325C142.887 13.8558 143.151 13.1967 143.151 12.5438C143.151 11.5242 142.36 10.8301 141.32 10.8301C140.156 10.8301 139.66 11.9258 139.363 12.7971C139.283 13.036 138.976 13.9629 138.883 14.243C138.721 14.7291 138.504 14.9578 138.193 14.9578L138.195 14.9537Z" fill="white"/>
<path d="M119.137 1.3656V0H118.265C112.824 0 108.397 4.42636 108.397 9.86612V32H109.763V9.86612C109.763 5.17817 113.575 1.3656 118.263 1.3656H119.137Z" fill="white"/>
</svg>
