<?xml version="1.0" encoding="UTF-8"?><svg id="b" xmlns="http://www.w3.org/2000/svg" width="256" height="64.86"  viewBox="0 0 256 65.34"><g id="c"><path style="fill:#000000;" d="m96.19,52.65c-1.12-2.55-3.35-3.97-6.05-3.97-4.22,0-7.42,3.32-7.42,8.16s3.2,8.1,7.42,8.1c2.79,0,5.06-1.52,6.15-4.19v3.76h1.77v-23.28h-1.86v11.42Zm-5.74,10.62c-3.38,0-5.93-2.48-5.93-6.43s2.55-6.52,5.93-6.52,5.99,2.64,5.99,6.49-2.61,6.46-5.99,6.46Z"/><path style="fill:#000000;" d="m109.56,48.67c-4.31,0-7.51,3.17-7.51,8.01,0,5.21,2.98,8.26,8.07,8.26,2.02,0,4.22-.53,5.68-1.49v-1.68c-1.24.84-3.23,1.52-5.53,1.52-3.94,0-6.21-2.02-6.43-5.99h12.6c.06-.37.09-.74.09-1.12,0-4.47-2.61-7.51-6.98-7.51Zm-5.71,7.11c.31-3.54,2.58-5.56,5.68-5.56,3.45,0,5.18,2.2,5.28,5.56h-10.96Z"/><path style="fill:#000000;" d="m136.35,48.67c-3.07,0-5.46,1.65-6.52,4.22v-11.67h-1.77v15.36c0,4.97,3.35,8.35,7.95,8.35s8.04-3.41,8.04-8.16-3.29-8.1-7.7-8.1Zm-.34,14.62c-3.54,0-6.21-2.64-6.21-6.49s2.67-6.49,6.21-6.49,6.24,2.61,6.24,6.49-2.61,6.49-6.24,6.49Z"/><path style="fill:#000000;" d="m154.7,48.67c-4.31,0-7.51,3.17-7.51,8.01,0,5.21,2.98,8.26,8.07,8.26,2.02,0,4.22-.53,5.68-1.49v-1.68c-1.24.84-3.23,1.52-5.53,1.52-3.94,0-6.21-2.02-6.43-5.99h12.6c.06-.37.09-.74.09-1.12,0-4.47-2.61-7.51-6.98-7.51Zm-5.71,7.11c.31-3.54,2.58-5.56,5.68-5.56,3.45,0,5.18,2.2,5.28,5.56h-10.96Z"/><path style="fill:#000000;" d="m167.58,62.11v-20.89h-1.86v21.14c0,1.65,1.02,2.58,2.51,2.58.59,0,1.18-.19,1.55-.43v-1.52c-.28.25-.71.31-1.12.31-.74,0-1.09-.4-1.09-1.18Z"/><path style="fill:#000000;" d="m179.69,48.67c-4.31,0-7.51,3.17-7.51,8.01,0,5.21,2.98,8.26,8.07,8.26,2.02,0,4.22-.53,5.68-1.49v-1.68c-1.24.84-3.23,1.52-5.53,1.52-3.94,0-6.21-2.02-6.43-5.99h12.6c.06-.37.09-.74.09-1.12,0-4.47-2.61-7.51-6.98-7.51Zm-5.71,7.11c.31-3.54,2.58-5.56,5.68-5.56,3.45,0,5.18,2.2,5.28,5.56h-10.96Z"/><polygon style="fill:#000000;" points="201.45 49.36 201.45 49.08 189.9 49.08 189.9 50.72 198.59 50.72 189.15 64.19 189.15 64.5 201.57 64.5 201.57 62.86 192.1 62.86 201.45 49.36"/><path style="fill:#000000;" d="m217.59,52.65c-1.12-2.55-3.35-3.97-6.05-3.97-4.22,0-7.42,3.32-7.42,8.16s3.2,8.1,7.42,8.1c2.79,0,5.06-1.52,6.15-4.19v3.76h1.77v-15.43h-1.86v3.57Zm-5.74,10.62c-3.38,0-5.93-2.48-5.93-6.43s2.55-6.52,5.93-6.52,5.99,2.64,5.99,6.49-2.61,6.46-5.99,6.46Z"/><path style="fill:#000000;" d="m232.89,7.25c-1.67,0-2.82.93-2.82,2.75,0,1.67,1.15,2.64,2.82,2.64s2.82-.97,2.82-2.64c0-1.82-1.11-2.75-2.82-2.75Z"/><path style="fill:#000000;" d="m133.85,24.12v10.37h4.46v-11.3c0-4.87-2.86-7.84-7.17-7.84-2.97,0-5.2,1.6-6.13,3.75v-3.2h-4.16v18.58h4.46v-9.77c0-3.49,1.86-5.76,4.53-5.76,2.49,0,4.01,1.9,4.01,5.17Z"/><path style="fill:#000000;" d="m153.84,29.25c0-2.71-1.49-4.35-4.57-5.57l-2.3-.93c-1.26-.52-1.64-.97-1.64-1.78,0-1.08,1.19-1.71,3.2-1.71,1.67,0,3.05.48,4.09,1v-3.9c-.78-.52-2.56-1-4.2-1-4.65,0-7.47,2.49-7.47,5.5,0,2.64,1.52,4.13,4.27,5.28l2.34.97c1.52.63,2.12,1.11,2.12,2.08,0,1.15-.97,2.04-3.49,2.04-2.16,0-4.2-.78-5.28-1.56v3.94c1,.82,2.97,1.49,5.31,1.49,5.2,0,7.62-3.05,7.62-5.83Z"/><path style="fill:#000000;" d="m172.46,15.91h-4.46v11.11c0,2.49-1.56,4.13-4.01,4.13s-3.98-1.64-3.98-4.13v-11.11h-4.46v11.04c0,5.09,3.23,8.14,8.44,8.14s8.47-3.05,8.47-8.14v-11.04Z"/><path style="fill:#000000;" d="m179.93,35.09c.82,0,1.64-.22,2.12-.56v-3.46c-.22.15-.48.19-.85.19-.67,0-1.11-.37-1.11-1.23V9.08h-4.46v21.47c0,2.68,1.6,4.53,4.31,4.53Z"/><path style="fill:#000000;" d="m194.8,34.53v-3.98c-.45.19-1.3.37-2.12.37-2.08,0-3.01-1.15-3.01-3.2v-7.92h5.13v-3.9h-5.13v-5.76h-4.39v5.76h-3.46v3.9h3.46v7.92c0,4.61,2.49,7.36,6.61,7.36,1.04,0,2.27-.22,2.9-.56Z"/><path style="fill:#000000;" d="m205.24,35.09c5.46,0,9.96-4.27,9.96-9.89s-4.5-9.85-9.96-9.85-9.92,4.2-9.92,9.85,4.53,9.89,9.92,9.89Zm0-15.83c3.23,0,5.61,2.34,5.61,5.95s-2.38,5.98-5.61,5.98-5.61-2.42-5.61-5.98,2.49-5.95,5.61-5.95Z"/><path style="fill:#000000;" d="m221.4,19.85v-3.94h-4.16v18.58h4.46v-9.96c0-3.6,2.19-5.13,4.83-5.13,1.08,0,2.01.22,2.56.48v-4.27c-.52-.15-1.26-.26-1.93-.26-2.82,0-4.94,1.93-5.76,4.5Z"/><rect style="fill:#000000;" x="230.62" y="15.91" width="4.46" height="18.58"/><path style="fill:#000000;" d="m251.54,15.91v2.34c-1.3-1.97-3.2-2.9-5.46-2.9-4.98,0-8.73,4.35-8.73,9.92s3.75,9.81,8.7,9.81c2.45,0,4.5-1.11,5.76-3.27v2.68h4.2V15.91h-4.46Zm-4.65,15.27c-3.05,0-5.24-2.34-5.24-5.91s2.19-6.02,5.24-6.02,5.31,2.34,5.31,5.98-2.27,5.95-5.31,5.95Z"/><path style="fill:#000000;" d="m109.18,15.35c-5.2,0-9.44,3.83-9.88,8.9-.14,1.22-.29,2-1.14,3.58-1.74,3.22-5.29,3.87-8.21,2.12-1.75-1.05-2.94-2.82-2.94-4.81,0-1.57.55-2.63.56-2.66.91-1.96,2.85-3.25,5.46-3.25,1.63,0,2.92.44,3.58.81l.04-3.84c-1-.52-2.55-.85-3.95-.85-5.91,0-9.97,4.36-9.97,9.79,0,4.53,2.77,8.3,7.11,9.46,3.93,1.19,8.43.04,11.1-3.87,1.8,2.66,4.85,4.35,8.25,4.35,5.46,0,9.96-4.27,9.96-9.89s-4.5-9.85-9.96-9.85Zm0,15.83c-3.12,0-5.61-2.42-5.61-5.98s2.49-5.95,5.61-5.95,5.61,2.34,5.61,5.95-2.38,5.98-5.61,5.98Z"/><path style="fill:#000000;" d="m6.35,30.82c3.26,0,4.75,2.07,4.75,4.05v4.37h-2.04v-4.37c0-1.25-.71-3.26-2.71-3.26-1.97,0-2.69,2.01-2.69,3.26s-.01,4.37-.01,4.37H1.59v-4.37c0-1.98,1.52-4.05,4.76-4.05"/><path style="fill:#000000;" d="m34.65,39.36c-3.27,0-4.76-2.05-4.76-4.03v-4.38h2.06v4.38c0,1.24.7,3.27,2.71,3.27,1.98,0,2.71-2.03,2.71-3.27v-4.38h2.04v4.38c0,1.98-1.5,4.03-4.75,4.03"/><path style="fill:#000000;" d="m19.41,38.64c-.42.35-.97.6-1.66.69-2.08.34-4.97-1.01-5.09-4.03-.11-3.1,2.94-4.39,4.93-4.35,3.35.09,4.53,2.62,4.53,4.06v4.24h-2.06v-4.21c0-.93-.41-3.27-2.55-3.34-2.08-.06-2.74,1.88-2.76,3.31,0,.92.22,3.19,2.6,3.32.73.01,1.77-.17,2.05-.42v.73Z"/><path style="fill:#000000;" d="m28.6,40.45c-.27.09-1.02.27-1.88.05-.98-.24-2.58-.71-2.58-3.99v-9.19h2.09v3.66s1.91,0,1.91,0v1.26h-1.91s.06,2.6,0,4.68c-.03,1.86.52,2.51.94,2.71.51.25,1.33.16,1.43.09v.74Z"/><path style="fill:#000000;" d="m41.35,34.6c0-2.06,1.06-3.48,2.92-3.66,1.31-.16,1.79.11,1.79.11v.81s-.7-.17-1.46.04c-.83.28-1.15,1.55-1.15,1.98,0,1.5,0,5.4,0,5.4h-2.09v-4.67"/><path style="fill:#000000;" d="m52.97,38.64c-.43.34-.98.6-1.67.69-2.08.34-4.96-1.01-5.08-4.03-.1-3.1,2.93-4.4,4.93-4.35,3.36.09,4.53,2.62,4.53,4.06v4.24h-2.05v-4.21c0-.93-.42-3.27-2.55-3.34-2.08-.06-2.74,1.88-2.74,3.31,0,.92.16,3.18,2.58,3.32.74.01,1.77-.17,2.04-.42v.73Z"/><path style="fill:#000000;" d="m33.89,3.73c-2.72-.82-4.4,1.16-5.15,3.71-.64,2.03-.77,2.59-1.12,3.66-.53,1.48-1.79,1.57-2.74.44-1.11-1.35-2.59-3.35-3.41-4.3-1.09-1.26-3.72-2.34-5.04-.69-2.01,2.49.65,5.27,2.06,6.93.98,1.19,2.14,2,1.77,2.66-.16.24-.44.33-.87.33-.99-.02-4.21-.9-4.97-1.04-.63-.14-1.11-.1-1.29.39-.23.57.58,2.22,2.69,3.3,2.1,1.09,5.48,1.61,5.81,1.69,1.22.26.99.88.68,1.16-.27.3-.61.5-.55.8.19.78,1.85.95,2.85,1.11.96.17,2.18.26,3.07-.11.86-.33.92-.82,1.51-1.03.79-.3,1.06-.05,2.75.28,1.09.2,3.03-.07,4.07-.42,1.96-.64,2.77-1.29,2.77-1.58,0-.25-.34-.34-.7-.36-.42-.07-1.84-.3-2.32-.62-.47-.32-.1-.87.86-1.25,1.01-.41,4.21-1.74,5.41-2.81,1.21-1.07,2.34-2.87,1.35-3.91-1.01-1.05-2.78.02-3.73.45-1.29.62-3.34,1.67-4.04,1.82-.62.15-1.78.11-1.25-1.3.68-1.73.99-2.8,1.41-3.85.52-1.29,1.25-4.49-1.89-5.46m11.92,8.63c-.87,3.69-5.2,5.87-5.62,6.11-.43.21-.97.44-1.16.56-.08.05-.13.1.03.15.46.12,2,.03,1.97.68,0,.7-1.16,1.85-4.12,3.11-3.23,1.39-5.92.75-6.6.6l-.06.02c-.18.2-1.68,1.64-5.94.9-3.05-.53-3.82-.84-4.53-1.64-.19-.25-.32-.67-.05-1.21.05-.13.06-.21-.02-.24-4.64-.94-7.44-3.87-8.49-5.73-.51-.94-.34-1.56-.08-1.95.36-.56,1.59-.6,2.87-.28,1.41.39,2.21.57,2.51.65.1.04.11,0,.06-.07-.36-.44-1.62-2.02-2.27-3.03-1.05-1.67-2.4-6.1,1.07-7.94,3.87-2.01,7.25,1.54,8,2.46.66.8,1.99,2.59,2.09,2.77.17.29.26.05.26.05,0,0,.9-3.28,1.7-4.78C28.82.88,31.69-.36,34.18.09c4.76.89,4.94,5.69,4.56,7.45-.34,1.53-.97,3.17-1.16,3.58-.03.08,0,.09.06.05.36-.17,2.06-1,3.88-1.78,1.81-.76,5.14-.73,4.29,2.96"/><path style="fill:#000000;" d="m2.64,64.87l1.2-2.73c.31-.05.61-.08.9-.1.29-.02.57-.03.84-.03.58,0,1.11.06,1.59.17.48.11.92.28,1.32.52.4.24.77.54,1.1.9.33.36.64.79.93,1.29h2.64l-5.67-12.18h-1.83l-5.67,12.18h2.64Zm3.95-8.98l2.19,4.84c-.32-.23-.73-.41-1.22-.54-.49-.13-1.07-.19-1.74-.19-.32,0-.68.02-1.06.05l1.83-4.16Zm13.59,8.98l5.62-12.18h-2.78l-3.69,8.44-3.67-8.44h-2.84l5.53,12.18h1.83Zm13.83.47c.96,0,1.86-.17,2.68-.5.82-.33,1.54-.79,2.14-1.38.6-.59,1.08-1.29,1.42-2.09.34-.8.51-1.67.51-2.61s-.17-1.79-.51-2.59c-.34-.8-.82-1.49-1.42-2.08-.6-.59-1.32-1.04-2.14-1.37-.82-.33-1.72-.5-2.68-.5s-1.86.17-2.68.5c-.82.33-1.54.79-2.14,1.37-.6.59-1.08,1.28-1.42,2.08-.34.8-.51,1.66-.51,2.59s.17,1.81.51,2.61c.34.8.81,1.5,1.42,2.09.6.59,1.32,1.05,2.14,1.38.82.33,1.72.5,2.68.5Zm0-2.26c-.6,0-1.16-.11-1.66-.32-.5-.21-.94-.51-1.31-.9-.37-.38-.66-.84-.87-1.37-.21-.53-.31-1.11-.31-1.74s.1-1.18.31-1.71.5-.97.87-1.35c.37-.38.81-.67,1.31-.89.5-.21,1.06-.32,1.66-.32s1.16.11,1.66.32c.5.21.94.51,1.31.89.37.38.66.83.87,1.35s.31,1.09.31,1.71-.1,1.22-.31,1.75c-.21.53-.5.98-.87,1.37-.37.38-.81.68-1.31.9-.5.21-1.06.32-1.66.32Zm10.53-10.39v12.18h2.51v-7.74l6.56,7.74h1.95v-12.18h-2.51v7.74l-6.56-7.74h-1.95Z"/><rect x="68.15" y="46.32" width="3.69" height="18.62" style="fill:#e5004b;"/><rect x="68.15" y="27.7" width="3.69" height="18.62" style="fill:#d1020a;"/><rect x="68.15" y="9.09" width="3.69" height="18.62" style="fill:#eb6619;"/></g></svg>