<svg width="193" height="32" viewBox="0 0 193 32" fill="none" xmlns="http://www.w3.org/2000/svg">
<path d="M7.35266 12.8671C5.08695 12.8671 3.61836 11.2358 3.61836 9.27703C3.61836 7.31823 5.12197 5.70546 7.3712 5.70546C8.74298 5.70546 9.78314 6.20803 10.6091 7.07312V5.49743C9.91702 4.80536 8.78211 4.41607 7.13433 4.41607C4.18067 4.41607 2.09416 6.51905 2.09416 9.27497C2.09416 12.0309 4.18067 14.1504 7.15286 14.1504C8.68942 14.1504 9.9644 13.7446 10.7656 13.0546V11.4933C9.86141 12.4016 8.67913 12.863 7.35266 12.863V12.8671Z" fill="#AE0025"/>
<path d="M17.0643 4.41607C14.0015 4.41607 11.9871 6.48198 11.9871 9.27703C11.9871 12.0721 13.9994 14.1524 17.0643 14.1524C20.1292 14.1524 22.123 12.068 22.123 9.27703C22.123 6.4861 20.1292 4.41607 17.0643 4.41607ZM17.0643 12.8671C14.8707 12.8671 13.5092 11.2523 13.5092 9.27703C13.5092 7.30175 14.8707 5.70546 17.0643 5.70546C19.2579 5.70546 20.6194 7.32029 20.6194 9.27703C20.6194 11.2338 19.2579 12.8671 17.0643 12.8671Z" fill="#AE0025"/>
<path d="M29.0767 4.41607C27.2085 4.41607 26.0488 5.43151 25.4659 6.73532V4.6344H23.9438V13.9361H25.4659V7.40886C26.2116 6.40989 27.2806 5.72194 28.5308 5.72194C30.1992 5.72194 31.0684 6.66529 31.0684 8.27806V13.9361H32.5926V8.00618C32.5926 5.81256 31.3403 4.41607 29.0746 4.41607H29.0767Z" fill="#AE0025"/>
<path d="M39.7625 8.4964L37.2764 8.13388C36.2795 8.00618 35.7728 7.69722 35.7728 7.00927C35.7728 6.08239 36.7698 5.61277 38.3846 5.61277C39.9994 5.61277 41.1034 6.15448 41.9191 6.82801V5.33677C41.2105 4.80947 39.7275 4.41401 38.3496 4.41401C35.9026 4.41401 34.3228 5.3759 34.3228 7.0793C34.3228 8.42019 35.2497 9.18023 37.0066 9.45417L39.6184 9.85376C40.6523 9.99794 41.1982 10.4882 41.1982 11.2132C41.1982 12.3563 40.1086 12.9372 38.5143 12.9372C36.9201 12.9372 35.5051 12.4099 34.2898 11.5036V12.9969C35.2167 13.5778 36.7903 14.1483 38.4958 14.1483C40.8521 14.1483 42.6482 13.0608 42.6482 11.102C42.6482 9.61483 41.6513 8.7621 39.7667 8.49022L39.7625 8.4964Z" fill="#AE0025"/>
<path d="M51.3918 4.6344V11.1802C50.6688 12.1586 49.6348 12.8465 48.3846 12.8465C46.6977 12.8465 45.8635 11.8867 45.8635 10.309V4.6344H44.3393V10.5623C44.3393 12.7394 45.536 14.1524 47.8573 14.1524C49.6884 14.1524 50.813 13.1205 51.3918 11.8332V13.9361H52.916V4.6344H51.3918Z" fill="#AE0025"/>
<path d="M66.8089 5.94027V4.6344H62.8377V1.53244L61.3135 1.83934V4.63234H58.9737V5.93821H61.3135V10.8157C61.3135 12.8651 62.331 14.1153 64.4876 14.1153C65.3341 14.1153 66.0736 13.9361 66.4752 13.7034V12.3769C66.018 12.62 65.4392 12.793 64.7409 12.793C63.4186 12.793 62.8377 12.0494 62.8377 10.725V5.94027H66.8089Z" fill="#AE0025"/>
<path d="M72.7636 4.41607C69.6987 4.41607 67.6843 6.48198 67.6843 9.27703C67.6843 12.0721 69.6966 14.1524 72.7636 14.1524C75.8305 14.1524 77.8223 12.068 77.8223 9.27703C77.8223 6.4861 75.8264 4.41607 72.7636 4.41607ZM72.7636 12.8671C70.57 12.8671 69.2085 11.2523 69.2085 9.27703C69.2085 7.30175 70.57 5.70546 72.7636 5.70546C74.9572 5.70546 76.3166 7.32029 76.3166 9.27703C76.3166 11.2338 74.9572 12.8671 72.7636 12.8671Z" fill="#AE0025"/>
<path d="M81.1652 8.27806V4.6344H79.641V13.9361H81.1652V8.94954C82.2466 7.62513 83.9191 6.78888 85.2703 6.19979V4.45726C83.7481 5.16581 81.9974 6.36045 81.1652 8.27806Z" fill="#AE0025"/>
<path d="M87.7193 0.970134C87.0664 0.970134 86.6853 1.3862 86.6853 1.96704C86.6853 2.54789 87.0664 2.94542 87.7193 2.94542C88.3722 2.94542 88.7718 2.52935 88.7718 1.96704C88.7718 1.40474 88.3722 0.970134 87.7193 0.970134ZM86.9572 4.6344V13.9361H88.4814V4.6344H86.9572Z" fill="#AE0025"/>
<path d="M95.5051 4.41607C93.8964 4.41607 92.5411 4.88568 91.5957 5.71576V7.16787C92.6132 6.22657 93.9994 5.68486 95.3238 5.68486C97.0107 5.68486 97.573 6.42842 97.573 7.60659V7.7137L93.8202 8.54995C91.7172 9.01957 90.4835 9.83522 90.4835 11.3965C90.4835 13.0814 91.5154 14.1504 93.4556 14.1504C95.3959 14.1504 96.9737 12.8816 97.573 11.8661V13.9341H99.0952V7.55098C99.0952 5.45005 97.8449 4.41401 95.5051 4.41401V4.41607ZM97.573 11.0711C96.7924 12.1215 95.4145 12.9743 93.9273 12.9743C92.6215 12.9743 92.0035 12.3563 92.0035 11.3429C92.0035 10.4367 92.7842 9.89289 94.1457 9.53038L97.573 8.6035V11.0711Z" fill="#AE0025"/>
<path d="M58.6935 12.6941V14.0865C58.4587 14.1298 58.191 14.1545 57.8799 14.1545C56.8027 14.1545 56.1539 13.8414 55.779 13.2729C55.4042 12.7065 55.2991 11.8805 55.2991 10.8568V0.698249L56.8213 0.409887V10.7621C56.8213 12.0865 56.8089 12.7374 58.1312 12.7374C58.3434 12.7374 58.5267 12.7209 58.6915 12.6941H58.6935Z" fill="#AE0025"/>
<path d="M24.4937 18.138V24.2842C23.95 22.9228 22.5906 21.8538 20.6853 21.8538C17.7852 21.8538 16.0262 23.9753 16.0262 26.7147C16.0262 29.4542 17.7852 31.5922 20.6853 31.5922C22.6091 31.5922 23.9314 30.5026 24.4937 29.1452V31.3738H26.018V17.8476L24.4937 18.138ZM24.4937 28.2904C23.6596 29.5778 22.4629 30.3028 21.0313 30.3028C18.7265 30.3028 17.5483 28.6159 17.5483 26.7127C17.5483 24.8095 18.7265 23.1411 21.0313 23.1411C22.4814 23.1411 23.6596 23.8661 24.4937 25.1535V28.2904Z" fill="#AE0025"/>
<path d="M37.6657 26.6035C37.6657 24.0124 35.9438 21.8538 32.9325 21.8538C29.9211 21.8538 27.8367 23.9567 27.8367 26.7147C27.8367 29.4727 29.777 31.5922 33.3115 31.5922C35.0149 31.5922 36.4464 31.0505 37.227 30.3996V28.8651C36.2672 29.7611 34.9551 30.3399 33.4042 30.3399C30.9016 30.3399 29.468 28.9619 29.3588 26.9495H37.6637V26.6035H37.6657ZM29.433 25.8084C29.7213 24.2286 30.9201 22.9969 32.916 22.9969C34.9119 22.9969 35.9067 24.2842 36.1807 25.8084H29.433Z" fill="#AE0025"/>
<path d="M47.7976 21.8538C45.9129 21.8538 44.5514 22.9228 43.9891 24.2842V17.8476L42.467 18.138V31.3738H43.9891V29.1452C44.57 30.5046 45.8944 31.5922 47.7976 31.5922C50.6997 31.5922 52.4567 29.4501 52.4567 26.7147C52.4567 23.9794 50.6997 21.8538 47.7976 21.8538ZM47.4701 30.3048C46.02 30.3048 44.8418 29.5798 43.9871 28.2925V25.1555C44.8398 23.8682 46.018 23.1432 47.4515 23.1432C49.7708 23.1432 50.9345 24.8301 50.9345 26.7147C50.9345 28.5994 49.7728 30.3048 47.4701 30.3048Z" fill="#AE0025"/>
<path d="M82.6688 30.1236L89.0519 23.2503V22.0721H81.0004V23.3223H87.1838L80.8007 30.1771V31.3738H89.124V30.1236H82.6668H82.6688Z" fill="#AE0025"/>
<path d="M63.5813 26.6035C63.5813 24.0124 61.8594 21.8538 58.848 21.8538C55.8367 21.8538 53.7522 23.9567 53.7522 26.7147C53.7522 29.4727 55.6925 31.5922 59.227 31.5922C60.9304 31.5922 62.3619 31.0505 63.1426 30.3996V28.8651C62.1827 29.7611 60.8707 30.3399 59.3197 30.3399C56.8171 30.3399 55.3836 28.9619 55.2744 26.9495H63.5792V26.6035H63.5813ZM55.3485 25.8084C55.6369 24.2286 56.8357 22.9969 58.8315 22.9969C60.8274 22.9969 61.8223 24.2842 62.0962 25.8084H55.3485Z" fill="#AE0025"/>
<path d="M79.4 26.6035C79.4 24.0124 77.6781 21.8538 74.6668 21.8538C71.6554 21.8538 69.571 23.9567 69.571 26.7147C69.571 29.4727 71.5113 31.5922 75.0458 31.5922C76.7492 31.5922 78.1807 31.0505 78.9613 30.3996V28.8651C78.0015 29.7611 76.6894 30.3399 75.1385 30.3399C72.6359 30.3399 71.2023 28.9619 71.0931 26.9495H79.398V26.6035H79.4ZM71.1673 25.8084C71.4556 24.2286 72.6544 22.9969 74.6503 22.9969C76.6462 22.9969 77.641 24.2842 77.915 25.8084H71.1673Z" fill="#AE0025"/>
<path d="M95.5051 21.8538C93.8964 21.8538 92.5411 22.3234 91.5957 23.1535V24.6056C92.6132 23.6643 93.9994 23.1226 95.3238 23.1226C97.0107 23.1226 97.573 23.8661 97.573 25.0443V25.1514L93.8202 25.9876C91.7172 26.4573 90.4835 27.2729 90.4835 28.8342C90.4835 30.5191 91.5154 31.5881 93.4556 31.5881C95.3959 31.5881 96.9737 30.3193 97.573 29.3038V31.3718H99.0952V24.9887C99.0952 22.8877 97.8449 21.8517 95.5051 21.8517V21.8538ZM97.573 28.5108C96.7924 29.5613 95.4145 30.414 93.9273 30.414C92.6215 30.414 92.0035 29.7961 92.0035 28.7827C92.0035 27.8764 92.7842 27.3326 94.1457 26.9701L97.573 26.0433V28.5108Z" fill="#AE0025"/>
<path d="M68.7141 30.1318V31.5242C68.4793 31.5675 68.2116 31.5922 67.9005 31.5922C66.8233 31.5922 66.1745 31.2791 65.7996 30.7106C65.4248 30.1442 65.3197 29.3182 65.3197 28.2945V18.138L66.8418 17.8496V28.2019C66.8418 29.5263 66.8295 30.1771 68.1518 30.1771C68.364 30.1771 68.5473 30.1607 68.7121 30.1339L68.7141 30.1318Z" fill="#AE0025"/>
<path d="M169.826 24.966L169.157 26.4902C169.299 26.4779 169.427 26.4717 169.546 26.4717C169.791 26.4717 170.006 26.4943 170.181 26.5417C170.36 26.5891 170.508 26.655 170.628 26.7394L169.826 24.966ZM181.227 25.4027C181.155 25.2194 181.052 25.0608 180.916 24.9248C180.786 24.793 180.636 24.69 180.45 24.6097C180.277 24.5335 180.08 24.4943 179.863 24.4943C179.647 24.4943 179.443 24.5355 179.27 24.6097C179.085 24.688 178.935 24.793 178.805 24.9248C178.675 25.0546 178.572 25.2132 178.494 25.4068C178.418 25.5963 178.38 25.8002 178.38 26.0144C178.38 26.2286 178.418 26.4387 178.494 26.6344C178.57 26.8301 178.673 26.9887 178.805 27.1246C178.937 27.2606 179.093 27.3677 179.27 27.4418C179.443 27.518 179.645 27.5572 179.863 27.5572C180.082 27.5572 180.277 27.516 180.45 27.4418C180.626 27.3656 180.784 27.2585 180.916 27.1246C181.052 26.9866 181.159 26.8218 181.227 26.6365C181.303 26.447 181.34 26.2369 181.34 26.0144C181.34 25.792 181.303 25.5963 181.227 25.4047V25.4027ZM181.227 25.4027C181.155 25.2194 181.052 25.0608 180.916 24.9248C180.786 24.793 180.636 24.69 180.45 24.6097C180.277 24.5335 180.08 24.4943 179.863 24.4943C179.647 24.4943 179.443 24.5355 179.27 24.6097C179.085 24.688 178.935 24.793 178.805 24.9248C178.675 25.0546 178.572 25.2132 178.494 25.4068C178.418 25.5963 178.38 25.8002 178.38 26.0144C178.38 26.2286 178.418 26.4387 178.494 26.6344C178.57 26.8301 178.673 26.9887 178.805 27.1246C178.937 27.2606 179.093 27.3677 179.27 27.4418C179.443 27.518 179.645 27.5572 179.863 27.5572C180.082 27.5572 180.277 27.516 180.45 27.4418C180.626 27.3656 180.784 27.2585 180.916 27.1246C181.052 26.9866 181.159 26.8218 181.227 26.6365C181.303 26.447 181.34 26.2369 181.34 26.0144C181.34 25.792 181.303 25.5963 181.227 25.4047V25.4027ZM164.687 4.3378V30.8939H191.239V4.3378H164.687ZM171.295 28.2987C171.186 28.1133 171.07 27.9526 170.945 27.8187C170.819 27.6849 170.685 27.5757 170.537 27.4851C170.387 27.3924 170.222 27.3306 170.043 27.2894C169.863 27.2482 169.664 27.2276 169.449 27.2276C169.346 27.2276 169.243 27.2317 169.134 27.24C169.029 27.2461 168.914 27.2585 168.799 27.2791L168.354 28.2987H167.363L169.478 23.7528H170.164L172.277 28.2987H171.293H171.295ZM176.893 23.8146L174.827 28.2945H174.104L174.092 28.2698L172.039 23.7528H173.169L174.486 26.7765L175.806 23.7528H176.918L176.889 23.8167L176.893 23.8146ZM182.181 26.9907C182.051 27.2935 181.876 27.5572 181.655 27.7673C181.435 27.9835 181.167 28.1565 180.86 28.2822C180.549 28.4058 180.214 28.4676 179.863 28.4676C179.513 28.4676 179.171 28.4037 178.865 28.2822C178.553 28.1565 178.286 27.9835 178.065 27.7673C177.845 27.553 177.67 27.2935 177.54 26.9907C177.41 26.6982 177.349 26.3708 177.349 26.0185C177.349 25.6663 177.412 25.345 177.54 25.0505C177.67 24.7477 177.843 24.4964 178.065 24.2781C178.288 24.0639 178.556 23.8908 178.865 23.7652C179.173 23.6457 179.509 23.5819 179.863 23.5819C180.218 23.5819 180.549 23.6457 180.856 23.7652C181.165 23.8908 181.431 24.0639 181.655 24.2781C181.878 24.4985 182.051 24.7497 182.181 25.0505C182.31 25.345 182.372 25.6704 182.372 26.0185C182.372 26.3666 182.31 26.6982 182.181 26.9907ZM187.785 28.2945H187.013L186.996 28.2822L184.673 25.5345V28.2945H183.67V23.7528H184.446L184.459 23.7693L186.782 26.5129V23.7528H187.785V28.2945ZM180.916 24.9248C180.786 24.793 180.636 24.69 180.45 24.6097C180.277 24.5335 180.08 24.4943 179.863 24.4943C179.647 24.4943 179.443 24.5355 179.27 24.6097C179.085 24.688 178.935 24.793 178.805 24.9248C178.675 25.0546 178.572 25.2132 178.494 25.4068C178.418 25.5963 178.38 25.8002 178.38 26.0144C178.38 26.2286 178.418 26.4387 178.494 26.6344C178.57 26.8301 178.673 26.9887 178.805 27.1246C178.937 27.2606 179.093 27.3677 179.27 27.4418C179.443 27.518 179.645 27.5572 179.863 27.5572C180.082 27.5572 180.277 27.516 180.45 27.4418C180.626 27.3656 180.784 27.2585 180.916 27.1246C181.052 26.9866 181.159 26.8218 181.227 26.6365C181.303 26.447 181.34 26.2369 181.34 26.0144C181.34 25.792 181.303 25.5963 181.227 25.4047C181.155 25.2214 181.052 25.0628 180.916 24.9269V24.9248Z" fill="#AE0025"/>
<path d="M124.553 24.9928C122.551 24.9928 121.429 26.1936 121.429 28.1442V30.7085H122.79V28.0103C122.79 26.5149 123.324 25.6066 124.553 25.6066C125.703 25.6066 126.236 26.5149 126.236 28.0103V30.7085H127.598V28.1442C127.598 26.1936 126.582 24.9928 124.553 24.9928Z" fill="#AE0025"/>
<path d="M131.87 24.9928C130.24 24.9928 128.745 26.0886 128.745 28.0103C128.745 29.827 129.973 30.8939 131.682 30.8939C132.591 30.8939 133.285 30.5191 133.658 29.8249V30.7065H134.965V28.1689C134.965 26.2183 133.896 24.9907 131.868 24.9907L131.87 24.9928ZM131.87 30.2801C130.669 30.2801 130.107 29.4789 130.107 28.0103C130.107 26.6756 130.667 25.6066 131.87 25.6066C133.073 25.6066 133.606 26.6756 133.606 28.0103C133.606 29.345 132.885 30.2801 131.87 30.2801Z" fill="#AE0025"/>
<path d="M145.223 27.8764C145.223 29.3718 144.743 30.2801 143.567 30.2801C142.391 30.2801 141.964 29.3718 141.964 27.8764V25.1782H140.603V27.7425C140.603 29.6931 141.565 30.8939 143.567 30.8939C145.569 30.8939 146.584 29.6931 146.584 27.7425V25.1782H145.223V27.8764Z" fill="#AE0025"/>
<path d="M154.624 24.9928C152.994 24.9928 151.499 26.0886 151.499 28.0103C151.499 29.827 152.727 30.8939 154.436 30.8939C155.344 30.8939 156.039 30.5191 156.411 29.8249V30.7065H157.719V28.1689C157.719 26.2183 156.65 24.9907 154.621 24.9907L154.624 24.9928ZM154.624 30.2801C153.423 30.2801 152.86 29.4789 152.86 28.0103C152.86 26.6756 153.421 25.6066 154.624 25.6066C155.826 25.6066 156.36 26.6756 156.36 28.0103C156.36 29.345 155.639 30.2801 154.624 30.2801Z" fill="#AE0025"/>
<path d="M148.055 27.5572V30.7085H149.417V27.3965C149.417 26.3275 149.657 25.6334 150.751 25.6334C150.885 25.6334 151.046 25.6334 151.204 25.6601V25.0999C150.91 25.0196 150.617 24.9928 150.323 24.9928C149.015 24.9928 148.053 25.7405 148.053 27.5572H148.055Z" fill="#AE0025"/>
<path d="M138.869 30.2533C138.201 30.2533 137.8 29.827 137.8 28.517V25.8187H139.59V25.1782H137.8V23.7899H136.438V28.3028C136.438 30.2781 137.507 30.8939 138.654 30.8939C139.215 30.8939 139.723 30.7333 140.096 30.4676C139.962 30.3337 139.855 30.173 139.802 30.0144C139.534 30.1751 139.241 30.2554 138.867 30.2554L138.869 30.2533Z" fill="#AE0025"/>
<path d="M144.768 12.0783C144.768 12.8651 144.368 13.8187 144.086 14.3234C143.929 14.6035 143.89 14.6674 143.89 14.7106C143.89 14.7415 143.909 14.7662 143.946 14.7662C144.135 14.7662 145.709 13.5551 146.813 13.5551C147.46 13.5551 148.053 13.8991 148.053 14.7106C148.053 15.5221 147.501 16.8713 145.664 17.8558C145.532 17.9258 145.256 18.0721 145.062 18.1751C144.815 18.3069 144.749 18.3708 144.749 18.4531C144.749 18.6612 145.48 18.5623 145.48 18.9907C145.48 19.2194 145.202 19.5963 144.471 20.0041C143.804 20.3769 142.914 20.6818 141.81 20.6818C141.023 20.6818 140.582 20.5273 140.498 20.5273C140.465 20.5273 140.44 20.5376 140.405 20.5685C140.36 20.6076 139.795 21.0896 138.483 21.0896C136.976 21.0896 135.287 20.4717 135.287 19.897C135.287 19.6169 135.641 19.5386 135.641 19.4789C135.641 19.4542 135.6 19.4459 135.581 19.4418C133.476 18.8733 131.101 17.7528 131.101 16.241C131.101 15.8229 131.396 15.6066 131.822 15.6066C132.562 15.6066 133.585 15.9485 133.808 15.9485C133.861 15.9485 133.882 15.9197 133.882 15.8888C133.882 15.8476 133.849 15.8023 133.785 15.7487C132.436 14.6035 131.874 13.5489 131.874 12.6674C131.874 11.5263 132.698 10.6632 133.791 10.447C135.808 10.0494 137.023 11.7714 138.098 13.1535C138.129 13.1926 138.183 13.2729 138.251 13.2729C138.333 13.2729 138.354 13.1926 138.43 12.8898C138.504 12.587 138.527 12.4923 138.621 12.105C138.937 10.826 139.695 9.20082 141.884 9.20082C143.173 9.20082 144.768 10.0721 144.768 12.0803V12.0783ZM138.529 14.9537C138.121 14.9537 137.907 14.725 137.491 14.206C137.425 14.1236 137.136 13.7755 137.062 13.6869C136.057 12.4717 135.326 11.9238 134.494 11.9238C133.991 11.9238 133.235 12.206 133.235 13.1658C133.235 13.2915 133.252 13.829 133.773 14.4676C134.438 15.2791 135.4 16.3522 135.487 16.4531C135.577 16.5561 135.625 16.6653 135.622 16.7621C135.622 16.8157 135.606 17.0525 135.204 17.0525C134.803 17.0525 133.099 16.552 132.5 16.552C132.222 16.552 132.043 16.6715 132.043 16.8754C132.043 17.4027 133.07 18.484 136.302 19.2132C136.708 19.3038 136.743 19.4501 136.743 19.4995C136.743 19.689 136.24 19.7755 136.24 20.0968C136.24 20.5664 137.758 20.7745 138.195 20.7745C138.97 20.7745 139.351 20.5479 139.639 20.3481C139.886 20.1792 140.026 20.1133 140.191 20.1133C140.537 20.1133 140.862 20.3296 141.915 20.3296C143.196 20.3296 144.541 19.6601 144.541 19.2976C144.541 19.1555 144.329 19.1184 143.851 18.9619C143.6 18.8795 143.456 18.7765 143.456 18.62C143.456 18.4634 143.577 18.3522 143.94 18.1957C144.327 18.0268 144.603 17.9032 144.889 17.7673C146.446 17.0175 147.05 16.1009 147.054 15.4398C147.056 15.0154 146.813 14.7271 146.415 14.7271C145.892 14.7271 145.318 15.0299 144.757 15.3141C143.709 15.8455 143.328 16.0474 142.961 16.0474C142.702 16.0474 142.58 15.8249 142.578 15.6931C142.578 15.6169 142.591 15.5304 142.624 15.4356C142.759 15.069 142.854 14.8239 143.003 14.4325C143.221 13.8558 143.484 13.1967 143.484 12.5438C143.484 11.5242 142.694 10.8301 141.653 10.8301C140.49 10.8301 139.993 11.9258 139.697 12.7971C139.616 13.036 139.309 13.9629 139.217 14.243C139.054 14.7291 138.838 14.9578 138.527 14.9578L138.529 14.9537Z" fill="#AE0025"/>
<path d="M119.47 1.3656V0H118.599C113.157 0 108.731 4.42636 108.731 9.86612V32H110.096V9.86612C110.096 5.17817 113.909 1.3656 118.597 1.3656H119.47Z" fill="#AE0025"/>
</svg>
