<svg width="186" height="32" viewBox="0 0 186 32" fill="none" xmlns="http://www.w3.org/2000/svg">
<path d="M48.1836 5.91122H46.0602V4.62143H48.1836V3.78775C48.1836 2.70941 48.4646 1.88781 49.0264 1.31994C49.5882 0.752074 50.4159 0.46814 51.5033 0.46814C51.7932 0.46814 52.0651 0.492304 52.3218 0.540633C52.5756 0.588963 52.793 0.667498 52.9743 0.776239L53.1918 2.1204C52.9864 1.98749 52.7538 1.88781 52.494 1.82136C52.2342 1.75491 51.9654 1.72168 51.6875 1.72168C51.0351 1.72168 50.5397 1.89385 50.2074 2.2382C49.8752 2.58254 49.709 3.12625 49.709 3.86327V4.62445H53.1585V5.91424H49.709V13.9369H48.1836V5.91122Z" fill="#AE0025"/>
<path d="M56.297 13.5201C55.5358 13.0972 54.9407 12.5142 54.5179 11.7772C54.095 11.0402 53.8835 10.2035 53.8835 9.27316C53.8835 8.34283 54.092 7.50613 54.5088 6.7691C54.9256 6.03208 55.5177 5.45213 56.2879 5.03529C57.0551 4.61845 57.9492 4.41003 58.9642 4.41003C59.9791 4.41003 60.855 4.61845 61.6223 5.03529C62.3895 5.45213 62.9845 6.03208 63.4014 6.7691C63.8182 7.50613 64.0266 8.34283 64.0266 9.27316C64.0266 10.2035 63.8182 11.0402 63.4014 11.7772C62.9845 12.5142 62.3895 13.0972 61.6223 13.5201C60.855 13.943 59.967 14.1544 58.9642 14.1544C57.9613 14.1544 57.0582 13.943 56.297 13.5201ZM60.846 12.3844C61.3836 12.0642 61.8005 11.6322 62.0905 11.0855C62.3804 10.5418 62.5254 9.94071 62.5254 9.28827C62.5254 8.63582 62.3804 8.0166 62.0905 7.4729C61.8005 6.9292 61.3867 6.49423 60.846 6.17405C60.3083 5.85387 59.68 5.69378 58.9672 5.69378C58.2543 5.69378 57.626 5.85387 57.0884 6.17405C56.5507 6.49423 56.1339 6.92618 55.8439 7.4729C55.5539 8.01962 55.4089 8.62374 55.4089 9.28827C55.4089 9.95279 55.5539 10.5418 55.8439 11.0855C56.1339 11.6292 56.5477 12.0642 57.0884 12.3844C57.626 12.7045 58.2543 12.8646 58.9672 12.8646C59.68 12.8646 60.3083 12.7045 60.846 12.3844Z" fill="#AE0025"/>
<path d="M66.4098 4.62447H67.9352V8.27333C68.3097 7.4034 68.8655 6.65128 69.6056 6.023C70.3426 5.39472 71.1612 4.86612 72.0552 4.44324L72.5265 5.98675C71.5206 6.40963 70.6386 6.8446 69.8774 7.2856C69.1162 7.7266 68.4668 8.28239 67.9352 8.94692V13.9399H66.4098V4.62447Z" fill="#AE0025"/>
<path d="M74.0972 6.79324C74.5262 6.05018 75.1303 5.46418 75.9035 5.0413C76.6768 4.61842 77.5437 4.40698 78.4982 4.40698C79.3198 4.40698 80.0236 4.50364 80.6036 4.69696C81.1835 4.89028 81.6517 5.16213 82.0021 5.51251L82.2739 7.40037C81.8269 6.84459 81.3074 6.41869 80.7214 6.12871C80.1354 5.83874 79.4708 5.69375 78.7338 5.69375C77.9968 5.69375 77.3413 5.85082 76.7735 6.16496C76.2056 6.4791 75.7616 6.91104 75.4474 7.46381C75.1333 8.01355 74.9762 8.61767 74.9762 9.27011C74.9762 9.92256 75.1303 10.5267 75.4384 11.0764C75.7465 11.6262 76.1845 12.0641 76.7553 12.3843C77.3232 12.7045 77.9787 12.8646 78.7157 12.8646C79.4527 12.8646 80.1595 12.7196 80.7939 12.4296C81.4282 12.1397 81.984 11.7107 82.4552 11.1399L82.1652 13.0277C81.7665 13.3781 81.25 13.653 80.6217 13.8523C79.9934 14.0517 79.2896 14.1514 78.5163 14.1514C77.5467 14.1514 76.6798 13.9369 75.9126 13.508C75.1454 13.0791 74.5413 12.49 74.1063 11.747C73.6713 11.0039 73.4539 10.1763 73.4539 9.27011C73.4539 8.36394 73.6683 7.5363 74.0972 6.79324ZM77.9908 17.1508C77.7975 17.1146 77.6041 17.0602 77.4108 16.9877L77.1933 16.1721C77.6041 16.3413 78.0391 16.4259 78.5012 16.4259C78.7791 16.4259 78.9906 16.3866 79.1356 16.3081C79.2806 16.2295 79.3531 16.0996 79.3531 15.9184C79.3531 15.6043 79.0751 15.423 78.5194 15.3747L77.7008 15.3022L78.2807 13.6862H78.9694L78.6795 14.7041L78.9694 14.7223C79.4648 14.7827 79.8484 14.9095 80.1142 15.1028C80.38 15.2962 80.5129 15.568 80.5129 15.9184C80.5129 16.3413 80.3438 16.6615 80.0055 16.882C79.6672 17.0995 79.199 17.2082 78.607 17.2082C78.3895 17.2082 78.1841 17.1901 77.9908 17.1538V17.1508Z" fill="#AE0025"/>
<path d="M84.6813 10.0797C84.9411 9.71115 85.3156 9.40607 85.808 9.1614C86.2973 8.91976 86.9074 8.71436 87.6324 8.54521L91.39 7.71153V7.60278C91.39 6.9745 91.2178 6.49423 90.8735 6.16801C90.5291 5.84179 89.9492 5.67868 89.1397 5.67868C88.4268 5.67868 87.7139 5.83273 87.0071 6.14083C86.3003 6.44892 85.6841 6.86878 85.1646 7.40343L85.4002 5.71492C85.8714 5.29204 86.4453 4.96884 87.1159 4.74532C87.7864 4.5218 88.5235 4.41003 89.3209 4.41003C90.508 4.41003 91.4021 4.67282 92.0062 5.1984C92.6103 5.72398 92.9124 6.50934 92.9124 7.54841V13.94H91.387V11.8709C91.0366 12.4629 90.4899 12.9945 89.7528 13.4597C89.0158 13.9249 88.1852 14.1574 87.2669 14.1574C86.3486 14.1574 85.5754 13.9128 85.0619 13.4234C84.5484 12.9341 84.2916 12.2575 84.2916 11.3997C84.2916 10.8922 84.4215 10.4542 84.6813 10.0827V10.0797ZM86.2973 12.5475C86.6175 12.8314 87.0977 12.9734 87.7411 12.9734C88.454 12.9734 89.1366 12.7952 89.783 12.4387C90.4294 12.0823 90.9671 11.6262 91.39 11.0674V8.59958L87.9586 9.52387C87.2458 9.70511 86.7081 9.94373 86.3517 10.2397C85.9952 10.5358 85.817 10.9013 85.817 11.3392C85.817 11.8588 85.9771 12.2635 86.2973 12.5475Z" fill="#AE0025"/>
<path d="M1.55502 24.3036C1.93561 23.5665 2.4763 22.9836 3.18009 22.5607C3.88086 22.1378 4.70548 21.9264 5.6479 21.9264C6.59032 21.9264 7.34547 22.1529 8.01604 22.606C8.6866 23.0591 9.1699 23.6451 9.45987 24.3579V18.205L10.9853 17.915V31.4563H9.45987V29.2241C9.15781 29.949 8.6715 30.5411 8.00697 30.9941C7.34245 31.4472 6.55408 31.6738 5.6479 31.6738C4.74173 31.6738 3.88086 31.4593 3.18009 31.0304C2.47932 30.6015 1.93561 30.0155 1.55502 29.2785C1.17443 28.5414 0.984131 27.7108 0.984131 26.7925C0.984131 25.8743 1.17443 25.0436 1.55502 24.3066V24.3036ZM2.90824 28.5867C3.17405 29.1304 3.56975 29.5684 4.09835 29.8946C4.62393 30.2209 5.25825 30.384 5.99527 30.384C6.73229 30.384 7.36057 30.2118 7.94656 29.8675C8.53255 29.5231 9.04001 29.0247 9.46289 28.3693V25.2279C9.04001 24.5754 8.53255 24.074 7.94656 23.7297C7.36057 23.3853 6.70813 23.2131 5.99527 23.2131C5.28241 23.2131 4.62393 23.3762 4.09835 23.7025C3.57277 24.0287 3.17405 24.4636 2.90824 25.0013C2.64243 25.539 2.50952 26.1371 2.50952 26.7895C2.50952 27.4419 2.64243 28.043 2.90824 28.5867Z" fill="#AE0025"/>
<path d="M21.0982 31.3385C20.4095 31.5621 19.6573 31.6738 18.8478 31.6738C17.697 31.6738 16.7123 31.4563 15.8877 31.0214C15.063 30.5864 14.4378 29.9944 14.0089 29.2513C13.5799 28.5083 13.3655 27.6867 13.3655 26.7926C13.3655 25.8985 13.5739 25.0437 13.9907 24.3066C14.4076 23.5696 15.0057 22.9866 15.7789 22.5638C16.5522 22.1409 17.4493 21.9294 18.4642 21.9294C19.4791 21.9294 20.2766 22.1409 20.9955 22.5638C21.7144 22.9866 22.2641 23.5606 22.6387 24.2795C23.0132 24.9984 23.2005 25.8018 23.2005 26.6838V27.0282H14.3774V25.8834H22.5088L21.7657 26.3002C21.7174 25.7203 21.5603 25.1826 21.2945 24.6933C21.0287 24.2039 20.6572 23.8113 20.1769 23.5122C19.6996 23.2162 19.1197 23.0682 18.4431 23.0682C17.694 23.0682 17.0506 23.2313 16.519 23.5575C15.9873 23.8838 15.5796 24.3157 15.3017 24.8564C15.0238 25.394 14.8848 25.9982 14.8848 26.6627V26.8077C14.8848 27.5205 15.0419 28.1518 15.356 28.6955C15.6702 29.2392 16.1323 29.6651 16.7455 29.9672C17.3587 30.2693 18.0866 30.4203 18.9324 30.4203C19.7782 30.4203 20.5786 30.2542 21.2915 29.9219C22.0043 29.5896 22.6175 29.1396 23.125 28.5687L22.7625 30.4747C22.3396 30.825 21.7808 31.112 21.0921 31.3355L21.0982 31.3385Z" fill="#AE0025"/>
<path d="M29.867 22.1438L33.0084 29.8221L36.1316 22.1438H37.7476L33.8088 31.4562H32.1565L28.2358 22.1438H29.87H29.867Z" fill="#AE0025"/>
<path d="M46.4408 31.3385C45.7521 31.5621 45 31.6738 44.1905 31.6738C43.0396 31.6738 42.0549 31.4563 41.2303 31.0214C40.4057 30.5864 39.7804 29.9944 39.3515 29.2513C38.9226 28.5083 38.7081 27.6867 38.7081 26.7926C38.7081 25.8985 38.9165 25.0437 39.3334 24.3066C39.7502 23.5696 40.3483 22.9866 41.1216 22.5638C41.8948 22.1409 42.792 21.9294 43.8069 21.9294C44.8218 21.9294 45.6192 22.1409 46.3381 22.5638C47.057 22.9866 47.6067 23.5606 47.9813 24.2795C48.3559 24.9984 48.5431 25.8018 48.5431 26.6838V27.0282H39.72V25.8834H47.8514L47.1084 26.3002C47.06 25.7203 46.903 25.1826 46.6371 24.6933C46.3713 24.2039 45.9998 23.8113 45.5195 23.5122C45.0423 23.2162 44.4623 23.0682 43.7857 23.0682C43.0366 23.0682 42.3932 23.2313 41.8616 23.5575C41.33 23.8838 40.9222 24.3157 40.6443 24.8564C40.3664 25.394 40.2275 25.9982 40.2275 26.6627V26.8077C40.2275 27.5205 40.3845 28.1518 40.6987 28.6955C41.0128 29.2392 41.475 29.6651 42.0882 29.9672C42.7013 30.2693 43.4293 30.4203 44.2751 30.4203C45.1208 30.4203 45.9213 30.2542 46.6341 29.9219C47.347 29.5896 47.9602 29.1396 48.4676 28.5687L48.1051 30.4747C47.6823 30.825 47.1235 31.112 46.4348 31.3355L46.4408 31.3385Z" fill="#AE0025"/>
<path d="M50.869 22.1439H52.3944V24.2492C52.7085 23.5364 53.1677 22.9685 53.7748 22.5517C54.3789 22.1348 55.125 21.9264 56.007 21.9264C57.1216 21.9264 57.9855 22.2496 58.6017 22.899C59.2179 23.5484 59.529 24.4214 59.529 25.5209V31.4563H58.0036V25.7927C58.0036 24.9832 57.7861 24.3519 57.3512 23.9049C56.9162 23.4578 56.2849 23.2343 55.4633 23.2343C54.8471 23.2343 54.2762 23.3853 53.7567 23.6874C53.2372 23.9894 52.781 24.4002 52.3944 24.9228V31.4593H50.869V22.1439Z" fill="#AE0025"/>
<path d="M62.3683 24.3036C62.7488 23.5665 63.2895 22.9836 63.9933 22.5607C64.6941 22.1378 65.5187 21.9264 66.4611 21.9264C67.4036 21.9264 68.1587 22.1529 68.8293 22.606C69.4998 23.0591 69.9831 23.6451 70.2731 24.3579V18.205L71.7985 17.915V31.4563H70.2731V29.2241C69.971 29.949 69.4847 30.5411 68.8202 30.9941C68.1557 31.4472 67.3673 31.6738 66.4611 31.6738C65.555 31.6738 64.6941 31.4593 63.9933 31.0304C63.2926 30.6015 62.7488 30.0155 62.3683 29.2785C61.9877 28.5414 61.7974 27.7108 61.7974 26.7925C61.7974 25.8743 61.9877 25.0436 62.3683 24.3066V24.3036ZM63.7215 28.5867C63.9873 29.1304 64.383 29.5684 64.9116 29.8946C65.4372 30.2209 66.0715 30.384 66.8085 30.384C67.5455 30.384 68.1738 30.2118 68.7598 29.8675C69.3458 29.5231 69.8532 29.0247 70.2761 28.3693V25.2279C69.8532 24.5754 69.3458 24.074 68.7598 23.7297C68.1738 23.3853 67.5214 23.2131 66.8085 23.2131C66.0956 23.2131 65.4372 23.3762 64.9116 23.7025C64.386 24.0287 63.9873 24.4636 63.7215 25.0013C63.4557 25.539 63.3228 26.1371 63.3228 26.7895C63.3228 27.4419 63.4557 28.043 63.7215 28.5867Z" fill="#AE0025"/>
<path d="M74.7678 27.5991C75.0276 27.2306 75.4022 26.9255 75.8945 26.6808C76.3838 26.4392 76.994 26.2338 77.7189 26.0646L81.4765 25.2309V25.1222C81.4765 24.4939 81.3044 24.0136 80.96 23.6874C80.6157 23.3612 80.0357 23.1981 79.2262 23.1981C78.5133 23.1981 77.8005 23.3521 77.0937 23.6602C76.3869 23.9683 75.7707 24.3882 75.2511 24.9228L75.4867 23.2343C75.9579 22.8115 76.5318 22.4883 77.2024 22.2647C77.873 22.0412 78.61 21.9294 79.4074 21.9294C80.5945 21.9294 81.4886 22.1922 82.0927 22.7178C82.6968 23.2434 82.9989 24.0287 82.9989 25.0678V31.4594H81.4735V29.3903C81.1231 29.9823 80.5764 30.5139 79.8394 30.9791C79.1024 31.4443 78.2717 31.6768 77.3534 31.6768C76.4352 31.6768 75.6619 31.4322 75.1484 30.9428C74.6349 30.4535 74.3782 29.7769 74.3782 28.9191C74.3782 28.4116 74.5081 27.9736 74.7678 27.6021V27.5991ZM76.3838 30.0669C76.704 30.3508 77.1843 30.4928 77.8277 30.4928C78.5405 30.4928 79.2232 30.3146 79.8696 29.9581C80.516 29.6017 81.0537 29.1456 81.4765 28.5868V26.119L78.0452 27.0433C77.3323 27.2245 76.7946 27.4631 76.4382 27.7592C76.0818 28.0552 75.9036 28.4207 75.9036 28.8586C75.9036 29.3782 76.0637 29.7829 76.3838 30.0669Z" fill="#AE0025"/>
<path d="M87.3485 30.085C88.0674 30.3327 88.8105 30.4565 89.5717 30.4565C90.3933 30.4565 91.0487 30.3085 91.532 30.0125C92.0153 29.7165 92.257 29.2906 92.257 28.7318C92.257 28.3693 92.121 28.0702 91.8492 27.8316C91.5773 27.593 91.1877 27.442 90.6772 27.3695L88.0614 26.9708C87.1794 26.8379 86.5088 26.5751 86.0557 26.1824C85.6026 25.7897 85.3761 25.2611 85.3761 24.5936C85.3761 23.7478 85.7386 23.0893 86.4665 22.6241C87.1915 22.159 88.1731 21.9264 89.4086 21.9264C90.0973 21.9264 90.7346 21.9959 91.3145 22.1348C91.8945 22.2738 92.3627 22.4701 92.7131 22.7238L92.9849 24.3398C92.5379 23.9774 92.0153 23.6844 91.4233 23.4608C90.8313 23.2373 90.1697 23.1256 89.4448 23.1256C88.6202 23.1256 87.9798 23.2434 87.5207 23.479C87.0616 23.7146 86.832 24.0619 86.832 24.5241C86.832 24.8624 86.9528 25.1161 87.1945 25.2853C87.4361 25.4544 87.8167 25.5753 88.3393 25.6477L90.8252 26.0102C91.7676 26.1431 92.4865 26.4271 92.9759 26.865C93.4652 27.3 93.7099 27.889 93.7099 28.626C93.7099 29.5836 93.3232 30.3296 92.5469 30.8673C91.7737 31.405 90.7739 31.6738 89.5505 31.6738C88.001 31.6738 86.6931 31.3355 85.6298 30.6559L85.3398 29.0217C85.956 29.4809 86.6266 29.8373 87.3455 30.085H87.3485Z" fill="#AE0025"/>
<path d="M163.603 24.9681L162.932 26.4935C163.074 26.4814 163.201 26.4753 163.322 26.4753C163.567 26.4753 163.781 26.4965 163.956 26.5448C164.135 26.5931 164.283 26.6596 164.403 26.7411L163.603 24.9681ZM175.003 25.403C174.93 25.2188 174.827 25.0617 174.691 24.9258C174.562 24.7929 174.411 24.6902 174.226 24.6116C174.054 24.5361 173.855 24.4969 173.64 24.4969C173.426 24.4969 173.22 24.5391 173.048 24.6116C172.861 24.6902 172.713 24.7959 172.583 24.9258C172.453 25.0557 172.351 25.2127 172.272 25.4091C172.196 25.5994 172.16 25.8017 172.16 26.0162C172.16 26.2307 172.196 26.4391 172.272 26.6354C172.348 26.8318 172.45 26.9888 172.583 27.1248C172.716 27.2607 172.87 27.3664 173.048 27.4419C173.22 27.5174 173.423 27.5567 173.64 27.5567C173.858 27.5567 174.054 27.5144 174.226 27.4419C174.401 27.3664 174.562 27.2577 174.691 27.1248C174.827 26.9858 174.933 26.8227 175.003 26.6354C175.078 26.4451 175.117 26.2367 175.117 26.0132C175.117 25.7897 175.081 25.5963 175.003 25.403ZM175.003 25.403C174.93 25.2188 174.827 25.0617 174.691 24.9258C174.562 24.7929 174.411 24.6902 174.226 24.6116C174.054 24.5361 173.855 24.4969 173.64 24.4969C173.426 24.4969 173.22 24.5391 173.048 24.6116C172.861 24.6902 172.713 24.7959 172.583 24.9258C172.453 25.0557 172.351 25.2127 172.272 25.4091C172.196 25.5994 172.16 25.8017 172.16 26.0162C172.16 26.2307 172.196 26.4391 172.272 26.6354C172.348 26.8318 172.45 26.9888 172.583 27.1248C172.716 27.2607 172.87 27.3664 173.048 27.4419C173.22 27.5174 173.423 27.5567 173.64 27.5567C173.858 27.5567 174.054 27.5144 174.226 27.4419C174.401 27.3664 174.562 27.2577 174.691 27.1248C174.827 26.9858 174.933 26.8227 175.003 26.6354C175.078 26.4451 175.117 26.2367 175.117 26.0132C175.117 25.7897 175.081 25.5963 175.003 25.403ZM158.462 4.33752V30.8944H185.016V4.33752H158.462ZM165.071 28.2998C164.962 28.1155 164.847 27.9524 164.721 27.8195C164.597 27.6866 164.461 27.5778 164.313 27.4872C164.162 27.3936 163.999 27.3332 163.817 27.2909C163.639 27.2486 163.44 27.2305 163.225 27.2305C163.123 27.2305 163.02 27.2335 162.911 27.2426C162.806 27.2486 162.691 27.2607 162.576 27.2818L162.132 28.3028H161.141L163.259 23.7568H163.944L166.059 28.3028H165.074L165.071 28.2998ZM170.668 23.8142L168.602 28.2937H167.88L167.868 28.2696L165.814 23.7538H166.944L168.261 26.7774L169.581 23.7538H170.692L170.665 23.8172H170.668V23.8142ZM175.957 26.9919C175.827 27.2939 175.652 27.5597 175.432 27.7681C175.211 27.9856 174.942 28.1578 174.637 28.2816C174.326 28.4055 173.991 28.4659 173.64 28.4659C173.29 28.4659 172.949 28.4025 172.641 28.2816C172.329 28.1548 172.061 27.9826 171.84 27.7681C171.62 27.5537 171.444 27.2939 171.314 26.9919C171.185 26.6989 171.124 26.3726 171.124 26.0192C171.124 25.6658 171.188 25.3456 171.314 25.0526C171.444 24.7506 171.617 24.4999 171.84 24.2794C172.061 24.0649 172.329 23.8927 172.641 23.7659C172.949 23.6451 173.287 23.5816 173.64 23.5816C173.994 23.5816 174.326 23.6451 174.634 23.7659C174.942 23.8927 175.208 24.0649 175.435 24.2794C175.655 24.4999 175.83 24.7506 175.96 25.0526C176.09 25.3487 176.153 25.6719 176.153 26.0192C176.153 26.3666 176.09 26.6989 175.96 26.9919H175.957ZM181.56 28.2967H180.787L180.772 28.2847L178.449 25.5359V28.2967H177.446V23.7538H178.223L178.235 23.7689L180.557 26.5116V23.7508H181.56V28.2967ZM174.691 24.9258C174.562 24.7929 174.411 24.6902 174.226 24.6116C174.054 24.5361 173.855 24.4969 173.64 24.4969C173.426 24.4969 173.22 24.5391 173.048 24.6116C172.861 24.6902 172.713 24.7959 172.583 24.9258C172.453 25.0557 172.351 25.2127 172.272 25.4091C172.196 25.5994 172.16 25.8017 172.16 26.0162C172.16 26.2307 172.196 26.4391 172.272 26.6354C172.348 26.8318 172.45 26.9888 172.583 27.1248C172.716 27.2607 172.87 27.3664 173.048 27.4419C173.22 27.5174 173.423 27.5567 173.64 27.5567C173.858 27.5567 174.054 27.5144 174.226 27.4419C174.401 27.3664 174.562 27.2577 174.691 27.1248C174.827 26.9858 174.933 26.8227 175.003 26.6354C175.078 26.4451 175.117 26.2367 175.117 26.0132C175.117 25.7897 175.081 25.5963 175.003 25.403C174.93 25.2188 174.827 25.0617 174.691 24.9258Z" fill="#AE0025"/>
<path d="M118.327 24.9952C116.325 24.9952 115.201 26.1974 115.201 28.1457V30.7102H116.563V28.0128C116.563 26.5176 117.095 25.6084 118.327 25.6084C119.475 25.6084 120.01 26.5176 120.01 28.0128V30.7102H121.372V28.1457C121.372 26.1944 120.357 24.9952 118.327 24.9952Z" fill="#AE0025"/>
<path d="M125.643 24.9952C124.015 24.9952 122.517 26.0917 122.517 28.0128C122.517 29.8282 123.746 30.8974 125.456 30.8974C126.365 30.8974 127.057 30.5229 127.432 29.8282V30.7102H128.739V28.1729C128.739 26.2216 127.67 24.9952 125.64 24.9952H125.643ZM125.643 30.2812C124.441 30.2812 123.879 29.4808 123.879 28.0128C123.879 26.6777 124.438 25.6084 125.643 25.6084C126.849 25.6084 127.38 26.6777 127.38 28.0128C127.38 29.3479 126.658 30.2812 125.643 30.2812Z" fill="#AE0025"/>
<path d="M138.997 27.8769C138.997 29.3721 138.517 30.2813 137.342 30.2813C136.167 30.2813 135.741 29.3721 135.741 27.8769V25.1796H134.379V27.744C134.379 29.6953 135.339 30.8945 137.342 30.8945C139.345 30.8945 140.36 29.6923 140.36 27.744V25.1796H138.997V27.8769Z" fill="#AE0025"/>
<path d="M148.397 24.9952C146.769 24.9952 145.271 26.0917 145.271 28.0128C145.271 29.8282 146.5 30.8974 148.207 30.8974C149.116 30.8974 149.811 30.5229 150.183 29.8282V30.7102H151.49V28.1729C151.49 26.2216 150.421 24.9952 148.391 24.9952H148.397ZM148.397 30.2812C147.195 30.2812 146.633 29.4808 146.633 28.0128C146.633 26.6777 147.192 25.6084 148.397 25.6084C149.603 25.6084 150.134 26.6777 150.134 28.0128C150.134 29.3479 149.412 30.2812 148.397 30.2812Z" fill="#AE0025"/>
<path d="M141.828 27.5597V30.7102H143.19V27.3966C143.19 26.3273 143.432 25.6326 144.525 25.6326C144.658 25.6326 144.818 25.6326 144.978 25.6598V25.101C144.682 25.0194 144.392 24.9952 144.096 24.9952C142.788 24.9952 141.825 25.7443 141.825 27.5597H141.828Z" fill="#AE0025"/>
<path d="M132.642 30.2541C131.974 30.2541 131.573 29.8282 131.573 28.5172V25.8199H133.364V25.1795H131.573V23.79H130.21V28.3028C130.21 30.2782 131.28 30.8944 132.428 30.8944C132.986 30.8944 133.497 30.7343 133.868 30.4685C133.735 30.3356 133.627 30.1725 133.572 30.0154C133.304 30.1755 133.014 30.2571 132.636 30.2571L132.642 30.2541Z" fill="#AE0025"/>
<path d="M138.541 12.0793C138.541 12.8647 138.142 13.8192 137.859 14.3236C137.701 14.6045 137.662 14.668 137.662 14.7102C137.662 14.7405 137.68 14.7646 137.717 14.7646C137.907 14.7646 139.481 13.5534 140.583 13.5534C141.23 13.5534 141.825 13.8977 141.825 14.7102C141.825 15.5228 141.272 16.87 139.435 17.8547C139.302 17.9241 139.027 18.0722 138.834 18.1749C138.586 18.3078 138.52 18.3712 138.52 18.4527C138.52 18.6612 139.251 18.5615 139.251 18.9904C139.251 19.22 138.973 19.5975 138.242 20.0053C137.575 20.3769 136.687 20.6819 135.581 20.6819C134.793 20.6819 134.355 20.5279 134.27 20.5279C134.237 20.5279 134.213 20.5369 134.179 20.5702C134.134 20.6094 133.569 21.0927 132.258 21.0927C130.751 21.0927 129.063 20.4735 129.063 19.8996C129.063 19.6187 129.416 19.5402 129.416 19.4828C129.416 19.4586 129.374 19.4495 129.356 19.4465C127.25 18.8786 124.876 17.758 124.876 16.2447C124.876 15.8279 125.169 15.6104 125.598 15.6104C126.338 15.6104 127.362 15.9517 127.583 15.9517C127.637 15.9517 127.655 15.9215 127.655 15.8913C127.655 15.849 127.622 15.8037 127.558 15.7523C126.208 14.6075 125.646 13.5534 125.646 12.6714C125.646 11.5296 126.471 10.6657 127.564 10.4512C129.579 10.0525 130.796 11.7742 131.872 13.1577C131.902 13.1969 131.956 13.2785 132.023 13.2785C132.104 13.2785 132.125 13.1969 132.201 12.8949C132.277 12.5928 132.298 12.4962 132.394 12.1095C132.708 10.8318 133.467 9.20374 135.657 9.20374C136.946 9.20374 138.541 10.0737 138.541 12.0823V12.0793ZM132.304 14.9549C131.896 14.9549 131.681 14.7254 131.265 14.2058C131.198 14.1243 130.911 13.7739 130.836 13.6863C129.83 12.472 129.099 11.9223 128.265 11.9223C127.761 11.9223 127.009 12.2032 127.009 13.1637C127.009 13.2906 127.024 13.8282 127.546 14.4656C128.211 15.2781 129.174 16.3504 129.259 16.4501C129.35 16.5528 129.398 16.6615 129.395 16.7582C129.395 16.8126 129.377 17.0482 128.978 17.0482C128.579 17.0482 126.873 16.5468 126.272 16.5468C125.994 16.5468 125.815 16.6676 125.815 16.87C125.815 17.3986 126.842 18.4799 130.075 19.2079C130.479 19.2985 130.516 19.4435 130.516 19.4948C130.516 19.6851 130.014 19.7697 130.014 20.0929C130.014 20.5611 131.533 20.7695 131.968 20.7695C132.745 20.7695 133.125 20.543 133.412 20.3436C133.66 20.1745 133.799 20.108 133.965 20.108C134.312 20.108 134.636 20.3255 135.69 20.3255C136.97 20.3255 138.315 19.6549 138.315 19.2925C138.315 19.1505 138.103 19.1143 137.626 18.9572C137.375 18.8756 137.23 18.7729 137.23 18.6159C137.23 18.4588 137.351 18.347 137.714 18.193C138.1 18.0238 138.378 17.9 138.665 17.7641C140.221 17.015 140.825 16.0967 140.828 15.4352C140.828 15.0093 140.586 14.7223 140.19 14.7223C139.668 14.7223 139.091 15.0244 138.532 15.3083C137.484 15.8399 137.103 16.0423 136.735 16.0423C136.475 16.0423 136.354 15.8188 136.351 15.6889C136.351 15.6134 136.363 15.5258 136.397 15.4322C136.533 15.0667 136.626 14.819 136.774 14.4293C136.992 13.8524 137.257 13.1939 137.257 12.5415C137.257 11.5205 136.466 10.8288 135.427 10.8288C134.264 10.8288 133.766 11.9253 133.47 12.7952C133.391 13.0338 133.083 13.9611 132.989 14.2421C132.826 14.7284 132.612 14.9579 132.301 14.9579L132.304 14.9549Z" fill="#AE0025"/>
<path d="M113.244 1.3653V0H112.374C106.931 0 102.506 4.42515 102.506 9.86521V32H103.871V9.86521C103.871 5.17727 107.683 1.3653 112.371 1.3653H113.244Z" fill="#AE0025"/>
</svg>
