<svg width="114" height="34" viewBox="0 0 114 34" fill="none" xmlns="http://www.w3.org/2000/svg">
<path d="M70.2247 25.0029L66.4776 33.2053H66.2861L62.5391 25.0029H63.4943L66.3891 31.585L69.284 25.0029H70.2247Z" fill="black"/>
<path d="M78.0281 29.2H71.2383C71.3559 31.2321 72.7075 32.4248 74.9417 32.4248C76.0436 32.4248 77.0134 32.1455 77.6753 31.7471L77.6898 32.5572C76.9407 32.9994 75.9115 33.2204 74.8823 33.2204C72.105 33.2204 70.3994 31.5564 70.3994 28.9352C70.3994 26.5497 72.1341 24.8115 74.3816 24.8115C76.6291 24.8115 78.0705 26.461 78.0705 28.6996C78.0705 28.8915 78.0559 29.053 78.0268 29.2H78.0281ZM71.2686 28.4931H77.2498C77.1904 26.8144 76.177 25.5634 74.355 25.5634C72.7233 25.5634 71.4456 26.727 71.2686 28.4931Z" fill="black"/>
<path d="M87.1685 28.4928V33.0137H86.2872V28.6702C86.2872 26.7559 85.258 25.5631 83.5973 25.5631C81.9365 25.5631 80.643 26.8737 80.643 28.935V33.0137H79.7617V25.0032H80.5994V26.9915C80.9812 25.8134 82.0989 24.8125 83.7439 24.8125C85.8157 24.8125 87.1685 26.1972 87.1685 28.494V28.4928Z" fill="black"/>
<path d="M96.9851 21.5283V33.0139H96.2214V31.1737C95.5898 32.4551 94.34 33.2204 92.8271 33.2204C90.5202 33.2204 88.8291 31.4531 88.8291 29.0238C88.8291 26.5945 90.5335 24.8127 92.8271 24.8127C94.2818 24.8127 95.4867 25.5196 96.1486 26.7269V21.5295H96.9863L96.9851 21.5283ZM96.2504 29.0092C96.2504 27.0209 94.8249 25.5937 92.9289 25.5937C91.033 25.5937 89.6813 27.0221 89.6813 29.025C89.6813 31.0279 91.0633 32.4406 92.9289 32.4406C94.7945 32.4406 96.2504 31.0267 96.2504 29.0092Z" fill="black"/>
<path d="M107.874 32.6457V31.8355C108.301 32.1598 109.153 32.4392 110.064 32.4392C111.533 32.4392 112.313 31.7614 112.313 30.8638C112.313 30.084 111.799 29.6273 110.829 29.2593L109.814 28.8621C108.741 28.4345 108.079 27.8758 108.079 26.8737C108.079 25.6955 109.21 24.8125 110.931 24.8125C111.577 24.8125 112.282 25.0044 112.68 25.2243V26.0344C112.239 25.7842 111.622 25.5777 110.931 25.5777C109.74 25.5777 108.946 26.0927 108.946 26.8737C108.946 27.5515 109.402 27.8746 110.195 28.1843L111.194 28.5815C112.473 29.0819 113.148 29.7305 113.148 30.8346C113.148 32.1161 112.075 33.2202 110.076 33.2202C109.121 33.2202 108.298 32.9554 107.872 32.6457H107.874Z" fill="black"/>
<path d="M35.551 23.7812H33.7266V33.0137H35.551V23.7812Z" fill="black"/>
<path d="M35.551 14.5488H33.7266V23.7812H35.551V14.5488Z" fill="black"/>
<path d="M35.551 5.31543H33.7266V14.5478H35.551V5.31543Z" fill="black"/>
<path d="M47.6068 26.9189C47.054 25.6569 45.9472 24.9488 44.6113 24.9488C42.5214 24.9488 40.9395 26.5959 40.9395 28.9972C40.9395 31.3985 42.5214 33.0152 44.6113 33.0152C45.9945 33.0152 47.1158 32.2609 47.6529 30.9369V32.799H48.5281V21.2539H47.6068V26.9189ZM44.7653 32.1832C43.0912 32.1832 41.8305 30.9515 41.8305 28.9972C41.8305 27.0428 43.09 25.765 44.7653 25.765C46.4406 25.765 47.7304 27.0732 47.7304 28.9826C47.7304 30.892 46.4394 32.1844 44.7653 32.1844V32.1832Z" fill="black"/>
<path d="M54.2297 24.9473C52.0937 24.9473 50.5117 26.5178 50.5117 28.9191C50.5117 31.5051 51.987 33.0136 54.5061 33.0136C55.5049 33.0136 56.596 32.7525 57.3172 32.2751V31.4443C56.7026 31.8597 55.7195 32.1986 54.5824 32.1986C52.6307 32.1986 51.5094 31.1978 51.4027 29.2276H57.6397C57.67 29.043 57.6858 28.8584 57.6858 28.6738C57.6858 26.4571 56.3947 24.9485 54.2285 24.9485L54.2297 24.9473ZM51.4027 28.4733C51.5567 26.7182 52.678 25.7173 54.2139 25.7173C55.9195 25.7173 56.779 26.8105 56.8251 28.4733H51.4015H51.4027Z" fill="black"/>
<path d="M105.431 26.9194C104.878 25.6573 103.771 24.9492 102.436 24.9492C100.346 24.9492 98.7637 26.5963 98.7637 28.9976C98.7637 31.3989 100.346 33.0156 102.436 33.0156C103.819 33.0156 104.94 32.2613 105.477 30.9374V32.7994H106.352V25.1484H105.431V26.9181V26.9194ZM102.59 32.1836C100.915 32.1836 99.6547 30.9519 99.6547 28.9976C99.6547 27.0432 100.914 25.7655 102.59 25.7655C104.265 25.7655 105.555 27.0736 105.555 28.983C105.555 30.8924 104.264 32.1848 102.59 32.1848V32.1836Z" fill="black"/>
<path d="M82.1961 8.7015V9.86269C81.5524 8.88613 80.6141 8.42578 79.4928 8.42578C77.0283 8.42578 75.1699 10.5818 75.1699 13.3463C75.1699 16.1108 77.0271 18.2121 79.4746 18.2121C80.688 18.2121 81.7003 17.6594 82.3258 16.5905V17.9169H84.4048V8.7015H82.1973H82.1961ZM79.8965 16.2759C78.3884 16.2759 77.3035 15.1148 77.3035 13.345C77.3035 11.5753 78.3884 10.3595 79.8965 10.3595C81.4045 10.3595 82.527 11.5207 82.527 13.3268C82.527 15.133 81.4045 16.2759 79.8965 16.2759Z" fill="black"/>
<path d="M3.14054 16.0967C4.75161 16.0967 5.49351 17.123 5.49351 18.1057V20.2702H4.48128V18.1057C4.48128 17.4838 4.13095 16.4878 3.14054 16.4878C2.16711 16.4878 1.80708 17.4838 1.80708 18.1057C1.80708 18.7166 1.80102 20.2702 1.80102 20.2702H0.785156V18.1057C0.785156 17.1243 1.53553 16.0967 3.14054 16.0967Z" fill="black"/>
<path d="M17.1469 20.3276C15.5297 20.3276 14.7891 19.3121 14.7891 18.3307V16.1602H15.8086V18.3307C15.8086 18.9441 16.1565 19.951 17.1469 19.951C18.1264 19.951 18.4864 18.9441 18.4864 18.3307V16.1602H19.4962V18.3307C19.4962 19.3121 18.7555 20.3276 17.1469 20.3276Z" fill="black"/>
<path d="M9.60709 19.9704C9.39859 20.1429 9.12947 20.2692 8.78398 20.3105C7.75357 20.4806 6.32555 19.8113 6.26615 18.31C6.21039 16.7711 7.71963 16.1322 8.70518 16.1528C10.3635 16.1978 10.949 17.4501 10.949 18.1655V20.2692H9.93076V18.18C9.93076 17.7197 9.72953 16.5597 8.67124 16.5245C7.64205 16.4941 7.31353 17.4561 7.30504 18.1655C7.30504 18.6222 7.41414 19.7457 8.59123 19.8137C8.95127 19.8198 9.46526 19.7299 9.60709 19.6085V19.9704Z" fill="black"/>
<path d="M14.1577 20.871C14.0231 20.9159 13.6534 21.007 13.2279 20.8941C12.743 20.775 11.9502 20.543 11.9502 18.9142V14.3545H12.9855V16.1716H13.931V16.7983H12.9855C12.9855 16.7983 13.0158 18.0907 12.9855 19.1171C12.9685 20.0378 13.24 20.3621 13.451 20.4604C13.7007 20.5855 14.1104 20.5382 14.1577 20.503V20.871Z" fill="black"/>
<path d="M20.4648 17.9706C20.4648 16.9491 20.9885 16.2434 21.9074 16.1535C22.5572 16.0734 22.7923 16.207 22.7923 16.207V16.6066C22.7923 16.6066 22.4481 16.5228 22.0686 16.626C21.6589 16.7657 21.4977 17.3937 21.4977 17.6099C21.4977 18.3532 21.4977 20.2881 21.4977 20.2881H20.4648V17.9706Z" fill="black"/>
<path d="M26.216 19.9706C26.0014 20.1406 25.7299 20.2694 25.3905 20.3107C24.3637 20.4807 22.9344 19.8115 22.8763 18.3102C22.8253 16.7713 24.3273 16.1287 25.3153 16.153C26.9761 16.1979 27.5592 17.4502 27.5592 18.1657V20.2694H26.5433V18.1802C26.5433 17.7199 26.3336 16.5599 25.2826 16.5223C24.2546 16.4943 23.9285 17.4563 23.9285 18.1657C23.9285 18.6224 24.0085 19.741 25.2038 19.8139C25.5687 19.82 26.0778 19.7301 26.216 19.6086V19.9706Z" fill="black"/>
<path d="M16.7739 2.65922C15.4295 2.25111 14.5967 3.23496 14.2258 4.5006C13.9094 5.50996 13.8451 5.7869 13.6694 6.31405C13.4075 7.04768 12.7844 7.09506 12.3129 6.53025C11.7613 5.8622 11.0327 4.87107 10.6254 4.39614C10.0884 3.7694 8.78402 3.23617 8.13183 4.05362C7.13779 5.28768 8.4555 6.6675 9.15254 7.49102C9.63744 8.08255 10.2108 8.48095 10.0302 8.81254C9.94898 8.93279 9.81079 8.97652 9.60107 8.97652C9.11375 8.96559 7.51601 8.52832 7.14143 8.4603C6.82867 8.39228 6.59349 8.40929 6.505 8.65343C6.39226 8.93522 6.79473 9.75267 7.83604 10.2908C8.87736 10.8288 10.5503 11.0875 10.7103 11.1276C11.3164 11.2564 11.2 11.5637 11.0497 11.7022C10.9164 11.8503 10.7491 11.9512 10.7794 12.1005C10.8739 12.488 11.6958 12.5706 12.1916 12.6508C12.6656 12.7346 13.2717 12.7783 13.7118 12.5949C14.1397 12.4297 14.1652 12.1868 14.4585 12.0835C14.8477 11.9329 14.981 12.0593 15.8187 12.2232C16.3593 12.324 17.317 12.1868 17.8322 12.018C18.8044 11.6997 19.2057 11.3791 19.2057 11.2333C19.2057 11.1106 19.0384 11.0633 18.8602 11.0523C18.6517 11.0195 17.951 10.9041 17.7098 10.7462C17.4794 10.5871 17.6625 10.315 18.1365 10.1268C18.6383 9.92515 20.2215 9.26196 20.8143 8.73238C21.4132 8.2028 21.9732 7.3064 21.4798 6.7914C20.9816 6.26911 20.1015 6.7999 19.6336 7.01367C18.9959 7.32098 17.9801 7.83962 17.6322 7.91736C17.3267 7.99267 16.7497 7.9708 17.0151 7.27361C17.3497 6.41365 17.5049 5.88407 17.711 5.36542C17.9668 4.72652 18.3268 3.139 16.7763 2.66044M22.6739 6.93837C22.2435 8.7676 20.0991 9.84984 19.8918 9.97009C19.6772 10.077 19.4142 10.1875 19.3196 10.2495C19.2808 10.2737 19.2542 10.2993 19.3329 10.3235C19.5621 10.3855 20.3209 10.3381 20.3076 10.6624C20.304 11.0098 19.733 11.5795 18.2686 12.205C16.6709 12.8937 15.3386 12.5779 15.0016 12.5002L14.9725 12.5087C14.884 12.6058 14.1397 13.32 12.0304 12.9544C10.5187 12.6896 10.1405 12.539 9.78654 12.1394C9.69077 12.0143 9.62774 11.8078 9.76472 11.5394C9.78654 11.4726 9.79381 11.4361 9.7526 11.4228C7.45661 10.9539 6.06859 9.50367 5.55218 8.58298C5.30003 8.11899 5.38246 7.81047 5.51339 7.61492C5.69401 7.33798 6.30134 7.31976 6.93413 7.47523C7.63481 7.66836 8.02758 7.75946 8.17547 7.7959C8.22517 7.81655 8.22881 7.7959 8.20578 7.75946C8.02758 7.54325 7.40691 6.7586 7.08203 6.25575C6.56319 5.4298 5.89282 3.2301 7.61299 2.31791C9.52833 1.31948 11.2024 3.07948 11.5722 3.53983C11.8983 3.93823 12.5577 4.82248 12.6074 4.91236C12.6911 5.05447 12.7335 4.93666 12.7335 4.93666C12.7335 4.93666 13.1808 3.31269 13.5736 2.56813C14.2646 1.24296 15.6841 0.629574 16.917 0.855495C19.2723 1.29641 19.3608 3.6783 19.1741 4.55283C19.0069 5.31076 18.6929 6.12214 18.6008 6.32619C18.5838 6.36506 18.6008 6.37114 18.6311 6.35049C18.8117 6.26668 19.6518 5.85492 20.55 5.46866C21.4459 5.09213 23.0945 5.10427 22.6739 6.93715" fill="black"/>
<path d="M1.30922 32.9811L1.90322 31.6268C2.05839 31.6037 2.20749 31.5867 2.35054 31.5745C2.49358 31.5636 2.63178 31.5575 2.76391 31.5575C3.05121 31.5575 3.31306 31.5855 3.55187 31.6401C3.78947 31.6948 4.00889 31.781 4.20648 31.8988C4.40408 32.0167 4.58591 32.1648 4.74957 32.3434C4.91322 32.5219 5.06717 32.7345 5.21022 32.9823H6.51944L3.71189 26.9419H2.80755L0 32.9811H1.30922ZM3.26457 28.5282L4.34953 30.9271C4.1883 30.8117 3.98828 30.7231 3.74704 30.6599C3.5058 30.5968 3.2185 30.5652 2.88635 30.5652C2.72512 30.5652 2.55056 30.5737 2.36145 30.5907L3.26578 28.5282H3.26457ZM9.99009 32.9811L12.7722 26.9407H11.3939L9.56823 31.1263L7.75108 26.9407H6.3473L9.08576 32.9811H9.99009ZM16.8368 33.2143C17.3132 33.2143 17.7557 33.1317 18.163 32.9677C18.5703 32.8037 18.9243 32.5754 19.2225 32.2814C19.5207 31.9875 19.7547 31.6426 19.9244 31.2454C20.0941 30.8482 20.179 30.417 20.179 29.9506C20.179 29.4842 20.0941 29.0615 19.9244 28.6643C19.7547 28.2671 19.5207 27.9234 19.2225 27.6331C18.9243 27.3428 18.5703 27.1156 18.163 26.9516C17.7557 26.7877 17.3132 26.7051 16.8368 26.7051C16.3604 26.7051 15.918 26.7877 15.5106 26.9516C15.1033 27.1156 14.7494 27.3428 14.4511 27.6331C14.1529 27.9234 13.919 28.2671 13.7493 28.6643C13.5795 29.0615 13.4947 29.4902 13.4947 29.9506C13.4947 30.4109 13.5795 30.8482 13.7493 31.2454C13.919 31.6426 14.1529 31.9875 14.4511 32.2814C14.7494 32.5754 15.1021 32.8037 15.5106 32.9677C15.918 33.1317 16.3604 33.2143 16.8368 33.2143ZM16.8368 32.092C16.5386 32.092 16.2647 32.0385 16.0149 31.9329C15.7652 31.826 15.5482 31.6778 15.3652 31.4883C15.1809 31.2988 15.0379 31.0717 14.9348 30.8069C14.8318 30.5421 14.7797 30.2542 14.7797 29.9445C14.7797 29.6348 14.8318 29.3578 14.9348 29.0991C15.0379 28.8404 15.1821 28.6169 15.3652 28.4299C15.5494 28.2428 15.7652 28.0958 16.0149 27.9902C16.2647 27.8833 16.5386 27.831 16.8368 27.831C17.135 27.831 17.409 27.8845 17.6599 27.9902C17.9097 28.097 18.1267 28.2428 18.3097 28.4299C18.494 28.6169 18.637 28.8392 18.7401 29.0991C18.8431 29.3578 18.8952 29.6396 18.8952 29.9445C18.8952 30.2494 18.8431 30.5506 18.7401 30.8117C18.637 31.0741 18.4928 31.2988 18.3097 31.4895C18.1254 31.679 17.9097 31.8272 17.6599 31.9341C17.4102 32.041 17.1363 32.0932 16.8368 32.0932V32.092ZM22.0471 26.9407V32.9811H23.2872V29.1416L26.5336 32.9811H27.4985V26.9407H26.2584V30.7802L23.012 26.9407H22.0471Z" fill="black"/>
<path d="M45.7377 8.67924V9.4724H48.1816V11.5761H45.7377V18.7862C45.7377 21.1486 44.4297 22.6329 42.261 22.6329C41.7616 22.6329 41.2973 22.5637 41.0039 22.4264L41.0378 20.3227C41.2621 20.4259 41.5543 20.4612 41.8646 20.4612C42.7944 20.4612 43.2587 19.8235 43.2587 18.7534V11.5786H41.5894V9.47483H43.2587V8.61244C43.2587 6.57672 44.5667 5.31836 46.8566 5.31836C47.4252 5.31836 47.8373 5.38759 48.1816 5.50784V7.45732C47.9404 7.37109 47.6312 7.31886 47.2348 7.31886C46.202 7.31886 45.7377 7.81929 45.7377 8.68167V8.67924Z" fill="black"/>
<path d="M48.1289 13.3179C48.1289 10.5582 50.2976 8.33301 53.173 8.33301C56.0485 8.33301 58.2511 10.5582 58.2511 13.3179C58.2511 16.0775 56.0994 18.3197 53.173 18.3197C50.2467 18.3197 48.1289 16.1297 48.1289 13.3179ZM55.8582 13.3179C55.8582 11.7315 54.7732 10.472 53.173 10.472C51.5729 10.472 50.5049 11.7315 50.5049 13.3179C50.5049 14.9042 51.6238 16.1977 53.173 16.1977C54.7223 16.1977 55.8582 14.9564 55.8582 13.3179Z" fill="black"/>
<path d="M66.3765 8.45302V10.9199C66.0492 10.7815 65.654 10.6782 65.1375 10.6782C63.6222 10.6782 62.4355 11.5746 62.4355 13.3176V18.0437H59.9395V8.5927H62.2463V10.2312C62.7458 9.14414 63.9508 8.33398 65.4309 8.33398C65.7582 8.33398 66.1364 8.38621 66.3777 8.45423L66.3765 8.45302Z" fill="black"/>
<path d="M74.0368 17.8875C73.6586 18.077 73.1071 18.2325 72.5397 18.2847C72.901 18.6989 73.1943 19.2333 73.1943 19.837C73.1943 20.9059 72.3858 21.7513 70.9396 21.7513C70.3541 21.7513 69.7516 21.6128 69.3903 21.3541V19.7326C69.5625 19.8528 69.8898 19.9573 70.234 19.9573C70.8026 19.9573 71.2148 19.6293 71.2148 19.0779C71.2148 18.7669 71.1117 18.4912 70.9565 18.2495C68.3054 17.8523 66.584 15.8178 66.584 13.3169C66.584 10.5572 68.7527 8.33203 71.9542 8.33203C72.7119 8.33203 73.5374 8.50451 74.0368 8.76323L74.0029 10.9022C73.6586 10.7467 72.9871 10.505 72.1094 10.505C70.1819 10.505 68.9769 11.7294 68.9769 13.3169C68.9769 14.9044 70.1819 16.1628 72.1094 16.1628C72.9871 16.1628 73.6586 15.921 74.0029 15.7486L74.0368 17.8875Z" fill="black"/>
<defs>
<clipPath id="clip0_9931_23260">
<rect width="113.148" height="32.411" fill="white" transform="translate(0 0.80957)"/>
</clipPath>
</defs>
</svg>
