<svg width="80" height="56" viewBox="0 0 80 56" fill="none" xmlns="http://www.w3.org/2000/svg">
<path d="M32.4981 52.3762L32.0886 53.3071C32.1743 53.3 32.2529 53.2952 32.3267 53.2952C32.4767 53.2952 32.6077 53.3095 32.7148 53.3381C32.8243 53.3667 32.9148 53.4071 32.9886 53.4595L32.4981 52.3762ZM39.4672 52.6429C39.422 52.5309 39.36 52.4333 39.2767 52.35C39.1981 52.269 39.1053 52.2048 38.9934 52.1571C38.8886 52.1119 38.7672 52.0857 38.6339 52.0857C38.5005 52.0857 38.3767 52.1119 38.2696 52.1571C38.1553 52.2048 38.0648 52.269 37.9862 52.35C37.9077 52.4286 37.8434 52.5262 37.7958 52.6429C37.7505 52.7571 37.7267 52.8833 37.7267 53.0143C37.7267 53.1452 37.7505 53.2738 37.7958 53.3929C37.841 53.5119 37.9053 53.6095 37.9862 53.6929C38.0672 53.7762 38.1624 53.8405 38.2696 53.8881C38.3743 53.9333 38.4981 53.9595 38.6339 53.9595C38.7696 53.9595 38.8886 53.9357 38.9934 53.8881C39.1005 53.8429 39.1981 53.7762 39.2767 53.6929C39.36 53.6071 39.4243 53.5095 39.4672 53.3952C39.5124 53.2809 39.5362 53.1524 39.5362 53.0143C39.5362 52.8762 39.5124 52.7595 39.4672 52.6405V52.6429ZM39.4672 52.6429C39.422 52.5309 39.36 52.4333 39.2767 52.35C39.1981 52.269 39.1053 52.2048 38.9934 52.1571C38.8886 52.1119 38.7672 52.0857 38.6339 52.0857C38.5005 52.0857 38.3767 52.1119 38.2696 52.1571C38.1553 52.2048 38.0648 52.269 37.9862 52.35C37.9077 52.4286 37.8434 52.5262 37.7958 52.6429C37.7505 52.7571 37.7267 52.8833 37.7267 53.0143C37.7267 53.1452 37.7505 53.2738 37.7958 53.3929C37.841 53.5119 37.9053 53.6095 37.9862 53.6929C38.0672 53.7762 38.1624 53.8405 38.2696 53.8881C38.3743 53.9333 38.4981 53.9595 38.6339 53.9595C38.7696 53.9595 38.8886 53.9357 38.9934 53.8881C39.1005 53.8429 39.1981 53.7762 39.2767 53.6929C39.36 53.6071 39.4243 53.5095 39.4672 53.3952C39.5124 53.2809 39.5362 53.1524 39.5362 53.0143C39.5362 52.8762 39.5124 52.7595 39.4672 52.6405V52.6429ZM29.3577 39.769V56.0024H45.5886V39.769H29.3577ZM33.3958 54.4143C33.3291 54.3 33.2577 54.2024 33.1815 54.1214C33.1053 54.0405 33.0219 53.9714 32.9315 53.9167C32.8386 53.8595 32.7386 53.8214 32.6291 53.7976C32.5196 53.7714 32.3981 53.7595 32.2672 53.7595C32.2053 53.7595 32.141 53.7595 32.0743 53.7667C32.01 53.7714 31.9386 53.7786 31.8696 53.7905L31.5981 54.4143H30.9934L32.2862 51.6357H32.7053L33.9958 54.4143H33.3934H33.3958ZM36.8196 51.6738L35.5577 54.4119H35.1148L35.1077 54.3976L33.8529 51.6357H34.5458L35.3505 53.4833L36.1577 51.6357H36.8386L36.822 51.6738H36.8196ZM40.0505 53.6143C39.972 53.7976 39.8648 53.9595 39.7291 54.0881C39.5934 54.2214 39.4315 54.3262 39.2434 54.4024C39.0529 54.4762 38.8481 54.5167 38.6339 54.5167C38.4196 54.5167 38.21 54.4786 38.022 54.4024C37.8315 54.3262 37.6696 54.219 37.5339 54.0881C37.3981 53.9571 37.291 53.7976 37.2124 53.6143C37.1339 53.4357 37.0958 53.2357 37.0958 53.0214C37.0958 52.8071 37.1339 52.6095 37.2124 52.4286C37.291 52.2452 37.3958 52.0905 37.5339 51.9548C37.6696 51.8238 37.8339 51.719 38.022 51.6405C38.21 51.5667 38.4148 51.5286 38.6339 51.5286C38.8529 51.5286 39.0529 51.5667 39.241 51.6405C39.4291 51.7167 39.5934 51.8238 39.7291 51.9548C39.8648 52.0881 39.972 52.2429 40.0505 52.4286C40.1291 52.6095 40.1672 52.8071 40.1672 53.0214C40.1672 53.2357 40.1291 53.4357 40.0505 53.6143ZM43.4767 54.4119H43.0029L42.9934 54.4048L41.5743 52.7262V54.4143H40.9624V51.6381H41.4362L41.4434 51.6476L42.8624 53.3262V51.6381H43.4743V54.4143L43.4767 54.4119ZM39.2791 52.3524C39.2005 52.2714 39.1077 52.2071 38.9958 52.1595C38.891 52.1143 38.7696 52.0881 38.6362 52.0881C38.5029 52.0881 38.3791 52.1143 38.272 52.1595C38.1577 52.2071 38.0672 52.2714 37.9886 52.3524C37.91 52.431 37.8458 52.5286 37.7981 52.6452C37.7529 52.7595 37.7291 52.8857 37.7291 53.0167C37.7291 53.1476 37.7529 53.2762 37.7981 53.3952C37.8434 53.5143 37.9077 53.6119 37.9886 53.6952C38.0696 53.7786 38.1648 53.8429 38.272 53.8905C38.3767 53.9357 38.5005 53.9619 38.6362 53.9619C38.772 53.9619 38.891 53.9381 38.9958 53.8905C39.1029 53.8452 39.2005 53.7786 39.2791 53.6952C39.3624 53.6095 39.4267 53.5119 39.4696 53.3976C39.5148 53.2833 39.5386 53.1548 39.5386 53.0167C39.5386 52.8786 39.5148 52.7619 39.4696 52.6429C39.4243 52.5309 39.3624 52.4333 39.2791 52.35V52.3524Z" fill="#111111"/>
<path d="M4.82444 52.3929C3.60063 52.3929 2.91492 53.1286 2.91492 54.3191V55.8857H3.74825V54.2381C3.74825 53.3238 4.07444 52.7691 4.82682 52.7691C5.5292 52.7691 5.85539 53.3238 5.85539 54.2381V55.8857H6.68873V54.3191C6.68873 53.1262 6.0673 52.3929 4.82682 52.3929H4.82444Z" fill="#111111"/>
<path d="M9.29825 52.3929C8.30301 52.3929 7.38873 53.0619 7.38873 54.2381C7.38873 55.3476 8.13873 56 9.18396 56C9.73873 56 10.1625 55.7715 10.3911 55.3476V55.8857H11.1911V54.3357C11.1911 53.1429 10.5387 52.3929 9.29825 52.3929ZM9.29825 55.6262C8.56254 55.6262 8.21968 55.1357 8.21968 54.2381C8.21968 53.4215 8.56254 52.7691 9.29825 52.7691C10.034 52.7691 10.3602 53.4215 10.3602 54.2381C10.3602 55.0548 9.91968 55.6262 9.29825 55.6262Z" fill="#111111"/>
<path d="M17.4602 54.1572C17.4602 55.0715 17.1673 55.6262 16.4482 55.6262C15.7292 55.6262 15.4697 55.0715 15.4697 54.1572V52.5095H14.6363V54.0762C14.6363 55.2691 15.2244 56.0024 16.4482 56.0024C17.6721 56.0024 18.2935 55.2667 18.2935 54.0762V52.5095H17.4602V54.1572Z" fill="#111111"/>
<path d="M23.2078 52.3929C22.2125 52.3929 21.2983 53.0619 21.2983 54.2381C21.2983 55.3476 22.0483 56 23.0935 56C23.6483 56 24.0721 55.7715 24.3006 55.3476V55.8857H25.1006V54.3357C25.1006 53.1429 24.4482 52.3929 23.2078 52.3929ZM23.2078 55.6262C22.4721 55.6262 22.1292 55.1357 22.1292 54.2381C22.1292 53.4215 22.4721 52.7691 23.2078 52.7691C23.9435 52.7691 24.2697 53.4215 24.2697 54.2381C24.2697 55.0548 23.8292 55.6262 23.2078 55.6262Z" fill="#111111"/>
<path d="M19.1911 53.9595V55.8857H20.0244V53.8619C20.0244 53.2095 20.1721 52.7834 20.8411 52.7834C20.9221 52.7834 21.0197 52.7834 21.1197 52.8V52.4572C20.9411 52.4072 20.7602 52.3929 20.5816 52.3929C19.7816 52.3929 19.1935 52.85 19.1935 53.9595H19.1911Z" fill="#111111"/>
<path d="M13.5744 55.6095C13.1673 55.6095 12.9221 55.3476 12.9221 54.5476V52.9H14.0149V52.5072H12.9221V51.6572H12.0887V54.4167C12.0887 55.6238 12.7411 56 13.4435 56C13.7863 56 14.0959 55.9024 14.3244 55.7381C14.2435 55.6572 14.1768 55.5595 14.1459 55.4595C13.9816 55.5572 13.803 55.6072 13.5744 55.6072V55.6095Z" fill="#111111"/>
<path d="M17.1815 44.5C17.1815 44.981 16.9386 45.5643 16.7648 45.8714C16.6696 46.0429 16.6458 46.081 16.6458 46.1071C16.6458 46.1262 16.6577 46.1429 16.6791 46.1429C16.7934 46.1429 17.7577 45.4024 18.4315 45.4024C18.8267 45.4024 19.1886 45.6119 19.1886 46.1095C19.1886 46.6071 18.8505 47.431 17.7267 48.031C17.6458 48.0738 17.4767 48.1643 17.3601 48.2262C17.2077 48.3071 17.1696 48.3452 17.1696 48.3952C17.1696 48.5238 17.6172 48.4619 17.6172 48.7238C17.6172 48.8643 17.4458 49.0952 17.0005 49.3429C16.5934 49.5714 16.0481 49.7571 15.3743 49.7571C14.8934 49.7571 14.6243 49.6619 14.572 49.6619C14.5529 49.6619 14.5362 49.669 14.5148 49.6857C14.4862 49.7095 14.1434 50.0048 13.341 50.0048C12.4196 50.0048 11.3862 49.6262 11.3862 49.2762C11.3862 49.1048 11.6029 49.0571 11.6029 49.0214C11.6029 49.0071 11.5767 49 11.5672 48.9976C10.2815 48.65 8.8291 47.9643 8.8291 47.0405C8.8291 46.7857 9.01005 46.6524 9.26958 46.6524C9.72196 46.6524 10.3481 46.8619 10.4839 46.8619C10.5172 46.8619 10.5291 46.8429 10.5291 46.8262C10.5291 46.8 10.5101 46.7738 10.4696 46.7405C9.64577 46.0405 9.30053 45.3952 9.30053 44.8571C9.30053 44.1595 9.80291 43.631 10.472 43.5C11.7053 43.2571 12.4481 44.3095 13.1053 45.1548C13.1243 45.1786 13.1577 45.2286 13.1981 45.2286C13.2481 45.2286 13.2624 45.181 13.3077 44.9952C13.3529 44.8095 13.3672 44.7524 13.4243 44.5143C13.6172 43.731 14.0791 42.7405 15.4196 42.7405C16.2077 42.7405 17.1815 43.2738 17.1815 44.5ZM13.3672 46.2571C13.1172 46.2571 12.9862 46.1167 12.7339 45.8C12.6934 45.75 12.5172 45.5357 12.472 45.4833C11.8577 44.7405 11.4101 44.4048 10.9005 44.4048C10.5934 44.4048 10.1315 44.5762 10.1315 45.1643C10.1315 45.2405 10.141 45.569 10.4601 45.9595C10.8672 46.4571 11.4529 47.1119 11.5077 47.1738C11.5624 47.2357 11.591 47.3024 11.591 47.3619C11.591 47.3952 11.5815 47.5381 11.3362 47.5381C11.091 47.5381 10.0505 47.231 9.68386 47.231C9.51482 47.231 9.40529 47.3048 9.40529 47.4286C9.40529 47.75 10.0339 48.4119 12.0077 48.8571C12.2553 48.9119 12.2767 49.0024 12.2767 49.031C12.2767 49.1452 11.9696 49.2 11.9696 49.3952C11.9696 49.6833 12.8981 49.8095 13.1648 49.8095C13.6386 49.8095 13.872 49.6714 14.0481 49.55C14.1981 49.4452 14.2839 49.4071 14.3862 49.4071C14.5981 49.4071 14.7958 49.5405 15.441 49.5405C16.2243 49.5405 17.0458 49.131 17.0458 48.9095C17.0458 48.8214 16.9148 48.8 16.6243 48.7048C16.472 48.6548 16.3815 48.5929 16.3815 48.4952C16.3815 48.3976 16.4553 48.331 16.6767 48.2357C16.9124 48.1333 17.0815 48.0571 17.2577 47.9738C18.2101 47.5143 18.5791 46.9548 18.5815 46.55C18.5815 46.2905 18.4339 46.1143 18.191 46.1143C17.872 46.1143 17.5196 46.3 17.1791 46.4738C16.5386 46.7976 16.3053 46.9214 16.0815 46.9214C15.922 46.9214 15.8481 46.7857 15.8481 46.7048C15.8481 46.6571 15.8553 46.6048 15.8767 46.5476C15.9601 46.3238 16.0172 46.1738 16.1077 45.9333C16.241 45.581 16.4029 45.1762 16.4029 44.7786C16.4029 44.1548 15.9196 43.731 15.2839 43.731C14.572 43.731 14.2696 44.4024 14.0886 44.9333C14.0386 45.0786 13.8529 45.6476 13.7958 45.8167C13.6958 46.1143 13.5648 46.2524 13.3743 46.2524L13.3672 46.2571Z" fill="#111111"/>
<path d="M2.11012 41.1024H1.32678V40.6024C1.32678 37.4857 3.8625 34.95 6.97916 34.95H46.503V35.7333H6.97916C4.29345 35.7333 2.11012 37.9191 2.11012 40.6024V41.1024Z" fill="#111111"/>
<path d="M2.75296 4.75714H0.898193V3.63095H2.75296V2.90238C2.75296 1.9619 2.99819 1.24286 3.49105 0.745238C3.98153 0.247619 4.70296 0 5.65534 0C5.9101 0 6.14581 0.0214286 6.36962 0.0642857C6.59343 0.107143 6.78153 0.17619 6.94105 0.271429L7.13153 1.44524C6.95057 1.32857 6.74819 1.24286 6.522 1.18333C6.29343 1.12619 6.0601 1.09524 5.81724 1.09524C5.24581 1.09524 4.81486 1.24524 4.52438 1.54762C4.23391 1.85 4.08867 2.32143 4.08867 2.96667V3.63333H7.10057V4.75952H4.08867V11.769H2.75772V4.75952L2.75296 4.75714Z" fill="#111111"/>
<path d="M8.47676 3.63095H9.80772V8.59524C9.80772 9.29286 9.99343 9.83809 10.3625 10.2286C10.7315 10.619 11.2815 10.8143 12.0125 10.8143C12.5411 10.8143 13.0268 10.6857 13.472 10.4262C13.9149 10.1667 14.3077 9.80952 14.6458 9.35476V3.63095H15.9768V11.7667H14.6458V9.92619C14.3696 10.55 13.9768 11.0452 13.4649 11.4095C12.953 11.7738 12.3149 11.9571 11.5553 11.9571C10.5625 11.9571 9.80057 11.6762 9.272 11.1167C8.74343 10.5571 8.47915 9.79048 8.47915 8.81667V3.63095H8.47676Z" fill="#111111"/>
<path d="M24.7934 11.6619C24.1911 11.8571 23.5363 11.9548 22.8268 11.9548C21.822 11.9548 20.9601 11.7643 20.2411 11.3833C19.522 11.0024 18.9744 10.4881 18.6006 9.8381C18.2244 9.1881 18.0387 8.47143 18.0387 7.69048C18.0387 6.90952 18.222 6.16191 18.5863 5.51905C18.9506 4.87381 19.472 4.36667 20.1482 3.99762C20.8244 3.62857 21.6077 3.44286 22.4958 3.44286C23.3839 3.44286 24.0791 3.62857 24.7077 3.99762C25.3363 4.36667 25.8149 4.86667 26.1434 5.49524C26.472 6.12381 26.6339 6.82381 26.6339 7.59524V7.89762H18.9268V6.89762H26.0315L25.3815 7.26191C25.3387 6.75476 25.2006 6.28571 24.9696 5.85952C24.7387 5.43333 24.4125 5.0881 23.9934 4.82857C23.5768 4.56905 23.072 4.44048 22.4791 4.44048C21.8244 4.44048 21.2625 4.58333 20.7982 4.86905C20.3339 5.15476 19.9791 5.53333 19.7363 6.00238C19.4934 6.47381 19.372 7 19.372 7.58095V7.70714C19.372 8.33095 19.5101 8.88095 19.7839 9.35714C20.0577 9.83333 20.4625 10.2024 20.9958 10.4667C21.5291 10.731 22.1672 10.8643 22.9077 10.8643C23.6482 10.8643 24.3458 10.719 24.9696 10.4286C25.5934 10.1381 26.1268 9.74524 26.572 9.24762L26.2553 10.9119C25.8863 11.219 25.3982 11.469 24.7958 11.6643L24.7934 11.6619Z" fill="#111111"/>
<path d="M28.6625 3.63095H29.9934V6.81905C30.322 6.05714 30.8077 5.40238 31.453 4.85238C32.0982 4.30238 32.8125 3.84286 33.5934 3.47381L34.0053 4.82143C33.1268 5.19048 32.3553 5.56905 31.6911 5.95476C31.0244 6.34048 30.4601 6.82381 29.9934 7.40476V11.7667H28.6625V3.63095Z" fill="#111111"/>
<path d="M35.2601 10.719L40.841 4.72619H35.4339V3.63095H42.4744V4.6619L36.8934 10.6714H42.5387V11.7667H35.2601V10.719Z" fill="#111111"/>
<path d="M44.7172 8.39524C44.9434 8.07381 45.272 7.80714 45.7006 7.59524C46.1291 7.38333 46.6601 7.20476 47.2934 7.05714L50.5768 6.32857V6.23333C50.5768 5.68333 50.4268 5.26667 50.1244 4.98095C49.822 4.69524 49.3172 4.55238 48.6101 4.55238C47.9863 4.55238 47.3649 4.6881 46.7458 4.95714C46.1268 5.22619 45.5911 5.59286 45.1363 6.05952L45.3434 4.58571C45.7553 4.21667 46.2553 3.93333 46.8411 3.7381C47.4268 3.54286 48.0696 3.44524 48.7672 3.44524C49.803 3.44524 50.5863 3.67619 51.1149 4.13571C51.6434 4.59524 51.9077 5.28095 51.9077 6.1881V11.769H50.5768V9.9619C50.2696 10.481 49.7934 10.9429 49.1506 11.35C48.5053 11.7571 47.7815 11.9595 46.9791 11.9595C46.1768 11.9595 45.5006 11.7452 45.053 11.3167C44.603 10.8881 44.3791 10.3 44.3791 9.54762C44.3791 9.10476 44.4934 8.72143 44.7196 8.39762L44.7172 8.39524ZM46.1291 10.5524C46.4101 10.8 46.8291 10.9238 47.3887 10.9238C48.0125 10.9238 48.6077 10.769 49.172 10.4571C49.7387 10.1452 50.2053 9.74524 50.5744 9.25952V7.10238L47.5768 7.9119C46.953 8.07143 46.4863 8.27857 46.1744 8.5381C45.8625 8.79762 45.7077 9.11667 45.7077 9.49762C45.7077 9.95238 45.8482 10.3048 46.1268 10.5524H46.1291Z" fill="#111111"/>
<path d="M1.88867 21.3524C2.222 20.7071 2.69343 20.2 3.30772 19.831C3.91962 19.4619 4.63867 19.2762 5.46486 19.2762C6.29105 19.2762 6.94819 19.4738 7.53391 19.8714C8.11962 20.269 8.54105 20.7786 8.79343 21.4024V16.0262L10.1244 15.7714V27.6H8.79343V25.65C8.52915 26.2833 8.10534 26.8 7.52438 27.1952C6.94343 27.5905 6.25534 27.7905 5.46248 27.7905C4.66962 27.7905 3.91962 27.6024 3.30534 27.2286C2.69105 26.8524 2.21962 26.3429 1.88629 25.6976C1.55296 25.0524 1.38629 24.3286 1.38629 23.5262C1.38629 22.7238 1.55296 21.9976 1.88629 21.3548L1.88867 21.3524ZM3.06962 25.0929C3.30296 25.569 3.64819 25.95 4.10772 26.2333C4.56724 26.5167 5.11962 26.6619 5.76486 26.6619C6.4101 26.6619 6.95772 26.5119 7.46962 26.2095C7.98153 25.9071 8.42438 25.4714 8.79343 24.9V22.1571C8.42438 21.5857 7.98153 21.15 7.46962 20.85C6.95772 20.5476 6.38867 20.3976 5.76486 20.3976C5.14105 20.3976 4.56724 20.5405 4.10772 20.8262C3.64819 21.1119 3.30057 21.4905 3.06962 21.9595C2.83629 22.431 2.71962 22.95 2.71962 23.5214C2.71962 24.0929 2.83629 24.6167 3.06962 25.0905V25.0929Z" fill="#111111"/>
<path d="M18.9601 27.4952C18.3577 27.6905 17.703 27.7881 16.9934 27.7881C15.9887 27.7881 15.1268 27.5976 14.4077 27.2167C13.6887 26.8357 13.1411 26.3214 12.7672 25.6714C12.3911 25.0214 12.2053 24.3048 12.2053 23.5238C12.2053 22.7429 12.3887 21.9952 12.753 21.3524C13.1172 20.7071 13.6387 20.2 14.3149 19.831C14.991 19.4619 15.7744 19.2762 16.6625 19.2762C17.5506 19.2762 18.2458 19.4619 18.8744 19.831C19.503 20.2 19.9815 20.7 20.3101 21.3286C20.6387 21.9571 20.8006 22.6571 20.8006 23.4286V23.731H13.0934V22.731H20.1982L19.5482 23.0952C19.5053 22.5881 19.3672 22.119 19.1363 21.6929C18.9053 21.2667 18.5791 20.9214 18.1601 20.6619C17.7434 20.4024 17.2387 20.2738 16.6458 20.2738C15.9911 20.2738 15.4291 20.4167 14.9649 20.7024C14.5006 20.9881 14.1458 21.3667 13.903 21.8357C13.6601 22.3071 13.5387 22.8333 13.5387 23.4143V23.5405C13.5387 24.1643 13.6768 24.7143 13.9506 25.1905C14.2244 25.6667 14.6291 26.0357 15.1625 26.3C15.6958 26.5643 16.3339 26.6976 17.0744 26.6976C17.8149 26.6976 18.5125 26.5524 19.1363 26.2619C19.7601 25.9714 20.2934 25.5786 20.7387 25.081L20.422 26.7452C20.053 27.0524 19.5649 27.3024 18.9625 27.4976L18.9601 27.4952Z" fill="#111111"/>
<path d="M26.6172 19.4643L29.3601 26.1714L32.0887 19.4643H33.5006L30.0601 27.6H28.6172L25.1911 19.4643H26.6172Z" fill="#111111"/>
<path d="M41.0958 27.4952C40.4934 27.6905 39.8387 27.7881 39.1292 27.7881C38.1244 27.7881 37.2625 27.5976 36.5434 27.2167C35.8244 26.8357 35.2768 26.3214 34.903 25.6714C34.5268 25.0214 34.3411 24.3048 34.3411 23.5238C34.3411 22.7429 34.5244 21.9952 34.8887 21.3524C35.253 20.7071 35.7744 20.2 36.4506 19.831C37.1268 19.4619 37.9101 19.2762 38.7982 19.2762C39.6863 19.2762 40.3815 19.4619 41.0101 19.831C41.6387 20.2 42.1172 20.7 42.4458 21.3286C42.7744 21.9571 42.9363 22.6571 42.9363 23.4286V23.731H35.2291V22.731H42.3339L41.6839 23.0952C41.6411 22.5881 41.503 22.119 41.272 21.6929C41.0411 21.2667 40.7149 20.9214 40.2958 20.6619C39.8791 20.4024 39.3744 20.2738 38.7815 20.2738C38.1268 20.2738 37.5649 20.4167 37.1006 20.7024C36.6363 20.9881 36.2815 21.3667 36.0387 21.8357C35.7958 22.3071 35.6744 22.8333 35.6744 23.4143V23.5405C35.6744 24.1643 35.8125 24.7143 36.0863 25.1905C36.3601 25.6667 36.7649 26.0357 37.2982 26.3C37.8315 26.5643 38.4696 26.6976 39.2101 26.6976C39.9506 26.6976 40.6482 26.5524 41.272 26.2619C41.8958 25.9714 42.4291 25.5786 42.8744 25.081L42.5577 26.7452C42.1887 27.0524 41.7006 27.3024 41.0982 27.4976L41.0958 27.4952Z" fill="#111111"/>
<path d="M46.2958 19.4643V21.3048C46.5696 20.681 46.972 20.1857 47.5006 19.8214C48.0291 19.4571 48.6791 19.2738 49.4506 19.2738C50.422 19.2738 51.1791 19.5571 51.7172 20.1214C52.2553 20.6881 52.5268 21.45 52.5268 22.4119V27.5976H51.1958V22.65C51.1958 21.9429 51.0053 21.3929 50.6244 21C50.2434 20.6095 49.6934 20.4143 48.9744 20.4143C48.4363 20.4143 47.9387 20.5476 47.4839 20.8119C47.0291 21.0762 46.6315 21.4357 46.2934 21.8905V27.6H44.9625V19.4643H46.2958Z" fill="#111111"/>
<path d="M56.7291 27.0048C56.2649 26.5024 56.0315 25.7905 56.0315 24.8714V20.6048H53.9863V19.4619H56.0315V17.019L57.3625 16.75V19.4619H60.8363V20.6048H57.3625V24.7905C57.3625 25.3833 57.4982 25.831 57.7672 26.1381C58.0363 26.4452 58.4577 26.5976 59.0268 26.5976C59.6601 26.5976 60.2315 26.4381 60.7387 26.1214L60.5482 27.3905C60.3696 27.4952 60.122 27.5833 59.8101 27.6524C59.4982 27.7214 59.1625 27.7548 58.803 27.7548C57.8839 27.7548 57.1911 27.5048 56.7268 27.0024L56.7291 27.0048Z" fill="#111111"/>
<path d="M62.5577 24.2286C62.7839 23.9071 63.1125 23.6405 63.5411 23.4286C63.9696 23.2167 64.5006 23.0381 65.1339 22.8905L68.4172 22.1619V22.0667C68.4172 21.5167 68.2672 21.1 67.9649 20.8143C67.6625 20.5286 67.1577 20.3857 66.4506 20.3857C65.8268 20.3857 65.2053 20.5214 64.5863 20.7905C63.9672 21.0595 63.4315 21.4262 62.9768 21.8929L63.1839 20.419C63.5958 20.05 64.0958 19.7667 64.6815 19.5714C65.2672 19.3762 65.9101 19.2786 66.6077 19.2786C67.6434 19.2786 68.4268 19.5095 68.9553 19.969C69.4839 20.4286 69.7482 21.1143 69.7482 22.0214V27.6024H68.4172V25.7952C68.1101 26.3143 67.6339 26.7762 66.9911 27.1833C66.3458 27.5905 65.622 27.7929 64.8196 27.7929C64.0172 27.7929 63.3411 27.5786 62.8934 27.15C62.4434 26.7214 62.2196 26.1333 62.2196 25.381C62.2196 24.9381 62.3339 24.5548 62.5601 24.231L62.5577 24.2286ZM63.9696 26.3857C64.2506 26.6333 64.6696 26.7571 65.2291 26.7571C65.853 26.7571 66.4482 26.6024 67.0125 26.2905C67.5791 25.9786 68.0458 25.5786 68.4149 25.0929V22.9357L65.4172 23.7452C64.7934 23.9048 64.3268 24.1119 64.0149 24.3714C63.703 24.631 63.5482 24.95 63.5482 25.331C63.5482 25.7857 63.6887 26.1381 63.9672 26.3857H63.9696Z" fill="#111111"/>
<path d="M73.5458 26.4024C74.1744 26.619 74.822 26.7286 75.4887 26.7286C76.2077 26.7286 76.7791 26.6 77.2006 26.3405C77.6244 26.081 77.8339 25.7095 77.8339 25.2214C77.8339 24.9048 77.7149 24.6429 77.4768 24.4357C77.2387 24.2286 76.8982 24.0952 76.4529 24.031L74.1696 23.6833C73.3982 23.5667 72.8149 23.3381 72.4172 22.9929C72.0196 22.65 71.822 22.1881 71.822 21.6048C71.822 20.8643 72.1387 20.2905 72.7744 19.8833C73.4077 19.4762 74.2649 19.2738 75.3434 19.2738C75.9458 19.2738 76.5006 19.3357 77.0077 19.4571C77.5149 19.5786 77.922 19.75 78.2291 19.9738L78.4672 21.3857C78.0768 21.069 77.622 20.8119 77.103 20.6167C76.5839 20.4214 76.0077 20.3238 75.3744 20.3238C74.6553 20.3238 74.0958 20.4262 73.6934 20.6333C73.291 20.8405 73.091 21.1429 73.091 21.5452C73.091 21.8405 73.1958 22.0643 73.4077 22.2119C73.6196 22.3595 73.953 22.4667 74.4077 22.5286L76.5791 22.8452C77.4029 22.9619 78.0291 23.2095 78.4577 23.5905C78.8863 23.9714 79.1006 24.4833 79.1006 25.1286C79.1006 25.9643 78.7625 26.6167 78.0863 27.0881C77.4101 27.5595 76.5387 27.7929 75.4696 27.7929C74.1172 27.7929 72.9744 27.4976 72.0434 26.9048L71.7887 25.4786C72.3268 25.881 72.9125 26.1905 73.5411 26.4071L73.5458 26.4024Z" fill="#111111"/>
</svg>
