<svg width="128" height="33" viewBox="0 0 128 33" fill="none" xmlns="http://www.w3.org/2000/svg">
<g clip-path="url(#clip0_11882_24013)">
<g clip-path="url(#clip1_11882_24013)">
<path d="M58.5801 12.5884V7.60352H61.0777V12.7608C61.0777 14.2099 61.7714 15.2095 63.2797 15.2095C64.788 15.2095 65.4817 14.2269 65.4817 12.7608V7.60352H67.9793V12.6054C67.9793 15.5205 66.3147 17.3315 63.2797 17.3315C60.2447 17.3315 58.5801 15.5035 58.5801 12.5884Z" fill="#111111"/>
<path d="M78.1379 13.0195H71.3572C71.6173 14.4515 72.7275 15.2447 74.513 15.2447C75.9347 15.2447 76.9581 14.8997 77.7214 14.4515L77.7556 16.5383C76.7493 17.1419 75.5353 17.3314 74.3042 17.3314C71.1129 17.3314 68.9805 15.3139 68.9805 12.3636C68.9805 9.41324 71.0616 7.34473 73.7839 7.34473C76.2461 7.34473 78.2234 9.0695 78.2234 11.9846C78.2234 12.4158 78.1892 12.7778 78.1367 13.0195H78.1379ZM71.3743 11.398H75.953C75.8663 10.1214 75.0162 9.36223 73.7326 9.36223C72.5186 9.36223 71.6515 10.1384 71.3743 11.398Z" fill="#111111"/>
<path d="M86.4452 7.46619V9.93311C86.1154 9.79464 85.7173 9.69139 85.197 9.69139C83.6703 9.69139 82.4747 10.5878 82.4747 12.3308V17.0569H79.96V7.60344H82.2841V9.24198C82.7873 8.15488 84.0013 7.34473 85.4925 7.34473C85.8223 7.34473 86.2033 7.39696 86.4464 7.46497L86.4452 7.46619Z" fill="#111111"/>
<path d="M95.9673 7.84523L91.4057 14.9168H95.7756V17.0558H87.6074V16.8141L92.2558 9.74248H87.8505V7.60352H95.9673V7.84523Z" fill="#111111"/>
<path d="M79.5342 24.1934L75.7591 32.3958H75.5661L71.791 24.1934H72.7534L75.6699 30.7754L78.5864 24.1934H79.5342Z" fill="#111111"/>
<path d="M87.3957 28.3894H80.5551C80.6736 30.4215 82.0354 31.6143 84.2862 31.6143C85.3964 31.6143 86.3735 31.3349 87.0403 30.9365L87.055 31.7467C86.3002 32.1888 85.2633 32.4099 84.2264 32.4099C81.4284 32.4099 79.71 30.7458 79.71 28.1246C79.71 25.7391 81.4577 24.001 83.722 24.001C85.9863 24.001 87.4385 25.6504 87.4385 27.889C87.4385 28.0809 87.4238 28.2425 87.3945 28.3894H87.3957ZM80.5856 27.6825H86.6116C86.5518 26.0039 85.5308 24.7528 83.6951 24.7528C82.0512 24.7528 80.764 25.9164 80.5856 27.6825Z" fill="#111111"/>
<path d="M96.6048 27.6823V32.2031H95.7169V27.8596C95.7169 25.9454 94.68 24.7526 93.0068 24.7526C91.3336 24.7526 90.0305 26.0632 90.0305 28.1244V32.2031H89.1426V24.1926H89.9865V26.181C90.3712 25.0028 91.4973 24.002 93.1546 24.002C95.2418 24.002 96.6048 25.3866 96.6048 27.6835V27.6823Z" fill="#111111"/>
<path d="M113.902 31.8351V31.0249C114.332 31.3493 115.19 31.6286 116.108 31.6286C117.588 31.6286 118.373 30.9509 118.373 30.0532C118.373 29.2735 117.855 28.8168 116.878 28.4487L115.856 28.0515C114.775 27.624 114.108 27.0653 114.108 26.0632C114.108 24.885 115.248 24.002 116.981 24.002C117.632 24.002 118.343 24.1939 118.743 24.4137V25.2239C118.299 24.9737 117.677 24.7672 116.981 24.7672C115.781 24.7672 114.982 25.2822 114.982 26.0632C114.982 26.7409 115.441 27.064 116.239 27.3738L117.246 27.771C118.534 28.2714 119.215 28.92 119.215 30.0241C119.215 31.3055 118.134 32.4096 116.12 32.4096C115.157 32.4096 114.328 32.1448 113.899 31.8351H113.902Z" fill="#111111"/>
<path d="M44.5998 22.9707H42.7617V32.2031H44.5998V22.9707Z" fill="#E5004B"/>
<path d="M44.5998 13.7383H42.7617V22.9707H44.5998V13.7383Z" fill="#D11437"/>
<path d="M44.5998 4.50488H42.7617V13.7373H44.5998V4.50488Z" fill="#F37029"/>
<path d="M56.7456 26.1084C56.1887 24.8464 55.0736 24.1383 53.7277 24.1383C51.6221 24.1383 50.0283 25.7853 50.0283 28.1866C50.0283 30.588 51.6221 32.2046 53.7277 32.2046C55.1212 32.2046 56.2509 31.4503 56.792 30.1264V31.9884H57.6738V20.4434H56.7456V26.1084ZM53.8828 31.3726C52.1962 31.3726 50.926 30.141 50.926 28.1866C50.926 26.2323 52.1949 24.9545 53.8828 24.9545C55.5707 24.9545 56.8702 26.2627 56.8702 28.1721C56.8702 30.0815 55.5694 31.3738 53.8828 31.3738V31.3726Z" fill="#111111"/>
<path d="M63.4177 24.1367C61.2657 24.1367 59.6719 25.7072 59.6719 28.1086C59.6719 30.6945 61.1582 32.2031 63.6961 32.2031C64.7025 32.2031 65.8017 31.9419 66.5284 31.4646V30.6338C65.9091 31.0492 64.9187 31.3881 63.7731 31.3881C61.8067 31.3881 60.677 30.3872 60.5695 28.4171H66.8532C66.8838 28.2325 66.8996 28.0478 66.8996 27.8632C66.8996 25.6465 65.5989 24.1379 63.4164 24.1379L63.4177 24.1367ZM60.5695 27.6628C60.7246 25.9077 61.8544 24.9068 63.4018 24.9068C65.1202 24.9068 65.9861 26 66.0325 27.6628H60.5683H60.5695Z" fill="#111111"/>
<path d="M111.373 26.1088C110.816 24.8468 109.701 24.1387 108.355 24.1387C106.249 24.1387 104.655 25.7857 104.655 28.187C104.655 30.5884 106.249 32.205 108.355 32.205C109.748 32.205 110.878 31.4508 111.419 30.1268V31.9888H112.301V24.3379H111.373V26.1076V26.1088ZM108.51 31.373C106.823 31.373 105.553 30.1414 105.553 28.187C105.553 26.2327 106.822 24.9549 108.51 24.9549C110.198 24.9549 111.497 26.2631 111.497 28.1725C111.497 30.0819 110.196 31.3742 108.51 31.3742V31.373Z" fill="#111111"/>
<path d="M103.775 7.89193V9.05312C103.127 8.07656 102.181 7.61621 101.052 7.61621C98.5686 7.61621 96.6963 9.77218 96.6963 12.5367C96.6963 15.3012 98.5674 17.4025 101.033 17.4025C102.256 17.4025 103.276 16.8498 103.906 15.781V17.1073H106V7.89193H103.776H103.775ZM101.459 15.4664C99.9401 15.4664 98.847 14.3052 98.847 12.5355C98.847 10.7657 99.9401 9.5499 101.459 9.5499C102.979 9.5499 104.11 10.7111 104.11 12.5172C104.11 14.3234 102.979 15.4664 101.459 15.4664Z" fill="#111111"/>
<path d="M11.9472 15.2861C13.5704 15.2861 14.3178 16.3125 14.3178 17.2951V19.4596H13.298V17.2951C13.298 16.6732 12.9451 15.6772 11.9472 15.6772C10.9665 15.6772 10.6038 16.6732 10.6038 17.2951C10.6038 17.9061 10.5977 19.4596 10.5977 19.4596H9.57422V17.2951C9.57422 16.3137 10.3302 15.2861 11.9472 15.2861Z" fill="#111111"/>
<path d="M26.0581 19.517C24.4288 19.517 23.6826 18.5016 23.6826 17.5202V15.3496H24.7097V17.5202C24.7097 18.1335 25.0603 19.1405 26.0581 19.1405C27.0449 19.1405 27.4076 18.1335 27.4076 17.5202V15.3496H28.425V17.5202C28.425 18.5016 27.6788 19.517 26.0581 19.517Z" fill="#111111"/>
<path d="M18.4622 19.1599C18.2521 19.3323 17.981 19.4587 17.6329 19.5C16.5948 19.67 15.1561 19.0008 15.0962 17.4995C15.0401 15.9605 16.5606 15.3216 17.5535 15.3423C19.2243 15.3872 19.8142 16.6395 19.8142 17.3549V19.4587H18.7883V17.3695C18.7883 16.9092 18.5855 15.7492 17.5193 15.714C16.4824 15.6836 16.1515 16.6456 16.1429 17.3549C16.1429 17.8116 16.2528 18.9352 17.4387 19.0032C17.8015 19.0093 18.3193 18.9194 18.4622 18.7979V19.1599Z" fill="#111111"/>
<path d="M23.0463 20.0604C22.9107 20.1054 22.5382 20.1965 22.1095 20.0835C21.621 19.9645 20.8223 19.7325 20.8223 18.1037V13.5439H21.8653V15.361H22.8179V15.9878H21.8653C21.8653 15.9878 21.8958 17.2802 21.8653 18.3065C21.8482 19.2272 22.1217 19.5515 22.3343 19.6499C22.5858 19.775 22.9987 19.7276 23.0463 19.6924V20.0604Z" fill="#111111"/>
<path d="M29.4014 17.1601C29.4014 16.1386 29.929 15.4329 30.8547 15.343C31.5094 15.2628 31.7463 15.3964 31.7463 15.3964V15.7961C31.7463 15.7961 31.3994 15.7122 31.0172 15.8155C30.6044 15.9552 30.4419 16.5831 30.4419 16.7993C30.4419 17.5427 30.4419 19.4776 30.4419 19.4776H29.4014V17.1601Z" fill="#111111"/>
<path d="M35.1951 19.16C34.9789 19.3301 34.7054 19.4588 34.3634 19.5001C33.3289 19.6702 31.889 19.0009 31.8304 17.4996C31.7791 15.9607 33.2923 15.3182 34.2877 15.3425C35.9609 15.3874 36.5483 16.6397 36.5483 17.3551V19.4588H35.5249V17.3697C35.5249 16.9093 35.3136 15.7494 34.2547 15.7117C33.219 15.6838 32.8905 16.6458 32.8905 17.3551C32.8905 17.8118 32.9711 18.9305 34.1753 19.0034C34.5429 19.0094 35.0559 18.9195 35.1951 18.7981V19.16Z" fill="#111111"/>
<path d="M25.6824 1.84868C24.3279 1.44056 23.4889 2.42441 23.1152 3.69006C22.7964 4.69941 22.7317 4.97635 22.5546 5.5035C22.2908 6.23714 21.663 6.28451 21.1879 5.7197C20.6322 5.05166 19.8982 4.06052 19.4879 3.5856C18.9468 2.95885 17.6327 2.42563 16.9756 3.24307C15.9741 4.47714 17.3017 5.85696 18.004 6.68048C18.4925 7.272 19.0702 7.6704 18.8882 8.002C18.8064 8.12224 18.6671 8.16597 18.4558 8.16597C17.9649 8.15504 16.3552 7.71777 15.9778 7.64975C15.6627 7.58173 15.4258 7.59874 15.3366 7.84288C15.223 8.12467 15.6285 8.94212 16.6776 9.4802C17.7267 10.0183 19.4121 10.277 19.5734 10.3171C20.184 10.4458 20.0668 10.7531 19.9153 10.8916C19.781 11.0398 19.6124 11.1406 19.643 11.29C19.7382 11.6775 20.5663 11.7601 21.0658 11.8402C21.5433 11.924 22.154 11.9678 22.5973 11.7844C23.0285 11.6192 23.0541 11.3762 23.3497 11.273C23.7417 11.1224 23.8761 11.2487 24.72 11.4127C25.2647 11.5135 26.2295 11.3762 26.7486 11.2074C27.7281 10.8892 28.1324 10.5685 28.1324 10.4228C28.1324 10.3001 27.9638 10.2527 27.7843 10.2418C27.5742 10.209 26.8683 10.0936 26.6252 9.93569C26.3932 9.77657 26.5776 9.50449 27.0552 9.31623C27.5608 9.1146 29.1558 8.45141 29.753 7.92183C30.3564 7.39225 30.9206 6.49585 30.4236 5.98085C29.9216 5.45856 29.0349 5.98935 28.5635 6.20313C27.9211 6.51043 26.8976 7.02908 26.5471 7.10681C26.2393 7.18212 25.658 7.16026 25.9254 6.46306C26.2625 5.6031 26.4188 5.07352 26.6265 4.55487C26.8842 3.91598 27.2469 2.32845 25.6848 1.84989M31.6266 6.12782C31.193 7.95705 29.0325 9.03929 28.8236 9.15954C28.6075 9.26643 28.3424 9.37696 28.2472 9.4389C28.2081 9.4632 28.1812 9.4887 28.2606 9.513C28.4914 9.57494 29.256 9.52757 29.2425 9.85188C29.2389 10.1993 28.6636 10.7689 27.1883 11.3945C25.5786 12.0832 24.2364 11.7674 23.8968 11.6896L23.8675 11.6981C23.7784 11.7953 23.0285 12.5095 20.9034 12.1439C19.3804 11.8791 18.9993 11.7285 18.6427 11.3289C18.5462 11.2038 18.4827 10.9973 18.6207 10.7288C18.6427 10.662 18.65 10.6256 18.6085 10.6122C16.2953 10.1434 14.8969 8.69312 14.3766 7.77243C14.1226 7.30844 14.2057 6.99993 14.3376 6.80437C14.5195 6.52743 15.1314 6.50921 15.7689 6.66469C16.4749 6.85781 16.8706 6.94891 17.0196 6.98535C17.0697 7.006 17.0733 6.98535 17.0501 6.94891C16.8706 6.73271 16.2453 5.94806 15.9179 5.4452C15.3952 4.61925 14.7198 2.41955 16.4529 1.50736C18.3826 0.508938 20.0692 2.26894 20.4417 2.72928C20.7702 3.12768 21.4346 4.01193 21.4847 4.10182C21.569 4.24393 21.6117 4.12611 21.6117 4.12611C21.6117 4.12611 22.0624 2.50215 22.4581 1.75758C23.1543 0.432416 24.5844 -0.180973 25.8265 0.0449485C28.1995 0.48586 28.2887 2.86775 28.1006 3.74229C27.9321 4.50021 27.6157 5.31159 27.5229 5.51565C27.5058 5.55451 27.5229 5.56059 27.5535 5.53994C27.7354 5.45613 28.5818 5.04437 29.4868 4.65812C30.3894 4.28158 32.0503 4.29373 31.6266 6.12661" fill="#111111"/>
<path d="M10.1022 32.1705L10.7007 30.8162C10.857 30.7931 11.0072 30.7761 11.1513 30.764C11.2955 30.7531 11.4347 30.747 11.5678 30.747C11.8573 30.747 12.1211 30.7749 12.3617 30.8296C12.601 30.8842 12.8221 30.9705 13.0212 31.0883C13.2203 31.2061 13.4035 31.3543 13.5683 31.5328C13.7332 31.7114 13.8883 31.924 14.0324 32.1717H15.3515L12.5229 26.1314H11.6118L8.7832 32.1705H10.1022ZM12.0722 27.7177L13.1653 30.1166C13.0029 30.0012 12.8013 29.9125 12.5583 29.8494C12.3153 29.7862 12.0258 29.7546 11.6912 29.7546C11.5287 29.7546 11.3529 29.7631 11.1623 29.7801L12.0734 27.7177H12.0722ZM18.8481 32.1705L21.651 26.1302H20.2624L18.4231 30.3158L16.5923 26.1302H15.178L17.937 32.1705H18.8481ZM25.7461 32.4037C26.2261 32.4037 26.6719 32.3211 27.0822 32.1572C27.4926 31.9932 27.8492 31.7648 28.1497 31.4709C28.4501 31.177 28.6858 30.832 28.8568 30.4348C29.0278 30.0376 29.1133 29.6064 29.1133 29.14C29.1133 28.6736 29.0278 28.2509 28.8568 27.8537C28.6858 27.4565 28.4501 27.1128 28.1497 26.8225C27.8492 26.5322 27.4926 26.3051 27.0822 26.1411C26.6719 25.9771 26.2261 25.8945 25.7461 25.8945C25.2661 25.8945 24.8203 25.9771 24.41 26.1411C23.9996 26.3051 23.643 26.5322 23.3425 26.8225C23.0421 27.1128 22.8064 27.4565 22.6354 27.8537C22.4644 28.2509 22.3789 28.6797 22.3789 29.14C22.3789 29.6004 22.4644 30.0376 22.6354 30.4348C22.8064 30.832 23.0421 31.177 23.3425 31.4709C23.643 31.7648 23.9984 31.9932 24.41 32.1572C24.8203 32.3211 25.2661 32.4037 25.7461 32.4037ZM25.7461 31.2814C25.4457 31.2814 25.1696 31.228 24.918 31.1223C24.6665 31.0154 24.4478 30.8672 24.2634 30.6777C24.0778 30.4883 23.9337 30.2611 23.8298 29.9963C23.726 29.7316 23.6735 29.4437 23.6735 29.134C23.6735 28.8242 23.726 28.5473 23.8298 28.2886C23.9337 28.0299 24.079 27.8064 24.2634 27.6193C24.4491 27.4323 24.6665 27.2853 24.918 27.1796C25.1696 27.0727 25.4457 27.0205 25.7461 27.0205C26.0465 27.0205 26.3226 27.0739 26.5754 27.1796C26.827 27.2865 27.0456 27.4323 27.23 27.6193C27.4156 27.8064 27.5598 28.0286 27.6636 28.2886C27.7674 28.5473 27.8199 28.8291 27.8199 29.134C27.8199 29.4388 27.7674 29.7401 27.6636 30.0012C27.5598 30.2636 27.4144 30.4883 27.23 30.679C27.0444 30.8684 26.827 31.0166 26.5754 31.1235C26.3238 31.2304 26.0478 31.2826 25.7461 31.2826V31.2814ZM30.9953 26.1302V32.1705H32.2447V28.3311L35.5154 32.1705H36.4876V26.1302H35.2382V29.9696L31.9675 26.1302H30.9953Z" fill="#111111"/>
<path d="M54.864 7.8687V8.66185H57.3262V10.7656H54.864V17.9756C54.864 20.3381 53.5462 21.8224 51.3612 21.8224C50.8581 21.8224 50.3903 21.7531 50.0947 21.6159L50.1289 19.5121C50.3549 19.6154 50.6492 19.6506 50.9619 19.6506C51.8986 19.6506 52.3664 19.0129 52.3664 17.9428V10.768H50.6846V8.66428H52.3664V7.80189C52.3664 5.76617 53.6842 4.50781 55.9913 4.50781C56.5641 4.50781 56.9793 4.57705 57.3262 4.69729V6.64678C57.0831 6.56054 56.7717 6.50831 56.3723 6.50831C55.3317 6.50831 54.864 7.00874 54.864 7.87113V7.8687Z" fill="#111111"/>
<path d="M100.949 24.6143V29.7425C100.949 30.8976 101.568 31.5134 102.59 31.5134C103.024 31.5134 103.534 31.4053 103.844 31.2207V32.0831C103.534 32.2677 103.008 32.3916 102.513 32.3916C100.949 32.3916 100.035 31.4211 100.035 29.7425V24.6143H98.3936V23.7981H100.035V21.2109H100.949V23.7981H103.844V24.6143H100.949Z" fill="#111111"/>
</g>
</g>
<defs>
<clipPath id="clip0_11882_24013">
<rect width="128" height="32.41" fill="white"/>
</clipPath>
<clipPath id="clip1_11882_24013">
<rect width="110.434" height="32.41" fill="white" transform="translate(8.7832)"/>
</clipPath>
</defs>
</svg>
