<svg width="182" height="32" viewBox="0 0 182 32" fill="none" xmlns="http://www.w3.org/2000/svg">
<path d="M159.724 24.9681L159.054 26.4935C159.196 26.4814 159.323 26.4753 159.443 26.4753C159.688 26.4753 159.902 26.4965 160.078 26.5448C160.256 26.5931 160.404 26.6596 160.525 26.7411L159.724 24.9681ZM171.124 25.403C171.051 25.2188 170.949 25.0617 170.813 24.9258C170.683 24.7929 170.532 24.6902 170.348 24.6116C170.175 24.5361 169.976 24.4969 169.762 24.4969C169.547 24.4969 169.342 24.5391 169.17 24.6116C168.982 24.6902 168.834 24.7959 168.704 24.9258C168.575 25.0557 168.472 25.2127 168.393 25.4091C168.318 25.5994 168.282 25.8017 168.282 26.0162C168.282 26.2307 168.318 26.4391 168.393 26.6354C168.469 26.8318 168.572 26.9888 168.704 27.1248C168.837 27.2607 168.991 27.3664 169.17 27.4419C169.342 27.5174 169.544 27.5567 169.762 27.5567C169.979 27.5567 170.175 27.5144 170.348 27.4419C170.523 27.3664 170.683 27.2577 170.813 27.1248C170.949 26.9858 171.054 26.8227 171.124 26.6354C171.199 26.4451 171.239 26.2367 171.239 26.0132C171.239 25.7897 171.202 25.5963 171.124 25.403ZM171.124 25.403C171.051 25.2188 170.949 25.0617 170.813 24.9258C170.683 24.7929 170.532 24.6902 170.348 24.6116C170.175 24.5361 169.976 24.4969 169.762 24.4969C169.547 24.4969 169.342 24.5391 169.17 24.6116C168.982 24.6902 168.834 24.7959 168.704 24.9258C168.575 25.0557 168.472 25.2127 168.393 25.4091C168.318 25.5994 168.282 25.8017 168.282 26.0162C168.282 26.2307 168.318 26.4391 168.393 26.6354C168.469 26.8318 168.572 26.9888 168.704 27.1248C168.837 27.2607 168.991 27.3664 169.17 27.4419C169.342 27.5174 169.544 27.5567 169.762 27.5567C169.979 27.5567 170.175 27.5144 170.348 27.4419C170.523 27.3664 170.683 27.2577 170.813 27.1248C170.949 26.9858 171.054 26.8227 171.124 26.6354C171.199 26.4451 171.239 26.2367 171.239 26.0132C171.239 25.7897 171.202 25.5963 171.124 25.403ZM154.583 4.33752V30.8944H181.137V4.33752H154.583ZM161.192 28.2998C161.084 28.1155 160.969 27.9524 160.842 27.8195C160.718 27.6866 160.582 27.5778 160.434 27.4872C160.283 27.3936 160.12 27.3332 159.939 27.2909C159.761 27.2486 159.561 27.2305 159.347 27.2305C159.244 27.2305 159.141 27.2335 159.033 27.2426C158.927 27.2486 158.812 27.2607 158.697 27.2818L158.253 28.3028H157.263L159.38 23.7568H160.066L162.18 28.3028H161.195L161.192 28.2998ZM166.789 23.8142L164.723 28.2937H164.001L163.989 28.2696L161.935 23.7538H163.065L164.382 26.7774L165.702 23.7538H166.814L166.786 23.8172H166.789V23.8142ZM172.078 26.9919C171.949 27.2939 171.773 27.5597 171.553 27.7681C171.332 27.9856 171.064 28.1578 170.758 28.2816C170.447 28.4055 170.112 28.4659 169.762 28.4659C169.411 28.4659 169.07 28.4025 168.762 28.2816C168.451 28.1548 168.182 27.9826 167.961 27.7681C167.741 27.5537 167.566 27.2939 167.436 26.9919C167.306 26.6989 167.246 26.3726 167.246 26.0192C167.246 25.6658 167.309 25.3456 167.436 25.0526C167.566 24.7506 167.738 24.4999 167.961 24.2794C168.182 24.0649 168.451 23.8927 168.762 23.7659C169.07 23.6451 169.408 23.5816 169.762 23.5816C170.115 23.5816 170.447 23.6451 170.755 23.7659C171.064 23.8927 171.329 24.0649 171.556 24.2794C171.776 24.4999 171.952 24.7506 172.081 25.0526C172.211 25.3487 172.275 25.6719 172.275 26.0192C172.275 26.3666 172.211 26.6989 172.081 26.9919H172.078ZM177.682 28.2967H176.908L176.893 28.2847L174.57 25.5359V28.2967H173.568V23.7538H174.344L174.356 23.7689L176.679 26.5116V23.7508H177.682V28.2967ZM170.813 24.9258C170.683 24.7929 170.532 24.6902 170.348 24.6116C170.175 24.5361 169.976 24.4969 169.762 24.4969C169.547 24.4969 169.342 24.5391 169.17 24.6116C168.982 24.6902 168.834 24.7959 168.704 24.9258C168.575 25.0557 168.472 25.2127 168.393 25.4091C168.318 25.5994 168.282 25.8017 168.282 26.0162C168.282 26.2307 168.318 26.4391 168.393 26.6354C168.469 26.8318 168.572 26.9888 168.704 27.1248C168.837 27.2607 168.991 27.3664 169.17 27.4419C169.342 27.5174 169.544 27.5567 169.762 27.5567C169.979 27.5567 170.175 27.5144 170.348 27.4419C170.523 27.3664 170.683 27.2577 170.813 27.1248C170.949 26.9858 171.054 26.8227 171.124 26.6354C171.199 26.4451 171.239 26.2367 171.239 26.0132C171.239 25.7897 171.202 25.5963 171.124 25.403C171.051 25.2188 170.949 25.0617 170.813 24.9258Z" fill="#111111"/>
<path d="M32.7573 5.91122H30.6338V4.62143H32.7573V3.78775C32.7573 2.70941 33.0382 1.88781 33.6001 1.31994C34.1619 0.752074 34.9895 0.46814 36.0769 0.46814C36.3669 0.46814 36.6388 0.492304 36.8955 0.540633C37.1492 0.588963 37.3667 0.667498 37.548 0.776239L37.7654 2.1204C37.56 1.98749 37.3275 1.88781 37.0677 1.82136C36.8079 1.75491 36.5391 1.72168 36.2612 1.72168C35.6087 1.72168 35.1134 1.89385 34.7811 2.2382C34.4488 2.58254 34.2827 3.12625 34.2827 3.86327V4.62445H37.7322V5.91424H34.2827V13.9369H32.7573V5.91122Z" fill="#111111"/>
<path d="M39.312 4.62445H40.8374V10.3062C40.8374 11.1036 41.0488 11.7289 41.4717 12.1759C41.8946 12.6229 42.5259 12.8465 43.3595 12.8465C43.9637 12.8465 44.5225 12.6985 45.0299 12.4024C45.5374 12.1064 45.9874 11.6986 46.3741 11.1761V4.62445H47.8995V13.9369H46.3741V11.8316C46.0599 12.5444 45.6099 13.1123 45.0209 13.5291C44.4349 13.946 43.7039 14.1544 42.834 14.1544C41.6952 14.1544 40.8253 13.8342 40.2212 13.1908C39.617 12.5504 39.315 11.6715 39.315 10.5599V4.62445H39.312Z" fill="#111111"/>
<path d="M57.9912 13.8191C57.3025 14.0426 56.5504 14.1544 55.7409 14.1544C54.59 14.1544 53.6053 13.9369 52.7807 13.5019C51.9561 13.067 51.3308 12.4749 50.9019 11.7319C50.473 10.9888 50.2585 10.1672 50.2585 9.27312C50.2585 8.37903 50.467 7.52421 50.8838 6.78719C51.3006 6.05017 51.8987 5.4672 52.672 5.04431C53.4453 4.62143 54.3424 4.40999 55.3573 4.40999C56.3722 4.40999 57.1696 4.62143 57.8885 5.04431C58.6074 5.4672 59.1572 6.0411 59.5317 6.76C59.9063 7.4789 60.0935 8.28237 60.0935 9.16438V9.50873H51.2704V8.36393H59.4018L58.6588 8.78077C58.6104 8.20082 58.4534 7.66315 58.1876 7.17382C57.9217 6.68449 57.5502 6.29181 57.0699 5.99278C56.5927 5.69676 56.0127 5.54875 55.3361 5.54875C54.587 5.54875 53.9436 5.71186 53.412 6.03808C52.8804 6.36431 52.4726 6.79625 52.1947 7.33693C51.9168 7.8746 51.7779 8.47871 51.7779 9.14324V9.28823C51.7779 10.0011 51.935 10.6324 52.2491 11.1761C52.5632 11.7198 53.0254 12.1457 53.6386 12.4477C54.2517 12.7498 54.9797 12.9008 55.8255 12.9008C56.6712 12.9008 57.4717 12.7347 58.1845 12.4024C58.8974 12.0702 59.5106 11.6201 60.018 11.0492L59.6556 12.9552C59.2327 13.3056 58.6739 13.5925 57.9852 13.8161L57.9912 13.8191Z" fill="#111111"/>
<path d="M62.4224 4.62445H63.9478V8.27331C64.3224 7.40339 64.8781 6.65126 65.6182 6.02298C66.3552 5.3947 67.1738 4.8661 68.0679 4.44322L68.5391 5.98673C67.5332 6.40962 66.6512 6.84458 65.89 7.28558C65.1288 7.72659 64.4794 8.28237 63.9478 8.9469V13.9399H62.4224V4.62445Z" fill="#111111"/>
<path d="M69.9739 12.7377L76.3654 5.87497H70.1762V4.62143H78.2351V5.80248L71.8436 12.6834H78.3076V13.9369H69.9739V12.7377Z" fill="#111111"/>
<path d="M80.8026 10.0796C81.0624 9.71111 81.4369 9.40603 81.9293 9.16136C82.4186 8.91972 83.0288 8.71432 83.7537 8.54516L87.5113 7.71148V7.60274C87.5113 6.97446 87.3391 6.49419 86.9948 6.16797C86.6505 5.84175 86.0705 5.67864 85.261 5.67864C84.5481 5.67864 83.8353 5.83269 83.1285 6.14078C82.4217 6.44888 81.8055 6.86874 81.2859 7.40339L81.5215 5.71488C81.9927 5.292 82.5666 4.9688 83.2372 4.74528C83.9078 4.52175 84.6448 4.40999 85.4422 4.40999C86.6293 4.40999 87.5234 4.67278 88.1275 5.19836C88.7316 5.72394 89.0337 6.50929 89.0337 7.54837V13.9399H87.5083V11.8708C87.1579 12.4629 86.6112 12.9945 85.8742 13.4596C85.1372 13.9248 84.3065 14.1574 83.3882 14.1574C82.47 14.1574 81.6967 13.9127 81.1832 13.4234C80.6697 12.9341 80.413 12.2575 80.413 11.3996C80.413 10.8922 80.5429 10.4542 80.8026 10.0826V10.0796ZM82.4186 12.5474C82.7388 12.8314 83.2191 12.9733 83.8625 12.9733C84.5753 12.9733 85.258 12.7951 85.9044 12.4387C86.5508 12.0823 87.0884 11.6262 87.5113 11.0673V8.59953L84.0799 9.52383C83.3671 9.70507 82.8294 9.94369 82.473 10.2397C82.1166 10.5357 81.9384 10.9012 81.9384 11.3392C81.9384 11.8587 82.0985 12.2635 82.4186 12.5474Z" fill="#111111"/>
<path d="M1.43393 24.3035C1.81452 23.5665 2.3552 22.9835 3.059 22.5606C3.75977 22.1378 4.58439 21.9263 5.52681 21.9263C6.46923 21.9263 7.22437 22.1529 7.89494 22.606C8.56551 23.059 9.0488 23.645 9.33878 24.3579V18.205L10.8642 17.915V31.4562H9.33878V29.224C9.03672 29.949 8.55041 30.541 7.88588 30.9941C7.22135 31.4472 6.43298 31.6737 5.52681 31.6737C4.62064 31.6737 3.75977 31.4593 3.059 31.0303C2.35822 30.6014 1.81452 30.0154 1.43393 29.2784C1.05333 28.5414 0.863037 27.7107 0.863037 26.7925C0.863037 25.8742 1.05333 25.0436 1.43393 24.3065V24.3035ZM2.78714 28.5867C3.05296 29.1304 3.44865 29.5684 3.97725 29.8946C4.50283 30.2208 5.13715 30.3839 5.87418 30.3839C6.6112 30.3839 7.23948 30.2118 7.82547 29.8674C8.41146 29.5231 8.91892 29.0247 9.3418 28.3692V25.2278C8.91892 24.5754 8.41146 24.074 7.82547 23.7296C7.23948 23.3853 6.58703 23.2131 5.87418 23.2131C5.16132 23.2131 4.50283 23.3762 3.97725 23.7024C3.45167 24.0286 3.05296 24.4636 2.78714 25.0013C2.52133 25.5389 2.38843 26.137 2.38843 26.7895C2.38843 27.4419 2.52133 28.043 2.78714 28.5867Z" fill="#111111"/>
<path d="M20.9771 31.3384C20.2884 31.562 19.5362 31.6737 18.7267 31.6737C17.5759 31.6737 16.5912 31.4562 15.7666 31.0213C14.9419 30.5863 14.3167 29.9943 13.8878 29.2512C13.4588 28.5082 13.2444 27.6866 13.2444 26.7925C13.2444 25.8984 13.4528 25.0436 13.8696 24.3065C14.2865 23.5695 14.8846 22.9865 15.6578 22.5637C16.4311 22.1408 17.3282 21.9293 18.3431 21.9293C19.358 21.9293 20.1555 22.1408 20.8744 22.5637C21.5933 22.9865 22.143 23.5605 22.5176 24.2794C22.8921 24.9982 23.0794 25.8017 23.0794 26.6837V27.0281H14.2563V25.8833H22.3877L21.6446 26.3001C21.5963 25.7202 21.4392 25.1825 21.1734 24.6932C20.9076 24.2038 20.5361 23.8112 20.0558 23.5121C19.5785 23.2161 18.9986 23.0681 18.322 23.0681C17.5729 23.0681 16.9295 23.2312 16.3979 23.5574C15.8662 23.8837 15.4585 24.3156 15.1806 24.8563C14.9027 25.3939 14.7637 25.9981 14.7637 26.6626V26.8076C14.7637 27.5204 14.9208 28.1517 15.2349 28.6954C15.5491 29.2391 16.0112 29.665 16.6244 29.9671C17.2376 30.2692 17.9655 30.4202 18.8113 30.4202C19.6571 30.4202 20.4575 30.2541 21.1704 29.9218C21.8832 29.5895 22.4964 29.1395 23.0039 28.5686L22.6414 30.4746C22.2185 30.8249 21.6597 31.1119 20.971 31.3354L20.9771 31.3384Z" fill="#111111"/>
<path d="M29.7458 22.1438L32.8872 29.8221L36.0105 22.1438H37.6265L33.6877 31.4562H32.0354L28.1147 22.1438H29.7488H29.7458Z" fill="#111111"/>
<path d="M46.3197 31.3384C45.631 31.562 44.8789 31.6737 44.0694 31.6737C42.9185 31.6737 41.9338 31.4562 41.1092 31.0213C40.2846 30.5863 39.6593 29.9943 39.2304 29.2512C38.8015 28.5082 38.587 27.6866 38.587 26.7925C38.587 25.8984 38.7954 25.0436 39.2123 24.3065C39.6291 23.5695 40.2272 22.9865 41.0005 22.5637C41.7737 22.1408 42.6709 21.9293 43.6858 21.9293C44.7007 21.9293 45.4981 22.1408 46.217 22.5637C46.9359 22.9865 47.4856 23.5605 47.8602 24.2794C48.2348 24.9982 48.422 25.8017 48.422 26.6837V27.0281H39.5989V25.8833H47.7303L46.9873 26.3001C46.9389 25.7202 46.7819 25.1825 46.516 24.6932C46.2502 24.2038 45.8787 23.8112 45.3984 23.5121C44.9212 23.2161 44.3412 23.0681 43.6646 23.0681C42.9155 23.0681 42.2721 23.2312 41.7405 23.5574C41.2089 23.8837 40.8011 24.3156 40.5232 24.8563C40.2453 25.3939 40.1064 25.9981 40.1064 26.6626V26.8076C40.1064 27.5204 40.2634 28.1517 40.5776 28.6954C40.8917 29.2391 41.3539 29.665 41.9671 29.9671C42.5802 30.2692 43.3082 30.4202 44.154 30.4202C44.9997 30.4202 45.8002 30.2541 46.513 29.9218C47.2259 29.5895 47.8391 29.1395 48.3465 28.5686L47.984 30.4746C47.5612 30.8249 47.0024 31.1119 46.3137 31.3354L46.3197 31.3384Z" fill="#111111"/>
<path d="M50.7479 22.1438H52.2733V24.2491C52.5874 23.5363 53.0465 22.9684 53.6537 22.5516C54.2578 22.1347 55.0039 21.9263 55.8859 21.9263C57.0005 21.9263 57.8644 22.2495 58.4806 22.8989C59.0968 23.5484 59.4079 24.4213 59.4079 25.5208V31.4562H57.8825V25.7927C57.8825 24.9831 57.665 24.3518 57.23 23.9048C56.7951 23.4578 56.1638 23.2342 55.3422 23.2342C54.726 23.2342 54.1551 23.3853 53.6355 23.6873C53.116 23.9894 52.6599 24.4002 52.2733 24.9227V31.4593H50.7479V22.1438Z" fill="#111111"/>
<path d="M64.2197 30.7736C63.688 30.1997 63.4222 29.3841 63.4222 28.333V23.4487H61.0813V22.1408H63.4222V19.3437L64.9476 19.0356V22.1408H68.9227V23.4487H64.9476V28.2424C64.9476 28.919 65.1017 29.4355 65.4098 29.7859C65.7179 30.1363 66.1981 30.3114 66.8536 30.3114C67.5785 30.3114 68.234 30.1302 68.8139 29.7677L68.5965 31.2206C68.3911 31.3415 68.1102 31.4411 67.7537 31.5197C67.3973 31.5982 67.0107 31.6375 66.5999 31.6375C65.5457 31.6375 64.7543 31.3505 64.2227 30.7766L64.2197 30.7736Z" fill="#111111"/>
<path d="M70.8891 27.599C71.1489 27.2305 71.5234 26.9254 72.0158 26.6807C72.5051 26.4391 73.1152 26.2337 73.8402 26.0645L77.5978 25.2308V25.1221C77.5978 24.4938 77.4256 24.0135 77.0813 23.6873C76.7369 23.3611 76.157 23.198 75.3475 23.198C74.6346 23.198 73.9217 23.352 73.2149 23.6601C72.5081 23.9682 71.8919 24.3881 71.3724 24.9227L71.608 23.2342C72.0792 22.8114 72.6531 22.4882 73.3237 22.2646C73.9942 22.0411 74.7313 21.9293 75.5287 21.9293C76.7158 21.9293 77.6099 22.1921 78.214 22.7177C78.8181 23.2433 79.1202 24.0286 79.1202 25.0677V31.4593H77.5948V29.3902C77.2444 29.9822 76.6977 30.5138 75.9606 30.979C75.2236 31.4442 74.393 31.6767 73.4747 31.6767C72.5564 31.6767 71.7832 31.4321 71.2697 30.9427C70.7562 30.4534 70.4994 29.7768 70.4994 28.919C70.4994 28.4115 70.6293 27.9735 70.8891 27.602V27.599ZM72.5051 30.0668C72.8253 30.3507 73.3055 30.4927 73.9489 30.4927C74.6618 30.4927 75.3444 30.3145 75.9908 29.958C76.6372 29.6016 77.1749 29.1455 77.5978 28.5867V26.1189L74.1664 27.0432C73.4536 27.2244 72.9159 27.463 72.5595 27.7591C72.203 28.0551 72.0248 28.4206 72.0248 28.8585C72.0248 29.3781 72.1849 29.7828 72.5051 30.0668Z" fill="#111111"/>
<path d="M83.4698 30.0849C84.1887 30.3326 84.9318 30.4564 85.6929 30.4564C86.5145 30.4564 87.17 30.3084 87.6533 30.0124C88.1366 29.7164 88.3782 29.2905 88.3782 28.7317C88.3782 28.3692 88.2423 28.0702 87.9705 27.8316C87.6986 27.5929 87.3089 27.4419 86.7985 27.3694L84.1826 26.9707C83.3006 26.8378 82.6301 26.575 82.177 26.1823C81.7239 25.7896 81.4974 25.261 81.4974 24.5935C81.4974 23.7477 81.8598 23.0892 82.5878 22.6241C83.3127 22.1589 84.2944 21.9263 85.5298 21.9263C86.2185 21.9263 86.8559 21.9958 87.4358 22.1347C88.0158 22.2737 88.4839 22.47 88.8343 22.7238L89.1062 24.3398C88.6591 23.9773 88.1366 23.6843 87.5446 23.4608C86.9525 23.2373 86.291 23.1255 85.5661 23.1255C84.7415 23.1255 84.1011 23.2433 83.642 23.4789C83.1828 23.7145 82.9533 24.0619 82.9533 24.524C82.9533 24.8623 83.0741 25.1161 83.3157 25.2852C83.5574 25.4544 83.938 25.5752 84.4605 25.6477L86.9465 26.0101C87.8889 26.143 88.6078 26.427 89.0971 26.865C89.5865 27.2999 89.8311 27.8889 89.8311 28.626C89.8311 29.5835 89.4445 30.3296 88.6682 30.8672C87.8949 31.4049 86.8951 31.6737 85.6718 31.6737C84.1222 31.6737 82.8143 31.3354 81.7511 30.6558L81.4611 29.0217C82.0773 29.4808 82.7479 29.8372 83.4668 30.0849H83.4698Z" fill="#111111"/>
<path d="M114.449 24.9952C112.446 24.9952 111.323 26.1974 111.323 28.1457V30.7102H112.685V28.0128C112.685 26.5176 113.216 25.6084 114.449 25.6084C115.597 25.6084 116.131 26.5176 116.131 28.0128V30.7102H117.494V28.1457C117.494 26.1944 116.479 24.9952 114.449 24.9952Z" fill="#111111"/>
<path d="M121.765 24.9952C120.137 24.9952 118.638 26.0917 118.638 28.0128C118.638 29.8282 119.868 30.8974 121.577 30.8974C122.487 30.8974 123.178 30.5229 123.553 29.8282V30.7102H124.861V28.1729C124.861 26.2216 123.792 24.9952 121.762 24.9952H121.765ZM121.765 30.2812C120.563 30.2812 120.001 29.4808 120.001 28.0128C120.001 26.6777 120.56 25.6084 121.765 25.6084C122.97 25.6084 123.502 26.6777 123.502 28.0128C123.502 29.3479 122.78 30.2812 121.765 30.2812Z" fill="#111111"/>
<path d="M135.119 27.8769C135.119 29.3721 134.638 30.2813 133.463 30.2813C132.288 30.2813 131.863 29.3721 131.863 27.8769V25.1796H130.5V27.744C130.5 29.6953 131.461 30.8945 133.463 30.8945C135.466 30.8945 136.481 29.6923 136.481 27.744V25.1796H135.119V27.8769Z" fill="#111111"/>
<path d="M144.519 24.9952C142.891 24.9952 141.392 26.0917 141.392 28.0128C141.392 29.8282 142.622 30.8974 144.328 30.8974C145.238 30.8974 145.932 30.5229 146.304 29.8282V30.7102H147.612V28.1729C147.612 26.2216 146.542 24.9952 144.513 24.9952H144.519ZM144.519 30.2812C143.316 30.2812 142.755 29.4808 142.755 28.0128C142.755 26.6777 143.313 25.6084 144.519 25.6084C145.724 25.6084 146.255 26.6777 146.255 28.0128C146.255 29.3479 145.534 30.2812 144.519 30.2812Z" fill="#111111"/>
<path d="M137.949 27.5597V30.7102H139.311V27.3966C139.311 26.3273 139.553 25.6326 140.646 25.6326C140.779 25.6326 140.939 25.6326 141.099 25.6598V25.101C140.803 25.0194 140.513 24.9952 140.217 24.9952C138.909 24.9952 137.946 25.7443 137.946 27.5597H137.949Z" fill="#111111"/>
<path d="M128.763 30.2541C128.096 30.2541 127.694 29.8282 127.694 28.5172V25.8199H129.485V25.1795H127.694V23.79H126.332V28.3028C126.332 30.2782 127.401 30.8944 128.549 30.8944C129.108 30.8944 129.618 30.7343 129.99 30.4685C129.857 30.3356 129.748 30.1725 129.694 30.0154C129.425 30.1755 129.135 30.2571 128.757 30.2571L128.763 30.2541Z" fill="#111111"/>
<path d="M134.663 12.0793C134.663 12.8647 134.264 13.8192 133.98 14.3236C133.823 14.6045 133.784 14.668 133.784 14.7102C133.784 14.7405 133.802 14.7646 133.838 14.7646C134.028 14.7646 135.602 13.5534 136.704 13.5534C137.351 13.5534 137.946 13.8977 137.946 14.7102C137.946 15.5228 137.393 16.87 135.557 17.8547C135.424 17.9241 135.149 18.0722 134.956 18.1749C134.708 18.3078 134.641 18.3712 134.641 18.4527C134.641 18.6612 135.372 18.5615 135.372 18.9904C135.372 19.22 135.094 19.5975 134.363 20.0053C133.696 20.3769 132.808 20.6819 131.702 20.6819C130.914 20.6819 130.476 20.5279 130.391 20.5279C130.358 20.5279 130.334 20.5369 130.301 20.5702C130.256 20.6094 129.691 21.0927 128.38 21.0927C126.872 21.0927 125.184 20.4735 125.184 19.8996C125.184 19.6187 125.537 19.5402 125.537 19.4828C125.537 19.4586 125.495 19.4495 125.477 19.4465C123.372 18.8786 120.997 17.758 120.997 16.2447C120.997 15.8279 121.29 15.6104 121.719 15.6104C122.459 15.6104 123.483 15.9517 123.704 15.9517C123.758 15.9517 123.776 15.9215 123.776 15.8913C123.776 15.849 123.743 15.8037 123.68 15.7523C122.33 14.6075 121.768 13.5534 121.768 12.6714C121.768 11.5296 122.592 10.6657 123.686 10.4512C125.7 10.0525 126.918 11.7742 127.993 13.1577C128.023 13.1969 128.078 13.2785 128.144 13.2785C128.226 13.2785 128.247 13.1969 128.322 12.8949C128.398 12.5928 128.419 12.4962 128.516 12.1095C128.83 10.8318 129.588 9.20374 131.778 9.20374C133.068 9.20374 134.663 10.0737 134.663 12.0823V12.0793ZM128.425 14.9549C128.017 14.9549 127.803 14.7254 127.386 14.2058C127.32 14.1243 127.033 13.7739 126.957 13.6863C125.951 12.472 125.22 11.9223 124.387 11.9223C123.882 11.9223 123.13 12.2032 123.13 13.1637C123.13 13.2906 123.145 13.8282 123.668 14.4656C124.332 15.2781 125.296 16.3504 125.38 16.4501C125.471 16.5528 125.519 16.6615 125.516 16.7582C125.516 16.8126 125.498 17.0482 125.099 17.0482C124.701 17.0482 122.994 16.5468 122.393 16.5468C122.115 16.5468 121.937 16.6676 121.937 16.87C121.937 17.3986 122.964 18.4799 126.196 19.2079C126.601 19.2985 126.637 19.4435 126.637 19.4948C126.637 19.6851 126.135 19.7697 126.135 20.0929C126.135 20.5611 127.655 20.7695 128.09 20.7695C128.866 20.7695 129.247 20.543 129.534 20.3436C129.781 20.1745 129.92 20.108 130.086 20.108C130.434 20.108 130.757 20.3255 131.811 20.3255C133.092 20.3255 134.436 19.6549 134.436 19.2925C134.436 19.1505 134.225 19.1143 133.747 18.9572C133.497 18.8756 133.352 18.7729 133.352 18.6159C133.352 18.4588 133.472 18.347 133.835 18.193C134.222 18.0238 134.499 17.9 134.786 17.7641C136.342 17.015 136.946 16.0967 136.949 15.4352C136.949 15.0093 136.707 14.7223 136.312 14.7223C135.789 14.7223 135.212 15.0244 134.653 15.3083C133.605 15.8399 133.225 16.0423 132.856 16.0423C132.596 16.0423 132.476 15.8188 132.473 15.6889C132.473 15.6134 132.485 15.5258 132.518 15.4322C132.654 15.0667 132.747 14.819 132.895 14.4293C133.113 13.8524 133.379 13.1939 133.379 12.5415C133.379 11.5205 132.587 10.8288 131.548 10.8288C130.385 10.8288 129.887 11.9253 129.591 12.7952C129.512 13.0338 129.204 13.9611 129.111 14.2421C128.948 14.7284 128.733 14.9579 128.422 14.9579L128.425 14.9549Z" fill="#111111"/>
<path d="M109.365 1.3653V0H108.495C103.052 0 98.6271 4.42515 98.6271 9.86521V32H99.9924V9.86521C99.9924 5.17727 103.804 1.3653 108.492 1.3653H109.365Z" fill="#111111"/>
</svg>
