<svg width="256" height="192" viewBox="0 0 256 192" fill="none" xmlns="http://www.w3.org/2000/svg" xmlns:xlink="http://www.w3.org/1999/xlink"><g clip-path="url(#clip0)"><path d="M22.523 145.558c15.385 0 22.523 9.723 22.523 19.077v20.677h-9.723v-20.677c0-5.908-3.446-15.385-12.8-15.385-9.477 0-12.8 9.477-12.8 15.385v20.677H0v-20.677c0-9.354 7.138-19.077 22.523-19.077zM156.431 185.927c-15.385 0-22.523-9.723-22.523-19.077v-20.676h9.723v20.676c0 5.908 3.446 15.385 12.8 15.385 9.354 0 12.8-9.477 12.8-15.385v-20.676h9.723v20.676c0 9.354-7.139 19.077-22.523 19.077zM84.308 182.481c-2.093 1.6-4.677 2.831-7.877 3.323-9.846 1.6-23.508-4.923-24-19.2-.493-14.646 13.907-20.8 23.261-20.554 15.877.37 21.539 12.431 21.539 19.2v20.062h-9.846v-19.938c0-4.308-1.97-15.508-12.062-15.754-9.846-.246-13.046 8.861-13.046 15.63 0 4.308.984 15.016 12.308 15.631 3.446.246 8.369-.738 9.723-1.969v3.569zM127.877 191.097c-1.354.492-4.923 1.23-8.985.246-4.554-1.231-12.184-3.2-12.184-18.954v-43.446h9.846v17.231h8.984v6.03h-8.984s.246 12.185 0 22.031c-.246 8.739 2.461 11.815 4.431 12.8 2.338 1.231 6.276.739 6.769.492v3.57h.123zM188.062 163.404c0-9.6 5.046-16.492 13.784-17.354 6.154-.615 8.492.493 8.492.493v3.938s-3.2-.861-6.892.123c-4.061 1.231-5.538 7.262-5.538 9.354v25.6h-9.846v-22.154zM243.077 182.481c-2.092 1.6-4.677 2.831-7.877 3.323-9.846 1.6-23.508-4.923-24-19.2-.492-14.646 13.908-20.8 23.262-20.554 15.876.37 21.538 12.431 21.538 19.2v20.062h-9.723v-19.938c0-4.308-1.969-15.508-12.062-15.754-9.846-.246-13.046 8.861-13.046 15.63 0 4.308.985 15.016 12.308 15.631 3.446.246 8.369-.738 9.723-1.969v3.569h-.123z" fill="#FF6B0B"/><path d="M175.754 35.528c-1.6 7.261-4.677 15.015-5.539 16.985-.123.369 0 .369.247.246 1.846-.862 9.846-4.8 18.338-8.493 8.492-3.569 24.369-3.569 20.308 14.031-4.062 17.477-24.616 27.816-26.708 28.923-1.969.985-4.431 2.093-5.415 2.708-.37.246-.616.492.123.738 2.215.616 9.477.123 9.477 3.2-.123 3.323-5.416 8.739-19.57 14.77-15.384 6.523-28.061 3.569-31.261 2.83-.123 0-.123 0-.246.123-.862.862-8 7.754-28.185 4.308-14.523-2.461-18.092-3.938-21.415-7.877-.985-1.108-1.6-3.2-.37-5.661.37-.616.37-.985-.123-1.108-21.907-4.554-35.2-18.339-40.123-27.077-2.461-4.43-1.723-7.385-.492-9.23 1.723-2.585 7.63-2.832 13.662-1.355 6.769 1.724 10.461 2.708 11.815 3.077.492.123.492 0 .246-.369-1.723-2.092-7.63-9.6-10.708-14.4-5.046-7.877-11.323-28.923 5.17-37.538C83.323 4.882 99.2 21.62 102.769 26.05c3.077 3.815 9.354 12.185 9.846 13.17.739 1.353 1.231.122 1.231.122s4.308-15.507 8.123-22.646c6.523-12.43 20.185-18.461 32-16.246 22.769 4.062 23.631 26.708 21.785 35.077zm-23.016-18.092c-12.8-3.939-20.676 5.538-24.369 17.477-2.954 9.6-3.569 12.184-5.292 17.23-2.462 7.016-8.369 7.631-12.923 2.093-5.292-6.4-12.185-15.754-16.123-20.308-5.17-6.03-17.6-11.077-23.877-3.323-9.477 11.692 3.077 24.861 9.723 32.738 4.554 5.539 10.215 9.354 8.37 12.554-.616 1.23-2.093 1.6-4.062 1.6-4.677 0-19.939-4.184-23.508-4.923-3.077-.615-5.292-.37-6.154 1.846-.985 2.708 2.83 10.462 12.8 15.631 9.846 5.046 25.846 7.63 27.446 8 5.785 1.23 4.677 4.061 3.323 5.538-1.353 1.477-2.954 2.339-2.584 3.816.861 3.692 8.738 4.431 13.415 5.169 4.554.738 10.462 1.108 14.646-.492 4.062-1.6 4.308-3.816 7.016-4.923 3.692-1.477 5.046-.123 13.046 1.353 5.169.985 14.154-.246 19.2-1.846 9.354-3.077 13.169-6.03 13.169-7.507 0-1.108-1.6-1.6-3.323-1.847-1.969-.246-8.739-1.353-10.954-2.83-2.338-1.477-.615-4.062 4.185-6.031 4.677-1.846 19.815-8.123 25.6-13.292 5.661-5.047 11.077-13.539 6.277-18.462-4.677-4.923-13.047.123-17.6 2.215-6.031 2.831-15.877 7.877-19.2 8.616-2.954.615-8.37.492-5.908-6.154 3.2-8.246 4.677-13.292 6.646-18.215 2.462-6.031 6.031-21.17-8.985-25.723z" fill="url(#a)"/></g><defs><pattern id="a" patternContentUnits="userSpaceOnUse" width="178" height="119" patternUnits="userSpaceOnUse" x="38"><use xlink:href="#b"/></pattern><image id="b" width="178" height="119" xlink:href="https://cdn.jsdelivr.net/npm/@naturacosmeticos/natds-themes@latest/dist/assets/natura-b-official-embed-image-0.png"/></defs></svg>