<svg width="256" height="27" viewBox="0 0 256 27" fill="none" xmlns="http://www.w3.org/2000/svg"><path d="M247.356 12.7h-5.925V5.285h5.925a3.242 3.242 0 0 1 2.757.926c.355.359.623.796.778 1.276.157.48.2.99.123 1.49a3.23 3.23 0 0 1-.886 2.787 3.236 3.236 0 0 1-2.772.936zm0-11.106h-9.713v23.311h3.82V16.39h5.764a7.093 7.093 0 0 0 7.306-4.423c.379-.95.548-1.97.496-2.99a6.967 6.967 0 0 0-2.088-5.436 6.97 6.97 0 0 0-5.488-1.947h-.097zm-24.185 3.497c3.626 0 6.087 3.238 6.087 8.191 0 4.954-2.332 8.127-5.957 8.127-3.627 0-6.088-3.238-6.088-8.191 0-4.954 2.332-8.127 5.958-8.127zm0-3.853c-5.99 0-10.005 4.857-10.005 12.044 0 7.188 3.983 12.012 9.941 12.012 5.957 0 10.004-4.857 10.004-12.077s-3.982-11.979-9.94-11.979zm-18.422 9.713h-10.07V1.594h-3.885v23.311h3.885V14.74h10.037v10.166h3.885V1.595h-3.885l.033 9.356zm-25.902.162c-4.143-1.23-4.823-2.007-4.823-3.238 0-1.23 1.327-2.622 3.594-2.622a6.467 6.467 0 0 1 5.147 2.137l2.752-2.785-.162-.161a10.379 10.379 0 0 0-7.641-3.238 6.925 6.925 0 0 0-7.04 3.757 6.946 6.946 0 0 0-.73 2.718c0 4.436 2.752 5.601 7.317 6.961 3.82 1.133 4.986 1.975 4.986 3.561 0 .745 0 3.076-4.5 3.076a8.124 8.124 0 0 1-5.763-2.622v-.162l-2.784 2.687a10.812 10.812 0 0 0 8.643 4.112c7.545 0 8.678-4.5 8.678-7.155 0-4.5-3.238-5.893-7.479-7.123l-.195.097zm-26.45-3.043c-.713 1.262-1.652 3.043-2.138 4.08a106.425 106.425 0 0 0-2.169-4.145l-3.626-6.475h-4.727l8.385 14.116v9.195h3.82v-9.13l8.387-14.117h-4.436l-3.496 6.476zm-27.165-2.688h2.59a6.896 6.896 0 0 1 7.415 7.868 6.902 6.902 0 0 1-7.577 7.867h-2.59l.162-15.735zm2.59-3.788h-6.475v23.311h6.475a10.65 10.65 0 0 0 11.17-11.655 10.577 10.577 0 0 0-.529-4.575 10.57 10.57 0 0 0-6.275-6.436 10.587 10.587 0 0 0-4.559-.645h.193zm-21.206 3.497c3.626 0 6.087 3.238 6.087 8.191 0 4.954-2.331 8.127-5.958 8.127-3.626 0-6.086-3.238-6.086-8.191 0-4.954 2.331-8.127 5.957-8.127zm0-3.853c-5.99 0-10.004 4.857-10.004 12.044 0 7.188 3.982 12.012 9.939 12.012s10.004-4.857 10.004-12.077-3.982-11.979-9.939-11.979zM85.409 10.66h-5.795V5.188h5.892a2.558 2.558 0 0 1 2.947 2.785 2.622 2.622 0 0 1-2.947 2.687h-.097zm.097 10.652h-5.892v-7.09h5.957a3.239 3.239 0 0 1 3.82 3.528c0 2.396-1.262 3.562-3.917 3.562h.032zm4.274-9.033a4.92 4.92 0 0 0 2.558-4.5 5.987 5.987 0 0 0-6.8-6.185h-9.712v23.311h9.292c5.213 0 8.062-2.557 8.062-7.252a5.537 5.537 0 0 0-3.497-5.374h.097zm-40.6 2.104h6.475v-3.788H49.18V5.382h11.3V1.594H45.392v23.311h15.67v-3.788H49.277l-.097-6.734zM35.81 10.854h-9.972v-9.26H21.95v23.311h3.886V14.74h10.069v10.166h3.885V1.595h-3.885l-.097 9.26zM1.036 5.414h6.476v19.427h3.885V5.415h6.831v-3.82H1.036v3.82z" fill="#004236"/></svg>