<svg width="256" height="109" viewBox="0 0 256 109" fill="none" xmlns="http://www.w3.org/2000/svg">
<path d="M247.855 94.9649H241.909V87.5642H247.855C248.352 87.5177 248.854 87.5814 249.323 87.7508C249.793 87.9201 250.219 88.1909 250.572 88.5438C250.924 88.8965 251.194 89.3226 251.361 89.7915C251.53 90.2604 251.591 90.7604 251.542 91.2558C251.604 91.7546 251.552 92.2609 251.388 92.7366C251.226 93.2123 250.956 93.6449 250.602 94.0021C250.247 94.3591 249.815 94.6314 249.339 94.7982C248.864 94.9649 248.356 95.022 247.855 94.9649ZM247.855 83.855H238.028V107.2H241.856V98.6742H247.626C252.459 98.6742 255.476 95.8263 255.476 91.2558C255.532 90.2526 255.372 89.2489 255.007 88.3125C254.641 87.3761 254.078 86.5286 253.355 85.8273C252.634 85.126 251.769 84.5871 250.82 84.2469C249.871 83.9067 248.86 83.773 247.855 83.855ZM223.385 87.3708C227.036 87.3708 229.506 90.6581 229.506 95.5627C229.506 100.467 227.159 103.702 223.508 103.702C219.856 103.702 217.422 100.397 217.422 95.4923C217.422 90.5878 219.75 87.3708 223.385 87.3708ZM223.473 83.5034C217.474 83.5034 213.434 88.3552 213.434 95.5627C213.434 102.77 217.439 107.552 223.402 107.552C229.365 107.552 233.476 102.717 233.476 95.4923C233.476 88.2673 229.454 83.5034 223.473 83.5034ZM204.983 93.1015H194.892V83.855H191.134V107.2H195.033V97.0042H205.125V107.2H209.041V83.855H205.125L204.983 93.1015ZM179.031 93.2774C174.868 92.0469 174.197 91.291 174.197 89.9374C174.197 88.3025 175.537 87.3356 177.726 87.3356C178.713 87.286 179.7 87.454 180.614 87.8278C181.529 88.2015 182.35 88.7718 183.018 89.4978L183.195 89.6736L185.947 86.8961L185.771 86.7204C184.779 85.7002 183.588 84.8932 182.271 84.3489C180.954 83.8048 179.54 83.535 178.113 83.5562C173.509 83.5562 170.298 86.2633 170.298 90.1659C170.298 94.6134 173.068 95.7561 177.655 97.1975C181.483 98.3402 182.666 99.184 182.666 100.713C182.666 101.487 182.666 103.807 178.149 103.807C177.054 103.779 175.974 103.531 174.977 103.078C173.98 102.625 173.084 101.976 172.345 101.17L172.186 100.995L169.398 103.561L169.54 103.737C170.569 104.935 171.85 105.893 173.291 106.543C174.734 107.193 176.302 107.52 177.884 107.499C185.471 107.499 186.599 103.016 186.599 100.344C186.599 95.8791 183.195 94.4727 179.084 93.3125L179.031 93.2774ZM152.32 90.3241C151.615 91.5898 150.679 93.3829 150.167 94.4025C149.657 93.3653 148.704 91.5195 148.016 90.289L144.363 83.855H139.794L148.192 97.9183V107.147H152.108V97.971L160.506 83.9077H156.007L152.32 90.3241ZM125.062 87.7399H127.621C133.778 87.7399 135.066 92.0293 135.066 95.6154C135.066 99.2016 133.778 103.491 127.621 103.491H125.062V87.7399ZM127.621 83.855H121.146V107.2H127.621C130.303 107.2 139.035 106.356 139.035 95.5275C139.035 88.2321 134.766 83.855 127.621 83.855ZM106.45 87.3708C110.119 87.3708 112.589 90.6581 112.589 95.5627C112.589 100.467 110.225 103.702 106.591 103.702C102.956 103.702 100.486 100.397 100.486 95.4923C100.486 90.5878 102.921 87.3708 106.45 87.3708ZM106.555 83.5034C100.557 83.5034 96.5169 88.3552 96.5169 95.5627C96.5169 102.77 100.522 107.552 106.485 107.552C112.448 107.552 116.559 102.717 116.559 95.4923C116.559 88.2673 112.536 83.5034 106.555 83.5034ZM85.2785 92.9082H79.4035V87.4587H85.2785C87.7132 87.4587 88.2248 88.9705 88.2248 90.2362C88.2413 90.6145 88.1743 90.9919 88.0282 91.3415C87.8821 91.6912 87.6607 92.0046 87.3795 92.2596C87.0984 92.5145 86.7645 92.7047 86.4015 92.8167C86.0384 92.9289 85.6551 92.9601 85.2785 92.9082ZM85.2785 103.561H79.4035V96.5295H85.3843C85.8783 96.4617 86.3811 96.5031 86.857 96.6512C87.3329 96.7993 87.7701 97.0501 88.1375 97.386C88.5048 97.7217 88.7933 98.1343 88.9823 98.594C89.1712 99.0537 89.256 99.5493 89.2305 100.045C89.2305 102.436 87.9426 103.561 85.2962 103.561H85.2785ZM89.6186 94.5255C90.4195 94.0783 91.0817 93.4203 91.5328 92.6236C91.984 91.8268 92.2067 90.922 92.1768 90.0076C92.1768 86.1403 89.6363 83.8198 85.3667 83.8198H75.681V107.2H85.0316C90.3243 107.2 93.1295 104.616 93.1295 99.9398C93.1786 98.7884 92.8646 97.6506 92.2319 96.6859C91.599 95.7212 90.6791 94.9781 89.601 94.5606L89.6186 94.5255ZM48.9349 96.6526H55.5333V92.8555H48.9349V87.7399H60.2791V83.855H45.0183V107.2H60.773V103.403H48.9349V96.6526ZM35.4913 93.1367H25.3997V83.855H21.483V107.2H25.3997V97.0042H35.4913V107.2H39.408V83.855H35.4913V93.1367ZM0.470825 87.7399H7.15735V107.253H11.074V87.7399H17.7605V83.855H0.470825V87.7399Z" fill="black"/>
<path d="M140.694 0.0904131C139.834 0.243712 139.056 0.694658 138.499 1.36366C137.94 2.03267 137.636 2.87673 137.642 3.74687C137.617 4.54765 137.868 5.3327 138.352 5.97208C138.837 6.61145 139.526 7.06678 140.305 7.2627C155.231 12.8177 164.176 28.1115 159.024 42.4209C156.739 48.7889 152.533 54.2972 146.985 58.1918C141.435 62.0863 134.814 64.1766 128.026 64.1766C121.239 64.1766 114.617 62.0863 109.068 58.1918C103.519 54.2972 99.3142 48.7889 97.0284 42.4209C91.8767 28.094 100.804 12.8001 115.747 7.2627C116.527 7.06678 117.216 6.61145 117.7 5.97208C118.185 5.3327 118.436 4.54765 118.411 3.74687C118.412 2.88182 118.106 2.04433 117.548 1.3819C116.989 0.719469 116.214 0.274576 115.359 0.125573C110.278 -0.806122 93.0765 11.095 93.2175 31.4868C93.2175 40.6761 96.8812 49.4891 103.403 55.987C109.924 62.4848 118.769 66.1353 127.991 66.1353C137.214 66.1353 146.058 62.4848 152.58 55.987C159.1 49.4891 162.764 40.6761 162.764 31.4868C162.906 11.095 145.775 -0.806122 140.694 0.0904131Z" fill="black"/>
<path d="M158.124 39.7665C154.737 34.8337 150.065 30.9139 144.61 28.4279C144.022 28.2341 143.513 27.8549 143.159 27.3476C142.806 26.8403 142.629 26.2323 142.652 25.6153C142.65 25.2177 142.727 24.8236 142.88 24.4565C143.034 24.0894 143.259 23.7566 143.543 23.4779C143.829 23.1991 144.166 22.9803 144.538 22.8341C144.908 22.6879 145.306 22.6175 145.705 22.6268C149.056 22.6971 156.202 31.4868 158.124 39.7665Z" fill="black"/>
<path d="M143.499 11.341C143.056 11.3364 142.618 11.4195 142.208 11.5854C141.798 11.7514 141.425 11.997 141.111 12.3078C140.799 12.6187 140.55 12.9885 140.382 13.396C140.213 13.8034 140.127 14.2404 140.129 14.6811C140.095 15.3515 140.279 16.0151 140.654 16.5728C141.029 17.1303 141.575 17.5521 142.21 17.775C146.127 19.5512 149.623 22.1282 152.474 25.3384C155.326 28.5487 157.467 32.3205 158.759 36.4088C160.347 22.6972 147.892 11.4641 143.499 11.341Z" fill="black"/>
<path d="M97.9104 39.7665C101.304 34.8331 105.982 30.9133 111.442 28.4279C112.031 28.2341 112.54 27.8549 112.893 27.3476C113.246 26.8402 113.424 26.2322 113.401 25.6152C113.394 25.2236 113.309 24.8372 113.152 24.4781C112.994 24.1192 112.768 23.7947 112.484 23.5236C112.2 23.2523 111.865 23.0397 111.499 22.8978C111.132 22.756 110.742 22.6879 110.348 22.6972C106.996 22.6972 99.8335 31.4868 97.9104 39.7665Z" fill="black"/>
<path d="M112.624 11.3411C113.066 11.3364 113.504 11.4195 113.913 11.5857C114.321 11.7519 114.693 11.9978 115.005 12.3088C115.317 12.62 115.564 12.99 115.731 13.3974C115.898 13.8047 115.981 14.2412 115.976 14.6811C116.014 15.3521 115.831 16.017 115.455 16.5753C115.079 17.1334 114.532 17.5546 113.894 17.775C109.983 19.5542 106.49 22.1323 103.642 25.3423C100.795 28.5523 98.6555 32.3226 97.3634 36.4089C95.705 22.6972 108.214 11.4641 112.624 11.3411Z" fill="black"/>
</svg>
