<svg width="256" height="109" viewBox="0 0 256 109" fill="none" xmlns="http://www.w3.org/2000/svg"><path d="M247.855 94.965h-5.946v-7.4h5.946a3.394 3.394 0 0 1 2.717.979 3.366 3.366 0 0 1 .97 2.712 3.321 3.321 0 0 1-2.203 3.542c-.475.167-.983.224-1.484.167zm0-11.11h-9.827V107.2h3.828v-8.526h5.77c4.833 0 7.85-2.848 7.85-7.418a7.025 7.025 0 0 0-2.121-5.428 7.08 7.08 0 0 0-5.5-1.972zm-24.47 3.516c3.651 0 6.121 3.287 6.121 8.192 0 4.904-2.347 8.139-5.998 8.139-3.652 0-6.086-3.305-6.086-8.21 0-4.904 2.328-8.121 5.963-8.121zm.088-3.868c-5.999 0-10.039 4.852-10.039 12.06 0 7.207 4.005 11.989 9.968 11.989s10.074-4.835 10.074-12.06c0-7.225-4.022-11.989-10.003-11.989zm-18.49 9.599h-10.091v-9.247h-3.758V107.2h3.899V97.004h10.092V107.2h3.916V83.855h-3.916l-.142 9.246zm-25.952.175c-4.163-1.23-4.834-1.986-4.834-3.34 0-1.635 1.34-2.601 3.529-2.601a6.74 6.74 0 0 1 5.292 2.162l.177.176 2.752-2.778-.176-.176a10.447 10.447 0 0 0-3.5-2.371 10.479 10.479 0 0 0-4.158-.793c-4.604 0-7.815 2.707-7.815 6.61 0 4.447 2.77 5.59 7.357 7.032 3.828 1.142 5.011 1.986 5.011 3.515 0 .774 0 3.094-4.517 3.094a8.178 8.178 0 0 1-3.172-.729 8.139 8.139 0 0 1-2.632-1.908l-.159-.175-2.788 2.566.142.176a10.797 10.797 0 0 0 3.751 2.806c1.443.65 3.011.977 4.593.956 7.587 0 8.715-4.483 8.715-7.155 0-4.465-3.404-5.871-7.515-7.031l-.053-.036zm-26.711-2.953a126.776 126.776 0 0 0-2.153 4.079 105.207 105.207 0 0 0-2.151-4.114l-3.653-6.434h-4.569l8.398 14.063v9.229h3.916v-9.176l8.398-14.063h-4.499l-3.687 6.416zm-27.258-2.584h2.559c6.157 0 7.445 4.29 7.445 7.875 0 3.587-1.288 7.876-7.445 7.876h-2.559V87.74zm2.559-3.885h-6.475V107.2h6.475c2.682 0 11.414-.844 11.414-11.672 0-7.296-4.269-11.673-11.414-11.673zm-21.171 3.516c3.669 0 6.139 3.287 6.139 8.192 0 4.904-2.364 8.139-5.998 8.139-3.635 0-6.105-3.305-6.105-8.21 0-4.904 2.435-8.121 5.964-8.121zm.105-3.868c-5.998 0-10.038 4.852-10.038 12.06 0 7.207 4.005 11.989 9.968 11.989s10.074-4.835 10.074-12.06c0-7.225-4.023-11.989-10.004-11.989zm-21.277 9.405h-5.875v-5.45h5.875c2.435 0 2.947 1.513 2.947 2.778a2.575 2.575 0 0 1-.846 2.024 2.595 2.595 0 0 1-2.1.648zm0 10.653h-5.875v-7.032h5.981a3.4 3.4 0 0 1 2.754.857 3.376 3.376 0 0 1 1.093 2.659c0 2.391-1.288 3.516-3.935 3.516h-.018zm4.34-9.036a5.001 5.001 0 0 0 1.915-1.901 4.978 4.978 0 0 0 .644-2.616c0-3.868-2.54-6.188-6.81-6.188H75.68v23.38h9.35c5.293 0 8.098-2.584 8.098-7.26a5.505 5.505 0 0 0-.897-3.254A5.537 5.537 0 0 0 89.6 94.56l.018-.036zm-40.683 2.128h6.598v-3.797h-6.598V87.74h11.344v-3.885H45.02V107.2h15.754v-3.797H48.935v-6.75zM35.49 93.137H25.4v-9.282h-3.917V107.2H25.4V97.004H35.49V107.2h3.917V83.855h-3.917v9.282zM.471 87.74h6.686v19.513h3.917V87.74h6.687v-3.885H.47v3.885zM140.694.09a3.7 3.7 0 0 0-3.052 3.657c-.025.8.226 1.586.71 2.225a3.533 3.533 0 0 0 1.953 1.29c14.926 5.556 23.871 20.85 18.719 35.159a32.816 32.816 0 0 1-12.039 15.77 33.007 33.007 0 0 1-18.959 5.986 33.004 33.004 0 0 1-18.958-5.985 32.816 32.816 0 0 1-12.04-15.771c-5.151-14.327 3.776-29.62 18.719-35.158a3.526 3.526 0 0 0 1.953-1.29 3.5 3.5 0 0 0 .711-2.226 3.665 3.665 0 0 0-.863-2.365 3.694 3.694 0 0 0-2.189-1.256c-5.081-.932-22.282 10.969-22.141 31.36 0 9.19 3.663 18.003 10.185 24.501a34.836 34.836 0 0 0 24.588 10.148c9.223 0 18.067-3.65 24.589-10.148a34.59 34.59 0 0 0 10.184-24.5c.142-20.392-16.989-32.293-22.07-31.397z" fill="#000"/><path d="M158.124 39.767a32.98 32.98 0 0 0-13.514-11.34 2.846 2.846 0 0 1-1.958-2.813 2.973 2.973 0 0 1 .891-2.136 2.992 2.992 0 0 1 2.162-.851c3.351.07 10.497 8.86 12.419 17.14z" fill="#000"/><path d="M143.499 11.341a3.346 3.346 0 0 0-2.388.967 3.33 3.33 0 0 0-.982 2.373 3.108 3.108 0 0 0 2.081 3.094 30.66 30.66 0 0 1 10.264 7.563 30.512 30.512 0 0 1 6.285 11.07c1.588-13.71-10.867-24.944-15.26-25.067zM97.91 39.767a33.03 33.03 0 0 1 13.532-11.34 2.853 2.853 0 0 0 1.959-2.812 2.972 2.972 0 0 0-3.053-2.918c-3.352 0-10.514 8.79-12.438 17.07z" fill="#000"/><path d="M112.624 11.341a3.33 3.33 0 0 1 2.381.968 3.285 3.285 0 0 1 .971 2.372 3.079 3.079 0 0 1-.521 1.894c-.376.558-.923.98-1.561 1.2a30.698 30.698 0 0 0-10.252 7.567 30.57 30.57 0 0 0-6.279 11.067c-1.658-13.712 10.851-24.945 15.261-25.068z" fill="#000"/></svg>