<svg xmlns="http://www.w3.org/2000/svg" viewBox="0 0 24 24"><path d="M3.4 13c0 .3.1.6.3.9.9-1 2-1.8 3.3-2.3-.6-.7-1-1.6-1-2.5 0-.8.2-1.6.7-2.3.1-.1.3-.2.4-.2 1 0 1.9-.5 2.5-1.3.2-.2.5-.3.7-.1l.1.1c.5.8 1.4 1.3 2.4 1.3.2 0 .4.1.5.2.2.3.4.6.5 1 .2-.1.5-.2.8-.3.2-.3.4-.6.7-.8-.6-3-3.4-4.9-6.4-4.3-2.5.5-4.4 2.8-4.4 5.4v.5c-.6.3-1 1-1 1.7 0 .4.1.8.3 1.1 0 .1 0 .1-.1.1-.2.6-.3 1.2-.3 1.8zM11 13c-.3.1-.6.1-.9.1-.8 0-1.6-.2-2.2-.7-3.2 1-5.4 3.9-5.4 7.2 0 .3.2.5.5.5h9c-.6-.9-1-2.1-1-3.2V13zM21 11c-.3 0-.5.2-.5.5v2.8c0 .3-.2.5-.5.5s-.5-.2-.5-.5V9.1c0-.3-.3-.6-.6-.6s-.5.2-.6.5v5.3c0 .3-.2.5-.5.5s-.5-.2-.5-.5V7.8c0-.3-.3-.6-.6-.6s-.5.2-.5.5v6.5c0 .3-.2.5-.5.5s-.5-.2-.5-.5V9c0-.3-.2-.5-.5-.5s-.5.2-.5.5v6.4c1.8.4 3.1 1.9 3.2 3.8 0 .3-.2.5-.5.5s-.5-.2-.5-.5c0-2.4-2.6-2.9-2.8-2.9-.3 0-.5-.2-.5-.4v-3.2c0-.3-.3-.6-.6-.6s-.5.2-.5.5V17c0 .3 0 .6.1.9.5 2.6 3.1 4.3 5.7 3.7 1.9-.4 3.3-1.8 3.7-3.7.1-.3.1-.6.1-.9v-5.5c0-.3-.3-.5-.6-.5z"/></svg>