<svg xmlns="http://www.w3.org/2000/svg" viewBox="0 0 24 24"><defs><style>.cls-1{fill:#363636;fill-rule:evenodd}</style></defs><g id="Camada_1"><path d="M21.655 7.917a8.282 8.282 0 0 0-9.997-5.657A8.286 8.286 0 0 0 6.67 5.928a.5.5 0 1 0 .85.526 7.284 7.284 0 0 1 12.67 7.169.5.5 0 0 0 .889.459 8.283 8.283 0 0 0 .576-6.165z" class="cls-1"/><path d="M17.246 9.9c-.441-.4-1.052-.738-1.764-1.011-1.428-.548-3.366-.876-5.482-.876s-4.055.328-5.482.876c-.712.273-1.323.611-1.764 1.011-.441.4-.753.903-.753 1.49 0 .024 0 .047.002.071l-.002.039V13c0 .135.12.412.588.791.441.357 1.097.726 1.913 1.058C6.132 15.513 8.318 16 10.501 16a.5.5 0 0 1 .5.5V19a.5.5 0 0 1-.5.5c-2.317 0-4.631-.514-6.376-1.224-.85-.346-1.585-.747-2.124-1.175v1.367c0 .581.33 1.086.772 1.489.448.408 1.067.767 1.787 1.063 1.443.595 3.384.979 5.441.979s3.998-.385 5.441-.979c.72-.297 1.339-.655 1.787-1.063.442-.403.772-.908.772-1.489V11.5c0-.013 0-.026-.002-.039l.002-.071c0-.587-.312-1.09-.754-1.49zm-.672 2.24c-.318.288-.805.571-1.451.818-1.287.494-3.098.81-5.124.81s-3.837-.316-5.124-.81c-.645-.247-1.133-.53-1.451-.818-.318-.288-.425-.542-.425-.749s.108-.461.425-.749c.318-.288.805-.571 1.451-.818 1.287-.494 3.098-.809 5.124-.809s3.837.316 5.124.809c.645.247 1.133.53 1.451.818.318.288.425.542.425.749s-.108.461-.425.749z" class="cls-1"/></g></svg>