<svg xmlns="http://www.w3.org/2000/svg" viewBox="0 0 24 24"><path d="M21.268 2.732A2.5 2.5 0 0 0 19.5 2h-4.167a.833.833 0 0 0 0 1.666h3.333a.833.833 0 0 1 0 1.666h-3.333a.833.833 0 0 0 0 1.666h3.333a.833.833 0 0 1 0 1.666h-3.333a.833.833 0 0 0 0 1.666h3.333a.833.833 0 0 1 0 1.666h-3.333a.833.833 0 0 0 0 1.666h1.492a.84.84 0 0 1 .62.272.836.836 0 0 1 .213.644l-.65 6.5a.831.831 0 0 0 .826.917h3.333a.833.833 0 0 0 .833-.833V4.5a2.5 2.5 0 0 0-.732-1.768zM12.417 14.499a2.882 2.882 0 0 0-1.843.676L6.118 2.555a.833.833 0 0 0-1.613.369l.705 6.342a3.325 3.325 0 0 0 1.465 2.406l1.07.712-.985 2.791a2.886 2.886 0 0 0-1.843-.676 2.915 2.915 0 0 0-2.916 2.916v1.667a2.916 2.916 0 0 0 5.832 0v-1.667c0-.045-.006-.088-.012-.131a1.146 1.146 0 0 1-.01-.082l.855-2.422.855 2.422c-.002.028-.006.055-.01.082-.006.043-.012.086-.012.131v1.667a2.916 2.916 0 0 0 5.832 0v-1.667a2.915 2.915 0 0 0-2.916-2.916zm-6.25 4.584a1.254 1.254 0 0 1-1.25 1.25 1.252 1.252 0 0 1-1.25-1.25v-1.667a1.254 1.254 0 0 1 1.25-1.25 1.252 1.252 0 0 1 1.25 1.25v1.667zm7.5 0a1.254 1.254 0 0 1-1.25 1.25 1.252 1.252 0 0 1-1.25-1.25v-1.667a1.254 1.254 0 0 1 1.25-1.25 1.252 1.252 0 0 1 1.25 1.25v1.667z" class="cls-1"/><path d="M12.123 9.268l.705-6.342a.835.835 0 0 0-.643-.901.835.835 0 0 0-.97.532L9.548 7.272 11 11.387a3.308 3.308 0 0 0 1.123-2.118z" class="cls-1"/></svg>