<svg xmlns="http://www.w3.org/2000/svg" viewBox="0 0 24 24"><defs><style>.cls-1{fill:#363636}</style></defs><g id="Camada_1"><path d="M9.792 11.937a.501.501 0 0 0 .742-.401 1.619 1.619 0 0 1 .67-1.202c.401-.262.737-.606.987-1.006.278.22.521.482.72.775.298.44.488.94.558 1.464a.5.5 0 0 0 .738.371 4.472 4.472 0 0 0 1.676-1.629 4.408 4.408 0 0 0 .616-2.245c0-.591-.054-1.703-.681-2.994-.628-1.294-1.813-2.73-4.013-4.002a.5.5 0 0 0-.743.347 5.44 5.44 0 0 1-1.059 2.395c-.143.184-.347.377-.612.626l-.007.006c-.253.238-.549.515-.824.839-.567.666-1.061 1.541-1.061 2.783 0 .789.213 1.564.616 2.244a4.477 4.477 0 0 0 1.675 1.629z" class="cls-1"/><path d="M21.469 9.846c-.794-.556-1.853-.973-3.022-1.331l.001.183c0 .61-.039 1.25-.16 1.865.894.296 1.57.597 2.034.922.537.376.678.695.678 1.015 0 .149-.074.409-.426.762-.351.351-.918.726-1.718 1.069C17.26 15.015 14.9 15.5 12 15.5s-5.26-.485-6.856-1.169c-.8-.343-1.367-.718-1.718-1.069C3.074 12.91 3 12.649 3 12.5c0-.32.14-.639.678-1.015.478-.334 1.179-.643 2.111-.947a6.612 6.612 0 0 1-.231-2.024c-1.17.358-2.231.776-3.026 1.332-.876.613-1.531 1.474-1.531 2.654 0 .088.005.175.013.261a.491.491 0 0 0-.013.116V18.5c0 .696.391 1.321.961 1.839.574.522 1.383.987 2.354 1.375C6.262 22.492 8.952 23 12.002 23s5.74-.508 7.686-1.286c.971-.388 1.779-.853 2.354-1.375.57-.518.961-1.142.961-1.839v-6c0-1.18-.655-2.041-1.531-2.654z" class="cls-1"/></g></svg>