<svg xmlns="http://www.w3.org/2000/svg" viewBox="0 0 24 24"><path fill-rule="evenodd" d="M16.79 6.113a9.04 9.04 0 0 0 .724-1.486 15.008 15.008 0 0 0 .46-1.381l.007-.023v-.01a.499.499 0 0 0-.607-.61l-.067.022h-.002l-.006.003-.022.01-.083.035-.303.129c-.253.109-.599.26-.969.427-.5.227-1.075.499-1.518.741a13.91 13.91 0 0 0-1.17-1.764 20.582 20.582 0 0 0-.795-.965l-.051-.058a.193.193 0 0 1-.015-.016l-.006-.006a.5.5 0 0 0-.736 0l-.006.006-.015.016-.051.058c-.044.05-.109.123-.186.214-.156.183-.371.443-.608.751A13.911 13.911 0 0 0 9.594 3.97a24.15 24.15 0 0 0-1.518-.741 58.84 58.84 0 0 0-.969-.427l-.303-.129-.083-.035-.022-.01a.02.02 0 0 1-.006-.002h-.002a.5.5 0 0 0-.676.588v.002l.002.007a3.912 3.912 0 0 0 .03.108c.021.073.051.179.091.307.079.255.197.607.346.989a8.96 8.96 0 0 0 .725 1.485c-3.191.662-5.132 4.143-3.764 7.294l.38.853c.915 1.994 2.018 4.005 3.256 5.589 1.394 1.784 3.062 3.156 4.92 3.156s3.525-1.372 4.919-3.156c1.415-1.811 2.654-4.179 3.637-6.441l.131-.329c1.102-3.061-.816-6.326-3.898-6.964zM7.5 11.002a1 1 0 1 1 2 0 1 1 0 0 1-2 0zM9 16.996a1 1 0 1 1 0-2 1 1 0 0 1 0 2zm2.5-3.994a1 1 0 1 1 2 0 1 1 0 0 1-2 0zm2 5.998a1 1 0 1 1 0-2 1 1 0 0 1 0 2zm3-6.998a1 1 0 1 1 0-2 1 1 0 0 1 0 2z"/></svg>