<svg xmlns="http://www.w3.org/2000/svg" viewBox="0 0 24 24"><path d="M22.5 10a.5.5 0 0 0 .5-.5v-5a.5.5 0 0 0-.5-.5h-21a.5.5 0 0 0-.5.5v5a.5.5 0 0 0 .5.5C2.878 10 4 11.122 4 12.5S2.878 15 1.5 15a.5.5 0 0 0-.5.5v5a.5.5 0 0 0 .5.5h21a.5.5 0 0 0 .5-.5v-5a.5.5 0 0 0-.5-.5c-1.379 0-2.5-1.121-2.5-2.5s1.121-2.5 2.5-2.5zM8 10a1.5 1.5 0 1 1 3.001.001A1.5 1.5 0 0 1 8 10zm1 6a.5.5 0 0 1-.354-.853l6-6a.5.5 0 0 1 .707.707l-6 6a.498.498 0 0 1-.354.146zm5.5.5a1.5 1.5 0 1 1 .001-3.001A1.5 1.5 0 0 1 14.5 16.5z"/></svg>