<svg xmlns="http://www.w3.org/2000/svg" version="1.0" viewBox="0 0 24 24"><path fill-rule="evenodd" d="M12.2 1.5h-.4l-8 3c-.2.1-.3.3-.3.5v7c0 3.2 2.1 5.9 4.2 7.6 1 .9 2 1.6 2.8 2.1.4.2.7.4.9.5.1.1.2.1.3.1h.1c.1.1.3.1.4 0h.1c.1 0 .2-.1.3-.1.2-.1.5-.3.9-.5.5-.3 1-.7 1.7-1.1-2.4-.9-4.2-3.3-4.2-6.1 0-3.6 2.9-6.5 6.5-6.5 1.1 0 2.1.3 3 .7V5c0-.2-.1-.4-.3-.5l-8-3zm8.3 8.4c-.9-.6-1.9-.9-3-.9-3 0-5.5 2.5-5.5 5.5 0 2.6 1.7 4.7 4.1 5.3.4.1.9.2 1.4.2 3 0 5.5-2.5 5.5-5.5 0-1.9-1-3.6-2.5-4.6zm-3 1.1c.3 0 .5.2.5.5V14h2.5c.3 0 .5.2.5.5s-.2.5-.5.5H18v2.5c0 .3-.2.5-.5.5s-.5-.2-.5-.5V15h-2.5c-.3 0-.5-.2-.5-.5s.2-.5.5-.5H17v-2.5c0-.3.2-.5.5-.5z" clip-rule="evenodd"/></svg>