<svg xmlns="http://www.w3.org/2000/svg" viewBox="0 0 24 24"><path fill-rule="evenodd" d="M9.076 2.468a.5.5 0 0 0-.534-.463l-1.578.113a2.08 2.08 0 0 0-1.425.712h-.001c-.363.421-.543.96-.504 1.513l.113 1.578c0 .009.001.018.003.026l-.004.007A2.044 2.044 0 0 0 3.69 4.837l-1.522-.293a.503.503 0 0 0-.586.396l-.293 1.522a2.037 2.037 0 0 0 .315 1.536c.306.453.774.761 1.31.865l1.132.218c-.018.15-.031.302-.039.456a1.907 1.907 0 0 0-1.143-.154l-1.444.249a.5.5 0 0 0-.409.572l.241 1.492c.085.524.364.991.79 1.306a1.92 1.92 0 0 0 1.474.352l1.444-.249a.464.464 0 0 0 .106-.031c.087.13.178.259.274.387-.44.064-.845.27-1.161.591l-1.086 1.105a.5.5 0 0 0 .006.707l1.105 1.086c.39.383.908.592 1.454.588a2.04 2.04 0 0 0 1.445-.612l.856-.871c.139.109.28.217.424.324.82.613 1.702 1.186 2.594 1.714l-.168.089a52.63 52.63 0 0 1-5.94 2.65c-.171.064-.305.112-.396.145l-.103.036-.026.009-.008.003a.5.5 0 1 0 .327.945h.002l.007-.003.028-.01.108-.038.408-.149c.351-.131.855-.324 1.465-.574a53.137 53.137 0 0 0 4.592-2.129c.24-.127.483-.257.725-.39.243.134.485.264.725.39a53.89 53.89 0 0 0 6.572 2.89l.028.01.007.003h.002a.5.5 0 1 0 .327-.945l-.008-.003-.026-.009-.103-.036-.396-.145a52.35 52.35 0 0 1-5.94-2.65l-.168-.089a29.007 29.007 0 0 0 2.594-1.714c.141-.105.28-.212.417-.319l.851.866c.383.389.898.609 1.445.612a2.042 2.042 0 0 0 1.454-.588l1.105-1.086a.5.5 0 0 0 .006-.707l-1.086-1.105a2.034 2.034 0 0 0-1.151-.589c.098-.132.192-.265.282-.399a.454.454 0 0 0 .105.03l1.444.249a1.92 1.92 0 0 0 1.474-.352c.426-.315.705-.781.79-1.306l.241-1.492a.5.5 0 0 0-.409-.572l-1.444-.249a1.912 1.912 0 0 0-1.149.157 6.018 6.018 0 0 0-.039-.45l1.122-.216a2.047 2.047 0 0 0 1.309-.865 2.04 2.04 0 0 0 .315-1.537l-.293-1.522a.498.498 0 0 0-.586-.396l-1.523.293a2.047 2.047 0 0 0-1.449 1.106l-.03-.051.111-1.55a2.076 2.076 0 0 0-.504-1.512 2.076 2.076 0 0 0-1.425-.713l-1.578-.113a.501.501 0 0 0-.534.463l-.113 1.578a2.076 2.076 0 0 0 .504 1.512c.363.418.87.673 1.425.713l1.228.088c.264.443.608 1.113.833 1.895.272.948.361 2.025-.034 3.067-.493 1.297-1.602 2.564-3.054 3.745-.233.189-.473.376-.719.558a29.61 29.61 0 0 1-2.959 1.908 29.432 29.432 0 0 1-2.959-1.908 20.725 20.725 0 0 1-.719-.558c-1.452-1.181-2.561-2.447-3.054-3.745-.396-1.042-.307-2.12-.034-3.067.226-.784.57-1.455.834-1.898l1.19-.085a2.08 2.08 0 0 0 1.425-.712h.001c.363-.421.543-.96.504-1.513l-.113-1.578z"/></svg>