<svg xmlns="http://www.w3.org/2000/svg" viewBox="0 0 24 24"><defs><style>.cls-1{fill:#363636;fill-rule:evenodd}</style></defs><g id="Camada_1"><path d="M3.5 6.5a.5.5 0 0 0 1 0 2 2 0 0 1 2-2 .5.5 0 0 0 0-1 2 2 0 0 1-2-2 .5.5 0 0 0-1 0 2 2 0 0 1-2 2 .5.5 0 0 0 0 1 2 2 0 0 1 2 2zM18.5 3.5a1 1 0 0 1 1 1 .5.5 0 0 0 1 0 1 1 0 0 1 1-1 .5.5 0 0 0 0-1 1 1 0 0 1-1-1 .5.5 0 0 0-1 0 1 1 0 0 1-1 1 .5.5 0 0 0 0 1zM8.32 10H2.68a1.5 1.5 0 0 0-1.48 1.747l.042.253h4.257a.5.5 0 0 1 .5.5v5a.5.5 0 0 1-.5.5H2.242l.264 1.582a.5.5 0 0 0 .493.418v.005h5V20a.5.5 0 0 0 .493-.418l1.306-7.836a1.5 1.5 0 0 0-1.48-1.747z" class="cls-1"/><path d="M5 13H1.41l.666 4H5v-4zM3 22.5a.5.5 0 0 0 .5.5h4a.5.5 0 0 0 .5-.5v-1.995H3V22.5zM22.894 20.193l-.002-.002-.007-.009-.028-.036-.109-.145a31.833 31.833 0 0 1-1.674-2.528c-.969-1.631-2.018-3.742-2.416-5.746-.124-.623-.215-1.408-.296-2.113l-.067-.574c-.524-4.295-3.891-8.039-8.396-8.039a7.88 7.88 0 0 0-4.565 1.444c.275.339.695.556 1.165.556a1 1 0 0 1 0 2 1.5 1.5 0 0 0-1.5 1.5 1 1 0 0 1-2 0c0-.332-.108-.639-.29-.887a7.908 7.908 0 0 0-.71 3.287v.718c.211-.076.44-.118.68-.118h2.32v-.58l.01-.002c.264-.049.632-.12 1.047-.209.821-.178 1.856-.435 2.629-.744.457-.183.961-.439 1.44-.707a31.079 31.079 0 0 0 1.638-.998l.096.223c.188.426.462.985.756 1.337.304.364.743.65 1.072.835.114.064.221.12.312.165v2.648l-.002.011c-.004.027-.01.069-.021.124a5.67 5.67 0 0 1-.717 1.886c-.509.833-1.352 1.664-2.786 1.926a5.378 5.378 0 0 1-.794.082s-.061.305-.083.503c-.021.194-.028.5-.028.5.058.252.164.586.358.974.417.834 1.228 1.898 2.795 2.942a.48.48 0 0 0 .038.023c2.854 1.557 5.34 1.695 7.125 1.431a9.15 9.15 0 0 0 2.092-.563 6.814 6.814 0 0 0 .725-.346l.043-.025.013-.008.004-.003h.002l.001-.002a.5.5 0 0 0 .129-.732zM17.5 17.5a1 1 0 0 0-1 1 .5.5 0 0 1-1 0 1 1 0 0 0-1-1 .5.5 0 0 1 0-1 1 1 0 0 0 1-1 .5.5 0 0 1 1 0 1 1 0 0 0 1 1 .5.5 0 0 1 0 1z" class="cls-1"/></g></svg>