<svg xmlns="http://www.w3.org/2000/svg" viewBox="0 0 24 24"><path d="M3.5 2H4v1.5h6V2h2.499a.5.5 0 0 0 0-1H3.5a.5.5 0 0 0 0 1zM17.272 12.195l-1.283.741a.501.501 0 0 0 .12.916l2.732.732a.5.5 0 0 0 .612-.353l.732-2.732a.5.5 0 0 0-.733-.562l-1.315.759-1.705-2.945a.5.5 0 0 0-.866 0l-1.449 2.5a.499.499 0 1 0 .865.501l1.016-1.753 1.272 2.197zM13.552 12.602l-2.732.732a.499.499 0 0 0-.12.916l1.262.729-1.894 3.271a.5.5 0 0 0 .433.75h3a.5.5 0 0 0 0-1h-2.133l1.46-2.522 1.336.771a.5.5 0 0 0 .733-.562l-.732-2.732a.5.5 0 0 0-.612-.354zM21.933 18.25l-1.449-2.516a.5.5 0 0 0-.867.499l1.017 1.766h-2.635v-1.5a.5.5 0 0 0-.854-.354l-1.998 1.998a.498.498 0 0 0-.001.71l2 2a.499.499 0 0 0 .854-.354v-1.5h3.5a.499.499 0 0 0 .433-.75z" class="cls-1"/><path d="M9.201 19.249a1.502 1.502 0 0 1 .001-1.501l1.392-2.405-.395-.228a1.5 1.5 0 0 1 .362-2.748L12 11.981v-.937c0-1.104-.306-2.159-.693-3.127a5.708 5.708 0 0 1-.315-1.009c-.078-.421-.081-.999-.059-1.497.011-.244.027-.459.04-.613l.017-.18.005-.047v-.012l.002-.003a.498.498 0 0 0-.496-.557H3.5a.5.5 0 0 0-.496.557v.003l.002.012.005.047.017.18c.013.154.03.369.04.613.022.498.019 1.076-.059 1.497a5.733 5.733 0 0 1-.315 1.009c-.387.969-.693 2.024-.693 3.127v11.455a.5.5 0 0 0 .5.5h9a.5.5 0 0 0 .5-.5v-2.5h-1.5a1.498 1.498 0 0 1-1.299-.751z" class="cls-1"/></svg>