<svg xmlns="http://www.w3.org/2000/svg" viewBox="0 0 24 24"><path d="M19.956 9.904c-.102-.262-.444-.534-.752-.616l-4.351-.631h-.044l-1.954-4.081a.985.985 0 0 0-.127-.22 1.32 1.32 0 0 0-.64-.334V4s-.024.01-.039.01c-.01 0-.02-.005-.034-.005h-.147c-.254.041-.566.324-.713.611L9.226 8.708c-.015.077.015.03-.059.02l-4.351.632a.858.858 0 0 0-.142.03c-.19.088-.381.258-.508.442 0 0-.005 0-.01.005-.01.01-.014.026-.024.036a.43.43 0 0 0-.04.062.48.48 0 0 0-.068.175.04.04 0 0 1-.01.02v.036c0 .026-.014.046-.014.067 0 .015.005.025.01.04 0 .268.112.601.288.817l3.067 3.136.04.036c.063.057.068.057.038.139l-.732 4.45-.015.15c.03.338.225.738.454.882.23.149.66.154.958.03l3.878-2.093.014-.016c.034-.03.01-.015.064.026l3.863 2.084c.04.02.078.041.112.051.313.077.748.01.953-.174.205-.185.347-.611.327-.945l-.737-4.548-.01-.056 3.155-3.234c.034-.036.064-.072.093-.113.166-.288.234-.734.132-.996l.004.005zm-.854.416l-.01.005-3.165 3.24.059-.052a1.192 1.192 0 0 0-.303.467c-.044.154-.024.4.02.565l-.02-.072.737 4.543c.05.066.035 0-.02.05-.053.047 0 .073-.048.011-.015 0-.01 0-.015-.01l-3.912-2.11a1.173 1.173 0 0 0-.342-.056l-.01-11.817 1.896 3.958c.151.267.508.513.8.56l.465.071 3.839.555c.024-.01.034-.016.034-.021 0 0-.01.02 0 .051.024.067.058.026-.015.057l.01.005z"/></svg>