<svg xmlns="http://www.w3.org/2000/svg" data-name="Camada 1" viewBox="0 0 24 24"><g fill-rule="evenodd" stroke-width="0"><path d="M9.238 16c0-3.86 3.141-7 7-7a6.98 6.98 0 0 1 4.935 2.041V3.594a.5.5 0 0 0-.392-.488l-9-2.001a.497.497 0 0 0-.217 0l-9 2a.5.5 0 0 0-.392.488v10c0 .045.006.09.018.134 1.28 4.604 7.711 9.366 9.482 9.366.355 0 .991-.258 1.759-.686-2.466-1.084-4.194-3.547-4.194-6.408z"/><path d="M16.238 10a6 6 0 1 0 0 12 6 6 0 0 0 0-12zm3.262 6.678h-2.762v2.763a.5.5 0 0 1-1 0v-2.763h-2.763a.5.5 0 0 1 0-1h2.763v-2.763a.5.5 0 0 1 1 0v2.763H19.5a.5.5 0 0 1 0 1z"/></g></svg>