<svg xmlns="http://www.w3.org/2000/svg" viewBox="0 0 24 24"><defs><style>.cls-1{fill:#363636}</style></defs><g id="Camada_1"><path d="M12 17a3 3 0 0 0 3-3 .495.495 0 0 0-.045-.207c-1.194-2.628-1.204-5.645-.897-8.042.153-1.193.383-2.218.574-2.944a19.088 19.088 0 0 1 .314-1.068l.019-.055.005-.013v-.003a.499.499 0 0 0-.905-.413l-.004.006-.011.02-.042.076a82.31 82.31 0 0 0-.73 1.354c-.471.894-1.1 2.126-1.729 3.471-.629 1.345-1.261 2.811-1.738 4.174-.472 1.349-.809 2.649-.809 3.642a3 3 0 0 0 3 3z" class="cls-1"/><path d="M22.5 13h-6a.5.5 0 0 0-.5.5c0 2.758-1.824 4.5-4 4.5s-4-1.742-4-4.5a.5.5 0 0 0-.5-.5h-6a.5.5 0 0 0-.5.5V15h1.5a.5.5 0 0 1 0 1H1v2h1.5a.5.5 0 0 1 0 1H1v3.5a.5.5 0 0 0 .5.5h21a.5.5 0 0 0 .5-.5V19h-1.5a.5.5 0 0 1 0-1H23v-2h-1.5a.5.5 0 0 1 0-1H23v-1.5a.5.5 0 0 0-.5-.5zm-18 3h1a.5.5 0 0 1 0 1h-1a.5.5 0 0 1 0-1zm0 5h-1a.5.5 0 0 1 0-1h1a.5.5 0 0 1 0 1zm2-2h-1a.5.5 0 0 1 0-1h1a.5.5 0 0 1 0 1zm3 2h-1a.5.5 0 0 1 0-1h1a.5.5 0 0 1 0 1zm5 0h-1a.5.5 0 0 1 0-1h1a.5.5 0 0 1 0 1zm3-2h-1a.5.5 0 0 1 0-1h1a.5.5 0 0 1 0 1zm2 2h-1a.5.5 0 0 1 0-1h1a.5.5 0 0 1 0 1zm0-4h-1a.5.5 0 0 1 0-1h1a.5.5 0 0 1 0 1z" class="cls-1"/><circle cx="7.5" cy="11.5" r=".5" class="cls-1"/><circle cx="22.5" cy="11.5" r=".5" class="cls-1"/><circle cx="6.5" cy="9.5" r=".5" class="cls-1"/><circle cx="21.5" cy="9.5" r=".5" class="cls-1"/><circle cx="4.5" cy="11.5" r=".5" class="cls-1"/><circle cx="19.5" cy="11.5" r=".5" class="cls-1"/><circle cx="3.5" cy="9.5" r=".5" class="cls-1"/><circle cx="18.5" cy="9.5" r=".5" class="cls-1"/><circle cx="1.5" cy="11.5" r=".5" class="cls-1"/><circle cx="16.5" cy="11.5" r=".5" class="cls-1"/></g></svg>