<svg xmlns="http://www.w3.org/2000/svg" viewBox="0 0 24 24"><path d="M15.5 3.5a1 1 0 0 1 1 1 .5.5 0 0 0 1 0 1 1 0 0 1 1-1 .5.5 0 0 0 0-1 1 1 0 0 1-1-1 .5.5 0 0 0-1 0 1 1 0 0 1-1 1 .5.5 0 0 0 0 1zM10.882 7.564l-.194 1.184a.23.23 0 0 0 .013.116.204.204 0 0 0 .175.133.194.194 0 0 0 .11-.025l1.015-.557 1.014.559a.198.198 0 0 0 .181.005.2.2 0 0 0 .07-.056.226.226 0 0 0 .045-.175l-.194-1.184.82-.839a.221.221 0 0 0 .052-.221.22.22 0 0 0-.062-.098.199.199 0 0 0-.102-.049l-1.133-.172-.507-1.075a.227.227 0 0 0-.078-.082.204.204 0 0 0-.214 0 .227.227 0 0 0-.078.082l-.507 1.075-1.133.172a.204.204 0 0 0-.166.146.225.225 0 0 0 .052.221l.82.839zM3.5 5.5a1 1 0 0 1 1 1 .5.5 0 0 0 1 0 1 1 0 0 1 1-1 .5.5 0 0 0 0-1 1 1 0 0 1-1-1 .5.5 0 0 0-1 0 1 1 0 0 1-1 1 .5.5 0 0 0 0 1z" class="cls-1"/><circle cx="9" cy="2" r="1" class="cls-1"/><circle cx="20" cy="7" r="1" class="cls-1"/><path d="M21.947 12.276l-1.494-2.988a.499.499 0 0 0-.332-.273l-4.74-1.185a3.492 3.492 0 0 1-.402.93l3.174.793L12 11.476 5.847 9.553l3.174-.793a3.46 3.46 0 0 1-.402-.93l-4.74 1.185a.502.502 0 0 0-.326.262l-1.5 3a.5.5 0 0 0 .272.691l8 3a.502.502 0 0 0 .635-.271L12 13.269l1.04 2.428a.5.5 0 0 0 .635.271l8-3a.503.503 0 0 0 .29-.285c.007-.016.012-.033.017-.05a.495.495 0 0 0-.035-.356z" class="cls-1"/><path d="M12.5 16.618V21.5a.5.5 0 0 1-1 0v-4.882a1.5 1.5 0 0 1-1.527.286L4 14.664V19.5a.5.5 0 0 0 .314.464l7.5 3a.502.502 0 0 0 .377-.002l7.495-2.998A.5.5 0 0 0 20 19.5v-4.836l-5.973 2.24a1.5 1.5 0 0 1-1.527-.286z" class="cls-1"/></svg>