<svg xmlns="http://www.w3.org/2000/svg" viewBox="0 0 24 24"><path fill-rule="evenodd" d="M8 14a7.49 7.49 0 0 1 3.207-6.15 4.92 4.92 0 0 1-.212-.92c-.062-.437-.064-1.026-.047-1.525.008-.245.021-.461.031-.616l.013-.181.004-.048v-.012l.001-.003A.5.5 0 0 0 10.499 4h-.5V2h2.499a.5.5 0 0 0 0-1H3.5a.5.5 0 0 0 0 1H4v2h-.5a.5.5 0 0 0-.498.546v.003l.001.012.004.048.013.181c.01.155.023.371.031.616.017.499.015 1.087-.047 1.525-.09.628-.271 1.053-.488 1.562l-.143.34c-.297.721-.374 1.485-.374 2.204v11.465a.5.5 0 0 0 .5.5h9a.5.5 0 0 0 .5-.5v-1.865a7.5 7.5 0 0 1-4-6.635z"/><path fill-rule="evenodd" d="M15.5 7.5a6.5 6.5 0 1 0 0 13 6.5 6.5 0 0 0 0-13zm2.5 7h-2v2a.5.5 0 0 1-1 0v-2h-2a.5.5 0 0 1 0-1h2v-2a.5.5 0 0 1 1 0v2h2a.5.5 0 0 1 0 1z"/></svg>