<svg xmlns="http://www.w3.org/2000/svg" viewBox="0 0 24 24"><defs><style>.cls-1{fill:#363636}</style></defs><g id="Camada_1"><path d="M19.756 20.577a.833.833 0 0 0-.589-.244h-6.833V19.5a4.17 4.17 0 0 0-4.167-4.167c-.51.003-1.015.1-1.489.287l-.261-.403a4.163 4.163 0 0 1-.67-3.21A4.147 4.147 0 0 1 7.613 9.31l1.152-.667 1.181 2.045a.83.83 0 0 0 1.138.305l.722-.417.583 1.005a.834.834 0 1 0 1.444-.835l-.583-1.005.722-.417a.83.83 0 0 0 .305-1.138l-3.334-5.773a.836.836 0 0 0-1.138-.305L6.918 3.775a.83.83 0 0 0-.305 1.138l1.319 2.286-1.175.68a5.83 5.83 0 0 0-2.634 3.763 5.801 5.801 0 0 0-.005 2.344c.157.774.47 1.508.92 2.156l.235.368a4.154 4.154 0 0 0-1.272 2.985v1.667a.833.833 0 0 0 .833.833h14.333a.833.833 0 0 0 .589-1.422z" class="cls-1"/><path d="M13.578 17.338l5.109-2.949a.83.83 0 0 0 .094-1.386.827.827 0 0 0-.928-.057l-5.104 2.949a5.8 5.8 0 0 1 .828 1.443z" class="cls-1"/></g></svg>