<svg xmlns="http://www.w3.org/2000/svg" viewBox="0 0 24 24"><defs><style>.cls-1,.cls-2{fill:#363636}.cls-2{fill-rule:evenodd}</style></defs><g id="Camada_1"><path d="M14.146 2.146A.5.5 0 0 1 14.5 2c1.95 0 3.957.75 5.354 2.146 1.278 1.278 2.014 3.066 2.13 4.854H14V2.5c0-.133.053-.26.146-.354zM4 10h18v1.5a4.5 4.5 0 0 1-4.5 4.5h-9A4.5 4.5 0 0 1 4 11.5V10zM5 9H4V6.5A1.5 1.5 0 0 0 2.5 5a.5.5 0 0 1 0-1A2.5 2.5 0 0 1 5 6.5V9z" class="cls-1"/><path d="M11 19.5a2.5 2.5 0 1 1-5 0 2.5 2.5 0 0 1 5 0zm-2.5 1a1 1 0 1 0 0-2 1 1 0 0 0 0 2zM20 19.5a2.5 2.5 0 1 1-5 0 2.5 2.5 0 0 1 5 0zm-2.5 1a1 1 0 1 0 0-2 1 1 0 0 0 0 2z" class="cls-2"/></g></svg>