<svg xmlns="http://www.w3.org/2000/svg" viewBox="0 0 24 24"><path fill-rule="evenodd" d="M10.544 1.058a.498.498 0 0 1 .494.021c2.074 1.299 3.101 3.425 3.613 5.171.225.766.354 1.472.429 2.024l1.953-2.184a.498.498 0 0 1 .758.014c.956 1.152 1.775 2.855 2.345 4.633.571 1.782.908 3.692.865 5.277-.04 1.482-.56 2.885-1.369 4.091a7.952 7.952 0 0 1-3.286 2.796.499.499 0 0 1-.708-.455v-.008c-.061-1.156-.711-2.668-1.376-3.714-.313-.492-.84-1.089-1.437-1.642-.378-.35-.772-.67-1.141-.928-.033.175-.071.36-.113.543-.108.476-.257 1.026-.434 1.338A4.622 4.622 0 0 1 9.951 19.4a4.55 4.55 0 0 0-1.582 3.134.5.5 0 0 1-.724.41 8.46 8.46 0 0 1-4.642-7.614c.015-2.043.828-4 1.822-5.61.996-1.613 2.199-2.92 3.056-3.674a6.304 6.304 0 0 0 2.396-4.574.499.499 0 0 1 .27-.414z"/></svg>