<svg xmlns="http://www.w3.org/2000/svg" data-name="Camada 1" viewBox="0 0 24 24"><g fill-rule="evenodd" stroke-width="0"><path d="M18.005 12.751c.333 0 .659.031.974.09l-.408-5.286a.5.5 0 0 0-.5-.46h-2.527v2.76a.51.51 0 0 1-.54.5.5.5 0 0 1-.5-.5v-2.76h-5.04v2.76a.5.5 0 0 1-.5.5.51.51 0 0 1-.5-.5v-2.76H5.931a.5.5 0 0 0-.5.46l-.93 12.07v.11a1.5 1.5 0 0 0 1.5 1.54h7.897a5.251 5.251 0 0 1 4.107-8.524z"/><path d="M9.464 6.275c0-1.14.382-1.93 1.433-2.372 1.752-.737 3.852.432 3.607 2.372v.82h1.04v-.82a3.541 3.541 0 0 0-1.77-3.066c-2.36-1.362-5.31.341-5.31 3.066v.82h1v-.82zM21.187 14.82a4.5 4.5 0 1 0-6.362 6.365 4.5 4.5 0 0 0 6.361-6.365zm-.436 2.114l-3.084 3.289a.5.5 0 0 1-.723.006l-1.678-1.73a.5.5 0 1 1 .718-.696l1.313 1.354 2.726-2.907a.5.5 0 1 1 .73.684z"/></g></svg>