<svg xmlns="http://www.w3.org/2000/svg" viewBox="0 0 24 24"><path d="M5.496 18.447a1 1 0 0 1-.67-.27.998.998 0 0 1-.28-.67v-6.81a1 1 0 0 1 .94-.95h1.86a.94.94 0 0 1 1 .94l.05 6.76a.998.998 0 0 1-.28.67.91.91 0 0 1-.67.28l-1.95.05zm9.76 1.5h-3.16a1.838 1.838 0 0 1-.88-.28l-1.91-1.36a.52.52 0 0 1-.21-.41v-7.7a.5.5 0 0 1 .5-.5 1 1 0 0 0 1.05-1v-3.5c.004-.254.104-.497.28-.68a1 1 0 0 1 .67-.27 3.3 3.3 0 0 1 3.3 3.25v2.2h1.45a3.208 3.208 0 0 1 2.13.83 3.17 3.17 0 0 1 .84 3.33l-1.86 4.53a2.31 2.31 0 0 1-2.2 1.56z" class="cls-1"/></svg>