<svg xmlns="http://www.w3.org/2000/svg" viewBox="0 0 24 24"><path d="M20 6.542c0-.542-.218-1.179-.553-1.834-.334-.654-.781-1.319-1.229-1.915a23.717 23.717 0 0 0-1.233-1.501l-.114-.127a.5.5 0 0 0-.742 0l-.114.127c-.336.378-.785.904-1.233 1.501-.448.597-.895 1.261-1.229 1.915C13.218 5.363 13 6 13 6.542 13 8.735 14.75 10 16.5 10S20 8.735 20 6.542zM16 8a1 1 0 1 1 0-2 1 1 0 0 1 0 2zm.5-3a.5.5 0 1 1 0-1 .5.5 0 0 1 0 1zM11.916 11.788a38.298 38.298 0 0 0-2.171-2.624.5.5 0 0 0-.742 0l-.184.205a37.756 37.756 0 0 0-1.986 2.419c-.723.962-1.437 2.026-1.969 3.067-.537 1.049-.865 2.031-.865 2.838C3.999 21.056 6.673 23 9.374 23s5.375-1.944 5.375-5.307c0-.807-.328-1.789-.865-2.838-.532-1.041-1.247-2.105-1.969-3.067zM8 20a1 1 0 1 1 0-2 1 1 0 0 1 0 2zm1.5-5a.5.5 0 1 1 0-1 .5.5 0 0 1 0 1zm1.5 3a1 1 0 1 1 0-2 1 1 0 0 1 0 2zM4.5 10.5a1 1 0 0 1 1-1 .5.5 0 0 0 0-1 1 1 0 0 1-1-1 .5.5 0 0 0-1 0 1 1 0 0 1-1 1 .5.5 0 0 0 0 1 1 1 0 0 1 1 1 .5.5 0 0 0 1 0zM8.5 4.5a1 1 0 0 1 1 1 .5.5 0 0 0 1 0 1 1 0 0 1 1-1 .5.5 0 0 0 0-1 1 1 0 0 1-1-1 .5.5 0 0 0-1 0 1 1 0 0 1-1 1 .5.5 0 0 0 0 1zM21.5 15.5a1 1 0 0 1-1-1 .5.5 0 0 0-1 0 1 1 0 0 1-1 1 .5.5 0 0 0 0 1 1 1 0 0 1 1 1 .5.5 0 0 0 1 0 1 1 0 0 1 1-1 .5.5 0 0 0 0-1z" class="cls-1"/></svg>