<svg xmlns="http://www.w3.org/2000/svg" viewBox="0 0 24 24"><defs><style>.cls-1{fill:#363636}</style></defs><g id="Camada_1"><path d="M21.5 15H21v-.5a8.5 8.5 0 0 0-8-8.485V4.5A3.5 3.5 0 0 0 9.5 1h-5a.5.5 0 0 0 0 1h5A2.5 2.5 0 0 1 12 4.5v1.515A8.5 8.5 0 0 0 4 14.5v.5h-.5a.5.5 0 0 0 0 1h18a.5.5 0 0 0 0-1zM20 15H5v-.5c0-.167.006-.334.017-.5h14.967c.011.166.017.333.017.5v.5zM4.5 18a.5.5 0 0 0-.5.5v1a.5.5 0 0 0 1 0v-1a.5.5 0 0 0-.5-.5zM9.5 18a.5.5 0 0 0-.5.5v1a.5.5 0 0 0 1 0v-1a.5.5 0 0 0-.5-.5zM6.5 21a.5.5 0 0 0-.5.5v1a.5.5 0 0 0 1 0v-1a.5.5 0 0 0-.5-.5zM12.5 21a.5.5 0 0 0-.5.5v1a.5.5 0 0 0 1 0v-1a.5.5 0 0 0-.5-.5zM18.5 21a.5.5 0 0 0-.5.5v1a.5.5 0 0 0 1 0v-1a.5.5 0 0 0-.5-.5zM15.5 18a.5.5 0 0 0-.5.5v1a.5.5 0 0 0 1 0v-1a.5.5 0 0 0-.5-.5zM20.5 18a.5.5 0 0 0-.5.5v1a.5.5 0 0 0 1 0v-1a.5.5 0 0 0-.5-.5z" class="cls-1"/></g></svg>