<svg xmlns="http://www.w3.org/2000/svg" data-name="Camada 1" viewBox="0 0 24 24"><path stroke-width="0" d="M19.803 16.903l-.02.01a3.25 3.25 0 0 1-.06-.17v-.02l-1.02-2.49-.037-.09c-.398-.972-.807-1.969-1.263-2.91-.1-.22-.23-.43-.4-.64-.2-.21-.45-.37-.73-.49a6.55 6.55 0 0 0-1.49-.354V4.498c0-.65-.53-1.19-1.19-1.19h-6.71c-.66 0-1.19.53-1.19 1.19v5.025h-.53l-.13.02c-.59.16-1.01.7-1.02 1.32 0 .539.184.953.442 1.209-.174.22-.277.497-.282.791 0 .504.174.89.418 1.128a1.21 1.21 0 0 0-.278.772c0 .587.25 1.004.57 1.198a1.18 1.18 0 0 0-.44.892c0 .45.17.78.39.99h.02c.16.15.35.24.53.24h.31v.625c0 .65.53 1.19 1.19 1.19h6.72c.288 0 .545-.116.752-.289.759.56 1.635.94 2.568 1.084h.08v-.01a.532.532 0 0 0 .12-.014c2.041.1 3.369-1.854 2.68-3.766zm-9.037 1.48h-1.4c-.3 0-.5-.2-.5-.5s.2-.5.5-.5h1.4c.2 0 .5.2.5.5s-.2.5-.5.5zm-4.073-2.555v-.187c.002-.02.01-.037.01-.058 0-.021-.008-.039-.01-.06v-1.448-.002-.308-1.66-.237-.003-1.839-.002-3.505h7.09v3.067a25.4 25.4 0 0 1-1.81-.362c-.37-.13-.75-.14-1.21 0-.51.26-.79.83-.67 1.41.11.46.4.87.81 1.12.33.2.68.35 1.03.45l1.86.617v3.008h-7.1z"/></svg>