<svg xmlns="http://www.w3.org/2000/svg" viewBox="0 0 40 40"><path fill-rule="evenodd" d="M12.166 1.911a.833.833 0 0 1 .589-.244h14.49c.221 0 .433.088.589.244l10.255 10.255a.833.833 0 0 1 .244.589v14.49a.833.833 0 0 1-.244.589L27.834 38.089a.833.833 0 0 1-.589.244h-14.49a.833.833 0 0 1-.589-.244L1.911 27.834a.833.833 0 0 1-.244-.589v-14.49c0-.221.088-.433.244-.589L12.166 1.911zM20 30a2.5 2.5 0 1 0 0-5 2.5 2.5 0 0 0 0 5zm-1.666-20a.835.835 0 0 0-.83.902l.833 10a.833.833 0 0 0 .83.764h1.667a.833.833 0 0 0 .83-.764l.833-10a.832.832 0 0 0-.83-.902h-3.333z"/></svg>