<svg xmlns="http://www.w3.org/2000/svg" viewBox="0 0 24 24"><path d="M8 5a3 3 0 1 1 6 0v1h1V5a4 4 0 0 0-8 0v1h1V5zM13 18.398V14.48a1.5 1.5 0 0 1 1.143-1.457l4-.979c.234-.057.479-.057.714 0l.2.049-1.066-5.684a.5.5 0 0 0-.491-.408H15v3.5a.5.5 0 0 1-1 0v-3.5H8v3.5a.5.5 0 0 1-1 0v-3.5H4.5a.499.499 0 0 0-.491.408L1.231 21.225a1.5 1.5 0 0 0 1.474 1.776h13.283a8.388 8.388 0 0 1-.312-.196c-1.148-.756-2.675-2.175-2.675-4.406z"/><path d="M22.619 13.994l-4-.979a.504.504 0 0 0-.238 0l-4 .979a.5.5 0 0 0-.381.486v3.918c0 1.723 1.175 2.88 2.225 3.571a8.826 8.826 0 0 0 1.941.949l.139.046.039.012.011.003h.003l.002.001c.045.013.092.02.139.02h.002a.502.502 0 0 0 .139-.02h.001l.003-.001.011-.003.039-.012.139-.046a8.75 8.75 0 0 0 1.941-.949c1.05-.691 2.225-1.848 2.225-3.571V14.48a.5.5 0 0 0-.381-.486z"/></svg>