<svg xmlns="http://www.w3.org/2000/svg" viewBox="0 0 24 24"><defs><style>.cls-1{fill:#363636}</style></defs><g id="Camada_1"><path d="M22.974 11.244c-.744.192-1.564.031-2.166-.569l-.059-.059c-.064.065-.13.13-.198.195a2.24 2.24 0 0 1-3.105 0 18.628 18.628 0 0 1-.198-.195c-.064.065-.13.13-.198.195a2.24 2.24 0 0 1-3.105 0 18.628 18.628 0 0 1-.198-.195c-.064.065-.13.13-.198.195a2.24 2.24 0 0 1-3.105 0 18.628 18.628 0 0 1-.198-.195c-.064.065-.13.13-.198.195a2.24 2.24 0 0 1-3.105 0 18.628 18.628 0 0 1-.198-.195c-.064.065-.13.13-.198.195a2.24 2.24 0 0 1-3.105 0 18.628 18.628 0 0 1-.198-.195l-.059.059c-.602.6-1.421.761-2.166.569a10.962 10.962 0 0 0 .921 5.229c.237-.211.447-.411.633-.602-.813-1.013-1.105-1.888-.96-2.601.202-.993 1.156-1.363 1.907-1.248.389.06.78.25 1.052.595.278.354.392.822.305 1.357-.09.552-.393 1.184-.966 1.898.071.073.145.147.224.222.474.459 1.24.459 1.714 0 .078-.076.153-.15.224-.222a5.908 5.908 0 0 1-.614-.912c-.295-.553-.419-1.065-.371-1.522.048-.467.272-.838.591-1.085.311-.241.695-.352 1.063-.352s.752.111 1.063.352c.319.247.543.618.591 1.085.047.457-.076.969-.371 1.522a5.908 5.908 0 0 1-.614.912c.071.073.145.147.224.222.474.459 1.24.459 1.714 0 .078-.076.153-.15.224-.222a5.908 5.908 0 0 1-.614-.912c-.295-.553-.419-1.065-.371-1.522.048-.467.272-.838.591-1.085.311-.241.695-.352 1.063-.352s.752.111 1.063.352c.319.247.543.618.591 1.085.047.457-.076.969-.371 1.522a5.908 5.908 0 0 1-.614.912c.071.073.145.147.224.222.474.459 1.24.459 1.714 0 .078-.076.153-.15.224-.222a5.908 5.908 0 0 1-.614-.912c-.295-.553-.419-1.065-.371-1.522.048-.467.272-.838.591-1.085.311-.241.695-.352 1.063-.352s.752.111 1.063.352c.319.247.543.618.591 1.085.047.457-.076.969-.371 1.522a5.908 5.908 0 0 1-.614.912c.071.073.145.147.224.222.474.459 1.24.459 1.714 0 .078-.076.153-.15.224-.222a5.908 5.908 0 0 1-.614-.912c-.295-.553-.419-1.065-.371-1.522.048-.467.272-.838.591-1.085.311-.241.695-.352 1.063-.352s.752.111 1.063.352c.319.247.543.618.591 1.085.047.457-.076.969-.371 1.522a5.908 5.908 0 0 1-.614.912c.071.073.145.147.224.222.474.459 1.24.459 1.714 0 .078-.076.153-.15.224-.222-.573-.714-.877-1.346-.966-1.898-.087-.534.027-1.003.305-1.357a1.64 1.64 0 0 1 1.052-.595c.751-.115 1.706.255 1.907 1.248.145.714-.147 1.588-.96 2.601.187.191.397.392.633.602a10.962 10.962 0 0 0 .921-5.229zM20.552 16.812a2.24 2.24 0 0 1-3.105 0 18.628 18.628 0 0 1-.198-.195c-.064.065-.13.13-.198.195a2.24 2.24 0 0 1-3.105 0 18.628 18.628 0 0 1-.198-.195c-.064.065-.13.13-.198.195a2.24 2.24 0 0 1-3.105 0 18.628 18.628 0 0 1-.198-.195c-.064.065-.13.13-.198.195a2.24 2.24 0 0 1-3.105 0 18.628 18.628 0 0 1-.198-.195c-.064.065-.13.13-.198.195a2.24 2.24 0 0 1-3.105 0 18.628 18.628 0 0 1-.198-.195c-.248.251-.527.51-.838.779 1.887 3.345 5.474 5.605 9.588 5.605s7.702-2.259 9.588-5.605a14.32 14.32 0 0 1-.838-.779c-.064.065-.13.13-.198.195zM22.859 10.237a10.86 10.86 0 0 0-.527-2.018 3.52 3.52 0 0 1-.307.754 5.912 5.912 0 0 1-.606.898l.096.097c.35.349.873.44 1.344.269zM4.274 6.322c.322.233.557.59.622 1.047.064.448-.041.951-.313 1.493a5.735 5.735 0 0 1-.664 1.009c.071.073.145.147.224.222.474.459 1.24.459 1.714 0 .078-.076.153-.15.224-.222a5.908 5.908 0 0 1-.614-.912c-.295-.553-.419-1.065-.371-1.522.048-.467.272-.838.591-1.085C5.998 6.111 6.382 6 6.75 6s.752.111 1.063.352c.319.247.543.618.591 1.085.047.457-.076.969-.371 1.522a5.908 5.908 0 0 1-.614.912c.071.073.145.147.224.222.474.459 1.24.459 1.714 0 .078-.076.153-.15.224-.222a5.908 5.908 0 0 1-.614-.912c-.295-.553-.419-1.065-.371-1.522.048-.467.272-.838.591-1.085C9.498 6.111 9.882 6 10.25 6s.752.111 1.063.352c.319.247.543.618.591 1.085.047.457-.076.969-.371 1.522a5.908 5.908 0 0 1-.614.912c.071.073.145.147.224.222.474.459 1.24.459 1.714 0 .078-.076.153-.15.224-.222a5.908 5.908 0 0 1-.614-.912c-.295-.553-.419-1.065-.371-1.522.048-.467.272-.838.591-1.085.311-.241.695-.352 1.063-.352s.752.111 1.063.352c.319.247.543.618.591 1.085.047.457-.076.969-.371 1.522a5.908 5.908 0 0 1-.614.912c.071.073.145.147.224.222.474.459 1.24.459 1.714 0 .078-.076.153-.15.224-.222a5.908 5.908 0 0 1-.614-.912c-.295-.553-.419-1.065-.371-1.522.048-.467.272-.838.591-1.085.311-.241.695-.352 1.063-.352s.752.111 1.063.352c.319.247.543.618.591 1.085.047.457-.076.969-.371 1.522a5.908 5.908 0 0 1-.614.912c.071.073.145.147.224.222.474.459 1.24.459 1.714 0 .078-.076.153-.15.224-.222a5.735 5.735 0 0 1-.664-1.009c-.272-.542-.377-1.046-.313-1.493.065-.457.3-.813.622-1.047A1.754 1.754 0 0 1 20.787 6c.161.003.324.028.482.075C19.314 3.023 15.893 1 11.999 1S4.685 3.023 2.73 6.075A1.82 1.82 0 0 1 3.212 6c.366-.007.747.094 1.061.322zM2.485 9.967l.096-.097a5.912 5.912 0 0 1-.606-.898 3.47 3.47 0 0 1-.307-.754 10.938 10.938 0 0 0-.527 2.018c.472.171.994.08 1.344-.269z" class="cls-1"/><path d="M20.767 7c-.359-.007-.627.188-.673.51-.042.293.068.819.656 1.594.56-.738.688-1.253.661-1.554-.031-.343-.291-.542-.643-.549zM16.59 7.539c-.031.299.093.818.66 1.564.566-.747.691-1.265.66-1.564-.035-.34-.301-.539-.66-.539s-.625.2-.66.539zM13.09 7.539c-.031.299.093.818.66 1.564.566-.747.691-1.265.66-1.564-.035-.34-.301-.539-.66-.539s-.625.2-.66.539zM9.59 7.539c-.031.299.093.818.66 1.564.566-.747.691-1.265.66-1.564-.035-.34-.301-.539-.66-.539s-.625.2-.66.539zM6.09 7.539c-.031.299.093.818.66 1.564.566-.747.691-1.265.66-1.564C7.375 7.199 7.109 7 6.75 7s-.625.2-.66.539zM3.906 7.51c-.046-.322-.315-.517-.673-.51-.353.007-.613.207-.644.549-.027.301.101.816.661 1.554.588-.775.698-1.301.656-1.594zM21.399 13.468c-.065-.32-.386-.518-.776-.459a.65.65 0 0 0-.417.224c-.083.105-.153.282-.105.578.051.316.236.747.649 1.291.617-.813.706-1.352.649-1.635zM17.91 13.539c-.035-.34-.301-.539-.66-.539s-.625.2-.66.539c-.031.3.093.818.66 1.564.566-.747.691-1.265.66-1.564zM14.41 13.539c-.035-.34-.301-.539-.66-.539s-.625.2-.66.539c-.031.3.093.818.66 1.564.566-.747.691-1.265.66-1.564zM10.91 13.539c-.035-.34-.301-.539-.66-.539s-.625.2-.66.539c-.031.3.093.818.66 1.564.566-.747.691-1.265.66-1.564zM7.41 13.539c-.035-.34-.301-.539-.66-.539s-.625.2-.66.539c-.031.3.093.818.66 1.564.566-.747.691-1.265.66-1.564zM3.794 13.234a.64.64 0 0 0-.417-.224c-.39-.06-.711.139-.776.459-.058.284.032.822.649 1.635.413-.544.597-.975.649-1.291.048-.297-.022-.473-.105-.578z" class="cls-1"/></g></svg>