<svg xmlns="http://www.w3.org/2000/svg" viewBox="0 0 24 24"><path d="M9.625 20.125a.75.75 0 0 1-.75-.75.375.375 0 0 0-.75 0 .75.75 0 0 1-.75.75.375.375 0 0 0 0 .75.75.75 0 0 1 .75.75.375.375 0 0 0 .75 0 .75.75 0 0 1 .75-.75.375.375 0 0 0 0-.75zM8.284 4.903l-.317.04c-1.562.261-2.76 1.454-3.035 3.033l-.049.368c-.347 3.691 3.615 7.552 7.312 6.986l.368-.071c1.515-.357 2.586-1.604 2.791-3.116l.03-.306c.209-3.669-3.417-7.242-7.101-6.935zm1.214 7.149a.5.5 0 0 1-.974.097l-.02-.1-.5-5v-.102a.5.5 0 0 1 .974-.097l.02.1.5 5v.102zm2 1a.5.5 0 0 1-.974.097l-.019-.1-.5-5v-.102a.5.5 0 0 1 .974-.097l.019.1.5 5v.102z"/><path d="M21.287 17.62l-3.667-2.968.039-.075.042-.079c.011-.021.027-.053.039-.082l.09-.222c.89-2.294.499-4.732-.611-6.792-1.073-1.989-2.836-3.667-4.852-4.58l-.407-.173c-3.004-1.187-5.89-.68-7.788.986-1.904 1.672-2.732 4.438-1.764 7.586l.156.463c.847 2.297 2.647 4.301 4.818 5.476 2.213 1.197 4.859 1.552 7.307.421l3.144 3.7a2.546 2.546 0 0 0 2.039.707l.183-.033a5.717 5.717 0 0 0 .498-.149l.191-.079c.424-.2.697-.506.862-.769a2.195 2.195 0 0 0 .253-.574l.002-.006v-.002c.271-.916.167-2.02-.536-2.723l-.039-.035zm-4.904-5.726c-.114 2.003-1.435 3.739-3.397 4.289l-.192.05c-2.386.562-4.797-.474-6.464-2.078-1.667-1.603-2.796-3.972-2.382-6.351l.038-.197a4.675 4.675 0 0 1 4.215-3.7l.41-.021c2.04-.039 3.974.899 5.383 2.278 1.408 1.379 2.385 3.292 2.399 5.322l-.01.408zM5.501 17.5a1 1 0 0 1-1-1 .5.5 0 0 0-1 0 1 1 0 0 1-1 1 .5.5 0 0 0 0 1 1 1 0 0 1 1 1 .5.5 0 0 0 1 0 1 1 0 0 1 1-1 .5.5 0 0 0 0-1zM19.375 6.875a.75.75 0 0 1 .75.75.375.375 0 0 0 .75 0 .75.75 0 0 1 .75-.75.375.375 0 0 0 0-.75.75.75 0 0 1-.75-.75.375.375 0 0 0-.75 0 .75.75 0 0 1-.75.75.375.375 0 0 0 0 .75z"/></svg>