<svg xmlns="http://www.w3.org/2000/svg" viewBox="0 0 24 24"><defs><style>.cls-1{fill:#363636;fill-rule:evenodd}</style></defs><g id="Camada_1"><path d="M5.5 9a.5.5 0 0 0 0 1H7v4h1v-4h1.5a.5.5 0 0 0 0-1H8V7h1.5a.5.5 0 0 0 0-1H8V4h1.5a.5.5 0 0 0 0-1H8V1.5a.5.5 0 0 0-1 0V3H5.5a.5.5 0 0 0 0 1H7v2H5.5a.5.5 0 0 0 0 1H7v2H5.5zM10.5 15h-6a.5.5 0 0 0-.5.5v7a.5.5 0 0 0 .5.5h6a.5.5 0 0 0 .5-.5v-7a.5.5 0 0 0-.5-.5zm-.5 7H5v-5h5v5zM19.5 7h-6a.5.5 0 0 0-.5.5v15a.5.5 0 0 0 .5.5h6a.5.5 0 0 0 .5-.5v-15a.5.5 0 0 0-.5-.5zM19 18h-5V8h5v10z" class="cls-1"/></g></svg>