<svg xmlns="http://www.w3.org/2000/svg" viewBox="0 0 24 24"><path d="M22.854 1.146A.5.5 0 0 0 22.5 1h-1a.5.5 0 0 0-.5.5v16a3.49 3.49 0 0 1-6.949.5H15a.997.997 0 0 0 1-1 .997.997 0 0 0-1-1h-4a.997.997 0 0 0-1 1 .997.997 0 0 0 1 1h1.025a5.497 5.497 0 0 0 5.725 4.971 5.5 5.5 0 0 0 5.249-5.471v-16a.504.504 0 0 0-.146-.354z" class="cls-1"/><path d="M10.733 9.671l.567 2.663a.83.83 0 0 0 .818.667h3.375a2.5 2.5 0 0 0 2.5-2.5v-5a2.5 2.5 0 0 0-2.5-2.5H3.5a2.5 2.5 0 0 0-2.5 2.5v5a2.5 2.5 0 0 0 2.5 2.5h3.382a.834.834 0 0 0 .818-.667l.567-2.663a.837.837 0 0 1 .816-.667h.833a.831.831 0 0 1 .816.667z" class="cls-1"/></svg>