<svg xmlns="http://www.w3.org/2000/svg" viewBox="0 0 24 24"><path d="M12 2.2c-5.2 0-9.5 4.3-9.5 9.5 0 2.8 1.2 5.4 3.2 7.1L5.3 21c-.1.5.4 1 .9.8l2.8-1c1 .2 2 .4 3 .4 5.2 0 9.5-4.3 9.5-9.5S17.2 2.2 12 2.2zm5.9 7.3c-.7 1.1-2.1 3.3-2.7 4.3-.1.2-.3.4-.5.5-.3.2-.6.3-.9.3-.4 0-.7-.1-1-.3l-2.4-1.6c-.1-.1-.3-.1-.5 0-.8.6-2.4 1.8-3.3 2.4-.1.1-.2.1-.3.1-.1 0-.3-.2-.3-.5 0-.1 0-.2.1-.3.7-1.1 2.1-3.3 2.7-4.3.1-.2.3-.4.5-.5.3-.2.6-.3.9-.3.4 0 .7.1 1 .3l2.4 1.6c.1.1.3.1.5 0 .8-.6 2.4-1.8 3.3-2.4.1-.1.2-.1.3-.1.1.1.3.3.3.6 0 .1 0 .2-.1.2z"/></svg>