<svg xmlns="http://www.w3.org/2000/svg" viewBox="0 0 24 24"><defs><style>.cls-1,.cls-2{fill:#363636}.cls-2{fill-rule:evenodd}</style></defs><g id="Camada_1"><circle cx="14.396" cy="7.521" r=".5" class="cls-1"/><circle cx="12.396" cy="9.521" r=".5" class="cls-1"/><circle cx="11.396" cy="14.521" r=".5" class="cls-1"/><circle cx="8.396" cy="15.521" r=".5" class="cls-1"/><circle cx="12.396" cy="17.521" r=".5" class="cls-1"/><circle cx="15.396" cy="15.521" r=".5" class="cls-1"/><path d="M16.5 12h-2a.5.5 0 0 0 0 1h2a.5.5 0 0 0 0-1zM9.5 12h-2a.5.5 0 0 0 0 1h2a.5.5 0 0 0 0-1z" class="cls-2"/><path d="M12 1C5.925 1 1 5.925 1 12v8.5c0 .163.08.316.214.41l.006.004-.004-.003h-.001l.005.003.01.007.034.022a6.614 6.614 0 0 0 .585.319c.412.199 1.033.459 1.894.716 1.721.515 4.395 1.021 8.257 1.021s6.536-.506 8.257-1.021c.86-.258 1.482-.517 1.894-.716a6.614 6.614 0 0 0 .585-.319l.034-.022.01-.007.004-.003h.001l.001-.002a.501.501 0 0 0 .214-.41v-8.5c0-6.075-4.925-11-11-11zm0 18.999a8 8 0 0 1-8-8c0-1.055.13-2.216.539-3.192a.503.503 0 0 1 .411-.305c3.434-.345 6.421-1.586 8.701-3.857a.502.502 0 0 1 .496-.125C17.419 5.496 20 8.346 20 11.998a8 8 0 0 1-8 8z" class="cls-2"/></g></svg>