<svg xmlns="http://www.w3.org/2000/svg" viewBox="0 0 24 24"><defs><style>.cls-1{fill:#363636;fill-rule:evenodd}</style></defs><g id="Camada_1"><path d="M14 15.05v-.55c0-1.05.466-1.994 1.202-2.636a4.778 4.778 0 0 0-1.212-.526 5 5 0 1 0-4.988-.005 9.503 9.503 0 0 0-7.001 9.168.5.5 0 0 0 .5.5h9.55a2.501 2.501 0 0 1-.05-.5v-3c0-1.209.859-2.218 2-2.45z" class="cls-1"/><path d="M20.5 16H20v-1.5c0-1.376-1.124-2.5-2.5-2.5S15 13.124 15 14.5V16h-.5a1.5 1.5 0 0 0-1.5 1.5v3a1.5 1.5 0 0 0 1.5 1.5h6a1.5 1.5 0 0 0 1.5-1.5v-3a1.5 1.5 0 0 0-1.5-1.5zM18 19.5a.5.5 0 0 1-1 0v-1a.5.5 0 0 1 1 0v1zm1-3.5h-3v-1.5c0-.824.676-1.5 1.5-1.5s1.5.676 1.5 1.5V16z" class="cls-1"/></g></svg>