<svg xmlns="http://www.w3.org/2000/svg" viewBox="0 0 24 24"><path d="M14.1 6.4h4.3l-4.8-4.8v4.3c0 .3.2.5.5.5z"/><path d="M13.2 16.1c.1-2.1 1.9-3.8 4-3.7.5 0 1 .1 1.5.4V7.4h-4.6c-.8 0-1.5-.7-1.5-1.5V1.4H4.3c-.9 0-1.5.6-1.5 1.4v17c0 .8.7 1.5 1.5 1.5h7.9V18c-.1-.8.3-1.5 1-1.9zM5.9 9.6h7.6c.3 0 .5.2.5.5s-.2.5-.5.5H5.9c-.3 0-.5-.2-.5-.5s.2-.5.5-.5zm5.6 7.1H5.9c-.3 0-.5-.2-.5-.5s.2-.5.5-.5h5.6c.3 0 .5.2.5.5s-.2.5-.5.5zm-5.6-3c-.3 0-.5-.2-.5-.5s.2-.5.5-.5h7.6c.3 0 .5.2.5.5s-.2.5-.5.5H5.9z"/><path d="M14.3 16.1h1c.2-.9 1-1.5 1.9-1.5.9 0 1.7.6 1.9 1.5h1c-.2-1.6-1.7-2.7-3.3-2.5-1.3.2-2.3 1.2-2.5 2.5zM20.1 17.1h-5.8c-.6 0-1.1.5-1.1 1.1v3.3c0 .6.5 1.1 1.1 1.1h5.8c.6 0 1.1-.5 1.1-1.1v-3.3c0-.6-.5-1.1-1.1-1.1zm-2.3 3v.5c0 .3-.2.6-.6.6-.3 0-.6-.2-.6-.6v-.5c-.2-.2-.3-.4-.3-.7 0-.5.4-.9.9-.9.3 0 .5.1.7.3.3.4.3 1-.1 1.3z"/></svg>