<svg xmlns="http://www.w3.org/2000/svg" viewBox="0 0 24 24"><path d="M17.5 3.5a1 1 0 0 1 1 1 .5.5 0 0 0 1 0 1 1 0 0 1 1-1 .5.5 0 0 0 0-1 1 1 0 0 1-1-1 .5.5 0 0 0-1 0 1 1 0 0 1-1 1 .5.5 0 0 0 0 1zM21.947 12.276l-1.494-2.988a.499.499 0 0 0-.332-.273l-3.135-.784c-.04.348-.17.669-.365.94l1.531.383-6.153 1.923-6.153-1.923 4.571-1.143a3.875 3.875 0 0 0-.276-.962L3.877 9.015a.505.505 0 0 0-.326.262l-1.5 3a.5.5 0 0 0 .272.691l8 3a.502.502 0 0 0 .635-.271l1.04-2.428 1.04 2.428a.5.5 0 0 0 .635.271l8-3a.503.503 0 0 0 .29-.285c.007-.016.012-.033.017-.05a.495.495 0 0 0-.035-.356zM3.5 4.5a1 1 0 0 1 1 1 .5.5 0 0 0 1 0 1 1 0 0 1 1-1 .5.5 0 0 0 0-1 1 1 0 0 1-1-1 .5.5 0 0 0-1 0 1 1 0 0 1-1 1 .5.5 0 0 0 0 1z" class="cls-1"/><circle cx="10" cy="2" r="1" class="cls-1"/><circle cx="15" cy="8" r="1" class="cls-1"/><path d="M12.5 16.618V21.5a.5.5 0 0 1-1 0v-4.882a1.5 1.5 0 0 1-1.527.286L4 14.664V19.5a.5.5 0 0 0 .314.464l7.5 3a.502.502 0 0 0 .377-.002l7.495-2.998A.5.5 0 0 0 20 19.5v-4.836l-5.973 2.24a1.5 1.5 0 0 1-1.527-.286zM9.743 4.544a2.398 2.398 0 0 0-.108-.027l-.034-.007-.012-.002h-.005l-.004-.001a.499.499 0 0 0-.166.986l.007.002a1.735 1.735 0 0 1 .269.092c.188.082.447.229.709.487.513.504 1.1 1.492 1.1 3.427a.5.5 0 0 0 1 0c0-1.911.696-3.172 1.378-3.956.343-.395.686-.672.94-.849a4.14 4.14 0 0 1 .379-.233l.017-.008h.002a.5.5 0 0 0-.428-.905h-.002l-.004.003-.01.005-.033.017a4.876 4.876 0 0 0-.492.301 6.183 6.183 0 0 0-1.123 1.014 6.426 6.426 0 0 0-1.115 1.833 4.165 4.165 0 0 0-.907-1.362 3.39 3.39 0 0 0-1.01-.69 2.605 2.605 0 0 0-.348-.125z" class="cls-1"/></svg>