<svg xmlns="http://www.w3.org/2000/svg" viewBox="0 0 24 24"><path d="M15 1.5a.5.5 0 0 0-.5-.5h-4a.5.5 0 0 0-.5.5V3h5V1.5z" class="cls-1"/><path d="M22.854 1.146a.5.5 0 0 0-.707 0L16.71 6.583A4.45 4.45 0 0 0 15 6.028V4h-5v2.028c-2.243.25-4 2.165-4 4.472V13h4.293l-1 1H6v3.293l-4.854 4.854a.5.5 0 0 0 .707.707l21.001-21a.5.5 0 0 0 0-.707zM8.121 18H19v-4h-6.879l-4 4zM6 20.121v.018a2.5 2.5 0 0 0 2.911 2.466l3.589-.598 3.589.598A2.5 2.5 0 0 0 19 20.139V19H7.121L6 20.121zM13.121 13H19v-2.5c0-.953-.3-1.839-.81-2.569L13.121 13z" class="cls-1"/></svg>