<svg xmlns="http://www.w3.org/2000/svg" viewBox="0 0 24 24"><defs><style>.cls-1{fill:#363636}</style></defs><g id="Camada_1"><path d="M13.475 6.5a5 5 0 1 0-9.95 0h9.951zM12.5 13h2.352l.145-1.45a.498.498 0 0 0-.127-.385l-.017-.018a1.49 1.49 0 0 0 .146-.647c0-.384-.144-.735-.382-1A1.5 1.5 0 0 0 13.499 7H3.5a1.5 1.5 0 0 0-1.118 2.5 1.492 1.492 0 0 0-.382 1c0 .232.052.451.146.647l-.017.018a.5.5 0 0 0-.127.385l.82 8.199A2.5 2.5 0 0 0 5.31 22H8v-4.5a4.5 4.5 0 0 1 4.5-4.5z" class="cls-1"/><path d="M18.5 14h-6A3.5 3.5 0 0 0 9 17.5v5a.5.5 0 0 0 .5.5h12a.5.5 0 0 0 .5-.5v-5a3.5 3.5 0 0 0-3.5-3.5z" class="cls-1"/></g></svg>