<svg xmlns="http://www.w3.org/2000/svg" version="1.0" viewBox="0 0 24 24"><path d="M16.9 3.4c-.1-.1-.2-.2-.4-.2s-.3.1-.4.2c-.1.1-.6.6-1.1 1.4-.5.8-1 1.8-1 2.9 0 1.4 1.1 2.5 2.5 2.5S19 9.1 19 7.7c0-1.1-.5-2.2-1-2.9-.5-.7-1.1-1.3-1.1-1.4zM21.1 16.5c.2.2.3.4.3.7v.3c-.1.1-.1.2-.2.2l-6.3 2.6c-.6.2-1.2.4-1.9.4-.6 0-1.2-.1-1.7-.3l-4.8-1.8 1-5.1c1.2-.3 2.5-.2 3.7.3.7.3 1.5.6 2.2.9h.1l1.4.4c.7.2.9 1 .4 1.5-.3.3-.7.4-1.1.4-.4-.1-1-.1-1.5-.2s-1.1-.2-1.6-.4c-.2-.1-.5-.1-.6-.2h-.2c-.3-.2-.6 0-.6.3-.1.2 0 .5.3.6 0 0 .1 0 .2.1.2 0 .4.1.6.2.5.1 1.1.3 1.6.4.5.1 1.1.2 1.6.2.7.1 1.4-.2 1.9-.7.3-.3.5-.7.6-1.2 1.2-.3 2.9-.6 4 0 .3.1.5.2.6.4zM6.6 13.2l-1.3 6.2H3c-.1 0-.3-.1-.4-.1s-.1-.3-.1-.5v-6.2c0-.1 0-.2.1-.2 0-.1.1-.1.1-.2.1 0 .1-.1.2-.1h.2l3.5 1.1zM11.4 5.9c-.1-.1-.2-.2-.4-.2s-.3.1-.4.2c0 .1-.4.5-.8 1.1-.4.5-.8 1.4-.8 2.2 0 1.1.9 2 2 2s2-.9 2-2c0-.9-.4-1.7-.8-2.3-.4-.5-.8-.9-.8-1z"/></svg>