<svg xmlns="http://www.w3.org/2000/svg" viewBox="0 0 24 24"><path d="M21.816 16.73c-.055-.225-.119-.452-.187-.694-.323-1.15-.736-2.621-.736-5.745 0-2.368-.613-4.793-2.372-6.568C16.794 1.98 14.451 1 12.005 1s-4.789.98-6.517 2.723c-1.76 1.774-2.372 4.199-2.372 6.567 0 3.124-.414 4.595-.737 5.745-.068.241-.132.468-.187.694a5.623 5.623 0 0 0-.127 2.273c.125.904.454 2.04 1.084 3.677a.501.501 0 0 0 .479.32.52.52 0 0 0 .124-.008l3.708-.695a2.5 2.5 0 0 0 2.039-2.457v-1.06c.773.365 1.61.582 2.467.639a.386.386 0 0 0 .068 0 6.913 6.913 0 0 0 2.465-.643v1.062a2.5 2.5 0 0 0 2.044 2.458l3.733.692a.5.5 0 0 0 .583-.307c.63-1.637.959-2.773 1.084-3.677a5.623 5.623 0 0 0-.127-2.273zm-6.256-3.153c.083.709.387 1.374.869 1.9l.15.163a5.926 5.926 0 0 1-4.58 2.778 5.86 5.86 0 0 1-4.501-2.668c.377-.545.453-1.195.499-1.705a4.096 4.096 0 0 0-.196-1.727l-.614-1.839c1.491-.091 2.767-.505 4.036-1.482 1.218-.937 2.006-2.145 2.499-3.524l2.391 2.569a2.404 2.404 0 0 1 .273 2.727l-.421.758a3.403 3.403 0 0 0-.405 2.05z"/></svg>