<svg xmlns="http://www.w3.org/2000/svg" viewBox="0 0 24 24"><path fill-rule="evenodd" d="M16.791 6.113a9.04 9.04 0 0 0 .724-1.486 15.62 15.62 0 0 0 .437-1.296l.023-.085.007-.023v-.01a.499.499 0 0 0-.607-.61l-.067.022h-.002l-.006.003-.022.01-.083.035-.303.129c-.253.109-.599.259-.969.427-.501.227-1.075.499-1.518.741a13.91 13.91 0 0 0-1.17-1.764 19.747 19.747 0 0 0-.795-.965l-.051-.058-.015-.016-.006-.006a.5.5 0 0 0-.736 0l-.006.006-.015.016-.051.058c-.044.05-.109.123-.187.214a18.81 18.81 0 0 0-.608.751A13.911 13.911 0 0 0 9.594 3.97a24.15 24.15 0 0 0-1.518-.741c-.37-.167-.716-.318-.969-.427l-.303-.129-.083-.035-.022-.01a.02.02 0 0 1-.006-.002h-.002a.498.498 0 0 0-.676.588v.002l.002.007.007.023.023.085c.021.073.051.179.091.307.079.255.197.607.346.989a8.96 8.96 0 0 0 .725 1.485c-3.191.661-5.133 4.142-3.764 7.294l.38.853c.915 1.994 2.018 4.005 3.256 5.589 1.394 1.784 3.062 3.156 4.92 3.156s3.525-1.372 4.919-3.156c1.415-1.811 2.654-4.179 3.637-6.441l.131-.329c1.102-3.061-.816-6.326-3.898-6.964zM9 12a.5.5 0 0 1-1 0v-1a.5.5 0 0 1 1 0v1zm2 4.5a.5.5 0 0 1-1 0v-1a.5.5 0 0 1 1 0v1zm1.5-3.5a.5.5 0 0 1-.5-.5v-1a.5.5 0 0 1 1 0v1a.5.5 0 0 1-.5.5zm1.5 5a.5.5 0 0 1-1 0v-1a.5.5 0 0 1 1 0v1zm3-6.5a.5.5 0 0 1-1 0v-1a.5.5 0 0 1 1 0v1z"/></svg>