<svg xmlns="http://www.w3.org/2000/svg" viewBox="0 0 24 24"><path d="M21.658 7.909A8.26 8.26 0 0 0 6.703 5.935a.5.5 0 0 0 .852.524A7.256 7.256 0 0 1 20.7 8.194a7.254 7.254 0 0 1-.516 5.41.5.5 0 1 0 .888.46 8.263 8.263 0 0 0 .587-6.155z"/><path d="M13.055 21.284a2.992 2.992 0 0 1-1.525-.713 3.063 3.063 0 0 1-.136-4.454 3.062 3.062 0 0 1 .343-2.092l-1.24.018c-2.221-.021-4.158-.28-5.52-.759-1.411-.496-1.978-1.134-1.978-1.784s.567-1.287 1.977-1.778C6.339 9.248 8.277 9 10.499 9c2.2 0 4.005.367 5.24.897.619.265 1.074.562 1.367.855.293.293.393.548.393.748a.5.5 0 0 0 1 0c0-.55-.276-1.045-.685-1.455s-.987-.77-1.68-1.067C14.745 8.383 12.799 8 10.499 8c-2.277 0-4.34.252-5.852.778-1.466.51-2.648 1.371-2.648 2.722v7c0 .757.271 1.384.764 1.877.479.479 1.143.807 1.903 1.039 1.515.461 3.581.584 5.833.584h3.031a3.056 3.056 0 0 1-.477-.716z"/><path d="M19.348 16.772a1.96 1.96 0 0 0-.409-.293 2.06 2.06 0 0 0-.616-2.541 1.979 1.979 0 0 0-1.495-.366 1.967 1.967 0 0 0-1.063.535 1.998 1.998 0 0 0-1.072-.574 1.97 1.97 0 0 0-1.53.36 2.03 2.03 0 0 0-.803 1.361 2.086 2.086 0 0 0 .208 1.227 2.009 2.009 0 0 0-.899.982 2.079 2.079 0 0 0 .015 1.673 2 2 0 0 0 1.251 1.1c.275.083.563.104.847.063h.002l.013.073c.061.303.189.588.375.834s.425.446.7.584a1.973 1.973 0 0 0 2.47-.584 2.04 2.04 0 0 0 .388-.914h.002a1.967 1.967 0 0 0 1.58-.481 2.062 2.062 0 0 0 .035-3.039zm-3.598 2.351a1.5 1.5 0 1 1 .001-3.001 1.5 1.5 0 0 1-.001 3.001z"/></svg>