<svg xmlns="http://www.w3.org/2000/svg" viewBox="0 0 24 24"><defs><style>.cls-1{fill:#363636}</style></defs><g id="Camada_1"><path d="M9.806 10l-.781-2.342a.5.5 0 1 1 .948-.316L10.859 10h.64V6.5a.5.5 0 0 1 1 0V10h.64l.886-2.658a.5.5 0 1 1 .949.316L14.193 10h2.874l.937-7.313a.501.501 0 0 0-.708-.515l-.005.002-.018.008a14.306 14.306 0 0 1-1.321.514c-.79.262-1.709.483-2.406.43-.54-.042-1.053-.213-1.621-.423l-.19-.071c-.501-.187-1.052-.393-1.638-.5-.824-.15-1.744-.148-2.441-.112a15.99 15.99 0 0 0-1.192.106l-.019.003H6.44l-.002.001a.5.5 0 0 0-.426.557L6.932 10h2.873zM14.979 16.543C14.242 16.216 13.19 16 12 16s-2.242.215-2.979.543c-.369.164-.637.346-.805.523-.166.175-.216.32-.216.434s.05.259.216.434c.169.177.436.359.805.523.737.327 1.789.543 2.979.543s2.242-.215 2.979-.543c.369-.164.637-.346.805-.523.166-.175.216-.32.216-.434s-.05-.259-.216-.434c-.169-.177-.436-.359-.805-.523z" class="cls-1"/><path d="M2 14v5.5A2.5 2.5 0 0 0 4.5 22h15a2.5 2.5 0 0 0 2.5-2.5V14H2zm14.509 4.623c-.287.301-.678.55-1.124.748-.892.396-2.089.629-3.385.629s-2.493-.232-3.385-.629c-.445-.198-.837-.447-1.123-.748-.289-.304-.491-.684-.491-1.123s.202-.819.491-1.123c.287-.301.678-.55 1.123-.748C9.507 15.233 10.704 15 12 15s2.493.232 3.385.629c.445.198.837.447 1.124.748.289.304.491.684.491 1.123s-.202.819-.491 1.123zM19.447 8.276A.5.5 0 0 0 19 8h-.676l-.25 2h.426a.5.5 0 0 1 0 1h-13a.5.5 0 0 1 0-1h.426l-.25-2H5a.5.5 0 0 0-.447.276L2.191 13h19.618l-2.362-4.724z" class="cls-1"/></g></svg>