<svg xmlns="http://www.w3.org/2000/svg" viewBox="0 0 24 24"><path d="M20.399 3.491c-2.182-2.29-5.236-3.49-8.509-3.49C5.345 0 0 5.455 0 12c0 6.654 5.454 12 12 12h.108c6.654 0 12-5.455 11.89-12.11 0-3.163-1.309-6.217-3.6-8.399zm-2.51 14.29c-.108.11-.217.11-.327.11-.109 0-.327 0-.436-.11L12 12.764 6.981 17.89c-.109.11-.218.11-.327.219-.109 0-.327-.11-.436-.219a.527.527 0 0 1 0-.763L11.236 12 6.109 6.982a.527.527 0 0 1 0-.764C6.327 6 6.654 6 6.872 6.11L12 11.127 17.017 6a.527.527 0 0 1 .764 0 .527.527 0 0 1 0 .764L12.763 12l5.127 5.018a.527.527 0 0 1 0 .763z"/></svg>