<svg xmlns="http://www.w3.org/2000/svg" viewBox="0 0 24 24"><path d="M7.4 10.2v.4h9.3v-.4H7.4zM6.7 6.3c0 1 .1 1.9.4 2.8H17c.2-.9.4-1.9.4-2.8 0-1.1.2-2.1.5-3.2.1-.1.1-.3 0-.4-.1-.1-.2-.2-.3-.2L15.7 2c-.3-.1-.5.1-.6.3-.4 1.3-1.6 2.2-3 2.2s-2.6-.8-3-2.2c-.2-.2-.4-.4-.7-.3l-1.9.5c-.1 0-.3.1-.3.2-.1.2-.1.3 0 .5.3 1 .5 2.1.5 3.1zM19 15.9c-.7-1.5-1.5-3.2-2-4.4h-2.4l.7 3.3c.1.3 0 .5-.4.6-.4.1-.6-.2-.6-.4l-.7-3.5h-3.2L9.7 15c0 .2-.3.5-.6.4-.3-.1-.4-.3-.4-.6l.7-3.3H7c-.5 1.2-1.3 2.9-2 4.4-1.7 3.8-1.7 3.8-1.5 4.1.3.6 4 2 8.5 2 4.6 0 8.2-1.4 8.5-2 .2-.3.2-.3-1.5-4.1z"/></svg>