<svg xmlns="http://www.w3.org/2000/svg" viewBox="0 0 24 24"><defs><style>.cls-1{fill:#363636;fill-rule:evenodd}</style></defs><g id="Camada_1"><path d="M9 1.5a.5.5 0 0 0-.5-.5h-4a.5.5 0 0 0-.5.5V5h5V1.5zM9 8.349V6H4v2.349l-1.244 1.866A4.499 4.499 0 0 0 2 12.711V21.5A1.5 1.5 0 0 0 3.5 23h6a1.5 1.5 0 0 0 1.5-1.5v-8.789c0-.888-.263-1.757-.756-2.496L9 8.349zM9 19.5a.5.5 0 0 1-.5.5h-4a.5.5 0 0 1-.5-.5v-6a.5.5 0 0 1 .5-.5h4a.5.5 0 0 1 .5.5v6zM21 1.5a.5.5 0 0 0-.5-.5h-6a.5.5 0 0 0-.5.5V4h7V1.5zM21.5 5h-8a.5.5 0 0 0-.5.5v14a3.5 3.5 0 0 0 3.5 3.5h2a3.5 3.5 0 0 0 3.5-3.5v-14a.5.5 0 0 0-.5-.5zM20 18.5a.5.5 0 0 1-.5.5h-4a.5.5 0 0 1-.5-.5v-9a.5.5 0 0 1 .5-.5h4a.5.5 0 0 1 .5.5v9z" class="cls-1"/></g></svg>