<svg xmlns="http://www.w3.org/2000/svg" viewBox="0 0 24 24"><defs><style>.cls-1{fill:#363636}</style></defs><g id="Camada_1"><path d="M12.436 2H3.565a1.5 1.5 0 0 0-1.497 1.594l.934 14.938a.5.5 0 0 0 .499.469h9a.5.5 0 0 0 .499-.469l.934-14.938A1.5 1.5 0 0 0 12.437 2zM11 14.5a.5.5 0 0 1-.5.5h-5a.5.5 0 0 1-.5-.5v-8a.5.5 0 0 1 .5-.5h5a.5.5 0 0 1 .5.5v8zM4 20.5A1.5 1.5 0 0 0 5.5 22h5a1.5 1.5 0 0 0 1.5-1.5v-1H4v1zM21.268 2.732A2.5 2.5 0 0 0 19.5 2h-4.167a.833.833 0 0 0 0 1.666h3.333a.833.833 0 0 1 0 1.666h-3.333a.833.833 0 0 0 0 1.666h3.333a.833.833 0 0 1 0 1.666h-3.333a.833.833 0 0 0 0 1.666h3.333a.833.833 0 0 1 0 1.666h-3.333a.833.833 0 0 0 0 1.666h1.492a.837.837 0 0 1 .795.571.84.84 0 0 1 .038.345l-.65 6.5a.831.831 0 0 0 .826.917h3.333a.833.833 0 0 0 .833-.833V4.5a2.5 2.5 0 0 0-.732-1.768z" class="cls-1"/></g></svg>