<svg xmlns="http://www.w3.org/2000/svg" viewBox="0 0 24 24"><g clip-path="url(#clip0_855_12702)"><path d="M20.399 3.49C18.217 1.2 15.163 0 11.89 0 5.345 0 0 5.455 0 12c0 6.654 5.454 12 12 12h.108c6.654 0 12-5.454 11.89-12.11 0-3.163-1.309-6.217-3.6-8.4zm-7.854 14.837c0 .327-.219.546-.546.546-.327 0-.545-.219-.545-.546V9.6c0-.327.218-.545.545-.545.327 0 .546.218.546.545v8.727zm.218-11.345c-.218.218-.437.327-.764.327s-.545-.109-.763-.327c-.219-.11-.328-.437-.328-.655 0-.654.437-1.09 1.091-1.09.218 0 .546.108.764.218.218.218.327.545.327.763 0 .327-.11.655-.327.764z"/></g><defs><clipPath id="clip0_855_12702"><path d="M0 0h24v24H0z"/></clipPath></defs></svg>