<svg xmlns="http://www.w3.org/2000/svg" viewBox="0 0 24 24"><path d="M19 7h.586l-1.293 1.293a.999.999 0 1 0 1.414 1.414l3-3a.999.999 0 0 0 0-1.414l-3-3a.999.999 0 1 0-1.414 1.414L19.586 5H19c-4.411 0-6.698 3.242-8.682 6.055l-.259.367C7.912 14.453 5.933 17 2 17a1 1 0 0 0 0 2c5.067 0 7.588-3.453 9.691-6.422l.071-.1C13.932 9.414 15.642 7 19 7zM19.707 14.293a.999.999 0 1 0-1.414 1.414L19.586 17H19c-1.812 0-3.138-.705-4.313-1.817a1.001 1.001 0 0 0-1.375 1.453C14.766 18.011 16.562 19 18.999 19h.586l-1.293 1.293a.999.999 0 1 0 1.414 1.414l3-3a.999.999 0 0 0 0-1.414l-3-3zM2 7c2.318 0 3.94.884 5.31 2.191a1 1 0 0 0 1.381-1.447C7.029 6.158 4.933 5 2.001 5a1 1 0 0 0 0 2z"/></svg>