<svg xmlns="http://www.w3.org/2000/svg" viewBox="0 0 24 24"><path fill-rule="evenodd" d="M22 17.319a5.483 5.483 0 0 0-4.149-5.308A6.465 6.465 0 0 0 19 8.32c0-.957-.207-1.866-.579-2.685a2.5 2.5 0 0 0 1.428-1.468 2.496 2.496 0 0 0-4.666-1.77c-.818-.372-1.727-.578-2.684-.578s-1.866.207-2.685.579A2.5 2.5 0 0 0 8.346.97a2.496 2.496 0 0 0-1.77 4.666 6.469 6.469 0 0 0-.579 2.685c0 1.371.424 2.643 1.149 3.691a5.482 5.482 0 0 0-4.149 5.309 2.5 2.5 0 0 0 2 2.45v.05a3 3 0 0 0 5.474 1.697 6.974 6.974 0 0 0 4.052 0 3 3 0 0 0 5.474-1.697v-.05a2.498 2.498 0 0 0 2-2.451zm-5.284-14.61a.996.996 0 1 1 .896 1.596 6.532 6.532 0 0 0-1.096-1.096c.02-.182.089-.355.2-.5zM14.5 6.32a1 1 0 1 1 0 2 1 1 0 0 1 0-2zm-2.462 3h.925a.93.93 0 0 1 .855.566.916.916 0 0 1-.2.999l-.462.458a.928.928 0 0 1-1.308 0l-.462-.458a.906.906 0 0 1-.2-.999.918.918 0 0 1 .855-.565zm-1.538-3a1 1 0 1 1 0 2 1 1 0 0 1 0-2zM6.889 4.104a.996.996 0 1 1 1.596-.896A6.52 6.52 0 0 0 7.39 4.303a.993.993 0 0 1-.5-.2zM8 21.32a1.5 1.5 0 1 1 .001-3.001A1.5 1.5 0 0 1 8 21.32zm6.009-1.736a4.967 4.967 0 0 1-3.018 0 3.002 3.002 0 0 0-2.461-2.717 4.972 4.972 0 0 1 .608-2.983c.981.594 2.132.936 3.363.936s2.388-.344 3.371-.942c.015.042.034.083.055.124a4.98 4.98 0 0 1 .552 2.777.844.844 0 0 0-.004.087 3 3 0 0 0-2.465 2.718zM17 21.32a1.5 1.5 0 1 1 .001-3.001A1.5 1.5 0 0 1 17 21.32z"/></svg>