<svg xmlns="http://www.w3.org/2000/svg" viewBox="0 0 24 24"><path d="M7.232 7.916a.498.498 0 0 0 .777-.386.975.975 0 0 1 .087-.35.746.746 0 0 1 .176-.242c.131-.103.247-.223.349-.356a2.148 2.148 0 0 1 .357.973.5.5 0 0 0 .775.36c.388-.259.701-.629.915-1.062a3.21 3.21 0 0 0 .325-1.415c0-.746-.126-2.746-2.437-4.349a.499.499 0 0 0-.779.339 3.44 3.44 0 0 1-.503 1.37 3.057 3.057 0 0 1-.287.35l-.006.006a6.24 6.24 0 0 0-.425.519 2.942 2.942 0 0 0-.563 1.765c0 .493.111.981.325 1.415.214.434.527.803.915 1.062zM20.828 18.638a1.765 1.765 0 0 0-1.34-.985c.061-.059.118-.123.17-.191a1.773 1.773 0 0 0-1.715-2.75 1.768 1.768 0 0 0-1.149.67 1.81 1.81 0 0 0-.128.221 1.671 1.671 0 0 0-.128-.221 1.769 1.769 0 0 0-3.171.769c-.075.461.035.934.306 1.314.052.068.109.132.17.191a1.779 1.779 0 0 0-1.504 1.54 1.774 1.774 0 0 0 1.846 1.984c.258-.013.509-.082.737-.202a1.764 1.764 0 0 0-.026.252 1.772 1.772 0 0 0 3.022 1.253c.332-.332.518-.783.518-1.253a1.67 1.67 0 0 0-.026-.254 1.779 1.779 0 0 0 1.43.095 1.782 1.782 0 0 0 1.031-.996 1.785 1.785 0 0 0-.043-1.434zm-3.224.872a1.328 1.328 0 1 1 .388-.939c0 .352-.14.69-.389.94z" class="cls-1"/><path d="M11.462 20.265a2.764 2.764 0 0 1 .283-2.32c.184-.297.423-.555.703-.763a2.772 2.772 0 0 1 1.554-3.286v-2.79c0-.015 0-.029-.002-.044l.002-.062c0-.45-.302-.777-.604-.992-.315-.224-.739-.404-1.217-.548C11.218 9.171 9.917 9 8.502 9s-2.716.171-3.679.46c-.478.143-.902.324-1.217.548-.302.214-.604.542-.604.992 0 .021 0 .041.002.062l-.002.044V20c0 1.354 1.187 2.089 2.271 2.471 1.131.399 2.441.529 3.229.529.892 0 2.479-.167 3.705-.719l.763-.341a2.775 2.775 0 0 1-1.507-1.675zm-6.354-8.683c-.426-.128-.735-.27-.926-.406-.131-.093-.169-.154-.179-.176.01-.022.048-.083.179-.176.191-.135.5-.278.926-.406C5.954 10.164 7.154 10 8.5 10s2.545.164 3.392.418c.426.128.735.27.926.406.131.093.169.154.179.176-.01.022-.048.083-.179.176-.191.135-.5.278-.926.406-.846.254-2.046.418-3.392.418s-2.545-.164-3.392-.418z" class="cls-1"/></svg>