<svg xmlns="http://www.w3.org/2000/svg" viewBox="0 0 24 24"><path d="M12 1a11 11 0 1 0 11 11A11 11 0 0 0 12 1zM8.31 15.05c-.36-.43-1.52-.14-1.77-.47a5.46 5.46 0 0 1-.87-2.09 4.38 4.38 0 0 1 1.67-2c.32 0 .57 1.12 1.08 1.23s1.91-.25 2.38-.07 1 1.77 1.34 1.84 1.06-.36 1.25.11a2.61 2.61 0 0 1-.39 2.06c-.36.3-1.3 1.27-1.33 1.74s-.55.72-.76 1.05-.65.5-.65 1a8.32 8.32 0 0 1-.15 1.27c-.36.25-.94-.08-1.15-.51a6.69 6.69 0 0 1-.62-1.81c-.06-.46.33-2.91-.03-3.35zm5.87-11.89c.12-.36 1.21-.32 1.46-.4h.12A10 10 0 0 1 19.14 5a2.67 2.67 0 0 1-.38.09A11.05 11.05 0 0 1 16 4.18c-.24-.08-1.34.61-1.82.32s-.12-.97 0-1.34zm-5-.3c.31.2 2.18.35 2.23.81s-1 1.06-1.31 1.33a4.64 4.64 0 0 0-.91 1.72c-.1.51-1.87.86-2.23 1s-2 .11-2.38.36.31 1.37.61 1.57.15 1.06-.25 1.32a7.53 7.53 0 0 1-1.78-1 11.17 11.17 0 0 1-.62-1.28 10.08 10.08 0 0 1 6.18-6.15zm11.72 12.8c0-.28-1.06-1.75-1.17-2.21a6 6 0 0 0-.5-2c-.36-.45-1.67-.45-2-.4a9.44 9.44 0 0 1-2.43-.86 5.8 5.8 0 0 1-.56-2.39 3.53 3.53 0 0 1 .41-1.19c.1-.27 1.67-.27 2-.27a3.38 3.38 0 0 1 1.57 1.06c.21.35 1.83.4 2.13.4a2.32 2.32 0 0 0 .65-.2 9.9 9.9 0 0 1 .07 8.65 4.51 4.51 0 0 1-.17-.59z"/></svg>