<svg xmlns="http://www.w3.org/2000/svg" viewBox="0 0 24 24"><path d="M9.466 6.774l-.431 2.645a.498.498 0 0 0 .736.518l2.23-1.233 2.23 1.233a.5.5 0 0 0 .736-.518l-.431-2.645 1.824-1.869a.499.499 0 0 0-.283-.844l-2.5-.382-1.123-2.392a.5.5 0 0 0-.906 0l-1.123 2.392-2.5.382a.501.501 0 0 0-.283.844l1.824 1.869z" class="cls-1"/><path d="M20.453 9.287a.5.5 0 0 0-.331-.272l-4.388-1.097.175 1.075 2.243.561-6.153 1.923-6.153-1.923 2.244-.561.175-1.075L3.88 9.014l-.013.003a.502.502 0 0 0-.316.259l-1.5 3a.5.5 0 0 0 .272.691l8 3a.502.502 0 0 0 .635-.271l1.04-2.428 1.04 2.428a.5.5 0 0 0 .635.271l8-3a.503.503 0 0 0 .29-.285c.007-.016.012-.033.017-.05a.495.495 0 0 0-.035-.356L20.45 9.287z" class="cls-1"/><circle cx="2" cy="7" r="1" class="cls-1"/><circle cx="22" cy="2" r="1" class="cls-1"/><path d="M3.5 3.5a1 1 0 0 1 1 1 .5.5 0 0 0 1 0 1 1 0 0 1 1-1 .5.5 0 0 0 0-1 1 1 0 0 1-1-1 .5.5 0 0 0-1 0 1 1 0 0 1-1 1 .5.5 0 0 0 0 1zM17.5 6.5a1 1 0 0 1 1 1 .5.5 0 0 0 1 0 1 1 0 0 1 1-1 .5.5 0 0 0 0-1 1 1 0 0 1-1-1 .5.5 0 0 0-1 0 1 1 0 0 1-1 1 .5.5 0 0 0 0 1zM12.5 16.618V21.5a.5.5 0 0 1-1 0v-4.882a1.5 1.5 0 0 1-1.527.286L4 14.664V19.5a.5.5 0 0 0 .314.464l7.5 3a.502.502 0 0 0 .377-.002l7.495-2.998A.5.5 0 0 0 20 19.5v-4.836l-5.973 2.24a1.5 1.5 0 0 1-1.527-.286z" class="cls-1"/></svg>