<svg xmlns="http://www.w3.org/2000/svg" viewBox="0 0 24 24"><style></style><path id="Create-Here" d="M11.997 2.497c-5.247 0-9.5 4.253-9.5 9.5s4.253 9.5 9.5 9.5 9.5-4.253 9.5-9.5-4.253-9.5-9.5-9.5zm4.647 13.646a.507.507 0 0 1-.5.5l-3.396.027a.498.498 0 0 1-.501-.502.51.51 0 0 1 .5-.499l2.199-.017-6.607-6.6-.017 2.193a.509.509 0 0 1-.5.5.498.498 0 0 1-.5-.5l.028-3.394a.507.507 0 0 1 .5-.5l3.396-.027c.288.005.505.23.501.502a.51.51 0 0 1-.5.499l-2.199.016 6.607 6.602.017-2.193a.509.509 0 0 1 .5-.5.498.498 0 0 1 .5.5l-.028 3.393z"/></svg>