<svg xmlns="http://www.w3.org/2000/svg" viewBox="0 0 24 24"><path d="M18.79 15.195c-.518-.416-1.003-.854-1.487-1.291l-.084-.076c-.232-.209-.464-.419-.699-.622a.049.049 0 0 0-.02-.021c.5-.6 2-2.485 2.4-4.585.5-2.5 1-6.9 1-7 0-.2 0-.3-.2-.5-.1-.1-.3-.1-.5 0-.2 0-5.2 2.1-6.3 4.8-.619 1.548-.879 3.216-.965 4.354a19.35 19.35 0 0 0-.064-.625c-.128-1.084-.384-2.507-.907-3.815-.291-.729-.856-1.384-1.492-1.947-.641-.567-1.389-1.07-2.093-1.486a22.033 22.033 0 0 0-2.466-1.25c-.071-.031-.128-.054-.167-.07l-.045-.018-.012-.005h-.003l-.002-.002a.497.497 0 0 0-.683.519v.007c.041.493.391 3.523.787 5.819.072.434.146.847.22 1.217.269 1.344.935 2.533 1.517 3.374.228.33.447.611.629.831.096.119.179.304.244.383-.023.023-.017.052.012.087-.194.17-.387.344-.582.52l-.064.058c-.496.447-1.002.903-1.552 1.345-.767.616-1.146 1.614-1.206 2.634a5.31 5.31 0 0 0 .784 3.084c.592.944 1.525 1.707 2.801 1.981 1.217.261 2.691.066 4.408-.753 1.717.818 3.191 1.014 4.409.753 1.276-.274 2.209-1.037 2.801-1.981a5.317 5.317 0 0 0 .784-3.084c-.06-1.021-.439-2.018-1.206-2.634zM6.481 8.304c-.243-1.214-.489-2.935-.676-4.371l-.098-.764c.287.15.595.319.91.504.656.388 1.317.836 1.862 1.318.556.492.926.962 1.094 1.38.454 1.135.702 2.455.834 3.52.065.527.101.978.119 1.297l.002.031c-.679.205-1.317.55-1.948.999l-.012-.014a12.397 12.397 0 0 1-.733-.965c-.566-.824-1.141-1.877-1.353-2.935zM9 18.004a1 1 0 1 1 0-2 1 1 0 0 1 0 2zm4.777 1.909l-1.5 1a.5.5 0 0 1-.555 0l-1.5-1a.5.5 0 0 1 .278-.916h3a.5.5 0 0 1 .278.916zm1.235-1.909a1 1 0 1 1 0-2 1 1 0 0 1 0 2zm1.228-6.886c-.258.372-.5.672-.677.877-.063.073-.117.133-.16.181a5.656 5.656 0 0 0-1.851-.946l-.043-.056.006-.132c.015-.302.044-.732.104-1.237.12-1.02.356-2.298.81-3.433.167-.418.537-.888 1.093-1.38.545-.482 1.206-.93 1.862-1.318.314-.186.623-.355.91-.504l-.098.764c-.187 1.436-.434 3.157-.677 4.371-.213 1.063-.756 2.059-1.279 2.814z" class="cls-1"/></svg>