<svg xmlns="http://www.w3.org/2000/svg" viewBox="0 0 24 24"><path d="M22.88 10.804c-.268-1.614-1.05-3.311-2.914-4.281l-.016-.008c-2.54-1.206-4.869-.561-6.687.011l-.318.101c-.791.251-1.445.459-2.014.511-.598.055-1.019-.069-1.363-.485-.075-.097-.112-.233-.082-.478.029-.238.11-.499.21-.823l.034-.112c.199-.649.503-1.64-.149-2.454-.43-.629-1.19-.811-1.862-.784a3.85 3.85 0 0 0-1.995.673C2.807 4.71 1 8.066 1 11.821c0 6.192 4.921 11.178 11.057 11.178 5.031 0 9.349-3.458 10.655-8.132l.003-.01.003-.011c.2-.862.429-2.438.162-4.042zM4 11.499a1.5 1.5 0 1 1 3.001.001A1.5 1.5 0 0 1 4 11.5zm4 6.5a1.5 1.5 0 1 1 .001-3.001A1.5 1.5 0 0 1 8 17.999zm5 2a1.5 1.5 0 1 1 .001-3.001A1.5 1.5 0 0 1 13 19.999zm4-5a2.5 2.5 0 1 1 0-5 2.5 2.5 0 0 1 0 5z"/></svg>