<svg xmlns="http://www.w3.org/2000/svg" version="1.0" viewBox="0 0 24 24"><path d="M21.9 1.5c.2 0 .3 0 .4.1.1.1.2.3.1.4v.4c0 .3-.1.7-.2 1.2-.2 1-.5 2.3-.9 3.8-.9 3-2.3 6.5-4.5 8.8-2.4 2.4-5 2.8-7.1 2.6-.8-.1-1.5-.2-2.1-.4L14 12c.2-.2.2-.5 0-.7-.2-.2-.5-.2-.7 0L6.6 18l-4.3 4.3c-.2.2-.5.2-.7 0-.2-.2-.2-.5 0-.7l4.2-4.2-.3-.6c-.2-.6-.5-1.4-.6-2.5-.2-2 .2-4.7 2.7-7.1 1.3-1.3 3.1-2.3 5.1-3.1.1-.1.3-.1.4 0 .1.1.2.1.3.3L15 7.7l.6-4.3c0-.2.2-.3.3-.4 1.6-.5 3.1-.9 4.2-1.1.6-.1 1-.2 1.3-.3.2 0 .3-.1.4-.1h.1z"/></svg>