<svg xmlns="http://www.w3.org/2000/svg" viewBox="0 0 24 24"><defs><style>.cls-1{fill:#363636}</style></defs><g id="Camada_1"><path d="M12.5 4H14v1.5a.5.5 0 0 0 1 0V4h1.5a.5.5 0 0 0 0-1H15V1.5a.5.5 0 0 0-1 0V3h-1.5a.5.5 0 0 0 0 1zM20.924 14.632c-.722.271-1.556.368-2.424.368C13.276 15 9 10.724 9 5.5c0-.868.097-1.702.368-2.424a.5.5 0 0 0-.592-.66C4.255 3.572 1 7.671 1 12.5 1 18.276 5.724 23 11.5 23c4.829 0 8.928-3.255 10.084-7.776a.5.5 0 0 0-.661-.592zM22.5 9H21V7.5a.5.5 0 0 0-1 0V9h-1.5a.5.5 0 0 0 0 1H20v1.5a.5.5 0 0 0 1 0V10h1.5a.5.5 0 0 0 0-1z" class="cls-1"/></g></svg>