<svg xmlns="http://www.w3.org/2000/svg" viewBox="0 0 24 24"><defs><style>.cls-1{fill:#363636}</style></defs><g id="Camada_1"><path d="M12 5a1 1 0 0 0 1-1V2a1 1 0 0 0-2 0v2a1 1 0 0 0 1 1zM5.931 6.803a.999.999 0 1 0 1.414-1.414L5.931 3.975a.999.999 0 1 0-1.414 1.414l1.414 1.414zM2 12h2a1 1 0 0 0 0-2H2a1 1 0 0 0 0 2zM19 11a1 1 0 0 0 1 1h2a1 1 0 0 0 0-2h-2a1 1 0 0 0-1 1zM18.319 6.803l1.414-1.414a.999.999 0 1 0-1.414-1.414l-1.414 1.414a.999.999 0 1 0 1.414 1.414zM23 16a1 1 0 0 0-1-1H2a1 1 0 0 0 0 2h2.865l-3.633 4.36a1 1 0 1 0 1.536 1.28l4.7-5.64h1.144l-1.561 4.684a1 1 0 0 0 1.897.633l1.772-5.316h2.558l1.772 5.316a1 1 0 1 0 1.898-.633L15.387 17h1.144l4.7 5.64a1 1 0 1 0 1.536-1.28L19.134 17h2.865a1 1 0 0 0 1-1zM7.101 13h9.798a5 5 0 1 0-9.798 0z" class="cls-1"/></g></svg>