<svg xmlns="http://www.w3.org/2000/svg" viewBox="0 0 24 24"><path d="M12 0a12 12 0 1 0 12 12A12 12 0 0 0 12 0M4.3 10.876a8.2 8.2 0 0 1-1.944-1.091 12.1 12.1 0 0 1-.676-1.4A11 11 0 0 1 8.422 1.68l.5.349c.338.218 2.378.382 2.433.884s-1.09 1.156-1.428 1.451a5.069 5.069 0 0 0-.992 1.876c-.109.556-2.04.938-2.433 1.091a19.939 19.939 0 0 0-2.6.393c-.415.273.338 1.495.665 1.713s.164 1.156-.273 1.44m8.793 5.116c-.393.327-1.418 1.385-1.451 1.9s-.6.785-.829 1.145-.709.545-.709 1.091a9.094 9.094 0 0 1-.164 1.385c-.393.273-1.025-.087-1.255-.556a7.32 7.32 0 0 1-.676-1.975c-.065-.5.36-3.175-.033-3.655s-1.658-.153-1.931-.513a5.954 5.954 0 0 1-.949-2.28 4.776 4.776 0 0 1 1.822-2.182c.349 0 .622 1.222 1.178 1.342s2.084-.273 2.6-.076 1.091 1.931 1.462 2.007 1.156-.393 1.364.12a2.847 2.847 0 0 1-.425 2.247m1.287-13.637c.131-.393 1.32-.349 1.593-.436h.129a10.9 10.9 0 0 1 3.687 2.444 2.974 2.974 0 0 1-.415.1 12.013 12.013 0 0 1-3.011-.993c-.262-.087-1.462.665-1.985.349s-.131-1.058 0-1.462m7.331 13.636c0-.305-1.156-1.909-1.276-2.411a6.538 6.538 0 0 0-.545-2.182c-.393-.491-1.822-.491-2.182-.436a10.3 10.3 0 0 1-2.651-.938 6.328 6.328 0 0 1-.611-2.607 3.842 3.842 0 0 1 .447-1.3c.109-.295 1.822-.295 2.182-.295a3.682 3.682 0 0 1 1.713 1.156c.229.382 2 .436 2.324.436a2.533 2.533 0 0 0 .709-.218 10.8 10.8 0 0 1 .076 9.436 4.922 4.922 0 0 1-.185-.644"/></svg>