<svg xmlns="http://www.w3.org/2000/svg" viewBox="0 0 24 24"><path d="M22.035 7.487c-.463.208-.685.442-.819.669-.138.233-.202.482-.288.816l-.04.155c-.134.512-.276.93-.434 1.23a1.588 1.588 0 0 1-.294.411c-.122.117-.305.232-.542.232s-.419-.115-.542-.232a1.571 1.571 0 0 1-.294-.411c-.157-.3-.3-.719-.434-1.23a6.027 6.027 0 0 0-.302-.916 6.066 6.066 0 0 0-.302.916c-.134.512-.276.93-.434 1.23a1.588 1.588 0 0 1-.294.411c-.122.117-.305.232-.542.232s-.419-.115-.542-.232a1.549 1.549 0 0 1-.294-.411c-.157-.3-.3-.719-.434-1.23a6.027 6.027 0 0 0-.302-.916 6.066 6.066 0 0 0-.302.916c-.134.512-.276.93-.434 1.23a1.588 1.588 0 0 1-.294.411c-.122.117-.305.232-.542.232s-.419-.115-.542-.232a1.571 1.571 0 0 1-.294-.411c-.157-.3-.3-.719-.434-1.23a6.027 6.027 0 0 0-.302-.916 6.066 6.066 0 0 0-.302.916c-.134.512-.276.93-.434 1.23a1.588 1.588 0 0 1-.294.411c-.122.117-.305.232-.542.232s-.419-.115-.542-.232a1.571 1.571 0 0 1-.294-.411c-.157-.3-.3-.719-.434-1.23a6.027 6.027 0 0 0-.302-.916 6.066 6.066 0 0 0-.302.916c-.134.512-.276.93-.434 1.23a1.588 1.588 0 0 1-.294.411c-.122.117-.305.232-.542.232s-.419-.115-.542-.232a1.549 1.549 0 0 1-.294-.411c-.157-.3-.3-.719-.434-1.23a6.027 6.027 0 0 0-.302-.916 6.066 6.066 0 0 0-.302.916c-.134.512-.276.93-.434 1.23a1.588 1.588 0 0 1-.294.411c-.122.117-.305.232-.542.232s-.419-.115-.542-.232a1.571 1.571 0 0 1-.294-.411c-.157-.3-.3-.719-.434-1.23a4.625 4.625 0 0 0-.331-.925c-.141-.273-.286-.439-.424-.518a10.966 10.966 0 0 0-.879 4.317c0 1.608.345 3.135.965 4.512.447-.182.679-.403.822-.618.174-.26.249-.549.347-.927l.025-.094c.134-.512.276-.93.434-1.23.078-.149.174-.296.294-.411.122-.117.305-.232.542-.232s.419.115.542.232c.121.115.216.261.294.411.157.3.3.719.434 1.23.108.412.21.713.302.916.092-.204.194-.504.302-.916.134-.512.276-.93.434-1.23.078-.149.174-.296.294-.411.122-.117.305-.232.542-.232s.419.115.542.232c.12.115.216.261.294.411.157.3.3.719.434 1.23.108.412.21.713.302.916.092-.204.194-.504.302-.916.134-.512.276-.93.434-1.23.078-.149.174-.296.294-.411.122-.117.305-.232.542-.232s.419.115.542.232c.12.115.216.261.294.411.157.3.3.719.434 1.23.108.412.21.713.302.916.092-.204.194-.504.302-.916.134-.512.276-.93.434-1.23.078-.149.174-.296.294-.411.122-.117.305-.232.542-.232s.419.115.542.232c.12.115.216.261.294.411.157.3.3.719.434 1.23.108.412.21.713.302.916.092-.204.194-.504.302-.916.134-.512.276-.93.434-1.23.078-.149.174-.296.294-.411.122-.117.305-.232.542-.232s.419.115.542.232c.12.115.216.261.294.411.157.3.3.719.434 1.23.108.412.21.713.302.916.092-.204.194-.504.302-.916.134-.512.276-.93.434-1.23.078-.149.173-.296.294-.411.122-.117.305-.232.542-.232s.419.115.542.232c.12.115.216.261.294.411.157.3.3.719.434 1.23.023.089.038.163.054.237.028.137.056.272.133.495.08.229.209.527.434.911.621-1.378.967-2.906.967-4.516s-.345-3.136-.965-4.513z" class="cls-1"/><path d="M20.655 15.934a5.573 5.573 0 0 1-.187-.705l-.022-.102a6.027 6.027 0 0 0-.302-.916 6.066 6.066 0 0 0-.302.916c-.134.512-.276.93-.434 1.23a1.588 1.588 0 0 1-.294.411c-.122.117-.305.232-.542.232s-.419-.115-.542-.232a1.571 1.571 0 0 1-.294-.411c-.157-.3-.3-.719-.434-1.23a6.027 6.027 0 0 0-.302-.916 6.066 6.066 0 0 0-.302.916c-.134.512-.276.93-.434 1.23a1.588 1.588 0 0 1-.294.411c-.122.117-.305.232-.542.232s-.419-.115-.542-.232a1.571 1.571 0 0 1-.294-.411c-.157-.3-.3-.719-.434-1.23a6.027 6.027 0 0 0-.302-.916 6.066 6.066 0 0 0-.302.916c-.134.512-.276.93-.434 1.23a1.588 1.588 0 0 1-.294.411c-.122.117-.305.232-.542.232s-.419-.115-.542-.232a1.571 1.571 0 0 1-.294-.411c-.157-.3-.3-.719-.434-1.23a6.027 6.027 0 0 0-.302-.916 6.066 6.066 0 0 0-.302.916c-.134.512-.276.93-.434 1.23a1.588 1.588 0 0 1-.294.411c-.122.117-.305.232-.542.232s-.419-.115-.542-.232a1.549 1.549 0 0 1-.294-.411c-.157-.3-.3-.719-.434-1.23a6.027 6.027 0 0 0-.302-.916 6.066 6.066 0 0 0-.302.916c-.134.512-.276.93-.434 1.23a1.588 1.588 0 0 1-.294.411c-.122.117-.305.232-.542.232s-.419-.115-.542-.232a1.549 1.549 0 0 1-.294-.411c-.157-.3-.3-.719-.434-1.23a6.027 6.027 0 0 0-.302-.916 6.066 6.066 0 0 0-.302.916l-.028.108c-.091.353-.207.806-.48 1.215-.259.387-.637.712-1.201.956A10.998 10.998 0 0 0 11.995 23c4.052 0 7.593-2.191 9.502-5.454l-.017-.024c-.448-.672-.689-1.185-.83-1.589zM3.192 7.743c.227.441.352.91.41 1.13.108.412.21.713.302.916.092-.204.194-.504.302-.916.134-.512.276-.93.434-1.23.078-.149.174-.296.294-.411.122-.117.305-.232.542-.232s.419.115.542.232c.12.115.216.261.294.411.157.3.3.719.434 1.23.108.412.21.713.302.916.092-.204.194-.504.302-.916.134-.512.276-.93.434-1.23.078-.149.174-.296.294-.411C8.2 7.115 8.383 7 8.62 7s.419.115.542.232c.121.115.216.261.294.411.157.3.3.719.434 1.23.108.412.21.713.302.916.092-.204.194-.504.302-.916.134-.512.276-.93.434-1.23.078-.149.174-.296.294-.411.122-.117.305-.232.542-.232s.419.115.542.232c.121.115.216.261.294.411.157.3.3.719.434 1.23.108.412.21.713.302.916.092-.204.194-.504.302-.916.134-.512.276-.93.434-1.23.078-.149.174-.296.294-.411.122-.117.305-.232.542-.232s.419.115.542.232c.12.115.216.261.294.411.157.3.3.719.434 1.23.108.412.21.713.302.916.092-.204.194-.504.302-.916.134-.512.276-.93.434-1.23.078-.149.174-.296.294-.411.122-.117.305-.232.542-.232s.419.115.542.232c.121.115.216.261.294.411.157.3.3.719.434 1.23.108.412.21.713.302.916.092-.204.194-.504.302-.916l.035-.137c.082-.324.183-.724.4-1.09.247-.417.626-.773 1.227-1.052A10.996 10.996 0 0 0 12.006 1a11 11 0 0 0-9.691 5.781c.428.219.705.628.878.963z" class="cls-1"/></svg>