<svg xmlns="http://www.w3.org/2000/svg" viewBox="0 0 24 24"><path d="M9.5 2a7.5 7.5 0 0 0-3.325 14.225 8.5 8.5 0 0 1 10.05-10.05A7.5 7.5 0 0 0 9.5 2zm7.179 5.321a7.497 7.497 0 0 0-2.934-.283l3.218 3.218a7.528 7.528 0 0 0-.283-2.934zM7.775 17.825a7.5 7.5 0 1 0 10.05-10.05 8.5 8.5 0 0 1-10.05 10.05zm-.454-1.146a7.497 7.497 0 0 1-.284-2.927l3.215 3.211a7.502 7.502 0 0 1-2.931-.284zm5.247-9.428a.45.45 0 0 0 .079.102l4 4a.508.508 0 0 0 .102.079 7.467 7.467 0 0 1-.767 1.843l-5.257-5.257a7.467 7.467 0 0 1 1.843-.767zm1.55 8.159a7.534 7.534 0 0 0 1.293-1.293L9.883 8.589A7.534 7.534 0 0 0 8.59 9.882l5.528 5.528zm-.843.572l-5.257-5.257a7.411 7.411 0 0 0-.763 1.831l4.194 4.189a7.466 7.466 0 0 0 1.826-.762z" class="cls-1"/></svg>