<svg xmlns="http://www.w3.org/2000/svg" viewBox="0 0 40 40"><path fill-rule="evenodd" d="M8.149 34.411l.044.407a4.168 4.168 0 0 0 4.116 3.516H27.69a4.167 4.167 0 0 0 4.16-3.922l1.239-21.078H6.91l1.239 21.078zm13.517-12.744a1.667 1.667 0 0 1 3.334 0v10a1.667 1.667 0 1 1-3.334 0v-10zm-6.666 0a1.667 1.667 0 0 1 3.334 0v10a1.667 1.667 0 1 1-3.334 0v-10zM35 8.333h-6.667V6.666a5 5 0 0 0-5-5h-6.667a5 5 0 0 0-5 5v1.667H4.999a1.667 1.667 0 0 0 0 3.334h30a1.667 1.667 0 1 0 0-3.334zm-10 0H15V6.666c0-.92.746-1.667 1.667-1.667h6.667c.92 0 1.667.746 1.667 1.667v1.667z"/></svg>