<svg xmlns="http://www.w3.org/2000/svg" viewBox="0 0 24 24"><defs><style>.cls-1{fill:#363636}</style></defs><g id="Camada_1"><path d="M21.409 10.196L13.73 2.583a2 2 0 0 0-2.811-.005L9.794 3.686a2.002 2.002 0 0 0-.015 2.837l1.993 2.002-3.238 3.238-1.998-1.98a2 2 0 0 0-2.811-.005L2.6 10.886a2 2 0 0 0-.014 2.836l7.657 7.692a2.002 2.002 0 0 0 2.856-.021l1.147-1.187a2 2 0 0 0-.03-2.81l-1.96-1.943 3.213-3.213 1.967 1.976a2 2 0 0 0 2.856-.022l1.147-1.187a2 2 0 0 0-.03-2.81zM20.939 8.768a2.501 2.501 0 0 0 0-3.536L18.767 3.06a2.501 2.501 0 0 0-3.536 0l-.154.155 5.732 5.682.13-.13zM3.061 15.232a2.501 2.501 0 0 0 0 3.536l2.172 2.172a2.501 2.501 0 0 0 3.536 0l.15-.15-5.694-5.72-.163.163z" class="cls-1"/></g></svg>