<svg xmlns="http://www.w3.org/2000/svg" data-name="Camada 1" viewBox="0 0 24 24"><path stroke-width="0" d="M22.794 9.798a11.002 11.002 0 0 0-3.041-5.618 10.766 10.766 0 0 0-7.8-3.18 10.988 10.988 0 0 0-7.769 3.243 11 11 0 0 0 7.829 18.758h.06a11.002 11.002 0 0 0 10.129-6.843 11 11 0 0 0 .592-6.36zm-5.292 7.362a.5.5 0 0 1-.109.16.492.492 0 0 1-.35.15.498.498 0 0 1-.35-.14l-4.68-4.62-4.63 4.67a.503.503 0 0 1-.35.15.479.479 0 0 1-.35-.15.474.474 0 0 1-.147-.35.496.496 0 0 1 .147-.35l4.62-4.68-4.67-4.62a.503.503 0 0 1 .022-.679.502.502 0 0 1 .678-.03l4.68 4.62 4.63-4.67a.469.469 0 0 1 .35-.151.48.48 0 0 1 .35.151.474.474 0 0 1 .147.35.496.496 0 0 1-.147.35l-4.62 4.68 4.67 4.62a.496.496 0 0 1 .109.539z"/></svg>