<svg xmlns="http://www.w3.org/2000/svg" viewBox="0 0 24 24"><path d="M5.159 2l.074.005a.85.85 0 0 1 .38.16c.104.074.209.173.312.28.207.217.456.528.746.925l.225.315C7.968 5.24 8.367 6.548 9.84 9.815l.861 1.89c.248.538.437.943.508 1.083l.147.271c.362.628.845 1.201 1.189 1.441l.212.14a1.6 1.6 0 0 0 .545.222c.274.055.638.062 1.286.026l1.144-.063h.067a.502.502 0 0 1 .192.057l.998.524 1.324.711c.452.247.901.497 1.306.726.405.229.769.439 1.049.605.262.156.492.299.594.383l.115.098c.277.247.598.622.62 1.183v.125c-.017.29-.124.559-.244.769a2.04 2.04 0 0 1-.379.479l-.147.118c-.131.09-.299.15-.456.197-.169.051-.383.104-.641.163l-2.253.488c-.999.219-2.979.473-4.079.531l-.412.013c-.624-.001-1.238-.02-1.781-.112-.54-.092-1.065-.266-1.467-.622-.012-.011-.024-.021-.035-.033l-.361-.389-.027-.032c-.439-.558-.794-1.242-1.344-2.671l-.249-.66c-.527-1.425-.724-1.93-.979-2.412l-.288-.509c-.227-.385-.422-.752-.635-1.046a1.55 1.55 0 0 0-.264-.297.248.248 0 0 0-.076-.047c-.026 0-.045.009-.069.031a.38.38 0 0 0-.053.067l-.05.108c-.001.009-.009.047-.019.131a9.478 9.478 0 0 0-.036.422c-.025.352-.048.826-.068 1.383-.03.835-.054 1.849-.064 2.904l-.007 1.065a269.186 269.186 0 0 1-.01 2.001v.057l-.002.123v.043a.5.5 0 0 1-.5.494H3.505a.502.502 0 0 1-.5-.513v-.004-.015-.055l.005-.211a64.127 64.127 0 0 0 .013-1.774l-.02-1.142c-.11-3.685-.114-4.807-.49-6.299l-.185-.671c-.532-1.794-.317-3.084-.093-4.351l.099-.486c.258-1.133.724-2.26 1.532-3.421l.126-.163a5.11 5.11 0 0 1 .454-.462c.099-.09.194-.173.271-.234.038-.03.077-.06.112-.084.017-.011.041-.028.069-.043.014-.007.037-.02.066-.031a.534.534 0 0 1 .191-.036z"/></svg>