<svg xmlns="http://www.w3.org/2000/svg" viewBox="0 0 24 24"><defs><style>.cls-1{fill:#363636}</style></defs><g id="Camada_1"><path d="M20.97 9.749a5.156 5.156 0 0 0-1.622-3.484C18.534 5.519 17.109 4.97 16.009 5h-.014c-2.183 0-3.462 1.295-4.429 2.821a.501.501 0 0 1-.845-.535c1.039-1.639 2.58-3.282 5.267-3.285.827-.022 1.765.207 2.598.594a6.634 6.634 0 0 0-.872-1.316c-1.038-1.216-2.747-2.278-5.486-2.278C7.193 1 3 4.607 3 9.185v.005a7.591 7.591 0 0 0 2.076 5.141.5.5 0 0 0 .52.132c2.853-.943 3.975-2.984 4.921-4.769 1.565.068 3.094.493 4.468 1.243a10.14 10.14 0 0 1 3.614 3.326.469.469 0 0 0 .079.093l.014.012a.5.5 0 0 0 .701-.023 5.835 5.835 0 0 0 1.295-2.134 5.781 5.781 0 0 0 .282-2.462zM18.595 15.508a.5.5 0 0 0-.586.396c-.703 3.626-2.976 6.097-5.784 6.097-2.843 0-5.547-2.523-6.234-6.096a.5.5 0 0 0-.982.188C5.759 19.999 8.774 23 12.225 23c3.491 0 6.018-3.044 6.766-6.906a.5.5 0 0 0-.396-.586z" class="cls-1"/></g></svg>