<svg xmlns="http://www.w3.org/2000/svg" viewBox="0 0 24 24"><defs><style>.cls-1{fill:#363636}</style></defs><g id="Camada_1"><circle cx="6.5" cy="4" r="3" class="cls-1"/><path d="M19 13a4 4 0 1 0 0-8 4 4 0 0 0 0 8zm-.5-6A2.5 2.5 0 0 1 21 9.5a.5.5 0 0 1-1 0A1.5 1.5 0 0 0 18.5 8a.5.5 0 0 1 0-1zM8 9a7 7 0 1 0 0 14A7 7 0 0 0 8 9zm3.5 7.5a.5.5 0 0 1-.5-.5 3 3 0 0 0-3-3 .5.5 0 0 1 0-1 4 4 0 0 1 4 4 .5.5 0 0 1-.5.5zM13 3.5a1 1 0 0 1 1 1 .5.5 0 0 0 1 0 1 1 0 0 1 1-1 .5.5 0 0 0 0-1 1 1 0 0 1-1-1 .5.5 0 0 0-1 0 1 1 0 0 1-1 1 .5.5 0 0 0 0 1zM21.25 17.25a1.5 1.5 0 0 1-1.5-1.5.75.75 0 0 0-1.5 0 1.5 1.5 0 0 1-1.5 1.5.75.75 0 0 0 0 1.5 1.5 1.5 0 0 1 1.5 1.5.75.75 0 0 0 1.5 0 1.5 1.5 0 0 1 1.5-1.5.75.75 0 0 0 0-1.5z" class="cls-1"/></g></svg>