<svg xmlns="http://www.w3.org/2000/svg" viewBox="0 0 24 24"><path d="M4.5 3.5a1 1 0 0 1 1 1 .5.5 0 0 0 1 0 1 1 0 0 1 1-1 .5.5 0 0 0 0-1 1 1 0 0 1-1-1 .5.5 0 0 0-1 0 1 1 0 0 1-1 1 .5.5 0 0 0 0 1zM22.854 3.755C21.649 2.55 20.117 2.009 18.5 2.009c-.68 0-1.339.113-1.961.322l1.32 2.767a.5.5 0 0 1-.903.431l-1.339-2.806a6.896 6.896 0 0 0-1.454 1.016.499.499 0 0 0-.117.58l2.171 4.69h4.565l2.171-4.69a.501.501 0 0 0-.1-.564zM17 20.513c.004.456.203.804.471 1.072.128.128.277.24.461.315.183.075.372.101.568.101a1.43 1.43 0 0 0 1.065-.447c.305-.305.432-.732.435-1.041l.476-10.505h-3.957L17 20.512zM9.5 6.5a1 1 0 0 1 1 1 .5.5 0 0 0 1 0 1 1 0 0 1 1-1 .5.5 0 0 0 0-1 1 1 0 0 1-1-1 .5.5 0 0 0-1 0 1 1 0 0 1-1 1 .5.5 0 0 0 0 1z" class="cls-2"/><circle cx="5" cy="14" r="1" class="cls-1"/><circle cx="10" cy="14" r="1" class="cls-1"/><circle cx="10" cy="19" r="1" class="cls-1"/><circle cx="5" cy="19" r="1" class="cls-1"/><path d="M12.5 10.001h-10a1.5 1.5 0 0 0-1.5 1.5v10a1.5 1.5 0 0 0 1.5 1.5h10a1.5 1.5 0 0 0 1.5-1.5v-10a1.5 1.5 0 0 0-1.5-1.5zM5 21a2 2 0 1 1-.001-3.999A2 2 0 0 1 5 21zm0-5a2 2 0 1 1-.001-3.999A2 2 0 0 1 5 16zm5 5a2 2 0 1 1-.001-3.999A2 2 0 0 1 10 21zm0-5a2 2 0 1 1-.001-3.999A2 2 0 0 1 10 16z" class="cls-2"/></svg>