<svg xmlns="http://www.w3.org/2000/svg" viewBox="0 0 24 24"><path d="M21.502 2h-.432a.5.5 0 0 0-.5.49c-.058 2.948-1.563 5.923-3.571 7.899A2.5 2.5 0 0 0 14.501 8h-5a2.502 2.502 0 0 0-2.498 2.389C4.996 8.413 3.49 5.438 3.432 2.49a.5.5 0 0 0-.5-.49H2.5a.5.5 0 0 0-.5.5v8.497c0 1.637.553 2.731 1.167 3.729l.016.024 4.908 7.036a.501.501 0 0 0 .41.214h6.909a.501.501 0 0 0 .408-.211l5.154-7.26a.422.422 0 0 0 .023-.035c.459-.778 1.007-1.868 1.007-3.498V2.5a.5.5 0 0 0-.5-.5zm-7.815 10.942c-.548.287-1.117.431-1.692.431s-1.15-.142-1.718-.426a.5.5 0 0 1 .447-.895c.853.426 1.692.426 2.498.005a.5.5 0 0 1 .465.885z" class="cls-1"/></svg>