<svg xmlns="http://www.w3.org/2000/svg" data-name="Camada 1" viewBox="0 0 24 24"><path stroke-width="0" d="M16.238 10a6 6 0 1 0 0 12 6 6 0 0 0 0-12zm3.708 4.602l-4.44 4.631a.5.5 0 0 1-.357.154h-.004a.501.501 0 0 1-.356-.149l-2.253-2.287a.5.5 0 1 1 .713-.701l1.893 1.92 4.084-4.259a.501.501 0 0 1 .707-.016.501.501 0 0 1 .016.707z"/><path stroke-width="0" d="M9.238 16c0-3.86 3.141-7 7-7a6.98 6.98 0 0 1 4.935 2.041V3.594a.5.5 0 0 0-.392-.488l-9-2.001a.497.497 0 0 0-.217 0l-9 2a.5.5 0 0 0-.392.488v10c0 .045.006.09.018.134 1.28 4.604 7.711 9.366 9.482 9.366.356 0 .992-.255 1.763-.684-2.468-1.083-4.197-3.547-4.197-6.41z"/></svg>