<svg xmlns="http://www.w3.org/2000/svg" data-name="Camada 1" viewBox="0 0 24 24"><path stroke-width="0" d="M18.567 7.553a.5.5 0 0 0-.5-.46H15.54v-.82a3.541 3.541 0 0 0-1.77-3.066 3.501 3.501 0 0 0-1.825-.479C10.12 2.76 8.46 4.229 8.46 6.273v.82H5.927c-.261 0-.479.2-.5.46l-.93 12.07v.11a1.5 1.5 0 0 0 1.5 1.54h12.11a1.52 1.52 0 0 0 1.39-1.66l-.93-12.06zm-4.067-.46H9.467V9.85a.5.5 0 0 1-1 0V7.093h.994v-.82c0-1.14.382-1.93 1.433-2.372a2.85 2.85 0 0 1 1.337-.213c1.318.109 2.453 1.13 2.27 2.585v.82zm.516 3.257a.5.5 0 0 1-.5-.5V7.093h1V9.85a.5.5 0 0 1-.5.5z"/></svg>