<svg xmlns="http://www.w3.org/2000/svg" data-name="Camada 1" viewBox="0 0 24 24"><path d="M22.476 9.6a.5.5 0 0 0-.403-.34l-6.65-.966-2.974-6.024c-.004-.007-.012-.01-.016-.017a.495.495 0 0 0-.318-.249.5.5 0 0 0-.562.266L8.579 8.294l-6.65.966a.5.5 0 0 0-.278.852l4.812 4.691-1.136 6.622a.5.5 0 0 0 .725.527L12 18.826l5.947 3.126a.5.5 0 0 0 .725-.527l-1.136-6.622 4.812-4.691a.498.498 0 0 0 .127-.512zm-5.825 4.67a.503.503 0 0 0-.145.443l1.009 5.883-5.016-2.636V4.633l2.142 4.339c.072.147.214.25.376.273l5.908.858-4.274 4.167z"/></svg>