<svg xmlns="http://www.w3.org/2000/svg" version="1.0" viewBox="0 0 24 24"><path d="M14.5 4.3c-.1-.1-.3-.1-.5-.1h-3v3c2.3.3 4 2.3 4 4.6v.3c0 .3-.2.5-.5.5h-.1c-.9-.2-3.5-.7-7.9-2h-.1c-.3-.1-.4-.4-.3-.6.7-1.6 2.2-2.7 4-2.8v-3H8.5c-.3.1-.5-.2-.5-.4s.2-.5.5-.5H14c.2 0 .6 0 .9.2.4.2.7.5 1 1.1.1.2 0 .5-.2.7-.2.1-.5 0-.7-.2-.2-.6-.4-.7-.5-.8zM18.1 5.9l.4-.4.4.4.1.1.2.2c.2.2.4.4.6.7.4.6.8 1.4.8 2.3 0 .5-.2 1-.6 1.4-.4.4-.9.6-1.4.6s-1-.2-1.4-.6c-.4-.4-.6-.9-.6-1.4 0-.9.4-1.8.8-2.3.2-.3.4-.6.6-.7 0-.1 0-.2.1-.3 0 .1 0 0 0 0zM6.6 13.2l-1.3 6.2H3c-.1 0-.3-.1-.4-.1-.1-.1-.1-.2-.1-.4v-6.2c0-.1 0-.2.1-.2 0-.1.1-.1.1-.2s.1-.1.2-.1h.2l3.5 1zM21.1 16.6c.2.2.3.4.3.7v.3c-.1.1-.1.2-.2.2l-6.3 2.6c-.6.2-1.2.4-1.9.4-.6 0-1.2-.1-1.7-.3l-4.8-1.8 1-5.1c1.2-.3 2.5-.2 3.7.3.7.3 1.5.6 2.2.9h.1l1.4.4c.7.2.9 1 .4 1.5-.3.2-.7.3-1.1.3-.4-.1-1-.1-1.5-.2s-1.1-.2-1.6-.4c-.2-.1-.5-.1-.6-.2h-.2c-.3-.1-.5.1-.6.3-.1.3 0 .5.3.6 0 0 .1 0 .2.1.2 0 .4.1.6.2.5.1 1.1.3 1.6.4.5.1 1.1.2 1.6.2.7.1 1.4-.2 1.9-.7.3-.3.5-.7.6-1.2 1.2-.3 2.9-.6 4 0 .3.1.5.3.6.5z"/></svg>