<svg xmlns="http://www.w3.org/2000/svg" viewBox="0 0 24 24"><path d="M10.729 20.493a5.5 5.5 0 1 1 4.231-9.31 6.512 6.512 0 0 1 3.072-.001 8.03 8.03 0 0 0-4.147-3.646c.973-.151 1.855-.376 2.598-.661.712-.273 1.323-.61 1.764-1.01.441-.4.754-.903.754-1.49s-.312-1.09-.754-1.49c-.441-.4-1.052-.737-1.764-1.01C15.055 1.328 13.117 1 11.001 1s-4.055.328-5.482.875c-.712.273-1.323.61-1.764 1.01-.441.4-.754.903-.754 1.49s.312 1.09.754 1.49c.441.4 1.052.737 1.764 1.01.743.285 1.625.51 2.598.661a8.002 8.002 0 0 0 4.633 15.272 6.529 6.529 0 0 1-2.019-2.315z"/><circle cx="16.5" cy="17.5" r="5.5"/><path d="M13.886 11.547a4.5 4.5 0 1 0-3.59 7.898 6.502 6.502 0 0 1 3.59-7.898z"/></svg>