<svg xmlns="http://www.w3.org/2000/svg" viewBox="0 0 24 24"><defs><style>.cls-1{fill:#363636}</style></defs><g id="Camada_1"><path d="M11 9h2v9h-2zM16 6h2v12h-2z" class="cls-1"/><path fill-rule="evenodd" d="M19.5 2h-15A2.5 2.5 0 0 0 2 4.5v15A2.5 2.5 0 0 0 4.5 22h15a2.5 2.5 0 0 0 2.5-2.5v-15A2.5 2.5 0 0 0 19.5 2zM9 18.5a.5.5 0 0 1-.5.5h-3a.5.5 0 0 1-.5-.5v-6a.5.5 0 0 1 .5-.5h3a.5.5 0 0 1 .5.5v6zm5 0a.5.5 0 0 1-.5.5h-3a.5.5 0 0 1-.5-.5v-10a.5.5 0 0 1 .5-.5h3a.5.5 0 0 1 .5.5v10zm5 0a.5.5 0 0 1-.5.5h-3a.5.5 0 0 1-.5-.5v-13a.5.5 0 0 1 .5-.5h3a.5.5 0 0 1 .5.5v13z"/></g></svg>