<svg xmlns="http://www.w3.org/2000/svg" viewBox="0 0 24 24"><path d="M15 3.083V3a2 2 0 0 0-2-2h-2a2 2 0 0 0-2 2v.083A6.001 6.001 0 0 0 4 9v12a1.999 1.999 0 0 0 2 2h12a1.997 1.997 0 0 0 2-2V9a6.001 6.001 0 0 0-5-5.917zM11 2h2a1 1 0 0 1 1 1h-4a1 1 0 0 1 1-1zm7 17a2 2 0 0 1-2 2H8a2 2 0 0 1-2-2v-2a4 4 0 0 1 4-4h4a4 4 0 0 1 4 4v2zM3 12.535A3.998 3.998 0 0 0 1 16v4a2 2 0 0 0 2 2h.171A2.983 2.983 0 0 1 3 21v-8.465zM21 12.535V21c0 .351-.06.687-.171 1H21a2 2 0 0 0 2-2v-4a3.998 3.998 0 0 0-2-3.465z"/></svg>