<svg xmlns="http://www.w3.org/2000/svg" viewBox="0 0 24 24"><path d="M10 3h3.083c.243 0 .476-.097.648-.268s.268-.488.268-.732-.097-.56-.268-.732S13.326 1 13.083 1H5.916A.916.916 0 0 0 5 1.916v3.083h5v-2zM10 17.5v-3a1.503 1.503 0 0 1 1.5-1.5c.867 0 1.715.173 2.5.5V8.944a.954.954 0 0 0-.272-.668.921.921 0 0 0-.657-.277H11V6.943a.954.954 0 0 0-.272-.668.921.921 0 0 0-.657-.277H4.928c-.246 0-.482.099-.657.277s-.272.417-.272.668v1.056h-2.07c-.246 0-.482.099-.657.277S1 8.693 1 8.944v13.111c0 .25.098.491.272.668.174.177.41.277.657.277h11.107A6.5 6.5 0 0 1 10 17.5z" class="cls-1"/><path d="M22.854 12.146A.5.5 0 0 0 22.5 12a6.5 6.5 0 0 0-6.252 4.723A5.52 5.52 0 0 0 14 14.601 5.506 5.506 0 0 0 11.5 14a.498.498 0 0 0-.5.5v3a5.5 5.5 0 0 0 5.5 5.5 6.5 6.5 0 0 0 6.5-6.5v-4a.504.504 0 0 0-.146-.354zM14.752 7.514c.384.305.864.479 1.247.476.424.005.911-.163 1.295-.482.4-.332.706-.842.706-1.509 0-.363-.132-.727-.287-1.036a5.978 5.978 0 0 0-.563-.889 9.712 9.712 0 0 0-.724-.853l-.052-.054-.015-.015-.004-.004-.002-.002a.5.5 0 0 0-.708 0l-.002.002-.004.004-.015.015-.052.054a9.969 9.969 0 0 0-.724.853 5.978 5.978 0 0 0-.563.889c-.155.31-.287.673-.287 1.036 0 .686.349 1.194.752 1.514z" class="cls-1"/></svg>