<svg xmlns="http://www.w3.org/2000/svg" viewBox="0 0 24 24"><path d="M18.362 9.231l3.911-3.928a2.501 2.501 0 0 0 .116-3.404l-.037-.042a2.5 2.5 0 0 0-3.655-.128l-3.918 3.919 3.583 3.583zM15.763 15.505a.5.5 0 0 0 .474-.342l1.661-4.983-4.019-4.019-4.982 1.661a.5.5 0 0 0-.342.474 7.207 7.207 0 0 0 7.208 7.208z"/><path d="M21.977 8.69a.5.5 0 0 0-.347.616 10 10 0 1 1-6.937-6.936.5.5 0 0 0 .269-.963A11 11 0 0 0 1.09 13.406a10.996 10.996 0 0 0 9.504 9.504A11 11 0 0 0 22.593 9.037a.5.5 0 0 0-.616-.347z"/><path d="M4.889 8.346a7.985 7.985 0 0 0-.36 6.513 7.986 7.986 0 0 0 4.612 4.612 8 8 0 0 0 6.513-.36 7.992 7.992 0 0 0 2.581-2.112H16a9.012 9.012 0 0 1-9-9V5.764a7.99 7.99 0 0 0-2.111 2.581z"/></svg>