<svg xmlns="http://www.w3.org/2000/svg" viewBox="0 0 24 24"><defs><style>.cls-1{fill:#363636}</style></defs><g id="Camada_1"><path d="M4.5 2.5a1 1 0 0 1-1-1 .5.5 0 0 0-1 0 1 1 0 0 1-1 1 .5.5 0 0 0 0 1 1 1 0 0 1 1 1 .5.5 0 0 0 1 0 1 1 0 0 1 1-1 .5.5 0 0 0 0-1zM14 1.5a.5.5 0 0 0-.5-.5h-6a.5.5 0 0 0-.5.5V4h7V1.5zM13.5 17c-.175 0-.344-.03-.5-.085V18.5a.5.5 0 0 1-.5.5h-4a.5.5 0 0 1-.5-.5v-9a.5.5 0 0 1 .5-.5h4a.5.5 0 0 1 .5.5v4.585c.156-.055.325-.085.5-.085a2.5 2.5 0 0 0 2.5-2.5v-6a.5.5 0 0 0-.5-.5h-10a.5.5 0 0 0-.5.5v14A3.5 3.5 0 0 0 8.5 23h4a3.5 3.5 0 0 0 3.5-3.5 2.5 2.5 0 0 0-2.5-2.5zM22.5 7.5a1 1 0 0 1-1-1 .5.5 0 0 0-1 0 1 1 0 0 1-1 1 .5.5 0 0 0 0 1 1 1 0 0 1 1 1 .5.5 0 0 0 1 0 1 1 0 0 1 1-1 .5.5 0 0 0 0-1z" class="cls-1"/><path d="M21.5 15a3.5 3.5 0 0 1-3.5-3.5.5.5 0 0 0-1 0 3.5 3.5 0 0 1-3.5 3.5.5.5 0 0 0 0 1 3.5 3.5 0 0 1 3.5 3.5.5.5 0 0 0 1 0 3.5 3.5 0 0 1 3.5-3.5.5.5 0 0 0 0-1zM9 10h3v8H9z" class="cls-1"/></g></svg>