<svg xmlns="http://www.w3.org/2000/svg" viewBox="0 0 24 24"><defs><style>.cls-1{fill:#363636}</style></defs><g id="Camada_1"><circle cx="12.5" cy="3.5" r="2.5" class="cls-1"/><path d="M17.349 16.833a4.477 4.477 0 0 0-1.544-6.178l-.44-1.76A2.502 2.502 0 0 0 12.939 7h-1.2c-.949 0-1.814.536-2.239 1.383l-.999 1.999a1.5 1.5 0 0 0 .495 1.91l3.027 1.514a1 1 0 0 1-.895 1.789l-2.127-1.063-.991 4.87a.5.5 0 0 0 .49.6H11v2.5a.5.5 0 0 0 .5.5h1a.5.5 0 0 0 .474-.342l.886-2.658h3.64a.5.5 0 0 0 .485-.621l-.637-2.546z" class="cls-1"/></g></svg>