<svg xmlns="http://www.w3.org/2000/svg" viewBox="0 0 24 24"><path d="M11.545 1.293l-2.5 5.5a.501.501 0 0 0-.033.102L9 7v10a.5.5 0 0 0 .045.207l2.5 5.5s.021.046.055.111l-5.416-4.431A.5.5 0 0 1 6 18V6l.013-.11a.5.5 0 0 1 .17-.277l5.407-4.425-.045.105zM17.816 5.613A.5.5 0 0 1 18 6v12a.5.5 0 0 1-.184.387L12.4 22.818l.056-.111 2.5-5.5A.501.501 0 0 0 15 17V7a.501.501 0 0 0-.045-.207l-2.5-5.5-.046-.104 5.407 4.424z"/><path d="M12 21.291L10.276 17.5h3.448L12 21.291zM14 16.5h-4v-9h4v9zM13.724 6.5h-3.448L12 2.708 13.724 6.5z"/></svg>