<svg xmlns="http://www.w3.org/2000/svg" viewBox="0 0 24 24"><path fill-rule="evenodd" d="M1.5 4a.5.5 0 0 0-.5.5v5a.5.5 0 0 0 .5.5 2.5 2.5 0 1 1 0 5 .5.5 0 0 0-.5.5v5a.5.5 0 0 0 .5.5h21a.5.5 0 0 0 .5-.5v-5a.5.5 0 0 0-.5-.5 2.5 2.5 0 1 1 0-5 .5.5 0 0 0 .5-.5v-5a.5.5 0 0 0-.5-.5h-21zm14.355 6.816a.45.45 0 0 1 .021.638l-1.64 1.677.387 2.368a.444.444 0 0 1-.232.462.385.385 0 0 1-.363-.01L12 14.833l-2.029 1.114a.386.386 0 0 1-.431-.033.448.448 0 0 1-.164-.416l.389-2.368-1.64-1.677a.43.43 0 0 1-.112-.205.435.435 0 0 1 .134-.432.397.397 0 0 1 .206-.096l2.266-.344 1.015-2.15a.432.432 0 0 1 .156-.164.413.413 0 0 1 .582.164l1.015 2.15 2.266.344a.401.401 0 0 1 .204.098z"/></svg>