<svg xmlns="http://www.w3.org/2000/svg" viewBox="0 0 24 24"><path d="M20.492 6.124l.5-4a1.001 1.001 0 0 0-1.116-1.116l-4 .5a.999.999 0 1 0 .248 1.984l.865-.108c-.298.258-.622.537-.964.827-1.607 1.364-3.568 2.955-5.077 3.955-1.704 1.129-3.792 2.277-5.468 3.149a100.917 100.917 0 0 1-2.686 1.345l-.161.077-.041.019-.013.006a1 1 0 1 0 .852 1.81l-.426-.905.426.905.016-.008.044-.021.168-.08a96.11 96.11 0 0 0 2.744-1.375c1.697-.883 3.858-2.069 5.65-3.256 1.617-1.071 3.656-2.73 5.267-4.098.495-.42.953-.816 1.351-1.164l-.163 1.304a1 1 0 1 0 1.984.248zM20.5 9a1.5 1.5 0 0 0-1.5 1.5V23h3V10.5A1.5 1.5 0 0 0 20.5 9zM16.5 11a1.5 1.5 0 0 0-1.5 1.5V23h3V12.5a1.5 1.5 0 0 0-1.5-1.5zM8.5 15A1.5 1.5 0 0 0 7 16.5V23h3v-6.5A1.5 1.5 0 0 0 8.5 15zM4.5 17A1.5 1.5 0 0 0 3 18.5V23h3v-4.5A1.5 1.5 0 0 0 4.5 17zM12.5 13a1.5 1.5 0 0 0-1.5 1.5V23h3v-8.5a1.5 1.5 0 0 0-1.5-1.5z"/></svg>