<svg xmlns="http://www.w3.org/2000/svg" viewBox="0 0 24 24"><path d="M11.292 6.585L5.854 1.146a.5.5 0 0 0-.707 0l-4.001 4a.5.5 0 0 0 0 .707l5.439 5.439 4.707-4.707zM22.145 6.439l-3.586-3.586a1.5 1.5 0 0 0-2.121 0l-1.939 1.939 2.354 2.354a.5.5 0 0 1-.707.707l-2.354-2.354-2.293 2.293 1.354 1.354a.5.5 0 0 1-.707.707l-1.354-1.354-2.293 2.293 2.354 2.354a.5.5 0 0 1-.707.707l-2.354-2.354-2.293 2.293 1.354 1.354a.5.5 0 0 1-.707.707l-1.354-1.354-1.94 1.94a1.5 1.5 0 0 0 0 2.121l3.586 3.586a1.5 1.5 0 0 0 2.121 0L22.145 8.56a1.5 1.5 0 0 0 0-2.121zM21.99 17.402a.491.491 0 0 0-.137-.255l-3.441-3.441-4.706 4.708 3.44 3.44c.07.07.159.117.255.137l5 1a.499.499 0 0 0 .589-.589l-1-5z" class="cls-1"/></svg>