<svg xmlns="http://www.w3.org/2000/svg" viewBox="0 0 24 24"><path d="M19.8 16.9s-.1-.1-.1-.2l-1-2.5c-.4-1-.8-2-1.3-3-.1-.2-.2-.4-.4-.6-.2-.2-.5-.4-.7-.5-.5-.2-1-.3-1.5-.4V4.5c0-.6-.5-1.2-1.2-1.2H6.9c-.7 0-1.2.5-1.2 1.2v5h-.6c-.6.2-1 .7-1 1.3 0 .5.2.9.5 1.2-.2.2-.3.5-.3.8 0 .5.2.9.4 1.1-.2.2-.3.5-.3.8 0 .6.3 1 .6 1.2-.3.2-.5.5-.5.9 0 .5.2.8.4 1 .2.2 0 0 0 0 .1.2.3.3.5.3h.3v.6c0 .6.5 1.2 1.2 1.2h6.7c.3 0 .5-.1.7-.3.8.6 1.6.9 2.6 1.1h.2c2.1.1 3.4-1.9 2.7-3.8zM11 18.4H9.6c-.3 0-.5-.2-.5-.5s.2-.5.5-.5H11c.3 0 .5.2.5.5s-.2.5-.5.5zm-4.3-2.6v-.2-.1-9.1h7.1v3.1c-.6-.1-1.2-.2-1.8-.4-.4-.1-.8-.1-1.2 0-.5.3-.8.8-.7 1.4.1.5.4.9.8 1.1.3.2.7.3 1 .5l1.8.6v3h-7z"/></svg>