<svg xmlns="http://www.w3.org/2000/svg" viewBox="0 0 24 24"><g clip-path="url(#clip0_855_12671)"><path d="M20.399 3.49C18.217 1.2 15.163 0 11.889 0 5.345 0 0 5.455 0 12c0 6.654 5.455 12 12 12h.11c6.654 0 12-5.454 11.89-12.11 0-3.163-1.31-6.217-3.6-8.4zm-1.418 3.6L11.89 17.237l-.327.328c-.328.218-.655.327-.982.327-.436 0-.764-.218-1.091-.436l-4.364-4.582a.527.527 0 0 1 0-.764.527.527 0 0 1 .764 0l4.364 4.582c.218.109.436.109.654 0l7.2-10.146c.218-.218.546-.218.764-.109.218.11.218.437.109.655z"/></g><defs><clipPath id="clip0_855_12671"><path d="M0 0h24v24H0z"/></clipPath></defs></svg>