<svg xmlns="http://www.w3.org/2000/svg" viewBox="0 0 24 24"><path d="M12 2.5a.5.5 0 0 0-.5-.5h-6a.5.5 0 0 0-.5.5v2h7v-2zM8 16.5v-3A1.503 1.503 0 0 1 9.5 12a6.5 6.5 0 0 1 4.481 1.792l.019-.033V5.5a.5.5 0 0 0-.5-.5h-10a.5.5 0 0 0-.5.5v13A3.5 3.5 0 0 0 6.5 22h4.536A6.5 6.5 0 0 1 8 16.5z" class="cls-1"/><path d="M20.854 11.146A.5.5 0 0 0 20.5 11a6.5 6.5 0 0 0-6.252 4.723A5.5 5.5 0 0 0 9.5 13a.5.5 0 0 0-.5.5v3a5.496 5.496 0 0 0 5.5 5.5 6.5 6.5 0 0 0 6.5-6.5v-4a.504.504 0 0 0-.146-.354z" class="cls-1"/></svg>