<svg xmlns="http://www.w3.org/2000/svg" viewBox="0 0 24 24"><path d="M13.103 4.205l-.243 1.48a.276.276 0 0 0 .102.26c.038.03.084.048.132.051a.238.238 0 0 0 .138-.031l1.268-.696 1.268.699a.238.238 0 0 0 .119.031.255.255 0 0 0 .247-.198.267.267 0 0 0 .005-.116l-.242-1.48 1.025-1.048c.034-.035.059-.08.07-.128s.01-.1-.005-.148c-.015-.048-.042-.09-.078-.122s-.08-.054-.127-.061l-1.416-.215-.634-1.344a.265.265 0 0 0-.23-.14.25.25 0 0 0-.133.038.271.271 0 0 0-.097.102l-.634 1.344-1.416.215a.25.25 0 0 0-.128.06.276.276 0 0 0-.014.398l1.025 1.048zM20.453 9.288a.502.502 0 0 0-.331-.273l-6.648-1.662a3.506 3.506 0 0 1-.263.965l4.942 1.236L12 11.477 5.847 9.554l1.481-.37a3.497 3.497 0 0 1-.551-.893l-2.899.725a.503.503 0 0 0-.326.262l-1.5 3a.5.5 0 0 0 .272.691l8 3a.502.502 0 0 0 .635-.271l1.04-2.428 1.04 2.428a.5.5 0 0 0 .635.271l8-3a.503.503 0 0 0 .29-.285c.007-.016.012-.033.017-.05a.495.495 0 0 0-.035-.356l-1.494-2.989z" class="cls-1"/><path d="M8.882 7.564l-.194 1.184a.22.22 0 0 0 .082.208.196.196 0 0 0 .216.016l1.015-.557 1.014.559a.198.198 0 0 0 .181.005.2.2 0 0 0 .07-.056.226.226 0 0 0 .045-.175l-.194-1.184.82-.839a.221.221 0 0 0 .052-.221.22.22 0 0 0-.062-.098.199.199 0 0 0-.102-.049l-1.133-.172-.507-1.075a.227.227 0 0 0-.078-.082.204.204 0 0 0-.214 0 .22.22 0 0 0-.078.082l-.507 1.075-1.133.172a.204.204 0 0 0-.166.146.225.225 0 0 0 .052.221l.82.839z" class="cls-1"/><circle cx="2" cy="7" r="1" class="cls-1"/><circle cx="22" cy="2" r="1" class="cls-1"/><path d="M21.5 5.5a1 1 0 0 1-1-1 .5.5 0 0 0-1 0 1 1 0 0 1-1 1 .5.5 0 0 0 0 1 1 1 0 0 1 1 1 .5.5 0 0 0 1 0 1 1 0 0 1 1-1 .5.5 0 0 0 0-1zM3.5 3.5a1 1 0 0 1 1 1 .5.5 0 0 0 1 0 1 1 0 0 1 1-1 .5.5 0 0 0 0-1 1 1 0 0 1-1-1 .5.5 0 0 0-1 0 1 1 0 0 1-1 1 .5.5 0 0 0 0 1zM12.5 16.618V21.5a.5.5 0 0 1-1 0v-4.882a1.5 1.5 0 0 1-1.527.286L4 14.664V19.5a.5.5 0 0 0 .314.464l7.5 3a.502.502 0 0 0 .377-.002l7.495-2.998A.5.5 0 0 0 20 19.5v-4.836l-5.973 2.24a1.5 1.5 0 0 1-1.527-.286z" class="cls-1"/></svg>