<svg xmlns="http://www.w3.org/2000/svg" viewBox="0 0 24 24"><defs><style>.cls-1{fill:#363636;fill-rule:evenodd}</style></defs><g id="Camada_1"><path d="M11.015 8.426l2.14 1.319a.5.5 0 0 0 .761-.454c-.114-2.006.149-3.914.443-5.327a22.15 22.15 0 0 1 .418-1.682c.058-.2.107-.355.142-.46l.039-.117.01-.029.002-.006a.5.5 0 0 0-.907-.414l-.006.01-.016.028-.06.108a87.108 87.108 0 0 0-1 1.873 73.957 73.957 0 0 0-2.165 4.529.5.5 0 0 0 .197.624zM10.12 9.574l-.101.207-.019.044c-.573 1.545-1.001 3.057-1.001 4.174a3 3 0 1 0 6 0 .495.495 0 0 0-.045-.207l-.206-.446c-.293-.628-.534-1.145-.665-1.778a.502.502 0 0 0-.226-.324l-3.024-1.878a.5.5 0 0 0-.714.206zM8.723 8.416a.5.5 0 1 0 .554-.832l-1.5-1a.5.5 0 1 0-.554.832l1.5 1zM7.158 10.474l1.5-.5a.499.499 0 1 0-.316-.948l-1.5.5a.499.499 0 1 0 .316.948zM9.526 6.658a.499.499 0 1 0 .948-.316l-.5-1.5a.499.499 0 1 0-.948.316l.5 1.5z" class="cls-1"/><path d="M21.5 15H23v-1.5a.5.5 0 0 0-.5-.5h-6a.5.5 0 0 0-.5.5c0 2.758-1.824 4.5-4 4.5s-4-1.742-4-4.5a.5.5 0 0 0-.5-.5h-6a.5.5 0 0 0-.5.5V15h1.5a.5.5 0 0 1 0 1H1v2h1.5a.5.5 0 0 1 0 1H1v3.5a.5.5 0 0 0 .5.5h21a.5.5 0 0 0 .5-.5V19h-1.5a.5.5 0 0 1 0-1H23v-2h-1.5a.5.5 0 0 1 0-1zm-17 1h1a.5.5 0 0 1 0 1h-1a.5.5 0 0 1 0-1zm0 5h-1a.5.5 0 0 1 0-1h1a.5.5 0 0 1 0 1zm2-2h-1a.5.5 0 0 1 0-1h1a.5.5 0 0 1 0 1zm3 2h-1a.5.5 0 0 1 0-1h1a.5.5 0 0 1 0 1zm5 0h-1a.5.5 0 0 1 0-1h1a.5.5 0 0 1 0 1zm3-2h-1a.5.5 0 0 1 0-1h1a.5.5 0 0 1 0 1zm2 2h-1a.5.5 0 0 1 0-1h1a.5.5 0 0 1 0 1zm0-4h-1a.5.5 0 0 1 0-1h1a.5.5 0 0 1 0 1z" class="cls-1"/></g></svg>