<svg xmlns="http://www.w3.org/2000/svg" viewBox="0 0 24 24"><defs><style>.cls-1{fill:#363636}</style></defs><g id="Camada_1"><path d="M22.99 12.203l-.007-.005-.824-.567-.064-.045-.063-.047-.062-.049-.061-.051-.061-.052-.06-.054-.06-.056-.059-.057-.058-.059-.058-.06-.058-.062-.057-.063-.057-.065-.056-.066-.056-.067-.056-.068-.056-.07-.055-.071-.055-.072-.053-.07-.002-.003-.053-.071-.002-.003-.053-.072-.002-.003-.053-.073-.002-.002-.053-.074-.002-.002-.053-.074v-.002l-.054-.075v-.002l-.054-.076v-.002l-.054-.076-.053-.078-.053-.079-.053-.078-.053-.079-.316-.47-.052-.077-.053-.078-.051-.075-.051-.075-.051-.075v-.002l-.051-.072v-.002l-.051-.071v-.002l-.051-.07-.002-.002-.049-.069-.002-.002-.049-.067-.002-.003-.049-.066-.002-.003-.048-.064-.002-.003-.048-.063-.003-.003-.047-.061-.003-.004-.047-.059-.003-.004-.046-.058-.003-.004-.047-.058-.049-.058-.049-.056-.048-.055-.048-.052-.047-.051-.047-.049-.047-.046-.046-.044-.045-.042-.045-.04-.044-.038-.044-.035-.043-.033-.042-.031-.041-.028-.04-.026-.039-.024-.038-.022-.037-.019-.036-.017-.035-.015-.034-.013-.033-.011-.032-.01-.031-.008-.031-.006-.03-.005-.03-.003-.029-.002h-.058l-.029.002-.03.004-.03.005-.031.007-.032.008-.033.01-.034.012-.035.014-.036.016-.036.018-.038.02-.039.022-.039.024-.041.027-.041.029-.042.031-.043.034-.044.036-.044.038-.045.041-.046.043-.046.045-.047.047-.047.049-.048.051-.048.053-.048.055-.049.057-.049.059-.049.06-.049.062-.05.063-.05.065-.049.065-.002.003-.048.065-.002.003-.049.066-.002.003-.049.068-.002.002-.049.069-.002.002-.05.07v.002l-.051.071V8.6l-.052.073-.052.075-.051.076-.052.077-.051.076-.157.234-.158.236-.106.157-.054.08-.053.077-.053.078-.053.078v.002l-.054.076v.002l-.054.075v.002l-.054.074-.002.002-.054.076-.055.075-.055.074-.055.073-.055.073-.055.072-.056.071-.056.069-.056.069-.057.067-.057.066-.057.065-.058.063-.058.062-.059.061-.059.059-.06.057-.06.056-.061.054-.061.052-.062.05-.063.049-.064.047-.053.036-.012.008-.053.034-.013.008-.053.032-.014.008-.053.03-.015.008-.053.027-.007.004-.008.004-.053.025-.012.006-.005.002-.053.023-.009.004-.009.004-.053.02-.019.007-.053.018-.02.006-.053.016-.021.006-.053.013-.021.005-.053.011-.022.004-.053.008-.023.003-.053.006h-.011l-.013.002-.053.003-.023.001h-.076L12.635 12l-.023-.001-.053-.004-.023-.002-.053-.007h-.009l-.013-.003-.053-.009-.022-.004-.053-.011-.021-.005-.053-.014-.021-.006-.053-.016a.159.159 0 0 1-.02-.007l-.053-.019-.019-.007-.053-.021-.009-.003-.009-.004-.053-.023-.009-.004-.007-.004-.053-.026-.016-.008-.053-.028-.014-.008-.053-.03-.013-.008-.053-.033-.013-.008-.053-.035-.012-.008-.064-.045-.063-.047-.062-.049-.061-.051-.061-.052-.06-.054-.059-.056-.059-.057-.058-.059-.058-.06-.057-.062-.057-.063-.057-.065-.056-.066-.056-.067-.056-.068-.056-.07-.055-.071-.055-.072-.055-.073-.055-.073-.055-.074-.054-.075-.053-.074-.002-.002-.053-.074v-.002l-.054-.075v-.002l-.054-.076v-.002l-.054-.076-.053-.078-.053-.079-.053-.079-.317-.472-.104-.155-.052-.077-.051-.076-.051-.076-.051-.075v-.002l-.051-.072v-.002l-.051-.071v-.002l-.051-.07-.002-.002-.049-.069-.002-.002-.049-.067-.002-.003-.049-.066-.002-.003-.048-.064-.051-.068-.05-.065-.05-.063-.049-.062-.049-.06-.049-.058-.049-.056-.048-.054-.048-.053-.047-.051-.047-.049-.046-.046-.046-.044-.045-.042-.045-.04-.044-.038-.043-.035-.043-.033-.042-.031-.041-.029-.04-.026-.039-.024-.038-.022-.037-.019-.036-.017-.035-.015-.034-.013-.033-.011-.032-.01-.032-.008-.031-.006-.03-.005-.03-.003-.029-.002h-.058l-.029.002-.03.004-.03.005-.031.007-.032.008-.033.01-.034.012-.035.014-.036.016-.037.018-.038.02-.039.022-.04.024-.04.027-.041.029-.042.031-.043.034-.044.036-.044.038-.045.04-.046.043-.046.045-.047.047-.047.049-.048.051-.048.053-.048.055-.049.057-.049.059-.049.06-.049.062-.05.063-.05.065-.05.066-.05.068-.051.069-.051.07-.05.07-.002.002-.05.07v.002l-.051.071v.002l-.052.073v.002l-.052.074-.051.076-.051.076-.052.077-.262.391-.159.236-.053.079-.053.078-.053.078-.054.079-.054.077-.054.077-.054.076-.054.076-.055.075-.055.074-.055.073-.055.073-.055.072-.056.071-.056.069-.056.069-.057.067-.057.066-.057.065-.058.063-.058.062-.059.061-.059.059-.06.057-.06.056-.061.054-.061.052-.062.05-.063.049-.064.047-.053.036-.012.008-.053.034-.013.008-.053.032-.014.008-.053.03-.015.008-.053.027-.016.008-.053.025-.017.008-.053.023a.134.134 0 0 1-.018.007l-.053.02-.019.007-.053.018-.02.006-.053.016-.021.006-.053.013-.021.005-.053.011-.022.004-.053.008-.023.003-.053.006-.023.002-.053.003-.023.001h-.076l-.053-.002-.023-.001-.053-.004-.023-.002-.053-.007c-.008 0-.015-.002-.023-.003l-.053-.009-.022-.004-.053-.011-.021-.005-.053-.014a.505.505 0 0 1-.02-.006l-.053-.016a.159.159 0 0 1-.02-.007l-.053-.019-.019-.007-.053-.021-.018-.007-.053-.023-.017-.008-.053-.026-.016-.008-.053-.028-.027-.015-.283-.174a10.952 10.952 0 0 0 1.191 5.427h.017l.029-.002.03-.003.03-.005.031-.006.032-.008.032-.01.033-.011.034-.013.035-.015.036-.017.037-.02.038-.022.039-.024.04-.026.041-.029.042-.031.043-.033.043-.035.044-.038.045-.04.045-.042.046-.044.047-.047.047-.048.047-.051.048-.053.048-.055.049-.056.049-.058.049-.06.049-.061.05-.063.05-.065.05-.066.05-.067.051-.069.051-.07.051-.071.051-.072.051-.073.052-.074.051-.074.051-.076.051-.076.051-.077.052-.077.369-.549.054-.08.053-.077.054-.079.054-.078.054-.077.054-.077.054-.077.054-.076.055-.075.055-.075.055-.074.055-.073.055-.072.056-.071.056-.07.056-.069.056-.068.057-.066.057-.065.058-.064.058-.062.058-.061.059-.059.059-.058.06-.056.061-.054.061-.053.062-.051.063-.049.064-.047.053-.037.012-.008.053-.035.013-.008.053-.033.014-.008.053-.03.015-.008.053-.028.006-.003.01-.005.053-.026.017-.008.053-.023.018-.007.053-.021a.107.107 0 0 1 .019-.007l.053-.019.02-.007.053-.016a.505.505 0 0 0 .02-.006l.053-.014.021-.005.053-.011.022-.004.053-.009.023-.003.053-.007.023-.002.053-.004.023-.001.053-.002h.076l.023.002.053.003.023.002.053.006c.008 0 .015.002.023.003l.053.008.022.004.053.011.021.005.053.013.021.006.053.016.009.003.011.004.053.018.019.007.053.02.018.007.053.023.017.008.053.025.016.008.053.027.015.008.053.03.014.008.053.032.013.008.053.034.012.008.064.044.063.047.062.048.061.05.061.052.06.054.06.055.059.057.059.059.058.06.058.062.057.063.057.064.057.066.056.067.056.068.056.069.055.07.055.071.055.072.055.073.055.074.054.075.054.076.054.076.054.077.054.077.054.078.053.078.053.078.053.078.106.158.315.469.052.077.051.076.051.076.051.075h.001l.05.074v.002l.051.072v.002l.051.07v.002l.051.069.002.002.049.068.002.003.049.066.002.003.048.065.051.068.05.065.05.063.049.062.049.06.049.058.049.057.048.055.048.053.048.051.047.049.047.047.046.045.046.043.045.041.044.038.044.036.043.034.042.031.041.029.04.027.04.025.039.022.038.02.037.018.036.016.034.014.034.012.033.01.032.008.031.007.03.005.03.004.029.002h.058l.029-.002.03-.003.03-.005.031-.006.032-.008.032-.01.033-.011.034-.013.035-.015.036-.017.037-.02.038-.022.039-.024.04-.026.041-.029.042-.031.043-.033.043-.035.044-.038.045-.04.045-.042.046-.044.046-.047.047-.048.047-.051.048-.053.048-.055.049-.056.049-.058.049-.06.049-.061.05-.063.05-.065.05-.066.049-.066.002-.003.049-.066.002-.003.049-.067.002-.002.049-.069.002-.002.05-.07v-.002l.051-.071v-.002l.052-.072v-.002l.052-.073.052-.077.051-.075.051-.077.105-.155.158-.235.159-.236.053-.078.053-.078.053-.078.053-.078v-.002l.054-.076v-.002l.054-.075v-.002l.054-.074v-.002l.056-.076.055-.075.055-.075.055-.074.055-.073.055-.072.056-.071.056-.07.056-.069.057-.068.057-.066.057-.065.058-.064.058-.062.059-.061.059-.059.059-.058.06-.056.061-.054.061-.053.062-.051.063-.049.063-.047.053-.037.012-.008.053-.035.013-.008.053-.033.014-.008.053-.03.015-.008.053-.028.016-.008.053-.026.008-.004.008-.004.053-.023.018-.007.053-.021a.107.107 0 0 1 .019-.007l.053-.019.005-.002.014-.005.053-.016a.505.505 0 0 0 .02-.006l.053-.014.021-.005.053-.011.01-.002.012-.002.053-.009.023-.003.053-.007.011-.001.012-.001.053-.004.023-.001.053-.002h.076l.023.002.053.003.023.002.053.006c.008 0 .015.002.023.003l.053.008.022.004.053.011.007.001.015.003.053.013.021.006.053.016.02.006.053.018.019.007.053.02.018.007.053.023.009.004a.03.03 0 0 1 .008.004l.053.025.016.008.053.027.015.008.053.03.014.008.053.032.013.008.053.034.012.008.064.044.063.047.062.048.061.05.061.052.06.054.06.055.059.057.059.059.058.06.058.062.057.063.057.064.057.066.056.067.056.068.056.069.055.07.055.071.055.072.055.073.055.074.054.075.054.076.054.076.054.077.054.077.054.078.054.078.053.078.053.078.053.079.316.471.052.077.052.077.052.076.051.076.051.075h.001l.05.074v.002l.051.072v.002l.051.07.002.002.049.069.002.002.049.068.002.003.049.066.002.003.048.065.002.003.048.063.003.003.047.062.003.004.047.06.003.004.046.058.003.004.048.058.049.059.049.057.003.003A10.96 10.96 0 0 0 23 12.204l-.008-.005z" class="cls-1"/><path d="M21.613 17.162l-.058-.06-.058-.062-.057-.063-.057-.065-.056-.066-.056-.067-.056-.068-.056-.07-.055-.071-.055-.072-.055-.073-.053-.071-.002-.003-.053-.072-.002-.003-.053-.073-.002-.002-.053-.074-.002-.002-.053-.074v-.002l-.054-.075v-.002l-.054-.076v-.002l-.054-.076-.053-.078-.053-.08-.053-.078-.053-.079-.316-.47-.052-.077-.053-.078-.051-.075-.051-.075-.051-.075v-.002l-.051-.072v-.002l-.051-.071v-.002l-.051-.07v-.002l-.051-.069-.002-.002-.049-.067-.002-.003-.049-.066-.002-.003-.048-.064-.002-.003-.048-.063-.003-.003-.047-.061-.003-.004-.047-.059-.003-.004-.046-.058-.003-.004-.047-.058-.049-.058-.049-.056-.048-.055-.048-.052-.048-.051-.047-.048-.047-.047-.046-.044-.045-.042-.045-.04-.044-.038-.044-.035-.043-.033-.042-.031-.041-.029-.04-.026-.039-.024-.038-.022-.037-.02-.036-.017-.035-.015-.034-.013-.033-.011-.032-.01-.032-.008-.031-.006-.03-.005-.03-.003-.029-.002h-.058l-.029.002-.03.004-.03.005-.031.007-.032.008-.033.01-.034.012-.035.014-.036.016-.036.018-.038.02-.039.022-.039.024-.04.027-.041.029-.042.031-.043.034-.044.036-.044.038-.045.041-.046.043-.046.045-.047.047-.047.049-.048.051-.048.053-.048.055-.049.057-.049.059-.049.06-.049.062-.05.064-.05.065-.049.065-.002.003-.048.065-.002.003-.049.066-.002.003-.049.068-.002.002-.049.069-.002.002-.05.07v.002l-.051.072v.002l-.052.073h-.001l-.051.075-.053.077-.052.076-.051.076-.157.234-.158.236-.106.157-.054.08-.053.077-.053.078h-.001l-.053.078v.002l-.054.076v.002l-.054.075v.002l-.054.074-.002.002-.054.076-.055.075-.055.074-.055.073-.055.073-.055.072-.056.071-.056.069-.056.069-.056.067-.057.066L14.5 17l-.058.063-.058.062-.059.061-.059.059-.06.057-.06.056-.061.054-.061.052-.062.05-.063.049-.064.047-.053.036-.012.008-.053.034-.013.008-.053.032-.014.008-.053.03-.015.008-.053.027-.016.008-.053.025-.01.005-.007.003-.053.023-.01.004-.008.003-.053.02-.009.003-.01.004-.053.018-.02.006-.053.016-.021.006-.053.013-.021.005-.053.011-.022.004-.053.008-.023.003-.053.006-.023.002-.053.003h-.1l-.053-.002h-.023l-.053-.004-.023-.002-.053-.007c-.008 0-.015-.002-.023-.003l-.053-.009-.022-.004-.053-.011-.009-.002-.013-.003-.053-.014-.021-.006-.053-.016a.159.159 0 0 1-.02-.007l-.053-.019-.019-.007-.053-.021-.018-.007-.053-.023-.017-.008-.053-.026-.016-.008-.053-.028-.014-.008-.053-.03-.013-.008-.053-.033-.013-.008-.053-.035-.012-.008-.064-.045-.063-.047-.062-.049-.061-.051-.061-.052-.06-.054-.06-.056-.059-.057-.058-.059-.058-.06-.058-.062-.057-.063-.057-.065-.056-.066-.056-.067-.056-.068-.056-.07-.055-.071-.055-.072-.055-.073-.055-.073-.055-.074-.054-.075-.053-.074-.002-.002-.053-.074v-.002l-.054-.075v-.002l-.054-.076v-.002l-.054-.076-.053-.078-.053-.078-.053-.079-.317-.471-.104-.155-.052-.077-.052-.076-.051-.076-.051-.075v-.002l-.051-.072v-.002l-.051-.071v-.002l-.051-.07-.052-.072-.051-.07-.051-.069-.05-.067-.05-.066-.05-.065-.05-.063-.049-.061-.049-.06-.049-.058-.049-.056-.048-.055-.048-.053-.047-.051-.047-.048-.047-.047-.046-.044-.045-.042-.045-.04-.044-.038-.044-.035-.043-.033-.042-.031-.041-.029-.04-.026-.039-.024-.038-.022-.037-.02-.036-.017-.035-.015-.034-.013-.033-.011-.032-.01-.032-.008-.031-.006-.03-.005-.03-.003-.029-.002h-.058l-.029.002-.03.004-.03.005-.031.007-.032.008-.033.01-.034.012-.035.014-.036.016-.037.018-.038.02L7 13.14l-.04.024-.04.027-.041.029-.042.031-.043.034-.044.036-.044.038-.045.041-.046.043-.046.045-.047.047-.047.049-.048.051-.048.053-.048.055-.049.057-.049.058-.049.06-.05.062-.05.064-.05.065-.05.066-.05.068-.051.069-.051.07-.05.07-.002.002-.05.07v.002l-.051.072v.002l-.052.073h-.001l-.051.075-.051.076-.051.077-.052.077-.368.548-.053.079-.053.078-.054.08-.054.078-.054.078-.054.077-.054.077-.054.076-.054.076-.055.075-.055.074-.055.073-.055.073-.055.072-.056.071-.056.069-.056.069-.057.067-.057.066-.057.065-.058.063-.058.062-.059.061-.059.059-.06.057-.06.056-.061.054-.061.052-.062.05-.063.049-.064.047-.053.036-.012.008-.053.034-.013.008-.053.032-.014.008-.053.03-.015.008-.053.027-.016.008-.053.025-.017.008-.053.023a.134.134 0 0 1-.018.007l-.053.02-.019.007-.045.015a10.993 10.993 0 0 0 9.278 5.088c4.182 0 7.82-2.334 9.68-5.771l-.009-.008-.058-.059zM1.833 10.904l.037.018.036.016.035.014.034.012.033.01.032.008.031.007.03.005.03.004.029.002h.058l.029-.002.03-.003.03-.005.031-.006.032-.008.032-.01.033-.011.034-.013.035-.015.036-.017.037-.02.038-.022.039-.024.04-.026.041-.029.042-.031.043-.033.043-.035.044-.038.045-.04.045-.042.046-.044.047-.047.047-.048.047-.051.048-.053.048-.055.049-.056.049-.058.049-.06.049-.061.05-.063.05-.065.05-.066.05-.067.051-.069.051-.07.051-.071.051-.072.051-.073.051-.074.051-.074.051-.076.051-.076.051-.077.052-.077.422-.628.054-.079.054-.078.053-.076v-.002l.055-.078.054-.077.054-.077.054-.076.055-.075.055-.075.055-.074.055-.073.055-.072.056-.071.056-.07.056-.069.056-.068.057-.066.057-.065.058-.064.058-.062.058-.061.059-.059.059-.058.06-.056.061-.054.061-.053.062-.051.063-.049.064-.047.053-.037.012-.008.053-.035.013-.008.053-.033.014-.008.053-.03.015-.008.053-.028.016-.008.053-.026.017-.008.053-.023.018-.007.053-.021.019-.007.053-.019.02-.006.053-.016a.505.505 0 0 0 .02-.006l.053-.014.021-.005.053-.011.022-.004.053-.009.023-.003.053-.006.023-.002.053-.004.023-.001.053-.002h.076l.023.002.053.003.023.002.053.006c.008 0 .015.002.023.003l.053.008.022.004.053.011.021.005.053.013.021.006.053.016.02.006.053.018.019.007.053.02.018.007.053.023.017.008.053.025.016.008.053.027.015.008.053.03.014.008.053.032.013.008.053.034.012.008.064.044.063.046.062.048.061.05.061.052.06.054.06.055.059.057.059.059.058.06.058.062.057.063.057.064.057.066.056.067.056.068.056.069.055.07.055.071.055.072.055.073.055.074.054.075.054.076.054.076.054.077.054.077.054.078.053.078.053.078.053.078.106.158.315.469.052.077.051.076.051.076.051.075v.002l.051.073v.002l.051.071v.002l.051.07v.002l.051.069.002.002.049.068.002.003.049.066.002.003.048.065.051.068.05.065.05.063.05.062.049.06.049.058.049.057.048.055.048.053.048.051.047.049.047.047.046.045.046.043.045.041.044.038.044.036.043.034.042.031.041.029.04.027.04.025.039.022.038.02.037.018.035.016.035.014.034.012.033.01.032.008.031.007.03.005.03.004.029.002h.058l.029-.002.03-.003.03-.005.031-.006.032-.008.032-.01.033-.011.034-.013.035-.015.036-.017.037-.02.038-.022.039-.024.04-.026.041-.029.042-.031.043-.033.044-.035.044-.038.045-.04.045-.042.046-.044.047-.047.047-.048.047-.051.048-.053.048-.055.049-.056.049-.058.049-.06.049-.061.05-.063.05-.065.05-.066.049-.066.002-.003.049-.066.002-.003.049-.067.002-.002.049-.069.002-.002.05-.07v-.002l.051-.071v-.002l.052-.072v-.002l.052-.073.052-.077.051-.075.051-.077.105-.155.158-.235.159-.236.053-.079.053-.078.053-.078.053-.078v-.002l.054-.076v-.002l.054-.075v-.002l.054-.074V7.87l.056-.076.055-.075.055-.075.055-.074.055-.073.055-.072.056-.071.056-.07.056-.069.056-.068.057-.066.057-.065.058-.064.058-.062.059-.061.059-.059.06-.058.06-.056.061-.054.061-.053.062-.051.063-.049.063-.047.053-.037.012-.008.053-.035.013-.008.053-.033.014-.008.053-.03.015-.008.053-.028.01-.005.006-.003.053-.026.016-.008.053-.023.018-.007.053-.021.019-.007.053-.019.02-.006.053-.016a.505.505 0 0 0 .02-.006l.053-.014.021-.005.053-.011.022-.004.053-.009h.008l.015-.003.053-.006.012-.001h.011l.053-.004.023-.001.053-.002h.076l.01.001h.013l.053.004.023.002.053.006c.008 0 .015.002.023.003l.053.008a.14.14 0 0 0 .022.004l.053.011.021.005.053.013.013.003.008.002.053.016.02.006.053.018.019.007.053.02.018.007.053.023.017.008.053.025.016.008.053.027.015.008.053.03.014.008.053.032.013.008.053.034.012.008.064.044.063.046.062.048.061.05.061.052.06.054.06.055.059.057.059.059.058.06.058.062.057.063.057.064.057.066.056.067.056.068.056.069.055.07.055.071.055.072.055.073.055.074.054.075.054.076.054.076.054.077.054.077.054.078.053.078.053.078.053.078.053.079.316.471.052.077.052.077.052.076.051.076.051.075v.002l.052.073V9.4l.051.071v.002l.051.07.002.002.049.069.002.002.049.068.002.003.049.066.002.003.048.065.002.003.048.063.003.003.047.062.003.004.047.06.003.004.046.058.003.004.048.058.049.059.049.057.048.055.048.053.047.051.047.049.047.047.046.045.045.043.045.041.044.038.044.036.043.034.042.031.043.03.004.003.217.149C22.456 5.372 17.752.998 12.026.998 6.448 1 1.856 5.114 1.107 10.46l.694.427.031.017z" class="cls-1"/></g></svg>