<svg xmlns="http://www.w3.org/2000/svg" viewBox="0 0 24 24"><defs><style>.cls-1{fill:#363636}</style></defs><g id="Camada_1"><path d="M15 1.5a.5.5 0 0 0-.5-.5h-4a.5.5 0 0 0-.5.5V5h5V1.5zM15 7.293V6h-5v1.293L8.318 8.975A4.5 4.5 0 0 0 7 12.157v.343c1.22 0 2.236.874 2.456 2.029.186.024.368.063.544.115v-3.145a.5.5 0 0 1 .5-.5h4s.5.224.5.5v8a.5.5 0 0 1-.5.5h-2.627A3.496 3.496 0 0 1 9 21.499a3.43 3.43 0 0 1-2-.635v.635a1.5 1.5 0 0 0 1.5 1.5h8a1.5 1.5 0 0 0 1.5-1.5v-9.343a4.499 4.499 0 0 0-1.318-3.182L15 7.292z" class="cls-1"/><path d="M14 19v-7h-3v3.127A3.496 3.496 0 0 1 12.355 19H14z" class="cls-1"/><path d="M12 18a3 3 0 0 0-3-3 2 2 0 0 0-3.736-.993C4.032 14.159 3 15.207 3 16.5a2.5 2.5 0 0 0 3.171 2.409A2.956 2.956 0 0 0 9 21a3 3 0 0 0 3-3zM19.917 10.143a2.5 2.5 0 0 0-3.966-2.606l1.084 1.084a4.998 4.998 0 0 1 1.464 3.536v3.801a3 3 0 0 0 1.417-5.815z" class="cls-1"/><circle cx="20" cy="4" r="2" class="cls-1"/><circle cx="3.5" cy="11.5" r="1.5" class="cls-1"/></g></svg>