<svg xmlns="http://www.w3.org/2000/svg" data-name="Camada 1" viewBox="0 0 24 24"><path stroke-width="0" d="M22.78 9.797a11.003 11.003 0 0 0-3.041-5.617 10.766 10.766 0 0 0-7.8-3.18A10.991 10.991 0 0 0 4.17 4.243 11.002 11.002 0 0 0 12 23h.06A10.996 10.996 0 0 0 22.78 9.797zm-4.34-2.456a.498.498 0 0 1-.08.179l-6.55 9.27a1.264 1.264 0 0 1-.28.29 1.49 1.49 0 0 1-.87.29 1.401 1.401 0 0 1-1-.44l-4-4.22a.513.513 0 0 1-.147-.355.506.506 0 0 1 .307-.464.496.496 0 0 1 .54.109l4.01 4.22a.44.44 0 0 0 .57 0l6.63-9.34a.49.49 0 0 1 .67-.06.494.494 0 0 1 .199.521z"/></svg>