<svg xmlns="http://www.w3.org/2000/svg" viewBox="0 0 24 24"><path d="M18.955 9.023C18.475 5.12 15.658 2 11.5 2 7.315 2 4.387 5.257 4.026 9.215 2.277 9.796 1 11.507 1 13.5a4.513 4.513 0 0 0 4.114 4.483 4.136 4.136 0 0 1-.117-.978c0-2.099 1.605-4 3.821-4 .781 0 1.504.246 2.101.658.243.168.422.394.529.647.634-.779 1.559-1.305 2.695-1.305 2.227 0 3.643 2.024 3.643 4v.067c.171-.036.346-.058.525-.066h.037c.574 0 1.224.132 1.755.557a2.6 2.6 0 0 1 .113.096 4.515 4.515 0 0 0 2.786-4.159 4.514 4.514 0 0 0-4.045-4.477z"/><path d="M8.818 15.005c.353 0 .684.11.966.305a.5.5 0 1 0 .567-.823 2.694 2.694 0 0 0-1.534-.481c-1.592 0-2.821 1.379-2.821 3s1.229 3 2.821 3c.567 0 1.094-.178 1.534-.481a.5.5 0 1 0-.567-.823 1.696 1.696 0 0 1-.966.305c-.972 0-1.821-.86-1.821-2s.85-2 1.821-2zM14.143 14.005c-1.529 0-2.643 1.418-2.643 3s1.114 3 2.643 3 2.643-1.418 2.643-3-1.114-3-2.643-3zm0 5c-.838 0-1.643-.82-1.643-2s.805-2 1.643-2 1.643.82 1.643 2-.805 2-1.643 2zM19.748 19.305c0-.439-.178-.796-.494-1.026-.292-.212-.649-.279-.965-.279h-.02a1.983 1.983 0 0 0-.956.291.5.5 0 0 0 .518.856A.978.978 0 0 1 18.3 19c.189.002.307.044.367.087a.166.166 0 0 1 .055.064.355.355 0 0 1 .028.154c0 .067-.04.204-.185.413a4.009 4.009 0 0 1-.534.599 7.99 7.99 0 0 1-.751.622l-.05.036-.012.009-.003.002a.499.499 0 0 0-.215.411v.103a.5.5 0 0 0 .5.5h1.75a.5.5 0 0 0 0-1h-.486c.218-.209.445-.454.624-.714.183-.265.362-.609.362-.982z"/></svg>