<svg xmlns="http://www.w3.org/2000/svg" viewBox="0 0 24 24"><path d="M13 3h3.083a.92.92 0 0 0 .648-.268c.172-.172.268-.488.268-.732s-.097-.56-.268-.732A.916.916 0 0 0 16.083 1H8.916A.916.916 0 0 0 8 1.916v3.083h5v-2zM8 13h5v4H8z"/><path d="M16.071 8H14V6.944a.954.954 0 0 0-.272-.668.921.921 0 0 0-.657-.277H7.928c-.246 0-.482.099-.657.277s-.272.417-.272.668V8H4.928c-.246 0-.482.099-.657.277s-.272.417-.272.668v13.111c0 .25.098.491.272.668.174.177.41.277.657.277h11.143a.92.92 0 0 0 .657-.277.953.953 0 0 0 .272-.668V8.945a.954.954 0 0 0-.272-.668.921.921 0 0 0-.657-.277zm-1.39 11.613c-.348.354-.689.387-1.181.387h-6c-.493 0-.815-.032-1.164-.387-.337-.343-.337-.804-.336-1.288V9.999h9v8.387c.002.461.004.898-.319 1.227zM20.713 4.964a5.978 5.978 0 0 0-.563-.889 9.712 9.712 0 0 0-.724-.853l-.052-.054-.015-.015-.004-.004-.002-.002a.5.5 0 0 0-.708 0l-.002.002-.004.004-.015.015-.052.054a9.969 9.969 0 0 0-.724.853 5.978 5.978 0 0 0-.563.889c-.155.31-.287.673-.287 1.036 0 .686.349 1.194.752 1.514.384.305.864.479 1.247.476.424.005.911-.163 1.295-.482.4-.332.706-.842.706-1.509 0-.363-.132-.727-.287-1.036z"/></svg>