<svg xmlns="http://www.w3.org/2000/svg" viewBox="0 0 24 24"><path d="M8.998 7.583C9 7.555 9 7.528 9 7.5v-3a1.5 1.5 0 0 0-.668-1.248l-3-2a1.5 1.5 0 0 0-1.893.187l-2 2a1.5 1.5 0 0 0-.187 1.893l2 3C3.53 8.749 3.999 9 4.5 9h3c.028 0 .056 0 .084-.002l2.194 2.194L3.102 17.2a3.326 3.326 0 1 0 4.729 4.665l7.183-8.202a6 6 0 0 0 7.482-8.071.498.498 0 0 0-.811-.152l-3.018 3.018-2.122-2.122 3.018-3.018a.501.501 0 0 0-.152-.811 6 6 0 0 0-8.123 7.328l-.02.018-2.269-2.269z"/><path d="M14.506 18.749l-1.405-1.384 2.244-2.562a7.022 7.022 0 0 0 3.594-.075l1.422 1.39 1.76 1.76a3 3 0 1 1-4.243 4.243l-3.372-3.372z"/></svg>