<svg xmlns="http://www.w3.org/2000/svg" viewBox="0 0 24 24"><path d="M9.726 8L12 6.804 14.274 8l-.434-2.533 1.84-1.794-2.543-.369L12 1l-1.137 2.304-2.543.369 1.84 1.794L9.726 8zM18.3 12.557l-.743-1.857-.929.371c-.166.069-3.056 1.283-4.628 5.6-1.572-4.318-4.462-5.532-4.628-5.6l-.929-.371-.743 1.857.928.372C6.672 12.946 11 14.772 11 23h2c0-8.087 4.16-9.98 4.377-10.074l.923-.369zM5.548 18.188l-1.073-2.175-1.074 2.175L1 18.537l1.737 1.693-.41 2.391 2.148-1.128 2.147 1.128-.41-2.391 1.737-1.693-2.401-.349zM20.599 18.188l-1.074-2.175-1.073 2.175-2.401.349 1.737 1.693-.41 2.391 2.147-1.128 2.148 1.128-.41-2.391L23 18.537l-2.401-.349z"/><path d="M11 11.281c.365.372.704.767 1.016 1.184.303-.409.632-.798.984-1.165V9.013h-2v2.268z"/><circle cx="2.5" cy="9.5" r="1.5"/><circle cx="21.5" cy="9.5" r="1.5"/></svg>