<svg xmlns="http://www.w3.org/2000/svg" viewBox="0 0 24 24"><path d="M20.43 2.122l1.125-.125a.5.5 0 0 0-.11-.994l-1.125.125a.5.5 0 0 0 .11.994zM15.93 2.622l2.25-.25a.5.5 0 0 0-.11-.994l-2.25.25a.5.5 0 0 0 .11.994zM12.555 2.997l1.125-.125a.5.5 0 0 0-.11-.994l-1.125.125a.5.5 0 0 0 .11.994zM10 2.5a.5.5 0 0 0-.621-.485l-4 1A.5.5 0 0 0 5 3.5V6h5V2.5zM11.755 21.816a2.825 2.825 0 0 1-1.009-.724 2.972 2.972 0 0 1-.328-3.493c.196-.327.453-.614.76-.84a2.981 2.981 0 0 1-.087-1.309 2.922 2.922 0 0 1 1.118-1.883c.242-.183.509-.324.791-.42v-2.648a1.5 1.5 0 0 0-1.5-1.5H11v-.5a1.5 1.5 0 0 0-1.5-1.5h-4a1.5 1.5 0 0 0-1.5 1.5v.5h-.5a1.5 1.5 0 0 0-1.5 1.5v11a1.5 1.5 0 0 0 1.5 1.5h8c.599 0 1.117-.352 1.357-.86l-.037-.104a2.77 2.77 0 0 1-1.065-.22z"/><path d="M19.356 17.664a1.763 1.763 0 0 0-.926-.436c.064-.064.123-.133.176-.207a1.98 1.98 0 0 0 .29-1.405 1.924 1.924 0 0 0-.73-1.219c-.386-.292-.866-.416-1.339-.345s-.9.33-1.192.723c-.05.076-.094.156-.133.239a1.918 1.918 0 0 0-.133-.239 1.825 1.825 0 0 0-1.197-.753 1.778 1.778 0 0 0-1.359.343 1.926 1.926 0 0 0-.733 1.24 1.97 1.97 0 0 0 .318 1.418c.054.073.113.143.176.206a1.8 1.8 0 0 0-.742.292 1.89 1.89 0 0 0-.555.591 1.986 1.986 0 0 0-.188 1.601c.083.265.22.508.402.712.182.204.405.364.653.469a1.767 1.767 0 0 0 1.547-.08c-.015.09-.024.18-.027.272 0 .507.194.994.538 1.352.344.359.811.56 1.298.56s.954-.201 1.298-.56c.344-.359.538-.845.538-1.352a1.791 1.791 0 0 0-.027-.274 1.77 1.77 0 0 0 1.484.102c.24-.092.46-.235.644-.42a1.93 1.93 0 0 0 .426-.656 1.987 1.987 0 0 0-.046-1.548 1.92 1.92 0 0 0-.463-.627zm-2.881 1.569a1.335 1.335 0 0 1-1.739.178 1.421 1.421 0 0 1-.507-.644 1.493 1.493 0 0 1-.078-.829c.053-.278.184-.534.377-.734.193-.201.438-.337.705-.393.267-.055.544-.027.796.082s.467.292.618.528a1.48 1.48 0 0 1-.171 1.811zM13.733 4.262l-1.125-.25a.5.5 0 1 0-.216.977l1.125.25a.5.5 0 1 0 .217-.977zM18.234 5.262l-2.25-.5a.5.5 0 1 0-.216.977l2.25.5a.5.5 0 1 0 .217-.977zM21.608 6.012l-1.125-.25a.5.5 0 1 0-.216.977l1.125.25a.5.5 0 1 0 .217-.977z"/></svg>