<svg xmlns="http://www.w3.org/2000/svg" viewBox="0 0 24 24"><circle cx="16" cy="8" r="1.5"/><path d="M22.707 1.293a.997.997 0 0 0-.793-.289C16.13 1.501 11.9 3.564 9.09 6.5H6.963a2.5 2.5 0 0 0-1.951.937l-3.898 4.746a.499.499 0 0 0 .278.805l4.127.917c.036.054.078.106.125.153l4.299 4.299a.987.987 0 0 0 .256.185l.811 4.055a.5.5 0 0 0 .807.289l4.746-3.898a2.501 2.501 0 0 0 .937-1.951v-2.128c2.936-2.81 4.999-7.039 5.496-12.823a1.004 1.004 0 0 0-.289-.793zM10.936 16.521l-3.457-3.457c1.537-4.828 5.702-8.921 13.393-9.936-1.016 7.691-5.109 11.855-9.936 13.393z"/><path d="M4.075 15.938c-.425.21-.822.499-1.181.858-1.374 1.373-1.735 4.622-1.772 4.987L1 23l1.217-.122c.366-.037 3.614-.399 4.988-1.772a4.52 4.52 0 0 0 .858-1.181l.282-.571-3.699-3.699-.571.283z"/></svg>