<svg xmlns="http://www.w3.org/2000/svg" viewBox="0 0 24 24"><path d="M15.185 23H8.81l2-4h2.38l1.995 4zM19.53 20.102l-3.401 2.55-1.996-4.003 1.393-1.044 4.003 2.497zM9.865 18.65l-2 4-3.39-2.544 3.999-2.5 1.391 1.043zM8 7.276v9.447l-4 2.502V4.777l4 2.5zM20 19.218l-4-2.495V7.276l4-2.5v14.442zM15 7.25v9.499L13.333 18h-2.666L9 16.749V7.25L10.667 6h2.666L15 7.25zM9.865 5.35L8.473 6.394 4.484 3.902l-.013-.006 3.391-2.544L9.865 5.35zM19.525 3.894l-4 2.5-1.391-1.044 2-4 3.391 2.544zM13.191 5H10.81L8.806 1h6.385l-2 4z"/></svg>