<svg xmlns="http://www.w3.org/2000/svg" viewBox="0 0 24 24"><path d="M14 3.5a.5.5 0 0 0-.5-.5h-12a.5.5 0 0 0-.5.5v5c0 1.023.438 1.94 1.042 2.72.604.78 1.397 1.453 2.169 2A17.832 17.832 0 0 0 7 14.824v5.175H3.5a.5.5 0 0 0 0 1h8a.5.5 0 0 0 0-1H8v-5.175a17.832 17.832 0 0 0 2.789-1.604c.772-.547 1.565-1.22 2.169-2C13.562 10.44 14 9.522 14 8.5v-5zM13 8H2V4h11v4zM22.792 8.094a.5.5 0 0 0-.451-.069l-6 2a.5.5 0 0 0-.342.474V15.167a1.75 1.75 0 1 0 1 1.624V13.36l5-1.667v1.975a1.75 1.75 0 1 0 1 1.662v-4.318V8.5a.499.499 0 0 0-.208-.406z"/></svg>