<svg xmlns="http://www.w3.org/2000/svg" data-name="Camada 1" viewBox="0 0 24 24"><g fill-rule="evenodd" stroke-width="0"><path d="M4.74 12.45l1.078 5.033.002.036v.009l.005.041a2.34 2.34 0 0 0 .159.641c.145.352.34.54.638.54h3.5c.297 0 .493-.188.638-.54a2.404 2.404 0 0 0 .159-.641l.004-.041v-.008-.001l.002-.036 1.303-6.032h-2.163a2.81 2.81 0 0 0 .689-1.097c.124-.367.171-.755.137-1.14l-.417-4.752-.004-.048a4.764 4.764 0 0 0-.017-.182v-.005a3.37 3.37 0 0 0-.309-1.071c-.216-.425-.635-.906-1.36-.906H7.42c-.731 0-1.151.488-1.366.915-.211.42-.281.875-.303 1.073-.006.053-.011.116-.015.163l-.004.049-.407 4.77a2.791 2.791 0 0 0 .826 2.23H4.546l.194 1z"/><path d="M11.917 17.622l-.005.055a3.511 3.511 0 0 1-.228.913c-.205.498-.66 1.16-1.562 1.16h-3.5c-.903 0-1.357-.661-1.562-1.16a3.33 3.33 0 0 1-.228-.913l-.005-.055-1.202-5.586.198 7.535v.018l.002.02.006.067a3.511 3.511 0 0 0 .228.913c.205.498.66 1.16 1.562 1.16h5.5c.903 0 1.357-.661 1.562-1.16a3.395 3.395 0 0 0 .228-.913l.007-.067.002-.02v-.006-.004-.008l.183-6.97-1.125 4.729-.062.291zM20.22 13.498a3.022 3.022 0 0 0-1.638-1.793 3.108 3.108 0 0 0-.464-.161V6.917a1.017 1.017 0 0 0 .399-.474 1.317 1.317 0 0 0 .101-.472v-.012V4a1.252 1.252 0 0 0-1.25-1.25A1.252 1.252 0 0 0 16.118 4v1.971l.002.035a1.41 1.41 0 0 0 .099.437 1.017 1.017 0 0 0 .399.474v4.627a3.016 3.016 0 0 0-2.106 1.959 3.007 3.007 0 0 0-.142 1.235l.443 4.739.004.041c.005.063.012.138.021.211.027.214.107.683.341 1.112.242.443.692.908 1.443.908h1.504c.757 0 1.207-.472 1.448-.918.234-.433.312-.904.338-1.113s0 0 0 .001l-.093-.043.093.042c.007-.058.013-.123.018-.175l.005-.055v-.003l.432-4.756a3 3 0 0 0-.145-1.233zm-2.604-7.554v.002a.412.412 0 0 1-.021.104h-.458a.412.412 0 0 1-.021-.104v-.002V4a.25.25 0 1 1 .5 0v1.944z"/></g></svg>