<svg xmlns="http://www.w3.org/2000/svg" viewBox="0 0 24 24"><path d="M21.5 6A3.5 3.5 0 0 1 18 2.5a.5.5 0 0 0-1 0A3.5 3.5 0 0 1 13.5 6a.5.5 0 0 0 0 1 3.5 3.5 0 0 1 3.5 3.5.5.5 0 0 0 1 0A3.5 3.5 0 0 1 21.5 7a.5.5 0 0 0 0-1zM15 12.5a.5.5 0 0 0-.5-.5A5.5 5.5 0 0 1 9 6.5a.5.5 0 0 0-1 0A5.5 5.5 0 0 1 2.5 12a.5.5 0 0 0 0 1A5.5 5.5 0 0 1 8 18.5a.5.5 0 0 0 1 0 5.5 5.5 0 0 1 5.5-5.5.5.5 0 0 0 .5-.5zM19.5 18a2.5 2.5 0 0 1-2.5-2.5.5.5 0 0 0-1 0 2.5 2.5 0 0 1-2.5 2.5.5.5 0 0 0 0 1 2.5 2.5 0 0 1 2.5 2.5.5.5 0 0 0 1 0 2.5 2.5 0 0 1 2.5-2.5.5.5 0 0 0 0-1z"/></svg>