<svg xmlns="http://www.w3.org/2000/svg" viewBox="0 0 24 24"><path d="M19.683 14.468l-.003-.001-.008-.003-.028-.01a6.38 6.38 0 0 0-.45-.145 8.168 8.168 0 0 0-1.197-.247c-.954-.122-2.236-.104-3.354.557-.728.43-1.259 1.057-1.643 1.691v-2.849c.785-.124 1.672-.523 2.483-1.118 1.001-.734 1.941-1.805 2.481-3.155.535-1.338.661-2.913.661-4.123a18.21 18.21 0 0 0-.109-1.965 4.615 4.615 0 0 0-.015-.122l-.004-.033v-.009l-.002-.003a.5.5 0 0 0-.519-.43h-.008l-.02.001-.076.004-.276.018c-.233.017-.558.043-.923.082-.72.077-1.636.205-2.32.416-.686.211-1.473.607-2.07.937-.303.167-.565.321-.751.434l-.02.012h-.001a30.348 30.348 0 0 0-.663-.431c-.514-.325-1.167-.719-1.644-.931a6.232 6.232 0 0 0-.826-.288 9.202 9.202 0 0 0-1.271-.246l-.042-.005h-.012l-.004-.002h-.002a.5.5 0 0 0-.531.367v.002l-.001.003-.002.009-.009.033-.03.122a13.677 13.677 0 0 0-.299 1.962c-.095 1.212-.054 2.809.554 4.2 1.264 2.89 3.587 4.073 5.27 4.27v3.836c-.385-.634-.916-1.261-1.643-1.691-1.118-.661-2.4-.679-3.354-.557a8.196 8.196 0 0 0-1.549.358 2.104 2.104 0 0 0-.098.035l-.027.01-.008.003h-.003l-.001.002a.5.5 0 0 0-.31.546v.004l.002.009.005.029.02.104a8.905 8.905 0 0 0 .482 1.55c.375.902 1.028 2.026 2.128 2.676 1.118.661 2.4.679 3.354.557A8.074 8.074 0 0 0 12 20.749v1.754a.5.5 0 0 0 1 0v-2.752c.274.071.617.145 1.002.194.954.122 2.236.104 3.354-.557 1.1-.65 1.753-1.774 2.128-2.676a8.88 8.88 0 0 0 .48-1.55l.02-.104.005-.029v-.008l.002-.003a.502.502 0 0 0-.31-.548z"/><path d="M11.115 3.552l.41.263c.151-.089.326-.189.517-.294.603-.333 1.427-.75 2.165-.977.456-.14.998-.245 1.518-.322A4.487 4.487 0 0 0 12.642 1a4.495 4.495 0 0 0-3.377 1.525l.143.061c.514.229 1.196.641 1.708.965z"/></svg>