<svg xmlns="http://www.w3.org/2000/svg" viewBox="0 0 24 24"><path d="M7.473 14h3.054l.444-8H7.029l.444 8z" class="cls-1"/><path d="M12 17.5a5.5 5.5 0 0 1 2.873-4.833l1.123-10.111A.5.5 0 0 0 15.499 2H2.5a.502.502 0 0 0-.497.556l2 18a.502.502 0 0 0 .322.413l.008.003.023.009.087.031a21.959 21.959 0 0 0 1.424.449c.888.246 2.059.509 3.119.54 1.079.032 2.265-.236 3.156-.498.096-.028.19-.057.28-.085v-2.022c0-.253.062-.491.173-.699a1.496 1.496 0 0 1-.594-1.195zm-.501-2.972A.5.5 0 0 1 11 15H7a.5.5 0 0 1-.499-.472l-.5-9a.5.5 0 0 1 .499-.527h5a.502.502 0 0 1 .499.527l-.5 9z" class="cls-1"/><path d="M14 17.5a3.5 3.5 0 0 1 5.346-2.974l-.726.726a.499.499 0 0 0 .354.854H21.08a.5.5 0 0 0 .5-.5v-2.105a.5.5 0 0 0-.854-.354l-.658.658A4.5 4.5 0 0 0 13 17.501a.5.5 0 0 0 1 0zM21.5 17a.5.5 0 0 0-.5.5 3.5 3.5 0 0 1-5.346 2.974l.726-.726a.499.499 0 0 0-.354-.854H13.92a.5.5 0 0 0-.5.5v2.105a.5.5 0 0 0 .854.354l.658-.658A4.5 4.5 0 0 0 22 17.499a.5.5 0 0 0-.5-.5z" class="cls-1"/></svg>