<svg xmlns="http://www.w3.org/2000/svg" viewBox="0 0 24 24"><defs><clipPath id="a"><path d="M0 0h24v24H0z" class="a"/></clipPath><style>.a{fill:none}.b{clip-path:url(#a)}</style></defs><path d="M0 0h24v24H0z" class="a"/><g class="b"><path d="M17.736 19.619a.48.48 0 0 1-.307-.816 8.1 8.1 0 0 0 .924-1 8.128 8.128 0 0 0 .661-8.649.48.48 0 0 1 .209-.626.478.478 0 0 1 .636.179 9.086 9.086 0 0 1-1.029 10.014h-.011a7.5 7.5 0 0 1-.745.788.475.475 0 0 1-.3.11zm-12.245-.167A9.085 9.085 0 0 1 16.826 5.4l1.857-2.428a.452.452 0 1 1 .719.549L11.713 13.57a.451.451 0 0 1-.633.084.451.451 0 0 1-.085-.632l5.25-6.862c-.156-.1-.316-.19-.478-.277a8.128 8.128 0 0 0-9.6 12.9.48.48 0 0 1-.346.8h-.01a.48.48 0 0 1-.326-.125z"/><path d="M16.818 5.41A8.778 8.778 0 0 0 12 3.974a9.162 9.162 0 0 0-9.019 9.3 9.409 9.409 0 0 0 2.71 6.639q4.089-.008 8.18-.012c1.481 0 2.962.005 4.444.006a9.484 9.484 0 0 0-.766-13.965zM17.171 5.732l-5.732 7.624"/><path stroke-linecap="round" stroke-miterlimit="10" d="M17.171 5.732l-5.732 7.624"/><path d="M17.857 5.539l-.732-.532-.306.4.73.531"/></g></svg>