<svg xmlns="http://www.w3.org/2000/svg" version="1.0" viewBox="0 0 24 24"><path d="M4.4 2C3.1 2 2 3.1 2 4.4v15.2C2 20.9 3.1 22 4.4 22h15.2c1.3 0 2.4-1.1 2.4-2.4V4.4C22 3.1 20.9 2 19.6 2H4.4zm0 1h15.2c.8 0 1.4.6 1.4 1.4v15.2c0 .8-.6 1.4-1.4 1.4H4.4c-.8 0-1.4-.6-1.4-1.4V4.4C3 3.6 3.6 3 4.4 3zm8.1 1.9c-.1 0-.2.1-.3.1-.1.1-.2.2-.2.3v9.3c0 .9-.8 1.6-1.7 1.6-.9 0-1.6-.7-1.6-1.6 0-.9.7-1.6 1.6-1.6h.4c.1 0 .1-.1.2-.1s.1-.1.1-.2v-2.2c0-.1 0-.2-.1-.3s-.2-.1-.3-.1h-.3c-2.5 0-4.5 2-4.5 4.5s2 4.5 4.5 4.5 4.5-2 4.5-4.5v-4.3c.7.6 1.6.9 2.5.9h.4c.1 0 .2-.1.3-.2.1-.1.1-.2.1-.3V8.5c0-.1 0-.2-.1-.3 0-.1-.2-.1-.3-.2-1.5-.1-2.7-1.3-2.8-2.8 0-.1-.1-.2-.2-.3-.1-.1-.2-.1-.3-.1h-1.9zm.5.9h1.1c.3 1.6 1.6 2.8 3.2 3.1v1.4c-1-.1-1.9-.6-2.4-1.4-.1-.1-.1-.2-.2-.2h-.3c-.1 0-.2.1-.2.2-.1.1-.1.2-.1.3v5.5c0 2-1.6 3.6-3.6 3.6s-3.6-1.6-3.6-3.6c0-1.9 1.5-3.4 3.4-3.5v1C9 12.3 8 13.4 8 14.7c0 1.4 1.1 2.5 2.5 2.5s2.6-1.1 2.6-2.5v-1.5V10C13 7.9 13 6.2 13 5.8z"/></svg>