<svg xmlns="http://www.w3.org/2000/svg" viewBox="0 0 24 24"><path d="M18.955 9.023C18.475 5.12 15.658 2 11.5 2 7.315 2 4.387 5.257 4.026 9.215 2.277 9.796 1 11.507 1 13.5c0 2.089 1.44 3.854 3.374 4.357a.501.501 0 0 0 .252-.968A3.516 3.516 0 0 1 2 13.5c0-1.673 1.146-3.068 2.615-3.413A.5.5 0 0 0 5 9.626C5.189 5.944 7.812 3 11.501 3s6.217 2.844 6.502 6.538a.5.5 0 0 0 .498.462c1.924 0 3.5 1.576 3.5 3.5a3.51 3.51 0 0 1-1.816 3.065.5.5 0 1 0 .485.875 4.51 4.51 0 0 0 2.332-3.94 4.514 4.514 0 0 0-4.045-4.477z"/><path d="M8.818 15.005c.353 0 .684.11.966.305a.5.5 0 1 0 .567-.823 2.694 2.694 0 0 0-1.534-.481c-1.592 0-2.821 1.379-2.821 3s1.229 3 2.821 3c.567 0 1.094-.178 1.534-.481a.5.5 0 1 0-.567-.823 1.696 1.696 0 0 1-.966.305c-.972 0-1.821-.86-1.821-2s.85-2 1.821-2zM14.143 14.005c-1.529 0-2.643 1.418-2.643 3s1.114 3 2.643 3 2.643-1.418 2.643-3-1.114-3-2.643-3zm0 5c-.838 0-1.643-.82-1.643-2s.805-2 1.643-2 1.643.82 1.643 2-.805 2-1.643 2zM19.748 19.305c0-.439-.178-.796-.494-1.026-.292-.212-.649-.279-.965-.279h-.02a1.983 1.983 0 0 0-.956.291.5.5 0 0 0 .518.856A.978.978 0 0 1 18.3 19c.189.002.307.044.367.087a.166.166 0 0 1 .055.064.355.355 0 0 1 .028.154c0 .067-.04.204-.185.413a4.009 4.009 0 0 1-.534.599 7.99 7.99 0 0 1-.751.622l-.05.036-.012.009-.003.002a.499.499 0 0 0-.215.411v.103a.5.5 0 0 0 .5.5h1.75a.5.5 0 0 0 0-1h-.486c.218-.209.445-.454.624-.714.183-.265.362-.609.362-.982z"/></svg>