<svg xmlns="http://www.w3.org/2000/svg" viewBox="0 0 24 24"><style></style><switch><g><g id="Keyline" stroke-miterlimit="10" stroke-width=".25"><path id="Horizontal_Rectangule" d="M22 20.1H2c-.6 0-1-.4-1-1v-14c0-.6.4-1 1-1h20c.6 0 1 .4 1 1v14c0 .5-.5 1-1 1z"/><path id="Square" d="M3.5 2.5h17c.6 0 1 .4 1 1v17c0 .6-.4 1-1 1h-17c-.6 0-1-.4-1-1v-17c0-.6.4-1 1-1z"/><path id="Vertical_Rectangule" d="M5 1h14c.6 0 1 .4 1 1v20c0 .6-.4 1-1 1H5c-.6 0-1-.4-1-1V2c0-.6.4-1 1-1z"/><circle id="Circle" cx="12" cy="12" r="11"/></g><g id="Create-Here"><path stroke-linejoin="round" stroke-miterlimit="10" d="M11.9 21H5.3c-1.4 0-1.1-1.5-1.1-1.5l1-12h13.6l1 12s.3 1.5-1.1 1.5h-6.8z"/><path stroke-linecap="round" stroke-linejoin="round" stroke-miterlimit="10" d="M8.6 9.6V6.3S8.4 3 11.9 3c0 0 3.5-.3 3.5 3.4v3.2"/><circle cx="8.6" cy="12.7" r="1"/><circle cx="15.4" cy="12.7" r="1"/><path stroke-linecap="round" stroke-linejoin="round" stroke-miterlimit="10" stroke-width=".5" d="M9.3 17.1s2.4-1.9 5.3 0"/></g></g></switch></svg>