<svg xmlns="http://www.w3.org/2000/svg" viewBox="0 0 24 24"><circle cx="9" cy="17" r="1" class="cls-1"/><circle cx="15" cy="17" r="1" class="cls-1"/><path d="M17.303 13.839l-.084-.076a47.646 47.646 0 0 0-.678-.608l.158-.179c.205-.237.482-.579.775-1.003.582-.841 1.248-2.031 1.517-3.374.254-1.268.505-3.033.693-4.471.094-.721.172-1.364.227-1.826l.064-.546.017-.148.006-.052a.5.5 0 0 0-.682-.519h-.002l-.003.002-.012.005-.045.018-.167.07a22.485 22.485 0 0 0-2.466 1.25c-.703.416-1.451.918-2.093 1.486-.636.563-1.201 1.218-1.492 1.947-.523 1.307-.78 2.731-.907 3.815a19.775 19.775 0 0 0-.112 1.339v.032h-.031v-.032a21.56 21.56 0 0 0-.114-1.339c-.128-1.084-.384-2.507-.907-3.815-.291-.729-.856-1.384-1.492-1.947-.641-.567-1.389-1.07-2.093-1.486a22.033 22.033 0 0 0-2.466-1.25c-.071-.031-.128-.054-.167-.07l-.045-.018-.012-.005h-.003l-.002-.002a.497.497 0 0 0-.683.519l.006.052.017.148.064.546c.055.462.133 1.105.227 1.826.188 1.438.439 3.203.693 4.471.269 1.344.935 2.533 1.517 3.374.293.423.57.766.775 1.003.061.07.115.132.162.183-.211.186-.421.376-.632.568l-.064.058c-.496.45-1.002.909-1.552 1.355-.767.62-1.146 1.625-1.206 2.652a5.374 5.374 0 0 0 .784 3.105c.592.95 1.525 1.719 2.801 1.995 1.217.263 2.691.066 4.409-.758 1.717.824 3.191 1.021 4.409.758 1.276-.276 2.209-1.044 2.801-1.995a5.383 5.383 0 0 0 .784-3.105c-.06-1.027-.439-2.032-1.206-2.652-.518-.419-1.003-.86-1.487-1.3zm-4.288-2.823c.015-.311.046-.753.107-1.271.122-1.041.366-2.368.843-3.56.209-.521.644-1.054 1.227-1.569.577-.511 1.267-.977 1.939-1.374.664-.392 1.3-.711 1.773-.933-.053.447-.126 1.035-.211 1.687-.187 1.437-.436 3.172-.682 4.404-.231 1.156-.815 2.217-1.358 3.001a11.058 11.058 0 0 1-.879 1.109l-.097-.076c-.799-.615-1.661-1.123-2.665-1.333l.004-.087zm-5.666.387c-.543-.784-1.127-1.844-1.358-3.001-.246-1.232-.495-2.967-.682-4.404-.085-.653-.157-1.241-.211-1.688.473.222 1.109.54 1.773.933.672.397 1.361.863 1.939 1.374.583.516 1.018 1.048 1.227 1.569.477 1.193.72 2.519.843 3.56.061.518.091.96.107 1.271l.004.086c-.99.204-1.832.695-2.621 1.302a13.3 13.3 0 0 0-.14.109c-.046-.051-.104-.115-.17-.192-.186-.216-.44-.53-.71-.919zm11.015 8.958c-.466.749-1.183 1.333-2.164 1.545-.837.181-1.911.099-3.239-.446l.816-.544a.5.5 0 0 0-.278-.916h-3a.5.5 0 0 0-.278.916l.817.545c-1.327.545-2.4.626-3.237.445-.981-.212-1.698-.797-2.164-1.545a4.37 4.37 0 0 1-.633-2.511c.049-.845.355-1.539.833-1.926.574-.464 1.098-.94 1.59-1.387l.07-.063c.516-.469.994-.899 1.475-1.269.956-.735 1.881-1.198 3.027-1.198s2.094.482 3.066 1.23c.488.376.969.809 1.48 1.273l.089.081c.48.436.985.895 1.526 1.333.478.387.784 1.081.833 1.926a4.361 4.361 0 0 1-.633 2.511z" class="cls-2"/></svg>