<svg xmlns="http://www.w3.org/2000/svg" viewBox="0 0 24 24"><defs><style>.cls-1{fill:#363636}</style></defs><g id="Camada_1"><path d="M10.5 5h-5a.5.5 0 0 0-.5.5v10a.5.5 0 0 0 .5.5h5a.5.5 0 0 0 .5-.5v-10a.5.5 0 0 0-.5-.5zM10 15H6V6h4v9z" class="cls-1"/><path d="M12.436 2H3.565a1.5 1.5 0 0 0-1.497 1.594l.934 14.938a.5.5 0 0 0 .499.469h.5v1.5a1.5 1.5 0 0 0 1.5 1.5h5a1.5 1.5 0 0 0 1.5-1.5v-1.5h.5a.5.5 0 0 0 .499-.469l.934-14.938A1.5 1.5 0 0 0 12.437 2zM11 20.5a.5.5 0 0 1-.5.5h-5a.5.5 0 0 1-.5-.5V19h6v1.5zm1.03-2.5H3.97L3.066 3.531A.5.5 0 0 1 3.565 3h8.871a.5.5 0 0 1 .499.531L12.031 18zM15.5 9h3a.5.5 0 0 0 0-1h-3a.5.5 0 0 0 0 1zM15.5 11h3a.5.5 0 0 0 0-1h-3a.5.5 0 0 0 0 1zM15.5 5h3a.5.5 0 0 0 0-1h-3a.5.5 0 0 0 0 1zM15.5 7h3a.5.5 0 0 0 0-1h-3a.5.5 0 0 0 0 1z" class="cls-1"/><path d="M21.353 2.654A2.21 2.21 0 0 0 19.786 2H15.5a.5.5 0 0 0 0 1h4.286c.321 0 .629.128.857.358.228.23.357.542.357.869V21h-3.434l.813-6.538v-.012a2.228 2.228 0 0 0-1.303-2.258 2.198 2.198 0 0 0-.9-.192h-.677a.5.5 0 0 0 0 1h.677a1.203 1.203 0 0 1 .899.403 1.228 1.228 0 0 1 .31.942l-.882 7.094a.5.5 0 0 0 .497.562h4.5a.5.5 0 0 0 .5-.5V4.227c0-.59-.232-1.156-.647-1.574z" class="cls-1"/></g></svg>