<svg xmlns="http://www.w3.org/2000/svg" viewBox="0 0 24 24"><defs><style>.cls-1,.cls-2{fill:#363636}.cls-2{fill-rule:evenodd}</style></defs><g id="Camada_1"><circle cx="11" cy="3" r="1" class="cls-1"/><path d="M21.976 18.27a30.778 30.778 0 0 1-.006-7.491 3.371 3.371 0 0 0-.907-2.77 3.287 3.287 0 0 0-2.725-.988h-.003a54.54 54.54 0 0 1-5.478.362.5.5 0 0 0 .016 1 55.434 55.434 0 0 0 5.577-.368 2.27 2.27 0 0 1 1.893.688c.245.254.429.561.539.898s.143.696.096 1.049v.005a31.74 31.74 0 0 0 .005 7.737c.042.349.006.703-.106 1.036a2.328 2.328 0 0 1-.54.884 2.276 2.276 0 0 1-1.876.673c-4.29-.5-8.623-.5-12.913 0a2.269 2.269 0 0 1-1.893-.688 2.342 2.342 0 0 1-.539-.898 2.375 2.375 0 0 1-.096-1.049v-.005c.157-1.276.236-2.559.238-3.845 0-1.301-.08-2.602-.24-3.893a2.364 2.364 0 0 1 .106-1.036c.112-.333.297-.635.54-.884a2.276 2.276 0 0 1 1.874-.673c.14.017.282.033.424.048a.427.427 0 0 0 .101 0 2.501 2.501 0 1 0-.025-.998 22.037 22.037 0 0 1-.38-.043h-.005a3.25 3.25 0 0 0-2.704.968 3.359 3.359 0 0 0-.923 2.74 30.89 30.89 0 0 1 .232 3.772 30.845 30.845 0 0 1-.229 3.721 3.371 3.371 0 0 0 .907 2.77c.35.363.777.641 1.249.812.472.171.977.232 1.476.176h.002a54.684 54.684 0 0 1 12.684 0h.002a3.25 3.25 0 0 0 2.704-.968 3.359 3.359 0 0 0 .923-2.74zM8.5 6a1.5 1.5 0 1 1-.001 3.001A1.5 1.5 0 0 1 8.5 6z" class="cls-2"/><circle cx="14.5" cy="4.5" r="1.5" class="cls-1"/><path d="M6 13.5v2A2.5 2.5 0 0 0 8.5 18h7a2.5 2.5 0 0 0 2.5-2.5v-2a2.5 2.5 0 0 0-2.5-2.5h-7A2.5 2.5 0 0 0 6 13.5zm11 0v2a1.5 1.5 0 0 1-1.5 1.5h-7A1.5 1.5 0 0 1 7 15.5v-2A1.5 1.5 0 0 1 8.5 12h7a1.5 1.5 0 0 1 1.5 1.5z" class="cls-2"/></g></svg>