<svg xmlns="http://www.w3.org/2000/svg" viewBox="0 0 24 24"><path d="M8.092 10.38c.439.65 1.006 1.22 1.712 1.568a.5.5 0 0 0 .721-.449c0-.181.06-.386.218-.62.172-.255.342-.424.544-.624.069-.069.152-.147.239-.229.142-.134.294-.278.417-.407.092-.096.184-.2.27-.314.3.223.558.476.726.753.301.495.535.991.535 1.44a.5.5 0 0 0 .721.449c.706-.349 1.273-.918 1.712-1.568.487-.721.592-1.539.592-2.28a6.71 6.71 0 0 0-.683-2.993C15.187 3.809 14 2.363 11.797 1.068a.5.5 0 0 0-.749.367l-.064.497c-.095.464-.193.76-.326 1.026-.137.275-.322.538-.624.935-.149.188-.357.385-.625.634l-.013.012c-.255.238-.551.515-.826.833-.569.658-1.071 1.52-1.071 2.727 0 .793.228 1.57.56 2.226.009.019.02.037.032.054zm1.236-4.353a9.9 9.9 0 0 1 .765-.768l.012-.011c.25-.233.516-.482.718-.739l.005-.007c.304-.401.541-.729.725-1.096.161-.322.273-.657.369-1.08 1.638 1.091 2.518 2.234 2.995 3.217A5.718 5.718 0 0 1 15.5 8.1c0 .659-.097 1.241-.421 1.72a4.123 4.123 0 0 1-.744.846 5.337 5.337 0 0 0-.541-1.126c-.365-.601-.951-1.052-1.489-1.37a.498.498 0 0 0-.718.242c-.067.166-.187.329-.367.518a8.232 8.232 0 0 1-.341.333c-.089.084-.185.173-.294.281l-.007.007c-.201.199-.433.428-.664.769a2.535 2.535 0 0 0-.212.378 4.03 4.03 0 0 1-.765-.852c-.268-.538-.438-1.15-.438-1.746 0-.893.359-1.531.828-2.073z"/><path d="M23 12.5c0-.965-.526-1.691-1.318-2.244-.776-.543-1.856-.959-3.102-1.329a.5.5 0 0 0-.285.959c1.225.363 2.176.744 2.813 1.19.622.435.891.89.891 1.425 0 .304-.172.679-.633 1.099-.457.415-1.148.825-2.052 1.187-1.805.722-4.364 1.214-7.314 1.214s-5.51-.492-7.314-1.214c-.904-.362-1.596-.772-2.052-1.187-.461-.419-.633-.795-.633-1.099 0-.535.269-.99.891-1.425.638-.446 1.588-.826 2.813-1.19a.5.5 0 1 0-.285-.959c-1.246.37-2.326.786-3.102 1.329C1.527 10.81 1 11.535 1 12.5c0 .079.005.158.015.235a.483.483 0 0 0-.015.121V18.5c0 .696.391 1.32.961 1.839.574.522 1.383.987 2.354 1.375C6.261 22.492 8.951 23 12.001 23s5.74-.508 7.686-1.286c.971-.388 1.779-.853 2.354-1.375.57-.518.961-1.142.961-1.839v-5.644a.478.478 0 0 0-.015-.121 1.83 1.83 0 0 0 .015-.235zm-1 6c0 .303-.172.679-.633 1.099-.457.415-1.148.825-2.052 1.187C17.51 21.508 14.951 22 12.001 22s-5.51-.492-7.314-1.214c-.904-.362-1.596-.772-2.052-1.187-.461-.419-.633-.795-.633-1.099v-4.126c.572.508 1.365.961 2.314 1.34C6.262 16.492 8.952 17 12.002 17s5.74-.508 7.686-1.286c.949-.379 1.742-.832 2.314-1.34V18.5z"/></svg>