<svg xmlns="http://www.w3.org/2000/svg" viewBox="0 0 24 24"><defs><style>.cls-1{fill:#363636;fill-rule:evenodd}</style></defs><g id="Camada_1"><path d="M21.816 16.73a19.903 19.903 0 0 0-.187-.694c-.323-1.15-.736-2.621-.736-5.745 0-2.368-.613-4.793-2.372-6.568C16.793 1.98 14.449 1 12.004 1s-4.789.98-6.516 2.723c-1.759 1.775-2.372 4.2-2.372 6.568 0 3.124-.413 4.595-.737 5.745a20.52 20.52 0 0 0-.187.694 5.623 5.623 0 0 0-.127 2.273c.125.904.454 2.04 1.084 3.677a.5.5 0 1 0 .933-.359c-.621-1.613-.917-2.664-1.027-3.455-.107-.771-.037-1.306.108-1.898.052-.211.113-.43.18-.666.327-1.161.773-2.746.773-6.011 0-2.214.573-4.342 2.082-5.864C7.739 2.873 9.827 2 12.004 2s4.266.872 5.806 2.427c1.509 1.522 2.082 3.651 2.082 5.864 0 3.266.446 4.85.773 6.011.066.236.128.454.18.666a4.65 4.65 0 0 1 .108 1.898c-.109.79-.406 1.842-1.027 3.455a.5.5 0 1 0 .933.359c.63-1.637.959-2.773 1.084-3.677a5.623 5.623 0 0 0-.127-2.273z" class="cls-1"/><path d="M17.167 14.802a2.406 2.406 0 0 1-.328-2.79l.421-.759a3.408 3.408 0 0 0-.394-3.872l-.005-.006-.008-.009-2.986-3.208a.5.5 0 0 0-.85.213c-.415 1.572-1.156 2.873-2.403 3.833-1.249.962-2.49 1.295-4.113 1.294a.499.499 0 0 0-.475.659l.826 2.474c.151.458.192.851.15 1.322-.049.543-.121.956-.35 1.261l-.155.206a.501.501 0 0 0-.035.548A6.868 6.868 0 0 0 8.499 18.2v1.299a1.5 1.5 0 0 1-1.5 1.5.5.5 0 0 0 0 1 2.5 2.5 0 0 0 2.5-2.5v-.72a6.856 6.856 0 0 0 2.467.639.514.514 0 0 0 .068 0 6.913 6.913 0 0 0 2.465-.643v.725a2.5 2.5 0 0 0 2.5 2.5.5.5 0 0 0 0-1 1.5 1.5 0 0 1-1.5-1.5v-1.303a6.927 6.927 0 0 0 2.135-2.385.5.5 0 0 0-.071-.576l-.398-.435zm-2.411 2.69a5.926 5.926 0 0 1-2.757.926 5.86 5.86 0 0 1-4.5-2.668c.377-.545.453-1.195.499-1.706a4.08 4.08 0 0 0-.196-1.727l-.614-1.839c1.491-.091 2.767-.505 4.036-1.482 1.218-.938 2.006-2.146 2.499-3.525l2.391 2.569a2.404 2.404 0 0 1 .273 2.727l-.421.759a3.403 3.403 0 0 0 .464 3.95l.15.164a5.934 5.934 0 0 1-1.823 1.852z" class="cls-1"/></g></svg>