<svg xmlns="http://www.w3.org/2000/svg" viewBox="0 0 24 24"><path d="M21.408 10.196l-.953-.944.484-.484c.473-.472.732-1.1.732-1.768s-.26-1.296-.732-1.768L18.767 3.06a2.5 2.5 0 0 0-3.535 0l-.508.508-.994-.986a2.007 2.007 0 0 0-2.812-.005L9.793 3.684A1.985 1.985 0 0 0 9.196 5.1a1.983 1.983 0 0 0 .583 1.42l1.993 2.003-3.238 3.238-1.998-1.98a2.008 2.008 0 0 0-2.812-.005l-1.125 1.108c-.382.376-.594.879-.596 1.416s.204 1.041.582 1.42l.991.996-.517.517a2.504 2.504 0 0 0 0 3.535l2.172 2.172c.472.473 1.1.732 1.768.732s1.296-.26 1.768-.732l.504-.504.972.976c.378.381.881.59 1.417.59h.016a1.99 1.99 0 0 0 1.423-.609l1.147-1.188a2.009 2.009 0 0 0-.03-2.811l-1.96-1.943 3.213-3.213 1.967 1.976c.379.38.882.589 1.418.589h.015a1.991 1.991 0 0 0 1.424-.609l1.146-1.188a2.007 2.007 0 0 0-.03-2.81zm-5.469-6.428a1.503 1.503 0 0 1 2.121 0l2.172 2.172c.283.283.439.66.439 1.061s-.156.777-.439 1.061l-.487.487-4.311-4.275.505-.505zM8.061 20.232c-.566.566-1.555.566-2.121 0L3.768 18.06a1.503 1.503 0 0 1 0-2.121l.515-.515 4.283 4.303-.505.505zm5.466-.723l-1.147 1.188a.996.996 0 0 1-.712.306 1.08 1.08 0 0 1-.716-.295l-7.657-7.692a.994.994 0 0 1-.291-.71c0-.269.107-.52.298-.708l1.125-1.108c.39-.383 1.02-.38 1.406.002l7.679 7.613c.387.383.394 1.013.016 1.404zm-1.981-4.762l-2.301-2.281 3.233-3.233 2.286 2.296-3.218 3.218zm9.174-2.436l-1.146 1.188a.995.995 0 0 1-.712.305.989.989 0 0 1-.717-.294l-7.656-7.693c-.189-.19-.293-.442-.292-.71s.107-.52.298-.708l1.125-1.107c.193-.191.448-.286.702-.286s.51.096.704.288l7.678 7.613c.387.383.394 1.014.016 1.405z"/></svg>