<svg xmlns="http://www.w3.org/2000/svg" viewBox="0 0 24 24"><path fill-rule="evenodd" d="M21.5 6A3.5 3.5 0 0 1 18 2.5a.5.5 0 0 0-1 0A3.5 3.5 0 0 1 13.5 6a.5.5 0 0 0 0 1 3.5 3.5 0 0 1 3.5 3.5.5.5 0 0 0 1 0A3.5 3.5 0 0 1 21.5 7a.5.5 0 0 0 0-1zm-4 2.437A4.522 4.522 0 0 0 15.563 6.5 4.528 4.528 0 0 0 17.5 4.563 4.522 4.522 0 0 0 19.437 6.5 4.528 4.528 0 0 0 17.5 8.437zM15 12.5a.5.5 0 0 0-.5-.5A5.5 5.5 0 0 1 9 6.5a.5.5 0 0 0-1 0A5.5 5.5 0 0 1 2.5 12a.5.5 0 0 0 0 1A5.5 5.5 0 0 1 8 18.5a.5.5 0 0 0 1 0 5.5 5.5 0 0 1 5.5-5.5.5.5 0 0 0 .5-.5zm-6.5 3.496A6.526 6.526 0 0 0 5.004 12.5 6.526 6.526 0 0 0 8.5 9.004a6.526 6.526 0 0 0 3.496 3.496A6.526 6.526 0 0 0 8.5 15.996zM19.5 18a2.5 2.5 0 0 1-2.5-2.5.5.5 0 0 0-1 0 2.5 2.5 0 0 1-2.5 2.5.5.5 0 0 0 0 1 2.5 2.5 0 0 1 2.5 2.5.5.5 0 0 0 1 0 2.5 2.5 0 0 1 2.5-2.5.5.5 0 0 0 0-1zm-3 1.696a3.518 3.518 0 0 0-1.196-1.196c.49-.295.901-.707 1.196-1.196.295.49.707.901 1.196 1.196-.49.295-.901.707-1.196 1.196z"/></svg>