<svg xmlns="http://www.w3.org/2000/svg" viewBox="0 0 24 24"><circle cx="16.001" cy="8" r="1.5"/><path d="M22.854 1.146a.502.502 0 0 0-.396-.145c-5.236.45-9.301 2.357-12.15 5l-3.307-.002a2.55 2.55 0 0 0-1.977.942l-.01.013L1.101 12.2a.5.5 0 0 0 .314.792l4.696.824 4.075 4.075.824 4.696a.499.499 0 0 0 .79.315l5.248-3.899.014-.011c.593-.475.94-1.193.94-1.953v-3.348C20.644 10.842 22.55 6.778 23 1.544a.496.496 0 0 0-.145-.396zM5.997 12.781l-3.61-.633L5.809 7.56A1.55 1.55 0 0 1 7 7h2.318a15.366 15.366 0 0 0-3.322 5.781zm11.004 4.257a1.5 1.5 0 0 1-.558 1.167l-4.59 3.41-.634-3.612A15.337 15.337 0 0 0 17 14.679v2.358zm-6.206.049l-3.882-3.882c1.581-5.313 6.588-10.221 15.03-11.149-.929 8.442-5.836 13.448-11.149 15.03z"/><path d="M7.721 19.202a.5.5 0 0 0-.67.225 3.675 3.675 0 0 1-.702.96c-.278.278-.707.53-1.233.749-.519.216-1.099.386-1.648.517-.529.126-1.021.213-1.388.269.056-.367.143-.858.269-1.387.13-.549.3-1.128.517-1.648.219-.526.471-.955.749-1.234.318-.318.642-.545.958-.701a.5.5 0 1 0-.443-.897c-.42.207-.833.5-1.223.891-.411.411-.724.977-.966 1.556a11.977 11.977 0 0 0-.566 1.801 18.882 18.882 0 0 0-.37 2.102l-.004.035v.01L1 22.453l.497.051.05.497h.004l.01-.001.035-.004.13-.015a18.895 18.895 0 0 0 1.973-.355c.58-.138 1.215-.323 1.801-.566.579-.241 1.145-.554 1.556-.965.39-.39.682-.803.89-1.222a.5.5 0 0 0-.225-.67z"/><path d="M1.002 22.453a.502.502 0 0 0 .548.548l-.05-.497-.497-.05z"/></svg>