<svg xmlns="http://www.w3.org/2000/svg" viewBox="0 0 24 24"><path d="M9.466 6.774l-.431 2.645a.498.498 0 0 0 .736.518l2.23-1.233 2.23 1.233a.5.5 0 0 0 .736-.518l-.431-2.645 1.824-1.869a.499.499 0 0 0-.283-.844l-2.5-.382-1.123-2.392a.5.5 0 0 0-.906 0l-1.123 2.392-2.5.382a.501.501 0 0 0-.283.844l1.824 1.869z" class="cls-1"/><path d="M20.451 9.285a.502.502 0 0 0-.284-.256c-.018-.006-.036-.012-.055-.016l-4.379-1.095.175 1.075 2.243.561-6.152 1.923-6.152-1.923 2.243-.561.175-1.075-4.376 1.094a.5.5 0 0 0-.337.264l-1.5 3a.5.5 0 0 0 .272.691L4 13.595v5.904c0 .205.124.388.314.464l7.497 2.999c.119.048.253.05.374 0l7.5-3a.5.5 0 0 0 .314-.464v-5.904l1.676-.628a.503.503 0 0 0 .272-.691l-1.496-2.992zM3.196 12.227l1.061-2.123 7.065 2.208-1.094 2.552-7.033-2.637zm8.304 9.534l-6.5-2.6v-5.19l5.324 1.997a.5.5 0 0 0 .635-.271l.54-1.261v7.326zm7.5-2.6l-6.5 2.6v-7.326l.54 1.261a.5.5 0 0 0 .635.271l5.324-1.997v5.19zm-5.229-4.297l-1.094-2.552 7.065-2.208 1.061 2.123-7.033 2.637z" class="cls-1"/><circle cx="2" cy="7" r="1" class="cls-1"/><circle cx="22" cy="2" r="1" class="cls-1"/><path d="M3.5 3.5a1 1 0 0 1 1 1 .5.5 0 0 0 1 0 1 1 0 0 1 1-1 .5.5 0 0 0 0-1 1 1 0 0 1-1-1 .5.5 0 0 0-1 0 1 1 0 0 1-1 1 .5.5 0 0 0 0 1zM17.5 6.5a1 1 0 0 1 1 1 .5.5 0 0 0 1 0 1 1 0 0 1 1-1 .5.5 0 0 0 0-1 1 1 0 0 1-1-1 .5.5 0 0 0-1 0 1 1 0 0 1-1 1 .5.5 0 0 0 0 1z" class="cls-1"/></svg>