<svg xmlns="http://www.w3.org/2000/svg" viewBox="0 0 24 24"><path d="M0 0h24v24H0z"/><path fill-rule="evenodd" d="M12.09 4a2.41 2.41 0 0 0-2.4 2.4v.76h4.81v-.73A2.42 2.42 0 0 0 12.09 4zm-3.4 5.5V8.19h-2L5.82 19.4v.07a.47.47 0 0 0 .47.47h11.56c.35-.07.46-.34.43-.47s0 0 0-.06l-.84-11.22H15.5V9.5a.5.5 0 0 1-.5.5.5.5 0 0 1-.5-.5V8.19H9.69V9.5a.5.5 0 0 1-.5.5.5.5 0 0 1-.5-.5zm0-3.07v.76h-2.5a.5.5 0 0 0-.5.46l-.87 11.69v.13a1.47 1.47 0 0 0 1.47 1.47H18a1.47 1.47 0 0 0 1.29-1.62L18.4 7.65a.5.5 0 0 0-.5-.46h-2.4v-.76a3.41 3.41 0 0 0-6.81 0zm6.16 5.22a.48.48 0 0 1 0 .7l-2.14 2.15 2.14 2.15a.49.49 0 1 1-.7.7L12 15.21l-2.15 2.14a.49.49 0 0 1-.7-.7l2.14-2.15-2.14-2.15a.49.49 0 0 1 .7-.7L12 13.79l2.15-2.14a.48.48 0 0 1 .7 0z"/></svg>