<svg xmlns="http://www.w3.org/2000/svg" viewBox="0 0 24 24"><path d="M20.2 10.3h-.4v-.5c0-.8-.6-1.4-1.4-1.4H18c0-.7-.6-1.3-1.4-1.3-.7 0-1.3.6-1.3 1.3 0-.3.1-.5.1-.8.1-3-2.2-5.6-5.2-5.7-3-.1-5.6 2.2-5.7 5.2v1c-.6.3-1 1-1 1.7 0 .4.1.8.3 1.1l-.1.1c-.3.6-.4 1.2-.3 1.9.1.7.4 1.3.8 1.8-1.2 1.4-1.8 3.1-1.8 4.9 0 .3.2.5.5.5s.5-.2.5-.5c0-3.6 2.9-6.5 6.5-6.6.7 0 1.4.1 2 .3v3.5c0 2.6 2.1 4.8 4.8 4.8s4.8-2.1 4.8-4.8v-5.2c.1-.7-.5-1.3-1.3-1.3zm-10.1 1.8c-1.7 0-3-1.3-3-3 0-.5.1-1 .4-1.5 1 0 2-.5 2.7-1.2.7.7 1.6 1.2 2.6 1.2.3.4.4 1 .4 1.5-.1 1.7-1.5 3-3.1 3zm3.6-.5h-.5c.2-.2.4-.5.5-.8v.8zM4.9 11c0-.1-.1-.3-.1-.4-.1-.2-.2-.4-.2-.6 0-.2.1-.6.8-1 .2-.1.3-.3.2-.5v-.7c-.1-2.5 1.8-4.6 4.2-4.7 2.5-.1 4.6 1.8 4.7 4.3v.4c0 .2 0 .4-.1.6v.2c-.1.1-.2.1-.3.2 0-.7-.3-1.4-.7-2.1-.1-.1-.3-.2-.5-.2-1 0-1.9-.5-2.4-1.3-.2-.1-.5-.1-.7 0l-.1.1c-.6.9-1.5 1.4-2.5 1.3-.2 0-.4.1-.5.2-1.2 1.9-.7 4.3 1.1 5.6-1 .3-2 .9-2.8 1.6-.3-.3-.5-.7-.5-1.1 0-.4.1-.9.2-1.3 0 0 .2-.4.2-.6zm15.6 5.9c0 2.1-1.7 3.8-3.8 3.8S13 19 13 16.9v-4c0-.2.2-.4.4-.4s.4.2.4.4v2.8c0 .2.2.5.4.5.1 0 2.2.4 2.2 2.2 0 .3.2.5.5.5s.5-.2.5-.5c0-1.5-1.1-2.8-2.6-3.1V9.7c0-.2.1-.3.3-.3.2 0 .4.1.4.3v4.6c0 .3.2.5.5.5s.5-.2.5-.5V8.6c0-.2.2-.4.4-.4s.4.2.4.4v5.7c0 .3.2.5.5.5s.5-.2.5-.5V9.8c0-.2.2-.4.4-.4s.4.2.4.4v4.5c0 .3.2.5.5.5s.5-.2.5-.5v-2.8c0-.1.1-.3.3-.3.2 0 .4.1.4.3-.3.4-.3 5.4-.3 5.4z"/></svg>