<svg xmlns="http://www.w3.org/2000/svg" viewBox="0 0 24 24"><defs><style>.cls-1{fill:#363636;fill-rule:evenodd}</style></defs><g id="Camada_1"><path d="M19.854 4.146C18.457 2.749 16.45 2 14.5 2a.5.5 0 0 0-.5.5V9H5V6.5A2.5 2.5 0 0 0 2.5 4a.5.5 0 0 0 0 1A1.5 1.5 0 0 1 4 6.5V11.501a4.5 4.5 0 0 0 4.5 4.5h9a4.5 4.5 0 0 0 4.5-4.5v-2c0-1.95-.75-3.957-2.146-5.354zM15 3.019c1.545.115 3.071.759 4.146 1.835C20.222 5.93 20.866 7.455 20.981 9H15V3.019zm6 8.481a3.5 3.5 0 0 1-3.5 3.5h-9A3.5 3.5 0 0 1 5 11.5V10h16v1.5zM8.5 17a2.5 2.5 0 1 0 0 5 2.5 2.5 0 0 0 0-5zm0 4a1.5 1.5 0 1 1 .001-3.001A1.5 1.5 0 0 1 8.5 21zM17.5 17a2.5 2.5 0 1 0 0 5 2.5 2.5 0 0 0 0-5zm0 4a1.5 1.5 0 1 1 .001-3.001A1.5 1.5 0 0 1 17.5 21z" class="cls-1"/></g></svg>