<svg xmlns="http://www.w3.org/2000/svg" viewBox="0 0 24 24"><path d="M12 1C5.935 1 1 5.935 1 12s4.935 11 11 11 11-4.935 11-11S18.065 1 12 1zm0 1c3.774 0 7.065 2.103 8.767 5.198-.429.347-.668.992-.846 1.675a6.134 6.134 0 0 1-.303.919 6.152 6.152 0 0 1-.303-.918C19.061 7.901 18.731 7 18.046 7s-1.015.9-1.27 1.874a6.064 6.064 0 0 1-.302.918 5.92 5.92 0 0 1-.303-.918C15.917 7.901 15.587 7 14.901 7s-1.015.9-1.269 1.874a6.064 6.064 0 0 1-.302.918 5.92 5.92 0 0 1-.303-.918c-.255-.973-.585-1.873-1.27-1.873s-1.015.9-1.27 1.874a5.95 5.95 0 0 1-.302.918 6.064 6.064 0 0 1-.302-.918c-.255-.973-.585-1.873-1.27-1.873s-1.015.9-1.27 1.873a6.024 6.024 0 0 1-.302.918 5.95 5.95 0 0 1-.302-.918c-.255-.973-.585-1.873-1.27-1.873s-1.015.9-1.27 1.874a5.95 5.95 0 0 1-.302.918 6.064 6.064 0 0 1-.302-.918l-.073-.284c-.145-.569-.265-1.019-.364-1.261 1.681-3.166 5.008-5.328 8.835-5.328zM2.544 8.774l.016.063.074.29C2.889 10.1 3.219 11 3.904 11s1.014-.9 1.269-1.873c.121-.463.225-.747.302-.919.077.172.181.456.302.918.255.973.585 1.874 1.269 1.874.684 0 1.015-.9 1.27-1.873.121-.462.225-.746.302-.918.077.172.181.456.302.918.255.973.585 1.873 1.27 1.873s1.014-.9 1.269-1.873c.121-.463.225-.747.302-.918.078.172.181.456.303.918.254.973.584 1.874 1.269 1.874s1.016-.9 1.27-1.874c.121-.462.225-.746.302-.918.078.172.182.456.303.918.255.973.585 1.873 1.27 1.873s1.015-.9 1.269-1.873a5.92 5.92 0 0 1 .303-.918c.077.172.181.456.302.918.255.973.585 1.873 1.27 1.873s1.015-.9 1.27-1.874c.133-.509.252-.8.343-.967a9.943 9.943 0 0 1 .259 6.973c-.025-.087-.055-.174-.078-.26-.254-.973-.584-1.873-1.269-1.873s-1.016.9-1.27 1.873a6.089 6.089 0 0 1-.302.919 5.944 5.944 0 0 1-.303-.919c-.255-.973-.585-1.873-1.27-1.873s-1.015.9-1.269 1.873a6.134 6.134 0 0 1-.303.919 6.134 6.134 0 0 1-.303-.919c-.254-.973-.584-1.873-1.269-1.873s-1.015.9-1.27 1.873a6.024 6.024 0 0 1-.302.918 5.802 5.802 0 0 1-.302-.918c-.255-.973-.585-1.873-1.269-1.873-.684 0-1.015.9-1.27 1.873a6.024 6.024 0 0 1-.302.918 6.024 6.024 0 0 1-.302-.918c-.255-.973-.585-1.873-1.27-1.873s-1.015.9-1.27 1.873a5.973 5.973 0 0 1-.302.919 6.089 6.089 0 0 1-.302-.919c-.255-.973-.585-1.873-1.27-1.873s-1.015.9-1.288 1.944c-.09.346-.207.784-.333.988a9.938 9.938 0 0 1-.808-3.933c0-1.13.197-2.212.544-3.226zM12 22c-3.748 0-7.017-2.076-8.729-5.135.477-.315.659-.984.856-1.738.121-.463.225-.746.302-.918.077.172.181.455.302.918.255.973.585 1.873 1.27 1.873s1.014-.9 1.269-1.873c.121-.463.225-.747.302-.919.077.172.181.456.302.919.255.973.585 1.873 1.27 1.873s1.015-.9 1.27-1.873c.121-.463.225-.746.302-.918.078.172.181.455.302.918.255.973.586 1.873 1.27 1.873s1.015-.9 1.269-1.873c.121-.463.225-.746.303-.918.077.172.181.455.302.918.255.973.585 1.873 1.27 1.873s1.015-.9 1.27-1.873c.121-.463.225-.746.302-.918.078.172.182.455.303.918.254.973.584 1.873 1.27 1.873s1.015-.9 1.269-1.873c.121-.463.225-.746.302-.918.078.175.184.464.308.938.09.342.217.8.523 1.238C19.35 19.704 15.945 22 12.006 22z" class="cls-1"/></svg>