<svg xmlns="http://www.w3.org/2000/svg" viewBox="0 0 24 24"><path d="M18.93 13.58a3.62 3.62 0 0 1-2.29.83h-1.55v2.21a3.42 3.42 0 0 1-3.48 3.26 1.07 1.07 0 0 1-.72-.28.91.91 0 0 1-.3-.67v-3.52a1.05 1.05 0 0 0-1.11-1 .52.52 0 0 1-.54-.5V6.18a.48.48 0 0 1 .22-.41l1.99-1.37a2 2 0 0 1 .94-.28h3.39a2.47 2.47 0 0 1 2.36 1.57l2 4.54a3.07 3.07 0 0 1-.91 3.35zm-.1-3l-2-4.58a1.41 1.41 0 0 0-1.36-.91h-3.35a.94.94 0 0 0-.36.11L10 6.43l.05 7a2 2 0 0 1 1.66 2l-.05 3.46A2.36 2.36 0 0 0 14 16.61V13.9a.53.53 0 0 1 .53-.5h2.09a2.46 2.46 0 0 0 1.56-.56 2.1 2.1 0 0 0 .62-2.26zM7 14.36H5a1 1 0 0 1-.71-.28.93.93 0 0 1-.29-.68V6.57a1 1 0 0 1 1-1h2a1 1 0 0 1 1 1v6.84a1 1 0 0 1-1 .95zM5.08 6.58L5 13.35l2 .05V6.63z" data-name="vector like"/></svg>