<svg xmlns="http://www.w3.org/2000/svg" viewBox="0 0 24 24"><path d="M20.3 19.5l-1-12c0-.3-.2-.5-.5-.5h-2.9v-.6c0-1.3-.4-2.3-1.1-2.9-1.2-1.1-2.9-1-2.9-1-1.2 0-2.1.4-2.8 1.1-1.1 1.1-1 2.7-1 2.8V7H5.2c-.3 0-.5.2-.5.4l-1 12c0 .1-.2.9.3 1.5.2.3.6.5 1.3.5h13.3c.7 0 1.1-.3 1.3-.5.6-.6.4-1.4.4-1.4zM9.1 6.3s0-1.2.7-2.1c.5-.5 1.2-.7 2.1-.7 0 0 1.3-.1 2.2.7.5.5.8 1.2.8 2.2V7H9.1v-.7zm10.1 14c-.1.1-.3.2-.5.2H5.4c-.3 0-.4-.1-.5-.2-.2-.2-.1-.6-.1-.8L5.6 8H8v1.6c0 .3.2.5.5.5s.5-.2.5-.5V8h5.8v1.6c0 .3.2.5.5.5s.5-.2.5-.5V8h2.4l.9 11.6c.2.1.2.5.1.7z"/><circle cx="8.6" cy="12.7" r="1"/><circle cx="15.4" cy="12.7" r="1"/><path d="M9.2 16.9c-.1.1-.1.2 0 .4.1.1.2.1.4 0 .1-.1 2.3-1.8 5.1 0h.1c.1 0 .2 0 .2-.1.1-.1 0-.3-.1-.3-3.1-2-5.7 0-5.7 0z"/></svg>