<svg xmlns="http://www.w3.org/2000/svg" viewBox="0 0 24 24"><defs><style>.cls-1{fill:#363636;fill-rule:evenodd}</style></defs><g id="Camada_1"><path d="M19.917 10.143a2.5 2.5 0 0 0-4.325-2.258L15 7.293V1.5a.5.5 0 0 0-.5-.5h-4a.5.5 0 0 0-.5.5v5.793L8.318 8.975A4.5 4.5 0 0 0 7 12.157V13a2 2 0 0 0-1.737 1.007C4.031 14.159 3 15.207 3 16.5a2.5 2.5 0 0 0 3.171 2.409c.159.509.448.961.829 1.313V21.5A1.5 1.5 0 0 0 8.5 23h8a1.5 1.5 0 0 0 1.5-1.5v-5.671a3 3 0 1 0 1.917-5.686zM11 2h3v3h-3V2zM7.044 18.219a.81.81 0 0 0-.008-.052.5.5 0 0 0-.758-.385A1.5 1.5 0 0 1 4 16.499c0-.81.723-1.512 1.57-1.512.067 0 .13-.013.188-.037a.501.501 0 0 0 .303-.298 1 1 0 0 1 1.881.68.502.502 0 0 0-.011.299.5.5 0 0 0 .61.421 1.987 1.987 0 0 1 1.667.354 1.998 1.998 0 0 1 .426 2.745.528.528 0 0 0-.076.1 1.997 1.997 0 0 1-1.56.748c-1.023 0-1.847-.771-1.956-1.781zM11 15.764V12h3v7h-2.171A2.992 2.992 0 0 0 11 15.764zm6 5.736a.5.5 0 0 1-.5.5h-8a.5.5 0 0 1-.5-.5v-.672A2.992 2.992 0 0 0 11.236 20H14.5a.5.5 0 0 0 .5-.5v-8a.5.5 0 0 0-.5-.5h-4a.5.5 0 0 0-.5.5v3.671A2.988 2.988 0 0 0 9 15c0-.74-.402-1.386-1-1.732v-1.111c0-.928.369-1.819 1.025-2.475l1.828-1.828a.5.5 0 0 0 .146-.354V6h3v1.5c0 .133.053.26.146.354l1.828 1.828a3.502 3.502 0 0 1 1.025 2.475V21.5zm2-6.5a1.98 1.98 0 0 1-1-.268v-2.576a4.499 4.499 0 0 0-1.318-3.182l-.379-.379a1.5 1.5 0 0 1 2.511 1.628l-.015.028a.5.5 0 0 0 .383.756 2 2 0 0 1-.183 3.992zM20 6a2 2 0 1 0 .001-3.999A2 2 0 0 0 20 6zm0-3a1 1 0 1 1 0 2 1 1 0 0 1 0-2z" class="cls-1"/><path d="M5 11.5a1.5 1.5 0 1 0-3.001.001A1.5 1.5 0 0 0 5 11.5zm-2 0a.5.5 0 1 1 1 0 .5.5 0 0 1-1 0z" class="cls-1"/></g></svg>