<svg xmlns="http://www.w3.org/2000/svg" viewBox="0 0 24 24"><path d="M4.5 3.5a1 1 0 0 1 1 1 .5.5 0 0 0 1 0 1 1 0 0 1 1-1 .5.5 0 0 0 0-1 1 1 0 0 1-1-1 .5.5 0 0 0-1 0 1 1 0 0 1-1 1 .5.5 0 0 0 0 1zM22.854 3.755C21.649 2.55 20.117 2.009 18.5 2.009c-1.637 0-3.154.655-4.336 1.73a.499.499 0 0 0-.117.58l2.455 5.302.499 10.892c.003.456.203.804.471 1.071.128.129.277.24.461.315.183.074.372.101.568.101.444 0 .779-.161 1.065-.446.305-.305.432-.732.435-1.041l.493-10.88 2.461-5.315a.501.501 0 0 0-.1-.564zM19 20.477v.023a.543.543 0 0 1-.037.173.497.497 0 0 1-.105.173c-.115.115-.202.154-.357.154a.49.49 0 0 1-.192-.028.384.384 0 0 1-.131-.096c-.13-.13-.178-.24-.178-.377v-.023l-.48-10.469h1.955L19 20.476zm.68-11.469h-2.361l-2.207-4.767c.294-.237.606-.443.934-.616l.91 1.902a.5.5 0 0 0 .902-.432l-.887-1.855a5.16 5.16 0 0 1 1.529-.233c1.269 0 2.441.386 3.394 1.218L19.68 9.007zM5 12a2 2 0 1 0-.001 3.999A2 2 0 0 0 5 12zm0 3a1 1 0 1 1 0-2 1 1 0 0 1 0 2zM10 12a2 2 0 1 0-.001 3.999A2 2 0 0 0 10 12zm0 3a1 1 0 1 1 0-2 1 1 0 0 1 0 2zM10 17a2 2 0 1 0-.001 3.999A2 2 0 0 0 10 17zm0 3a1 1 0 1 1 0-2 1 1 0 0 1 0 2zM5 17a2 2 0 1 0-.001 3.999A2 2 0 0 0 5 17zm0 3a1 1 0 1 1 0-2 1 1 0 0 1 0 2z" class="cls-1"/><path d="M12.5 10.001h-10a1.5 1.5 0 0 0-1.5 1.5v10a1.5 1.5 0 0 0 1.5 1.5h10a1.5 1.5 0 0 0 1.5-1.5v-10a1.5 1.5 0 0 0-1.5-1.5zm.5 11.5a.5.5 0 0 1-.5.5h-10a.5.5 0 0 1-.5-.5v-10a.5.5 0 0 1 .5-.5h10a.5.5 0 0 1 .5.5v10zM9.5 6.5a1 1 0 0 1 1 1 .5.5 0 0 0 1 0 1 1 0 0 1 1-1 .5.5 0 0 0 0-1 1 1 0 0 1-1-1 .5.5 0 0 0-1 0 1 1 0 0 1-1 1 .5.5 0 0 0 0 1z" class="cls-1"/></svg>