<svg xmlns="http://www.w3.org/2000/svg" viewBox="0 0 24 24"><path d="M22.5 9a.5.5 0 0 0 .5-.5v-6c0-.827-.673-1.5-1.5-1.5h-6a.5.5 0 0 0-.5.5V8H9V1.5a.5.5 0 0 0-.5-.5h-6C1.673 1 1 1.673 1 2.5v6a.5.5 0 0 0 .5.5H8v6H1.5a.5.5 0 0 0-.5.5v6c0 .827.673 1.5 1.5 1.5h6a.5.5 0 0 0 .5-.5V16h6v6.5a.5.5 0 0 0 .5.5h6c.827 0 1.5-.673 1.5-1.5v-6a.5.5 0 0 0-.5-.5H16V9h6.5zM16 2h5.5a.5.5 0 0 1 .5.5V8h-6V2zM2 2.5a.5.5 0 0 1 .5-.5H8v6H2V2.5zM8 22H2.5a.5.5 0 0 1-.5-.5V16h6v6zM9 9h6v6H9V9zm13 12.5c0 .275-.225.5-.5.5H16v-6h6v5.5z" class="cls-1"/></svg>