<svg xmlns="http://www.w3.org/2000/svg" viewBox="0 0 24 24"><path d="M0 0h24v24H0z"/><path fill-rule="evenodd" d="M12.41 4a.5.5 0 0 0 0 1h3.94L12 11.78a.52.52 0 0 0 0 .51.51.51 0 0 0 .44.26h4.86a.5.5 0 0 0 .5-.5.5.5 0 0 0-.5-.5h-3.97l4.36-6.78a.49.49 0 0 0 0-.51.51.51 0 0 0-.42-.26zM5.5 11.5A.5.5 0 0 1 6 11h3.21a.5.5 0 0 1 .43.25.49.49 0 0 1 0 .51l-2.76 4.58h2.33a.51.51 0 0 1 .5.5.5.5 0 0 1-.5.5H6a.47.47 0 0 1-.43-.25.5.5 0 0 1 0-.5L8.32 12H6a.5.5 0 0 1-.5-.5zm7 5a.5.5 0 0 1 .5-.5h2.25a.52.52 0 0 1 .45.27.51.51 0 0 1 0 .52L14 19.11h1.27a.5.5 0 0 1 0 1H13a.52.52 0 0 1-.45-.27.49.49 0 0 1 0-.52L14.27 17H13a.5.5 0 0 1-.5-.5z"/></svg>