<svg xmlns="http://www.w3.org/2000/svg" viewBox="0 0 24 24"><path d="M11 22H3V11.045c0-.923.257-1.843.622-2.756a6.63 6.63 0 0 0 .37-1.197c.1-.539.097-1.211.075-1.723a14.418 14.418 0 0 0-.021-.368h5.909c-.008.112-.015.236-.021.368-.023.512-.025 1.184.075 1.723.072.39.217.816.37 1.197.365.913.622 1.833.622 2.756v1.205l1-.268v-.937c0-1.104-.306-2.159-.693-3.127a5.708 5.708 0 0 1-.315-1.009c-.078-.421-.081-.999-.059-1.497.011-.244.027-.459.04-.613l.017-.18.005-.047V4.56l.002-.003A.498.498 0 0 0 10.502 4h-.5V2h2.499a.5.5 0 0 0 0-1H3.5a.5.5 0 0 0 0 1H4v2h-.5a.5.5 0 0 0-.496.557v.003l.002.012.005.047.017.18c.013.154.03.369.04.613.022.498.019 1.076-.059 1.497a5.733 5.733 0 0 1-.315 1.009c-.387.969-.693 2.024-.693 3.127V22.5a.5.5 0 0 0 .5.5h9a.5.5 0 0 0 .5-.5V20h-1v2zM5 2h4v2H5V2zM17.911 13.299l-1.543-.414a.5.5 0 1 0-.258.966l2.732.732a.5.5 0 0 0 .612-.353l.732-2.732a.5.5 0 1 0-.966-.258l-.426 1.589-2.361-4.078a.5.5 0 0 0-.866 0l-1.449 2.5a.499.499 0 1 0 .865.501l1.016-1.753 1.911 3.302z" class="cls-1"/><path d="M14.164 12.955a.5.5 0 0 0-.612-.354l-2.732.732a.5.5 0 0 0 .258.966l1.51-.404-2.521 4.354a.5.5 0 0 0 .433.75h3a.5.5 0 0 0 0-1h-2.133l2.128-3.676.435 1.622a.5.5 0 0 0 .966-.258l-.732-2.732zM21.933 18.25l-1.449-2.516a.5.5 0 0 0-.867.499l1.017 1.766h-3.928l1.146-1.146a.5.5 0 0 0-.707-.707l-2 2a.508.508 0 0 0-.147.35v.006a.49.49 0 0 0 .147.35l2 2a.5.5 0 0 0 .707-.707l-1.146-1.146h4.793a.499.499 0 0 0 .433-.75z" class="cls-1"/></svg>