<svg xmlns="http://www.w3.org/2000/svg" viewBox="0 0 24 24"><defs><style>.cls-1{fill:#363636;fill-rule:evenodd}</style></defs><g id="Camada_1"><path d="M19.696 2.12l.875-.125a.5.5 0 1 0-.142-.99l-.875.125a.5.5 0 1 0 .142.99zM17.804 1.38l-1.75.25a.5.5 0 1 0 .142.99l1.75-.25a.5.5 0 1 0-.142-.99zM14.304 1.88l-.875.125a.5.5 0 1 0 .142.99l.875-.125a.5.5 0 1 0-.142-.99zM14.446 4.13l-.875-.125a.5.5 0 0 0-.142.99l.875.125a.5.5 0 0 0 .142-.99zM17.946 4.63l-1.75-.25a.5.5 0 0 0-.142.99l1.75.25a.5.5 0 0 0 .142-.99zM20.571 5.005l-.875-.125a.5.5 0 0 0-.142.99l.875.125a.5.5 0 0 0 .142-.99zM10.066 8.482A.503.503 0 0 1 10 8.234V7h.5a.5.5 0 0 0 .5-.5v-3a.5.5 0 0 0-.5-.5H10V1.5a.5.5 0 0 0-.5-.5h-4a.5.5 0 0 0-.5.5V3h-.5a.5.5 0 0 0-.5.5v3a.5.5 0 0 0 .5.5H5v1.234a.5.5 0 0 1-.066.248l-1.737 3.039c-.13.227-.198.483-.198.744v9.234a1.5 1.5 0 0 0 1.5 1.5h6a1.5 1.5 0 0 0 1.5-1.5v-9.234c0-.261-.068-.518-.198-.744l-1.737-3.039zM6 2h3v1H6V2zM5 4h5v2H5V4zm6 17.5a.5.5 0 0 1-.5.5h-6a.5.5 0 0 1-.5-.5v-9.234a.5.5 0 0 1 .066-.248l1.737-3.039c.13-.227.198-.483.198-.744V7.001h3v1.234c0 .261.068.518.198.744l1.736 3.039a.503.503 0 0 1 .066.248V21.5z" class="cls-1"/></g></svg>