<svg xmlns="http://www.w3.org/2000/svg" viewBox="0 0 24 24"><path d="M18.5 14h-3.748l.245-2.45a.494.494 0 0 0-.126-.385c-.007-.007-.017-.01-.024-.017.095-.197.153-.415.153-.647 0-.386-.15-.734-.39-1 .24-.266.39-.614.39-1 0-.827-.673-1.5-1.5-1.5h-.113c.067-.328.113-.661.113-1 0-2.757-2.243-5-5-5S3.5 3.243 3.5 6c0 .338.046.671.113 1H3.5C2.673 7 2 7.673 2 8.5c0 .386.15.734.39 1-.24.266-.39.614-.39 1 0 .233.058.451.153.648-.007.007-.017.01-.024.017a.499.499 0 0 0-.127.385l.82 8.199A2.493 2.493 0 0 0 5.31 22H9v.5a.5.5 0 0 0 .5.5h12a.5.5 0 0 0 .5-.5v-5c0-1.93-1.57-3.5-3.5-3.5zm-14-8c0-2.206 1.794-4 4-4s4 1.794 4 4a4 4 0 0 1-.138 1H4.638A4.006 4.006 0 0 1 4.5 6zm-1 2h10a.5.5 0 0 1 0 1H13a.5.5 0 0 0 0 1h.5a.5.5 0 0 1 0 1h-10a.5.5 0 0 1 0-1H4a.5.5 0 0 0 0-1h-.5a.5.5 0 0 1 0-1zm1.81 13a1.496 1.496 0 0 1-1.493-1.351L3.052 12h10.895l-.2 2H12.5C10.57 14 9 15.57 9 17.5V21H5.31zM21 22H10v-4.5c0-1.379 1.122-2.5 2.5-2.5h6c1.379 0 2.5 1.121 2.5 2.5V22z"/></svg>