<svg xmlns="http://www.w3.org/2000/svg" viewBox="0 0 24 24"><defs><style>.cls-1{fill:#363636}</style></defs><g id="Camada_1"><path d="M12.5 6a2.5 2.5 0 1 0 0-5 2.5 2.5 0 0 0 0 5zm0-4a1.5 1.5 0 1 1-.001 3.001A1.5 1.5 0 0 1 12.5 2zM17.349 16.833a4.477 4.477 0 0 0-1.544-6.178l-.44-1.76A2.502 2.502 0 0 0 12.939 7h-1.2c-.949 0-1.814.536-2.239 1.383l-.999 1.999a1.5 1.5 0 0 0 .671 2.013l3.106 1.553a.5.5 0 0 0 .447-.895L9.619 11.5a.5.5 0 0 1-.223-.671l.999-1.998A1.505 1.505 0 0 1 11.74 8h1.2c.688 0 1.289.469 1.456 1.137l.492 1.969a.501.501 0 0 0 .251.321 3.476 3.476 0 0 1 1.261 5.036.504.504 0 0 0-.072.403l.534 2.135H9.104l.49-2.635a.5.5 0 1 0-.983-.183l-.6 3.226a.5.5 0 0 0 .492.591h2.5v2.5a.5.5 0 0 0 .5.5h1a.5.5 0 0 0 .474-.342L13.863 20h3.64a.5.5 0 0 0 .485-.621l-.637-2.546z" class="cls-1"/></g></svg>