<svg xmlns="http://www.w3.org/2000/svg" viewBox="0 0 24 24"><defs><style>.cls-1{fill:#363636;fill-rule:evenodd}</style></defs><g id="Camada_1"><path d="M14 3.5a.5.5 0 0 0-.5-.5h-12a.5.5 0 0 0-.5.5v5c0 1.023.438 1.94 1.042 2.72.604.78 1.397 1.453 2.169 2A17.832 17.832 0 0 0 7 14.824v5.175H3.5a.5.5 0 0 0 0 1h8a.5.5 0 0 0 0-1H8v-5.175a17.832 17.832 0 0 0 2.789-1.604c.772-.547 1.565-1.221 2.169-2C13.562 10.44 14 9.522 14 8.5v-5zm-1.833 7.108c-.521.673-1.228 1.281-1.956 1.797a16.767 16.767 0 0 1-2.661 1.527l-.049.023-.049-.023a16.767 16.767 0 0 1-2.661-1.527c-.728-.516-1.435-1.123-1.956-1.797-.401-.518-.678-1.056-.784-1.608h10.903c-.106.552-.383 1.09-.784 1.608zM13 8H2V4h11v4zM22.792 8.094a.5.5 0 0 0-.451-.069l-6 2a.5.5 0 0 0-.342.474v4.668a1.75 1.75 0 1 0 1 1.624V13.36l5-1.667v1.975a1.75 1.75 0 1 0 1 1.662v-4.314-2.517a.499.499 0 0 0-.208-.406zM15.25 17.5a.75.75 0 1 1 0-1.5.75.75 0 0 1 0 1.5zm6-1.5a.75.75 0 1 1 0-1.5.75.75 0 0 1 0 1.5zm.75-5.36l-5 1.667v-1.446l5-1.667v1.446z" class="cls-1"/></g></svg>