<svg xmlns="http://www.w3.org/2000/svg" viewBox="0 0 24 24"><path d="M22.274 1.692a.526.526 0 0 0-.374-.117c-1.683.17-3.892.671-5.908 1.341a.504.504 0 0 0-.327.35l-.877 3.406-1.392-2.285a.501.501 0 0 0-.637-.193c-2.077.964-3.858 2.088-5.293 3.343-1.6 1.398-2.64 3.62-2.713 5.8-.052 1.547.381 2.937 1.223 3.973L1.63 21.656a.5.5 0 0 0 .708.707l4.367-4.367c.868.672 2.035 1.05 3.399 1.05.121 0 .243-.003.367-.009 2.68-.123 5.488-1.498 7.156-3.503 1.999-2.403 4.956-11.135 4.822-13.49a.498.498 0 0 0-.175-.352zm-5.417 13.204c-1.473 1.771-4.058 3.034-6.433 3.143-1.226.064-2.259-.218-3.008-.754l5.947-5.947a.5.5 0 0 0-.707-.707l-5.952 5.952c-.646-.84-.994-1.949-.952-3.211.064-1.912.973-3.859 2.372-5.081 1.271-1.111 2.835-2.118 4.653-2.998l1.773 2.912a.501.501 0 0 0 .911-.136l1.104-4.288c1.656-.534 3.416-.946 4.867-1.143-.266 2.741-2.899 10.242-4.575 12.258z"/></svg>