<svg xmlns="http://www.w3.org/2000/svg" viewBox="0 0 24 24"><path d="M11 22a7 7 0 1 1 5.601-11.2.5.5 0 1 0 .8-.601 8.025 8.025 0 0 0-3.516-2.664c.973-.151 1.855-.376 2.598-.661.712-.273 1.323-.61 1.764-1.01.441-.4.754-.903.754-1.49s-.312-1.09-.754-1.49c-.441-.4-1.052-.737-1.764-1.01-1.428-.547-3.366-.875-5.482-.875s-4.055.328-5.482.875c-.712.273-1.323.61-1.764 1.01-.441.4-.754.903-.754 1.49s.312 1.09.754 1.49c.441.4 1.052.737 1.764 1.01.743.285 1.625.51 2.598.661a8.002 8.002 0 0 0 2.885 15.464.5.5 0 0 0 0-1zM5.876 5.941c-.645-.247-1.133-.529-1.451-.817C4.107 4.836 4 4.582 4 4.375s.107-.461.425-.749.805-.57 1.451-.817C7.163 2.316 8.974 2 11 2s3.838.316 5.124.809c.645.247 1.133.529 1.451.817.318.288.425.542.425.749s-.107.461-.425.749-.805.57-1.451.817c-1.287.493-3.098.809-5.124.809s-3.837-.316-5.124-.809z"/><path d="M16.5 12a5.5 5.5 0 1 0 0 11 5.5 5.5 0 1 0 0-11zm0 10a4.5 4.5 0 1 1 0-9 4.5 4.5 0 0 1 0 9z"/><path d="M11 11.5c.445 0 .87.083 1.26.234a.499.499 0 1 0 .36-.933 4.5 4.5 0 0 0-3.92 8.068.5.5 0 1 0 .511-.859 3.5 3.5 0 0 1 1.788-6.51z"/></svg>