<svg xmlns="http://www.w3.org/2000/svg" viewBox="0 0 24 24"><defs><style>.cls-1{fill:#363636;fill-rule:evenodd}</style></defs><g id="Camada_1"><path d="M10.5 13H9V9.5a.5.5 0 0 0-.5-.5H8V1.5a.5.5 0 0 0-1 0V9h-.5a.5.5 0 0 0-.5.5V13H4.5a.502.502 0 0 0-.497.556l1 9a.5.5 0 0 0 .497.445h4a.5.5 0 0 0 .497-.445l1-9A.5.5 0 0 0 10.5 13zM7 10h1v3H7v-3zm2.052 12H5.947l-.889-8h4.883l-.889 8zM18.998 9.462A.5.5 0 0 0 18.5 9h-4a.499.499 0 0 0-.498.462l-1 13a.497.497 0 0 0 .499.538h6a.502.502 0 0 0 .499-.538l-1-13zM14.04 22l.231-3H16.5a.5.5 0 0 0 0-1h-2.153l.615-8h3.074l.923 12h-4.92z" class="cls-1"/></g></svg>