<svg xmlns="http://www.w3.org/2000/svg" viewBox="0 0 24 24"><path d="M4.5 2.5a1 1 0 0 1-1-1 .5.5 0 0 0-1 0 1 1 0 0 1-1 1 .5.5 0 0 0 0 1 1 1 0 0 1 1 1 .5.5 0 0 0 1 0 1 1 0 0 1 1-1 .5.5 0 0 0 0-1zM15.5 18a.5.5 0 0 0-.5.5v1a2.5 2.5 0 0 1-2.5 2.5h-4A2.5 2.5 0 0 1 6 19.5V6h9v5.5a.5.5 0 0 0 1 0v-6a.5.5 0 0 0-.5-.5H14V1.5a.5.5 0 0 0-.5-.5h-6a.5.5 0 0 0-.5.5V5H5.5a.5.5 0 0 0-.5.5v14A3.5 3.5 0 0 0 8.5 23h4a3.5 3.5 0 0 0 3.5-3.5v-1a.5.5 0 0 0-.5-.5zM8 2h5v3H8V2z"/><path d="M12.5 14a.5.5 0 0 0 .5-.5v-4a.5.5 0 0 0-.5-.5h-4a.5.5 0 0 0-.5.5v9a.5.5 0 0 0 .5.5h4a.5.5 0 0 0 .5-.5v-1a.5.5 0 0 0-1 0v.5H9v-8h3v3.5a.5.5 0 0 0 .5.5zM22.5 7.5a1 1 0 0 1-1-1 .5.5 0 0 0-1 0 1 1 0 0 1-1 1 .5.5 0 0 0 0 1 1 1 0 0 1 1 1 .5.5 0 0 0 1 0 1 1 0 0 1 1-1 .5.5 0 0 0 0-1z"/><path d="M21.5 15a3.5 3.5 0 0 1-3.5-3.5.5.5 0 0 0-1 0 3.5 3.5 0 0 1-3.5 3.5.5.5 0 0 0 0 1 3.5 3.5 0 0 1 3.5 3.5.5.5 0 0 0 1 0 3.5 3.5 0 0 1 3.5-3.5.5.5 0 0 0 0-1zm-4 2.437a4.522 4.522 0 0 0-1.937-1.937 4.522 4.522 0 0 0 1.937-1.937 4.522 4.522 0 0 0 1.937 1.937 4.522 4.522 0 0 0-1.937 1.937z"/></svg>