<svg xmlns="http://www.w3.org/2000/svg" viewBox="0 0 24 24"><defs><style>.cls-1{fill:#363636}</style></defs><g id="Camada_1"><rect width="4" height="7" x="5" y="12" class="cls-1" rx=".5" ry=".5"/><rect width="4" height="11" x="10" y="8" class="cls-1" rx=".5" ry=".5"/><rect width="4" height="14" x="15" y="5" class="cls-1" rx=".5" ry=".5"/><path fill-rule="evenodd" d="M19.5 2h-15A2.5 2.5 0 0 0 2 4.5v15A2.5 2.5 0 0 0 4.5 22h15a2.5 2.5 0 0 0 2.5-2.5v-15A2.5 2.5 0 0 0 19.5 2zM21 19.5a1.5 1.5 0 0 1-1.5 1.5h-15A1.5 1.5 0 0 1 3 19.5v-15A1.5 1.5 0 0 1 4.5 3h15A1.5 1.5 0 0 1 21 4.5v15z"/></g></svg>