<svg xmlns="http://www.w3.org/2000/svg" viewBox="0 0 24 24"><path d="M4.5 12a.5.5 0 0 0 .5-.5V10h6.5a.5.5 0 0 0 .5-.5V3h6.5c.827 0 1.5.673 1.5 1.5v7a.5.5 0 0 0 1 0v-7C21 3.122 19.879 2 18.5 2h-6.921c-.018 0-.035.005-.053.005-.009 0-.017-.005-.026-.005-.026 0-.049.011-.074.015-.61.037-1.18.282-1.615.718L4.733 7.811a2.476 2.476 0 0 0-.718 1.615C4.011 9.451 4 9.474 4 9.5c0 .009.005.017.005.026 0 .018-.005.035-.005.053V11.5a.5.5 0 0 0 .5.5zm.939-3.482l5.078-5.078c.141-.14.304-.249.482-.324V9H5.115c.074-.178.183-.342.324-.482zM5 15H2.5a.5.5 0 0 0-.5.5v7a.5.5 0 0 0 1 0V21h2c1.654 0 3-1.346 3-3s-1.346-3-3-3zm0 5H3v-4h2c1.103 0 2 .897 2 2s-.897 2-2 2zM12 15h-1.5a.5.5 0 0 0-.5.5v7a.5.5 0 0 0 .5.5H12c2.206 0 4-1.794 4-4s-1.794-4-4-4zm0 7h-1v-6h1c1.654 0 3 1.346 3 3s-1.346 3-3 3zM22.5 15h-4a.5.5 0 0 0-.5.5v7a.5.5 0 0 0 1 0v-3h2.5a.5.5 0 0 0 0-1H19V16h3.5a.5.5 0 0 0 0-1z"/></svg>