<svg xmlns="http://www.w3.org/2000/svg" viewBox="0 0 24 24"><path fill-rule="evenodd" d="M11 22H3V11.035c0-.656.071-1.273.298-1.823.041-.1.084-.2.128-.301.222-.517.46-1.072.569-1.84.076-.529.074-1.191.056-1.7a23.94 23.94 0 0 0-.016-.37h5.93c-.006.112-.012.237-.016.37-.017.509-.019 1.171.056 1.7.09.63.221 1.037.381 1.443a7.48 7.48 0 0 1 .82-.664 4.92 4.92 0 0 1-.212-.92c-.062-.437-.064-1.026-.047-1.525.008-.245.021-.461.031-.616l.013-.181.004-.048v-.012l.001-.003A.5.5 0 0 0 10.498 4h-.5V2h2.499a.5.5 0 0 0 0-1H3.5a.5.5 0 0 0 0 1H4v2h-.5a.5.5 0 0 0-.498.546v.003l.001.012.004.048.013.181c.01.155.023.371.031.616.017.499.015 1.087-.047 1.525-.09.628-.271 1.053-.488 1.562l-.143.34c-.297.721-.374 1.485-.374 2.204v11.465a.5.5 0 0 0 .5.5h9a.5.5 0 0 0 .5-.5v-1.865a7.413 7.413 0 0 1-1-.635v2zM5 2h4v2H5V2zM18 13.5h-2v-2a.5.5 0 0 0-1 0v2h-2a.5.5 0 0 0 0 1h2v2a.5.5 0 0 0 1 0v-2h2a.5.5 0 0 0 0-1z"/><path fill-rule="evenodd" d="M15.5 7.5a6.5 6.5 0 1 0 0 13 6.5 6.5 0 0 0 0-13zm0 12a5.5 5.5 0 1 1 0-11 5.5 5.5 0 1 1 0 11z"/></svg>