<svg xmlns="http://www.w3.org/2000/svg" viewBox="0 0 24 24"><path fill-rule="evenodd" d="M17.468 6.532A8.503 8.503 0 0 0 1 9.5a8.503 8.503 0 0 0 5.532 7.968A8.503 8.503 0 0 0 23 14.5a8.503 8.503 0 0 0-5.532-7.968zm-.789.789a7.497 7.497 0 0 1 .283 2.934l-3.218-3.218a7.528 7.528 0 0 1 2.934.283h.001zm-3.404 8.661a7.444 7.444 0 0 1-1.826.762l-4.194-4.189a7.465 7.465 0 0 1 .763-1.831l5.257 5.258zM8.589 9.883A7.534 7.534 0 0 1 9.882 8.59l5.528 5.528a7.534 7.534 0 0 1-1.293 1.293L8.589 9.883zm2.135-1.864a7.467 7.467 0 0 1 1.843-.767.508.508 0 0 0 .079.102l4 4a.474.474 0 0 0 .102.079 7.467 7.467 0 0 1-.767 1.843l-5.257-5.257zm-4.549 8.206a7.5 7.5 0 1 1 10.05-10.05 8.5 8.5 0 0 0-10.05 10.05zM7 14.5c0-.252.013-.502.037-.748l3.215 3.211a7.497 7.497 0 0 1-2.931-.284A7.502 7.502 0 0 1 7 14.5zm7.5 7.5a7.501 7.501 0 0 1-6.725-4.175 8.5 8.5 0 0 0 10.05-10.05A7.5 7.5 0 0 1 14.5 22z"/></svg>