<svg xmlns="http://www.w3.org/2000/svg" viewBox="0 0 24 24"><defs><style>.cls-1{fill:#363636;fill-rule:evenodd}</style></defs><g id="Camada_1"><path d="M9.5 15H7v-5h1.5a.5.5 0 0 0 0-1H7V7h1.5a.5.5 0 0 0 0-1H7V4h1.5a.5.5 0 0 0 0-1H7V1.5a.5.5 0 0 0-1 0V3H4.5a.5.5 0 0 0 0 1H6v2H4.5a.5.5 0 0 0 0 1H6v2H4.5a.5.5 0 0 0 0 1H6v5H3.5a.5.5 0 0 0-.5.5v7a.5.5 0 0 0 .5.5h6a.5.5 0 0 0 .5-.5v-7a.5.5 0 0 0-.5-.5zM9 22H4v-6h5v6zM20.5 7h-6a.5.5 0 0 0-.5.5v15a.5.5 0 0 0 .5.5h6a.5.5 0 0 0 .5-.5v-15a.5.5 0 0 0-.5-.5zM20 22h-5v-3h2.5a.5.5 0 0 0 0-1H15V8h5v14z" class="cls-1"/></g></svg>