<svg xmlns="http://www.w3.org/2000/svg" viewBox="0 0 24 24"><g data-name="Camada 2 cópia"><path d="M0 0h24v24H0z" data-name="Retângulo 2666"/><g data-name="Grupo 12337"><path d="M17.622 8.692a.493.493 0 0 0-.295.095c-.737.516-2.075 1.5-2.96 2.149l-.358.263a.348.348 0 0 1-.421 0l-.432-.295c-.632-.432-1.5-1.022-1.97-1.359a1.717 1.717 0 0 0-2.011-.063 1.692 1.692 0 0 0-.506.548c-.674 1.106-2.054 3.3-2.791 4.434a.57.57 0 0 0-.095.295.539.539 0 0 0 .537.537.516.516 0 0 0 .295-.095c.727-.506 2.043-1.475 2.918-2.117l.4-.295a.348.348 0 0 1 .421 0l.432.295c.632.432 1.506 1.022 1.97 1.359a1.717 1.717 0 0 0 2.012.063 1.692 1.692 0 0 0 .506-.548c.664-1.1 2.054-3.3 2.791-4.434a.527.527 0 0 0-.442-.832z" data-name="Caminho 2903"/><path d="M11.966 1.677a10 10 0 0 0-6.647 17.475l-.411 2.317a.727.727 0 0 0 .716.853l.253-.042 2.982-1.085a10.007 10.007 0 1 0 3.107-19.518zm0 18.928a8.911 8.911 0 0 1-2.77-.442l-.358-.116-.348.126-2.391.874.295-1.7.105-.6-.453-.4a8.915 8.915 0 1 1 5.92 2.254z" data-name="Caminho 2904"/></g></g></svg>