<svg xmlns="http://www.w3.org/2000/svg" data-name="Camada 1" viewBox="0 0 24 24"><path fill-rule="evenodd" stroke-width="0" d="M10.8 1.5h.4l8 3c.2 0 .3.3.3.5v4.9c1.5 1 2.5 2.7 2.5 4.6 0 3-2.5 5.5-5.5 5.5s-1-.1-1.4-.2c-.9.8-1.9 1.4-2.6 1.9-.4.2-.7.4-.9.5-.1.1-.2.1-.3.1h-.5c-.1 0-.2-.1-.3-.1-.2-.1-.5-.3-.9-.5-.8-.5-1.8-1.2-2.8-2.1-2-1.8-4.2-4.4-4.2-7.6V5c0-.2 0-.4.3-.5l7.9-3zM14 19.4c-1.8-.9-3-2.8-3-4.9 0-3 2.5-5.5 5.5-5.5s1.4.1 2 .4v-4L11 2.5 3.5 5.3V12c0 2.8 1.9 5.1 3.8 6.9 1 .9 2 1.5 2.7 2 .4.2.7.4.9.5h.2c.2-.1.5-.3.9-.5.6-.4 1.3-.9 2-1.5zm3-7.9c0-.3-.2-.5-.5-.5s-.5.2-.5.5V14h-2.5c-.3 0-.5.2-.5.5s.2.5.5.5H16v2.5c0 .3.2.5.5.5s.5-.2.5-.5V15h2.5c.3 0 .5-.2.5-.5s-.2-.5-.5-.5H17v-2.5z"/></svg>