<svg xmlns="http://www.w3.org/2000/svg" viewBox="0 0 24 24"><path d="M11.6 15.8H6c-.3 0-.5.2-.5.5s.3.5.5.5h5.6c.3 0 .5-.2.5-.5s-.2-.5-.5-.5zM13.6 12.8H6c-.3 0-.5.2-.5.5s.3.5.5.5h7.6c.3 0 .5-.2.5-.5s-.2-.5-.5-.5zM13.7 9.8H6c-.3 0-.5.2-.5.5s.3.5.5.5h7.6c.3 0 .5-.2.5-.5s-.2-.5-.4-.5z"/><path d="M11.7 20.5H4.3c-.3 0-.5-.2-.5-.5V3c0-.3.2-.5.5-.5h8.4v3.6c0 .8.7 1.5 1.5 1.5h3.6v4.3c0 .3.2.5.5.5s.5-.2.5-.5V7c0-.1 0-.1-.1-.2l-5.1-5.2c-.1-.1-.1-.1-.2-.1h-9c-.9 0-1.6.6-1.6 1.4V20c0 .8.7 1.5 1.5 1.5h7.3c.3 0 .5-.2.5-.5s-.2-.5-.4-.5zm2-17.3l3.4 3.4h-2.9c-.3 0-.5-.2-.5-.5V3.2z"/><path d="M20.1 17v-.6c0-1.6-1.3-2.9-2.9-2.9-1.6 0-2.9 1.3-2.9 2.9v.6c-.6 0-1.1.5-1.1 1.1v3.3c0 .6.5 1.1 1.1 1.1h5.8c.6 0 1.1-.5 1.1-1.1v-3.3c.1-.6-.4-1.1-1.1-1.1zm-4.8-.5c0-1.1.9-1.9 1.9-1.9 1.1 0 1.9.9 1.9 1.9v.6h-3.8v-.6zm4.9 5c0 .1-.1.1-.1.1h-5.8c-.1 0-.1 0-.1-.1v-3.3c0-.1.1-.1.1-.1h5.8c.1 0 .1.1.1.1v3.3z"/><path d="M17.2 18.5c-.5 0-.9.4-.9.9 0 .3.1.5.3.7v.5c0 .3.3.6.6.6s.6-.3.6-.6v-.5c.2-.2.3-.4.3-.7 0-.5-.4-.9-.9-.9z"/></svg>