<svg xmlns="http://www.w3.org/2000/svg" version="1.0" viewBox="0 0 24 24"><path d="M21.9 2.9c.2-.2.2-.5 0-.7-.2-.2-.5-.2-.7 0l-19 19c-.2.2-.2.5 0 .7.2.2.5.2.7 0l19-19zM12 22c-2 0-4-.8-5.5-2.4l.7-.7c1.3 1.4 3 2.1 4.8 2.1 3.1 0 6.5-2.5 6.5-6.7 0-1-.4-2.2-1-3.5-.2-.4-.5-.9-.7-1.4l.7-.7c.3.5.6 1.1.9 1.6.7 1.3 1.1 2.7 1.1 3.9 0 5-3.9 7.8-7.5 7.8zM12.7 4c.6.7 1.5 1.7 2.3 2.8l.7-.7C14.9 5 14.1 4 13.5 3.3c-.3-.4-.6-.7-.8-.9l-.2-.2-.1-.1S12.2 2 12 2s-.4.1-.4.1l-.1.1-.2.2c-.2.2-.5.5-.8.9-.6.8-1.5 1.9-2.4 3.1-.9 1.2-1.8 2.6-2.5 3.9-.6 1.4-1.1 2.7-1.1 4 0 1 .2 1.9.4 2.7l.8-.8c-.2-.6-.2-1.2-.2-1.9 0-1 .4-2.2 1-3.5C7.2 9.5 8 8.2 8.9 7c.9-1.2 1.7-2.2 2.4-3 .3-.3.5-.6.7-.8.2.2.4.5.7.8z"/></svg>