<svg xmlns="http://www.w3.org/2000/svg" viewBox="0 0 24 24"><path d="M19.5 21H12v-1.188a4.001 4.001 0 0 0-5.658-3.64l-.47-.741-.013-.02a4.742 4.742 0 0 1-.763-3.673 4.748 4.748 0 0 1 2.14-3.072l1.679-.964 1.652 2.862a.5.5 0 0 0 .683.183l1.019-.588.783 1.565a.5.5 0 0 0 .895-.447l-.81-1.619 1.145-.661a.5.5 0 0 0 .183-.683l-3.5-6.062a.5.5 0 0 0-.683-.183l-3.031 1.75a.499.499 0 0 0-.183.683l1.348 2.334-1.684.967-.014.009a5.744 5.744 0 0 0-2.601 3.725 5.737 5.737 0 0 0 .917 4.439l.457.722a4.001 4.001 0 0 0-1.492 3.115v1.688a.5.5 0 0 0 .5.5h15a.5.5 0 0 0 0-1zM8.185 4.434l2.165-1.25 3 5.196-2.165 1.25-3-5.196zM11 21H5v-1.188a3 3 0 1 1 6 0V21z" class="cls-1"/><path d="M12.061 15.739a.5.5 0 0 0 .678.2l5.5-3a.5.5 0 0 0-.478-.878l-5.5 3a.5.5 0 0 0-.2.678z" class="cls-1"/></svg>