<svg xmlns="http://www.w3.org/2000/svg" viewBox="0 0 40 40"><path d="M38.09 12.166L27.835 1.911a.833.833 0 0 0-.589-.244h-14.49a.833.833 0 0 0-.589.244L1.911 12.166a.833.833 0 0 0-.244.589v14.49c0 .221.088.433.244.589l10.255 10.255a.833.833 0 0 0 .589.244h14.49a.833.833 0 0 0 .589-.244l10.255-10.255a.833.833 0 0 0 .244-.589v-14.49a.833.833 0 0 0-.244-.589zM36.667 26.9L26.9 36.667H13.1L3.334 26.9V13.1l9.767-9.767h13.8l9.767 9.767v13.8z"/><path d="M20 21.667c.46 0 .833-.373.833-.833V9.167a.833.833 0 0 0-1.666 0v11.667c0 .46.373.833.833.833zM20 25.833a1.667 1.667 0 1 0 0 3.333 1.667 1.667 0 0 0 0-3.333z"/></svg>