<svg xmlns="http://www.w3.org/2000/svg" viewBox="0 0 24 24"><path d="M22.585 9.623l-1.443-.249a1.913 1.913 0 0 0-1.161.165 5.682 5.682 0 0 0-.037-.456l1.132-.218a2.04 2.04 0 0 0 1.308-.864c.307-.453.419-.999.315-1.537l-.293-1.522a.498.498 0 0 0-.586-.396l-1.522.293a2.04 2.04 0 0 0-1.309.865c-.054.08-.094.166-.136.251l-.034-.056.111-1.555a2.07 2.07 0 0 0-.504-1.512 2.062 2.062 0 0 0-1.425-.713l-1.578-.113a.469.469 0 0 0-.363.121.5.5 0 0 0-.172.342l-.112 1.578a2.07 2.07 0 0 0 .504 1.512c.365.421.871.674 1.424.713l1.226.088c.59.986 1.542 3.013.801 4.963-.902 2.375-3.782 4.533-6.732 6.208-2.95-1.675-5.83-3.833-6.732-6.208-.741-1.953.213-3.982.803-4.966l1.188-.085a2.073 2.073 0 0 0 1.425-.712h.001c.364-.422.543-.958.503-1.513l-.113-1.578a.5.5 0 0 0-.534-.463l-1.578.113a2.074 2.074 0 0 0-1.427.713c-.364.42-.543.957-.504 1.512l.113 1.578c0 .008.005.015.006.023l-.012.02c-.043-.089-.085-.178-.142-.261a2.04 2.04 0 0 0-1.309-.865l-1.522-.293a.506.506 0 0 0-.586.396l-.293 1.522a2.035 2.035 0 0 0 .315 1.537c.306.453.771.76 1.31.865l1.141.22c-.018.152-.03.306-.037.462a1.909 1.909 0 0 0-1.155-.162l-1.443.249a.5.5 0 0 0-.409.572l.241 1.493c.085.529.366.993.79 1.305a1.915 1.915 0 0 0 1.475.353l1.444-.249c.039-.007.071-.026.106-.041.091.136.186.271.287.406a2.029 2.029 0 0 0-1.174.584l-1.086 1.104a.503.503 0 0 0 .005.707l1.105 1.086c.387.38.897.589 1.439.589h.015a2.042 2.042 0 0 0 1.446-.612l.857-.872a27.603 27.603 0 0 0 3.009 2.039 53.432 53.432 0 0 1-6.632 2.932.501.501 0 0 0 .326.946 52.077 52.077 0 0 0 7.337-3.287 51.828 51.828 0 0 0 7.336 3.287.502.502 0 0 0 .326-.946c-.062-.022-3.245-1.136-6.631-2.932 1.045-.62 2.071-1.3 3.003-2.034l.852.867c.385.391.897.608 1.444.612h.016c.542 0 1.052-.209 1.438-.589l1.105-1.086a.498.498 0 0 0 .005-.707l-1.086-1.104a2.033 2.033 0 0 0-1.164-.583c.103-.138.201-.277.294-.417.035.015.066.034.105.041l1.443.249a1.918 1.918 0 0 0 1.475-.353c.424-.313.704-.776.789-1.305l.241-1.492a.498.498 0 0 0-.408-.572zm-2.768-3.36c.157-.232.396-.39.671-.443l1.03-.199.198 1.031c.054.275-.004.555-.161.788a1.042 1.042 0 0 1-.67.442l-1.031.199-.198-1.031a1.04 1.04 0 0 1 .161-.788zM2.432 7.44a1.045 1.045 0 0 1-.161-.788l.198-1.031 1.03.198a1.047 1.047 0 0 1 .832 1.23L4.133 8.08l-1.03-.198a1.049 1.049 0 0 1-.672-.443zm3.86-3.953a1.08 1.08 0 0 1 .742-.372l1.08-.077.077 1.079a1.08 1.08 0 0 1-1.004 1.157l-1.08.077-.078-1.079a1.08 1.08 0 0 1 .262-.786zM3.346 12.37a.932.932 0 0 1-.71-.171 1.013 1.013 0 0 1-.396-.66l-.162-1.004.956-.165a.926.926 0 0 1 .71.171c.212.157.354.392.396.661l.162 1.003-.956.165zm3.044 3.858c-.197.2-.459.312-.739.313a1.114 1.114 0 0 1-.746-.302l-.749-.735.735-.748c.197-.2.459-.312.739-.313h.001c.279-.004.544.104.745.301l.749.735-.735.749zm9.645-11.325a1.077 1.077 0 0 1-.262-.786l.076-1.079 1.08.077c.288.021.551.152.74.371s.283.498.262.786l-.076 1.079-1.08-.077a1.077 1.077 0 0 1-.74-.371zm3.797 10.601l-.749.735c-.2.195-.506.307-.745.302a1.04 1.04 0 0 1-.739-.313l-.735-.749.748-.735c.197-.194.458-.301.735-.301h.011c.28.002.542.113.739.313l.735.748zm1.934-3.977a1.02 1.02 0 0 1-.396.661.93.93 0 0 1-.711.171l-.956-.165.162-1.003a1.02 1.02 0 0 1 .396-.661.921.921 0 0 1 .711-.171l.956.165-.162 1.003z"/></svg>