<svg xmlns="http://www.w3.org/2000/svg" viewBox="0 0 24 24"><path d="M20.43 2.122l1.125-.125a.501.501 0 0 0-.11-.994l-1.125.125a.501.501 0 0 0 .11.994zM15.93 2.622l2.25-.25a.501.501 0 0 0-.11-.994l-2.25.25a.501.501 0 0 0 .11.994zM12.555 2.997l1.125-.125a.501.501 0 0 0-.11-.994l-1.125.125a.501.501 0 0 0 .11.994zM11.5 22h-8a.5.5 0 0 1-.5-.5v-11a.5.5 0 0 1 .5-.5h8a.5.5 0 0 1 .5.5v2a.5.5 0 0 0 1 0v-2A1.5 1.5 0 0 0 11.5 9H11V7.5a1.5 1.5 0 0 0-1-1.415V2.5a.5.5 0 0 0-.621-.485l-4 1A.5.5 0 0 0 5 3.5v2.585A1.5 1.5 0 0 0 4 7.5V9h-.5A1.5 1.5 0 0 0 2 10.5v11A1.5 1.5 0 0 0 3.5 23h8a.5.5 0 0 0 0-1zM6 3.89l3-.75V6H6V3.89zM5 7.5a.5.5 0 0 1 .5-.5h4a.5.5 0 0 1 .5.5V9H5V7.5zM13.734 4.262l-1.125-.25a.5.5 0 1 0-.217.977l1.125.25a.5.5 0 1 0 .217-.977zM18.234 5.262l-2.25-.5a.5.5 0 1 0-.217.977l2.25.5a.5.5 0 1 0 .217-.977zM21.609 6.012l-1.125-.25a.5.5 0 1 0-.217.977l1.125.25a.5.5 0 1 0 .217-.977z"/><path d="M19.348 17.772a1.96 1.96 0 0 0-.409-.293 2.06 2.06 0 0 0-.616-2.541 1.979 1.979 0 0 0-1.495-.366 1.967 1.967 0 0 0-1.063.535 1.998 1.998 0 0 0-1.072-.574 1.97 1.97 0 0 0-1.53.36 2.03 2.03 0 0 0-.803 1.361 2.086 2.086 0 0 0 .208 1.227 2.009 2.009 0 0 0-.899.982 2.079 2.079 0 0 0 .015 1.673 2 2 0 0 0 1.251 1.1c.275.083.563.104.847.063h.002l.013.073c.061.303.189.588.375.834s.425.446.7.584a1.973 1.973 0 0 0 2.47-.584 2.04 2.04 0 0 0 .388-.914h.002a1.967 1.967 0 0 0 1.58-.481 2.062 2.062 0 0 0 .035-3.039zm-.443 1.943a1.039 1.039 0 0 1-.255.347.983.983 0 0 1-.78.239.972.972 0 0 1-.392-.145.501.501 0 0 0-.754.544c.039.155.043.317.012.473a1.04 1.04 0 0 1-.543.722.965.965 0 0 1-.872 0 1.013 1.013 0 0 1-.351-.294 1.052 1.052 0 0 1-.18-.901.5.5 0 0 0-.758-.542.96.96 0 0 1-.809.118.988.988 0 0 1-.37-.206 1.062 1.062 0 0 1-.014-1.567.991.991 0 0 1 .601-.257.5.5 0 0 0 .289-.882 1.002 1.002 0 0 1-.166-.178l-.007-.009a1.054 1.054 0 0 1-.205-.789c.019-.139.066-.273.136-.392a1.014 1.014 0 0 1 .633-.471.969.969 0 0 1 .763.139c.112.075.21.173.286.288l.008.012a.99.99 0 0 1 .114.216.5.5 0 0 0 .936 0c.029-.076.067-.148.112-.214a1.014 1.014 0 0 1 .651-.409.98.98 0 0 1 .739.183 1.038 1.038 0 0 1 .405.678 1.057 1.057 0 0 1-.18.775.981.981 0 0 1-.164.176.499.499 0 0 0 .289.882 1.003 1.003 0 0 1 .275.055.986.986 0 0 1 .317.199 1.055 1.055 0 0 1 .237 1.211z"/></svg>