<svg xmlns="http://www.w3.org/2000/svg" viewBox="0 0 24 24"><path d="M13.245 20.215a1.77 1.77 0 0 1-1.25.518c-.475 0-.917-.186-1.249-.518l-2.218-2.218a4.2 4.2 0 0 0 .85-.655l2.499-2.499 2.507 2.508c.298.297.63.544.995.74l-2.125 2.124h-.009zm4.106-2.907a2.92 2.92 0 0 1-2.074-.858l-3.01-3.01a.57.57 0 0 0-.79 0l-3 3.001a2.92 2.92 0 0 1-2.074.859h-.357l3.808 3.808a3.027 3.027 0 0 0 4.292 0l3.8-3.8h-.595zM14.376 6.658L11.87 9.165l-2.5-2.499a4.199 4.199 0 0 0-.85-.654l2.22-2.219a1.78 1.78 0 0 1 2.507 0l2.125 2.125a4.205 4.205 0 0 0-.995.74zm-.238-3.766a3.037 3.037 0 0 0-4.3 0L6.028 6.7h.357a2.92 2.92 0 0 1 2.074.859l3 3c.222.221.57.221.791 0l3.01-3.009a2.92 2.92 0 0 1 2.073-.858h.595l-3.79-3.8z"/><path d="M20.206 13.254l-1.903 1.912h-.952a.829.829 0 0 1-.561-.23l-2.933-2.932 2.933-2.932a.798.798 0 0 1 .56-.23h.953l1.903 1.913c.332.331.519.782.519 1.25 0 .467-.187.917-.519 1.257m-13.25 1.666a.798.798 0 0 1-.562.23h-.722l-1.896-1.896a1.78 1.78 0 0 1 0-2.507l1.896-1.896h.722c.204 0 .408.085.561.23l2.916 2.915-2.924 2.916.008.008zm14.152-5.066L18.83 7.584h-1.47c-.545 0-1.072.221-1.454.604l-3.01 3.009c-.28.28-.645.416-1.02.416-.373 0-.739-.144-1.02-.416l-3-3a2.066 2.066 0 0 0-1.453-.604H5.162l-2.27 2.27a3.037 3.037 0 0 0 0 4.3l2.27 2.27h1.24c.545 0 1.072-.221 1.454-.604l3-3c.545-.544 1.497-.544 2.04 0l3.01 3.009c.382.382.91.603 1.453.603h1.47l2.279-2.278a3.037 3.037 0 0 0 0-4.3z"/></svg>