<svg xmlns="http://www.w3.org/2000/svg" viewBox="0 0 24 24"><path d="M11.047 17.481h-1.4c-.3 0-.5.2-.5.5s.2.5.5.5h1.4c.3 0 .5-.2.5-.5s-.3-.5-.5-.5z"/><path d="M19.927 16.961l-1-2.5c-.4-1-.8-2-1.3-3-.1-.2-.2-.4-.4-.6-.2-.2-.4-.4-.7-.5-.5-.2-1-.3-1.5-.4v-5.3c0-.6-.5-1.2-1.2-1.2h-6.7c-.6 0-1.2.5-1.2 1.2v5h-.6c-.6.2-1 .7-1 1.3 0 .5.2.9.5 1.2-.2.2-.3.5-.3.8 0 .5.2.9.4 1.1-.2.2-.3.5-.3.8 0 .6.3 1 .6 1.2-.3.2-.4.5-.4.9 0 .8.5 1.2.9 1.2h.3v.6c0 .6.5 1.2 1.2 1.2h6.7c.3 0 .5-.1.8-.3.8.6 1.6.9 2.6 1.1h.1c.2 0 .5-.2.5-.4 0-.3-.1-.5-.4-.6-.8-.1-1.6-.5-2.3-1v-4c.2.6.5 1.2.9 1.8.2.3.4.6.8.8.2.1.5 0 .7-.2.1-.2 0-.5-.2-.7-.2-.1-.3-.2-.4-.4-.6-1-1-2.2-1.2-3.4v-.3l-1.1-.2h-.1l-2.2-.7c-.3-.1-.6-.2-.8-.4-.2-.1-.3-.3-.4-.5 0-.1 0-.2.1-.3h.6c.9.2 1.8.4 2.8.5.5 0 1 .2 1.5.3.1 0 .3.1.3.2.1.1.2.2.2.4.5 1 .9 2 1.3 3l1 2.5c.1.2.3.3.5.3h.2c.2 0 .3-.3.2-.5zm-14 .3h-.2v-.2c0-.1.1-.1.1-.1h.2v.3h-.1zm0-2h-.3c0-.1-.1-.2-.1-.3 0-.1 0-.2.1-.2h.3v.5zm0-1.8h-.4s-.1-.1-.1-.4c0-.1.1-.2.2-.3h.3v.7zm0-1.9h-.5s-.2-.2-.2-.5c0-.1.1-.3.2-.3h.4v.8h.1zm8.1 7.3c0 .1-.1.2-.2.2h-6.7c-.1 0-.2-.1-.2-.2v-1.9h7.1v1.9zm0-9.1c-.6-.1-1.2-.2-1.8-.4-.4-.1-.8-.1-1.2 0-.5.3-.8.8-.7 1.4.1.5.4.9.8 1.1.3.2.7.3 1 .4l1.9.6v3h-7.1v-9.2h7.1v3.1zm0-4.1h-7.1v-1c0-.1.1-.2.2-.2h6.7c.1 0 .2.1.2.2v1z"/></svg>