<svg xmlns="http://www.w3.org/2000/svg" data-name="Camada 1" viewBox="0 0 24 24"><g fill-rule="evenodd" stroke-width="0"><path d="M10.176 11.342a2.793 2.793 0 0 0 .722-2.129l-.417-4.752-.004-.048a4.764 4.764 0 0 0-.017-.182v-.005a3.37 3.37 0 0 0-.309-1.071c-.216-.425-.635-.906-1.36-.906H7.427c-.731 0-1.151.488-1.366.915-.211.42-.281.875-.303 1.073-.006.053-.011.116-.015.163l-.004.049-.407 4.77a2.791 2.791 0 0 0 .826 2.23H3.615l.214 8.121v.008l.5-.03-.499.03v.01l.002.02.006.067a3.511 3.511 0 0 0 .228.913c.205.498.66 1.16 1.562 1.16h5.5c.903 0 1.357-.661 1.562-1.16a3.395 3.395 0 0 0 .228-.913l.007-.067.002-.02v-.006-.004l-.051-.003.051.003v-.008l.214-8.121h-3.07a2.65 2.65 0 0 0 .104-.108zm2.591 8.228l-.338-.02.338.02zM6.736 4.539l.007-.084.009-.102v-.002c.018-.157.071-.474.203-.737.129-.257.276-.364.472-.364h1.364c.195 0 .34.106.469.359.131.258.186.571.207.738.005.044.008.086.012.137l.005.061.417 4.756a1.783 1.783 0 0 1-.463 1.367 1.799 1.799 0 0 1-1.32.583 1.794 1.794 0 0 1-1.789-1.946l.407-4.766zm5.193 14.986v.003l-.004.041a2.34 2.34 0 0 1-.159.641c-.145.352-.34.54-.638.54h-5.5c-.297 0-.493-.189-.638-.54a2.404 2.404 0 0 1-.159-.641l-.004-.041v-.003l-.058-2.194.062.291.005.055a3.511 3.511 0 0 0 .228.913c.205.498.66 1.16 1.562 1.16h3.5c.903 0 1.357-.661 1.562-1.16a3.395 3.395 0 0 0 .228-.913l.005-.055.062-.291-.058 2.194zm.081-7.075l-1.078 5.032-.002.037v.009l-.004.041a2.34 2.34 0 0 1-.159.641c-.145.352-.34.54-.638.54h-3.5c-.297 0-.493-.189-.638-.54a2.404 2.404 0 0 1-.159-.641l-.004-.041v-.009l-.003-.037-1.078-5.032h7.263zM20.227 13.498a3.007 3.007 0 0 0-2.102-1.954V6.917a1.017 1.017 0 0 0 .399-.474 1.317 1.317 0 0 0 .101-.472v-.012V4a1.252 1.252 0 0 0-1.25-1.25A1.252 1.252 0 0 0 16.125 4v1.971l.002.035a1.41 1.41 0 0 0 .099.437 1.017 1.017 0 0 0 .399.474v4.627a3.016 3.016 0 0 0-2.106 1.959 3.007 3.007 0 0 0-.142 1.235l.443 4.739.004.041c.005.063.012.138.021.211.027.214.107.683.341 1.112.242.443.692.908 1.443.908h1.504c.756 0 1.207-.472 1.448-.918.234-.433.312-.904.337-1.113s0 0 0 .001l-.496-.062.496.061c.007-.058.013-.123.018-.175l.005-.055v-.003l.432-4.756a3 3 0 0 0-.145-1.233zM17.124 4a.25.25 0 1 1 .5 0v1.946a.412.412 0 0 1-.021.104h-.458a.412.412 0 0 1-.021-.104v-.002V4zm1.821 15.393l-.008.086-.012.116c-.02.167-.079.492-.225.761-.138.257-.31.393-.568.393h-1.504c-.257 0-.427-.135-.565-.388a2.271 2.271 0 0 1-.227-.758c-.007-.053-.011-.103-.016-.164l-.005-.053-.443-4.743a2.008 2.008 0 0 1 2.001-2.196 2.003 2.003 0 0 1 1.905 1.367c.089.265.122.545.097.823l-.432 4.753z"/></g></svg>