<svg xmlns="http://www.w3.org/2000/svg" viewBox="0 0 24 24"><path d="M6.2 16c-.3 0-.5.2-.5.5s.3.5.5.5h5.6c.3 0 .5-.2.5-.5s-.2-.5-.5-.5H6.2zM14.3 13.5c0-.3-.2-.5-.5-.5H6.2c-.3 0-.5.2-.5.5s.3.5.5.5h7.6c.3 0 .5-.2.5-.5zM13.9 10H6.2c-.3 0-.5.2-.5.5s.3.5.5.5h7.6c.3 0 .5-.2.5-.5s-.2-.5-.4-.5z"/><path d="M11.9 20.7H4.5c-.3 0-.5-.2-.5-.5v-17c0-.3.2-.5.5-.5h8.4v3.6c0 .8.7 1.5 1.5 1.5H18v4.3c0 .3.2.5.5.5s.5-.2.5-.5V7.2c0-.1 0-.1-.1-.2l-5.1-5.2c-.1-.1-.2-.1-.2-.1h-9c-.9 0-1.6.6-1.6 1.4v17.1c0 .8.7 1.5 1.5 1.5h7.3c.3 0 .5-.2.5-.5s-.2-.5-.4-.5zm5.4-13.9h-2.9c-.3 0-.5-.2-.5-.5V3.4l3.4 3.4z"/><path d="M20.3 17.2v-.6c0-1.6-1.3-2.9-2.9-2.9-1.6 0-2.9 1.3-2.9 2.9v.6c-.6 0-1.1.5-1.1 1.1v3.3c0 .6.5 1.1 1.1 1.1h5.8c.6 0 1.1-.5 1.1-1.1v-3.3c.1-.6-.4-1.1-1.1-1.1zm-2.9-2.4c1.1 0 1.9.9 1.9 1.9v.6h-3.8v-.6c0-1.1.9-1.9 1.9-1.9zm3 6.9c0 .1-.1.1-.1.1h-5.8c-.1 0-.1 0-.1-.1v-3.3c0-.1.1-.1.1-.1h5.8c.1 0 .1.1.1.1v3.3z"/><path d="M17.4 18.7c-.5 0-.9.4-.9.9 0 .3.1.5.3.7v.5c0 .3.3.6.6.6s.6-.3.6-.6v-.5c.4-.3.4-.9.1-1.2-.2-.3-.4-.4-.7-.4z"/></svg>