<svg xmlns="http://www.w3.org/2000/svg" viewBox="0 0 24 24"><path fill-rule="evenodd" d="M13.5 22H2.705a.5.5 0 0 1-.491-.592L4.915 7H7v2.5a.5.5 0 0 0 1 0V7h6v2.5a.5.5 0 0 0 1 0V7h2.085l.767 4.092a.5.5 0 0 0 .983-.184l-.844-4.5A.5.5 0 0 0 17.5 6H15V5a4 4 0 0 0-8 0v1H4.5a.499.499 0 0 0-.491.408L1.231 21.224A1.5 1.5 0 0 0 2.705 23H13.5a.5.5 0 0 0 0-1zM8 5a3 3 0 1 1 6 0v1H8V5z"/><path fill-rule="evenodd" d="M22.619 13.994l-4-.979a.504.504 0 0 0-.238 0l-4 .979a.5.5 0 0 0-.381.486v3.918c0 1.723 1.175 2.88 2.225 3.571a8.826 8.826 0 0 0 1.941.949l.139.046.039.012.011.003h.003l.002.001a.512.512 0 0 0 .28 0h.001l.003-.001.011-.003.039-.012.139-.046a8.75 8.75 0 0 0 1.941-.949c1.05-.691 2.225-1.848 2.225-3.571V14.48a.5.5 0 0 0-.381-.486zM22 18.398c0 1.216-.825 2.11-1.775 2.735a7.813 7.813 0 0 1-1.715.838l-.01.003-.01-.003a7.813 7.813 0 0 1-1.715-.838c-.95-.625-1.775-1.52-1.775-2.735v-3.526l3.5-.857 3.5.857v3.526z"/></svg>