<svg xmlns="http://www.w3.org/2000/svg" viewBox="0 0 24 24"><path d="M16.3 13.8c0-.3-.2-.5-.5-.5H7.2c-.3 0-.5.2-.5.5s.2.5.5.5h8.6c.3 0 .5-.2.5-.5zM7.2 16.3c-.3 0-.5.2-.5.5s.2.5.5.5h6.6c.3 0 .5-.2.5-.5s-.2-.5-.5-.5H7.2zM7.2 11.2h7.6c.3 0 .5-.2.5-.5s-.2-.5-.5-.5H7.2c-.3 0-.5.2-.5.5s.2.5.5.5z"/><path d="M19.9 7.2l-5.1-5.1c-.1 0-.2-.1-.3-.1h-9C4.7 2 4 2.7 4 3.5v17c0 .8.7 1.5 1.5 1.5h13c.8 0 1.5-.7 1.5-1.5V7.4l-.1-.2zm-1.6-.1h-2.9c-.3 0-.5-.2-.5-.5V3.7l3.4 3.4zm.7 2.4v11c0 .3-.2.5-.5.5h-13c-.3 0-.5-.2-.5-.5v-17c0-.3.2-.5.5-.5h8.4v3.6c0 .8.7 1.5 1.5 1.5H19v1.4z"/></svg>