<svg xmlns="http://www.w3.org/2000/svg" viewBox="0 0 24 24"><defs><style>.cls-1{fill:#363636}</style></defs><g id="Camada_1"><path d="M12.5 4a.5.5 0 0 0 .5-.5v-2a.5.5 0 0 0-1 0v2a.5.5 0 0 0 .5.5zM6.491 6.197a.5.5 0 0 0 .707-.707L5.784 4.076a.5.5 0 0 0-.707.707l1.414 1.414zM2.501 11.999h2a.5.5 0 0 0 0-1h-2a.5.5 0 0 0 0 1zM20.499 11.999h2a.5.5 0 0 0 0-1h-2a.5.5 0 0 0 0 1zM18.509 6.197l1.414-1.414a.5.5 0 0 0-.707-.707L17.802 5.49a.5.5 0 0 0 .707.707zM17.586 15.999H22.5a.5.5 0 0 0 0-1h-21a.5.5 0 0 0 0 1h4.914l-5.293 6.176a.5.5 0 0 0 .759.651l5.473-6.385.016-.018.362-.423h1.773l-1.818 6.364a.5.5 0 1 0 .961.275l1.897-6.638h2.911l1.897 6.638a.5.5 0 1 0 .961-.275L14.495 16h1.774l.18.21.007.008 5.664 6.608a.5.5 0 1 0 .759-.651l-5.293-6.176zM8.767 12.983a.5.5 0 0 0 .353-.613 3.335 3.335 0 0 1-.12-.871 3.5 3.5 0 1 1 7 0c0 .299-.043.589-.119.869a.5.5 0 1 0 .965.263c.098-.358.155-.737.155-1.133a4.5 4.5 0 0 0-9 0c0 .397.058.775.154 1.131a.5.5 0 0 0 .613.353z" class="cls-1"/></g></svg>