<svg xmlns="http://www.w3.org/2000/svg" viewBox="0 0 24 24"><defs><style>.cls-1{fill:#363636;fill-rule:evenodd}</style></defs><g id="Camada_1"><path d="M8.615 19.371c.892.396 2.089.629 3.385.629s2.493-.232 3.385-.629c.445-.198.837-.447 1.124-.748.289-.304.491-.684.491-1.123s-.202-.819-.491-1.123c-.287-.301-.678-.55-1.124-.748C14.493 15.233 13.296 15 12 15s-2.493.232-3.385.629c-.445.198-.837.447-1.123.748-.289.304-.491.684-.491 1.123s.202.819.491 1.123c.287.301.678.55 1.123.748zm-.399-2.305c.169-.177.436-.359.805-.523C9.758 16.215 10.81 16 12 16s2.242.215 2.979.543c.369.164.637.346.805.523.166.175.216.32.216.434s-.05.259-.216.434c-.169.177-.436.359-.805.523-.737.327-1.789.543-2.979.543s-2.242-.215-2.979-.543c-.369-.164-.637-.346-.805-.523C8.05 17.759 8 17.614 8 17.5s.05-.259.216-.434z" class="cls-1"/><path d="M21.992 13.409a.483.483 0 0 0-.05-.144l-2.495-4.989A.5.5 0 0 0 19 8h-1.679l.675-5.313a.498.498 0 0 0-.709-.515l-.005.002-.018.008a14.306 14.306 0 0 1-1.321.514c-.79.262-1.709.483-2.406.43-.539-.042-1.053-.213-1.621-.423l-.19-.071c-.501-.187-1.052-.393-1.638-.5-.824-.15-1.744-.148-2.441-.112a15.99 15.99 0 0 0-1.192.106l-.019.003h-.005l-.002.001a.501.501 0 0 0-.426.558l.675 5.313H4.999a.5.5 0 0 0-.447.276l-2.496 4.991a.508.508 0 0 0-.058.232v6a2.5 2.5 0 0 0 2.5 2.5h15a2.5 2.5 0 0 0 2.5-2.5v-5.992a.54.54 0 0 0-.008-.098zM7.699 3.018c.668-.034 1.499-.032 2.211.097.493.09.958.263 1.468.453l.191.071c.57.211 1.199.429 1.891.482.909.07 1.989-.209 2.798-.478.231-.077.446-.155.636-.227l-.836 6.583h-1.866l.781-2.342a.5.5 0 1 0-.949-.316l-.886 2.658h-.64v-3.5a.5.5 0 0 0-1 0v3.5h-.64l-.886-2.658a.499.499 0 1 0-.948.316l.781 2.342H7.939l-.881-6.936c.178-.016.396-.034.639-.046zM5.309 9h1.497l.127 1H6.5a.5.5 0 0 0 0 1h11a.5.5 0 0 0 0-1h-.432l.127-1h1.496l2 4H3.309l2-4zM21 19.5a1.5 1.5 0 0 1-1.5 1.5h-15A1.5 1.5 0 0 1 3 19.5V14h18v5.5z" class="cls-1"/></g></svg>