<svg xmlns="http://www.w3.org/2000/svg" viewBox="0 0 24 24"><path d="M19.725 14.493l-.005-.009-.037-.017-.003-.001-.008-.003-.027-.01a6.38 6.38 0 0 0-.45-.145 8.14 8.14 0 0 0-1.197-.247c-.954-.122-2.236-.104-3.354.557-.728.43-1.259 1.057-1.643 1.691V13.46c.785-.124 1.672-.523 2.483-1.118 1.001-.734 1.941-1.805 2.481-3.155.535-1.338.661-2.913.661-4.123a18.21 18.21 0 0 0-.123-2.087l-.004-.033v-.009l-.002-.003a.5.5 0 0 0-.519-.43h-.008l-.02.001-.076.004-.276.018a27.647 27.647 0 0 0-1.458.145 4.49 4.49 0 0 0-3.498-1.669 4.497 4.497 0 0 0-3.699 1.936 7.365 7.365 0 0 0-1.175-.323 9.202 9.202 0 0 0-.659-.104l-.042-.005h-.012l-.003-.002H7.05a.501.501 0 0 0-.532.366v.002l-.001.003-.003.009-.009.033-.03.122A13.677 13.677 0 0 0 6.176 5c-.095 1.212-.054 2.809.554 4.2 1.264 2.89 3.587 4.073 5.27 4.27v3.836c-.385-.634-.916-1.261-1.643-1.691-1.118-.661-2.4-.679-3.354-.557a8.196 8.196 0 0 0-1.549.358 2.104 2.104 0 0 0-.098.035l-.028.01-.008.003h-.003l-.001.002a.498.498 0 0 0-.234.197l-.01.008v.005a.489.489 0 0 0-.066.336v.013l.007.029.02.104a8.905 8.905 0 0 0 .481 1.55c.375.902 1.028 2.026 2.128 2.676 1.118.661 2.4.679 3.354.557a8.074 8.074 0 0 0 1.003-.194v1.754a.5.5 0 0 0 1 0v-2.752c.274.071.617.145 1.002.194.954.122 2.236.104 3.354-.557 1.1-.65 1.753-1.774 2.128-2.676a9.054 9.054 0 0 0 .482-1.55l.02-.104.005-.029v-.008l.002-.003a.499.499 0 0 0-.268-.522zm-8.855 5.455c-.857.11-1.876.071-2.718-.426-.825-.488-1.371-1.375-1.713-2.199a8.007 8.007 0 0 1-.351-1.049l-.002-.009c.26-.074.624-.162 1.044-.216.857-.11 1.876-.071 2.718.426.844.498 1.389 1.386 1.726 2.205.166.403.275.773.342 1.042l.002.009c-.26.075-.626.163-1.048.217zM12.64 2c.884 0 1.692.328 2.308.869-.21.045-.411.096-.596.153-.686.211-1.473.607-2.07.937-.303.167-.565.321-.751.434l-.021.012h-.001a27.019 27.019 0 0 0-.663-.431 21.81 21.81 0 0 0-.991-.596A3.495 3.495 0 0 1 12.639 2zm-.136 10.5h-.008c-1.31-.002-3.622-.893-4.849-3.7-.512-1.17-.564-2.573-.474-3.721.045-.567.123-1.058.19-1.407l.022-.112.189.035c.374.073.832.189 1.222.363.402.179.999.535 1.515.862.254.161.481.309.644.418l.193.129.052.035.013.009.004.003.553.008.003-.002.013-.009.055-.034c.048-.03.118-.074.207-.127.178-.107.428-.255.717-.414.585-.323 1.298-.677 1.881-.856.585-.18 1.419-.301 2.132-.377.296-.031.565-.055.777-.071l.009.098c.03.356.061.857.061 1.434 0 1.165-.124 2.59-.589 3.752-.46 1.15-1.269 2.079-2.144 2.72-.884.648-1.78.964-2.388.966zm6.408 2.776c-.07.271-.182.644-.351 1.049-.343.825-.888 1.711-1.714 2.199-.842.497-1.861.536-2.718.426a7.075 7.075 0 0 1-1.048-.217l.002-.009a7.59 7.59 0 0 1 .342-1.042c.337-.819.882-1.707 1.726-2.205.842-.497 1.861-.536 2.718-.426.42.054.784.141 1.044.216l-.002.009z"/></svg>