<svg xmlns="http://www.w3.org/2000/svg" version="1.0" viewBox="0 0 24 24"><path d="M7 9.5c-.3 0-.5.2-.5.5s.2.5.5.5h6c.3 0 .5-.2.5-.5s-.2-.5-.5-.5H7z"/><path fill-rule="evenodd" d="M3.4 6.3c-2.9 5 .7 11.3 6.5 11.3 1.9 0 3.7-.7 5-1.9l5.8 5.7c.1.1.2.1.4.1.1 0 .3-.1.4-.1.2-.2.2-.5 0-.7L15.7 15c1.1-1.3 1.8-3 1.8-4.9 0-1.3-.3-2.6-1-3.8-3-5-10.2-5-13.1 0zm.9 7C1.8 9 4.9 3.6 9.9 3.6c3.6 0 6.5 2.9 6.5 6.5 0 1.1-.3 2.3-.9 3.2-.3.5-.6.9-.9 1.2h-.1l-.1.1c-2.8 3-7.9 2.5-10.1-1.3z" clip-rule="evenodd"/></svg>