<svg xmlns="http://www.w3.org/2000/svg" viewBox="0 0 24 24"><path fill-rule="evenodd" d="M5.997 21.273a1.5 1.5 0 0 1-1.5-1.54v-.11l.93-12.07a.5.5 0 0 1 .5-.46H8.46v-.82c0-2.725 2.95-4.428 5.31-3.066a3.541 3.541 0 0 1 1.77 3.066v.82h2.527a.5.5 0 0 1 .5.46l.369 4.785a5.328 5.328 0 0 0-1.063-.358l-.296-3.857H15.54v1.73a.51.51 0 0 1-.54.5.5.5 0 0 1-.5-.5v-1.73H9.46v1.73a.5.5 0 0 1-.5.5.51.51 0 0 1-.5-.5v-1.73H6.387l-.89 11.57a.51.51 0 0 0 .15.4.481.481 0 0 0 .35.18h6.291c.257.37.559.706.898 1h-7.19zm8.503-15c.245-1.94-1.855-3.11-3.607-2.372-1.051.442-1.433 1.231-1.433 2.372v.82h5.04v-.82z" clip-rule="evenodd"/><path d="M17.198 13.716a.5.5 0 1 0-1 0v3h-3a.5.5 0 0 0 0 1h3v3a.5.5 0 1 0 1 0v-3h3a.5.5 0 1 0 0-1h-3v-3z"/></svg>