<svg xmlns="http://www.w3.org/2000/svg" viewBox="0 0 24 24"><path d="M10 9.5v3a.5.5 0 0 0 .5.5h3a.5.5 0 0 0 .5-.5v-3a.5.5 0 0 0-.5-.5h-3a.5.5 0 0 0-.5.5zm1 .5h2v2h-2v-2z" class="cls-1"/><path d="M21.5 21H20V10.768l1.156 1.095a.5.5 0 0 0 .688-.726l-9.5-9a.5.5 0 0 0-.688 0L6 7.495V4.5a.5.5 0 0 0-1 0v3.943l-2.844 2.694a.5.5 0 0 0 .688.726L4 10.768V21H2.5a.5.5 0 0 0 0 1h19a.5.5 0 0 0 0-1zM14 21h-4v-5h4v5zm5 0h-4v-5.5a.5.5 0 0 0-.5-.5h-5a.5.5 0 0 0-.5.5V21H5V9.82l7-6.632 7 6.632V21z" class="cls-1"/></svg>