<svg xmlns="http://www.w3.org/2000/svg" version="1.0" viewBox="0 0 24 24"><path d="M18.4 6.7c-.2.2-.5.2-.7 0-1.2-1.1-2.1-1.3-2.9-1.2-.8.2-1.6.6-2.3 1.1l-.2.1c-.8.6-1.7 1.1-2.9 1.3-1.1.1-2.4-.2-3.7-1.3-.2-.1-.3-.4-.1-.7.2-.2.5-.2.7 0 1.2.9 2.2 1.1 3 1 .9-.1 1.7-.5 2.4-1 .1 0 .1-.1.2-.1.7-.5 1.6-1.1 2.6-1.3 1.2-.3 2.5.1 3.9 1.4.1.2.1.5 0 .7zM21.4 12.1c-.2.2-.5.2-.7 0-1.6-1.6-3.3-1.8-4.8-1.5-1.5.3-2.8 1.1-3.6 1.6-.8.5-2.2 1.4-3.9 1.7-1.8.3-3.8.1-5.7-1.8-.2-.2-.2-.5 0-.7.2-.2.5-.2.7 0C5 13 6.7 13.2 8.2 12.9c1.5-.3 2.8-1.1 3.6-1.6.8-.5 2.2-1.4 3.9-1.7 1.8-.3 3.8-.1 5.7 1.8.1.2.2.5 0 .7zM17.6 18.2c.2.2.5.2.7 0 .2-.2.2-.5 0-.7-1.3-1.3-2.6-1.7-3.8-1.4-1 .2-1.9.8-2.6 1.3-.1 0-.1.1-.2.1-.7.5-1.5.9-2.4 1-.9.1-1.8-.1-3-1-.2-.2-.5-.1-.7.1-.2.2-.1.5.1.7 1.3 1.1 2.6 1.4 3.7 1.2 1.1-.1 2.1-.7 2.8-1.2l.2-.1c.7-.5 1.5-1 2.3-1.1.8-.2 1.8 0 2.9 1.1z"/></svg>