<svg xmlns="http://www.w3.org/2000/svg" viewBox="0 0 24 24"><path d="M14 7.5a.5.5 0 0 0-.5-.5A5.5 5.5 0 0 1 8 1.5a.5.5 0 0 0-1 0A5.5 5.5 0 0 1 1.5 7a.5.5 0 0 0 0 1A5.5 5.5 0 0 1 7 13.5a.5.5 0 0 0 1 0A5.5 5.5 0 0 1 13.5 8a.5.5 0 0 0 .5-.5zm-6.5 3.496A6.526 6.526 0 0 0 4.004 7.5 6.526 6.526 0 0 0 7.5 4.004 6.526 6.526 0 0 0 10.996 7.5 6.526 6.526 0 0 0 7.5 10.996zM22.5 17a4.5 4.5 0 0 1-4.5-4.5.5.5 0 0 0-1 0 4.5 4.5 0 0 1-4.5 4.5.5.5 0 0 0 0 1 4.5 4.5 0 0 1 4.5 4.5.5.5 0 0 0 1 0 4.5 4.5 0 0 1 4.5-4.5.5.5 0 0 0 0-1zm-5 3.206a5.523 5.523 0 0 0-2.706-2.706 5.523 5.523 0 0 0 2.706-2.706 5.523 5.523 0 0 0 2.706 2.706 5.523 5.523 0 0 0-2.706 2.706zM16.75 5.75a1.5 1.5 0 0 1 1.5 1.5.75.75 0 0 0 1.5 0 1.5 1.5 0 0 1 1.5-1.5.75.75 0 0 0 0-1.5 1.5 1.5 0 0 1-1.5-1.5.75.75 0 0 0-1.5 0 1.5 1.5 0 0 1-1.5 1.5.75.75 0 0 0 0 1.5zM7.25 18.25a1.5 1.5 0 0 1-1.5-1.5.75.75 0 0 0-1.5 0 1.5 1.5 0 0 1-1.5 1.5.75.75 0 0 0 0 1.5 1.5 1.5 0 0 1 1.5 1.5.75.75 0 0 0 1.5 0 1.5 1.5 0 0 1 1.5-1.5.75.75 0 0 0 0-1.5z"/></svg>