<svg xmlns="http://www.w3.org/2000/svg" viewBox="0 0 24 24"><defs><style>.cls-1,.cls-2{fill:#363636}.cls-2{fill-rule:evenodd}</style></defs><g id="Camada_1"><circle cx="14.396" cy="7.521" r=".5" class="cls-1"/><circle cx="12.396" cy="9.521" r=".5" class="cls-1"/><circle cx="11.396" cy="14.521" r=".5" class="cls-1"/><circle cx="8.396" cy="15.521" r=".5" class="cls-1"/><circle cx="12.396" cy="17.521" r=".5" class="cls-1"/><circle cx="15.396" cy="15.521" r=".5" class="cls-1"/><path d="M16.5 12h-2a.5.5 0 0 0 0 1h2a.5.5 0 0 0 0-1zM9.5 12h-2a.5.5 0 0 0 0 1h2a.5.5 0 0 0 0-1z" class="cls-2"/><path d="M14.147 4.521a.5.5 0 0 0-.496.125C11.37 6.917 8.384 8.158 4.95 8.503a.498.498 0 0 0-.411.305C4.131 9.784 4 10.945 4 12a8 8 0 0 0 16 0c0-3.652-2.581-6.502-5.853-7.478zM12 18.999a7 7 0 0 1-7-7c0-.883.099-1.782.358-2.535 3.387-.394 6.409-1.64 8.78-3.897C16.92 6.51 19 8.96 19 11.999a7 7 0 0 1-7 7z" class="cls-2"/><path d="M12 1C5.925 1 1 5.925 1 12v8.5c0 .163.08.316.214.41h.001l.001.002.004.003.01.007.034.022a6.614 6.614 0 0 0 .585.319c.412.199 1.033.459 1.894.716C5.464 22.494 8.138 23 12 23s6.536-.506 8.257-1.021c.86-.258 1.482-.517 1.894-.716a6.614 6.614 0 0 0 .585-.319l.034-.022.01-.007.004-.003h.001l.001-.002A.501.501 0 0 0 23 20.5V12c0-6.075-4.925-11-11-11zm10 19.216c-.075.041-.169.09-.284.146-.364.176-.935.416-1.745.659-1.62.485-4.196.979-7.97.979s-6.351-.494-7.97-.979a11.698 11.698 0 0 1-1.745-.659 6.225 6.225 0 0 1-.284-.146V12C2 6.477 6.477 2 12 2s10 4.477 10 10v8.216z" class="cls-2"/></g></svg>