<svg xmlns="http://www.w3.org/2000/svg" viewBox="0 0 24 24"><path d="M13.103 4.205l-.243 1.48a.276.276 0 0 0 .102.26c.038.03.084.048.132.051a.238.238 0 0 0 .138-.031l1.268-.696 1.268.699a.238.238 0 0 0 .119.031.255.255 0 0 0 .247-.198.267.267 0 0 0 .005-.116l-.242-1.48 1.025-1.048c.034-.035.059-.08.07-.128s.01-.1-.005-.148c-.015-.048-.042-.09-.078-.122s-.08-.054-.127-.061l-1.416-.215-.634-1.344a.265.265 0 0 0-.23-.14.25.25 0 0 0-.133.038.271.271 0 0 0-.097.102l-.634 1.344-1.416.215a.25.25 0 0 0-.128.06.276.276 0 0 0-.014.398l1.025 1.048zM20.452 9.286a.5.5 0 0 0-.307-.264l-.029-.008-6.642-1.661a3.506 3.506 0 0 1-.263.965l4.942 1.235L12 11.476 5.848 9.553l1.481-.37a3.497 3.497 0 0 1-.551-.893l-2.89.722a.466.466 0 0 0-.177.08.5.5 0 0 0-.158.185l-1.5 3a.5.5 0 0 0 .272.691l1.676.628V19.5c0 .205.124.388.314.464l7.497 2.999c.119.048.253.05.374 0l7.5-3a.5.5 0 0 0 .314-.464v-5.904l1.676-.628a.503.503 0 0 0 .272-.691l-1.495-2.991zM3.196 12.227l1.061-2.123 7.065 2.208-1.094 2.552-7.033-2.637zm8.304 9.534l-6.5-2.6v-5.19l5.324 1.997a.5.5 0 0 0 .635-.271l.54-1.261v7.326zm7.5-2.6l-6.5 2.6v-7.326l.54 1.261a.5.5 0 0 0 .635.271l5.324-1.997v5.19zm-5.229-4.297l-1.094-2.552 7.065-2.208 1.061 2.123-7.033 2.637z" class="cls-1"/><path d="M8.882 7.564l-.194 1.184a.22.22 0 0 0 .082.208.196.196 0 0 0 .216.016l1.015-.557 1.014.559a.198.198 0 0 0 .181.005.2.2 0 0 0 .07-.056.226.226 0 0 0 .045-.175l-.194-1.184.82-.839a.221.221 0 0 0 .052-.221.22.22 0 0 0-.062-.098.199.199 0 0 0-.102-.049l-1.133-.172-.507-1.075a.227.227 0 0 0-.078-.082.204.204 0 0 0-.214 0 .22.22 0 0 0-.078.082l-.507 1.075-1.133.172a.204.204 0 0 0-.166.146.225.225 0 0 0 .052.221l.82.839z" class="cls-1"/><circle cx="2" cy="7" r="1" class="cls-1"/><circle cx="22" cy="2" r="1" class="cls-1"/><path d="M21.5 5.5a1 1 0 0 1-1-1 .5.5 0 0 0-1 0 1 1 0 0 1-1 1 .5.5 0 0 0 0 1 1 1 0 0 1 1 1 .5.5 0 0 0 1 0 1 1 0 0 1 1-1 .5.5 0 0 0 0-1zM3.5 3.5a1 1 0 0 1 1 1 .5.5 0 0 0 1 0 1 1 0 0 1 1-1 .5.5 0 0 0 0-1 1 1 0 0 1-1-1 .5.5 0 0 0-1 0 1 1 0 0 1-1 1 .5.5 0 0 0 0 1z" class="cls-1"/></svg>