<svg xmlns="http://www.w3.org/2000/svg" viewBox="0 0 24 24"><path fill-rule="evenodd" d="M15.855 10.816a.401.401 0 0 0-.204-.098l-2.266-.344-1.015-2.15a.432.432 0 0 0-.156-.164.413.413 0 0 0-.582.164l-1.015 2.15-2.266.344a.405.405 0 0 0-.206.096.435.435 0 0 0-.134.432.43.43 0 0 0 .112.205l1.64 1.677-.389 2.368a.448.448 0 0 0 .164.416.386.386 0 0 0 .431.033l2.029-1.114 2.028 1.118a.385.385 0 0 0 .363.01.415.415 0 0 0 .223-.277.444.444 0 0 0 .009-.185l-.387-2.368 1.64-1.677a.43.43 0 0 0 .112-.206.454.454 0 0 0-.133-.432z"/><path fill-rule="evenodd" d="M22.5 10a.5.5 0 0 0 .5-.5v-5a.5.5 0 0 0-.5-.5h-21a.5.5 0 0 0-.5.5v5a.5.5 0 0 0 .5.5 2.5 2.5 0 1 1 0 5 .5.5 0 0 0-.5.5v5a.5.5 0 0 0 .5.5h21a.5.5 0 0 0 .5-.5v-5a.5.5 0 0 0-.5-.5 2.5 2.5 0 1 1 0-5zm-.5 5.965V20H2v-4.035a3.501 3.501 0 0 0 0-6.93V5h20v4.035a3.501 3.501 0 0 0 0 6.93z"/></svg>