<svg xmlns="http://www.w3.org/2000/svg" viewBox="0 0 24 24"><path d="M21.854 17.146l-4.147-4.147 5.146-5.146a.5.5 0 0 0 0-.707l-5-5a.514.514 0 0 0-.707 0L12 7.292 5.854 1.146a.5.5 0 0 0-.707 0l-4.001 4a.5.5 0 0 0 0 .707l6.146 6.146-5.147 5.147a.5.5 0 0 0 0 .707l5 5a.5.5 0 0 0 .708 0L13 17.706l4.147 4.147c.069.07.158.117.256.137l5 1a.505.505 0 0 0 .452-.136.5.5 0 0 0 .137-.451l-1-5a.49.49 0 0 0-.137-.256zM2.207 5.5L5.5 2.207 11.293 8 8 11.293 2.207 5.5zm5.292 16.293L3.207 17.5 5.5 15.207l.647.647a.498.498 0 0 0 .708 0 .5.5 0 0 0 0-.707l-.647-.647 2.145-2.145.002-.001.001-.002.145-.145 1.647 1.647a.498.498 0 0 0 .708 0 .5.5 0 0 0 0-.707L9.209 11.5l2.293-2.293.647.647a.498.498 0 0 0 .708 0 .5.5 0 0 0 0-.707L12.21 8.5l.145-.144s.002 0 .002-.002 0-.002.002-.002l2.144-2.145 1.647 1.647a.498.498 0 0 0 .708 0 .5.5 0 0 0 0-.707L15.211 5.5l2.292-2.293L21.796 7.5 7.503 21.793zm10.247-.754l-4.04-4.04 3.293-3.293 4.04 4.04.823 4.116-4.116-.823z"/></svg>