<svg xmlns="http://www.w3.org/2000/svg" viewBox="0 0 24 24"><path fill-rule="evenodd" d="M14 13h-4a4 4 0 0 0-4 4v2a2 2 0 0 0 2 2h8a2 2 0 0 0 2-2v-2a4 4 0 0 0-4-4zm3 6a1 1 0 0 1-1 1H8a1 1 0 0 1-1-1v-2a3 3 0 0 1 3-3h4a3 3 0 0 1 3 3v2z"/><path fill-rule="evenodd" d="M20 12.126V9a6.001 6.001 0 0 0-5-5.917V3a2 2 0 0 0-2-2h-2a2 2 0 0 0-2 2v.083A6.001 6.001 0 0 0 4 9v3.126c-1.725.444-3 2.01-3 3.874v4a2 2 0 0 0 2 2h1.268c.346.598.992 1 1.732 1h12c.74 0 1.387-.402 1.732-1H21a2 2 0 0 0 2-2v-4a4.002 4.002 0 0 0-3-3.874zM4 21H3a1 1 0 0 1-1-1v-4c0-1.306.835-2.417 2-2.829V21zm7-19h2a1 1 0 0 1 1 1h-4a1 1 0 0 1 1-1zm8 19a1 1 0 0 1-1 1H6a1 1 0 0 1-1-1V9a5 5 0 0 1 5-5h4a5 5 0 0 1 5 5v12zm3-1a1 1 0 0 1-1 1h-1v-7.829c1.165.412 2 1.523 2 2.829v4z"/></svg>