<svg xmlns="http://www.w3.org/2000/svg" viewBox="0 0 24 24"><path fill-rule="evenodd" d="M2.704 13.956L2.5 13.5l.204.456.018-.008.052-.023.198-.09a109.22 109.22 0 0 0 3.19-1.518c1.942-.962 4.342-2.223 6.117-3.399 1.588-1.052 3.479-2.567 4.965-3.811a112.391 112.391 0 0 0 2.259-1.942l-.485 1.697a.5.5 0 1 0 .961.275l1-3.5a.5.5 0 0 0-.618-.618l-3.5 1a.5.5 0 1 0 .275.961l1.575-.45-.273.239c-.456.399-1.097.953-1.836 1.571-1.48 1.239-3.337 2.725-4.875 3.744-1.721 1.14-4.073 2.378-6.009 3.336-.965.478-1.822.884-2.437 1.17-.307.143-.555.256-.724.334l-.195.088-.05.023-.017.007a.501.501 0 0 0 .408.914zM20.5 8a2.5 2.5 0 0 0-2.5 2.5 2.5 2.5 0 0 0-4 2 2.5 2.5 0 0 0-4 2 2.5 2.5 0 0 0-4 2 2.5 2.5 0 0 0-4 2v4a.5.5 0 0 0 .5.5h20a.5.5 0 0 0 .5-.5v-12A2.5 2.5 0 0 0 20.5 8zM6 22H3v-3.5a1.5 1.5 0 0 1 3 0V22zm4 0H7v-5.5a1.5 1.5 0 0 1 3 0V22zm4 0h-3v-7.5a1.5 1.5 0 0 1 3 0V22zm4 0h-3v-9.5a1.5 1.5 0 0 1 3 0V22zm4 0h-3V10.5a1.5 1.5 0 0 1 3 0V22z"/></svg>