<svg xmlns="http://www.w3.org/2000/svg" data-name="Camada 1" viewBox="0 0 24 24"><path stroke-width="0" d="M19.74 4.18A10.766 10.766 0 0 0 11.94 1a10.991 10.991 0 0 0-7.769 3.243A10.999 10.999 0 0 0 12 23h.06A10.996 10.996 0 0 0 22.78 9.797a11.003 11.003 0 0 0-3.041-5.617zM12.05 22H12a10.001 10.001 0 0 1 0-20 10 10 0 0 1 .05 20z"/><path stroke-width="0" d="M17.57 6.88l-6.63 9.34a.44.44 0 0 1-.57 0L6.36 12a.5.5 0 0 0-.35-.147.496.496 0 0 0-.497.502.506.506 0 0 0 .147.355l4 4.22a1.418 1.418 0 0 0 1 .44 1.49 1.49 0 0 0 .87-.29c.108-.081.203-.179.28-.29l6.55-9.27a.498.498 0 0 0 .016-.558.494.494 0 0 0-.135-.142.492.492 0 0 0-.67.06z"/></svg>