<svg xmlns="http://www.w3.org/2000/svg" version="1.0" viewBox="0 0 24 24"><path d="M8.5 3.5c-1.3 0-2.6 1-3.2 2.3-.4.8-1.2 1.7-2.3 1.7H2c-.3 0-.5-.2-.5-.5s.2-.5.5-.5h1c.5 0 1.1-.5 1.4-1.2.7-1.6 2.4-2.8 4.1-2.8 1.7 0 3.4 1.3 4.1 2.8.3.7.9 1.2 1.4 1.2h1c.3 0 .5.2.5.5s-.2.5-.5.5h-1c-1.1 0-1.9-.9-2.3-1.7-.6-1.3-1.9-2.3-3.2-2.3zM15.5 10.5c-1.3 0-2.6 1-3.2 2.3-.4.8-1.2 1.7-2.3 1.7H9c-.3 0-.5-.2-.5-.5s.2-.5.5-.5h1c.5 0 1.1-.5 1.4-1.2.7-1.6 2.4-2.8 4.1-2.8s3.4 1.3 4.1 2.8c.3.7.8 1.2 1.4 1.2h1c.3 0 .5.2.5.5s-.2.5-.5.5h-1c-1.1 0-1.9-.9-2.3-1.7-.6-1.3-1.9-2.3-3.2-2.3zM5.3 19.8c.6-1.3 1.9-2.3 3.2-2.3s2.6 1 3.2 2.3c.4.8 1.2 1.7 2.3 1.7h1c.3 0 .5-.2.5-.5s-.2-.5-.5-.5h-1c-.5 0-1.1-.5-1.4-1.2-.7-1.6-2.4-2.8-4.1-2.8-1.7 0-3.4 1.3-4.1 2.8-.3.7-.9 1.2-1.4 1.2H2c-.3 0-.5.2-.5.5s.2.5.5.5h1c1.1 0 1.9-.9 2.3-1.7z"/></svg>