<svg xmlns="http://www.w3.org/2000/svg" viewBox="0 0 24 24"><path d="M7.5 21h-1A2.5 2.5 0 0 1 4 18.5V6h9v4.5a.5.5 0 0 0 1 0v-5a.5.5 0 0 0-.5-.5H12V2.5a.5.5 0 0 0-.5-.5h-6a.5.5 0 0 0-.5.5V5H3.5a.5.5 0 0 0-.5.5v13A3.5 3.5 0 0 0 6.5 22h1a.5.5 0 0 0 0-1zM6 3h5v2H6V3z" class="cls-1"/><path d="M20.854 11.146A.5.5 0 0 0 20.5 11a6.5 6.5 0 0 0-6.252 4.723A5.5 5.5 0 0 0 9.5 13a.5.5 0 0 0-.5.5v3a5.496 5.496 0 0 0 5.5 5.5 6.5 6.5 0 0 0 6.5-6.5v-4a.504.504 0 0 0-.146-.354zM14 20.972a4.5 4.5 0 0 1-4-4.472v-2.472a4.5 4.5 0 0 1 4 4.472v2.472zm6-5.472a5.5 5.5 0 0 1-5 5.477V17.5a5.5 5.5 0 0 1 5-5.477V15.5z" class="cls-1"/></svg>