<svg xmlns="http://www.w3.org/2000/svg" data-name="Camada 1" viewBox="0 0 24 24"><path stroke-width="0" d="M21.173 12.592V3.594a.5.5 0 0 0-.392-.488l-9-2.001a.497.497 0 0 0-.217 0l-9 2a.5.5 0 0 0-.392.488v10c0 .045.006.09.018.134 1.28 4.604 7.711 9.366 9.482 9.366.512 0 1.592-.51 2.846-1.347a6 6 0 0 0 6.655-9.155zm-9.501 9.502c-1.251 0-7.305-4.45-8.5-8.569v-9.53l8.5-1.889 8.5 1.889v7.483A5.97 5.97 0 0 0 16.237 10a6 6 0 0 0-2.817 11.297c-.812.502-1.458.797-1.748.797zm7.828-5.416h-2.762v2.763a.5.5 0 0 1-1 0v-2.763h-2.763a.5.5 0 0 1 0-1h2.763v-2.763a.5.5 0 0 1 1 0v2.763H19.5a.5.5 0 0 1 0 1z"/></svg>