<svg xmlns="http://www.w3.org/2000/svg" data-name="Camada 1" viewBox="0 0 24 24"><path fill-rule="evenodd" stroke-width="0" d="M6.314 10.719a.5.5 0 0 0 .65-.279 3.478 3.478 0 0 1 3.228-2.186h.133a3.674 3.674 0 0 1 3.674 3.674v.326a.5.5 0 0 0 1 0v-.326c0-2.353-1.739-4.3-4.002-4.626a.77.77 0 0 0 .002-.048v-3h3c.263 0 .397.007.526.072.12.06.305.208.526.651a.5.5 0 0 0 .895-.447c-.278-.557-.593-.908-.974-1.099-.357-.178-.71-.178-.948-.178H8.498a.5.5 0 0 0 0 1h1.5v3.004a4.476 4.476 0 0 0-3.964 2.81.5.5 0 0 0 .279.65zM18.5 11.255a2 2 0 0 0 2-2c0-.9-.442-1.752-.834-2.34a7.756 7.756 0 0 0-.79-.991l-.015-.016-.005-.005-.002-.002-.354-.354-.354.354-.002.002-.005.005-.015.016a2.023 2.023 0 0 0-.054.057c-.045.049-.109.118-.184.206-.15.175-.351.426-.552.728-.392.587-.834 1.44-.834 2.34a2 2 0 0 0 2 2zm-.334-3.785c.115-.173.231-.327.334-.456.103.129.219.283.334.456.358.538.666 1.185.666 1.785a.997.997 0 0 1-1 1 .997.997 0 0 1-1-1c0-.6.308-1.248.666-1.785zM21.476 17.215a1.799 1.799 0 0 0-.93-1.12c-1.25-.64-3.37-.15-4.52.2a1.742 1.742 0 0 0-1.5-1.36 16.484 16.484 0 0 1-3.35-1.16 6.558 6.558 0 0 0-3.89-.21.524.524 0 0 0-.28-.25l-3.85-1.1a.501.501 0 0 0-.436.086.503.503 0 0 0-.204.395v6.16a.5.5 0 0 0 .5.5h2.82a.499.499 0 0 0 .49-.4l.08-.37 4.87 1.84a4.749 4.749 0 0 0 1.74.32 4.876 4.876 0 0 0 1.87-.37l6.3-2.61a.498.498 0 0 0 .29-.55zm-16 1.19h-1.96v-5l2.77.78-.81 4.22zm9.08 1.09a3.876 3.876 0 0 1-2.88.05l-5-1.91.62-3a5.712 5.712 0 0 1 3.54.08 16.67 16.67 0 0 0 3.58 1.23c.55.11.75.44.71.72-.04.28-.19.4-.57.36a23.306 23.306 0 0 1-4.2-.85.482.482 0 0 0-.201-.044.497.497 0 0 0-.504.538.497.497 0 0 0 .375.446c1.445.442 2.928.747 4.43.91h.2a1.396 1.396 0 0 0 1.15-.57c1-.34 3.31-1 4.35-.45.07.029.134.07.19.12l-5.79 2.37z"/></svg>