<svg xmlns="http://www.w3.org/2000/svg" id="Camada_1" data-name="Camada 1" version="1.1" viewBox="0 0 24 24"><defs><style>.cls-1{fill-rule:evenodd;fill:#363636;stroke-width:0}</style></defs><path stroke-width="0" d="M14 4h.5c.1 0 .3.2.5.7.1.2.4.3.7.2.2 0 .3-.4.2-.7-.3-.6-.6-.9-1-1.1-.3-.2-.6-.2-.9-.2H8.5c-.3 0-.5.2-.5.5s.2.5.5.5H10v3c-1.8 0-3.3 1.2-4 2.8 0 .3 0 .5.3.6s.5 0 .6-.3c.6-1.2 1.9-2.1 3.3-2.1h.1c2 0 3.7 1.6 3.7 3.7v.3c0 .3.2.5.5.5s.5-.2.5-.5v-.3c0-2.4-1.7-4.3-4-4.6V3.9h3z"/><path d="M18.5 5.3l-.4.4H18s-.1.2-.2.3c-.2.2-.4.4-.6.7-.4.6-.8 1.4-.8 2.3s.2 1 .6 1.4.9.6 1.4.6 1-.2 1.4-.6c.4-.4.6-.9.6-1.4 0-.9-.4-1.8-.8-2.3-.2-.3-.3-.5-.5-.7-.1-.2-.1-.1-.2-.2h-.1l-.3-.4zm0 1.5c-.1 0-.2.3-.3.5-.4.5-.7 1.2-.7 1.8s.1.5.3.7c.2 0 .4.2.7.2s.5-.1.7-.3.3-.4.3-.7c0-.6-.3-1.2-.7-1.8 0-.2-.2-.3-.3-.4zM21.1 16.3c.2.2.3.4.3.7v.3c-.1.1-.1.2-.2.2l-6.3 2.6c-.6.2-1.2.4-1.9.4s-1.2-.1-1.7-.3l-4.9-1.8v.4c0 .1-.2.2-.3.3 0 .1-.2.1-.3.1H3s-.3-.1-.4-.1V12.5v-.3l.1-.1c0-.1.2 0 .2 0h.2L7 13.2s.2.1.3.2c1.3-.3 2.6-.3 3.9.2 1.1.5 2.2.9 3.4 1.2.4 0 .7.2 1 .4s.5.6.5.9c1.1-.4 3.3-.8 4.5-.2.2.2.4.3.5.5zM3.5 18.1h2l.8-4.2-2.8-.8v5zm8.2 1.2c.9.4 2 .3 2.9-.1l5.8-2.4q-.1-.1-.2-.1c-1-.5-3.4.1-4.3.5-.1.2-.3.3-.5.4s-.4.1-.6.1h-.2c-1.5-.2-3-.5-4.4-.9h-.3c-.1 0-.2-.2-.2-.3v-.1-.2c0-.2 0-.1.1-.2s.1-.1.2-.1h.4c1.4.4 2.8.7 4.2.9.4 0 .5-.1.6-.4s-.2-.6-.7-.7c-1.2-.3-2.4-.7-3.6-1.2-1.1-.4-2.4-.4-3.5-.1l-.6 3 4.8 2z" class="cls-1"/></svg>