<svg xmlns="http://www.w3.org/2000/svg" viewBox="0 0 24 24"><path fill-rule="evenodd" d="M6.42 3h4.33a.51.51 0 0 1 .5.5.5.5 0 0 1-.5.5h-.09v1.25a.5.5 0 0 1 .39.56 4.2 4.2 0 0 0 .07 1.82c.02.052.043.102.07.15a7.082 7.082 0 0 0-.85.58 2.52 2.52 0 0 0-.15-.36A4.731 4.731 0 0 1 10 6.24H6.57A6.16 6.16 0 0 1 6.31 8a9.32 9.32 0 0 0-.65 3.64v7.86a.5.5 0 0 0 .5.5h4.3a.5.5 0 0 0 .5-.5v-1.44c.313.21.648.385 1 .52v.92a1.5 1.5 0 0 1-1.5 1.5H6.14a1.5 1.5 0 0 1-1.5-1.5v-7.86a10.48 10.48 0 0 1 .72-4 4.29 4.29 0 0 0 .17-1.83.53.53 0 0 1 .12-.4.5.5 0 0 1 .27-.16V4H4.65a.5.5 0 0 1-.5-.5.51.51 0 0 1 .5-.5h1.77zm3.24 1v1.24H6.92V4h2.74zm1.12 7.86a.51.51 0 0 1-.62.35.5.5 0 0 1-.35-.61 4.66 4.66 0 0 1 4.3-3.6 4.34 4.34 0 0 1 3.72 2.25l.18-.5a.5.5 0 1 1 .94.34l-.59 1.63a.52.52 0 0 1-.28.3.53.53 0 0 1-.41 0l-1.48-.74a.5.5 0 0 1 .45-.89l.12.06A3.27 3.27 0 0 0 14.13 9a3.67 3.67 0 0 0-3.35 2.84v.02zm7.72 2.04a4.63 4.63 0 0 1-4.36 3.94 4.53 4.53 0 0 1-3.87-2.45l-.12.3a.503.503 0 0 1-.93-.38l.64-1.58a.51.51 0 0 1 .28-.28.51.51 0 0 1 .4 0l1.42.68a.503.503 0 1 1-.43.91l-.41-.2a3.52 3.52 0 0 0 3 2 3.64 3.64 0 0 0 3.39-3.11.508.508 0 0 1 1 .17h-.01z" clip-rule="evenodd"/></svg>