<svg xmlns="http://www.w3.org/2000/svg" viewBox="0 0 24 24"><path d="M18.056 13.901c2.806-.501 4.945-2.953 4.945-5.901 0-.833-.17-1.643-.506-2.408a.498.498 0 0 0-.811-.152l-3.02 3.018-2.121-2.121 3.019-3.019a.501.501 0 0 0-.152-.812A5.968 5.968 0 0 0 17.002 2c-3.309 0-6 2.691-6 6 0 .639.103 1.254.288 1.832l-.395.356-2.894-2.894V4.501a.499.499 0 0 0-.223-.416l-3-2a.501.501 0 0 0-.631.062l-2 2a.5.5 0 0 0-.062.631l2 3a.501.501 0 0 0 .416.223h2.793l2.857 2.857-7.048 6.343a3.296 3.296 0 0 0-1.1 2.386 3.294 3.294 0 0 0 .973 2.439 3.292 3.292 0 0 0 2.348.975c.038 0 .075 0 .113-.002a3.338 3.338 0 0 0 2.395-1.133l4.56-5.207 5.489 5.463c.566.566 1.319.879 2.121.879s1.555-.312 2.121-.879a2.97 2.97 0 0 0 .879-2.121c0-.801-.312-1.555-.879-2.122l-4.065-3.977zM3.144 4.563l1.42-1.42 2.437 1.624v2.232H4.769L3.145 4.562zM17.001 3c.44 0 .873.057 1.293.17l-2.812 2.812a.5.5 0 0 0 0 .707l2.828 2.828a.5.5 0 0 0 .708 0l2.812-2.812c.113.42.171.853.171 1.293 0 2.757-2.243 5-5 5s-5-2.243-5-5 2.243-5 5-5zM7.078 21.206a2.307 2.307 0 0 1-1.675.793c-.652.005-1.262-.221-1.722-.681-.456-.456-.698-1.062-.681-1.706s.29-1.237.77-1.668l7.931-7.138a6.039 6.039 0 0 0 2.364 2.421l-6.988 7.978zm14.336.208c-.756.756-2.072.756-2.828 0l-5.536-5.51 1.969-2.248a5.997 5.997 0 0 0 1.707.33c.011.012.015.028.027.039l2.901 2.8 1.76 1.76c.378.378.586.881.586 1.415s-.208 1.036-.586 1.414z"/></svg>