<svg xmlns="http://www.w3.org/2000/svg" version="1.0" viewBox="0 0 24 24"><path fill-rule="evenodd" d="M1.9 9.4c-.2.2-.2.5 0 .7.2.2.5.2.7 0l7.8-7.8c.2-.2.2-.5 0-.7-.2-.2-.5-.2-.7 0L1.9 9.4zm0 6.2c-.2.2-.2.5 0 .7.2.2.5.2.7 0l7.8-7.8c.2-.2.2-.5 0-.7-.2-.2-.5-.2-.7 0l-7.8 7.8zm0 6.8c-.2-.2-.2-.5 0-.7l7.8-7.8c.2-.2.5-.2.7 0 .2.2.2.5 0 .7l-7.8 7.8c-.2.1-.5.1-.7 0zm6.7-.8c-.2.2-.2.5 0 .7.2.2.5.2.7 0l5.6-5.6c.2-.2.2-.5 0-.7-.2-.2-.5-.2-.7 0l-5.6 5.6zm5.5-15.4c.1.1.2.1.3.2.1 0 .2.1.3.1h.3c.4 0 .9-.2 1.2-.5.3-.3.5-.7.5-1.2v-.3c0-.1-.1-.2-.1-.3 0-.1-.1-.2-.2-.3-.1-.1-.1-.2-.2-.3-.4-.4-1-.6-1.5-.5-.1 0-.2.1-.3.1-.1 0-.2.1-.3.2-.1.1-.2.1-.2.2-.3.3-.5.7-.5 1.2s.2.9.5 1.2l.2.2zm5.6 3.3c-.1-.1-.2-.1-.2-.2-.3-.3-.5-.7-.5-1.2 0-.4.2-.9.5-1.2.1-.1.2-.1.2-.2.1-.1.2-.1.3-.2.1 0 .2-.1.3-.1.5-.1 1.1.1 1.5.5 0 .1.1.2.2.3.1.1.1.2.2.3 0 .1.1.2.1.3v.3c0 .4-.2.9-.5 1.2-.3.3-.7.5-1.2.5h-.3c-.1 0-.2-.1-.3-.1-.2-.1-.2-.1-.3-.2zm-5.6 3.3c.1.1.2.1.3.2.1 0 .2.1.3.1h.3c.4 0 .9-.2 1.2-.5.3-.3.5-.7.5-1.2v-.3c0-.1-.1-.2-.1-.3 0-.1-.1-.2-.2-.3-.1-.1-.1-.2-.2-.3-.4-.4-1-.6-1.5-.5-.1 0-.2.1-.3.1-.1 0-.2.1-.3.2-.1.1-.2.1-.2.2-.3.3-.5.7-.5 1.2 0 .4.2.9.5 1.2 0 .1.1.2.2.2zm5.8 3.5c-.1 0-.2-.1-.3-.2-.1-.1-.2-.1-.2-.2-.3-.3-.5-.7-.5-1.2 0-.4.2-.9.5-1.2.1-.1.2-.1.2-.2.1-.1.2-.1.3-.2.1 0 .2-.1.3-.1.5-.1 1.1.1 1.5.5.1.1.1.2.2.3.1.1.1.2.2.3 0 .1.1.2.1.3v.3c0 .4-.2.9-.5 1.2-.3.3-.7.5-1.2.5h-.3s-.2 0-.3-.1z" clip-rule="evenodd"/></svg>