<svg xmlns="http://www.w3.org/2000/svg" viewBox="0 0 24 24"><defs><style>.cls-1{fill:#363636;fill-rule:evenodd}</style></defs><g id="Camada_1"><path d="M21.658 7.909A8.26 8.26 0 0 0 6.703 5.935a.5.5 0 0 0 .852.524A7.256 7.256 0 0 1 20.7 8.194a7.259 7.259 0 0 1-.516 5.41.5.5 0 1 0 .888.46 8.263 8.263 0 0 0 .587-6.155z" class="cls-1"/><path d="M4.647 14.227c1.511.531 3.573.794 5.849.816a.5.5 0 0 0 .01-1c-2.224-.021-4.162-.279-5.526-.759-1.411-.496-1.978-1.134-1.978-1.784s.567-1.287 1.977-1.778C6.342 9.248 8.28 9 10.502 9c2.2 0 4.005.367 5.24.897.619.265 1.074.562 1.367.855.293.293.393.548.393.748a.5.5 0 0 0 1 0c0-.55-.276-1.045-.685-1.455s-.987-.77-1.68-1.067C14.748 8.383 12.802 8 10.502 8c-2.277 0-4.34.252-5.852.778-1.466.51-2.648 1.371-2.648 2.722v7c0 .757.271 1.384.764 1.877.479.479 1.143.807 1.903 1.039 1.515.461 3.581.584 5.833.584a.5.5 0 0 0 0-1c-2.248 0-4.182-.127-5.542-.541-.677-.206-1.169-.471-1.487-.789-.304-.304-.471-.677-.471-1.17v-5.129c.452.356 1.024.637 1.647.856z" class="cls-1"/><path d="M19.348 16.772a1.96 1.96 0 0 0-.409-.293 2.06 2.06 0 0 0-.616-2.541 1.979 1.979 0 0 0-1.495-.366 1.967 1.967 0 0 0-1.063.535 1.998 1.998 0 0 0-1.072-.574 1.97 1.97 0 0 0-1.53.36 2.03 2.03 0 0 0-.803 1.361 2.086 2.086 0 0 0 .208 1.227 2.009 2.009 0 0 0-.899.982 2.079 2.079 0 0 0 .015 1.673 2 2 0 0 0 1.251 1.1c.275.083.563.104.847.063h.002l.013.073c.061.303.189.588.375.834s.425.446.7.584a1.973 1.973 0 0 0 2.47-.584 2.04 2.04 0 0 0 .388-.914h.002a1.967 1.967 0 0 0 1.58-.481 2.062 2.062 0 0 0 .035-3.039zm-.443 1.943a1.039 1.039 0 0 1-.255.347.983.983 0 0 1-.78.239.972.972 0 0 1-.392-.145.501.501 0 0 0-.754.544c.039.155.043.317.012.473a1.04 1.04 0 0 1-.543.722.965.965 0 0 1-.872 0 1.013 1.013 0 0 1-.351-.294 1.052 1.052 0 0 1-.18-.901.5.5 0 0 0-.758-.542.96.96 0 0 1-.809.118.988.988 0 0 1-.37-.206 1.062 1.062 0 0 1-.014-1.567.991.991 0 0 1 .601-.257.5.5 0 0 0 .289-.882 1.002 1.002 0 0 1-.166-.178l-.007-.009a1.054 1.054 0 0 1-.205-.789c.019-.139.066-.273.136-.392a1.014 1.014 0 0 1 .633-.471.969.969 0 0 1 .763.139c.112.075.21.173.286.288l.008.012a.99.99 0 0 1 .114.216.5.5 0 0 0 .936 0c.029-.076.067-.148.112-.214a1.014 1.014 0 0 1 .651-.409.98.98 0 0 1 .739.183 1.038 1.038 0 0 1 .405.678 1.057 1.057 0 0 1-.18.775.981.981 0 0 1-.164.176.499.499 0 0 0 .289.882 1.003 1.003 0 0 1 .275.055.986.986 0 0 1 .317.199 1.055 1.055 0 0 1 .237 1.211z" class="cls-1"/></g></svg>