<svg xmlns="http://www.w3.org/2000/svg" viewBox="0 0 24 24"><path d="M13.396 21.995h-.009c-1.219-.003-2.213-.059-2.978-.734l-.397-.423c-.537-.68-.938-1.521-1.619-3.363-.695-1.878-.813-2.151-1.267-2.921l-.065-.11c-.204-.346-.553-.938-.764-1.21a.417.417 0 0 0-.093.143c-.07.289-.185 2.746-.192 5.9a291.047 291.047 0 0 1-.013 2.224.5.5 0 0 1-.5.495H3.504a.502.502 0 0 1-.5-.513c0-.017.045-1.694 0-3.2l-.025-.849c-.1-3.433-.126-4.354-.65-6.122-.541-1.823-.302-3.166-.092-4.351a9.659 9.659 0 0 1 1.63-3.907C3.874 3.043 4.712 2 5.156 2c.342.002.669.214 1.515 1.37.907 1.24 1.33 2.222 2.097 4.004.29.673.632 1.467 1.071 2.442a143.8 143.8 0 0 0 1.37 2.973c.347.688.922 1.424 1.336 1.713.537.375.792.453 2.042.388l1.145-.063a.453.453 0 0 1 .26.057l.998.524c1.443.757 3.932 2.145 4.271 2.425.33.271.713.662.736 1.281.024.586-.374 1.219-.772 1.49-.273.188-.781.297-2.137.587l-1.211.262c-1.144.25-3.565.544-4.482.544zm-7.011-9.83c.456 0 .749.433 1.538 1.771l.065.11c.49.831.628 1.148 1.343 3.082.72 1.948 1.062 2.578 1.441 3.06l.335.357c.427.374 1.08.447 2.282.45h.009c.849 0 3.194-.286 4.267-.521l1.216-.263c.916-.196 1.64-.352 1.786-.438.136-.093.341-.41.332-.623-.007-.181-.11-.334-.371-.549-.216-.171-2.324-1.379-4.102-2.312l-.876-.46-1.007.056c-1.313.072-1.854.003-2.669-.565-.558-.391-1.224-1.227-1.656-2.082-.15-.298-.76-1.621-1.388-3.013-.442-.98-.787-1.78-1.079-2.457-.763-1.771-1.146-2.661-1.986-3.809-.342-.467-.555-.716-.683-.847-.173.154-.394.369-.493.511-.773 1.111-1.239 2.227-1.466 3.51-.209 1.181-.407 2.295.066 3.892.561 1.892.588 2.841.691 6.376l.025.849a62.67 62.67 0 0 1 .01 2.743h.989c.003-.396.007-1.001.008-1.721.004-1.812.07-5.717.248-6.227.174-.503.658-.883 1.125-.883z"/></svg>