<svg xmlns="http://www.w3.org/2000/svg" viewBox="0 0 24 24"><path d="M21.854 10.146A.5.5 0 0 0 21.5 10h-2.023l2.122-3.5a2.992 2.992 0 0 0 .3-2.276 2.988 2.988 0 0 0-1.398-1.822 2.98 2.98 0 0 0-2.277-.299 3.006 3.006 0 0 0-1.814 1.388l-3.958 6.51H2.5a.498.498 0 0 0-.5.5c0 2.119.586 4.195 1.694 6.001A11.48 11.48 0 0 0 8 20.593v.908a.5.5 0 0 0 .5.5h7a.5.5 0 0 0 .5-.5v-.908a11.48 11.48 0 0 0 6-10.092.505.505 0 0 0-.146-.354zM17.269 4a2.009 2.009 0 0 1 1.214-.931 1.992 1.992 0 0 1 1.518.2c.463.267.794.698.932 1.214a1.986 1.986 0 0 1-.194 1.509l-2.43 4.009h-4.688l3.649-6zm2.184 11.979a10.485 10.485 0 0 1-4.18 3.865.498.498 0 0 0-.273.445v.71H9v-.71a.498.498 0 0 0-.273-.445 10.483 10.483 0 0 1-4.181-3.866 10.478 10.478 0 0 1-1.534-4.979h17.976a10.49 10.49 0 0 1-1.535 4.979z"/></svg>