<svg xmlns="http://www.w3.org/2000/svg" viewBox="0 0 24 24"><path d="M20.43 2.122l1.125-.125a.501.501 0 0 0-.11-.994l-1.125.125a.501.501 0 0 0 .11.994zM18.07 1.378l-2.25.25a.501.501 0 0 0 .11.994l2.25-.25a.501.501 0 0 0-.11-.994zM13.57 1.878l-1.125.125a.501.501 0 0 0 .11.994l1.125-.125a.501.501 0 0 0-.11-.994zM11.5 9H11V7.5a1.5 1.5 0 0 0-1-1.415V2.5a.5.5 0 0 0-.621-.485l-4 1A.5.5 0 0 0 5 3.5v2.585A1.5 1.5 0 0 0 4 7.5V9h-.5A1.5 1.5 0 0 0 2 10.5v11A1.5 1.5 0 0 0 3.5 23h8a1.5 1.5 0 0 0 1.5-1.5v-11A1.5 1.5 0 0 0 11.5 9zM6 3.89l3-.75V6H6V3.89zM5 7.5a.5.5 0 0 1 .5-.5h4a.5.5 0 0 1 .5.5V9H5V7.5zm7 14a.5.5 0 0 1-.5.5h-8a.5.5 0 0 1-.5-.5v-11a.5.5 0 0 1 .5-.5h8a.5.5 0 0 1 .5.5v11zM13.734 4.262l-1.125-.25a.5.5 0 1 0-.217.977l1.125.25a.5.5 0 1 0 .217-.977zM18.234 5.262l-2.25-.5a.5.5 0 1 0-.217.977l2.25.5a.5.5 0 1 0 .217-.977zM21.609 6.012l-1.125-.25a.5.5 0 1 0-.217.977l1.125.25a.5.5 0 1 0 .217-.977z"/></svg>