<svg xmlns="http://www.w3.org/2000/svg" data-name="Camada 1" viewBox="0 0 24 24"><path stroke-width="0" d="M21.108 3.012l-9-2a.497.497 0 0 0-.217 0l-8.999 2A.5.5 0 0 0 2.5 3.5v10c0 .045.006.09.018.134C3.797 18.238 10.229 23 12 23c1.595 0 8.66-4.9 9.492-9.409a.56.56 0 0 0 .008-.091v-10a.5.5 0 0 0-.392-.488zM20.5 13.453C19.71 17.514 13.14 22 12 22c-1.251 0-7.305-4.45-8.5-8.569v-9.53L12 2.012l8.5 1.889v9.552z"/><path stroke-width="0" d="M14.294 18.437a.496.496 0 0 0 .343-.137l.258-.241c1.586-1.491 3.56-3.347 3.56-4.966v-5.87a.5.5 0 0 0-1 0v5.87c0 1.187-1.953 3.022-3.245 4.236l-.258.244a.5.5 0 0 0 .342.863z"/></svg>