<svg xmlns="http://www.w3.org/2000/svg" viewBox="0 0 24 24"><path d="M19.886 8.033a.5.5 0 0 0-.638.3 7.711 7.711 0 0 1-4.547 4.687 7.326 7.326 0 0 1-5.714-.22 7.692 7.692 0 0 1-4.014-4.467.5.5 0 0 0-.944.333 8.976 8.976 0 0 0 1.326 2.449l-1.102 1.176a.54.54 0 0 0 0 .729.461.461 0 0 0 .682 0l1.075-1.147a8.569 8.569 0 0 0 2.142 1.613l-.551 1.43a.53.53 0 0 0 .261.674.47.47 0 0 0 .186.039.484.484 0 0 0 .446-.318l.55-1.416a8.521 8.521 0 0 0 1.257.384l.028.008a8.311 8.311 0 0 0 1.3.179v1.518a.484.484 0 1 0 .965 0v-1.517a7.563 7.563 0 0 0 2.465-.511c.044-.016.084-.038.126-.055l.548 1.41a.484.484 0 0 0 .446.318.462.462 0 0 0 .185-.039.529.529 0 0 0 .261-.674l-.554-1.426a8.574 8.574 0 0 0 2.143-1.613l1.071 1.143a.463.463 0 0 0 .684 0 .542.542 0 0 0 0-.729l-1.1-1.177a8.916 8.916 0 0 0 1.321-2.443.5.5 0 0 0-.3-.638"/><path d="M0 0h24v24H0z"/></svg>