<svg xmlns="http://www.w3.org/2000/svg" viewBox="0 0 24 24"><path d="M15.5 3.5a1 1 0 0 1 1 1 .5.5 0 0 0 1 0 1 1 0 0 1 1-1 .5.5 0 0 0 0-1 1 1 0 0 1-1-1 .5.5 0 0 0-1 0 1 1 0 0 1-1 1 .5.5 0 0 0 0 1zM10.882 7.564l-.194 1.184a.23.23 0 0 0 .013.116.204.204 0 0 0 .175.133.194.194 0 0 0 .11-.025l1.015-.557 1.014.559a.198.198 0 0 0 .181.005.2.2 0 0 0 .07-.056.226.226 0 0 0 .045-.175l-.194-1.184.82-.839a.221.221 0 0 0 .052-.221.22.22 0 0 0-.062-.098.199.199 0 0 0-.102-.049l-1.133-.172-.507-1.075a.227.227 0 0 0-.078-.082.204.204 0 0 0-.214 0 .227.227 0 0 0-.078.082l-.507 1.075-1.133.172a.204.204 0 0 0-.166.146.225.225 0 0 0 .052.221l.82.839z" class="cls-1"/><path d="M21.947 12.276l-1.495-2.99a.497.497 0 0 0-.331-.271l-4.74-1.185a3.492 3.492 0 0 1-.402.93l3.173.793-6.153 1.923-6.152-1.923 3.174-.793a3.46 3.46 0 0 1-.402-.93L3.886 9.013a.476.476 0 0 0-.195.094.498.498 0 0 0-.138.169l-1.5 3a.5.5 0 0 0 .272.691l1.677.629-.001.038v5.865c0 .205.124.388.314.464l7.5 3 .006.002a.503.503 0 0 0 .366-.002l7.5-3a.5.5 0 0 0 .314-.464v-5.904l1.676-.628a.503.503 0 0 0 .272-.691zm-18.751-.049l1.061-2.123 7.065 2.208-1.094 2.552-7.033-2.637zm8.304 9.534l-6.5-2.6v-5.19l5.324 1.997a.5.5 0 0 0 .635-.271l.54-1.261v7.326zm7.5-2.6l-6.5 2.6v-7.326l.54 1.261a.5.5 0 0 0 .635.271l5.324-1.997v5.19zm-5.229-4.297l-1.094-2.552 7.065-2.208 1.061 2.123-7.033 2.637zM3.5 5.5a1 1 0 0 1 1 1 .5.5 0 0 0 1 0 1 1 0 0 1 1-1 .5.5 0 0 0 0-1 1 1 0 0 1-1-1 .5.5 0 0 0-1 0 1 1 0 0 1-1 1 .5.5 0 0 0 0 1z" class="cls-1"/><circle cx="9" cy="2" r="1" class="cls-1"/><circle cx="20" cy="7" r="1" class="cls-1"/></svg>