<svg xmlns="http://www.w3.org/2000/svg" viewBox="0 0 24 24"><path fill-rule="evenodd" d="M11 5.25v.38A4 4 0 0 0 8 9.5v4a2.49 2.49 0 0 1-1 2l-1 .75v1.25a.5.5 0 0 0 .5.5h11a.5.5 0 0 0 .5-.5v-1.25l-1-.75a2.489 2.489 0 0 1-1-2v-4a4 4 0 0 0-3-3.87V5a1 1 0 0 0-2 0v.25zm-1-.34A5 5 0 0 0 7 9.5v4a1.49 1.49 0 0 1-.6 1.2l-1.2.9-.2.15v1.75A1.5 1.5 0 0 0 6.5 19h11a1.5 1.5 0 0 0 1.5-1.5v-1.75l-.2-.15-1.2-.9a1.49 1.49 0 0 1-.6-1.2v-4a5 5 0 0 0-3-4.58 2 2 0 1 0-4 0v-.01zm2 16.59A2.51 2.51 0 0 1 9.71 20h4.58A2.51 2.51 0 0 1 12 21.5z" clip-rule="evenodd"/></svg>