<svg xmlns="http://www.w3.org/2000/svg" data-name="Camada 1" viewBox="0 0 24 24"><path fill-rule="evenodd" stroke-width="0" d="M12 1.99a.5.5 0 0 1 .448.279l2.974 6.024 6.65.966a.5.5 0 0 1 .278.853l-4.812 4.691 1.136 6.623a.5.5 0 0 1-.726.527l-5.947-3.126-5.947 3.126a.502.502 0 0 1-.726-.527l1.136-6.623-4.813-4.691a.499.499 0 0 1 .277-.853l6.65-.966 2.974-6.024A.5.5 0 0 1 12 1.99zm0 1.63L9.358 8.972a.498.498 0 0 1-.376.273l-5.907.858L7.35 14.27c.118.115.172.28.144.442l-1.009 5.884 5.283-2.777a.503.503 0 0 1 .465 0l5.283 2.777-1.009-5.884a.498.498 0 0 1 .144-.442l4.275-4.167-5.908-.858a.5.5 0 0 1-.376-.273L12 3.62z"/></svg>