<svg xmlns="http://www.w3.org/2000/svg" viewBox="0 0 24 24"><path d="M22.854 1.146a.5.5 0 0 0-.707 0L16.71 6.583A4.45 4.45 0 0 0 15 6.028V1.5a.5.5 0 0 0-.5-.5h-4a.5.5 0 0 0-.5.5v4.528c-2.243.25-4 2.165-4 4.472v6.793l-4.854 4.854a.5.5 0 0 0 .707.707l21.001-21a.5.5 0 0 0 0-.707zM11 2h3v1h-3V2zM7 16.293V14h2.293L7 16.293zM10.293 13H7v-2.5C7 8.576 8.576 7 10.5 7a.5.5 0 0 0 .5-.5V4h3v2.5a.5.5 0 0 0 .5.5c.523 0 1.021.117 1.468.325L10.293 13zM17.469 8.653c.336.537.531 1.171.531 1.847V13h-4.879l-1 1H18v4H8.121l-1 1H18v1.139a1.5 1.5 0 0 1-1.747 1.48l-3.671-.612a.501.501 0 0 0-.164 0l-3.671.612A1.5 1.5 0 0 1 7 20.139v-1.018l-1 1v.018a2.5 2.5 0 0 0 2.911 2.466l3.589-.598 3.589.598A2.5 2.5 0 0 0 19 20.139V10.5c0-.953-.3-1.839-.81-2.569l-.721.721z" class="cls-1"/></svg>