<svg xmlns="http://www.w3.org/2000/svg" viewBox="0 0 24 24"><defs><style>.cls-1,.cls-2{fill:#363636}.cls-2{fill-rule:evenodd}</style></defs><g id="Camada_1"><circle cx="10.5" cy="7.5" r="1" class="cls-1"/><circle cx="14.5" cy="7.5" r="1" class="cls-1"/><path d="M11.222 9.584a.503.503 0 0 0-.213.514.498.498 0 0 0 .137.256l1 1a.506.506 0 0 0 .708 0l1-1a.505.505 0 0 0 .108-.545.5.5 0 0 0-.462-.309h-2a.5.5 0 0 0-.278.084z" class="cls-2"/><path d="M22 17.499a5.483 5.483 0 0 0-4.149-5.308A6.468 6.468 0 0 0 19 8.5a6.49 6.49 0 0 0-.578-2.685 2.5 2.5 0 0 0 1.428-1.468 2.496 2.496 0 0 0-4.666-1.77c-.818-.372-1.727-.579-2.685-.579s-1.866.207-2.685.579a2.5 2.5 0 0 0-1.468-1.428 2.496 2.496 0 0 0-1.77 4.666A6.469 6.469 0 0 0 5.997 8.5c0 1.371.424 2.643 1.149 3.691A5.486 5.486 0 0 0 2.997 17.5a2.5 2.5 0 0 0 2 2.45V20a3 3 0 0 0 5.487 1.679 6.475 6.475 0 0 0 4.027 0A3 3 0 0 0 19.998 20v-.05a2.498 2.498 0 0 0 2-2.451zM16.32 2.584a1.503 1.503 0 0 1 1.51-.549 1.496 1.496 0 0 1 1.08 1.97 1.498 1.498 0 0 1-.98.922 6.532 6.532 0 0 0-1.859-1.859c.052-.175.135-.339.247-.485zM6.09 4.006a1.496 1.496 0 1 1 2.837-.936 6.532 6.532 0 0 0-1.859 1.859 1.495 1.495 0 0 1-.979-.922zM7 8.5c0-.984.258-1.907.711-2.706a.505.505 0 0 0 .073-.125 5.523 5.523 0 0 1 1.884-1.884.47.47 0 0 0 .126-.074C10.593 3.259 11.516 3 12.5 3s1.907.258 2.706.711c.038.03.08.055.126.074a5.523 5.523 0 0 1 1.884 1.884.47.47 0 0 0 .074.126c.452.799.711 1.722.711 2.706 0 1.382-.51 2.645-1.352 3.611l-.02.017a.485.485 0 0 0-.086.102c-1.005 1.088-2.444 1.77-4.042 1.77s-3.037-.682-4.042-1.77a.507.507 0 0 0-.086-.101l-.02-.017a5.478 5.478 0 0 1-1.352-3.612zM5.183 18.966A1.5 1.5 0 0 1 4 17.501a4.48 4.48 0 0 1 2.82-4.154 6.468 6.468 0 0 0-.713 4.326 3.002 3.002 0 0 0-.923 1.293zm4.659 1.813a.508.508 0 0 0-.051.095c-.007.016-.012.033-.017.049a2 2 0 1 1 .067-.144zM14 20c0 .263.034.518.097.762a5.47 5.47 0 0 1-3.195 0 3 3 0 0 0-3.864-3.605 5.483 5.483 0 0 1 1.027-3.904C9.226 14.336 10.785 15 12.498 15s3.272-.663 4.433-1.746a5.483 5.483 0 0 1 1.027 3.904 3 3 0 0 0-3.96 2.843zm3 2a2.002 2.002 0 0 1-1.775-1.077.508.508 0 0 0-.068-.144A2.003 2.003 0 0 1 17 18a2 2 0 1 1 0 4zm3.561-3.44a1.496 1.496 0 0 1-.744.405 3.016 3.016 0 0 0-.924-1.294 6.476 6.476 0 0 0-.713-4.326 4.486 4.486 0 0 1 2.821 4.154c0 .398-.158.779-.439 1.06z" class="cls-2"/></g></svg>