<svg xmlns="http://www.w3.org/2000/svg" viewBox="0 0 24 24"><path d="M20.971 9.762a5.124 5.124 0 0 0-1.836-3.692C18.844 4.882 17.49.999 12.229.999 7.14 1 3 4.671 3 9.189a7.573 7.573 0 0 0 2.011 5.066C5.122 19.099 8.311 23 12.225 23c3.949 0 7.166-3.914 7.266-8.77a5.786 5.786 0 0 0 1.197-2.019c.274-.8.369-1.633.283-2.449zM12.229 2c3.461 0 4.947 1.858 5.575 3.252a5.207 5.207 0 0 0-2.181-.41c-3.661 0-4.821 2.182-5.844 4.108l-.001.002-.081.151c-.893 1.686-1.814 3.426-4.11 4.3A6.56 6.56 0 0 1 4 9.183c0-3.961 3.691-7.185 8.229-7.185zm-.004 20c-3.354 0-6.09-3.432-6.213-7.706 2.523-.993 3.595-2.884 4.505-4.6 1.561.068 3.099.496 4.468 1.243a10.16 10.16 0 0 1 3.51 3.188c-.053 4.354-2.843 7.876-6.271 7.876zm7.517-10.113a4.817 4.817 0 0 1-.678 1.297 11.171 11.171 0 0 0-3.601-3.125 11.292 11.292 0 0 0-4.427-1.333c.872-1.56 1.917-2.883 4.6-2.883a4.18 4.18 0 0 1 2.685.858.494.494 0 0 0 .12.094 4.159 4.159 0 0 1 1.534 3.044 4.776 4.776 0 0 1-.232 2.048z" class="cls-1"/></svg>