<svg xmlns="http://www.w3.org/2000/svg" data-name="Icon / Outlined / Finance / Pix" viewBox="0 0 24 24"><path d="M9.857 21.138l-3.8-3.848h.586a2.928 2.928 0 0 0 2.08-.861l3.014-3.014a.57.57 0 0 1 .788 0l3 3.005a2.909 2.909 0 0 0 2.08.907h.366l-3.811 3.811a3.033 3.033 0 0 1-2.149.892 3.031 3.031 0 0 1-2.154-.892zm-4.508-4.709a.4.4 0 0 0-.147 0L2.884 14.12a3.05 3.05 0 0 1 0-4.3l2.318-2.281a.451.451 0 0 0 .156 0H6.65a2.052 2.052 0 0 1 1.447.6l3.033 3.005a1.43 1.43 0 0 0 1.013.421 1.432 1.432 0 0 0 1.012-.421l3-3.042a2.037 2.037 0 0 1 1.448-.6h1.044a.556.556 0 0 0 .165 0l2.346 2.318a3.033 3.033 0 0 1-.073 4.26l-2.309 2.3a.549.549 0 0 0-.165 0h-1.045a2.051 2.051 0 0 1-1.447-.6l-3-3a1.474 1.474 0 0 0-2.042 0L8.09 15.813a2.051 2.051 0 0 1-1.447.6zm6.385-5.9L8.72 7.515a2.933 2.933 0 0 0-2.08-.862h-.586l3.8-3.793a3.034 3.034 0 0 1 2.148-.892 3.036 3.036 0 0 1 2.149.892l3.811 3.812h-.366a2.923 2.923 0 0 0-2.071.861l-3 3a.551.551 0 0 1-.394.167.551.551 0 0 1-.396-.171z"/></svg>