<svg xmlns="http://www.w3.org/2000/svg" viewBox="0 0 24 24"><path d="M12 1C5.935 1 1 5.935 1 12c0 2.004.547 3.879 1.488 5.499.01.018.012.039.025.056.006.009.016.013.022.021C4.451 20.816 7.971 23 12.001 23c6.065 0 11-4.935 11-11S18.065 1 12 1zm0 1c4.749 0 8.728 3.331 9.742 7.777-.231-.315-.45-.654-.672-1.005-.675-1.068-1.373-2.174-2.641-2.704a.502.502 0 0 0-.137-.035c-1.548-.183-2.551 1.406-3.445 2.802-.451.704-.877 1.369-1.329 1.741-.164.161-.588.521-.923.421-.926-.407-1.489-1.307-2.085-2.26-.653-1.045-1.329-2.126-2.549-2.653a.534.534 0 0 0-.096-.03c-1.523-.323-2.517 1.213-3.479 2.695-.93 1.433-1.585 2.334-2.332 2.211C2.577 5.932 6.837 2 12 2zm-9.999 9.977c1.369.173 2.348-1.333 3.225-2.684.765-1.177 1.566-2.388 2.389-2.27.904.414 1.46 1.303 2.048 2.243.65 1.04 1.322 2.114 2.584 2.665.148.046.302.068.457.068.507 0 1.033-.24 1.48-.68.542-.442 1.01-1.173 1.505-1.946.754-1.176 1.543-2.382 2.424-2.353.936.423 1.507 1.328 2.111 2.285.492.779 1.01 1.573 1.749 2.167.009.176.027.349.027.527 0 1.163-.21 2.276-.577 3.316l-.041-.062.003-.003-.004.002-.101-.153h.001-.002l-.147-.225c-.357-.549-.766-1.174-1.222-1.702a13.849 13.849 0 0 1-.147-.171l-.114-.122-.118-.121-.12-.113a6.124 6.124 0 0 0-.25-.207l-.126-.09-.128-.079a9.274 9.274 0 0 0-.138-.074 4.354 4.354 0 0 0-.141-.063c-.014-.005-.132-.049-.146-.053a6.22 6.22 0 0 0-.146-.038 1.945 1.945 0 0 0-.231-.035l-.147-.005h-.008a.323.323 0 0 0-.031.002l-.088.005c-.019.002-.09.01-.108.014l-.03.006-.067.013-.039.008c-.014.004-.133.038-.146.043l-.053.02-.018.005-.01.005-.061.023-.139.066a5.416 5.416 0 0 0-.13.072 5.874 5.874 0 0 1-.094.06l-.011.007a.65.65 0 0 1-.027.017l-.124.091-.127.102-.086.076-.024.021-.011.01-.117.113-.115.118a6.254 6.254 0 0 0-.083.091l-.007.007-.024.027-.116.133-.112.136-.044.056-.01.011-.006.008-.053.067-.106.14c0 .002-.107.146-.109.147 0 .003-.108.15-.11.153l-.108.154.011.011-.103.145-.012-.005-.107.156-.106.158-.13.193-.011.016-.617.889a13.26 13.26 0 0 1-.472.627l-.003-.002.002.003c-.03.037-.06.071-.089.105l-.004-.003.003.004c-.03.036-.061.074-.091.107l-.008-.006.006.008c-.03.033-.06.061-.09.092l-.008-.006.006.008c-.03.031-.06.063-.089.091l-.011-.009.008.012c-.028.026-.055.047-.083.071l-.009-.009.007.011a2.086 2.086 0 0 1-.08.065l-.009-.01.007.012c-.027.02-.054.042-.081.06l-.01-.011.006.013c-.039.026-.078.046-.117.066l-.007-.008.004.01a.959.959 0 0 1-.109.049l-.003-.005v.006a.85.85 0 0 1-.128.038.75.75 0 0 1-.259.012c-.285-.068-.532-.246-.76-.472l.002-.002-.002.002a7.066 7.066 0 0 1-.608-.727l-.08-.104-.002-.003c-.234-.315-.452-.645-.67-.974l-.053-.08a27.8 27.8 0 0 0-.484-.708l-.051-.073-.017-.023a13.464 13.464 0 0 0-.176-.241l-.025-.034-.112-.146-.109-.138a13.55 13.55 0 0 0-.229-.27l-.114-.122-.117-.119a8.734 8.734 0 0 1-.104-.099 6.124 6.124 0 0 0-.14-.122l-.128-.102-.016-.011a2.341 2.341 0 0 0-.276-.178l-.045-.025a1.912 1.912 0 0 0-.263-.118l-.078-.028a6.391 6.391 0 0 0-.148-.039.706.706 0 0 1-.043-.008l-.058-.011-.021-.004a1.98 1.98 0 0 0-.108-.012l-.147-.005c-.018-.002-.121.007-.128.007a1.803 1.803 0 0 0-.392.084l-.121.045a1.68 1.68 0 0 0-.226.11l-.134.08-.125.087-.124.094-.124.104-.118.108-.119.118-.117.123-.046.052-.074.084-.103.122-.042.052a7.903 7.903 0 0 0-.181.229l-.002.003-.109.146-.005.007c-.036.05-.073.099-.108.149l-.052.072-.104.149-.036.051-.013.018-.011.016-.048.07-.106.156-.107.158-.052.078c-.075.112-.153.221-.227.335l-.201.302-.044.064-.099.149-.003-.002.003.003c-.033.049-.068.095-.102.143h-.003.002l-.103.141h-.002.001c-.033.045-.065.091-.099.135h-.002.002c-.033.043-.063.09-.097.132l-.006-.003.004.005a5.185 5.185 0 0 1-.458.508 9.92 9.92 0 0 1-1.075-4.485l.001-.023zM12 22c-3.531 0-6.633-1.844-8.413-4.615a.953.953 0 0 1 .042-.036l.119-.113.115-.117.119-.127.111-.129.112-.136c.251-.304.477-.622.692-.945l.069-.101.105-.156.107-.158.106-.159c.119-.179.235-.358.364-.536l.049-.071.101-.146.102-.143h.002-.001L6 14.175l.003.002-.002-.003.099-.128h.002H6.1c.032-.041.062-.082.095-.123l.003.002-.002-.003.102-.119c.032-.038.063-.076.096-.112h.002-.001c.318-.353.674-.647 1.018-.68a.767.767 0 0 1 .415.093v.004l.001-.003c.039.02.08.045.12.072v.004l.001-.003c.028.018.055.038.084.059l-.002.003.003-.002c.056.044.113.089.171.146.289.277.543.585.785.912H8.99h.001c.226.306.442.629.662.962.02.03.042.059.061.089l.107.162.004-.002c.034.051.07.101.105.152l-.004.004.108.158.109.157c0 .002.107.153.108.155l.107.148.002.002.005.007.008.011.096.13a13.773 13.773 0 0 0 .224.289l.11.133.113.131.117.127.119.122.104.099.014.013.123.108.122.097.127.092.134.085.131.072.122.058a1.5 1.5 0 0 0 .214.077c.017.006.086.023.104.027l.08.015.004.002h.007l.023.004c.018.004.089.012.106.014l.15.007c.016 0 .136-.005.151-.007l.149-.021c.014-.002.134-.03.147-.034l.146-.048.14-.059.015-.007.051-.025.072-.037c.002 0 .109-.063.111-.065.007-.003.028-.017.048-.03.39-.248.719-.603 1.002-.967l.034-.041.112-.143c0-.002.107-.144.109-.146l.109-.148c0-.002.106-.15.107-.152l.109-.155.105-.153.106-.158.19-.283.041-.058c.291-.436.582-.872.901-1.276.326-.402.652-.776 1.058-.938.386-.153.815.124 1.238.571h-.001.001c.032.034.065.065.097.101l-.004.004.005-.003c.032.036.064.078.096.116l-.002.003.003-.002c.034.04.068.08.101.122l-.004.004.005-.003c.033.041.066.077.099.118l-.007.007.009-.005c.034.044.066.091.1.136l-.006.007.008-.004.1.136-.007.007.009-.004.102.139-.008.008.01-.005c.033.046.064.093.096.14l-.007.007.056.083.009-.004.099.146-.006.006.105.156.007-.003.1.154-.004.004.105.157h.003l.049.073.054.082h-.001l.101.15c.185.283.359.529.522.742-1.63 3.315-5.033 5.607-8.97 5.607z" class="cls-1"/></svg>