<svg xmlns="http://www.w3.org/2000/svg" data-name="Camada 1" viewBox="0 0 24 24"><path stroke-width="0" d="M22.794 9.797a11.003 11.003 0 0 0-3.041-5.617 10.766 10.766 0 0 0-7.8-3.18 10.988 10.988 0 0 0-7.769 3.243 11 11 0 0 0 7.829 18.758h.06a11.002 11.002 0 0 0 10.129-6.843 11 11 0 0 0 .592-6.36zm-3.667 9.257a10.004 10.004 0 0 1-7.064 2.947h-.05a10.001 10.001 0 0 1 0-20 10 10 0 0 1 7.114 17.053z"/><path stroke-width="0" d="M17.393 16.621l-4.67-4.62 4.62-4.68a.5.5 0 0 0 .147-.35.496.496 0 0 0-.147-.35.479.479 0 0 0-.7 0l-4.63 4.67-4.68-4.62a.502.502 0 0 0-.822.365.503.503 0 0 0 .122.344l4.67 4.62-4.62 4.68a.484.484 0 0 0-.109.54c.025.06.062.115.109.16a.479.479 0 0 0 .7 0l4.63-4.67 4.68 4.62a.498.498 0 0 0 .809-.17.496.496 0 0 0-.109-.54z"/></svg>