<svg xmlns="http://www.w3.org/2000/svg" viewBox="0 0 24 24"><path d="M17.5 3.5a1 1 0 0 1 1 1 .5.5 0 0 0 1 0 1 1 0 0 1 1-1 .5.5 0 0 0 0-1 1 1 0 0 1-1-1 .5.5 0 0 0-1 0 1 1 0 0 1-1 1 .5.5 0 0 0 0 1zM21.947 12.276l-1.5-3a.5.5 0 0 0-.325-.261h-.001l-3.135-.784c-.04.348-.17.669-.365.94l1.531.383-6.153 1.923-6.152-1.923 4.571-1.143a3.875 3.875 0 0 0-.276-.962L3.885 9.013a.509.509 0 0 0-.334.263l-1.5 3a.5.5 0 0 0 .272.691l1.676.628v5.904c0 .205.124.388.314.464l7.497 2.999c.119.048.253.05.374 0l7.5-3a.5.5 0 0 0 .314-.464v-5.904l1.676-.628a.503.503 0 0 0 .272-.691zm-18.751-.049l1.061-2.123 7.065 2.208-1.094 2.552-7.033-2.637zm8.304 9.534l-6.5-2.6v-5.19l5.324 1.997a.5.5 0 0 0 .635-.271l.54-1.261v7.326zm7.5-2.6l-6.5 2.6v-7.326l.54 1.261a.5.5 0 0 0 .635.271l5.324-1.997v5.19zm-5.229-4.297l-1.094-2.552 7.065-2.208 1.061 2.123-7.033 2.637zM3.5 4.5a1 1 0 0 1 1 1 .5.5 0 0 0 1 0 1 1 0 0 1 1-1 .5.5 0 0 0 0-1 1 1 0 0 1-1-1 .5.5 0 0 0-1 0 1 1 0 0 1-1 1 .5.5 0 0 0 0 1z" class="cls-1"/><circle cx="10" cy="2" r="1" class="cls-1"/><circle cx="15" cy="8" r="1" class="cls-1"/><path d="M9.743 4.544a2.398 2.398 0 0 0-.108-.027l-.034-.007-.012-.002h-.008a.5.5 0 0 0-.166.984l.007.002a1.735 1.735 0 0 1 .269.092c.188.082.447.229.709.487.513.504 1.1 1.492 1.1 3.427a.5.5 0 0 0 1 0c0-1.911.696-3.172 1.378-3.956.343-.395.686-.672.94-.849a4.14 4.14 0 0 1 .379-.233l.017-.008h.002a.5.5 0 0 0-.428-.905h-.002l-.004.003-.01.005-.033.017a4.876 4.876 0 0 0-.492.301 6.183 6.183 0 0 0-1.123 1.014 6.426 6.426 0 0 0-1.115 1.833 4.165 4.165 0 0 0-.907-1.362 3.39 3.39 0 0 0-1.01-.69 2.605 2.605 0 0 0-.348-.125z" class="cls-1"/></svg>