<svg xmlns="http://www.w3.org/2000/svg" version="1.0" viewBox="0 0 24 24"><path d="M6.5 10c0-.3.2-.5.5-.5h2.5V7c0-.3.2-.5.5-.5s.5.2.5.5v2.5H13c.3 0 .5.2.5.5s-.2.5-.5.5h-2.5V13c0 .3-.2.5-.5.5s-.5-.2-.5-.5v-2.5H7c-.3 0-.5-.2-.5-.5z"/><path fill-rule="evenodd" d="M9.9 17.6c-5.8 0-9.4-6.3-6.5-11.3 2.9-5 10.1-5 13 0 .7 1.1 1 2.4 1 3.8 0 1.9-.7 3.6-1.8 4.9l5.8 5.7c.2.2.2.5 0 .7-.1.1-.2.1-.4.1-.1 0-.3 0-.4-.1l-5.8-5.7c-1.2 1.1-3 1.9-4.9 1.9zm0-14c-5 0-8.1 5.4-5.6 9.8 2.2 3.8 7.3 4.3 10.2 1.3l.1-.1h.1l.9-1.2c.6-1 .9-2.1.9-3.2-.1-3.7-3-6.6-6.6-6.6z" clip-rule="evenodd"/></svg>