<svg xmlns="http://www.w3.org/2000/svg" viewBox="0 0 40 40"><path fill-rule="evenodd" d="M15.833 30c.46 0 .833-.373.833-.833V17.5a.833.833 0 0 0-1.666 0v11.667c0 .46.373.833.833.833zM24.166 30c.46 0 .833-.373.833-.833V17.5a.833.833 0 0 0-1.666 0v11.667c0 .46.373.833.833.833z"/><path fill-rule="evenodd" d="M35.833 8.333h-7.5v-2.5a4.167 4.167 0 0 0-4.167-4.167h-8.333a4.167 4.167 0 0 0-4.167 4.167v2.5h-7.5a.833.833 0 0 0 0 1.666h2.547L8.149 34.41l.044.407a4.168 4.168 0 0 0 4.116 3.516H27.69a4.167 4.167 0 0 0 4.16-3.922L33.286 10h2.547a.833.833 0 0 0 0-1.666zm-22.5-2.5a2.5 2.5 0 0 1 2.5-2.5h8.333a2.5 2.5 0 0 1 2.5 2.5v2.5H13.333v-2.5zm16.852 28.48a2.501 2.501 0 0 1-2.495 2.354H12.309a2.5 2.5 0 0 1-2.469-2.109l-.026-.244-1.431-24.313h23.232l-1.431 24.313z"/></svg>