<svg xmlns="http://www.w3.org/2000/svg" viewBox="0 0 24 24"><style></style><g id="Create-Here"><path id="Elipse_2_00000161625965410951770920000014478173435058078372_" d="M12 3.5c4.687 0 8.5 3.813 8.5 8.5s-3.813 8.5-8.5 8.5-8.5-3.813-8.5-8.5S7.313 3.5 12 3.5m0-1c-5.247 0-9.5 4.253-9.5 9.5s4.253 9.5 9.5 9.5 9.5-4.253 9.5-9.5-4.253-9.5-9.5-9.5z"/><path d="M16.169 12.246a.51.51 0 0 0-.5.5l-.017 2.193-6.607-6.601 2.199-.017a.51.51 0 0 0 .5-.499.498.498 0 0 0-.501-.502l-3.395.027a.508.508 0 0 0-.5.5l-.028 3.396a.498.498 0 0 0 .5.5.51.51 0 0 0 .5-.5l.017-2.193 6.607 6.602-2.199.017a.51.51 0 0 0-.5.499.498.498 0 0 0 .501.502l3.396-.027a.508.508 0 0 0 .5-.5l.028-3.396a.499.499 0 0 0-.501-.501z"/></g></svg>