<svg xmlns="http://www.w3.org/2000/svg" viewBox="0 0 40 40"><path fill-rule="evenodd" d="M20 18.333a.833.833 0 0 0-.833.833v10a.833.833 0 0 0 1.666 0v-10a.833.833 0 0 0-.833-.833zM20 10.833a1.667 1.667 0 1 0 0 3.333 1.667 1.667 0 0 0 0-3.333z"/><path fill-rule="evenodd" d="M20 1.667C9.875 1.667 1.667 9.875 1.667 20S9.875 38.333 20 38.333 38.333 30.125 38.333 20 30.125 1.667 20 1.667zm0 35c-9.205 0-16.667-7.462-16.667-16.667S10.796 3.333 20 3.333 36.667 10.795 36.667 20 29.205 36.667 20 36.667z"/></svg>