<svg xmlns="http://www.w3.org/2000/svg" viewBox="0 0 24 24"><path d="M6.7 13.8c0 .3.2.5.5.5h8.6c.3 0 .5-.2.5-.5s-.2-.5-.5-.5H7.2c-.3 0-.5.2-.5.5zM13.8 16.3H7.2c-.3 0-.5.2-.5.5s.2.5.5.5h6.6c.3 0 .5-.2.5-.5s-.2-.5-.5-.5zM7.2 11.2h7.6c.3 0 .5-.2.5-.5s-.2-.5-.5-.5H7.2c-.3 0-.5.2-.5.5s.2.5.5.5z"/><path d="M19.9 7.3l-5.1-5.2c-.1-.1-.1-.1-.2-.1H5.5C4.7 2 4 2.7 4 3.5v17c0 .8.7 1.5 1.5 1.5h13c.8 0 1.5-.7 1.5-1.5V8.2v-.6-.2l-.1-.1zm-5-3.6l3.4 3.4h-2.9c-.3 0-.5-.2-.5-.5V3.7zM19 9.5v11c0 .3-.2.5-.5.5h-13c-.3 0-.5-.2-.5-.5v-17c0-.3.2-.5.5-.5h8.4v3.6c0 .8.7 1.5 1.5 1.5H19v1.4z"/></svg>