<svg xmlns="http://www.w3.org/2000/svg" data-name="Camada 1" viewBox="0 0 24 24"><path stroke-width="0" d="M12.013 9.251a.5.5 0 0 0-.5.5v8a.5.5 0 1 0 1 0v-8a.5.5 0 0 0-.5-.5zM12.693 6.001a1 1 0 0 0-.68-.25.997.997 0 0 0-1 1 1.003 1.003 0 0 0 1 .99 1.003 1.003 0 0 0 .99-1 1.006 1.006 0 0 0-.31-.74z"/><path stroke-width="0" d="M22.794 9.797a11.003 11.003 0 0 0-3.041-5.617 10.766 10.766 0 0 0-7.8-3.18 10.988 10.988 0 0 0-7.769 3.243 11 11 0 0 0 7.829 18.758h.06a10.996 10.996 0 0 0 10.72-13.202zm-3.667 9.257a10.004 10.004 0 0 1-7.064 2.947h-.05a10.001 10.001 0 0 1 0-20 10 10 0 0 1 7.114 17.053z"/></svg>