<svg xmlns="http://www.w3.org/2000/svg" viewBox="0 0 24 24"><path d="M19.9 8c-.3-.1-.5 0-.6.3-.7 2.2-2.4 3.9-4.5 4.7-1.9.7-3.9.6-5.7-.2-1.9-.9-3.3-2.5-4-4.5-.2-.2-.5-.4-.8-.3-.2.1-.4.4-.3.7.3.9.8 1.7 1.3 2.4l-1.1 1.2c-.2.2-.2.5 0 .7.2.2.5.2.7 0L6 11.9c.6.6 1.3 1.2 2.1 1.6l-.6 1.4c-.1.3 0 .6.3.7H8c.2 0 .4-.1.4-.3l.6-1.4c.4.2.8.3 1.3.4.4.1.9.2 1.3.2V16c0 .3.2.5.4.5s.5-.2.5-.4v-1.6c.8 0 1.7-.2 2.5-.5 0 0 .1 0 .1-.1l.5 1.4c.1.2.2.3.4.3h.2c.3-.1.4-.4.3-.7l-.6-1.4c.8-.4 1.5-1 2.1-1.6l1.1 1.1c.2.2.5.2.7 0 .2-.2.2-.5 0-.7l-1.1-1.2c.6-.7 1-1.6 1.3-2.4.3-.3.1-.6-.1-.7"/></svg>