<svg xmlns="http://www.w3.org/2000/svg" viewBox="0 0 24 24"><path d="M9.5 22h-7a.5.5 0 0 1-.5-.5v-12a.5.5 0 0 1 .5-.5h10a.5.5 0 0 1 .5.5v2a.5.5 0 0 0 1 0v-2A1.5 1.5 0 0 0 12.5 8H12V6.5A1.5 1.5 0 0 0 10.5 5H10V2h3.499a.5.5 0 0 0 0-1H5.5a.5.5 0 0 0-.5.5V5h-.5A1.5 1.5 0 0 0 3 6.5V8h-.5A1.5 1.5 0 0 0 1 9.5v12A1.5 1.5 0 0 0 2.5 23h7a.5.5 0 0 0 0-1zM6 2h3v3H6V2zM4 6.5a.5.5 0 0 1 .5-.5h6a.5.5 0 0 1 .5.5V8H4V6.5z" class="cls-1"/><path d="M22.854 12.146A.5.5 0 0 0 22.5 12a6.5 6.5 0 0 0-6.252 4.723A5.5 5.5 0 0 0 11.5 14a.498.498 0 0 0-.5.5v3a5.5 5.5 0 0 0 5.5 5.5 6.5 6.5 0 0 0 6.5-6.5v-4a.504.504 0 0 0-.146-.354zM16 21.972a4.5 4.5 0 0 1-4-4.472v-2.472a4.5 4.5 0 0 1 4 4.472v2.472zm6-5.472a5.5 5.5 0 0 1-5 5.477V18.5a5.5 5.5 0 0 1 5-5.477V16.5zM14.752 6.514c.384.305.864.479 1.247.476.424.005.911-.163 1.295-.482.4-.332.706-.842.706-1.509 0-.363-.132-.727-.287-1.036a5.978 5.978 0 0 0-.563-.889 9.712 9.712 0 0 0-.724-.853l-.052-.054-.015-.015-.004-.004-.002-.002a.5.5 0 0 0-.708 0l-.002.002-.004.004-.015.015-.052.054a9.969 9.969 0 0 0-.724.853 5.978 5.978 0 0 0-.563.889c-.155.31-.287.673-.287 1.036 0 .686.349 1.194.752 1.514zm.43-2.103c.122-.245.291-.5.468-.736.121-.161.242-.309.35-.434.108.125.229.273.35.434.177.236.346.491.468.736.126.253.182.452.182.589a.924.924 0 0 1-.344.739 1.064 1.064 0 0 1-.648.251h-.014c-.116.001-.382-.07-.62-.259-.222-.177-.373-.417-.373-.731 0-.137.055-.336.182-.589z" class="cls-1"/></svg>