<svg xmlns="http://www.w3.org/2000/svg" viewBox="0 0 24 24"><path d="M10.625 20.125a.75.75 0 0 1-.75-.75.375.375 0 0 0-.75 0 .75.75 0 0 1-.75.75.375.375 0 0 0 0 .75.75.75 0 0 1 .75.75.375.375 0 0 0 .75 0 .75.75 0 0 1 .75-.75.375.375 0 0 0 0-.75zM10.978 7.851a.501.501 0 0 0-.974.097v.102l.5 5 .019.1a.5.5 0 0 0 .974-.097v-.102l-.5-5-.02-.1zM8.978 6.851a.501.501 0 0 0-.974.097v.102l.5 5 .02.1a.5.5 0 0 0 .974-.097v-.102l-.5-5-.02-.1z"/><path d="M8.619 4.385l-.377.02a4.174 4.174 0 0 0-3.727 3.134l-.076.352c-.378 2.169.651 4.38 2.236 5.904 1.585 1.525 3.83 2.464 6.003 1.952l.338-.095c1.656-.539 2.769-2.044 2.868-3.786l.009-.376c-.014-1.872-.917-3.663-2.249-4.969-1.333-1.305-3.143-2.171-5.025-2.136zm6.266 7.423c-.077 1.348-.93 2.487-2.181 2.894l-.256.071c-1.746.411-3.659-.332-5.08-1.699-1.422-1.368-2.249-3.262-1.944-5.012l.058-.27A3.175 3.175 0 0 1 8.325 5.4l.313-.016c1.565-.029 3.125.694 4.306 1.851s1.937 2.703 1.949 4.261l-.008.311z"/><path d="M21.288 17.62l-3.667-2.968.039-.074.042-.08c.011-.021.026-.052.039-.082l.09-.222c.89-2.294.499-4.732-.611-6.792-1.073-1.989-2.836-3.667-4.852-4.58l-.407-.173c-3.004-1.187-5.89-.68-7.788.986-1.904 1.672-2.732 4.438-1.764 7.586l.156.463c.847 2.297 2.646 4.301 4.818 5.476 2.213 1.197 4.86 1.553 7.308.421l3.145 3.7a2.546 2.546 0 0 0 2.039.707l.183-.033a5.935 5.935 0 0 0 .498-.149l.191-.079c.425-.2.697-.506.862-.768a2.195 2.195 0 0 0 .253-.574l.002-.006v-.002c.271-.916.167-2.019-.536-2.723l-.039-.035zm-.39 2.497l-.009.033-.002.006a1.252 1.252 0 0 1-.126.27c-.09.143-.229.298-.444.398l-.097.04a6.498 6.498 0 0 1-.402.119l-.038.01a1.544 1.544 0 0 1-1.212-.393L15.2 16.636a.5.5 0 0 0-.535-.151l-.079.033c-2.188 1.155-4.631.897-6.729-.237-1.973-1.067-3.597-2.888-4.354-4.94l-.14-.413c-.867-2.818-.105-5.16 1.468-6.541 1.579-1.386 4.056-1.876 6.761-.807l.363.154c1.805.819 3.408 2.336 4.383 4.144.972 1.804 1.3 3.855.63 5.766l-.148.38-.045.086-.101.193a2.666 2.666 0 0 0-.102.222.882.882 0 0 0-.044.145.533.533 0 0 0 .057.393c.03.052.07.099.117.137l3.923 3.174c.359.368.483 1.052.271 1.745zM5.5 17.5a1 1 0 0 1-1-1 .5.5 0 0 0-1 0 1 1 0 0 1-1 1 .5.5 0 0 0 0 1 1 1 0 0 1 1 1 .5.5 0 0 0 1 0 1 1 0 0 1 1-1 .5.5 0 0 0 0-1zM19.375 6.875a.75.75 0 0 1 .75.75.375.375 0 0 0 .75 0 .75.75 0 0 1 .75-.75.375.375 0 0 0 0-.75.75.75 0 0 1-.75-.75.375.375 0 0 0-.75 0 .75.75 0 0 1-.75.75.375.375 0 0 0 0 .75z"/></svg>