<svg xmlns="http://www.w3.org/2000/svg" viewBox="0 0 24 24"><path d="M19.83 4.17a7.388 7.388 0 0 0-2.476-1.636l-.007-.004-.009-.001a7.407 7.407 0 0 0-2.748-.528.5.5 0 0 0-.468.324l-2.557 6.818-9.04 9.792c-.339.34-.525.791-.525 1.27s.187.93.526 1.27.791.526 1.27.526.931-.188 1.255-.513l9.806-9.054 6.818-2.556a.5.5 0 0 0 .324-.468c0-1.979-.771-3.84-2.17-5.239zM4.358 20.767a.817.817 0 0 1-1.125 0 .792.792 0 0 1 .014-1.139l8.768-9.496 1.854 1.855-9.511 8.781zm10.359-9.348l-2.136-2.136 2.353-6.274a6.354 6.354 0 0 1 1.584.311l-.923 2.459a.499.499 0 0 0 .468.676.5.5 0 0 0 .468-.324l.916-2.441a6.426 6.426 0 0 1 1.677 1.187 6.364 6.364 0 0 1 1.868 4.189l-6.274 2.353z"/></svg>