<svg xmlns="http://www.w3.org/2000/svg" viewBox="0 0 24 24"><path d="M12 1C5.935 1 1 5.935 1 12s4.935 11 11 11 11-4.935 11-11S18.065 1 12 1zm8.75 11h-.008c-.696.003-1.301.394-1.54.995-.23.579-.217 1.516.878 2.876a8.024 8.024 0 0 1-.226.225 1.245 1.245 0 0 1-1.712-.003 11.708 11.708 0 0 1-.223-.222c1.101-1.369 1.108-2.308.874-2.886-.242-.599-.848-.985-1.544-.985s-1.302.387-1.544.985c-.233.578-.227 1.517.874 2.886-.07.072-.145.146-.223.222a1.244 1.244 0 0 1-1.715 0 11.708 11.708 0 0 1-.223-.222c1.101-1.369 1.108-2.308.874-2.886-.242-.599-.848-.985-1.544-.985s-1.302.387-1.544.985c-.234.578-.227 1.517.874 2.886-.07.072-.145.146-.223.222a1.243 1.243 0 0 1-1.714 0 9.371 9.371 0 0 1-.223-.222c1.101-1.369 1.108-2.308.874-2.886-.242-.599-.848-.985-1.544-.985s-1.302.387-1.544.985c-.234.578-.227 1.517.874 2.886l-.223.222a1.243 1.243 0 0 1-1.714 0 9.371 9.371 0 0 1-.223-.222c1.101-1.369 1.108-2.308.874-2.886C8.05 12.386 7.444 12 6.748 12s-1.302.387-1.544.985c-.234.578-.227 1.517.874 2.886l-.223.222a1.239 1.239 0 0 1-1.711.003 9.625 9.625 0 0 1-.226-.225c1.097-1.364 1.108-2.302.876-2.881-.241-.6-.846-.989-1.542-.99h-.004c-.486 0-.919.196-1.224.514-.009-.171-.026-.34-.026-.514 0-.094.012-.185.014-.279.478-.39.896-.762 1.235-1.106l.206.204a2.22 2.22 0 0 0 3.097-.007l.198-.195c.063.064.129.129.198.195a2.25 2.25 0 0 0 3.104 0l.198-.195c.063.064.129.129.198.195a2.252 2.252 0 0 0 3.105 0c.068-.066.134-.131.197-.195.063.064.13.129.197.195.857.826 2.25.827 3.105 0 .068-.066.134-.131.197-.195.063.064.13.129.197.195.869.84 2.23.844 3.099.006.069-.068.138-.135.203-.202.341.344.759.715 1.237 1.104.003.094.014.185.014.279 0 .173-.017.342-.026.513a1.69 1.69 0 0 0-1.224-.513zm0 3.102c-.618-.818-.748-1.412-.618-1.737.105-.268.387-.363.614-.364h.004c.228 0 .509.095.616.359.132.324.005.92-.616 1.742zm-3.5 0c-.62-.822-.748-1.418-.617-1.741.108-.266.39-.36.617-.36s.51.095.617.36c.131.323.004.919-.617 1.741zm-3.5 0c-.621-.822-.748-1.418-.617-1.741.107-.266.39-.36.617-.36s.51.095.617.36c.131.323.004.919-.617 1.741zm-3.5-.001c-.621-.821-.748-1.417-.617-1.74.107-.266.389-.36.617-.36s.51.095.617.36c.131.323.003.919-.617 1.74zm-3.5 0c-.621-.821-.748-1.417-.617-1.74.107-.266.389-.36.617-.36s.509.095.617.36c.131.323.004.919-.617 1.74zM2.327 9.508c.084.12.153.237.252.361-.128.131-.275.266-.419.401.045-.258.102-.511.167-.762zm1.022-2.501c.212.026.426.132.516.347.139.333.002.929-.617 1.746a4.062 4.062 0 0 1-.512-.851 9.87 9.87 0 0 1 .612-1.242zm-.099 8.094c-.621-.821-.748-1.417-.617-1.74.108-.266.389-.36.617-.36h.002c.228 0 .509.096.616.362.13.324.001.919-.618 1.738zm2.883-7.74C6.24 7.095 6.522 7 6.75 7s.509.095.617.361c.131.323.004.918-.617 1.74-.621-.822-.748-1.417-.617-1.74zm3.5 0c.107-.266.389-.361.617-.361s.51.095.617.361c.131.323.003.918-.617 1.74-.621-.822-.748-1.417-.617-1.74zm3.5 0c.107-.266.39-.361.617-.361s.51.095.617.361c.131.323.004.919-.617 1.741-.621-.822-.748-1.417-.617-1.741zm3.5 0c.107-.266.39-.361.617-.361s.51.095.617.361c.131.323.004.919-.617 1.741-.621-.822-.748-1.417-.617-1.741zm4.021-.35c.229.395.434.804.607 1.231a3.837 3.837 0 0 1-.512.862c-.599-.786-.748-1.37-.625-1.719.087-.247.31-.349.53-.374zm.765 2.86c.099-.124.17-.241.254-.362.065.251.121.504.167.762-.146-.135-.296-.272-.421-.4zM12 2c3.325 0 6.267 1.637 8.087 4.141-.419.169-.754.482-.906.912-.212.601-.149 1.52.898 2.82a8.24 8.24 0 0 1-.229.226 1.225 1.225 0 0 1-1.708-.006 11.72 11.72 0 0 1-.223-.222c1.101-1.369 1.108-2.308.874-2.886-.242-.599-.848-.986-1.544-.986s-1.302.387-1.544.986c-.234.578-.227 1.517.874 2.886-.07.073-.145.146-.223.221a1.244 1.244 0 0 1-1.715 0 15.639 15.639 0 0 1-.223-.222c1.101-1.369 1.108-2.308.874-2.886-.242-.599-.848-.986-1.544-.986s-1.302.387-1.544.986c-.234.578-.227 1.517.874 2.886-.07.073-.145.146-.223.221a1.242 1.242 0 0 1-1.714 0 9.371 9.371 0 0 1-.223-.222c1.101-1.369 1.108-2.307.874-2.885-.242-.599-.848-.986-1.544-.986s-1.302.387-1.544.986c-.234.578-.227 1.517.874 2.885a9.371 9.371 0 0 1-.223.222 1.243 1.243 0 0 1-1.714 0 9.371 9.371 0 0 1-.223-.222c1.101-1.369 1.108-2.307.874-2.885-.242-.599-.848-.986-1.544-.986s-1.302.387-1.544.986c-.234.578-.227 1.517.874 2.885a9.371 9.371 0 0 1-.223.222 1.24 1.24 0 0 1-1.708.006 10.159 10.159 0 0 1-.232-.231c1.151-1.44 1.083-2.39.87-2.899-.164-.393-.487-.67-.875-.826 1.819-2.505 4.763-4.143 8.088-4.143zm0 20c-3.819 0-7.142-2.154-8.826-5.309l.076-.075c.064.065.131.132.2.198a2.248 2.248 0 0 0 3.102-.003l.198-.195c.063.064.129.129.198.195a2.25 2.25 0 0 0 3.104 0l.198-.195c.063.064.129.129.198.195a2.25 2.25 0 0 0 3.105 0c.068-.065.134-.131.197-.195.063.064.129.13.197.195.857.828 2.25.828 3.105 0 .068-.065.134-.131.197-.195.063.064.129.13.197.195a2.228 2.228 0 0 0 3.103.003c.069-.066.136-.133.2-.197l.076.074C19.141 19.846 15.818 22 11.999 22z" class="cls-1"/></svg>