<svg xmlns="http://www.w3.org/2000/svg" viewBox="0 0 24 24"><defs><style>.cls-1{fill:#363636}</style></defs><g id="Camada_1"><path d="M17.5 16.5a1 1 0 0 1-1-1 .5.5 0 0 0-1 0 1 1 0 0 1-1 1 .5.5 0 0 0 0 1 1 1 0 0 1 1 1 .5.5 0 0 0 1 0 1 1 0 0 1 1-1 .5.5 0 0 0 0-1z" class="cls-1"/><path d="M22.894 20.193l-.002-.002-.007-.009-.028-.036-.109-.145a31.833 31.833 0 0 1-1.674-2.528c-.969-1.631-2.018-3.742-2.416-5.746-.124-.623-.215-1.408-.296-2.113l-.067-.574c-.524-4.295-3.891-8.039-8.396-8.039a7.88 7.88 0 0 0-4.965 1.746 1.99 1.99 0 0 1-.435-1.246.5.5 0 0 0-1 0 2 2 0 0 1-2 2 .5.5 0 0 0 0 1c.572 0 1.088.24 1.453.625a7.894 7.894 0 0 0-.953 3.775v1.262a1.5 1.5 0 0 0-.799 1.584l1.306 7.836a.5.5 0 0 0 .493.418v2.5a.5.5 0 0 0 .5.5h4a.5.5 0 0 0 .5-.5v-2.5a.5.5 0 0 0 .493-.418l.517-3.099c.159.011.322.017.49.017h.069c.058.252.164.586.358.974.417.834 1.228 1.898 2.795 2.942a.48.48 0 0 0 .038.023c2.854 1.557 5.34 1.695 7.125 1.431a9.15 9.15 0 0 0 2.092-.563 6.814 6.814 0 0 0 .725-.346l.043-.025.013-.008.004-.003h.002l.001-.002a.5.5 0 0 0 .129-.732zM4 3.159c.222.333.508.62.841.841A3.02 3.02 0 0 0 4 4.841 3.02 3.02 0 0 0 3.159 4 3.02 3.02 0 0 0 4 3.159zM3.09 17l-.667-4h2.576v4h-1.91zM7 22H4v-2h3v2zm.577-3H3.424l-.167-1H5.5a.5.5 0 0 0 .5-.5v-5a.5.5 0 0 0-.5-.5H2.257l-.07-.418A.5.5 0 0 1 2.68 11h5.639a.5.5 0 0 1 .493.582L7.576 19zM9.5 15.5c-.111 0-.22-.003-.325-.009l.624-3.745a1.5 1.5 0 0 0-1.48-1.747h-3.32v-1.08l.01-.002c.264-.049.632-.12 1.047-.209.821-.178 1.856-.435 2.629-.744.774-.31 1.68-.829 2.376-1.258.267-.165.507-.318.702-.446l.096.223c.188.426.462.985.756 1.337.304.364.743.65 1.072.835.114.064.221.12.312.165v2.648l-.002.011c-.004.027-.01.069-.021.124a5.67 5.67 0 0 1-.717 1.886c-.615 1.006-1.718 2.011-3.761 2.011zm12.101 4.881a8.155 8.155 0 0 1-1.862.5c-1.586.235-3.843.124-6.48-1.309-1.421-.951-2.105-1.882-2.437-2.545a3.657 3.657 0 0 1-.243-.614c1.8-.304 2.894-1.354 3.535-2.402a6.665 6.665 0 0 0 .88-2.435l.002-.014v-.004-.002a.54.54 0 0 0 .003-.056v-3a.501.501 0 0 0-.31-.463l-.007-.003-.028-.012-.109-.049a5.597 5.597 0 0 1-.368-.189c-.3-.169-.61-.383-.794-.604-.194-.233-.42-.674-.61-1.102a13.637 13.637 0 0 1-.221-.53l-.062-.161-.016-.043-.004-.011V5.33a.504.504 0 0 0-.757-.24l-.005.003-.016.011-.065.044a28.85 28.85 0 0 1-1.092.706c-.688.424-1.532.905-2.222 1.181-.691.276-1.656.519-2.469.695a32.675 32.675 0 0 1-1.319.257l-.081.014-.02.003h-.006a.503.503 0 0 0-.42.495v1.5h-1v-1.1c0-.912.175-1.781.492-2.575.005.058.008.116.008.175a.5.5 0 0 0 1 0 2 2 0 0 1 2-2 .5.5 0 0 0 0-1c-.257 0-.503-.049-.729-.137a6.877 6.877 0 0 1 4.129-1.363c3.895 0 6.927 3.256 7.404 7.161l.063.54c.082.709.179 1.553.312 2.221.432 2.172 1.549 4.399 2.537 6.062.497.836.968 1.54 1.314 2.035l.214.302c-.045.02-.093.04-.144.06zM18.5 3.5a1 1 0 0 1 1 1 .5.5 0 0 0 1 0 1 1 0 0 1 1-1 .5.5 0 0 0 0-1 1 1 0 0 1-1-1 .5.5 0 0 0-1 0 1 1 0 0 1-1 1 .5.5 0 0 0 0 1z" class="cls-1"/></g></svg>