<svg xmlns="http://www.w3.org/2000/svg" viewBox="0 0 24 24"><defs><style>.cls-1{fill:#363636;fill-rule:evenodd}</style></defs><g id="Camada_1"><path d="M16.5 14h-9a.5.5 0 0 0-.5.5v4a.5.5 0 0 0 .5.5h9a.5.5 0 0 0 .5-.5v-4a.5.5 0 0 0-.5-.5zm-.5 4H8v-3h8v3z" class="cls-1"/><path d="M20 11.012V8.5a.5.5 0 0 0-.5-.5h-2.107c.355-.686.52-1.339.543-1.952a4.126 4.126 0 0 0-.526-2.152 5.453 5.453 0 0 0-1.047-1.334 5.54 5.54 0 0 0-.409-.349c-.052-.04-.095-.071-.125-.093l-.037-.026-.011-.008-.004-.002h-.001s-.001-.002-.276.416l.275-.418a.5.5 0 0 0-.775.417c0 .099-.06.294-.24.541a2.529 2.529 0 0 1-.689.637c-.175.109-.438.194-.744.249a4.835 4.835 0 0 1-.827.073H9.091a3.1 3.1 0 0 0-2.186.905C6.257 5.552 6 6.376 6 6.999v1H4.5a.5.5 0 0 0-.5.5v2.512c-1.142.119-2 1.128-2 2.306v6.364c0 1.256.973 2.318 2.227 2.318h15.545c1.254 0 2.227-1.062 2.227-2.318v-6.364c0-1.179-.858-2.187-2-2.306zM7 7c0-.377.165-.941.612-1.388A2.097 2.097 0 0 1 9.09 5h3.409c.274 0 .637-.022 1.004-.089.36-.065.765-.179 1.095-.384.383-.239.722-.559.969-.897.063-.087.123-.179.178-.275.257.251.554.597.788 1.023.253.461.427 1.008.404 1.633-.021.57-.209 1.236-.701 1.99H7v-1zM5 9h14v2H5V9zm16 10.682c0 .753-.573 1.318-1.227 1.318H4.227C3.573 21 3 20.434 3 19.682v-6.364C3 12.565 3.573 12 4.227 12h15.545c.654 0 1.227.566 1.227 1.318v6.364z" class="cls-1"/></g></svg>