<svg xmlns="http://www.w3.org/2000/svg" data-name="Camada 1" viewBox="0 0 24 24"><path fill-rule="evenodd" stroke-width="0" d="M5.996 20.275a.481.481 0 0 1-.35-.18.51.51 0 0 1-.15-.4l.89-11.57h2.073v1.73a.51.51 0 0 0 .5.5.5.5 0 0 0 .5-.5v-1.73h5.04v1.73a.5.5 0 0 0 .5.5.51.51 0 0 0 .54-.5v-1.73h2.037l.355 4.627h.068c.333 0 .659.031.974.09l-.408-5.286a.5.5 0 0 0-.5-.46h-2.527v-.82a3.541 3.541 0 0 0-1.77-3.066c-2.36-1.362-5.31.341-5.31 3.066v.82H5.925a.5.5 0 0 0-.5.46l-.93 12.07v.11a1.5 1.5 0 0 0 1.5 1.54h7.897a5.297 5.297 0 0 1-.629-1H5.995zm3.463-14c0-1.14.382-1.93 1.433-2.372 1.752-.737 3.852.432 3.607 2.372v.82h-5.04v-.82z"/><path fill-rule="evenodd" stroke-width="0" d="M21.181 14.82a4.499 4.499 0 1 0 .561 5.682 4.5 4.5 0 0 0-.56-5.682zm-.436 1.879l-3.084 3.289a.498.498 0 0 1-.723.006l-1.678-1.73a.5.5 0 1 1 .718-.696l1.313 1.353 2.726-2.907a.5.5 0 0 1 .73.684z"/></svg>