<svg xmlns="http://www.w3.org/2000/svg" viewBox="0 0 24 24"><rect width="4" height="7" x="5" y="12" rx=".5" ry=".5"/><path d="M13.5 8h-3a.5.5 0 0 0-.5.5v10a.5.5 0 0 0 .5.5h3a.5.5 0 0 0 .5-.5v-10a.5.5 0 0 0-.5-.5zM13 18h-2V9h2v9zM18.5 5h-3a.5.5 0 0 0-.5.5v13a.5.5 0 0 0 .5.5h3a.5.5 0 0 0 .5-.5v-13a.5.5 0 0 0-.5-.5zM18 18h-2V6h2v12z"/><path d="M19.5 2h-15A2.5 2.5 0 0 0 2 4.5v15A2.5 2.5 0 0 0 4.5 22h15a2.5 2.5 0 0 0 2.5-2.5v-15A2.5 2.5 0 0 0 19.5 2zM21 19.5a1.5 1.5 0 0 1-1.5 1.5h-15A1.5 1.5 0 0 1 3 19.5v-15A1.5 1.5 0 0 1 4.5 3h15A1.5 1.5 0 0 1 21 4.5v15z"/></svg>