<svg xmlns="http://www.w3.org/2000/svg" viewBox="0 0 24 24"><path d="M19 15.9c-.9-1.9-1.9-4-2.2-5.1v-.2c0-.1-.1-.6 0-.8.4-1.1.6-2.3.6-3.5 0-1.1.2-2.1.5-3.2.1-.1.1-.3 0-.4-.1-.1-.2-.2-.3-.2L16 2.1l-.3-.1c-.3-.1-.5.1-.6.3-.4 1.3-1.6 2.2-3 2.2s-2.6-.8-3-2.2c-.2-.2-.4-.4-.7-.3l-.3.1-1.6.4c-.1 0-.3.1-.3.2-.1.2-.1.3 0 .5.3 1 .5 2.1.5 3.2 0 1.2.2 2.4.6 3.5.1.3 0 .7 0 .8v.2c-.4 1-1.4 3.1-2.3 5-1.7 3.7-1.7 3.8-1.5 4.1.3.6 3.9 2 8.5 2s8.2-1.4 8.5-2c.2-.3.2-.4-1.5-4.1zM7.3 3.3l.9-.2c.6 1.5 2.2 2.4 3.8 2.4s3.2-.9 3.8-2.4l.9.2c-.3 1-.4 1.9-.4 2.9s-.2 1.9-.4 2.9H8.1c-.3-.9-.4-1.8-.4-2.8 0-1-.2-2-.4-3zm8.3 6.9v.4H8.4v-.4h7.2zM12 21c-2.6 0-5.1-.4-7.5-1.4.2-.6.9-2 1.5-3.2.8-1.7 1.7-3.6 2.2-4.8h1.3l-.7 3.3c0 .1-.1.5.3.6.5.1.6-.3.6-.5l.7-3.5h3.2l.7 3.5c0 .2.2.6.6.5.5-.1.4-.5.3-.6l-.7-3.3h1.3c.5 1.2 1.4 3.1 2.2 4.8.6 1.2 1.2 2.6 1.5 3.2-2.4 1-4.9 1.4-7.5 1.4z"/></svg>