<svg xmlns="http://www.w3.org/2000/svg" viewBox="0 0 24 24"><path d="M20.245 5.842L13.21 1.78a2.424 2.424 0 0 0-2.419 0L3.755 5.842a2.428 2.428 0 0 0-1.21 2.096v8.124c0 .861.464 1.664 1.21 2.095l7.035 4.063c.374.215.792.322 1.21.322l.005.001c.008 0 .015-.004.022-.005a2.416 2.416 0 0 0 1.182-.32l7.035-4.062a2.427 2.427 0 0 0 1.21-2.096V7.938a2.422 2.422 0 0 0-1.209-2.096zM11.29 2.647a1.423 1.423 0 0 1 1.419 0l7.035 4.062c.03.017.053.043.081.062l-7.831 4.651-7.957-4.546c.069-.06.137-.121.218-.168l7.035-4.061zM4.255 17.291a1.425 1.425 0 0 1-.71-1.229V7.938c0-.061.016-.118.024-.177l7.936 4.532v9.149c-.073-.027-.147-.049-.215-.088l-7.035-4.063zm16.2-1.23c0 .506-.271.977-.71 1.229l-7.035 4.062c-.065.037-.136.058-.205.084V12.28l7.903-4.694c.029.114.047.231.047.351v8.124z"/></svg>