<svg xmlns="http://www.w3.org/2000/svg" viewBox="0 0 24 24"><path d="M22.5 13H19V5a3.977 3.977 0 0 0-1.172-2.829c-1.51-1.511-4.146-1.511-5.656 0A3.973 3.973 0 0 0 11 5v.5a.5.5 0 0 0 1 0V5c0-.801.312-1.555.879-2.122 1.133-1.133 3.109-1.133 4.242 0C17.687 3.445 18 4.199 18 5v8H1.5a.5.5 0 0 0-.5.5v3a4.46 4.46 0 0 0 4 4.452v1.549a.5.5 0 0 0 1 0v-1.5h12v1.5a.5.5 0 0 0 1 0v-1.55c1.005-.115 1.963-.549 2.682-1.268A4.53 4.53 0 0 0 23 16.501v-3a.5.5 0 0 0-.5-.5zm-.5 3.5c0 .921-.374 1.823-1.025 2.475S19.421 20 18.5 20h-13a3.479 3.479 0 0 1-2.475-1.025A3.477 3.477 0 0 1 2 16.5V14h20v2.5z"/></svg>