<svg xmlns="http://www.w3.org/2000/svg" viewBox="0 0 24 24"><defs><style>.cls-1{fill:#363636;fill-rule:evenodd}</style></defs><g id="Camada_1"><path d="M8.5 13h-4a.5.5 0 0 0-.5.5v6a.5.5 0 0 0 .5.5h4a.5.5 0 0 0 .5-.5v-6a.5.5 0 0 0-.5-.5zM8 19H5v-5h3v5z" class="cls-1"/><path d="M9 8.349V1.5a.5.5 0 0 0-.5-.5h-4a.5.5 0 0 0-.5.5v6.849l-1.244 1.866A4.499 4.499 0 0 0 2 12.711V21.5A1.5 1.5 0 0 0 3.5 23h6a1.5 1.5 0 0 0 1.5-1.5v-8.789c0-.888-.263-1.757-.756-2.496L9 8.349zM5 2h3v3H5V2zm5 19.5a.5.5 0 0 1-.5.5h-6a.5.5 0 0 1-.5-.5v-8.789c0-.691.205-1.367.588-1.941l1.328-1.992A.498.498 0 0 0 5 8.501v-2.5h3v2.5c0 .099.029.195.084.277l1.328 1.992c.383.575.588 1.25.588 1.941V21.5zM15.5 19h4a.5.5 0 0 0 .5-.5v-9a.5.5 0 0 0-.5-.5h-4a.5.5 0 0 0-.5.5v9a.5.5 0 0 0 .5.5zm.5-9h3v8h-3v-8z" class="cls-1"/><path d="M21.5 5H21V1.5a.5.5 0 0 0-.5-.5h-6a.5.5 0 0 0-.5.5V5h-.5a.5.5 0 0 0-.5.5v14a3.5 3.5 0 0 0 3.5 3.5h2a3.5 3.5 0 0 0 3.5-3.5v-14a.5.5 0 0 0-.5-.5zM15 2h5v3h-5V2zm6 17.5a2.5 2.5 0 0 1-2.5 2.5h-2a2.5 2.5 0 0 1-2.5-2.5V6h7v13.5z" class="cls-1"/></g></svg>