<svg xmlns="http://www.w3.org/2000/svg" version="1.0" viewBox="0 0 24 24"><path fill-rule="evenodd" d="M22.3 1.6c-.1-.1-.3-.2-.4-.1h-.1c-.1 0-.2 0-.4.1-.3.1-.8.2-1.3.3-1.1.2-2.6.6-4.2 1.1-.2.1-.3.2-.3.4l-.7 3.3-1.4-2.3c-.2-.3-.5-.4-.7-.3-1.9.8-3.8 1.8-5.1 3.1-2.4 2.4-2.9 5.1-2.7 7.1.1 1 .3 1.9.6 2.5.1.3.2.5.3.6l-4.2 4.2c-.2.2-.2.5 0 .7.2.2.5.2.7 0L6.7 18l.6.3c.6.2 1.5.5 2.5.6 2 .2 4.7-.2 7.1-2.6 2.2-2.2 3.6-5.8 4.5-8.8.3-1.5.6-2.8.8-3.8.1-.5.2-.9.2-1.2v-.3-.1c.1-.2.1-.3-.1-.5zM7.4 17.3c.1 0 .1.1.2.1.5.2 1.3.4 2.2.5 1.8.2 4.1-.2 6.3-2.3 2-2 3.4-5.4 4.3-8.3.4-1.5.7-2.8.9-3.7.1-.3.1-.6.2-.9-.3.1-.7.1-1.1.2-1 .2-2.4.6-3.9 1l-.9 4.2c0 .2-.2.4-.4.4s-.4-.1-.5-.2l-1.8-3.1c-1.8.8-3.4 1.7-4.5 2.7-2.2 2.2-2.6 4.5-2.4 6.3.1.9.3 1.7.5 2.2 0 .1.1.2.1.2l6-6c.2-.2.5-.2.7 0 .2.2.2.5 0 .7l-5.9 6z" clip-rule="evenodd"/></svg>