<svg xmlns="http://www.w3.org/2000/svg" viewBox="0 0 40 40"><path fill-rule="evenodd" d="M22.5 27.5a.833.833 0 0 0-.833.833V30a.833.833 0 0 0 1.666 0v-1.667a.833.833 0 0 0-.833-.833zM17.5 25a.833.833 0 0 0-.833.833V27.5a.833.833 0 0 0 1.666 0v-1.667A.833.833 0 0 0 17.5 25zM21.666 19.167a.833.833 0 0 0-1.666 0v1.667a.833.833 0 0 0 1.666 0v-1.667zM14.166 17.5a.833.833 0 0 0-.833.833V20a.833.833 0 0 0 1.666 0v-1.667a.833.833 0 0 0-.833-.833zM27.5 16.667a.833.833 0 0 0-.833.833v1.667a.833.833 0 0 0 1.666 0V17.5a.833.833 0 0 0-.833-.833z"/><path fill-rule="evenodd" d="M27.984 10.189c.501-.797.905-1.707 1.206-2.477a24.629 24.629 0 0 0 .766-2.302l.011-.039.002-.011.002-.005a.834.834 0 0 0-1.014-1.017l-.112.037-.003.002-.01.003a.44.44 0 0 1-.038.016l-.138.059c-.12.051-.294.124-.505.215-.422.181-.999.432-1.615.711-.834.378-1.791.831-2.531 1.235-.589-1.082-1.324-2.126-1.95-2.939a33.025 33.025 0 0 0-1.014-1.252 22.66 22.66 0 0 0-.396-.452l-.024-.026-.01-.01a.833.833 0 0 0-1.228 0l-.01.01-.024.026-.085.096a31.487 31.487 0 0 0-1.325 1.608c-.626.813-1.363 1.858-1.951 2.939a40.302 40.302 0 0 0-2.529-1.235 89.297 89.297 0 0 0-2.258-.985l-.038-.016-.01-.003-.003-.002a.834.834 0 0 0-1.126.981l.002.003s0 .007.002.011l.011.039.039.142c.035.122.085.298.151.511.132.426.328 1.012.576 1.649.3.77.707 1.678 1.208 2.476-5.318 1.102-8.554 6.904-6.273 12.156l.633 1.421c1.524 3.323 3.363 6.674 5.426 9.315 2.324 2.974 5.102 5.26 8.2 5.26 3.097 0 5.874-2.287 8.198-5.26 2.358-3.018 4.423-6.965 6.061-10.736l.218-.549c1.837-5.102-1.36-10.544-6.496-11.606zm-15.21-3.29c1.241.562 2.536 1.19 3.079 1.571a.836.836 0 0 0 1.237-.337c.543-1.193 1.415-2.456 2.173-3.441.271-.352.524-.662.736-.916.212.254.465.565.736.916.758.985 1.63 2.248 2.173 3.441a.833.833 0 0 0 1.237.337c.543-.381 1.839-1.009 3.079-1.571.2-.09.397-.176.584-.259-.055.15-.108.307-.169.466-.419 1.074-.956 2.171-1.538 2.852L26.06 10H13.938l-.041-.042c-.582-.681-1.119-1.778-1.538-2.852-.062-.158-.116-.316-.171-.466.188.083.386.168.586.259zM32.91 21.235l-.176.444c-1.614 3.714-3.613 7.514-5.846 10.373-2.267 2.901-4.61 4.62-6.885 4.621-2.275 0-4.619-1.719-6.886-4.621-1.954-2.501-3.728-5.724-5.221-8.978l-.623-1.395c-2.055-4.731 1.407-10.013 6.579-10.013h12.305c5.01 0 8.415 4.958 6.755 9.569z"/></svg>