<svg xmlns="http://www.w3.org/2000/svg" viewBox="0 0 24 24"><path fill-rule="evenodd" d="M15.517 1.001a.488.488 0 0 1 .088.012.498.498 0 0 1 .106.035l.013.005.007.004a.499.499 0 0 1 .069.043l.006.004.006.004L19.8 4.1c.008.006.014.014.021.02a.483.483 0 0 1 .078.083c.008.01.018.02.025.032l.01.022a.493.493 0 0 1 .054.145c.004.02.006.041.007.062.001.012.005.024.005.036v15c0 .012-.004.023-.005.035a.492.492 0 0 1-.018.104.49.49 0 0 1-.043.103l-.01.023c-.007.011-.017.02-.025.03a.463.463 0 0 1-.078.084c-.007.006-.013.015-.021.021l-3.989 2.99-.005.005-.006.005a.493.493 0 0 1-.074.045l-.002.002c-.004.002-.01.002-.013.004a.496.496 0 0 1-.07.027.463.463 0 0 1-.125.02L15.5 23h-7l-.018-.002a.489.489 0 0 1-.087-.012.496.496 0 0 1-.106-.035l-.013-.004-.003-.002A.493.493 0 0 1 8.2 22.9l-.006-.005-.007-.004L4.2 19.9l-.022-.022a.486.486 0 0 1-.078-.083c-.008-.01-.017-.02-.024-.031l-.01-.023a.495.495 0 0 1-.055-.145c-.004-.02-.006-.041-.007-.062 0-.012-.004-.023-.004-.035v-15c0-.012.003-.024.004-.036a.5.5 0 0 1 .062-.207l.01-.022.024-.032a.5.5 0 0 1 .078-.083L4.2 4.1l3.987-2.992.007-.004L8.2 1.1l.069-.043.002-.002.005-.002a.502.502 0 0 1 .103-.038l.01-.002A.494.494 0 0 1 8.487 1L8.5 1h7l.017.001zM10.809 19l-1.5 3h5.382l-1.5-3H10.81zm-5.426.536L8.32 21.74l1.545-3.09-1.391-1.044-3.091 1.93zm8.75-.887l1.546 3.09 2.937-2.203-3.09-1.93-1.392 1.043zM5 18.598l3-1.875V7.276L5 5.401v13.197zM16 7.276v9.447l3 1.875V5.4l-3 1.875zM9 7.25v9.499L10.667 18h2.666L15 16.749V7.25L13.333 6h-2.666L9 7.25zM5.383 4.462l3.09 1.932L9.866 5.35 8.32 2.259 5.383 4.462zm8.75.888l1.392 1.044 3.091-1.932-2.937-2.203-1.545 3.09zM10.81 5h2.382l1.5-3H9.31l1.5 3z" clip-rule="evenodd"/></svg>