<svg xmlns="http://www.w3.org/2000/svg" viewBox="0 0 24 24"><defs><style>.cls-1{fill:#363636;fill-rule:evenodd}</style></defs><g id="Camada_1"><path d="M13.223 12.057c-.806.422-1.636.427-2.499-.004a.5.5 0 0 0-.447.895c1.137.569 2.307.573 3.41-.004a.5.5 0 1 0-.464-.886z" class="cls-1"/><path d="M21.5 2h-.432a.5.5 0 0 0-.5.49c-.057 2.948-1.563 5.923-3.571 7.899A2.5 2.5 0 0 0 14.499 8h-5a2.502 2.502 0 0 0-2.498 2.389C4.994 8.413 3.488 5.438 3.43 2.49a.5.5 0 0 0-.5-.49h-.432a.5.5 0 0 0-.5.5v8.497c0 1.637.553 2.731 1.167 3.729l.016.024 4.908 7.036a.501.501 0 0 0 .41.214h6.909a.499.499 0 0 0 .408-.211l5.154-7.26a.422.422 0 0 0 .023-.035c.459-.778 1.006-1.868 1.006-3.498V2.5a.5.5 0 0 0-.5-.5zm-.5 8.997c0 1.366-.445 2.271-.857 2.972l-4.992 7.032h-6.39l-4.75-6.81C3.443 13.266 3 12.362 3 10.998V5.764c.801 2.456 2.368 4.672 4.188 6.128A.5.5 0 0 0 8 11.501v-1a1.5 1.5 0 0 1 1.5-1.5h5a1.5 1.5 0 0 1 1.5 1.5v1a.502.502 0 0 0 .812.391c1.82-1.456 3.386-3.672 4.188-6.128v5.234z" class="cls-1"/></g></svg>