<svg xmlns="http://www.w3.org/2000/svg" data-name="Camada 1" viewBox="0 0 24 24"><path stroke-width="0" d="M21.854 2.146a.5.5 0 0 0-.707 0l-4.831 4.831A5.001 5.001 0 0 0 14 4.919a2 2 0 0 0-4 0 5 5 0 0 0-3 4.58v4a1.5 1.5 0 0 1-.6 1.2L5 15.749v1.75c0 .226.051.447.146.647l-3 3a.5.5 0 0 0 .707.707l3-3h.002l.854-.854h-.003l9.226-9.226v.002l.821-.821v-.002l5.099-5.1a.5.5 0 0 0 0-.707zM6 17.293V16.25l1-.75a2.518 2.518 0 0 0 1-2v-4a3.997 3.997 0 0 1 2.67-3.77l.33-.12V5a.997.997 0 0 1 1-1 .997.997 0 0 1 1 1v.61l.33.12a3.995 3.995 0 0 1 2.248 1.985L6 17.293zM17.157 14.171A1.487 1.487 0 0 1 17 13.5v-4c0-.121-.005-.242-.013-.362l-.987.987v3.376a2.51 2.51 0 0 0 1 2l1 .75v1.25a.5.5 0 0 1-.5.5H8.124l-1 1H17.5a1.503 1.503 0 0 0 1.5-1.5v-1.75l-1.4-1.05a1.482 1.482 0 0 1-.443-.529zM10.63 21.093a2.503 2.503 0 0 0 2.74 0A2.48 2.48 0 0 0 14.29 20H9.71c.193.446.513.826.92 1.093z"/></svg>