<svg xmlns="http://www.w3.org/2000/svg" viewBox="0 0 24 24"><defs><style>.cls-1{fill:#363636;fill-rule:evenodd}</style></defs><g id="Camada_1"><path d="M18.5 14H17V7.915A1.5 1.5 0 0 0 18 6.5v-5a.5.5 0 0 0-.854-.354l-1.707 1.707A1.5 1.5 0 0 0 15 3.914V6.5a1.5 1.5 0 0 0 1 1.415V14h-1.5a.5.5 0 0 0-.5.5v7a1.5 1.5 0 0 0 1.5 1.5h2a1.5 1.5 0 0 0 1.5-1.5v-7a.5.5 0 0 0-.5-.5zM16 3.914c0-.133.053-.26.146-.354L17 2.706v3.793a.5.5 0 0 1-.497.5h-.005a.5.5 0 0 1-.497-.5V3.913zM18 21.5a.5.5 0 0 1-.5.5h-2a.5.5 0 0 1-.5-.5V15h3v6.5zM9.5 8h-4a.5.5 0 0 0-.5.5v13A1.5 1.5 0 0 0 6.5 23h2a1.5 1.5 0 0 0 1.5-1.5v-13a.5.5 0 0 0-.5-.5zM9 21.5a.5.5 0 0 1-.5.5h-2a.5.5 0 0 1-.5-.5v-10h3v10zm0-11H6V9h3v1.5z" class="cls-1"/></g></svg>