<svg xmlns="http://www.w3.org/2000/svg" viewBox="0 0 24 24"><path d="M12 1C8.234 1 5.041 3.139 3.015 5.809V2.5a.5.5 0 0 0-1 0v5a.5.5 0 0 0 .598.491l5-1a.5.5 0 0 0-.196-.98l-3.877.775C5.404 4.128 8.454 2.001 12 2.001c5.523 0 10 4.477 10 10s-4.477 10-10 10c-.331 0-.659-.016-.981-.047a.5.5 0 1 0-.097.995c.355.034.714.052 1.078.052 6.075 0 11-4.925 11-11S18.075 1 12 1zM2.047 12.981C2.016 12.658 2 12.331 2 12a.5.5 0 0 0-1 0c0 .364.018.723.052 1.078a.5.5 0 1 0 .995-.097zM2.428 14.904a.5.5 0 0 0-.957.29c.211.696.489 1.363.826 1.993a.5.5 0 0 0 .882-.472 9.96 9.96 0 0 1-.751-1.81zM4.269 18.344a.5.5 0 0 0-.773.635c.457.557.968 1.067 1.525 1.525a.5.5 0 1 0 .635-.773 10.1 10.1 0 0 1-1.387-1.387zM9.096 21.572a9.93 9.93 0 0 1-1.81-.751.5.5 0 0 0-.472.882c.63.337 1.297.615 1.993.826a.5.5 0 1 0 .289-.957z"/><path d="M13.25 15H9a.5.5 0 0 0 0 1h2.5v1.5a.5.5 0 0 0 1 0V16h.75a2.25 2.25 0 1 0 0-4.5h-2.5a1.25 1.25 0 0 1 0-2.5H15a.5.5 0 0 0 0-1h-2.494l.017-1.494a.5.5 0 0 0-1-.012L11.505 8h-.756a2.25 2.25 0 1 0 0 4.5h2.5a1.25 1.25 0 0 1 0 2.5z"/></svg>