<svg xmlns="http://www.w3.org/2000/svg" viewBox="0 0 24 24"><defs><style>.cls-1{fill:#363636}</style></defs><g id="Camada_1"><path d="M6.5 7a3 3 0 1 0 0-6 3 3 0 0 0 0 6zm0-5a2 2 0 1 1 .001 3.999A2 2 0 0 1 6.5 2zM18.5 8A1.5 1.5 0 0 1 20 9.5a.5.5 0 0 0 1 0A2.5 2.5 0 0 0 18.5 7a.5.5 0 0 0 0 1z" class="cls-1"/><path d="M19 13a4 4 0 1 0 0-8 4 4 0 0 0 0 8zm0-7a3 3 0 1 1 0 6 3 3 0 0 1 0-6zM8 12a.5.5 0 0 0 0 1 3 3 0 0 1 3 3 .5.5 0 0 0 1 0 4 4 0 0 0-4-4z" class="cls-1"/><path d="M8 9a7 7 0 1 0 0 14A7 7 0 0 0 8 9zm0 13a6 6 0 1 1 0-12 6 6 0 0 1 0 12zM13 3.5a1 1 0 0 1 1 1 .5.5 0 0 0 1 0 1 1 0 0 1 1-1 .5.5 0 0 0 0-1 1 1 0 0 1-1-1 .5.5 0 0 0-1 0 1 1 0 0 1-1 1 .5.5 0 0 0 0 1zM21.25 17.25a1.5 1.5 0 0 1-1.5-1.5.75.75 0 0 0-1.5 0 1.5 1.5 0 0 1-1.5 1.5.75.75 0 0 0 0 1.5 1.5 1.5 0 0 1 1.5 1.5.75.75 0 0 0 1.5 0 1.5 1.5 0 0 1 1.5-1.5.75.75 0 0 0 0-1.5z" class="cls-1"/></g></svg>