<svg xmlns="http://www.w3.org/2000/svg" viewBox="0 0 24 24"><path d="M19.5 7h1.793l-2.146 2.146a.5.5 0 0 0 .707.707l3-3A.508.508 0 0 0 23 6.524V6.5a.486.486 0 0 0-.147-.353l-3-3a.5.5 0 0 0-.707.707L21.292 6h-1.793c-4.146 0-6.289 3.033-8.305 5.889l-.228.322C8.83 15.226 6.715 18 2.499 18a.5.5 0 0 0 0 1c4.784 0 7.169-3.226 9.283-6.211l.136-.193C14.025 9.619 15.879 7 19.499 7zM22.969 18.326a.499.499 0 0 0-.115-.179l-3-3a.5.5 0 0 0-.707.707L21.293 18H19.5c-1.969 0-3.412-.776-4.656-1.953a.5.5 0 1 0-.687.727c1.384 1.309 3.062 2.227 5.344 2.227h1.793l-2.146 2.146a.5.5 0 0 0 .707.707l2.996-2.996a.472.472 0 0 0 .104-.149.498.498 0 0 0 .045-.208v-.026a.495.495 0 0 0-.031-.149zM2.5 7c2.471 0 4.212.952 5.655 2.329a.5.5 0 1 0 .69-.724C7.256 7.089 5.279 6 2.5 6a.5.5 0 0 0 0 1z"/></svg>