<svg xmlns="http://www.w3.org/2000/svg" viewBox="0 0 24 24"><defs><style>.cls-1{fill:#363636;fill-rule:evenodd}</style></defs><g id="Camada_1"><path d="M11.5 20H3.014a8.5 8.5 0 0 1 8.486-8c.995 0 1.948.17 2.833.483a.5.5 0 1 0 .333-.943 9.41 9.41 0 0 0-.668-.209 5 5 0 1 0-4.998 0 9.503 9.503 0 0 0-7.001 9.168.5.5 0 0 0 .5.5h9a.5.5 0 0 0 0-1zm-4-13a4 4 0 1 1 8 0 4 4 0 0 1-8 0zM17.5 18a.5.5 0 0 0-.5.5v1a.5.5 0 0 0 1 0v-1a.5.5 0 0 0-.5-.5z" class="cls-1"/><path d="M20.5 16H20v-1.5c0-1.376-1.124-2.5-2.5-2.5S15 13.124 15 14.5V16h-.5a1.5 1.5 0 0 0-1.5 1.5v3a1.5 1.5 0 0 0 1.5 1.5h6a1.5 1.5 0 0 0 1.5-1.5v-3a1.5 1.5 0 0 0-1.5-1.5zM16 14.5c0-.824.676-1.5 1.5-1.5s1.5.676 1.5 1.5V16h-3v-1.5zm5 6a.5.5 0 0 1-.5.5h-6a.5.5 0 0 1-.5-.5v-3a.5.5 0 0 1 .5-.5h6a.5.5 0 0 1 .5.5v3z" class="cls-1"/></g></svg>