<svg xmlns="http://www.w3.org/2000/svg" viewBox="0 0 24 24"><path d="M10.406 8l2.274-1.195L14.954 8l-.434-2.533 1.84-1.794-2.543-.369L12.68 1l-1.137 2.304L9 3.673l1.84 1.794L10.406 8zM5.548 18.175L4.475 16l-1.074 2.175L1 18.524l1.737 1.693-.41 2.392 2.148-1.129 2.147 1.129-.41-2.392 1.737-1.693-2.401-.349zM20.548 18.175L19.474 16l-1.073 2.175-2.401.349 1.737 1.693-.41 2.392 2.147-1.129 2.148 1.129-.41-2.392 1.737-1.693-2.401-.349zM18.097 12.578c.072-.065.128-.113.166-.145l.025-.021.017-.014.01-.008.002-.002a.499.499 0 1 0-.634-.773l.317.386-.317-.386h-.001l-.004.004-.014.012-.05.042a16.56 16.56 0 0 0-.826.772 19.819 19.819 0 0 0-1.94 2.261c-.853 1.163-1.719 2.625-2.268 4.298-.605-2.443-1.775-4.383-2.941-5.818a16.378 16.378 0 0 0-2.305-2.321 12.636 12.636 0 0 0-.986-.735 2.102 2.102 0 0 0-.061-.039l-.017-.011-.005-.003h-.002l-.001-.002-.009.015.009-.015a.5.5 0 0 0-.524.852h.002l.011.008.048.031a12.251 12.251 0 0 1 .9.672c.589.483 1.376 1.21 2.164 2.179 1.574 1.937 3.138 4.829 3.138 8.685a.5.5 0 0 0 1 0c0-2.85 1.309-5.371 2.653-7.204a18.688 18.688 0 0 1 1.841-2.145c.251-.251.459-.444.603-.573zM6.169 10.225A49.9 49.9 0 0 0 6 10.5l.169-.275z"/><path d="M12 9.5v3a.5.5 0 0 0 1 0v-3a.5.5 0 0 0-1 0z"/><circle cx="2.5" cy="9.5" r="1.5"/><circle cx="21.5" cy="9.5" r="1.5"/></svg>