<svg xmlns="http://www.w3.org/2000/svg" viewBox="0 0 24 24"><defs><style>.cls-1{fill:#363636}</style></defs><g id="Camada_1"><path d="M16.5 4h.5v.5a.5.5 0 0 0 1 0V4h.5a.5.5 0 0 0 0-1H18v-.5a.5.5 0 0 0-1 0V3h-.5a.5.5 0 0 0 0 1zM21.324 10.879c-.372.139-.81.193-1.284.193-2.811 0-5.112-2.302-5.112-5.112 0-.473.053-.912.193-1.284a.5.5 0 0 0-.592-.66A6.041 6.041 0 0 0 10 9.888C10 13.251 12.749 16 16.112 16a6.041 6.041 0 0 0 5.872-4.529.501.501 0 0 0-.66-.592zM16.112 15C13.302 15 11 12.698 11 9.888a5.05 5.05 0 0 1 2.966-4.619 5.996 5.996 0 0 0-.037.691c0 3.363 2.749 6.112 6.112 6.112.226 0 .459-.01.691-.037a5.05 5.05 0 0 1-4.62 2.966zM2.5 13.993h-1a.5.5 0 0 0 0 1h1a.5.5 0 0 0 0-1zM4 18.321l-.707.707a.5.5 0 0 0 .707.707l.707-.707A.5.5 0 0 0 4 18.321zM3.647 9.85a.5.5 0 0 0 .707-.707l-.707-.707a.5.5 0 0 0-.707.707l.707.707zM8.5 20a.5.5 0 0 0-.5.5v1a.5.5 0 0 0 1 0v-1a.5.5 0 0 0-.5-.5zM13.849 18.785a.5.5 0 0 0-.707.707l.707.707a.5.5 0 0 0 .707-.707l-.707-.707zM8.5 8a.5.5 0 0 0 .5-.5v-1a.5.5 0 0 0-1 0v1a.5.5 0 0 0 .5.5z" class="cls-1"/><path d="M11.975 16.666A3.998 3.998 0 0 1 5 13.998a4.02 4.02 0 0 1 3.556-3.978.5.5 0 0 0-.112-.994A5.018 5.018 0 0 0 4 13.997a4.998 4.998 0 0 0 8.72 3.336.5.5 0 0 0-.744-.668zM22.5 7H22v-.5a.5.5 0 0 0-1 0V7h-.5a.5.5 0 0 0 0 1h.5v.5a.5.5 0 0 0 1 0V8h.5a.5.5 0 0 0 0-1z" class="cls-1"/></g></svg>