<svg xmlns="http://www.w3.org/2000/svg" viewBox="0 0 24 24"><path fill-rule="evenodd" d="M18.5 9H15V5.5a.5.5 0 0 0-.5-.5h-5a.5.5 0 0 0-.5.5V9H5.5a.5.5 0 0 0-.5.5v5a.5.5 0 0 0 .5.5H9v3.5a.5.5 0 0 0 .5.5h5a.5.5 0 0 0 .5-.5V15h3.5a.5.5 0 0 0 .5-.5v-5a.5.5 0 0 0-.5-.5zm-.5 5h-3.5a.5.5 0 0 0-.5.5V18h-4v-3.5a.5.5 0 0 0-.5-.5H6v-4h3.5a.5.5 0 0 0 .5-.5V6h4v3.5a.5.5 0 0 0 .5.5H18v4z"/><path fill-rule="evenodd" d="M19.5 2h-15A2.5 2.5 0 0 0 2 4.5v15A2.5 2.5 0 0 0 4.5 22h15a2.5 2.5 0 0 0 2.5-2.5v-15A2.5 2.5 0 0 0 19.5 2zM21 19.5a1.5 1.5 0 0 1-1.5 1.5h-15A1.5 1.5 0 0 1 3 19.5v-15A1.5 1.5 0 0 1 4.5 3h15A1.5 1.5 0 0 1 21 4.5v15z"/></svg>