<svg xmlns="http://www.w3.org/2000/svg" viewBox="0 0 24 24"><path fill-rule="evenodd" d="M11.544 1.058a.498.498 0 0 1 .494.021c2.102 1.316 2.872 3.478 3.128 5.239a11.838 11.838 0 0 1 .045 2.965l-.025.194a1.432 1.432 0 0 1-.008.053l-.002.015v.005l-.493-.083.493.083a.5.5 0 1 1-.986-.166l.002-.01.006-.041.022-.167a10.84 10.84 0 0 0-.042-2.705c-.203-1.398-.742-2.947-2.012-4.05a7.307 7.307 0 0 1-2.635 4.394c-.789.696-1.92 1.924-2.857 3.44-.942 1.525-1.66 3.301-1.673 5.092a7.458 7.458 0 0 0 3.477 6.364 5.548 5.548 0 0 1 1.832-3.072l.019-.015a3.617 3.617 0 0 0 1.385-2.429.5.5 0 0 1 .731-.381 7.918 7.918 0 0 1 4.119 5.854 6.952 6.952 0 0 0 2.236-2.112c.721-1.075 1.166-2.297 1.2-3.561.08-2.93-.867-6.106-2.576-8.164a.5.5 0 0 1 .769-.639c1.891 2.279 2.892 5.704 2.806 8.83-.04 1.482-.56 2.885-1.369 4.091a7.952 7.952 0 0 1-3.286 2.796.499.499 0 0 1-.708-.455v-.009a6.902 6.902 0 0 0-3.078-5.403 4.622 4.622 0 0 1-1.609 2.366 4.55 4.55 0 0 0-1.582 3.134.5.5 0 0 1-.724.41 8.46 8.46 0 0 1-4.642-7.614c.015-2.043.828-4 1.822-5.61.996-1.613 2.199-2.92 3.056-3.674a6.304 6.304 0 0 0 2.396-4.574.499.499 0 0 1 .27-.414z"/></svg>