<svg xmlns="http://www.w3.org/2000/svg" viewBox="0 0 24 24"><path d="M22.5 1a.5.5 0 0 0-.5.5V18a4.001 4.001 0 0 1-6.828 2.828A4 4 0 0 1 14 18h1.5a.5.5 0 0 0 0-1h-4a.5.5 0 0 0 0 1H13a4.998 4.998 0 0 0 8.536 3.536A4.998 4.998 0 0 0 23 18V1.5a.5.5 0 0 0-.5-.5z" class="cls-1"/><path d="M20 12.5v-6A2.5 2.5 0 0 0 17.5 4h-14A2.5 2.5 0 0 0 1 6.5v6A2.5 2.5 0 0 0 3.5 15h14a2.5 2.5 0 0 0 2.5-2.5zm-8.015-2.121A.5.5 0 0 0 11.5 10h-2a.5.5 0 0 0-.485.379L8.11 14H3.5A1.5 1.5 0 0 1 2 12.5v-6A1.5 1.5 0 0 1 3.5 5h14A1.5 1.5 0 0 1 19 6.5v6a1.5 1.5 0 0 1-1.5 1.5h-4.61l-.905-3.621z" class="cls-1"/></svg>