<svg xmlns="http://www.w3.org/2000/svg" viewBox="0 0 24 24"><path d="M21.233 2.769a2.62 2.62 0 0 0-3.707 0L15.38 4.915l-.439-.439a1.5 1.5 0 0 0-2.121 0l-.793.793a.5.5 0 0 0 0 .707l.646.646-4.497 4.497a.244.244 0 0 0-.029.027l-.027.029-.594.594a.51.51 0 0 0-.128.217l-1.379 4.877a.502.502 0 0 0 .618.618l4.879-1.377a.499.499 0 0 0 .218-.128l5.146-5.147 1.146 1.147a.5.5 0 0 0 .707 0l.793-.793a1.5 1.5 0 0 0 0-2.121l-.439-.439 2.146-2.146a2.62 2.62 0 0 0 0-3.707zM11.118 15.177l-3.894 1.099 1.101-3.892.235-.235.091.048c.311.156.762.303 1.349.303.325 0 .664-.08.979-.18.315-.099.642-.23.948-.352l.009-.004c.316-.126.611-.244.887-.331.279-.088.503-.133.678-.133a2.013 2.013 0 0 1 1.022.274l-3.404 3.404zm4.124-4.124a2.641 2.641 0 0 0-.418-.253 3.023 3.023 0 0 0-1.323-.3c-.325 0-.664.08-.979.18-.315.099-.642.23-.948.352l-.009.004c-.316.126-.611.244-.887.331-.279.088-.503.133-.678.133-.28 0-.508-.047-.684-.107l4.063-4.063 2.793 2.793-.93.931zm5.284-5.284l-2.5 2.5a.5.5 0 0 0 0 .707l.793.793a.5.5 0 0 1 0 .707l-.439.439-5.293-5.293.439-.439a.5.5 0 0 1 .707 0l.793.793a.5.5 0 0 0 .707 0l2.5-2.5a1.622 1.622 0 0 1 2.293 2.293zM6.15 19.075a9.712 9.712 0 0 0-.724-.853l-.052-.054-.015-.015-.004-.004-.002-.002a.5.5 0 0 0-.708 0l-.002.002-.004.004-.015.015-.052.054a9.969 9.969 0 0 0-.724.853 5.927 5.927 0 0 0-.563.889c-.155.309-.287.673-.287 1.036 0 .686.349 1.194.751 1.514.384.305.864.479 1.247.476.424.005.911-.163 1.295-.481.4-.332.706-.842.706-1.509 0-.363-.132-.727-.287-1.036a5.978 5.978 0 0 0-.563-.889zm-.494 2.664a1.064 1.064 0 0 1-.648.251h-.014c-.116.001-.382-.07-.62-.259C4.152 21.554 4 21.314 4 21c0-.137.055-.336.182-.589.122-.245.291-.5.468-.736.121-.161.242-.309.35-.435.108.125.229.273.35.435.177.237.346.491.468.736.126.253.182.452.182.589a.924.924 0 0 1-.344.739z"/></svg>