<svg xmlns="http://www.w3.org/2000/svg" viewBox="0 0 24 24"><defs><style>.cls-1{fill:#363636}</style></defs><g id="Camada_1"><path d="M12.5 15c-.846 0-1.575.436-2.024 1.093L9.039 12.5l3.926-9.814a.5.5 0 0 0-.929-.371L8.5 11.154l-3.536-8.84a.501.501 0 0 0-.929.371l3.926 9.814-1.437 3.593c-.449-.656-1.178-1.093-2.024-1.093-1.413 0-2.5 1.216-2.5 2.643v1.714c0 1.427 1.087 2.643 2.5 2.643S7 20.783 7 19.356v-1.714-.045l1.5-3.751 1.5 3.751v1.76C10 20.784 11.087 22 12.5 22s2.5-1.216 2.5-2.643v-1.714C15 16.216 13.913 15 12.5 15zM6 19.357C6 20.297 5.297 21 4.5 21S3 20.297 3 19.357v-1.714C3 16.703 3.703 16 4.5 16s1.5.703 1.5 1.643v1.714zm8 0c0 .94-.703 1.643-1.5 1.643s-1.5-.703-1.5-1.643v-1.714c0-.94.703-1.643 1.5-1.643s1.5.703 1.5 1.643v1.714zM21.353 2.654A2.21 2.21 0 0 0 19.786 2H15.5a.5.5 0 0 0 0 1h4.286c.321 0 .629.128.857.358.228.23.357.542.357.869V21h-3.434l.813-6.538v-.012a2.228 2.228 0 0 0-1.303-2.258 2.198 2.198 0 0 0-.9-.192h-.677a.5.5 0 0 0 0 1h.677a1.203 1.203 0 0 1 .899.403 1.228 1.228 0 0 1 .31.942l-.882 7.094a.5.5 0 0 0 .497.562h4.5a.5.5 0 0 0 .5-.5V4.227c0-.59-.232-1.156-.647-1.574z" class="cls-1"/><path d="M15.5 5h3a.5.5 0 0 0 0-1h-3a.5.5 0 0 0 0 1zM15.5 7h3a.5.5 0 0 0 0-1h-3a.5.5 0 0 0 0 1zM15.5 9h3a.5.5 0 0 0 0-1h-3a.5.5 0 0 0 0 1zM15.5 11h3a.5.5 0 0 0 0-1h-3a.5.5 0 0 0 0 1z" class="cls-1"/></g></svg>