<svg xmlns="http://www.w3.org/2000/svg" viewBox="0 0 24 24"><path fill-rule="evenodd" d="M16.14 1a.5.5 0 0 1 .5.5v.94a.5.5 0 0 1-1 0v-.92a.5.5 0 0 1 .5-.52zm-4.83 2A.51.51 0 0 1 12 3l.65.66a.48.48 0 0 1 0 .7.5.5 0 0 1-.71 0l-.65-.65a.51.51 0 0 1 .02-.71zm9 0A.51.51 0 0 1 21 3a.5.5 0 0 1 0 .71l-.65.65a.5.5 0 0 1-.71 0 .481.481 0 0 1 0-.7l.67-.66zm-11 4.83a.5.5 0 0 1 .5-.5h.93a.5.5 0 0 1 0 1h-.93a.5.5 0 0 1-.5-.47v-.03zm12.24-.5a.5.5 0 1 0 0 1h.93a.5.5 0 0 0 0-1h-.93zM15.09 5a2.6 2.6 0 0 1 1.05-.18A2.68 2.68 0 0 1 17.2 5 3 3 0 0 1 19 8.63a10.94 10.94 0 0 0-.25 1.08v.21a4.796 4.796 0 0 1-.27 1 1.51 1.51 0 0 1-.45.62 2.26 2.26 0 0 1-1 .36.5.5 0 0 0-.35.23V9.64a.5.5 0 0 0-.5-.5.51.51 0 0 0-.5.5v2.48a.481.481 0 0 0-.35-.23 2.31 2.31 0 0 1-1-.36 1.41 1.41 0 0 1-.45-.59 5.51 5.51 0 0 1-.27-1v-.22c-.07-.33-.15-.69-.25-1.06A3 3 0 0 1 15.07 5h.02zm-.65 7.76c-.258-.09-.5-.218-.72-.38a2.24 2.24 0 0 1-.77-1 5.73 5.73 0 0 1-.34-1.16v-.24c-.06-.32-.13-.64-.22-1A4 4 0 0 1 14.7 4a3.66 3.66 0 0 1 1.44-.26 3.71 3.71 0 0 1 1.45.26A4.05 4.05 0 0 1 20 8.9c-.1.34-.16.67-.23 1v.22c-.069.404-.18.8-.33 1.18a2.35 2.35 0 0 1-.77 1 2.67 2.67 0 0 1-.73.39.5.5 0 0 1-.5.46h-2.4a.519.519 0 0 1-.6-.44v.05zm.5 1.26a.5.5 0 0 0-.5.5.51.51 0 0 0 .5.5h2.4a.5.5 0 0 0 0-1h-2.4zm.11 5.61l-.26-3.47a9.19 9.19 0 0 1-1-.23l.29 3.8v.06a.17.17 0 0 1-.05.15.349.349 0 0 1-.23.14H4.14a.3.3 0 0 1-.31-.3v-.07l.69-9.28h1.54v2.1a.51.51 0 0 0 .5.5.5.5 0 0 0 .5-.5v-2.1h1a8.637 8.637 0 0 1-.26-1h-.74v-.6a1.92 1.92 0 0 1 .6-1.39c.01-.43.058-.858.14-1.28a2.91 2.91 0 0 0-1.74 2.67v.55h-2a.5.5 0 0 0-.5.46l-.73 9.77v.12A1.31 1.31 0 0 0 4.14 21h9.77a1.3 1.3 0 0 0 1.14-1.42v.05z" clip-rule="evenodd"/></svg>