<svg xmlns="http://www.w3.org/2000/svg" version="1.0" viewBox="0 0 24 24"><path d="M19.4 4.6c-.2-.2-.5-.2-.7 0-.2.2-.2.5 0 .7 1.8 1.8 2.8 4.2 2.8 6.7s-1 4.9-2.8 6.7c-.2.2-.2.5 0 .7.2.2.5.2.7 0 2-2 3.1-4.6 3.1-7.4 0-2.8-1.1-5.5-3.1-7.4zM15.9 8.1c-.2-.2-.5-.2-.7 0-.2.2-.2.5 0 .7.8.8 1.3 2 1.3 3.2 0 1.2-.5 2.3-1.3 3.2-.2.2-.2.5 0 .7.2.2.5.2.7 0 1-1 1.6-2.4 1.6-3.9s-.6-2.9-1.6-3.9z"/><path fill-rule="evenodd" d="M11.5 5c0-.2-.1-.4-.3-.5-.2-.1-.4-.1-.5.1L5.8 8.5H2c-.3 0-.5.2-.5.5v6c0 .3.2.5.5.5h3.8l4.9 3.9c.2.1.4.1.5.1.2-.1.3-.3.3-.5V5zM6.3 9.4L10.5 6v12l-4.2-3.4c-.1-.1-.2-.1-.3-.1H2.5v-5H6c.1 0 .2 0 .3-.1z" clip-rule="evenodd"/></svg>