<svg xmlns="http://www.w3.org/2000/svg" viewBox="0 0 24 24"><defs><style>.cls-1{fill:#363636}</style></defs><g id="Camada_1"><path d="M8.896 7.822a.5.5 0 0 0-.342.474 7.207 7.207 0 0 0 7.208 7.208.5.5 0 0 0 .474-.342l1.903-5.709 4.133-4.151a2.501 2.501 0 0 0 .116-3.404l-.037-.042a2.5 2.5 0 0 0-3.655-.128l-4.239 4.239-5.562 1.854zm10.508-5.386a1.5 1.5 0 0 1 2.193.077l.037.042a1.5 1.5 0 0 1-.069 2.042l-3.91 3.927-1.043-1.043-1.124-1.128 3.916-3.916zm-3.5 5.751l1.202 1.206-1.7 5.101a6.207 6.207 0 0 1-5.841-5.841l5.105-1.702 1.235 1.235z" class="cls-1"/><path d="M21.977 8.69a.5.5 0 0 0-.347.616 10 10 0 1 1-19.549 3.972A9.998 9.998 0 0 1 14.693 2.369a.5.5 0 0 0 .269-.963A11 11 0 0 0 2.504 6.448a11 11 0 1 0 20.089 2.589.5.5 0 0 0-.616-.347z" class="cls-1"/><path d="M5.62 9.812a.5.5 0 0 0-.611.356 7.18 7.18 0 0 0 1.867 6.915 7.18 7.18 0 0 0 6.915 1.867.5.5 0 0 0-.255-.967 6.187 6.187 0 0 1-7.56-7.56.5.5 0 0 0-.356-.611z" class="cls-1"/></g></svg>