<svg xmlns="http://www.w3.org/2000/svg" viewBox="0 0 24 24"><path d="M17 10a2.5 2.5 0 1 0 0 5 2.5 2.5 0 0 0 0-5zm0 4a1.5 1.5 0 1 1 .001-3.001A1.5 1.5 0 0 1 17 14zM7 11.5a1.5 1.5 0 1 0-3.001.001A1.5 1.5 0 0 0 7 11.5zm-1.5.5a.5.5 0 1 1 0-1 .5.5 0 0 1 0 1zM8 15a1.5 1.5 0 1 0 .001 3.001A1.5 1.5 0 0 0 8 15zm0 2a.5.5 0 1 1 0-1 .5.5 0 0 1 0 1zM13 17a1.5 1.5 0 1 0 .001 3.001A1.5 1.5 0 0 0 13 17zm0 2a.5.5 0 1 1 0-1 .5.5 0 0 1 0 1z"/><path d="M22.879 10.805c-.268-1.614-1.05-3.311-2.914-4.281l-.016-.008c-2.54-1.206-4.869-.561-6.687.011l-.318.101c-.792.251-1.445.459-2.014.511-.598.055-1.019-.069-1.363-.485-.075-.097-.112-.233-.082-.478.029-.238.11-.499.21-.823l.034-.112c.199-.649.503-1.64-.149-2.454-.43-.63-1.19-.812-1.862-.785a3.85 3.85 0 0 0-1.995.673C2.807 4.71 1 8.066 1 11.821c0 6.192 4.921 11.178 11.057 11.178 5.031 0 9.349-3.458 10.654-8.131l.003-.01.003-.011c.201-.862.429-2.438.162-4.042zm-1.134 3.805C20.552 18.862 16.619 22 12.057 22 6.484 22 2 17.473 2 11.822c0-3.428 1.647-6.478 4.297-8.327l.003-.002a2.84 2.84 0 0 1 1.459-.491c.519-.021.853.132 1.002.358.01.015.02.029.032.043.284.345.211.796-.02 1.55l-.034.111c-.095.306-.204.658-.245.991-.048.389-.014.835.293 1.223l.006.008c.615.746 1.405.924 2.229.849.686-.063 1.455-.308 2.225-.553l.316-.1c1.803-.568 3.79-1.087 5.949-.066 1.489.778 2.145 2.136 2.381 3.554.236 1.423.035 2.85-.147 3.641z"/></svg>