<svg xmlns="http://www.w3.org/2000/svg" version="1.0" viewBox="0 0 24 24"><path fill-rule="evenodd" d="M16.5 3.1c.1 0 .3.1.4.2.1.1.6.6 1.1 1.4.5.8 1 1.8 1 2.9 0 1.4-1.1 2.5-2.5 2.5C15.1 10 14 8.9 14 7.5c0-1.1.5-2.2 1-2.9.5-.8 1-1.3 1.1-1.4.1-.1.3-.1.4-.1zm0 1.2c-.2.2-.4.5-.6.9-.5.7-.9 1.5-.9 2.3 0 .9.7 1.5 1.5 1.5S18 8.4 18 7.5c0-.8-.4-1.7-.9-2.4-.2-.3-.4-.6-.6-.8zM21.5 17c-.1-.2-.2-.5-.3-.7-.2-.2-.4-.4-.6-.5-1.2-.6-3.4-.2-4.5.2-.1-.4-.3-.7-.5-.9-.3-.2-.6-.4-1-.4-1.2-.3-2.3-.7-3.4-1.2-1.2-.5-2.6-.5-3.9-.2-.1-.1-.2-.2-.3-.2L3.2 12H3c-.1 0-.1 0-.2.1s-.1.1-.1.2-.1.1-.1.2v6.2c0 .1.1.3.1.4.1-.1.2 0 .3 0h2.8c.1 0 .2 0 .3-.1.1-.1.2-.2.2-.3l.1-.4 4.9 1.8c.6.2 1.1.3 1.7.3.6 0 1.3-.1 1.9-.4l6.3-2.6c.1 0 .2-.1.2-.2.1 0 .1-.1.1-.2zm-16 1.1h-2v-5l2.8.8-.8 4.2zm9.1 1.1c-.9.4-1.9.4-2.9.1l-5-1.9.6-3c1.2-.3 2.4-.3 3.5.1 1.1.5 2.3 1 3.6 1.2.6.1.8.4.7.7s-.2.4-.6.4c-1.4-.2-2.8-.4-4.2-.9h-.4c-.1 0-.1.1-.2.1 0 .1-.1.1-.1.2v.2c0 .1 0 .1.1.2s.1.1.1.2c.1 0 .1.1.2.1 1.4.4 2.9.7 4.4.9h.2c.2 0 .4 0 .6-.1.2-.1.4-.2.5-.4 1-.3 3.3-1 4.3-.5.1 0 .1.1.2.1l-5.6 2.3zM11.4 5.7c-.1-.1-.2-.2-.4-.2s-.3.1-.4.2c-.1.1-.5.5-.8 1.1C9.4 7.3 9 8.1 9 9c0 1.1.9 2 2 2s2-.9 2-2c0-.9-.4-1.7-.8-2.3-.4-.6-.8-1-.8-1zm-.8 1.6c.1-.2.3-.4.4-.5.1.1.2.3.4.5.3.5.6 1.1.6 1.7 0 .6-.4 1-1 1s-1-.4-1-1 .3-1.2.6-1.7z" clip-rule="evenodd"/></svg>