<svg xmlns="http://www.w3.org/2000/svg" viewBox="0 0 24 24"><path d="M12.5 12h-4a.5.5 0 0 0-.5.5v6a.5.5 0 0 0 .5.5h4a.5.5 0 0 0 .5-.5v-6a.5.5 0 0 0-.5-.5zm-.5 6H9v-5h3v5z"/><path d="M15.5 8H15V6.5A1.5 1.5 0 0 0 13.5 5H13V2h3.499a.5.5 0 0 0 0-1H8.5a.5.5 0 0 0-.5.5V5h-.5A1.5 1.5 0 0 0 6 6.5V8h-.5A1.5 1.5 0 0 0 4 9.5v12A1.5 1.5 0 0 0 5.5 23h10a1.5 1.5 0 0 0 1.5-1.5v-12A1.5 1.5 0 0 0 15.5 8zM9 2h3v3H9V2zM7 6.5a.5.5 0 0 1 .5-.5h6a.5.5 0 0 1 .5.5V8H7V6.5zm9 15a.5.5 0 0 1-.5.5h-10a.5.5 0 0 1-.5-.5v-12a.5.5 0 0 1 .5-.5h10a.5.5 0 0 1 .5.5v12z"/><path d="M20.713 3.964a5.978 5.978 0 0 0-.563-.889 9.712 9.712 0 0 0-.724-.853l-.052-.054-.015-.015-.004-.004-.002-.002a.5.5 0 0 0-.708 0l-.002.002-.004.004-.015.015-.052.054a9.969 9.969 0 0 0-.724.853 5.978 5.978 0 0 0-.563.889c-.155.31-.287.673-.287 1.036 0 .686.349 1.194.752 1.514.384.305.864.479 1.247.476.424.005.911-.163 1.295-.482.4-.332.706-.842.706-1.509 0-.363-.132-.727-.287-1.036zm-1.057 1.775a1.064 1.064 0 0 1-.648.251h-.014c-.116.001-.382-.07-.62-.259-.222-.177-.373-.417-.373-.731 0-.137.055-.336.182-.589.122-.245.291-.5.468-.736.121-.161.242-.309.35-.434.108.125.229.273.35.434.177.236.346.491.468.736.126.253.182.452.182.589a.924.924 0 0 1-.344.739z"/></svg>