<svg xmlns="http://www.w3.org/2000/svg" viewBox="0 0 40 40"><path fill-rule="evenodd" d="M20.001 25.833a2.083 2.083 0 1 0 0 4.166 2.083 2.083 0 0 0 0-4.166zM20.001 23.333c.46 0 .833-.373.833-.833v-8.333a.833.833 0 0 0-1.666 0V22.5c0 .46.373.833.833.833z"/><path fill-rule="evenodd" d="M37.731 29.867L23.922 5.619c-1.736-3.047-6.107-3.047-7.843 0L2.271 29.867c-1.721 3.021.441 6.8 3.922 6.8h27.618c3.48 0 5.643-3.779 3.922-6.8zM33.81 35H6.192c-2.184 0-3.57-2.383-2.473-4.308L17.528 6.443c1.096-1.925 3.85-1.925 4.947 0l13.809 24.248c1.097 1.926-.29 4.308-2.473 4.308z"/></svg>