<svg xmlns="http://www.w3.org/2000/svg" viewBox="0 0 24 24"><defs><style>.cls-1{fill:#363636}</style></defs><g id="Camada_1"><path d="M12 17a3 3 0 0 0 3-3 .495.495 0 0 0-.045-.207c-1.194-2.628-1.204-5.645-.897-8.042.153-1.193.383-2.218.574-2.944a19.088 19.088 0 0 1 .314-1.068l.019-.055.005-.013v-.003a.499.499 0 0 0-.905-.413l-.004.006-.011.02-.042.076a82.31 82.31 0 0 0-.73 1.354c-.471.894-1.1 2.126-1.729 3.471-.629 1.345-1.261 2.811-1.738 4.174-.472 1.349-.809 2.649-.809 3.642a3 3 0 0 0 3 3zm-1.247-6.312c.461-1.319 1.078-2.752 1.7-4.081.226-.483.452-.951.67-1.394-.02.135-.039.271-.056.411-.314 2.447-.327 5.632.931 8.477A2 2 0 0 1 10.001 14c0-.814.287-1.979.753-3.312zM6.5 18h-1a.5.5 0 0 0 0 1h1a.5.5 0 0 0 0-1zM4.5 17h1a.5.5 0 0 0 0-1h-1a.5.5 0 0 0 0 1zM16 18.5a.5.5 0 0 0 .5.5h1a.5.5 0 0 0 0-1h-1a.5.5 0 0 0-.5.5zM18.5 17h1a.5.5 0 0 0 0-1h-1a.5.5 0 0 0 0 1zM14.5 20h-1a.5.5 0 0 0 0 1h1a.5.5 0 0 0 0-1zM19.5 20h-1a.5.5 0 0 0 0 1h1a.5.5 0 0 0 0-1zM9.5 20h-1a.5.5 0 0 0 0 1h1a.5.5 0 0 0 0-1zM4.5 20h-1a.5.5 0 0 0 0 1h1a.5.5 0 0 0 0-1z" class="cls-1"/><path d="M22.5 13h-6a.5.5 0 0 0-.5.5c0 2.758-1.824 4.5-4 4.5s-4-1.742-4-4.5a.5.5 0 0 0-.5-.5h-6a.5.5 0 0 0-.5.5v9a.5.5 0 0 0 .5.5h21a.5.5 0 0 0 .5-.5v-9a.5.5 0 0 0-.5-.5zm-.5 2h-.5a.5.5 0 0 0 0 1h.5v2h-.5a.5.5 0 0 0 0 1h.5v3H2v-3h.5a.5.5 0 0 0 0-1H2v-2h.5a.5.5 0 0 0 0-1H2v-1h5.018c.214 2.972 2.334 5 4.982 5s4.768-2.028 4.982-5H22v1z" class="cls-1"/><circle cx="7.5" cy="11.5" r=".5" class="cls-1"/><circle cx="22.5" cy="11.5" r=".5" class="cls-1"/><circle cx="6.5" cy="9.5" r=".5" class="cls-1"/><circle cx="21.5" cy="9.5" r=".5" class="cls-1"/><circle cx="4.5" cy="11.5" r=".5" class="cls-1"/><circle cx="19.5" cy="11.5" r=".5" class="cls-1"/><circle cx="3.5" cy="9.5" r=".5" class="cls-1"/><circle cx="18.5" cy="9.5" r=".5" class="cls-1"/><circle cx="1.5" cy="11.5" r=".5" class="cls-1"/><circle cx="16.5" cy="11.5" r=".5" class="cls-1"/></g></svg>