<svg xmlns="http://www.w3.org/2000/svg" viewBox="0 0 24 24"><path fill-rule="evenodd" d="M4.94 4a.5.5 0 0 0-.5.5v2.31h-.07a.49.49 0 0 0-.48.38l-.38 1.5h-1a.5.5 0 0 0-.5.5 25 25 0 0 0 .66 6.16 7.1 7.1 0 0 0 1.49 3.2c.304.317.721.5 1.16.51h2.33a1.66 1.66 0 0 0 1.16-.51 5.83 5.83 0 0 0 1-2.49h-1a4.62 4.62 0 0 1-.75 1.83.65.65 0 0 1-.44.2H5.31a.7.7 0 0 1-.46-.22 6.26 6.26 0 0 1-1.22-2.73A23.84 23.84 0 0 1 3 9.69h6.47v.34h1v-.84a.5.5 0 0 0-.47-.5H9l-.37-1.5a.52.52 0 0 0-.46-.38V4.5a.5.5 0 0 0-.5-.5H4.94zm9.56 14.06V16h1v2h5.56V8.75H15.5V10h-1V8.75a1 1 0 0 1 1-1h.88v-.87h-.44a.5.5 0 0 1-.5-.5V4.5a.5.5 0 0 1 .5-.5h4.68a.5.5 0 0 1 .5.5v1.88a.5.5 0 0 1-.5.5h-.43v.87h.87a1 1 0 0 1 1 1v9.31a1 1 0 0 1-1 1H15.5a1.001 1.001 0 0 1-1-1zM7.15 6.81H5.44V5h1.71v1.81zM4.54 8.69H8l-.22-.88h-3l-.24.88zm12.84-1.81h1.81v.87h-1.81v-.87zM16.44 5v.88h3.68V5h-3.68zM9 13a1 1 0 1 1-2 0 1 1 0 0 1 2 0zm3 1a1 1 0 1 0 0-2 1 1 0 0 0 0 2zm4 0a1 1 0 1 0 0-2 1 1 0 0 0 0 2z" clip-rule="evenodd"/></svg>