<svg xmlns="http://www.w3.org/2000/svg" viewBox="0 0 24 24"><path d="M11.87 20.539c-.861.254-1.93.488-2.855.461-.94-.028-2.019-.265-2.881-.504a21.527 21.527 0 0 1-1.053-.322l-.119-.04L3.059 3h11.883l-.993 8.94a.5.5 0 1 0 .994.11l1.055-9.495a.5.5 0 0 0-.497-.556H2.5a.502.502 0 0 0-.497.556l2 18a.502.502 0 0 0 .322.413l.008.003.023.009.087.031a21.959 21.959 0 0 0 1.424.449c.888.246 2.059.509 3.119.54 1.084.032 2.275-.238 3.167-.502a.5.5 0 1 0-.283-.959z" class="cls-1"/><path d="M6.5 5a.502.502 0 0 0-.499.527l.5 9a.5.5 0 0 0 .499.472h4a.5.5 0 0 0 .499-.472l.5-9A.5.5 0 0 0 11.5 5h-5zm4.027 9H7.473l-.444-8h3.943l-.445 8zM14 17.5a3.5 3.5 0 0 1 6.053-2.395h-1.079a.5.5 0 0 0 0 1h2.105a.5.5 0 0 0 .5-.5V13.5a.5.5 0 0 0-1 0v.718A4.5 4.5 0 0 0 13 17.5a.5.5 0 0 0 1 0zM21.5 17a.5.5 0 0 0-.5.5 3.5 3.5 0 0 1-6.053 2.395h1.079a.5.5 0 0 0 0-1H13.92a.5.5 0 0 0-.5.5V21.5a.5.5 0 0 0 1 0v-.718a4.5 4.5 0 0 0 7.579-3.282.5.5 0 0 0-.5-.5z" class="cls-1"/></svg>