<svg xmlns="http://www.w3.org/2000/svg" viewBox="0 0 80 80"><path d="M15.124 69.551a1.5 1.5 0 1 1 1.085 2.798 1.5 1.5 0 0 1-1.085-2.798zM62.956 70.407a1.5 1.5 0 1 1 2.797 1.087 1.5 1.5 0 0 1-2.797-1.087zM22.96 66.507a1.502 1.502 0 0 1 1.087 2.797 1.5 1.5 0 0 1-1.088-2.797zM55.119 67.363a1.5 1.5 0 1 1 2.798 1.085 1.5 1.5 0 0 1-2.798-1.085z"/><path fill-rule="evenodd" d="M50.662 7.553l5.564.373.346.032a7.19 7.19 0 0 1 4.233 1.989l.24.245.002.002c1.17 1.266 1.801 2.886 1.761 4.584l-.016.34-.391 5.1c.164-.352.361-.692.594-1.015.997-1.384 2.497-2.3 4.188-2.61h.002l4.983-.901.15-.019a1.5 1.5 0 0 1 1.586 1.195l.96 4.678.055.313a6.012 6.012 0 0 1-1.086 4.437c-.997 1.384-2.497 2.3-4.189 2.61h-.003l-4.738.856c.079.862.105 1.755.062 2.67a6.54 6.54 0 0 1 .185-.159c1.294-1.064 2.899-1.55 4.526-1.333l.326.053 4.783.919a1.5 1.5 0 0 1 1.2 1.687l-.797 5.501c-.261 1.803-1.127 3.442-2.497 4.569-1.294 1.064-2.899 1.55-4.526 1.332l-.327-.053-4.782-.918a1.499 1.499 0 0 1-1.176-1.135c-.23.423-.472.838-.722 1.248 1.48.21 2.824.96 3.843 2.112l3.521 3.98a1.5 1.5 0 0 1-.018 2.008l-3.58 3.91c-1.226 1.34-2.893 2.105-4.684 2.09-1.684-.013-3.242-.717-4.421-1.925l-.23-.248-2.496-2.822c-.488.41-.983.814-1.485 1.206-2.721 2.123-5.663 4.008-8.614 5.697a225.36 225.36 0 0 0 6.922 3.351 1.5 1.5 0 0 1-1.27 2.718c-2.707-1.265-5.726-2.694-8.815-4.328-3.09 1.634-6.108 3.063-8.815 4.328a1.5 1.5 0 1 1-1.27-2.718 225.693 225.693 0 0 0 6.922-3.351c-2.951-1.689-5.892-3.574-8.614-5.697a52.645 52.645 0 0 1-1.874-1.533l-2.782 3.149c-1.202 1.359-2.855 2.16-4.651 2.174-1.68.013-3.25-.659-4.45-1.846l-.234-.244-3.582-3.911a1.5 1.5 0 0 1-.018-2.007l3.521-3.98c1.165-1.318 2.754-2.109 4.485-2.17-.166-.273-.327-.55-.484-.829a1.495 1.495 0 0 1-1.041.773l-4.782.918-.327.053c-1.627.217-3.232-.268-4.526-1.332-1.37-1.127-2.236-2.767-2.497-4.569l-.798-5.5a1.5 1.5 0 0 1 1.201-1.688l4.783-.918.326-.054c1.56-.209 3.099.231 4.363 1.205-.026-.827 0-1.634.073-2.416l-4.98-.818-.003-.001c-1.787-.297-3.403-1.18-4.495-2.559-1.102-1.39-1.53-3.12-1.145-4.834l1.056-4.679.039-.141a1.5 1.5 0 0 1 1.667-1.009l5.48.901h.003c1.787.297 3.404 1.18 4.496 2.559.291.368.534.76.729 1.169l-.398-5.198c-.138-1.82.496-3.574 1.746-4.925l.003-.004c1.248-1.34 2.962-2.139 4.819-2.263l5.563-.374.153-.002a1.5 1.5 0 0 1 1.443 1.385l.398 5.208c.139 1.82-.495 3.574-1.744 4.925l-.003.004c-1.249 1.34-2.964 2.139-4.82 2.262v.001l-4.333.29a23.193 23.193 0 0 0-1.821 4.222c.186-.097.378-.185.576-.263l4.31-1.695a1.502 1.502 0 0 1 1.984.958l1.493 4.899a7.303 7.303 0 0 1-.264 4.987l-.002.003c-.676 1.575-1.88 2.825-3.445 3.44h.001l-3.74 1.471c.85 1.93 1.957 3.738 3.263 5.438a6.578 6.578 0 0 1 1.788-3.796l.234-.233 3.71-3.515a1.502 1.502 0 0 1 1.071-.412c.398.011.776.18 1.05.47l3.516 3.71v.001a6.585 6.585 0 0 1 1.808 4.726v.004a6.59 6.59 0 0 1-2.065 4.623l-2.61 2.473c2.717 1.987 5.63 3.756 8.54 5.348 2.832-1.55 5.666-3.266 8.32-5.189l-2.777-2.632a6.592 6.592 0 0 1-2.066-4.624v-.332a6.58 6.58 0 0 1 1.808-4.397l.002-.002 3.516-3.71a1.5 1.5 0 0 1 2.12-.056l3.71 3.514.235.233a6.582 6.582 0 0 1 1.815 4.102c.091-.07.184-.138.279-.203 1.346-1.737 2.483-3.587 3.352-5.566l-4.033-1.428h-.001a6.588 6.588 0 0 1-3.76-3.404l-.002-.003a6.764 6.764 0 0 1-.298-5.084l1.66-4.9a1.502 1.502 0 0 1 1.778-.975l.143.043 4.79 1.696c.211.075.418.16.619.255a22.897 22.897 0 0 0-1.827-4.22l-3.982-.267c-1.856-.123-3.572-.922-4.818-2.265l-.002-.002c-1.25-1.351-1.884-3.104-1.745-4.924l.398-5.209.02-.151a1.501 1.501 0 0 1 1.577-1.232zM18.659 47.082c-.888.007-1.75.396-2.428 1.162v-.001l-2.626 2.968 2.67 2.916.001.001c.686.75 1.555 1.123 2.446 1.116.888-.008 1.75-.396 2.428-1.161l2.626-2.97-2.67-2.915c-.687-.75-1.556-1.124-2.447-1.116zm41.668 0a3.108 3.108 0 0 0-1.495.37 38.794 38.794 0 0 1-3.502 3.797l2.506 2.834.128.138c.657.674 1.467 1.016 2.3 1.023.89.007 1.76-.366 2.447-1.116l2.67-2.917-2.627-2.968c-.677-.766-1.54-1.154-2.427-1.161zm-33.453-3.846h-.002c-.7.664-1.1 1.557-1.128 2.531-.025.97.324 1.88.988 2.582l2.483 2.621 2.623-2.484.128-.128a3.59 3.59 0 0 0 1.001-2.4 3.586 3.586 0 0 0-.988-2.585l-2.484-2.621-2.621 2.484zm20.423.136a3.587 3.587 0 0 0-.989 2.586 3.591 3.591 0 0 0 1.128 2.527l2.623 2.485 2.485-2.62a3.584 3.584 0 0 0 .987-2.583 3.591 3.591 0 0 0-1.128-2.53l-.002-.001-2.62-2.484-2.484 2.62zm-34.352-8.783c-.729-.6-1.568-.805-2.383-.65l-3.373.647.592 4.083c.164 1.135.694 2.074 1.433 2.682.73.6 1.567.806 2.382.65l3.375-.648-.592-4.082c-.165-1.135-.695-2.073-1.434-2.682zm56.493-.65c-.815-.155-1.654.05-2.383.65-.739.609-1.269 1.547-1.433 2.682l-.593 4.082 3.375.648c.815.157 1.653-.05 2.382-.65.74-.608 1.269-1.547 1.433-2.682l.592-4.083-3.373-.646zm-14.545-3.274a3.763 3.763 0 0 0 .167 2.837 3.588 3.588 0 0 0 2.05 1.865l3.357 1.19 1.171-3.458a3.763 3.763 0 0 0-.167-2.838h.001a3.59 3.59 0 0 0-2.05-1.865l-3.357-1.19-1.172 3.459zm-34.606-2.288l-.002.001c-.738.29-1.39.912-1.784 1.832a4.301 4.301 0 0 0-.153 2.932l1.02 3.345 2.8-1.102h.002c.738-.29 1.388-.911 1.784-1.832a4.3 4.3 0 0 0 .152-2.932l-1.02-3.346-2.8 1.102zm-13.223-6.2c-.176.783 0 1.593.57 2.31.578.73 1.496 1.273 2.631 1.463l4.086.672.744-3.3c.176-.783 0-1.593-.569-2.31-.579-.732-1.498-1.274-2.635-1.463l-4.084-.672-.743 3.3zm60.655-2.632c-.965.177-1.77.688-2.29 1.412a3.01 3.01 0 0 0-.527 2.394l.664 3.242 3.541-.64c.965-.176 1.77-.686 2.291-1.41.518-.72.696-1.564.526-2.394l-.665-3.244-3.54.64zM23.98 10.92l-.002.001c-1.118.075-2.111.55-2.823 1.314-.702.76-1.026 1.699-.953 2.656l.284 3.727 4.082-.274.209-.018a4.185 4.185 0 0 0 2.615-1.296c.657-.713.983-1.582.961-2.477l-.009-.18-.285-3.726-4.08.273zm27.679 3.454c-.073.957.251 1.897.954 2.658.707.762 1.7 1.238 2.82 1.312l4.083.274.285-3.727.01-.179c.021-.896-.306-1.766-.966-2.48-.707-.761-1.702-1.236-2.818-1.31l-4.084-.275-.284 3.727z" clip-rule="evenodd"/></svg>