<svg xmlns="http://www.w3.org/2000/svg" viewBox="0 0 80 80"><path fill-rule="evenodd" d="M39.634 7.046a1.5 1.5 0 0 1 .9.053l10.5 4 .145.064c.14.071.27.165.381.277l7 7 .077.082c.17.197.286.435.336.691l4 20.5c.037.192.036.39-.002.581l-4 20a1.502 1.502 0 0 1-.374.73l-6.34 6.79c-.096.148-.216.28-.361.389l-.3.32a1.502 1.502 0 0 1-.562.379l-10.5 4c-.33.125-.694.131-1.027.015l-11.5-4a1.501 1.501 0 0 1-.678-.48l-6-7.5a1.505 1.505 0 0 1-.3-.643l-4-20a1.503 1.503 0 0 1-.002-.58l4-20.5.05-.188c.061-.183.158-.354.284-.502l6-7 .139-.142a1.5 1.5 0 0 1 .507-.298l11.5-4 .127-.038zm-8.847 59.661l5.537 1.926-3.993-5.271-1.544 3.345zm9.236 1.84L45.18 62H35.063l4.96 6.546zm3.95-.167l5.112-1.947-1.321-2.863-3.79 4.81zm-19.09-7.801l3.442 4.302 1.952-4.23-2.604-3.438-2.79 3.366zm24.965.345l1.567 3.395 3.818-4.091-2.496-2.972-2.89 3.668zM29.64 54.841l3.15 4.16h14.753l3.223-4.093L40.11 42.215 29.64 54.841zm-6.11 2.67l2.34-2.823-4.41-7.522 2.07 10.344zm31.034-2.744l1.979 2.357 1.865-9.325-3.844 6.968zM29 50.915l9.15-11.035L29 28.98v21.936zm13.057-11.047L51 50.52V29.084l-8.943 10.784zM54 49.58l5.273-9.558L54 31.026V49.58zM20.738 40L26 48.975V31.024L20.738 40zm8.934-14.884l10.425 12.417 10.262-12.374L47.21 21H32.791l-3.12 4.116zm-8.264 7.81l4.484-7.648-2.428-2.892-2.056 10.54zm32.72-7.614l4.462 7.611-2.053-10.516-2.41 2.905zm-4.406-5.963l2.604 3.438 2.874-3.465-3.74-3.74-1.738 3.767zm-25.003-.134l2.975 3.544 2.583-3.41-1.985-4.302-3.573 4.168zM35.063 18h9.873L40 11.484 35.063 18zm-4.276-4.708l1.544 3.346 3.994-5.272-5.538 1.926zm16.881 3.346l1.418-3.072-5.266-2.006 3.848 5.078z" clip-rule="evenodd"/><path d="M15.5 55a1.5 1.5 0 1 1 0 3 1.5 1.5 0 0 1 0-3zM64.5 55a1.5 1.5 0 1 1 0 3 1.5 1.5 0 0 1 0-3zM12.33 49.659a1.5 1.5 0 0 1 1.34 2.683l-6 3a1.5 1.5 0 0 1-1.34-2.683l6-3zM65.658 50.33a1.5 1.5 0 0 1 2.013-.671l6 3a1.5 1.5 0 0 1-1.342 2.683l-6-3a1.5 1.5 0 0 1-.67-2.012zM11.5 44a1.5 1.5 0 1 1 0 3 1.5 1.5 0 0 1 0-3zM68.5 44a1.5 1.5 0 1 1 0 3 1.5 1.5 0 0 1 0-3zM12.5 38.5a1.5 1.5 0 0 1 0 3h-7a1.5 1.5 0 0 1 0-3h7zM74.5 38.5a1.5 1.5 0 0 1 0 3h-7a1.5 1.5 0 0 1 0-3h7zM11.5 33a1.5 1.5 0 1 1 0 3 1.5 1.5 0 0 1 0-3zM68.5 33a1.5 1.5 0 1 1 0 3 1.5 1.5 0 0 1 0-3zM5.658 25.33a1.5 1.5 0 0 1 2.013-.671l6 3a1.5 1.5 0 0 1-1.342 2.683l-6-3a1.5 1.5 0 0 1-.67-2.012zM72.33 24.659a1.5 1.5 0 0 1 1.34 2.683l-6 3a1.5 1.5 0 0 1-1.34-2.683l6-3zM15.5 22a1.5 1.5 0 1 1 0 3 1.5 1.5 0 0 1 0-3zM64.5 22a1.5 1.5 0 1 1 0 3 1.5 1.5 0 0 1 0-3z"/></svg>