<svg xmlns="http://www.w3.org/2000/svg" viewBox="0 0 80 80"><path fill-rule="evenodd" d="M66.905 26.306a8.1 8.1 0 0 1 8.098 8.098v40.099a1.5 1.5 0 0 1-1.5 1.5H47.11l-.02-.001H7.518a1.5 1.5 0 0 1-1.5-1.5V61.815a8.099 8.099 0 0 1 13.197-6.291v-.816a8.1 8.1 0 0 1 13.201-6.288 8.097 8.097 0 0 1 13.193-6.094v-.814a8.099 8.099 0 0 1 13.197-6.291v-.816a8.099 8.099 0 0 1 8.099-8.098zM14.117 56.715a5.099 5.099 0 0 0-5.1 5.098v11.19h10.198v-11.19a5.099 5.099 0 0 0-5.098-5.098zm39.59-20.303a5.099 5.099 0 0 0-5.098 5.099v31.492h10.197V41.51a5.099 5.099 0 0 0-5.099-5.099zm13.198-7.106a5.099 5.099 0 0 0-5.099 5.098v38.599h10.197V34.404a5.1 5.1 0 0 0-5.098-5.098zM27.314 49.608a5.1 5.1 0 0 0-5.099 5.099v18.295h10.196V54.669a5.099 5.099 0 0 0-5.097-5.06zm13.196-6.09a5.1 5.1 0 0 0-5.099 5.098v6.053l.002.038v18.295h10.196V48.616a5.1 5.1 0 0 0-5.099-5.098z" clip-rule="evenodd"/><path d="M5.885 43.723a1.5 1.5 0 0 1 1.372 2.663l-.137.07-.142.057a1.5 1.5 0 0 1-1.093-2.79zM11.471 41.148a1.5 1.5 0 0 1 1.272 2.717v.001a1.5 1.5 0 0 1-1.273-2.717h.001zM16.998 38.491a1.5 1.5 0 1 1-.133.076l.133-.076zM67.06 4.04a1.501 1.501 0 0 1 1.773 1.938l-3.77 11.167a1.5 1.5 0 0 1-2.843-.96l2.076-6.153c-.412.354-.933.802-1.546 1.322a457.396 457.396 0 0 1-6.544 5.457c-5.224 4.271-11.8 9.44-17.097 12.925-4.263 2.805-9.598 5.754-14.66 8.37a1.5 1.5 0 0 1-1.377-2.665c5.027-2.599 10.255-5.49 14.388-8.21 5.158-3.395 11.633-8.48 16.847-12.743 2.6-2.126 4.876-4.039 6.501-5.42l.703-.601-6.943 1.68a1.5 1.5 0 1 1-.705-2.917L67.06 4.04z"/></svg>