<svg xmlns="http://www.w3.org/2000/svg" viewBox="0 0 80 80"><path d="M32.5 34a1.5 1.5 0 1 1 0 3 1.5 1.5 0 0 1 0-3zM32.5 29a1.5 1.5 0 1 1 0 3 1.5 1.5 0 0 1 0-3z"/><path fill-rule="evenodd" d="M40.027 4.001a1.478 1.478 0 0 1 .104.006l.042.005.054.008.054.008.027.006a1.517 1.517 0 0 1 .161.044l.033.012.049.018.051.023.026.01.02.011.038.019c.02.01.038.021.057.032l.034.02.034.021.06.042.028.02.03.023.03.026c.023.02.045.038.066.058l.026.025 16.493 15.985.009.01.023.024A1.494 1.494 0 0 1 58 21.5v21a1.5 1.5 0 0 1-3 0V23h-5v34h5v-4.5a1.5 1.5 0 0 1 3 0v6a1.492 1.492 0 0 1-.408 1.025l-.04.041-.008.011-16.492 15.984-.027.025-.056.05-.04.034-.024.017-.046.034-.048.034-.029.018-.052.03-.044.025-.03.015c-.01.004-.019.011-.028.015l-.032.013-.045.02-.037.013-.054.019c-.014.004-.027.01-.04.013l-.044.012a1.334 1.334 0 0 1-.072.018l-.023.005-.045.007a1.458 1.458 0 0 1-.068.01l-.037.004-.042.003a1.478 1.478 0 0 1-.067.003l-.035.001-.02.001-.038-.003c-.015 0-.029 0-.043-.002a1.42 1.42 0 0 1-.045-.004l-.052-.007a1.676 1.676 0 0 1-.055-.008l-.039-.007-.047-.011a1.453 1.453 0 0 1-.05-.013l-.054-.014-.03-.011a1.463 1.463 0 0 1-.058-.02l-.05-.02-.034-.016a1.565 1.565 0 0 1-.063-.03l-.021-.01-.01-.007a1.378 1.378 0 0 1-.099-.058l-.028-.018-.035-.025a1.457 1.457 0 0 1-.043-.032l-.012-.01c-.011-.008-.023-.016-.034-.026a1.353 1.353 0 0 1-.031-.027l-.02-.02-.062-.058-15.491-16-.018-.02a1.5 1.5 0 0 1-.231-.324c-.011-.02-.02-.042-.03-.063A1.488 1.488 0 0 1 23 58.5v-37a1.496 1.496 0 0 1 .405-1.024l.018-.019 15.49-16 .003-.003.074-.07c.012-.011.024-.023.037-.033.015-.013.032-.024.048-.037l.004-.003c.011-.01.023-.018.035-.027l.037-.026.033-.02.007-.006a1.499 1.499 0 0 1 .086-.05l.01-.006.039-.019.039-.02.041-.018c.018-.008.037-.014.056-.021l.044-.016.038-.014.062-.017.032-.008a1.503 1.503 0 0 1 .26-.04l.014-.001.056-.002h.036l.023.001zm.049 67.143L46.003 60H34.858l5.218 11.144zm-5.246-4.13L31.546 60h-3.507l6.79 7.014zm10.96-.225L52.796 60H49.4l-3.611 6.79zM26 57h5V40.5a1.5 1.5 0 0 1 3 0V57h13V23H34v2.5a1.5 1.5 0 0 1-3 0V23h-5v34zm2.038-37h3.508l3.286-7.018L28.038 20zm6.82 0h11.146L40.077 8.854 34.858 20zm14.543 0h3.396l-7.008-6.792L49.4 20z" clip-rule="evenodd"/><path d="M17.5 50a1.5 1.5 0 1 1 0 3 1.5 1.5 0 0 1 0-3zM63.5 50a1.5 1.5 0 1 1 0 3 1.5 1.5 0 0 1 0-3zM13.637 43.248a1.5 1.5 0 0 1 1.654 2.504L7.827 50.68a1.501 1.501 0 0 1-1.653-2.503l7.463-4.929zM63.658 43.33a1.5 1.5 0 0 1 2.013-.672l8 4a1.5 1.5 0 0 1-1.342 2.684l-8-4a1.5 1.5 0 0 1-.671-2.013zM56.5 46a1.5 1.5 0 1 1 0 3 1.5 1.5 0 0 1 0-3zM72.329 30.658a1.5 1.5 0 0 1 1.342 2.684l-8 4a1.5 1.5 0 0 1-1.342-2.684l8-4zM5.748 29.993a1.501 1.501 0 0 1 2.079-.426l7.464 4.93A1.5 1.5 0 0 1 13.637 37l-7.463-4.929a1.5 1.5 0 0 1-.426-2.078zM17.5 28a1.5 1.5 0 1 1 0 3 1.5 1.5 0 0 1 0-3zM63.5 28a1.5 1.5 0 1 1 0 3 1.5 1.5 0 0 1 0-3z"/></svg>