<svg xmlns="http://www.w3.org/2000/svg" viewBox="0 0 80 80"><path d="M40 73a1.5 1.5 0 1 1 0 3 1.5 1.5 0 0 1 0-3zM40 67a1.5 1.5 0 1 1 0 3 1.5 1.5 0 0 1 0-3z"/><path fill-rule="evenodd" d="M40.453 4.001c4.51 0 8.536 2.067 11.184 5.3a79.468 79.468 0 0 1 4.611-.423l.225-.014.06-.003H56.699a1.5 1.5 0 0 1 1.416 1.288l.001.004.001.008c0 .007.002.016.004.027l.013.1.044.365c.036.316.084.771.131 1.338.096 1.134.19 2.724.19 4.555 0 3.629-.37 8.352-1.953 12.363-1.598 4.048-4.381 7.263-7.345 9.466-2.519 1.872-5.289 3.097-7.701 3.404v5.968c1.27-1.551 3.047-3.221 5.5-4.67 3.589-2.121 7.709-2.183 10.786-1.788 1.558.2 2.902.524 3.857.798a22.456 22.456 0 0 1 1.448.468l.087.033.027.01a.372.372 0 0 1 .008.003l.003.002c-.002.006.002 0 .002 0 .656.259 1.042.942.928 1.638v.005l-.002.008c0 .007-.003.016-.005.027l-.016.094c-.015.08-.036.192-.066.334-.058.284-.148.688-.275 1.18a28.846 28.846 0 0 1-1.275 3.815c-1.21 2.912-3.314 6.525-6.842 8.61-2.478 1.463-5.206 1.942-7.646 1.974a1.5 1.5 0 0 1-.039-2.999c2.1-.027 4.267-.44 6.16-1.559 2.704-1.598 4.484-4.498 5.597-7.177.548-1.318.913-2.531 1.14-3.413.013-.048.023-.095.035-.141-.031-.009-.063-.02-.095-.028a23.329 23.329 0 0 0-3.413-.706c-2.787-.358-6.119-.236-8.877 1.394-2.943 1.74-4.722 3.818-5.763 5.438-.52.811-.858 1.51-1.06 1.993-.097.23-.163.411-.204.531v7.88a1.5 1.5 0 0 1-3 0v-5.45a37.098 37.098 0 0 0-2.353-3.281c-1.606-1.993-3.6-3.988-5.495-4.79-2.092-.884-5.204-.793-8.024-.375-1.367.202-2.589.469-3.468.685l-.054.013c.006.022.01.045.017.068.228.882.593 2.096 1.14 3.413 1.114 2.68 2.893 5.579 5.598 7.177 1.893 1.118 4.06 1.531 6.16 1.559a1.5 1.5 0 0 1-.04 3c-2.44-.032-5.168-.512-7.646-1.976-3.529-2.085-5.632-5.697-6.842-8.608a28.86 28.86 0 0 1-1.275-3.815 24.645 24.645 0 0 1-.341-1.515l-.017-.093-.004-.028-.002-.008v-.004a1.502 1.502 0 0 1 1.038-1.677l.008-.003h-.005l.03-.008.085-.025.311-.09a41.154 41.154 0 0 1 4.867-1.034c2.88-.426 6.719-.65 9.632.582 2.63 1.112 5.019 3.628 6.663 5.669l.017.02v-9.19c-4.96-.72-11.599-4.31-15.245-12.765-1.799-4.17-1.922-8.956-1.64-12.59.143-1.837.393-3.423.607-4.551a34.53 34.53 0 0 1 .368-1.699l.025-.1.007-.028c0-.003.002-.006.003-.008v-.004c.19-.71.866-1.179 1.597-1.107l.006.001.011.001.035.004.124.014a27.227 27.227 0 0 1 1.952.313c.73.144 1.605.348 2.504.632a14.434 14.434 0 0 1 11.599-5.829zm-15.283 8.37a39.114 39.114 0 0 0-.564 4.222c-.267 3.444-.112 7.659 1.403 11.172 3.346 7.756 9.405 10.625 13.356 11.038l.017-.065.075-.318a50.435 50.435 0 0 0 .906-5.262c.382-3.28.45-7.029-.506-9.644-.996-2.724-1.687-4.159-3.552-6.122-2.086-2.198-4.217-2.945-6.927-4.166-1.151-.519-2.505-.867-3.61-1.085-.188-.037-.367-.069-.534-.098-.02.104-.043.213-.064.327zm30.123-.419c-.623.048-1.408.115-2.273.208-2.108.227-4.573.591-6.302 1.13-2.316.723-5.268 2.367-7.034 3.419 1.409 1.783 2.136 3.436 2.99 5.773 1.216 3.324 1.058 7.683.669 11.024a53.493 53.493 0 0 1-.686 4.304c-.052.256-.102.488-.146.695 1.482-.435 3.198-1.273 4.9-2.538 2.585-1.922 4.981-4.707 6.344-8.16C55.13 24.32 55.5 20.043 55.5 16.547c0-1.73-.09-3.236-.18-4.305-.008-.1-.019-.197-.027-.289zm-14.84-4.951c-3.476 0-6.59 1.548-8.693 3.997 1.89.827 3.9 1.736 5.832 3.467 1.69-1.031 5.303-3.124 8.233-4.038a22.931 22.931 0 0 1 2.215-.553 11.406 11.406 0 0 0-7.587-2.873z" clip-rule="evenodd"/><path d="M33 55.501a1.5 1.5 0 1 1 0 3 1.5 1.5 0 0 1 0-3zM26 51.501a1.5 1.5 0 1 1 0 3 1.5 1.5 0 0 1 0-3zM47 51.501a1.5 1.5 0 1 1 0 3 1.5 1.5 0 0 1 0-3zM54 47.501a1.5 1.5 0 1 1 0 3 1.5 1.5 0 0 1 0-3z"/></svg>