<svg width="256" height="58" viewBox="0 0 256 58" fill="none" xmlns="http://www.w3.org/2000/svg">
<path d="M88.1887 55.3606L62.2243 1.08373H69.2821C70.8606 1.08447 72.4063 1.53511 73.7378 2.38284C75.0694 3.23058 76.1318 4.4403 76.8005 5.87022L91.0741 36.2779L105.235 5.87022C105.904 4.4389 106.968 3.22826 108.301 2.38042C109.635 1.53259 111.182 1.08275 112.762 1.08373H119.874L93.9234 55.3606H88.1887ZM24.384 30.638C28.6225 31.4473 32.7408 32.7931 36.6391 34.6433L29.5678 19.742L24.384 30.638ZM59.1762 55.3606H46.6908C38.7434 44.6588 29.911 40.9696 19.9632 39.7369L14.3639 50.5742C12.4583 53.735 9.67683 55.3381 6.45723 55.3381H0L26.6417 1.07922H32.4804L59.1762 55.3606ZM250.807 1.08373C250.057 1.08373 249.313 1.23163 248.62 1.51898C247.927 1.80633 247.297 2.22748 246.767 2.75839C246.236 3.28928 245.815 3.91952 245.529 4.61307C245.242 5.30663 245.094 6.04991 245.095 6.80042L245.126 35.4335L216.783 1.08373H208.374V55.3606H213.585C214.336 55.3606 215.079 55.2127 215.772 54.9254C216.465 54.638 217.095 54.2169 217.626 53.686C218.156 53.1551 218.577 52.5248 218.864 51.8313C219.151 51.1377 219.298 50.3945 219.297 49.6439L219.266 21.0695L242.485 49.3233C242.485 49.3233 247.033 55.3606 253.675 55.3606H256V1.08373H250.807ZM188.578 28.3577C188.602 32.1167 187.856 35.8407 186.389 39.3015C184.921 42.7623 182.762 45.8869 180.044 48.4834C174.61 53.8158 167.292 56.7884 159.679 56.7559C155.897 56.7934 152.144 56.0794 148.64 54.6555C145.135 53.2315 141.948 51.1259 139.264 48.4609C136.601 45.8188 134.486 42.6756 133.044 39.2124C131.601 35.7493 130.858 32.0347 130.858 28.2831C130.858 24.5314 131.601 20.817 133.044 17.3538C134.486 13.8907 136.601 10.7475 139.264 8.10542C144.665 2.80416 151.722 0 159.679 0C167.636 0 174.752 2.80416 180.089 8.12799C182.789 10.7575 184.933 13.9039 186.391 17.3793C187.85 20.8549 188.593 24.5886 188.578 28.3577ZM177.51 28.3577C177.514 24.8322 176.473 21.385 174.517 18.4518C172.561 15.5186 169.778 13.2315 166.523 11.8795C163.268 10.5274 159.684 10.1714 156.225 10.8563C152.767 11.5412 149.589 13.2364 147.095 15.7274C144.601 18.2183 142.9 21.3931 142.21 24.8503C141.52 28.3076 141.871 31.8917 143.217 35.1497C144.565 38.4076 146.848 41.1929 149.777 43.1531C152.708 45.1134 156.154 46.1606 159.679 46.1625C164.402 46.1577 168.93 44.2811 172.273 40.9439C175.616 37.6066 177.499 33.0807 177.51 28.3577Z" fill="white"/>
</svg>
