<svg width="132" height="32" viewBox="0 0 132 32" fill="none" xmlns="http://www.w3.org/2000/svg">
<g id="natura-light-horizontal">
<g id="Group">
<g id="Group_2">
<g id="Group_3">
<path id="Vector" d="M51.187 14.017C56.253 14.017 58.602 17.201 58.602 20.275V27.033H55.402V20.268C55.402 18.344 54.279 15.236 51.184 15.236C48.089 15.236 46.966 18.344 46.966 20.268V27.033H43.779V20.268C43.779 17.194 46.127 14.017 51.187 14.017Z" fill="#FF6C0C"/>
<path id="Vector_2" d="M95.225 27.245C90.158 27.245 87.81 24.061 87.81 20.987V14.223H91.01V20.987C91.01 22.918 92.1329 26.026 95.2279 26.026C98.3229 26.026 99.446 22.918 99.446 20.987V14.223H102.646V20.987C102.639 24.061 100.291 27.245 95.231 27.245" fill="#FF6C0C"/>
<path id="Vector_3" d="M71.521 26.102C70.7651 26.6859 69.8712 27.0648 68.9259 27.202C65.6809 27.709 61.176 25.602 61.011 20.917C60.84 16.131 65.584 14.111 68.679 14.187C73.903 14.324 75.752 18.247 75.752 20.479V27.038H72.534V20.506C72.534 19.089 71.87 15.439 68.57 15.35C65.338 15.268 64.291 18.25 64.284 20.471C64.284 21.881 64.5919 25.394 68.3169 25.606C69.4219 25.6927 70.5294 25.4723 71.5169 24.969V26.099L71.521 26.102Z" fill="#FF6C0C"/>
<path id="Vector_4" d="M85.839 28.922C84.8845 29.225 83.8637 29.251 82.895 28.997C81.395 28.607 78.895 27.936 78.895 22.797V8.58101H82.14V14.229H85.112V16.215H82.14C82.14 16.215 82.215 20.215 82.14 23.452C82.078 26.328 82.955 27.314 83.591 27.635C84.3017 27.9254 85.0879 27.976 85.83 27.779V28.922H85.839Z" fill="#FF6C0C"/>
<path id="Vector_5" d="M105.659 19.85C105.659 16.687 107.302 14.462 110.198 14.167C111.125 13.9885 112.082 14.0498 112.978 14.345V15.632C112.235 15.4563 111.459 15.4753 110.725 15.687C109.404 16.087 108.89 18.07 108.89 18.734V27.101H105.659V19.85Z" fill="#FF6C0C"/>
<path id="Vector_6" d="M123.761 26.102C123.005 26.6859 122.111 27.0648 121.166 27.202C117.921 27.709 113.423 25.602 113.258 20.917C113.087 16.131 117.831 14.111 120.926 14.187C126.15 14.324 127.998 18.247 127.998 20.479V27.038H124.78V20.506C124.78 19.089 124.116 15.439 120.816 15.35C117.584 15.268 116.537 18.25 116.53 20.471C116.53 21.881 116.838 25.394 120.563 25.606C121.668 25.6927 122.775 25.4723 123.763 24.969L123.761 26.102Z" fill="#FF6C0C"/>
</g>
<path id="Vector_7" d="M32.177 10.63C31.8819 11.8682 31.4907 13.0816 31.007 14.259C30.98 14.325 31 14.345 31.06 14.319C31.445 14.14 33.167 13.282 34.994 12.505C36.821 11.728 40.204 11.747 39.34 15.505C38.476 19.263 34.076 21.466 33.64 21.692C33.204 21.918 32.683 22.131 32.477 22.264C32.397 22.317 32.351 22.377 32.497 22.417C32.962 22.537 34.531 22.45 34.517 23.108C34.497 23.819 33.347 24.982 30.343 26.258C28.2389 27.1786 25.8931 27.393 23.657 26.869C23.6478 26.866 23.638 26.8657 23.6287 26.868C23.6193 26.8703 23.6108 26.8751 23.604 26.882C23.425 27.075 21.904 28.537 17.583 27.792C14.473 27.254 13.702 26.948 13.004 26.111C12.871 25.9403 12.7929 25.7333 12.7798 25.5173C12.7668 25.3013 12.8195 25.0865 12.931 24.901C12.997 24.761 13.011 24.688 12.918 24.668C11.1669 24.3431 9.50161 23.6603 8.02647 22.6623C6.55132 21.6643 5.29802 20.3726 4.34499 18.868C4.13632 18.584 4.01561 18.245 3.99784 17.893C3.98006 17.541 4.066 17.1916 4.24499 16.888C4.61699 16.33 5.86699 16.277 7.16299 16.609C8.60499 16.981 9.38899 17.187 9.69499 17.267C9.79499 17.294 9.80799 17.26 9.74799 17.187C9.38899 16.735 8.11999 15.133 7.46199 14.11C6.38299 12.42 5.02899 7.926 8.55099 6.078C12.465 4.038 15.875 7.633 16.639 8.57C17.31 9.381 18.633 11.188 18.746 11.37C18.919 11.656 18.999 11.41 18.999 11.41C19.4562 9.75669 20.0337 8.13904 20.727 6.57C21.3583 5.34257 22.3609 4.34574 23.592 3.72158C24.8231 3.09742 26.2198 2.87779 27.583 3.094C32.383 3.991 32.563 8.856 32.177 10.63ZM27.253 6.769C24.522 5.938 22.827 7.952 22.053 10.524C21.422 12.591 21.289 13.136 20.917 14.212C20.392 15.721 19.136 15.834 18.159 14.671C17.029 13.309 15.554 11.302 14.71 10.318C13.61 9.035 10.955 7.959 9.60999 9.618C7.57599 12.13 10.275 14.948 11.69 16.636C12.674 17.826 13.87 18.65 13.478 19.328C13.332 19.581 13.019 19.66 12.607 19.66C10.9159 19.3982 9.23907 19.0511 7.58299 18.62C6.93199 18.5 6.44699 18.54 6.26699 19.025C6.04799 19.61 6.86699 21.265 8.99799 22.368C10.8763 23.1746 12.8473 23.7456 14.866 24.068C16.102 24.334 15.866 24.939 15.566 25.251C15.266 25.563 14.941 25.756 15.014 26.075C15.187 26.859 16.875 27.019 17.878 27.185C18.9139 27.4109 19.9898 27.3744 21.008 27.079C21.872 26.733 21.925 26.255 22.523 26.022C23.323 25.716 23.6 25.989 25.323 26.308C26.703 26.4524 28.0979 26.3146 29.423 25.903C31.417 25.238 32.241 24.603 32.234 24.288C32.234 24.042 31.888 23.949 31.534 23.903C30.724 23.8155 29.9312 23.6097 29.181 23.292C28.696 22.98 29.061 22.415 30.065 22.009C32.0013 21.2981 33.8375 20.3398 35.528 19.158C36.744 18.068 37.901 16.258 36.87 15.197C35.87 14.154 34.07 15.23 33.102 15.675C31.7709 16.3671 30.4021 16.9841 29.002 17.523C28.377 17.663 27.202 17.616 27.746 16.2C28.431 14.445 28.756 13.362 29.175 12.306C29.705 10.983 30.449 7.746 27.253 6.769Z" fill="url(#paint0_radial)"/>
</g>
</g>
</g>
<defs>
<radialGradient id="paint0_radial" cx="0" cy="0" r="1" gradientUnits="userSpaceOnUse" gradientTransform="translate(12.362 7.78596) scale(22.439 22.415)">
<stop offset="0.665" stop-color="#F9B80A"/>
<stop offset="0.728" stop-color="#F9B40A"/>
<stop offset="0.787" stop-color="#FAA90A"/>
<stop offset="0.843" stop-color="#FB9609"/>
<stop offset="0.899" stop-color="#FC7C09"/>
<stop offset="0.954" stop-color="#FD5A09"/>
<stop offset="1" stop-color="#FF3708"/>
</radialGradient>
</defs>
</svg>
