<svg width="160" height="120" viewBox="0 0 160 120" fill="none" xmlns="http://www.w3.org/2000/svg">
<g id="natura-dark-vertical">
<g id="Group">
<g id="Group_2">
<g id="Group_3">
<path id="Vector" d="M35.528 80.656C42.04 80.656 45.056 84.762 45.056 88.74V97.466H40.981V88.74C40.981 86.27 39.537 82.228 35.56 82.228C31.583 82.228 30.139 86.238 30.139 88.74V97.466H26V88.74C26 84.762 29.015 80.656 35.528 80.656Z" fill="white"/>
<path id="Vector_2" d="M92.244 97.755C85.732 97.755 82.684 93.649 82.684 89.671V80.945H86.79V89.671C86.79 92.171 88.234 96.183 92.211 96.183C96.188 96.183 97.632 92.173 97.632 89.671V80.945H101.738V89.671C101.77 93.649 98.755 97.755 92.238 97.755" fill="white"/>
<path id="Vector_3" d="M61.705 96.279C60.7385 97.038 59.5868 97.5251 58.369 97.69C54.199 98.332 48.392 95.605 48.169 89.574C47.944 83.415 54.04 80.784 58.049 80.88C64.786 81.073 67.16 86.109 67.16 88.996V97.465H63.02V89.028C63.02 87.199 62.154 82.484 57.92 82.388C53.75 82.288 52.402 86.141 52.402 88.996C52.402 90.825 52.787 95.348 57.602 95.636C59.078 95.736 61.163 95.315 61.708 94.802L61.705 96.279Z" fill="white"/>
<path id="Vector_4" d="M80.15 99.904C78.9223 100.29 77.6113 100.324 76.365 100.004C74.44 99.491 71.232 98.625 71.232 91.984V73.631H75.402V80.913H79.219V83.479H75.402C75.402 83.479 75.502 88.644 75.402 92.814C75.302 96.535 76.461 97.786 77.263 98.203C78.1804 98.5724 79.1917 98.6396 80.15 98.395V99.904Z" fill="white"/>
<path id="Vector_5" d="M105.685 88.195C105.685 84.121 107.802 81.234 111.523 80.849C114.154 80.592 115.084 81.074 115.084 81.074V82.742C114.132 82.5177 113.138 82.5398 112.197 82.806C110.497 83.319 109.823 85.886 109.823 86.752V97.563H105.653V88.196L105.685 88.195Z" fill="white"/>
<path id="Vector_6" d="M128.975 96.279C128.009 97.038 126.857 97.5251 125.639 97.69C121.469 98.332 115.662 95.605 115.439 89.574C115.214 83.415 121.31 80.784 125.319 80.88C132.056 81.073 134.43 86.109 134.43 88.996V97.465H130.29V89.028C130.29 87.199 129.424 82.484 125.19 82.388C121.02 82.288 119.672 86.141 119.672 88.996C119.672 90.825 120.057 95.348 124.872 95.636C126.348 95.736 128.433 95.315 128.978 94.802L128.975 96.279Z" fill="white"/>
</g>
<g id="Group_4">
<path id="Vector_7" d="M100.484 34.103C99.9002 36.5535 99.1262 38.9548 98.169 41.285C98.116 41.417 98.156 41.456 98.274 41.403C99.037 41.048 102.444 39.351 106.061 37.812C109.678 36.273 116.374 36.312 114.661 43.744C112.938 51.15 104.243 55.544 103.375 55.99C102.533 56.424 101.481 56.858 101.075 57.121C100.917 57.226 100.825 57.345 101.114 57.421C102.035 57.658 105.139 57.487 105.114 58.789C105.075 60.196 102.799 62.498 96.853 65.024C92.6885 66.8462 88.0459 67.2708 83.62 66.234C83.6018 66.2278 83.5823 66.227 83.5637 66.2316C83.5451 66.2362 83.5282 66.2461 83.515 66.26C83.16 66.641 80.148 69.535 71.598 68.06C65.442 66.995 63.916 66.389 62.535 64.732C62.2719 64.3943 62.1173 63.9848 62.0914 63.5575C62.0655 63.1302 62.1696 62.705 62.39 62.338C62.522 62.062 62.548 61.917 62.364 61.878C53.09 59.964 47.447 54.097 45.396 50.401C44.356 48.52 44.685 47.257 45.196 46.481C45.933 45.381 48.406 45.271 50.971 45.929C53.825 46.666 55.378 47.073 55.983 47.229C56.183 47.282 56.207 47.216 56.088 47.071C55.378 46.177 52.865 43.006 51.563 40.981C49.42 37.641 46.75 28.749 53.721 25.093C61.469 21.055 68.221 28.171 69.729 30.026C71.058 31.626 73.675 35.209 73.899 35.577C74.241 36.143 74.399 35.656 74.399 35.656C75.3034 32.3805 76.4465 29.1756 77.819 26.067C79.0679 23.6388 81.0511 21.6666 83.4861 20.4311C85.9211 19.1956 88.6839 18.7599 91.381 19.186C100.896 20.962 101.247 30.591 100.484 34.103ZM90.737 26.461C85.331 24.817 81.976 28.802 80.437 33.893C79.187 37.984 78.924 39.062 78.188 41.193C77.149 44.179 74.663 44.403 72.729 42.101C70.493 39.401 67.573 35.432 65.902 33.485C63.718 30.946 58.47 28.815 55.802 32.104C51.777 37.076 57.117 42.653 59.919 45.995C61.866 48.35 64.233 49.981 63.457 51.322C63.168 51.822 62.549 51.98 61.734 51.98C59.774 51.954 53.289 50.191 51.803 49.915C50.514 49.678 49.554 49.757 49.203 50.715C48.769 51.873 50.387 55.148 54.609 57.331C58.792 59.475 65.566 60.554 66.224 60.698C68.671 61.224 68.197 62.421 67.618 63.039C67.039 63.657 66.382 64.039 66.526 64.67C66.868 66.222 70.209 66.538 72.195 66.87C74.2469 67.3178 76.3781 67.2456 78.395 66.66C80.105 65.976 80.21 65.029 81.395 64.569C82.973 63.964 83.526 64.503 86.933 65.135C89.6646 65.4214 92.4259 65.1492 95.049 64.335C98.995 63.02 100.626 61.757 100.613 61.135C100.613 60.648 99.929 60.464 99.219 60.372C97.6158 60.1986 96.0468 59.791 94.562 59.162C93.602 58.544 94.325 57.426 96.311 56.623C98.297 55.82 104.716 53.164 107.124 50.98C109.531 48.823 111.824 45.232 109.781 43.14C107.795 41.075 104.243 43.206 102.323 44.087C99.745 45.297 95.623 47.415 94.207 47.744C92.971 48.02 90.642 47.928 91.721 45.126C93.076 41.653 93.721 39.509 94.549 37.418C95.59 34.8 97.064 28.394 90.737 26.461Z" fill="white"/>
</g>
</g>
</g>
</g>
</svg>
