<?xml version="1.0" encoding="UTF-8"?>
<svg id="Camada_1" xmlns="http://www.w3.org/2000/svg" width="24" height="24" version="1.1" viewBox="0 0 24 24">
  <!-- Generator: Adobe Illustrator 29.1.0, SVG Export Plug-In . SVG Version: 2.1.0 Build 142)  -->
  <path d="M15,3.083v-.083c0-1.105-.895-2-2-2h-2c-1.105,0-2,.895-2,2v.083c-2.838.476-5,2.944-5,5.917v12c0,.364.097.706.268,1,.346.598.992,1,1.732,1h12c.74,0,1.387-.402,1.732-1,.17-.294.268-.636.268-1v-12c0-2.973-2.162-5.441-5-5.917ZM11,2h2c.552,0,1,.448,1,1h-4c0-.552.448-1,1-1ZM18,19c0,1.105-.895,2-2,2h-8c-1.105,0-2-.895-2-2v-2c0-2.209,1.791-4,4-4h4c2.209,0,4,1.791,4,4v2Z" fill="#363636"/>
  <path d="M3,12.535c-1.196.692-2,1.984-2,3.465v4c0,1.105.895,2,2,2h.171c-.111-.313-.171-.649-.171-1v-8.465Z" fill="#363636"/>
  <path d="M21,12.535v8.465c0,.351-.06.687-.171,1h.171c1.105,0,2-.895,2-2v-4c0-1.481-.804-2.773-2-3.465Z" fill="#363636"/>
</svg>