<?xml version="1.0" encoding="UTF-8"?>
<svg id="Camada_1" xmlns="http://www.w3.org/2000/svg" width="24" height="24" version="1.1" viewBox="0 0 24 24">
  <!-- Generator: Adobe Illustrator 29.1.0, SVG Export Plug-In . SVG Version: 2.1.0 Build 142)  -->
  <path d="M1.5,4c-.276,0-.5.224-.5.5v5c0,.276.224.5.5.5,1.381,0,2.5,1.119,2.5,2.5s-1.119,2.5-2.5,2.5c-.276,0-.5.224-.5.5v5c0,.276.224.5.5.5h21c.276,0,.5-.224.5-.5v-5c0-.276-.224-.5-.5-.5-1.381,0-2.5-1.119-2.5-2.5s1.119-2.5,2.5-2.5c.276,0,.5-.224.5-.5v-5c0-.276-.224-.5-.5-.5H1.5ZM15.855,10.816c.058.052.101.12.124.196.024.076.027.158.009.236-.018.078-.057.149-.112.206l-1.64,1.677.387,2.368c.01.062.007.125-.009.185-.016.06-.044.116-.082.164s-.087.086-.141.113c-.054.026-.113.04-.173.04-.066,0-.132-.017-.19-.05l-2.028-1.118-2.029,1.114c-.067.038-.144.055-.22.049-.076-.006-.15-.034-.211-.082-.061-.047-.109-.11-.138-.184-.029-.073-.038-.154-.026-.232l.389-2.368-1.64-1.677c-.055-.056-.094-.127-.112-.205-.018-.078-.015-.16.008-.236.024-.076.067-.144.126-.196.059-.052.13-.085.206-.096l2.266-.344,1.015-2.15c.037-.068.091-.125.156-.164.065-.039.138-.06.213-.06s.148.021.213.06.118.096.156.164l1.015,2.15,2.266.344c.075.012.146.046.204.098Z" fill="#363636" fill-rule="evenodd"/>
</svg>