<?xml version="1.0" encoding="UTF-8"?>
<svg xmlns="http://www.w3.org/2000/svg" width="24" height="24" version="1.1" viewBox="0 0 24 24">
  <defs>
    <style>
      .cls-1 {
        fill: #363636;
      }
    </style>
  </defs>
  <!-- Generator: Adobe Illustrator 28.7.1, SVG Export Plug-In . SVG Version: 1.2.0 Build 142)  -->
  <g>
    <g id="Camada_1">
      <g>
        <path class="cls-1" d="M16.5,4h.5v.5c0,.276.224.5.5.5s.5-.224.5-.5v-.5h.5c.276,0,.5-.224.5-.5s-.224-.5-.5-.5h-.5v-.5c0-.276-.224-.5-.5-.5s-.5.224-.5.5v.5h-.5c-.276,0-.5.224-.5.5s.224.5.5.5Z"/>
        <path class="cls-1" d="M21.324,10.879c-.372.139-.81.193-1.284.193-2.811,0-5.112-2.302-5.112-5.112,0-.473.053-.912.193-1.284.065-.174.028-.371-.096-.509s-.316-.197-.496-.151c-2.634.674-4.529,3.061-4.529,5.872,0,3.363,2.749,6.112,6.112,6.112,2.811,0,5.198-1.895,5.872-4.529.046-.18-.012-.372-.15-.496-.139-.124-.335-.161-.51-.096Z"/>
        <path class="cls-1" d="M9,9.888c0-.3.019-.596.055-.887h-.055c-2.761,0-5,2.238-5,5s2.239,5,5,5c1.873,0,3.506-1.03,4.362-2.555-2.558-1.079-4.362-3.616-4.362-6.557Z"/>
        <path class="cls-1" d="M2.5,13.993h-1c-.276,0-.5.224-.5.5s.224.5.5.5h1c.276,0,.5-.224.5-.5s-.224-.5-.5-.5Z"/>
        <path class="cls-1" d="M4,18.321l-.707.707c-.195.195-.195.512,0,.707.195.195.512.195.707,0l.707-.707c.195-.195.195-.512,0-.707-.195-.195-.512-.195-.707,0Z"/>
        <path class="cls-1" d="M3.647,9.85c.195.195.512.195.707,0,.195-.195.195-.512,0-.707l-.707-.707c-.195-.195-.512-.195-.707,0s-.195.512,0,.707l.707.707Z"/>
        <path class="cls-1" d="M8.5,20c-.276,0-.5.224-.5.5v1c0,.276.224.5.5.5s.5-.224.5-.5v-1c0-.276-.224-.5-.5-.5Z"/>
        <path class="cls-1" d="M13.849,18.785c-.195-.195-.512-.195-.707,0s-.195.512,0,.707l.707.707c.195.195.512.195.707,0,.195-.195.195-.512,0-.707l-.707-.707Z"/>
        <path class="cls-1" d="M8.5,8c.276,0,.5-.224.5-.5v-1c0-.276-.224-.5-.5-.5s-.5.224-.5.5v1c0,.276.224.5.5.5Z"/>
        <path class="cls-1" d="M22.5,7h-.5v-.5c0-.276-.224-.5-.5-.5s-.5.224-.5.5v.5h-.5c-.276,0-.5.224-.5.5s.224.5.5.5h.5v.5c0,.276.224.5.5.5s.5-.224.5-.5v-.5h.5c.276,0,.5-.224.5-.5s-.224-.5-.5-.5Z"/>
      </g>
    </g>
  </g>
</svg>