<?xml version="1.0" encoding="UTF-8"?>
<svg xmlns="http://www.w3.org/2000/svg" width="24" height="24" version="1.1" viewBox="0 0 24 24">

        <rect class="cls-1" x="11" y="9" width="2" height="9"/>
        <rect class="cls-1" x="16" y="6" width="2" height="12"/>
        <path class="cls-2" d="M19.5,2H4.5c-1.381,0-2.5,1.119-2.5,2.5v15c0,1.381,1.119,2.5,2.5,2.5h15c1.381,0,2.5-1.119,2.5-2.5V4.5c0-1.381-1.119-2.5-2.5-2.5ZM9,18.5c0,.276-.224.5-.5.5h-3c-.276,0-.5-.224-.5-.5v-6c0-.276.224-.5.5-.5h3c.276,0,.5.224.5.5v6ZM14,18.5c0,.276-.224.5-.5.5h-3c-.276,0-.5-.224-.5-.5v-10c0-.276.224-.5.5-.5h3c.276,0,.5.224.5.5v10ZM19,18.5c0,.276-.224.5-.5.5h-3c-.276,0-.5-.224-.5-.5V5.5c0-.276.224-.5.5-.5h3c.276,0,.5.224.5.5v13Z"/>

</svg>