<?xml version="1.0" encoding="UTF-8"?>
<svg id="Camada_1" xmlns="http://www.w3.org/2000/svg" width="24" height="24" version="1.1" viewBox="0 0 24 24">
  <!-- Generator: Adobe Illustrator 29.1.0, SVG Export Plug-In . SVG Version: 2.1.0 Build 142)  -->
  <path d="M21,4c0-1.657-1.343-3-3-3h-6.922c-.796,0-1.559.316-2.121.879L3.879,6.957c-.563.563-.879,1.326-.879,2.121v2.922h18V4ZM11,9h-6l6-6v6Z" fill="#363636"/>
  <path d="M4.5,14h-2.5c-.552,0-1,.448-1,1v7c0,.552.448,1,1,1s1-.448,1-1v-1h1.5c1.933,0,3.5-1.567,3.5-3.5s-1.567-3.5-3.5-3.5ZM4.5,19h-1.5v-3h1.5c.828,0,1.5.672,1.5,1.5s-.672,1.5-1.5,1.5Z" fill="#363636"/>
  <path d="M11.5,14h-1.5c-.552,0-1,.448-1,1v7c0,.552.448,1,1,1h1.5c2.485,0,4.5-2.015,4.5-4.5s-2.015-4.5-4.5-4.5ZM11.5,21h-.5v-5h.5c1.381,0,2.5,1.119,2.5,2.5s-1.119,2.5-2.5,2.5Z" fill="#363636"/>
  <path d="M22,14h-4c-.552,0-1,.448-1,1v7c0,.552.448,1,1,1s1-.448,1-1v-2.5h2c.552,0,1-.448,1-1s-.448-1-1-1h-2v-1.5h3c.552,0,1-.448,1-1s-.448-1-1-1Z" fill="#363636"/>
</svg>