<?xml version="1.0" encoding="UTF-8"?>
<svg id="Camada_1" data-name="Camada 1" xmlns="http://www.w3.org/2000/svg" width="24" height="24" version="1.1" viewBox="0 0 24 24">
  <path d="M16.238,22" fill="#e30613" fill-rule="evenodd" stroke-width="0"/>
  <g>
    <path d="M9.238,16c0-3.86,3.141-7,7-7,1.924,0,3.668.781,4.935,2.041V3.594c0-.234-.163-.438-.392-.488L11.781,1.105c-.071-.016-.146-.016-.217,0L2.564,3.105c-.229.051-.392.254-.392.488v10c0,.045.006.09.018.134,1.28,4.604,7.711,9.366,9.482,9.366.355,0,.991-.258,1.759-.686-2.466-1.084-4.194-3.547-4.194-6.408Z" fill="#363636" fill-rule="evenodd" stroke-width="0"/>
    <path d="M16.238,10c-3.314,0-6,2.686-6,6s2.686,6,6,6,6-2.686,6-6-2.686-6-6-6ZM19.5,16.678h-2.762v2.763c0,.276-.224.5-.5.5s-.5-.224-.5-.5v-2.763h-2.763c-.276,0-.5-.224-.5-.5s.224-.5.5-.5h2.763v-2.763c0-.276.224-.5.5-.5s.5.224.5.5v2.763h2.762c.276,0,.5.224.5.5s-.224.5-.5.5Z" fill="#363636" fill-rule="evenodd" stroke-width="0"/>
  </g>
</svg>