<?xml version="1.0" encoding="UTF-8"?>
<svg xmlns="http://www.w3.org/2000/svg" width="24" height="24" version="1.1" viewBox="0 0 24 24">
 
        <path class="cls-1" d="M13.103,4.205l-.243,1.48c-.008.049-.002.099.016.145.018.046.048.086.086.115.038.03.084.048.132.051.048.004.096-.007.138-.031l1.268-.696,1.268.699c.037.021.077.031.119.031.037,0,.074-.009.108-.025.034-.016.064-.04.088-.07.024-.03.042-.065.051-.103.01-.038.012-.077.005-.116l-.242-1.48,1.025-1.048c.034-.035.059-.08.07-.128s.01-.1-.005-.148c-.015-.048-.042-.09-.078-.122s-.08-.054-.127-.061l-1.416-.215-.634-1.344c-.023-.043-.057-.078-.097-.102-.04-.025-.086-.038-.133-.038s-.093.013-.133.038c-.041.025-.074.06-.097.102l-.634,1.344-1.416.215c-.047.007-.092.028-.128.06-.037.032-.064.075-.079.122-.015.048-.017.099-.005.148.012.049.036.093.07.128l1.025,1.048Z"/>
        <path class="cls-1" d="M20.453,9.288c-.062-.131-.18-.235-.331-.273l-6.648-1.662c-.042.339-.132.663-.263.965l4.942,1.236-6.153,1.923-6.153-1.923,1.481-.37c-.226-.266-.412-.567-.551-.893l-2.899.725c-.086.022-.162.065-.222.122-.042.039-.077.086-.104.14l-1.5,3c-.063.127-.07.274-.018.406s.157.236.29.285l8,3c.219.082.461,0,.588-.185.018-.027.034-.055.047-.086l1.04-2.428,1.04,2.428c.105.246.385.365.635.271l8-3c.133-.05.238-.154.29-.285.007-.016.012-.033.017-.05.033-.118.021-.245-.035-.356l-1.494-2.989Z"/>
        <path class="cls-1" d="M8.882,7.564l-.194,1.184c-.006.039-.002.079.013.116s.038.069.069.092c.031.024.067.038.106.041.038.003.076-.006.11-.025l1.015-.557,1.014.559c.029.016.062.025.095.025.03,0,.059-.007.086-.02s.051-.032.07-.056c.019-.024.033-.052.041-.082.008-.03.009-.062.004-.093l-.194-1.184.82-.839c.027-.028.047-.064.056-.103s.008-.08-.004-.118c-.012-.038-.033-.072-.062-.098-.029-.026-.064-.043-.102-.049l-1.133-.172-.507-1.075c-.019-.034-.046-.062-.078-.082-.032-.02-.069-.03-.107-.03s-.074.01-.107.03-.059.048-.078.082l-.507,1.075-1.133.172c-.038.006-.073.022-.103.048-.029.026-.051.06-.063.098-.012.038-.013.079-.004.118.009.039.029.075.056.103l.82.839Z"/>
        <circle class="cls-1" cx="2" cy="7" r="1"/>
        <circle class="cls-1" cx="22" cy="2" r="1"/>
        <path class="cls-1" d="M21.5,5.5c-.552,0-1-.448-1-1,0-.276-.224-.5-.5-.5s-.5.224-.5.5c0,.552-.448,1-1,1-.276,0-.5.224-.5.5s.224.5.5.5c.552,0,1,.448,1,1,0,.276.224.5.5.5s.5-.224.5-.5c0-.552.448-1,1-1,.276,0,.5-.224.5-.5s-.224-.5-.5-.5Z"/>
        <path class="cls-1" d="M3.5,3.5c.552,0,1,.448,1,1,0,.276.224.5.5.5s.5-.224.5-.5c0-.552.448-1,1-1,.276,0,.5-.224.5-.5s-.224-.5-.5-.5c-.552,0-1-.448-1-1,0-.276-.224-.5-.5-.5s-.5.224-.5.5c0,.552-.448,1-1,1-.276,0-.5.224-.5.5s.224.5.5.5Z"/>
        <path class="cls-1" d="M12.5,16.618v4.882c0,.276-.224.5-.5.5s-.5-.224-.5-.5v-4.882c-.404.361-.988.488-1.527.286l-5.973-2.24v4.836c0,.204.124.388.314.464l7.5,3c.122.049.257.047.377-.002l7.495-2.998c.19-.076.314-.26.314-.464v-4.836l-5.973,2.24c-.539.202-1.123.075-1.527-.286Z"/>

</svg>