<?xml version="1.0" encoding="UTF-8"?>
<svg xmlns="http://www.w3.org/2000/svg" width="24" height="24" version="1.1" viewBox="0 0 24 24">
  <defs>
    <style>
      .cls-1, .cls-2 {
        fill: #363636;
      }

      .cls-2 {
        fill-rule: evenodd;
      }
    </style>
  </defs>
  <!-- Generator: Adobe Illustrator 28.6.0, SVG Export Plug-In . SVG Version: 1.2.0 Build 709)  -->
  <g>
    <g id="Camada_1">
      <g>
        <path class="cls-1" d="M14.146,2.146c.094-.094.221-.146.354-.146,1.95,0,3.957.75,5.354,2.146,1.278,1.278,2.014,3.066,2.13,4.854h-7.984V2.5c0-.133.053-.26.146-.354Z"/>
        <path class="cls-1" d="M4,10h18v1.5c0,2.485-2.015,4.5-4.5,4.5h-9c-2.485,0-4.5-2.015-4.5-4.5v-1.5Z"/>
        <path class="cls-1" d="M5,9h-1v-2.5c0-.828-.672-1.5-1.5-1.5-.276,0-.5-.224-.5-.5s.224-.5.5-.5c1.381,0,2.5,1.119,2.5,2.5v2.5Z"/>
        <path class="cls-2" d="M11,19.5c0,1.381-1.119,2.5-2.5,2.5s-2.5-1.119-2.5-2.5,1.119-2.5,2.5-2.5,2.5,1.119,2.5,2.5ZM8.5,20.5c.552,0,1-.448,1-1s-.448-1-1-1-1,.448-1,1,.448,1,1,1Z"/>
        <path class="cls-2" d="M20,19.5c0,1.381-1.119,2.5-2.5,2.5s-2.5-1.119-2.5-2.5,1.119-2.5,2.5-2.5,2.5,1.119,2.5,2.5ZM17.5,20.5c.552,0,1-.448,1-1s-.448-1-1-1-1,.448-1,1,.448,1,1,1Z"/>
      </g>
    </g>
  </g>
</svg>