<?xml version="1.0" encoding="UTF-8"?>
<svg xmlns="http://www.w3.org/2000/svg" width="24" height="24" version="1.1" viewBox="0 0 24 24">

        <path class="cls-1" d="M21.409,10.196l-7.679-7.613c-.778-.771-2.031-.773-2.811-.005l-1.125,1.108c-.691.681-.783,1.74-.271,2.521.073.112.159.217.256.316l1.993,2.002-3.238,3.238-1.998-1.98c-.778-.771-2.031-.773-2.811-.005l-1.125,1.108c-.79.778-.797,2.05-.014,2.836l7.657,7.692c.691.694,1.763.774,2.542.244.111-.076.216-.164.314-.265l1.147-1.187c.761-.787.747-2.04-.03-2.81l-1.96-1.943,3.213-3.213,1.967,1.976c.691.695,1.763.774,2.542.243.111-.076.216-.164.314-.265l1.147-1.187c.761-.787.747-2.039-.03-2.81Z"/>
        <path class="cls-1" d="M20.939,8.768c.976-.976.976-2.559,0-3.536l-2.172-2.172c-.976-.976-2.559-.976-3.536,0l-.154.155,5.732,5.682.13-.13Z"/>
        <path class="cls-1" d="M3.061,15.232c-.976.976-.976,2.559,0,3.536l2.172,2.172c.976.976,2.559.976,3.536,0l.15-.15-5.694-5.72-.163.163Z"/>

</svg>