<?xml version="1.0" encoding="UTF-8"?>
<svg id="Camada_1" xmlns="http://www.w3.org/2000/svg" width="24" height="24" version="1.1" viewBox="0 0 24 24">
  <!-- Generator: Adobe Illustrator 29.1.0, SVG Export Plug-In . SVG Version: 2.1.0 Build 142)  -->
  <circle cx="16" cy="8" r="1.5" fill="#363636"/>
  <path d="M22.707,1.293c-.209-.209-.499-.315-.793-.289-5.784.497-10.014,2.56-12.824,5.496h-2.127c-.759,0-1.477.345-1.951.937l-3.898,4.746c-.11.134-.143.316-.086.48.057.164.195.287.364.325l4.127.917c.036.054.078.106.125.153l4.299,4.299c.077.077.164.139.256.185l.811,4.055c.034.172.157.314.322.373.165.059.35.027.485-.084l4.746-3.898c.592-.475.937-1.192.937-1.951v-2.128c2.936-2.81,4.999-7.039,5.496-12.823.025-.294-.081-.584-.289-.793ZM10.936,16.521l-3.457-3.457c1.537-4.828,5.702-8.921,13.393-9.936-1.016,7.691-5.109,11.855-9.936,13.393Z" fill="#363636"/>
  <path d="M4.075,15.938c-.425.21-.822.499-1.181.858-1.374,1.373-1.735,4.622-1.772,4.987l-.122,1.217,1.217-.122c.366-.037,3.614-.399,4.988-1.772.359-.36.648-.757.858-1.181l.282-.571-3.699-3.699-.571.283Z" fill="#363636"/>
</svg>