<?xml version="1.0" encoding="utf-8"?>
<!-- Generator: Adobe Illustrator 28.4.1, SVG Export Plug-In . SVG Version: 6.00 Build 0)  -->
<svg version="1.0" id="Camada_1" xmlns="http://www.w3.org/2000/svg" xmlns:xlink="http://www.w3.org/1999/xlink" x="0px" y="0px"
	 width="24px" height="24px" viewBox="0 0 24 24" enable-background="new 0 0 24 24" xml:space="preserve">
<path    d="M14.5,4.3c-0.1-0.1-0.3-0.1-0.5-0.1h-3v3c0,0,0,0,0,0c2.3,0.3,4,2.3,4,4.6v0.3c0,0.3-0.2,0.5-0.5,0.5
	c0,0,0,0,0,0c0,0,0,0,0,0c0,0-0.1,0-0.1,0c-0.9-0.2-3.5-0.7-7.9-2c0,0-0.1,0-0.1,0c-0.3-0.1-0.4-0.4-0.3-0.6c0.7-1.6,2.2-2.7,4-2.8
	v0v-3H8.5C8.2,4.3,8,4,8,3.8s0.2-0.5,0.5-0.5l5.5,0c0.2,0,0.6,0,0.9,0.2c0.4,0.2,0.7,0.5,1,1.1c0.1,0.2,0,0.5-0.2,0.7
	c-0.2,0.1-0.5,0-0.7-0.2C14.8,4.5,14.6,4.4,14.5,4.3z"/>
<path    d="M18.1,5.9l0.4-0.4l0.4,0.4l0,0l0,0l0,0l0,0c0,0,0,0,0.1,0.1c0,0,0.1,0.1,0.2,0.2c0.2,0.2,0.4,0.4,0.6,0.7
	c0.4,0.6,0.8,1.4,0.8,2.3c0,0.5-0.2,1-0.6,1.4c-0.4,0.4-0.9,0.6-1.4,0.6s-1-0.2-1.4-0.6c-0.4-0.4-0.6-0.9-0.6-1.4
	c0-0.9,0.4-1.8,0.8-2.3c0.2-0.3,0.4-0.6,0.6-0.7C18,6.1,18,6,18.1,5.9C18.1,6,18.1,5.9,18.1,5.9L18.1,5.9L18.1,5.9L18.1,5.9
	L18.1,5.9z"/>
<path    d="M6.6,13.2l-1.3,6.2H3c-0.1,0-0.3-0.1-0.4-0.1c-0.1-0.1-0.1-0.2-0.1-0.4v-6.2c0-0.1,0-0.2,0.1-0.2
	c0-0.1,0.1-0.1,0.1-0.2s0.1-0.1,0.2-0.1c0.1,0,0.2,0,0.2,0L6.6,13.2z"/>
<path    d="M21.1,16.6c0.2,0.2,0.3,0.4,0.3,0.7c0,0.1,0,0.2,0,0.3c-0.1,0.1-0.1,0.2-0.2,0.2l-6.3,2.6
	c-0.6,0.2-1.2,0.4-1.9,0.4c-0.6,0-1.2-0.1-1.7-0.3l-4.8-1.8l1-5.1c1.2-0.3,2.5-0.2,3.7,0.3c0.7,0.3,1.5,0.6,2.2,0.9c0,0,0.1,0,0.1,0
	l1.4,0.4c0.7,0.2,0.9,1,0.4,1.5C15,16.9,14.6,17,14.2,17c-0.4-0.1-1-0.1-1.5-0.2c-0.5-0.1-1.1-0.2-1.6-0.4c-0.2-0.1-0.5-0.1-0.6-0.2
	c-0.1,0-0.1,0-0.2,0l0,0l0,0c-0.3-0.1-0.5,0.1-0.6,0.3C9.6,16.8,9.7,17,10,17.1l0,0l0,0c0,0,0.1,0,0.2,0.1c0.2,0,0.4,0.1,0.6,0.2
	c0.5,0.1,1.1,0.3,1.6,0.4c0.5,0.1,1.1,0.2,1.6,0.2c0.7,0.1,1.4-0.2,1.9-0.7c0.3-0.3,0.5-0.7,0.6-1.2c1.2-0.3,2.9-0.6,4,0
	C20.8,16.2,21,16.4,21.1,16.6z"/>
</svg>
