<?xml version="1.0" encoding="UTF-8"?>
<svg xmlns="http://www.w3.org/2000/svg" width="24" height="24" version="1.1" viewBox="0 0 24 24">
  <defs>
    <style>
      .cls-1 {
        fill: #363636;
        fill-rule: evenodd;
      }
    </style>
  </defs>
  <!-- Generator: Adobe Illustrator 28.6.0, SVG Export Plug-In . SVG Version: 1.2.0 Build 709)  -->
  <g>
    <g id="Camada_1">
      <path class="cls-1" d="M21.816,16.73c-.055-.225-.119-.452-.187-.694-.323-1.15-.736-2.621-.736-5.745,0-2.368-.613-4.793-2.372-6.568-1.727-1.743-4.07-2.723-6.516-2.723s-4.789.98-6.517,2.723h0c-1.76,1.774-2.372,4.199-2.372,6.567,0,3.124-.414,4.595-.737,5.745-.068.241-.132.468-.187.694-.168.685-.255,1.35-.127,2.273.125.904.454,2.04,1.084,3.677.078.202.274.325.479.32.041.002.082,0,.124-.008l3.708-.695c1.182-.221,2.039-1.254,2.039-2.457v-1.06c.773.365,1.61.582,2.467.639.022.002.045.002.068,0,.857-.06,1.693-.279,2.465-.643v1.062c0,1.205.859,2.238,2.044,2.458l3.733.692c.241.057.492-.07.583-.307.63-1.637.959-2.773,1.084-3.677.128-.923.041-1.588-.127-2.273ZM15.56,13.577c.083.709.387,1.374.869,1.9l.15.163c-.462.743-1.085,1.376-1.823,1.852-.828.533-1.775.851-2.757.926-.954-.069-1.877-.371-2.688-.879-.729-.457-1.348-1.068-1.813-1.789.377-.545.453-1.195.499-1.705.054-.603-.001-1.135-.196-1.727l-.614-1.839c1.491-.091,2.767-.505,4.036-1.482h0c1.218-.937,2.006-2.145,2.499-3.524l2.391,2.569c.317.371.513.83.563,1.316.05.489-.052.981-.29,1.411l-.421.758c-.347.624-.488,1.341-.405,2.05Z"/>
    </g>
  </g>
</svg>