<svg width="24" height="24" viewBox="0 0 24 24" fill="none" xmlns="http://www.w3.org/2000/svg">
<g id="Name=notification, Size=Standard">
<g id="Icons">
<g id="Group 4">
<path id="Vector" d="M12 21.6001C13 21.6001 13.9 21.0001 14.3 20.1001H9.69995C10.1 21.0001 11 21.6001 12 21.6001Z" fill="#333333"/>
<path id="Vector_2" d="M17.6 14.8C17.2 14.5 17 14.1 17 13.6V9.6C17 7.6 15.8 5.8 14 5C14 3.9 13.1 3 12 3C10.9 3 10 3.9 10 5C8.2 5.8 7 7.6 7 9.6V13.6C7 14.1 6.8 14.5 6.4 14.8L5 15.8V17.6C5 18.4 5.7 19.1 6.5 19.1H17.5C18.3 19.1 19 18.4 19 17.6V15.8L17.6 14.8Z" fill="#333333"/>
</g>
</g>
</g>
</svg>
