<?xml version="1.0" encoding="utf-8"?>
<!-- Generator: Adobe Illustrator 28.4.1, SVG Export Plug-In . SVG Version: 6.00 Build 0)  -->
<svg version="1.0" id="Camada_1" xmlns="http://www.w3.org/2000/svg" xmlns:xlink="http://www.w3.org/1999/xlink" x="0px" y="0px"
	 width="24px" height="24px" viewBox="0 0 24 24" enable-background="new 0 0 24 24" xml:space="preserve">
<path fill-rule="evenodd" clip-rule="evenodd"    d="M12.2,1.5c-0.1,0-0.2,0-0.4,0l-8,3C3.6,4.6,3.5,4.8,3.5,5v7
	c0,3.2,2.1,5.9,4.2,7.6c1,0.9,2,1.6,2.8,2.1c0.4,0.2,0.7,0.4,0.9,0.5c0.1,0.1,0.2,0.1,0.3,0.1c0,0,0.1,0,0.1,0l0,0l0,0l0,0
	c0.1,0.1,0.3,0.1,0.4,0l0,0l0,0l0,0c0,0,0,0,0.1,0c0.1,0,0.2-0.1,0.3-0.1c0.2-0.1,0.5-0.3,0.9-0.5c0.5-0.3,1-0.7,1.7-1.1
	c-2.4-0.9-4.2-3.3-4.2-6.1c0-3.6,2.9-6.5,6.5-6.5c1.1,0,2.1,0.3,3,0.7V5c0-0.2-0.1-0.4-0.3-0.5L12.2,1.5z M20.5,9.9
	c-0.9-0.6-1.9-0.9-3-0.9c-3,0-5.5,2.5-5.5,5.5c0,2.6,1.7,4.7,4.1,5.3c0.4,0.1,0.9,0.2,1.4,0.2c3,0,5.5-2.5,5.5-5.5
	C23,12.6,22,10.9,20.5,9.9z M17.5,11c0.3,0,0.5,0.2,0.5,0.5l0,2.5l2.5,0c0.3,0,0.5,0.2,0.5,0.5c0,0.3-0.2,0.5-0.5,0.5L18,15l0,2.5
	c0,0.3-0.2,0.5-0.5,0.5c-0.3,0-0.5-0.2-0.5-0.5l0-2.5l-2.5,0c-0.3,0-0.5-0.2-0.5-0.5c0-0.3,0.2-0.5,0.5-0.5l2.5,0l0-2.5
	C17,11.2,17.2,11,17.5,11z"/>
</svg>
