<?xml version="1.0" encoding="UTF-8"?>
<svg xmlns="http://www.w3.org/2000/svg" width="24" height="24" version="1.1" viewBox="0 0 24 24">
  <defs>
    <style>
      .cls-1 {
        fill: #363636;
        fill-rule: evenodd;
      }
    </style>
  </defs>
  <!-- Generator: Adobe Illustrator 28.7.1, SVG Export Plug-In . SVG Version: 1.2.0 Build 142)  -->
  <g>
    <g id="Camada_1">
      <g>
        <path class="cls-1" d="M3.5,6.5c0,.276.224.5.5.5s.5-.224.5-.5c0-1.104.896-2,2-2,.276,0,.5-.224.5-.5s-.224-.5-.5-.5c-1.104,0-2-.896-2-2,0-.276-.224-.5-.5-.5s-.5.224-.5.5c0,1.104-.896,2-2,2-.276,0-.5.224-.5.5s.224.5.5.5c1.104,0,2,.896,2,2Z"/>
        <path class="cls-1" d="M18.5,3.5c.552,0,1,.448,1,1,0,.276.224.5.5.5s.5-.224.5-.5c0-.552.448-1,1-1,.276,0,.5-.224.5-.5s-.224-.5-.5-.5c-.552,0-1-.448-1-1,0-.276-.224-.5-.5-.5s-.5.224-.5.5c0,.552-.448,1-1,1-.276,0-.5.224-.5.5s.224.5.5.5Z"/>
        <path class="cls-1" d="M8.32,10H2.68c-.927,0-1.632.832-1.48,1.747l.042.253h4.257c.276,0,.5.224.5.5v5c0,.276-.224.5-.5.5h-3.257l.264,1.582c.04.241.249.418.493.418v.005h5v-.005c.244,0,.453-.177.493-.418l1.306-7.836c.152-.914-.553-1.747-1.48-1.747Z"/>
        <polygon class="cls-1" points="5 13 1.41 13 2.076 17 5 17 5 13"/>
        <path class="cls-1" d="M3,22.5c0,.276.224.5.5.5h4c.276,0,.5-.224.5-.5v-1.995H3v1.995Z"/>
        <path class="cls-1" d="M22.894,20.193l-.002-.002-.007-.009-.028-.036c-.025-.033-.062-.081-.109-.145-.095-.128-.232-.316-.4-.556-.336-.479-.792-1.162-1.274-1.972-.969-1.631-2.018-3.742-2.416-5.746-.124-.623-.215-1.408-.296-2.113-.023-.199-.045-.393-.067-.574-.524-4.295-3.891-8.039-8.396-8.039-1.703,0-3.277.534-4.565,1.444.275.339.695.556,1.165.556.552,0,1,.448,1,1s-.448,1-1,1c-.828,0-1.5.672-1.5,1.5,0,.552-.448,1-1,1s-1-.448-1-1c0-.332-.108-.639-.29-.887-.456,1.001-.71,2.114-.71,3.287v.718c.211-.076.44-.118.68-.118h2.32v-.58l.01-.002c.264-.049.632-.12,1.047-.209.821-.178,1.856-.435,2.629-.744.457-.183.961-.439,1.44-.707.332-.185.651-.376.936-.552.267-.165.507-.318.702-.446.03.071.062.146.096.223.188.426.462.985.756,1.337.304.364.743.65,1.072.835.114.064.221.12.312.165v2.648l-.002.011c-.004.027-.01.069-.021.124-.02.11-.054.271-.108.466-.109.391-.296.908-.609,1.42-.509.833-1.352,1.664-2.786,1.926-.247.045-.511.073-.794.082,0,0-.061.305-.083.503-.021.194-.028.5-.028.5.058.252.164.586.358.974.417.834,1.228,1.898,2.795,2.942.012.008.025.016.038.023,2.854,1.557,5.34,1.695,7.125,1.431.889-.132,1.6-.363,2.092-.563.246-.1.438-.193.571-.262.066-.034.118-.063.154-.084.018-.01.033-.019.043-.025l.013-.008.004-.003h.002s.001-.002.001-.002c.12-.075.203-.197.227-.337.025-.139-.011-.283-.098-.395ZM17.5,17.5c-.552,0-1,.448-1,1,0,.276-.224.5-.5.5s-.5-.224-.5-.5c0-.552-.448-1-1-1-.276,0-.5-.224-.5-.5s.224-.5.5-.5c.552,0,1-.448,1-1,0-.276.224-.5.5-.5s.5.224.5.5c0,.552.448,1,1,1,.276,0,.5.224.5.5s-.224.5-.5.5Z"/>
      </g>
    </g>
  </g>
</svg>