<?xml version="1.0" encoding="utf-8"?>
<!-- Generator: Adobe Illustrator 26.0.1, SVG Export Plug-In . SVG Version: 6.00 Build 0)  -->
<svg version="1.1" id="Camada_1" xmlns="http://www.w3.org/2000/svg" xmlns:xlink="http://www.w3.org/1999/xlink" x="0px" y="0px"
	 viewBox="0 0 24 24" style="enable-background:new 0 0 24 24;" xml:space="preserve">
<g id="Info">
</g>
<g id="Keyline">
</g>
<path d="M12,2.2c-5.2,0-9.5,4.3-9.5,9.5c0,2.8,1.2,5.4,3.2,7.1L5.3,21c-0.1,0.5,0.4,1,0.9,0.8l2.8-1C10,21,11,21.2,12,21.2
	c5.2,0,9.5-4.3,9.5-9.5C21.5,6.5,17.2,2.2,12,2.2z M17.9,9.5c-0.7,1.1-2.1,3.3-2.7,4.3c-0.1,0.2-0.3,0.4-0.5,0.5
	c-0.3,0.2-0.6,0.3-0.9,0.3c-0.4,0-0.7-0.1-1-0.3c-0.6-0.4-1.8-1.2-2.4-1.6c-0.1-0.1-0.3-0.1-0.5,0c-0.8,0.6-2.4,1.8-3.3,2.4
	c-0.1,0.1-0.2,0.1-0.3,0.1C6.2,15.2,6,15,6,14.7c0-0.1,0-0.2,0.1-0.3c0.7-1.1,2.1-3.3,2.7-4.3c0.1-0.2,0.3-0.4,0.5-0.5
	c0.3-0.2,0.6-0.3,0.9-0.3c0.4,0,0.7,0.1,1,0.3c0.6,0.4,1.8,1.2,2.4,1.6c0.1,0.1,0.3,0.1,0.5,0c0.8-0.6,2.4-1.8,3.3-2.4
	c0.1-0.1,0.2-0.1,0.3-0.1C17.8,8.8,18,9,18,9.3C18,9.4,18,9.5,17.9,9.5z"/>
</svg>
