<?xml version="1.0" encoding="UTF-8"?>
<svg xmlns="http://www.w3.org/2000/svg" width="24" height="24" version="1.1" viewBox="0 0 24 24">
  <defs>
    <style>
      .cls-1 {
        fill: #363636;
      }
    </style>
  </defs>
  <!-- Generator: Adobe Illustrator 28.6.0, SVG Export Plug-In . SVG Version: 1.2.0 Build 709)  -->
  <g>
    <g id="Camada_1">
      <g>
        <path class="cls-1" d="M14,3.5c0-.276-.224-.5-.5-.5H1.5c-.276,0-.5.224-.5.5v5c0,1.023.438,1.94,1.042,2.72.604.78,1.397,1.453,2.169,2,.775.549,1.547.983,2.123,1.279.27.139.499.248.666.325v5.175h-3.5c-.276,0-.5.224-.5.5s.224.5.5.5h8c.276,0,.5-.224.5-.5s-.224-.5-.5-.5h-3.5v-5.175c.167-.077.396-.187.666-.325.576-.296,1.348-.73,2.123-1.279.772-.547,1.565-1.22,2.169-2,.604-.78,1.042-1.698,1.042-2.72V3.5ZM13,8H2v-4h11v4Z"/>
        <path class="cls-1" d="M22.792,8.094c-.13-.094-.298-.12-.451-.069l-6,2c-.204.068-.342.259-.342.474v2.489c0,.007,0,.015,0,.022v2.157c-.227-.108-.482-.168-.75-.168-.966,0-1.75.784-1.75,1.75s.784,1.75,1.75,1.75c.953,0,1.727-.761,1.75-1.708,0-.007,0-.015,0-.022v-3.409l5-1.667v1.975c-.227-.108-.482-.168-.75-.168-.966,0-1.75.784-1.75,1.75s.784,1.75,1.75,1.75c.909,0,1.656-.693,1.742-1.579.005-.029.008-.06.008-.091v-4.318c0-.008,0-.016,0-.024v-2.488c0-.161-.077-.312-.208-.406Z"/>
      </g>
    </g>
  </g>
</svg>