<?xml version="1.0" encoding="UTF-8"?>
<svg id="Camada_1" data-name="Camada 1" xmlns="http://www.w3.org/2000/svg" width="24" height="24" version="1.1" viewBox="0 0 24 24">
  <g display="none">
    <path d="M5.996,20.275c-.137-.007-.264-.073-.35-.18-.106-.105-.161-.251-.15-.4l.89-11.57h2.073v1.73c.006.274.226.495.5.5.276,0,.5-.224.5-.5v-1.73h5.04v1.73c0,.276.224.5.5.5.29.017.535-.21.54-.5v-1.73h2.037l.355,4.627c.023,0,.046,0,.068,0,.333,0,.659.031.974.09l-.408-5.286c-.021-.26-.239-.461-.5-.46h-2.527v-.82c0-1.265-.675-2.433-1.77-3.066-2.36-1.362-5.31.341-5.31,3.066v.82h-2.533c-.261-.001-.479.2-.5.46l-.93,12.07v.11c-.023.844.656,1.54,1.5,1.54h7.897c-.245-.307-.456-.642-.629-1h-7.268ZM9.459,6.275c0-1.14.382-1.93,1.433-2.372,1.752-.737,3.852.432,3.607,2.372v.82h-5.04v-.82Z" fill="#363636" fill-rule="evenodd" stroke-width="0"/>
    <path d="M21.181,14.82c-.844-.844-1.988-1.318-3.182-1.318-.89,0-1.76.264-2.5.758-.74.495-1.317,1.197-1.657,2.019-.341.822-.43,1.727-.256,2.6.174.873.602,1.675,1.232,2.304.629.629,1.431,1.058,2.304,1.232.873.174,1.778.085,2.6-.256.822-.341,1.525-.917,2.02-1.657.495-.74.758-1.61.758-2.5,0-1.193-.474-2.338-1.318-3.182ZM20.745,16.699l-3.084,3.289c-.093.1-.224.157-.36.158s-.268-.054-.363-.152l-1.678-1.73c-.192-.198-.188-.515.011-.707.198-.192.515-.188.707.011l1.313,1.353,2.726-2.907c.189-.201.505-.212.707-.023.201.189.212.505.023.707Z" fill="#363636" fill-rule="evenodd" stroke-width="0"/>
  </g>
  <g>
    <path d="M4.74,12.45l1.078,5.033.002.036v.009c.001.008.003.022.005.041.004.037.011.093.023.16.024.137.066.312.136.481.145.352.34.54.638.54h3.5c.297,0,.493-.188.638-.54.07-.169.111-.344.136-.481.012-.067.019-.123.023-.16.002-.019.003-.032.004-.041v-.008s0-.001,0-.001l.002-.036,1.303-6.032h-2.163c.036-.035.07-.071.104-.108.261-.286.46-.622.585-.989.124-.367.171-.755.137-1.14l-.417-4.752h0s-.004-.048-.004-.048c-.004-.055-.01-.12-.017-.182v-.005c-.025-.199-.096-.653-.309-1.071-.216-.425-.635-.906-1.36-.906h-1.364c-.731,0-1.151.488-1.366.915-.211.42-.281.875-.303,1.073-.006.053-.011.116-.015.163l-.004.049-.407,4.77c-.033.386.015.774.14,1.14.125.366.325.703.587.988.032.035.065.069.099.102h-1.605l.194,1Z" fill="#363636" fill-rule="evenodd" stroke-width="0"/>
    <path d="M11.917,17.622c-.001.015-.003.033-.005.055-.006.056-.016.133-.032.225-.032.182-.09.432-.196.688-.205.498-.66,1.16-1.562,1.16h-3.5c-.903,0-1.357-.661-1.562-1.16-.106-.256-.164-.506-.196-.688-.016-.092-.026-.169-.032-.225-.002-.022-.004-.04-.005-.055l-1.202-5.586.198,7.535v.009s0,.001,0,.001v.002s0,.006,0,.006l.002.02c.001.017.003.039.006.067.006.056.016.133.032.225.032.182.09.432.196.688.205.498.66,1.16,1.562,1.16h5.5c.903,0,1.357-.661,1.562-1.16.105-.256.164-.506.196-.688.016-.092.026-.169.032-.225.003-.028.005-.051.007-.067l.002-.02v-.006s0-.002,0-.002v-.002s0-.008,0-.008l.183-6.97-1.125,4.729-.062.291Z" fill="#363636" fill-rule="evenodd" stroke-width="0"/>
    <path d="M20.22,13.498c-.134-.396-.348-.76-.63-1.069-.282-.309-.626-.555-1.008-.724-.151-.066-.306-.12-.464-.161v-4.627c.035-.021.069-.045.101-.07.155-.124.245-.278.298-.404.053-.127.077-.247.088-.33.006-.043.009-.08.011-.107,0-.014.001-.026.002-.035v-.012s0-.005,0-.005v-1.954c0-.332-.132-.649-.366-.884-.234-.234-.552-.366-.884-.366s-.649.132-.884.366c-.234.234-.366.552-.366.884v1.971c0,.009.001.021.002.035.002.027.005.064.011.107.012.083.036.203.088.33.053.126.143.28.298.404.032.026.066.049.101.07v4.627c-.159.041-.315.095-.466.161-.383.169-.727.416-1.01.726-.282.31-.497.675-.63,1.072-.133.397-.181.818-.142,1.235l.443,4.739.004.041c.005.063.012.138.021.211.027.214.107.683.341,1.112.242.443.692.908,1.443.908h1.504c.757,0,1.207-.472,1.448-.918.234-.433.312-.904.338-1.113h0s0,0,0,.001l-.093-.043.093.042c.007-.058.013-.123.018-.175l.005-.055v-.003s.432-4.756.432-4.756c.038-.417-.011-.836-.145-1.233ZM17.616,5.944v.002c0,.005-.001.016-.003.029-.004.026-.01.053-.018.075h-.458c-.008-.022-.014-.049-.018-.075-.002-.013-.003-.024-.003-.029v-.002s0-1.944,0-1.944c0-.066.026-.13.073-.177.047-.047.11-.073.177-.073s.13.026.177.073c.047.047.073.11.073.177v1.944Z" fill="#363636" fill-rule="evenodd" stroke-width="0"/>
  </g>
</svg>