<?xml version="1.0" encoding="UTF-8"?>
<svg xmlns="http://www.w3.org/2000/svg" width="24" height="24" version="1.1" viewBox="0 0 24 24"> 

        <path class="cls-2" d="M4.5,3.5c.552,0,1,.448,1,1,0,.276.224.5.5.5s.5-.224.5-.5c0-.552.448-1,1-1,.276,0,.5-.224.5-.5s-.224-.5-.5-.5c-.552,0-1-.448-1-1,0-.276-.224-.5-.5-.5s-.5.224-.5.5c0,.552-.448,1-1,1-.276,0-.5.224-.5.5s.224.5.5.5Z"/>
        <path class="cls-2" d="M22.854,3.755c-1.205-1.205-2.737-1.746-4.354-1.746-.68,0-1.339.113-1.961.322l1.32,2.767c.119.249.013.548-.236.667-.249.119-.548.013-.667-.236l-1.339-2.806c-.524.272-1.012.615-1.454,1.016-.162.147-.209.382-.117.58l2.171,4.69h4.565l2.171-4.69c.088-.19.048-.415-.1-.564Z"/>
        <path class="cls-2" d="M17,20.513c.004.456.203.804.471,1.072.128.128.277.24.461.315.183.075.372.101.568.101.444,0,.779-.161,1.065-.447.305-.305.432-.732.435-1.041l.476-10.505h-3.957l.481,10.504Z"/>
        <path class="cls-2" d="M9.5,6.5c.552,0,1,.448,1,1,0,.276.224.5.5.5s.5-.224.5-.5c0-.552.448-1,1-1,.276,0,.5-.224.5-.5s-.224-.5-.5-.5c-.552,0-1-.448-1-1,0-.276-.224-.5-.5-.5s-.5.224-.5.5c0,.552-.448,1-1,1-.276,0-.5.224-.5.5s.224.5.5.5Z"/>
        <circle class="cls-1" cx="5" cy="14" r="1"/>
        <circle class="cls-1" cx="10" cy="14" r="1"/>
        <circle class="cls-1" cx="10" cy="19" r="1"/>
        <circle class="cls-1" cx="5" cy="19" r="1"/>
        <path class="cls-2" d="M12.5,10.001H2.5c-.828,0-1.5.672-1.5,1.5v10c0,.828.672,1.5,1.5,1.5h10c.828,0,1.5-.672,1.5-1.5v-10c0-.828-.672-1.5-1.5-1.5ZM5,21c-1.105,0-2-.895-2-2s.895-2,2-2,2,.896,2,2-.895,2-2,2ZM5,16c-1.105,0-2-.895-2-2s.895-2,2-2,2,.896,2,2-.895,2-2,2ZM10,21c-1.105,0-2-.895-2-2s.895-2,2-2,2,.896,2,2-.895,2-2,2ZM10,16c-1.105,0-2-.895-2-2s.895-2,2-2,2,.896,2,2-.895,2-2,2Z"/>
   
</svg>