<svg xmlns="http://www.w3.org/2000/svg" viewBox="0 0 24 24"><g id="Create-Here"><path d="M12,2A10,10,0,1,0,22,12,10,10,0,0,0,12,2Zm.93,15.21a2.73,2.73,0,0,1-.41.1v.74a.53.53,0,1,1-1,0v-.74a2.95,2.95,0,0,1-2.42-2.9.53.53,0,0,1,1.06,0,2,2,0,0,0,.09.59,1.91,1.91,0,0,0,2.39,1.21,1.93,1.93,0,0,0,1.3-1.87,1.33,1.33,0,0,0-.75-1.21l-2.66-1.28A2.54,2.54,0,0,1,9.05,9.58,2.88,2.88,0,0,1,10.66,7a3.23,3.23,0,0,1,.8-.25V6A.53.53,0,0,1,12,5.42a.52.52,0,0,1,.52.53V6.7a3,3,0,0,1,2.42,2.89.53.53,0,1,1-1,0,1.89,1.89,0,0,0-2.74-1.7,1.84,1.84,0,0,0-1,1.68,1.49,1.49,0,0,0,.83,1.34l2.65,1.28a2.38,2.38,0,0,1,1.35,2.15A3,3,0,0,1,12.93,17.21Z"/></g></svg>