<?xml version="1.0" encoding="UTF-8"?>
<svg id="Camada_1" xmlns="http://www.w3.org/2000/svg" width="24" height="24" version="1.1" viewBox="0 0 24 24">
  <!-- Generator: Adobe Illustrator 29.1.0, SVG Export Plug-In . SVG Version: 2.1.0 Build 142)  -->
  <path d="M21,12c-.552,0-1,.448-1,1v7H4V4h7c.552,0,1-.448,1-1s-.448-1-1-1h-7c-1.105,0-2,.895-2,2v16c0,1.105.895,2,2,2h16c1.105,0,2-.895,2-2v-7c0-.552-.448-1-1-1Z" fill="#363636"/>
  <path d="M21,2h-6c-.552,0-1,.448-1,1s.448,1,1,1h3.586l-7.793,7.793c-.391.391-.391,1.024,0,1.414s1.024.391,1.414,0l7.793-7.793v3.586c0,.552.448,1,1,1s1-.448,1-1V3c0-.552-.448-1-1-1Z" fill="#363636"/>
</svg>