<?xml version="1.0" encoding="UTF-8"?>
<svg id="Camada_1" data-name="Camada 1" xmlns="http://www.w3.org/2000/svg" width="24" height="24" version="1.1" viewBox="0 0 24 24">
  <path d="M18.567,7.553c-.021-.26-.239-.461-.5-.46h-2.527v-.82c0-1.265-.675-2.433-1.77-3.066-.59-.341-1.217-.49-1.825-.479-1.825.032-3.485,1.501-3.485,3.545v.82h-2.533c-.261,0-.479.2-.5.46l-.93,12.07v.11c-.023.844.656,1.54,1.5,1.54h12.11c.845-.069,1.471-.816,1.39-1.66l-.93-12.06ZM14.5,7.093h-5.033v2.757c0,.276-.224.5-.5.5s-.5-.224-.5-.5v-2.757h.994v-.82c0-1.14.382-1.93,1.433-2.372.438-.184.898-.249,1.337-.213,1.318.109,2.453,1.13,2.27,2.585v.82ZM15.016,10.35c-.276,0-.5-.224-.5-.5v-2.757h1v2.757c0,.276-.224.5-.5.5Z" fill="#363636" stroke-width="0"/>
</svg>