<?xml version="1.0" encoding="UTF-8"?>
<svg xmlns="http://www.w3.org/2000/svg" width="24" height="24" version="1.1" viewBox="0 0 24 24">
  <defs>
    <style>
      .cls-1 {
        fill: #363636;
        fill-rule: evenodd;
      }
    </style>
  </defs>
  <!-- Generator: Adobe Illustrator 28.6.0, SVG Export Plug-In . SVG Version: 1.2.0 Build 709)  -->
  <g>
    <g id="Camada_1">
      <g>
        <path class="cls-1" d="M2.844,11.863L12,3.189l9.156,8.674c.201.19.517.181.707-.019.19-.201.181-.517-.019-.707L12.344,2.137c-.193-.183-.495-.183-.688,0l-5.656,5.358v-2.995c0-.276-.224-.5-.5-.5s-.5.224-.5.5v3.943l-2.844,2.694c-.2.19-.209.506-.019.707.19.2.506.209.707.019Z"/>
        <path class="cls-1" d="M21.5,21h-1.5v-8.855l-8-7.579-8,7.579v8.855h-1.5c-.276,0-.5.224-.5.5s.224.5.5.5h7.5v-4.5c0-.276.224-.5.5-.5h3c.276,0,.5.224.5.5v4.5h7.5c.276,0,.5-.224.5-.5s-.224-.5-.5-.5ZM14,13.5c0,.276-.224.5-.5.5h-3c-.276,0-.5-.224-.5-.5v-3c0-.276.224-.5.5-.5h3c.276,0,.5.224.5.5v3Z"/>
      </g>
    </g>
  </g>
</svg>