<?xml version="1.0" encoding="UTF-8"?>
<svg id="Camada_1" xmlns="http://www.w3.org/2000/svg" width="40" height="40" version="1.1" viewBox="0 0 40 40">
  <!-- Generator: Adobe Illustrator 29.5.1, SVG Export Plug-In . SVG Version: 2.1.0 Build 141)  -->
  <path d="M19.999,1.667c.233,0,.456.098.614.27l.01.01c.005.006.014.015.024.026.02.022.048.055.085.096.074.083.181.204.311.356.26.304.618.737,1.014,1.252.625.813,1.361,1.858,1.95,2.939.74-.404,1.697-.858,2.531-1.235.616-.279,1.193-.53,1.615-.711.211-.091.384-.164.505-.215.059-.025.106-.045.138-.059.016-.007.029-.013.037-.016.003-.001.01-.003.01-.003l.003-.002.112-.037c.263-.068.546-.004.755.177.239.208.339.534.259.84l-.002.005s0,.007-.002.011c-.003.009-.007.022-.011.039-.009.033-.022.081-.039.142-.035.122-.085.298-.151.511-.132.426-.328,1.012-.576,1.649-.301.77-.705,1.68-1.206,2.477,5.136,1.062,8.333,6.504,6.496,11.606l-.218.549c-1.639,3.771-3.703,7.718-6.061,10.736-2.324,2.974-5.101,5.26-8.198,5.26-3.097,0-5.876-2.287-8.2-5.26-2.063-2.64-3.902-5.992-5.426-9.315l-.633-1.421c-2.281-5.251.953-11.051,6.27-12.155-.501-.797-.904-1.707-1.205-2.477-.249-.637-.444-1.223-.576-1.649-.066-.213-.117-.389-.151-.511-.017-.061-.03-.108-.039-.142-.005-.017-.009-.03-.011-.039-.001-.005-.002-.011-.002-.011l-.002-.003c-.08-.306.02-.634.259-.841.239-.208.575-.261.868-.14l.003.002s.006.002.01.003c.008.003.022.01.037.016.032.013.079.034.138.059.12.051.294.124.504.215.422.181.999.432,1.615.711.834.377,1.789.832,2.529,1.235.589-1.082,1.326-2.126,1.952-2.939.396-.514.754-.947,1.014-1.252.13-.152.237-.273.311-.356.036-.041.065-.074.085-.096.01-.011.019-.02.024-.026l.01-.01c.158-.172.38-.27.614-.27ZM14.999,26.667c-.92,0-1.667.747-1.667,1.667s.747,1.666,1.667,1.667c.92,0,1.667-.746,1.667-1.667s-.746-1.667-1.667-1.667ZM24.999,26.667c-.92,0-1.667.747-1.667,1.667s.747,1.666,1.667,1.667c.921,0,1.667-.746,1.667-1.667s-.746-1.667-1.667-1.667ZM19.999,20c-.92,0-1.667.746-1.667,1.667s.747,1.666,1.667,1.667c.921,0,1.667-.746,1.667-1.667s-.746-1.667-1.667-1.667ZM13.333,16.667c-.92,0-1.667.747-1.667,1.667s.747,1.666,1.667,1.667c.92,0,1.667-.746,1.667-1.667s-.746-1.667-1.667-1.667ZM26.666,16.667c-.92,0-1.667.747-1.667,1.667s.747,1.666,1.667,1.667c.92,0,1.667-.746,1.667-1.667s-.746-1.667-1.667-1.667Z" fill="#363636" fill-rule="evenodd"/>
</svg>