<?xml version="1.0" encoding="UTF-8"?>
<svg id="Camada_1" xmlns="http://www.w3.org/2000/svg" width="24" height="24" version="1.1" viewBox="0 0 24 24">
  <!-- Generator: Adobe Illustrator 29.5.1, SVG Export Plug-In . SVG Version: 2.1.0 Build 141)  -->
  <path d="M12,1C5.925,1,1,5.925,1,12s4.925,11,11,11,11-4.925,11-11S18.075,1,12,1ZM13,17c0,.553-.448,1-1,1s-1-.447-1-1v-6c0-.553.448-1,1-1s1,.447,1,1v6ZM12,7.94c-.69,0-1.25-.56-1.25-1.25s.56-1.25,1.25-1.25,1.25.56,1.25,1.25-.56,1.25-1.25,1.25Z" fill="#363636" fill-rule="evenodd"/>
</svg>