<?xml version="1.0" encoding="UTF-8"?>
<svg xmlns="http://www.w3.org/2000/svg" width="24" height="24" version="1.1" viewBox="0 0 24 24">
  <defs>
    <style>
      .cls-1 {
        fill: #363636;
      }
    </style>
  </defs>
  <!-- Generator: Adobe Illustrator 28.6.0, SVG Export Plug-In . SVG Version: 1.2.0 Build 709)  -->
  <g>
    <g id="Camada_1">
      <g>
        <path class="cls-1" d="M20.97,9.749c-.069-1.313-.639-2.549-1.591-3.458-.01-.008-.021-.017-.031-.026-.814-.746-2.239-1.295-3.339-1.265h-.014c-2.183,0-3.462,1.295-4.429,2.821-.148.233-.457.302-.69.155-.233-.148-.302-.457-.155-.69,1.039-1.639,2.58-3.282,5.267-3.285.827-.022,1.765.207,2.598.594-.214-.423-.497-.877-.872-1.316-1.038-1.216-2.747-2.278-5.486-2.278C7.193,1,3,4.607,3,9.185v.005c.018,1.912.759,3.746,2.076,5.141.133.141.336.193.52.132,2.853-.943,3.975-2.984,4.921-4.769,1.565.068,3.094.493,4.468,1.243,1.462.798,2.703,1.941,3.614,3.326.022.034.049.066.079.093l.014.012c.201.185.513.174.701-.023.581-.611,1.023-1.338,1.295-2.134.271-.791.367-1.631.282-2.462Z"/>
        <path class="cls-1" d="M18.595,15.508c-.271-.052-.533.125-.586.396-.703,3.626-2.976,6.097-5.784,6.097-2.843,0-5.547-2.523-6.234-6.096-.052-.271-.314-.449-.585-.397-.271.052-.449.314-.397.585.75,3.906,3.765,6.907,7.216,6.907,3.491,0,6.018-3.044,6.766-6.906.053-.271-.125-.533-.396-.586Z"/>
      </g>
    </g>
  </g>
</svg>