<?xml version="1.0" encoding="UTF-8"?>
<svg id="Camada_1" xmlns="http://www.w3.org/2000/svg" width="24" height="24" version="1.1" viewBox="0 0 24 24">
  <!-- Generator: Adobe Illustrator 29.5.1, SVG Export Plug-In . SVG Version: 2.1.0 Build 141)  -->
  <path d="M9.625,20.125c-.414,0-.75-.336-.75-.75,0-.207-.168-.375-.375-.375s-.375.168-.375.375c0,.414-.336.75-.75.75-.207,0-.375.168-.375.375,0,.207.168.375.375.375.414,0,.75.336.75.75,0,.207.168.375.375.375s.375-.168.375-.375c0-.414.336-.75.75-.75.207,0,.375-.168.375-.375,0-.207-.168-.375-.375-.375Z" fill="#363636"/>
  <path d="M8.284,4.903l-.317.04c-1.562.261-2.76,1.454-3.035,3.033l-.049.368c-.347,3.691,3.615,7.552,7.312,6.986l.368-.071c1.515-.357,2.586-1.604,2.791-3.116l.03-.306c.209-3.669-3.417-7.242-7.101-6.935ZM9.498,12.052c-.024.231-.208.421-.447.445-.24.024-.458-.126-.527-.348l-.02-.1-.5-5v-.102c.024-.231.207-.421.447-.445.24-.024.458.126.527.348l.02.1.5,5v.102ZM11.498,13.052c-.024.231-.207.421-.447.445-.24.024-.458-.126-.527-.348l-.019-.1-.5-5v-.102c.024-.231.207-.421.447-.445.24-.024.458.126.527.348l.019.1.5,5v.102Z" fill="#363636"/>
  <path d="M21.287,17.62l-3.667-2.968.039-.075c.014-.027.03-.055.042-.079.011-.021.027-.053.039-.082l.09-.222c.89-2.294.499-4.732-.611-6.792-1.073-1.989-2.836-3.667-4.852-4.58l-.407-.173c-3.004-1.187-5.89-.68-7.788.986-1.904,1.672-2.732,4.438-1.764,7.586l.156.463c.847,2.297,2.647,4.301,4.818,5.476,2.213,1.197,4.859,1.552,7.307.421l3.144,3.7c.015.017.032.034.049.049.559.498,1.232.728,1.99.658l.183-.033c.064-.016.129-.034.178-.048.118-.034.245-.074.32-.101l.191-.079c.424-.2.697-.506.862-.769.094-.149.156-.288.195-.391.019-.051.033-.095.043-.128.005-.016.009-.03.012-.041.001-.005.002-.01.003-.014l.002-.006v-.002c.271-.916.167-2.02-.536-2.723l-.039-.035ZM16.383,11.894c-.114,2.003-1.435,3.739-3.397,4.289l-.192.05c-2.386.562-4.797-.474-6.464-2.078-1.667-1.603-2.796-3.972-2.382-6.351l.038-.197c.439-2.028,2.109-3.524,4.215-3.7l.41-.021c2.04-.039,3.974.899,5.383,2.278,1.408,1.379,2.385,3.292,2.399,5.322l-.01.408Z" fill="#363636"/>
  <path d="M5.501,17.5c-.552,0-1-.448-1-1,0-.276-.224-.5-.5-.5-.276,0-.5.224-.5.5,0,.552-.448,1-1,1-.276,0-.5.224-.5.5,0,.276.224.5.5.5.552,0,1,.448,1,1,0,.276.224.5.5.5.276,0,.5-.224.5-.5,0-.552.448-1,1-1,.276,0,.5-.224.5-.5,0-.276-.224-.5-.5-.5Z" fill="#363636"/>
  <path d="M19.375,6.875c.414,0,.75.336.75.75,0,.207.168.375.375.375s.375-.168.375-.375c0-.414.336-.75.75-.75.207,0,.375-.168.375-.375,0-.207-.168-.375-.375-.375-.414,0-.75-.336-.75-.75,0-.207-.168-.375-.375-.375s-.375.168-.375.375c0,.414-.336.75-.75.75-.207,0-.375.168-.375.375,0,.207.168.375.375.375Z" fill="#363636"/>
</svg>