<?xml version="1.0" encoding="UTF-8"?>
<svg id="Camada_1" xmlns="http://www.w3.org/2000/svg" width="40" height="40" version="1.1" viewBox="0 0 40 40">
  <!-- Generator: Adobe Illustrator 29.5.1, SVG Export Plug-In . SVG Version: 2.1.0 Build 141)  -->
  <path d="M28.282,15.741l-5.436,5.438c-.651.651-1.706.651-2.357,0-.651-.651-.651-1.706,0-2.357l6.574-6.576c-1.474-2.349-4.084-3.913-7.062-3.913-4.602,0-8.333,3.731-8.333,8.333,0,.312.017.621.05.924l3.771-3.769c.651-.651,1.706-.651,2.357,0,.651.651.651,1.706,0,2.357l-4.909,4.907c1.473,2.35,4.085,3.914,7.064,3.914,4.602,0,8.333-3.731,8.333-8.333,0-.313-.018-.622-.052-.926Z" fill="#363636"/>
  <path d="M35,16.667c0-8.284-6.716-15-15-15s-15,6.716-15,15c0,7.721,5.834,14.075,13.333,14.904v3.429h-5c-.92,0-1.667.746-1.667,1.667s.746,1.667,1.667,1.667h13.333c.921,0,1.667-.746,1.667-1.667s-.746-1.667-1.667-1.667h-5v-3.429c7.5-.829,13.333-7.183,13.333-14.904ZM20,28.333c-6.443,0-11.667-5.223-11.667-11.667s5.223-11.667,11.667-11.667,11.667,5.223,11.667,11.667-5.223,11.667-11.667,11.667Z" fill="#363636"/>
  <path d="M10.834,32.5c-.92,0-1.667-.747-1.667-1.667,0-.46-.373-.833-.833-.833s-.833.373-.833.833c0,.92-.747,1.667-1.667,1.667-.46,0-.833.373-.833.833s.373.833.833.833c.92,0,1.667.747,1.667,1.667,0,.46.373.833.833.833s.833-.373.833-.833c0-.92.747-1.667,1.667-1.667.46,0,.833-.373.833-.833s-.373-.833-.833-.833Z" fill="#363636"/>
  <path d="M37.5,29.167c-.92,0-1.667-.747-1.667-1.667,0-.46-.373-.833-.833-.833s-.833.373-.833.833c0,.92-.747,1.667-1.667,1.667-.46,0-.833.373-.833.833s.373.833.833.833c.92,0,1.667.747,1.667,1.667,0,.46.373.833.833.833s.833-.373.833-.833c0-.92.747-1.667,1.667-1.667.46,0,.833-.373.833-.833s-.373-.833-.833-.833Z" fill="#363636"/>
  <path d="M6.042,28.125c.345,0,.625-.28.625-.625s-.28-.625-.625-.625c-.69,0-1.25-.56-1.25-1.25,0-.345-.28-.625-.625-.625s-.625.28-.625.625c0,.69-.56,1.25-1.25,1.25-.345,0-.625.28-.625.625s.28.625.625.625c.69,0,1.25.56,1.25,1.25,0,.345.28.625.625.625s.625-.28.625-.625c0-.69.56-1.25,1.25-1.25Z" fill="#363636"/>
</svg>