<?xml version="1.0" encoding="UTF-8"?>
<svg id="Camada_1" xmlns="http://www.w3.org/2000/svg" width="24" height="24" version="1.1" viewBox="0 0 24 24">
  <!-- Generator: Adobe Illustrator 29.3.0, SVG Export Plug-In . SVG Version: 2.1.0 Build 146)  -->
  <path d="M20.492,6.124l.5-4c.038-.306-.067-.613-.285-.831s-.525-.323-.831-.285l-4,.5c-.548.068-.937.568-.868,1.116.068.548.568.937,1.116.868l.865-.108c-.298.258-.622.537-.964.827-1.607,1.364-3.568,2.955-5.077,3.955-1.704,1.129-3.792,2.277-5.468,3.149-.835.434-1.562.797-2.08,1.051-.259.127-.465.227-.606.294-.071.034-.125.06-.161.077l-.041.019-.013.006c-.5.235-.714.831-.479,1.331.235.5.831.714,1.331.479t-.426-.905l.426.905.016-.008.044-.021c.039-.018.095-.045.168-.08.146-.07.358-.172.622-.302.529-.259,1.27-.629,2.122-1.073,1.697-.883,3.858-2.069,5.65-3.256,1.617-1.071,3.656-2.73,5.267-4.098.495-.42.953-.816,1.351-1.164l-.163,1.304c-.068.548.32,1.048.868,1.116.548.068,1.048-.32,1.116-.868Z" fill="#363636"/>
  <path d="M20.5,9c-.828,0-1.5.672-1.5,1.5v12.5h3v-12.5c0-.828-.672-1.5-1.5-1.5Z" fill="#363636"/>
  <path d="M16.5,11c-.828,0-1.5.672-1.5,1.5v10.5h3v-10.5c0-.828-.672-1.5-1.5-1.5Z" fill="#363636"/>
  <path d="M8.5,15c-.828,0-1.5.672-1.5,1.5v6.5h3v-6.5c0-.828-.672-1.5-1.5-1.5Z" fill="#363636"/>
  <path d="M4.5,17c-.828,0-1.5.672-1.5,1.5v4.5h3v-4.5c0-.828-.672-1.5-1.5-1.5Z" fill="#363636"/>
  <path d="M12.5,13c-.828,0-1.5.672-1.5,1.5v8.5h3v-8.5c0-.828-.672-1.5-1.5-1.5Z" fill="#363636"/>
</svg>