<svg width="24" height="24" viewBox="0 0 24 24" fill="none" xmlns="http://www.w3.org/2000/svg">
<path fill-rule="evenodd" clip-rule="evenodd" d="M2.33862 0.745188C1.22683 2.34217 0.413142 4.19113 0.137393 5.74656C-0.142936 7.32844 -0.00130538 8.83526 0.626962 10.9537C1.36498 13.4422 1.5013 14.6262 1.65914 19.9207C1.71704 21.8641 1.80489 23.5227 1.85436 23.6064C1.97218 23.8061 3.1283 23.8111 3.27763 23.6125C3.35504 23.5096 3.38903 22.7802 3.3926 21.1452C3.40039 17.5335 3.53267 13.8792 3.67 13.4844C3.80036 13.1095 4.17807 12.7929 4.49505 12.7929C4.77226 12.7929 5.86362 14.0087 6.39533 14.9097C6.99034 15.9179 7.15515 16.2972 8.04405 18.7023C8.92663 21.0904 9.49306 22.2832 9.96861 22.7555C10.1532 22.9387 10.3551 23.1525 10.4175 23.2306C10.7672 23.6688 12.1918 23.9965 13.7626 24C14.8775 24.0025 17.8906 23.6367 19.3 23.3275C21.8475 22.769 23.0562 22.4417 23.3736 22.2246C23.6857 22.0112 24 21.4807 24 21.1675C24 20.7926 23.6586 20.1439 23.3107 19.858C22.9773 19.5839 20.1161 17.9654 18.0209 16.8658L16.7599 16.2039L15.314 16.2831C13.6743 16.373 13.1862 16.2743 12.3365 15.6811C11.7241 15.2535 10.9396 14.2585 10.4465 13.2836C10.2591 12.9132 9.4751 11.212 8.70429 9.5032C6.68482 5.02623 5.89074 3.55609 4.36633 1.47258C3.64361 0.48481 3.18226 0.00097487 2.96231 1.32738e-07C2.90468 -0.000243552 2.62408 0.335067 2.33862 0.745188Z" fill="#363636"/>
</svg>
