<?xml version="1.0" encoding="UTF-8"?>
<svg xmlns="http://www.w3.org/2000/svg" width="24" height="24" version="1.1" viewBox="0 0 24 24">
  <defs>
    <style>
      .cls-1 {
        fill: #363636;
        fill-rule: evenodd;
      }
    </style>
  </defs>
  <!-- Generator: Adobe Illustrator 28.6.0, SVG Export Plug-In . SVG Version: 1.2.0 Build 709)  -->
  <g>
    <g id="Camada_1">
      <g>
        <path class="cls-1" d="M7.232,7.916c.149.1.34.112.5.032.16-.08.266-.239.277-.418.008-.126.038-.245.087-.35.047-.101.109-.182.176-.242.131-.103.247-.223.349-.356.035.05.068.102.099.157.136.241.225.52.258.816.019.174.128.324.286.398.158.074.344.059.489-.038.388-.259.701-.629.915-1.062.214-.434.325-.922.325-1.415,0-.746-.126-2.746-2.437-4.349-.142-.099-.326-.117-.484-.048-.159.069-.271.215-.295.387-.073.504-.247.973-.503,1.37-.061.095-.151.198-.287.35l-.006.006c-.126.142-.28.316-.425.519-.303.428-.563.986-.563,1.765,0,.493.111.981.325,1.415.214.434.527.803.915,1.062Z"/>
        <path class="cls-1" d="M20.828,18.638c-.107-.223-.259-.421-.447-.581-.188-.16-.407-.28-.643-.35-.082-.024-.165-.042-.25-.054.061-.059.118-.123.17-.191.259-.381.359-.848.28-1.301-.079-.454-.332-.859-.704-1.129-.372-.27-.835-.385-1.291-.32-.455.065-.867.305-1.149.67-.048.071-.091.145-.128.221-.037-.077-.08-.151-.128-.221-.278-.376-.692-.627-1.154-.698-.462-.071-.932.043-1.31.318-.378.275-.632.688-.707,1.149-.075.461.035.934.306,1.314.052.068.109.132.17.191-.255.037-.499.129-.715.271-.216.141-.398.328-.535.547-.136.219-.223.466-.254.722-.031.256-.006.516.074.762.08.246.212.471.388.66.176.189.391.337.63.434.239.097.496.141.754.128.258-.013.509-.082.737-.202-.015.083-.023.167-.026.252,0,.47.186.921.518,1.253.332.332.782.519,1.252.519s.92-.187,1.252-.519c.332-.332.518-.783.518-1.253-.002-.085-.011-.17-.026-.254.219.115.459.182.705.199.246.016.493-.019.725-.104.232-.085.443-.218.621-.389.178-.172.317-.379.41-.607.093-.229.137-.475.13-.722-.008-.247-.067-.49-.173-.712ZM17.604,19.51c-.249.249-.587.389-.939.389-.263,0-.519-.078-.738-.224-.218-.146-.388-.354-.489-.596-.101-.243-.127-.51-.076-.768s.178-.495.363-.68c.186-.186.422-.312.68-.364.258-.051.525-.025.767.076.243.101.45.271.596.49.146.219.224.475.224.738,0,.352-.14.69-.389.94Z"/>
        <path class="cls-1" d="M11.462,20.265c-.125-.384-.164-.791-.115-1.191.049-.401.184-.786.398-1.129.184-.297.423-.555.703-.763-.108-.384-.132-.791-.067-1.193.117-.721.515-1.367,1.106-1.797.162-.118.334-.216.515-.296v-2.79c0-.015,0-.029-.002-.044.001-.02.002-.041.002-.062,0-.45-.302-.777-.604-.992-.315-.224-.739-.404-1.217-.548-.963-.289-2.264-.46-3.679-.46s-2.716.171-3.679.46c-.478.143-.902.324-1.217.548-.302.214-.604.542-.604.992,0,.021,0,.041.002.062-.001.015-.002.029-.002.044v8.894c0,1.354,1.187,2.089,2.271,2.471,1.131.399,2.441.529,3.229.529.892,0,2.479-.167,3.705-.719l.763-.341c-.34-.152-.646-.37-.9-.643-.275-.296-.482-.648-.607-1.032ZM5.108,11.582c-.426-.128-.735-.27-.926-.406-.131-.093-.169-.154-.179-.176.01-.022.048-.083.179-.176.191-.135.5-.278.926-.406.846-.254,2.046-.418,3.392-.418s2.545.164,3.392.418c.426.128.735.27.926.406.131.093.169.154.179.176-.01.022-.048.083-.179.176-.191.135-.5.278-.926.406-.846.254-2.046.418-3.392.418s-2.545-.164-3.392-.418Z"/>
      </g>
    </g>
  </g>
</svg>