<?xml version="1.0" encoding="utf-8"?>
<!-- Generator: Adobe Illustrator 26.0.1, SVG Export Plug-In . SVG Version: 6.00 Build 0)  -->
<svg version="1.1" id="Camada_1" xmlns="http://www.w3.org/2000/svg" xmlns:xlink="http://www.w3.org/1999/xlink" x="0px" y="0px"
	 viewBox="0 0 24 24" style="enable-background:new 0 0 24 24;" xml:space="preserve">
<g id="Create-Here">
	<path d="M14.1,6.4h4.3l-4.8-4.8v4.3C13.6,6.2,13.8,6.4,14.1,6.4z"/>
	<path d="M13.2,16.1c0.1-2.1,1.9-3.8,4-3.7c0.5,0,1,0.1,1.5,0.4V7.4h-4.6c-0.8,0-1.5-0.7-1.5-1.5V1.4H4.3C3.4,1.4,2.8,2,2.8,2.8l0,0
		v17c0,0.8,0.7,1.5,1.5,1.5h7.9c0,0,0-0.1,0-0.1V18C12.1,17.2,12.5,16.5,13.2,16.1z M5.9,9.6h7.6c0.3,0,0.5,0.2,0.5,0.5
		s-0.2,0.5-0.5,0.5H5.9c-0.3,0-0.5-0.2-0.5-0.5S5.6,9.6,5.9,9.6z M11.5,16.7H5.9c-0.3,0-0.5-0.2-0.5-0.5s0.2-0.5,0.5-0.5h5.6
		c0.3,0,0.5,0.2,0.5,0.5S11.8,16.7,11.5,16.7z M5.9,13.7c-0.3,0-0.5-0.2-0.5-0.5c0-0.3,0.2-0.5,0.5-0.5h7.6c0.3,0,0.5,0.2,0.5,0.5
		s-0.2,0.5-0.5,0.5H5.9z"/>
	<path d="M14.3,16.1h1c0.2-0.9,1-1.5,1.9-1.5c0.9,0,1.7,0.6,1.9,1.5h1c-0.2-1.6-1.7-2.7-3.3-2.5C15.5,13.8,14.5,14.8,14.3,16.1
		L14.3,16.1z"/>
	<path d="M20.1,17.1h-5.8c-0.6,0-1.1,0.5-1.1,1.1v3.3c0,0.6,0.5,1.1,1.1,1.1h5.8c0.6,0,1.1-0.5,1.1-1.1v-3.3
		C21.2,17.6,20.7,17.1,20.1,17.1z M17.8,20.1v0.5c0,0.3-0.2,0.6-0.6,0.6c0,0,0,0,0,0l0,0c-0.3,0-0.6-0.2-0.6-0.6c0,0,0,0,0,0v-0.5
		c-0.2-0.2-0.3-0.4-0.3-0.7c0-0.5,0.4-0.9,0.9-0.9c0,0,0,0,0,0c0.3,0,0.5,0.1,0.7,0.3C18.2,19.2,18.2,19.8,17.8,20.1L17.8,20.1z"/>
</g>
</svg>
