<?xml version="1.0" encoding="UTF-8"?>
<svg xmlns="http://www.w3.org/2000/svg" width="24" height="24" version="1.1" viewBox="0 0 24 24">

        <path class="cls-1" d="M22.854,1.146c-.094-.094-.221-.146-.354-.146h-1c-.133,0-.26.053-.354.146-.094.094-.146.221-.146.354v16c.002.884-.332,1.736-.933,2.383-.602.648-1.426,1.043-2.308,1.107-.882.063-1.755-.21-2.443-.765-.688-.555-1.14-1.35-1.265-2.225h.949c.265,0,.52-.105.707-.293s.293-.442.293-.707-.105-.52-.293-.707-.442-.293-.707-.293h-4c-.265,0-.52.105-.707.293s-.293.442-.293.707.105.52.293.707.442.293.707.293h1.025c.134,1.405.803,2.705,1.869,3.63,1.066.925,2.446,1.405,3.856,1.341,1.41-.064,2.741-.668,3.718-1.686.977-1.018,1.525-2.373,1.531-3.785V1.5c0-.133-.053-.26-.146-.354Z"/>
        <path class="cls-1" d="M10.733,9.671l.567,2.663c.038.188.141.358.29.479s.335.188.528.188h3.375c.663,0,1.299-.263,1.768-.732.469-.469.732-1.105.732-1.768v-5c0-.663-.263-1.299-.732-1.768-.469-.469-1.105-.732-1.768-.732H3.5c-.663,0-1.299.263-1.768.732-.469.469-.732,1.105-.732,1.768v5c0,.663.263,1.299.732,1.768.469.469,1.105.732,1.768.732h3.382c.192,0,.379-.066.528-.188s.251-.291.29-.479l.567-2.663c.038-.188.141-.357.289-.479.149-.122.335-.188.527-.188h.833c.192,0,.378.066.527.188.149.121.251.291.289.479Z"/>

</svg>