<svg xmlns="http://www.w3.org/2000/svg" viewBox="0 0 24 24"><g id="Create-Here"><path d="M20.5,10.71,18,8.2a1.81,1.81,0,0,0-1.25-.54H15.18V13a.45.45,0,0,1-.45.45H3V16.8A1.23,1.23,0,0,0,4.22,18h.93a.53.53,0,0,0,0,.15,2,2,0,0,0,.42.72,1.8,1.8,0,0,0,.2.19s0,0,0,0a2.61,2.61,0,0,0,.27.19h0l.29.13a1.83,1.83,0,0,0,.32.07,1.65,1.65,0,0,0,.31,0,.68.68,0,0,0,.2,0l.19,0a2.26,2.26,0,0,0,.37-.11A2,2,0,0,0,9,18h6.45a1.31,1.31,0,0,0,.05.15,2.63,2.63,0,0,0,.24.51,2.44,2.44,0,0,0,.7.62c.09.05.19.08.3.13a1.55,1.55,0,0,0,.31.07,1.75,1.75,0,0,0,.32,0,.68.68,0,0,0,.2,0l.19,0h.1l.08,0a2.25,2.25,0,0,0,.52-.24,2.17,2.17,0,0,0,.29-.24,1.81,1.81,0,0,0,.56-.94h.48A1.23,1.23,0,0,0,21,16.79V11.91A1.83,1.83,0,0,0,20.5,10.71ZM7.05,18.59a1.07,1.07,0,0,1-1-1v0a1.08,1.08,0,0,1,2.15,0A1.06,1.06,0,0,1,7.05,18.59Zm10.35.06a1.1,1.1,0,0,1-1.1-1.07,1.08,1.08,0,0,1,1.07-1.1h0a1.09,1.09,0,0,1,0,2.17Z"/><path d="M14.28,6.61v5.92H3V6.65A2.17,2.17,0,0,1,5.15,4.49h6.94A2.19,2.19,0,0,1,14.28,6.61Z"/></g></svg>