<?xml version="1.0" encoding="UTF-8"?>
<svg xmlns="http://www.w3.org/2000/svg" width="24" height="24" version="1.1" viewBox="0 0 24 24">

      <path class="cls-1" d="M18.79,15.195c-.518-.416-1.003-.854-1.487-1.291l-.084-.076c-.232-.209-.464-.419-.699-.622-.003-.007-.009-.014-.02-.021.5-.6,2-2.485,2.4-4.585.5-2.5,1-6.9,1-7,0-.2,0-.3-.2-.5-.1-.1-.3-.1-.5,0-.2,0-5.2,2.1-6.3,4.8-.619,1.548-.879,3.216-.965,4.354-.017-.192-.037-.402-.064-.625-.128-1.084-.384-2.507-.907-3.815-.291-.729-.856-1.384-1.492-1.947-.641-.567-1.389-1.07-2.093-1.486-.705-.417-1.376-.752-1.871-.983-.248-.116-.452-.206-.595-.267-.071-.031-.128-.054-.167-.07l-.045-.018-.012-.005h-.003s-.002-.002-.002-.002c-.163-.065-.349-.04-.489.066-.14.106-.214.278-.194.453v.007c.041.493.391,3.523.787,5.819.072.434.146.847.22,1.217.269,1.344.935,2.533,1.517,3.374.228.33.447.611.629.831.096.119.179.304.244.383-.023.023-.017.052.012.087-.194.17-.387.344-.582.52l-.064.058c-.496.447-1.002.903-1.552,1.345-.767.616-1.146,1.614-1.206,2.634-.06,1.028.196,2.147.784,3.084.592.944,1.525,1.707,2.801,1.981,1.217.261,2.691.066,4.408-.753,1.717.818,3.191,1.014,4.409.753,1.276-.274,2.209-1.037,2.801-1.981.587-.937.844-2.056.784-3.084-.06-1.021-.439-2.018-1.206-2.634ZM6.481,8.304c-.243-1.214-.489-2.935-.676-4.371-.035-.267-.068-.524-.098-.764.287.15.595.319.91.504.656.388,1.317.836,1.862,1.318.556.492.926.962,1.094,1.38.454,1.135.702,2.455.834,3.52.065.527.101.978.119,1.297l.002.031c-.679.205-1.317.55-1.948.999l-.012-.014c-.193-.229-.456-.561-.733-.965-.566-.824-1.141-1.877-1.353-2.935ZM9,18.004c-.552,0-1-.448-1-1s.448-1,1-1,1,.448,1,1-.448,1-1,1ZM13.777,19.913l-1.5,1c-.168.112-.387.112-.555,0l-1.5-1c-.183-.122-.265-.35-.201-.561.064-.211.258-.355.479-.355h3c.22,0,.415.144.479.355.064.211-.018.439-.201.561ZM15.012,18.004c-.552,0-1-.448-1-1s.448-1,1-1,1,.448,1,1-.448,1-1,1ZM16.24,11.118c-.258.372-.5.672-.677.877-.063.073-.117.133-.16.181-.556-.421-1.163-.746-1.851-.946l-.043-.056c.002-.041.003-.085.006-.132.015-.302.044-.732.104-1.237.12-1.02.356-2.298.81-3.433.167-.418.537-.888,1.093-1.38.545-.482,1.206-.93,1.862-1.318.314-.186.623-.355.91-.504-.03.24-.063.497-.098.764-.187,1.436-.434,3.157-.677,4.371-.213,1.063-.756,2.059-1.279,2.814Z"/>

</svg>