<?xml version="1.0" encoding="UTF-8"?>
<svg id="Camada_1" xmlns="http://www.w3.org/2000/svg" width="24" height="24" version="1.1" viewBox="0 0 24 24">
  <!-- Generator: Adobe Illustrator 29.5.1, SVG Export Plug-In . SVG Version: 2.1.0 Build 141)  -->
  <path d="M16.791,6.113c.301-.478.543-1.024.724-1.486.149-.382.266-.734.346-.989.04-.128.07-.233.091-.307.01-.036.018-.065.023-.085.003-.01.005-.018.007-.023,0-.003,0-.007,0-.007v-.003c.049-.184-.011-.379-.154-.504-.125-.109-.295-.147-.453-.106l-.067.022h-.002s-.004.002-.006.003c-.005.002-.013.006-.022.01-.019.008-.047.02-.083.035-.072.03-.176.075-.303.129-.253.109-.599.259-.969.427-.501.227-1.075.499-1.518.741-.353-.649-.795-1.276-1.17-1.764-.237-.309-.453-.568-.608-.751-.078-.091-.142-.164-.187-.214-.022-.025-.039-.044-.051-.058-.006-.007-.011-.012-.015-.016l-.006-.006c-.095-.103-.228-.162-.368-.162-.14,0-.274.059-.368.162l-.006.006s-.009.009-.015.016c-.012.013-.029.033-.051.058-.044.05-.109.123-.187.214-.156.183-.371.442-.608.751-.375.488-.818,1.115-1.171,1.764-.444-.242-1.017-.515-1.518-.741-.37-.167-.716-.318-.969-.427-.127-.054-.231-.098-.303-.129-.036-.015-.064-.027-.083-.035-.009-.004-.017-.008-.022-.01-.002,0-.006-.002-.006-.002h-.002c-.175-.074-.377-.042-.521.083-.143.125-.203.321-.155.505v.002s.001.004.002.007c.001.005.004.013.007.023.005.02.013.049.023.085.021.073.051.179.091.307.079.255.197.607.346.989.18.462.424,1.007.725,1.485-3.191.661-5.133,4.142-3.764,7.294l.38.853c.915,1.994,2.018,4.005,3.256,5.589,1.394,1.784,3.062,3.156,4.92,3.156,1.858,0,3.525-1.372,4.919-3.156,1.415-1.811,2.654-4.179,3.637-6.441l.131-.329c1.102-3.061-.816-6.326-3.898-6.964ZM9,12c0,.276-.224.5-.5.5-.276,0-.5-.224-.5-.5v-1c0-.276.224-.5.5-.5.276,0,.5.224.5.5v1ZM11,16.5c0,.276-.224.5-.5.5-.276,0-.5-.224-.5-.5v-1c0-.276.224-.5.5-.5.276,0,.5.224.5.5v1ZM12.5,13c-.276,0-.5-.224-.5-.5v-1c0-.276.224-.5.5-.5.276,0,.5.224.5.5v1c0,.276-.224.5-.5.5ZM14,18c0,.276-.224.5-.5.5-.276,0-.5-.224-.5-.5v-1c0-.276.224-.5.5-.5.276,0,.5.224.5.5v1ZM17,11.5c0,.276-.224.5-.5.5-.276,0-.5-.224-.5-.5v-1c0-.276.224-.5.5-.5.276,0,.5.224.5.5v1Z" fill="#363636" fill-rule="evenodd"/>
</svg>