<?xml version="1.0" encoding="utf-8"?>
<!-- Generator: Adobe Illustrator 28.4.1, SVG Export Plug-In . SVG Version: 6.00 Build 0)  -->
<svg version="1.0" id="Camada_1" xmlns="http://www.w3.org/2000/svg" xmlns:xlink="http://www.w3.org/1999/xlink" x="0px" y="0px"
	 width="24px" height="24px" viewBox="0 0 24 24" enable-background="new 0 0 24 24" xml:space="preserve">
<path    d="M21.9,2.1c0.2,0.2,0.2,0.5,0,0.7l-19,19c-0.2,0.2-0.5,0.2-0.7,0c-0.2-0.2-0.2-0.5,0-0.7l3.2-3.2
	c-0.5-1-0.9-2.3-0.9-3.7c0-1.2,0.5-2.6,1.1-3.9C6.3,9,7.2,7.6,8.1,6.4c0.9-1.2,1.8-2.3,2.4-3c0.3-0.4,0.6-0.7,0.8-0.9
	c0.1-0.1,0.2-0.2,0.2-0.2l0.1-0.1c0,0,0.1-0.2,0.4-0.2s0.4,0.2,0.4,0.2l0,0l0,0l0.1,0.1c0.1,0.1,0.1,0.1,0.2,0.2
	c0.2,0.2,0.5,0.5,0.8,0.9c0.7,0.8,1.5,1.8,2.4,3C16,6.6,16.2,6.8,16.3,7l4.8-4.8C21.3,2,21.7,2,21.9,2.1z"/>
<path    d="M12,22c-2,0-4-0.8-5.5-2.4L17.4,8.7c0.3,0.5,0.6,1.1,0.9,1.6c0.7,1.3,1.1,2.7,1.1,3.9
	C19.5,19.2,15.6,22,12,22z"/>
</svg>
