<?xml version="1.0" encoding="UTF-8"?>
<svg id="Camada_1" xmlns="http://www.w3.org/2000/svg" width="24" height="24" version="1.1" viewBox="0 0 24 24">
  <!-- Generator: Adobe Illustrator 29.1.0, SVG Export Plug-In . SVG Version: 2.1.0 Build 142)  -->
  <path d="M18.955,9.023c-.48-3.903-3.297-7.023-7.455-7.023-4.185,0-7.113,3.257-7.474,7.215-1.749.581-3.026,2.292-3.026,4.285,0,2.346,1.817,4.286,4.114,4.483-.077-.316-.117-.645-.117-.978,0-2.099,1.605-4,3.821-4,.781,0,1.504.246,2.101.658.243.168.422.394.529.647.634-.779,1.559-1.305,2.695-1.305,2.227,0,3.643,2.024,3.643,4,0,.022,0,.045,0,.067.171-.036.346-.058.525-.066.012,0,.025,0,.037,0,.574,0,1.224.132,1.755.557.039.031.076.063.113.096,1.631-.677,2.786-2.289,2.786-4.159,0-2.323-1.781-4.247-4.045-4.477Z" fill="#363636"/>
  <path d="M8.818,15.005c.353,0,.684.11.966.305.227.157.539.099.695-.128.157-.227.099-.539-.128-.695-.44-.303-.967-.481-1.534-.481-1.592,0-2.821,1.379-2.821,3s1.229,3,2.821,3c.567,0,1.094-.178,1.534-.481.227-.157.285-.468.128-.695-.157-.227-.468-.285-.695-.128-.282.194-.613.305-.966.305-.972,0-1.821-.86-1.821-2s.85-2,1.821-2Z" fill="#363636"/>
  <path d="M14.143,14.005c-1.529,0-2.643,1.418-2.643,3s1.114,3,2.643,3,2.643-1.418,2.643-3-1.114-3-2.643-3ZM14.143,19.005c-.838,0-1.643-.82-1.643-2s.805-2,1.643-2,1.643.82,1.643,2-.805,2-1.643,2Z" fill="#363636"/>
  <path d="M19.748,19.305c0-.439-.178-.796-.494-1.026-.292-.212-.649-.279-.965-.279-.007,0-.014,0-.02,0-.346.014-.667.116-.956.291-.236.143-.312.45-.169.687.143.236.45.312.687.169.15-.091.304-.139.469-.147.189.002.307.044.367.087.026.019.043.039.055.064.012.026.028.072.028.154,0,.067-.04.204-.185.413-.136.197-.328.404-.534.599-.204.192-.409.361-.565.482-.078.06-.142.108-.186.14-.022.016-.039.028-.05.036l-.012.009-.003.002c-.135.093-.215.247-.215.411v.103c0,.276.224.5.5.5h1.75c.276,0,.5-.224.5-.5s-.224-.5-.5-.5h-.486c.218-.209.445-.454.624-.714.183-.265.362-.609.362-.982Z" fill="#363636"/>
</svg>