<?xml version="1.0" encoding="utf-8"?>
<svg version="1.1" id="outlined-indicators" xmlns="http://www.w3.org/2000/svg" xmlns:xlink="http://www.w3.org/1999/xlink"
	 x="0px" y="0px" viewBox="0 0 24 24" style="enable-background:new 0 0 24 24;" xml:space="preserve">
<g>
	<path d="M20.1,8.9c-0.7-1.2-1.5-2.2-2.4-2.9c0,0-5.8,7.7-5.8,7.7c-0.1,0.1-0.2,0.2-0.4,0.2c-0.1,0-0.2,0-0.3-0.1
		c-0.2-0.2-0.3-0.5-0.1-0.7c0,0,5.8-7.6,5.8-7.7c-0.9-0.6-3.1-1.6-6-1.3C8.7,4.3,6.6,5.4,5.2,7.2c-1.5,1.7-2.3,4-2.2,6.2
		c0,1.1,0.3,2.3,0.7,3.3c0.5,1.2,1.2,2.3,2.1,3.2c2.7,0,5.5,0,8.2,0c1.5,0,3,0,4.4,0c1.7-1.7,2.7-4,2.7-6.6
		C21.1,11.7,20.8,10.2,20.1,8.9z"/>
	<path d="M17.7,5.9l1.9-2.4c0.2-0.2,0.1-0.5-0.1-0.6C19.3,2.7,19,2.8,18.8,3L17,5.4L17.7,5.9z"/>
</g>
</svg>
