<?xml version="1.0" encoding="utf-8"?>
<!-- Generator: Adobe Illustrator 26.0.1, SVG Export Plug-In . SVG Version: 6.00 Build 0)  -->
<svg version="1.1" id="Camada_1" xmlns="http://www.w3.org/2000/svg" xmlns:xlink="http://www.w3.org/1999/xlink" x="0px" y="0px"
	 viewBox="0 0 24 24" style="enable-background:new 0 0 24 24;" xml:space="preserve">
<g>
	<path d="M14.1,6.4h4.3l-4.8-4.8v4.3C13.6,6.2,13.8,6.4,14.1,6.4z"/>
	<path d="M17.2,12.4c0.5,0,1,0.1,1.5,0.4V7.4h-4.6c-0.8,0-1.5-0.7-1.5-1.5V1.4H4.3C3.4,1.4,2.8,2,2.8,2.8v17c0,0.8,0.7,1.5,1.5,1.5
		h7.9v-0.1V18c-0.1-0.8,0.3-1.5,1-1.9C13.3,14,15.1,12.3,17.2,12.4z M5.9,9.6h7.6c0.3,0,0.5,0.2,0.5,0.5c0,0.3-0.2,0.5-0.5,0.5H5.9
		c-0.3,0-0.5-0.2-0.5-0.5C5.4,9.8,5.6,9.6,5.9,9.6z M11.5,16.7H5.9c-0.3,0-0.5-0.2-0.5-0.5s0.2-0.5,0.5-0.5h5.6
		c0.3,0,0.5,0.2,0.5,0.5S11.8,16.7,11.5,16.7z M5.9,13.7c-0.3,0-0.5-0.2-0.5-0.5s0.2-0.5,0.5-0.5h7.6c0.3,0,0.5,0.2,0.5,0.5
		s-0.2,0.5-0.5,0.5H5.9z"/>
	<path d="M16.8,13.6c-1.3,0.2-2.3,1.2-2.5,2.5h1c0.2-0.9,1-1.5,1.9-1.5c0.9,0,1.7,0.6,1.9,1.5h1C19.9,14.5,18.4,13.4,16.8,13.6z"/>
	<path d="M20.1,17.1h-5.8c-0.6,0-1.1,0.5-1.1,1.1v3.3c0,0.6,0.5,1.1,1.1,1.1h5.8c0.6,0,1.1-0.5,1.1-1.1v-3.3
		C21.2,17.6,20.7,17.1,20.1,17.1z M17.8,20.1C17.8,20.1,17.8,20.1,17.8,20.1l0,0.5c0,0.3-0.2,0.6-0.6,0.6c-0.3,0-0.6-0.2-0.6-0.6
		v-0.5c0,0,0,0,0,0c-0.2-0.2-0.3-0.4-0.3-0.7c0-0.5,0.4-0.9,0.9-0.9c0.5,0,0.9,0.4,0.9,0.9C18.1,19.7,18,19.9,17.8,20.1z"/>
</g>
</svg>
