<svg width="20" height="18" viewBox="0 0 20 18" xmlns="http://www.w3.org/2000/svg">
<path d="M19.9302 16.2945L15.4335 8.50033L10.9369 0.706168C10.7371 0.406393 10.4373 0.206543 10.0376 0.206543C9.63789 0.206543 9.33811 0.406393 9.13826 0.706168L4.64163 8.50033L0.145005 16.2945C-0.0548454 16.5943 -0.0548454 16.994 0.145005 17.2937C0.344855 17.5935 0.64463 17.7934 1.04433 17.7934H19.0308C19.4305 17.7934 19.7303 17.5935 19.9302 17.2937C20.0301 16.994 20.0301 16.5943 19.9302 16.2945ZM9.73781 5.10287C9.73781 4.8031 9.93766 4.60325 10.2374 4.60325C10.5372 4.60325 10.7371 4.8031 10.7371 5.10287V11.0984C10.7371 11.3982 10.5372 11.598 10.2374 11.598C9.93766 11.598 9.73781 11.3982 9.73781 11.0984V5.10287ZM10.2374 14.296C9.83774 14.296 9.53796 13.9962 9.53796 13.5965C9.53796 13.1968 9.83774 12.897 10.2374 12.897C10.6371 12.897 10.9369 13.1968 10.9369 13.5965C10.9369 13.9962 10.6371 14.296 10.2374 14.296Z"/>
</svg>
