<?xml version="1.0" encoding="UTF-8"?>
<svg id="Info" xmlns="http://www.w3.org/2000/svg" width="24" height="24" viewBox="0 0 24 24">
  <defs>
    <style>
      .cls-1 {
        fill: #fff;
      }

      .cls-2 {
        fill: none;
      }
    </style>
  </defs>
  <path d="M19.81,16.91c-.02-.05-.04-.11-.06-.17,0,0,0-.02,0-.02l-1.02-2.49c-.41-1-.83-2.03-1.3-3-.1-.22-.23-.43-.4-.64-.2-.21-.45-.37-.73-.49-.56-.21-1.15-.34-1.72-.39-.88-.13-1.77-.29-2.58-.49-.37-.13-.75-.14-1.21,0-.51,.26-.79,.83-.67,1.41,.11,.46,.4,.87,.81,1.12,.33,.2,.68,.35,1.03,.45l2.47,.82c.04,.31,.1,.61,.18,.91-.4,1.84-.89,4.94,.08,5.7,3.26,2.57,6.08-.12,5.14-2.73Z"/>
  <g id="Path_5215" data-name="Path 5215">
    <path d="M17.02,20.69s-.05,0-.08,0c-1.1-.17-2.13-.65-2.97-1.39-.21-.18-.23-.5-.05-.71,.18-.21,.5-.23,.71-.05,.7,.61,1.55,1.01,2.46,1.15,.27,.04,.46,.3,.42,.57-.04,.25-.25,.42-.49,.42Z"/>
  </g>
  <g id="Rectangle_4405" data-name="Rectangle 4405">
    <rect class="cls-2" x="4.01" y="3.27" width="15.8" height="17.45"/>
  </g>
  <path d="M14.31,10.69c.28,0,.5-.22,.5-.5V4.49c0-.65-.53-1.19-1.19-1.19H6.9c-.65,0-1.19,.53-1.19,1.19v14.21c0,.65,.53,1.19,1.19,1.19h6.72c.65,0,1.19-.53,1.19-1.19v-6.23c0-.28-.22-.5-.5-.5s-.5,.22-.5,.5v3.35H6.72V6.51h7.09v3.67c0,.28,.22,.5,.5,.5ZM6.72,5.51h0s7.09,0,7.09,0h0s-7.09,0-7.09,0Z"/>
  <g id="Line_365" data-name="Line 365">
    <path class="cls-1" d="M10.98,18.39h-1.42c-.28,0-.5-.22-.5-.5s.22-.5,.5-.5h1.42c.28,0,.5,.22,.5,.5s-.22,.5-.5,.5Z"/>
  </g>
  <path d="M6.22,11.36v-.84c.28,0,.5-.22,.5-.5s-.22-.5-.5-.5h-1.03l-.13,.02c-.59,.16-1.01,.7-1.02,1.32,0,.94,.56,1.5,1.09,1.5h1.09c.28,0,.5-.22,.5-.5s-.22-.5-.5-.5Z"/>
  <path d="M6.41,13.3v-.73c.18-.07,.31-.25,.31-.46,0-.28-.22-.5-.5-.5h-.93l-.13,.02c-.56,.15-.95,.66-.96,1.24,0,.88,.53,1.4,1.04,1.4h.98c.28,0,.5-.22,.5-.5,0-.21-.13-.39-.31-.46Z"/>
  <path d="M6.34,15.11v-.56c.22-.05,.38-.24,.38-.48,0-.28-.22-.5-.5-.5h-.85l-.13,.02c-.53,.14-.9,.62-.9,1.17,0,.83,.5,1.32,.99,1.32h.9c.28,0,.5-.22,.5-.5,0-.23-.16-.42-.38-.48Z"/>
  <path d="M6.22,17.09h-.16v-.36h.16c.28,0,.5-.22,.5-.5s-.22-.5-.5-.5h-.77l-.13,.02c-.49,.13-.84,.59-.85,1.1,0,.45,.17,.78,.39,.99h0s.01,0,.01,0c.16,.15,.35,.24,.53,.24h.81c.28,0,.5-.22,.5-.5s-.22-.5-.5-.5Z"/>
</svg>