<?xml version="1.0" encoding="UTF-8"?>
<svg xmlns="http://www.w3.org/2000/svg" width="24" height="24" version="1.1" viewBox="0 0 24 24">

        <path class="cls-1" d="M15,1.5c0-.276-.224-.5-.5-.5h-4c-.276,0-.5.224-.5.5v1.5h5v-1.5Z"/>
        <path class="cls-1" d="M22.854,1.146c-.195-.195-.512-.195-.707,0l-5.437,5.437c-.516-.293-1.095-.487-1.71-.555v-2.028h-5v2.028c-2.243.25-4,2.165-4,4.472v2.5h4.293l-1,1h-3.293v3.293l-4.854,4.854c-.195.195-.195.512,0,.707.195.195.512.195.707,0L22.854,1.854c.195-.195.195-.512,0-.707Z"/>
        <polygon class="cls-1" points="8.121 18 19 18 19 14 12.121 14 8.121 18"/>
        <path class="cls-1" d="M6,20.121v.018c0,1.545,1.387,2.72,2.911,2.466l3.589-.598,3.589.598c1.524.254,2.911-.921,2.911-2.466v-1.139H7.121l-1.121,1.121Z"/>
        <path class="cls-1" d="M13.121,13h5.879v-2.5c0-.953-.3-1.839-.81-2.569l-5.069,5.069Z"/>

</svg>