<?xml version="1.0" encoding="UTF-8"?>
<svg xmlns="http://www.w3.org/2000/svg" width="24" height="24" version="1.1" viewBox="0 0 24 24">

        <path  d="M13.475,6.5c.016-.165.025-.331.025-.5,0-2.761-2.239-5-5-5S3.5,3.239,3.5,6c0,.169.008.335.025.5h9.951Z"/>
        <path  d="M12.5,13h2.352l.145-1.45c.014-.141-.032-.281-.127-.385-.006-.006-.011-.012-.017-.018.094-.196.146-.415.146-.647,0-.384-.144-.735-.382-1,.237-.265.382-.616.382-1,0-.828-.672-1.5-1.5-1.5H3.5c-.828,0-1.5.672-1.5,1.5,0,.384.144.735.382,1-.238.265-.382.616-.382,1,0,.232.052.451.146.647-.006.006-.011.012-.017.018-.095.105-.141.245-.127.385l.82,8.199c.128,1.278,1.203,2.251,2.488,2.251h2.69v-4.5c0-2.485,2.015-4.5,4.5-4.5Z"/>
        <path  d="M18.5,14h-6c-1.933,0-3.5,1.567-3.5,3.5v5c0,.276.224.5.5.5h12c.276,0,.5-.224.5-.5v-5c0-1.933-1.567-3.5-3.5-3.5Z"/>

</svg>