<?xml version="1.0" encoding="UTF-8"?>
<svg xmlns="http://www.w3.org/2000/svg" width="24" height="24" version="1.1" viewBox="0 0 24 24">

      <path class="cls-1" d="M21.502,2h-.432c-.272,0-.495.218-.5.49-.058,2.948-1.563,5.923-3.571,7.899-.058-1.329-1.154-2.389-2.498-2.389h-5c-1.343,0-2.439,1.06-2.498,2.389-2.007-1.976-3.513-4.951-3.571-7.899-.005-.272-.228-.49-.5-.49h-.432c-.276,0-.5.224-.5.5v8.497c0,1.637.553,2.731,1.167,3.729.005.008.01.016.016.024l4.908,7.036c.094.134.247.214.41.214h6.909c.162,0,.314-.079.408-.211l5.154-7.26c.008-.011.016-.023.023-.035.459-.778,1.007-1.868,1.007-3.498V2.5c0-.276-.224-.5-.5-.5ZM13.687,12.942c-.548.287-1.117.431-1.692.431s-1.15-.142-1.718-.426c-.247-.124-.347-.424-.224-.671.124-.247.423-.349.671-.224.853.426,1.692.426,2.498.005.243-.128.547-.035.675.21.129.245.034.547-.21.675Z"/>

</svg>