<?xml version="1.0" encoding="UTF-8"?>
<svg xmlns="http://www.w3.org/2000/svg" width="24" height="24" version="1.1" viewBox="0 0 24 24">
  <defs>
    <style>
      .cls-1 {
        fill: #363636;
        fill-rule: evenodd;
      }
    </style>
  </defs>
  <!-- Generator: Adobe Illustrator 28.6.0, SVG Export Plug-In . SVG Version: 1.2.0 Build 709)  -->
  <g>
    <g id="Camada_1">
      <path class="cls-1" d="M1,2.5c0-.828.672-1.5,1.5-1.5h6c.276,0,.5.224.5.5v6.5h6V1.5c0-.276.224-.5.5-.5h6c.828,0,1.5.672,1.5,1.5v6c0,.276-.224.5-.5.5h-6.5v6h6.5c.276,0,.5.224.5.5v6c0,.828-.672,1.5-1.5,1.5h-6c-.276,0-.5-.224-.5-.5v-6.5h-6v6.5c0,.276-.224.5-.5.5H2.5c-.828,0-1.5-.672-1.5-1.5v-6c0-.276.224-.5.5-.5h6.5v-6H1.5c-.276,0-.5-.224-.5-.5V2.5Z"/>
    </g>
  </g>
</svg>