<?xml version="1.0" encoding="UTF-8"?>
<svg id="Camada_1" xmlns="http://www.w3.org/2000/svg" width="24" height="24" version="1.1" viewBox="0 0 24 24">
  <!-- Generator: Adobe Illustrator 29.1.0, SVG Export Plug-In . SVG Version: 2.1.0 Build 142)  -->
  <path d="M8.998,7.583c.002-.028.002-.055.002-.083v-3c0-.502-.251-.97-.668-1.248l-3-2c-.595-.397-1.387-.318-1.893.187l-2,2c-.506.506-.584,1.298-.187,1.893l2,3c.278.417.747.668,1.248.668h3c.028,0,.056,0,.084-.002l2.194,2.194-6.676,6.008c-1.417,1.275-1.475,3.478-.127,4.825,1.361,1.361,3.588,1.286,4.856-.16l7.183-8.202c.622.218,1.291.337,1.988.337,3.314,0,6-2.686,6-6,0-.858-.182-1.671-.506-2.408-.066-.151-.203-.26-.365-.29-.162-.03-.329.021-.446.138l-3.018,3.018-2.122-2.122,3.018-3.018c.117-.117.168-.284.138-.446s-.139-.299-.29-.365c-.737-.324-1.551-.506-2.408-.506-3.314,0-6,2.686-6,6,0,.64.1,1.256.285,1.834l-.02.018-2.269-2.269Z" fill="#363636"/>
  <path d="M14.506,18.749l-1.405-1.384,2.244-2.562c.532.129,1.087.197,1.656.197.673,0,1.323-.095,1.938-.272l1.422,1.39,1.76,1.76c1.171,1.172,1.173,3.072,0,4.243-1.172,1.171-3.072,1.171-4.243,0l-3.372-3.372Z" fill="#363636"/>
</svg>