<svg xmlns="http://www.w3.org/2000/svg" viewBox="0 0 24 24"><g id="Create-Here"><path d="M7.06,5.62H5a1,1,0,0,0-1,1V13.4a.93.93,0,0,0,.3.68,1,1,0,0,0,.71.28H7a1,1,0,0,0,1-.95l.05-6.78v0A1,1,0,0,0,7.06,5.62Z"/><path d="M19.82,10.23l-2-4.54a2.47,2.47,0,0,0-2.36-1.57H12.09a2,2,0,0,0-.94.28L9.1,5.77a.48.48,0,0,0-.22.41l0,7.73a.52.52,0,0,0,.54.5h0a1.05,1.05,0,0,1,1.11,1v3.52a.91.91,0,0,0,.3.67,1.07,1.07,0,0,0,.72.28,3.42,3.42,0,0,0,3.48-3.26V14.41h1.55a3.62,3.62,0,0,0,2.29-.83A3.07,3.07,0,0,0,19.82,10.23Z"/></g></svg>