<?xml version="1.0" encoding="UTF-8"?>
<svg id="Camada_1" data-name="Camada 1" xmlns="http://www.w3.org/2000/svg" width="24" height="24" version="1.1" viewBox="0 0 24 24">
  <path d="M22.476,9.6c-.059-.181-.216-.313-.403-.34l-6.65-.966-2.974-6.024c-.004-.007-.012-.01-.016-.017-.067-.121-.177-.216-.318-.249-.228-.053-.459.058-.562.266l-2.974,6.024-6.65.966c-.188.027-.345.159-.404.34-.059.181-.01.379.126.512l4.812,4.691-1.136,6.622c-.032.188.045.378.199.489.087.063.19.096.294.096.08,0,.16-.019.232-.058l5.948-3.126,5.947,3.126c.168.09.372.075.526-.038.154-.111.231-.301.199-.489l-1.136-6.622,4.812-4.691c.137-.133.186-.332.127-.512ZM16.651,14.27c-.118.115-.172.28-.145.443l1.009,5.883-5.016-2.636V4.633l2.142,4.339c.072.147.214.25.376.273l5.908.858-4.274,4.167Z" fill="#363636" stroke-width="0"/>
</svg>