<?xml version="1.0" encoding="UTF-8"?>
<svg id="Camada_1" data-name="Camada 1" xmlns="http://www.w3.org/2000/svg" width="24" height="24" version="1.1" viewBox="0 0 24 24">
  <path d="M5.82,22.01c-.104,0-.207-.032-.294-.096-.154-.111-.231-.301-.199-.489l1.136-6.622L1.651,10.112c-.136-.133-.185-.332-.126-.512.059-.181.215-.313.404-.34l6.65-.966,2.974-6.024c.168-.342.729-.342.896,0l2.974,6.024,6.65.966c.188.027.345.159.403.34.059.181.01.379-.127.512l-4.812,4.691,1.136,6.622c.032.188-.045.378-.199.489-.154.113-.358.128-.526.038l-5.947-3.126-5.948,3.126c-.073.039-.153.058-.232.058Z" fill="#363636" stroke-width="0"/>
</svg>