<?xml version="1.0" encoding="utf-8"?>
<!-- Generator: Adobe Illustrator 26.0.1, SVG Export Plug-In . SVG Version: 6.00 Build 0)  -->
<svg version="1.1" id="Camada_1" xmlns="http://www.w3.org/2000/svg" xmlns:xlink="http://www.w3.org/1999/xlink" x="0px" y="0px"
	 viewBox="0 0 24 24" style="enable-background:new 0 0 24 24;" xml:space="preserve">
<path d="M3.4,13c0,0.3,0.1,0.6,0.3,0.9c0.9-1,2-1.8,3.3-2.3C6.4,10.9,6,10,6,9.1c0-0.8,0.2-1.6,0.7-2.3C6.8,6.7,7,6.6,7.1,6.6
	c1,0,1.9-0.5,2.5-1.3c0.2-0.2,0.5-0.3,0.7-0.1c0,0,0.1,0.1,0.1,0.1c0.5,0.8,1.4,1.3,2.4,1.3c0.2,0,0.4,0.1,0.5,0.2
	c0.2,0.3,0.4,0.6,0.5,1c0.2-0.1,0.5-0.2,0.8-0.3c0.2-0.3,0.4-0.6,0.7-0.8c-0.6-3-3.4-4.9-6.4-4.3C6.4,2.9,4.5,5.2,4.5,7.8
	c0,0.1,0,0.3,0,0.5c-0.6,0.3-1,1-1,1.7c0,0.4,0.1,0.8,0.3,1.1c0,0.1,0,0.1-0.1,0.1C3.5,11.8,3.4,12.4,3.4,13z"/>
<path d="M11,13c-0.3,0.1-0.6,0.1-0.9,0.1c-0.8,0-1.6-0.2-2.2-0.7c-3.2,1-5.4,3.9-5.4,7.2c0,0.3,0.2,0.5,0.5,0.5h9
	c-0.6-0.9-1-2.1-1-3.2L11,13z"/>
<path d="M21,11c-0.3,0-0.5,0.2-0.5,0.5v0.4h0v2.4c0,0.3-0.2,0.5-0.5,0.5c-0.3,0-0.5-0.2-0.5-0.5V9.6h0V9.1c0-0.3-0.3-0.6-0.6-0.6
	c-0.3,0-0.5,0.2-0.6,0.5v0.5V11v3.3c0,0.3-0.2,0.5-0.5,0.5c-0.3,0-0.5-0.2-0.5-0.5v-6h0V7.8c0-0.3-0.3-0.6-0.6-0.6
	c-0.3,0-0.5,0.2-0.5,0.5v0.5v1.3v4.7c0,0.3-0.2,0.5-0.5,0.5s-0.5-0.2-0.5-0.5v-3.5h0V9c0-0.3-0.2-0.5-0.5-0.5
	c-0.3,0-0.5,0.2-0.5,0.5v0.5v1.2v4.7c1.8,0.4,3.1,1.9,3.2,3.8c0,0.3-0.2,0.5-0.5,0.5c-0.3,0-0.5-0.2-0.5-0.5c0-2.4-2.6-2.9-2.8-2.9
	c-0.3,0-0.5-0.2-0.5-0.4v-3.2c0-0.3-0.3-0.6-0.6-0.6c-0.3,0-0.5,0.2-0.5,0.5V17c0,0.3,0,0.6,0.1,0.9c0.5,2.6,3.1,4.3,5.7,3.7
	c1.9-0.4,3.3-1.8,3.7-3.7c0.1-0.3,0.1-0.6,0.1-0.9v-3.7v-1.4v-0.4C21.6,11.2,21.3,11,21,11z"/>
</svg>
