<?xml version="1.0" encoding="UTF-8"?>
<svg id="Camada_1" xmlns="http://www.w3.org/2000/svg" width="24" height="24" version="1.1" viewBox="0 0 24 24">
  <!-- Generator: Adobe Illustrator 29.5.1, SVG Export Plug-In . SVG Version: 2.1.0 Build 141)  -->
  <path d="M12,1C5.925,1,1,5.925,1,12s4.925,11,11,11,11-4.925,11-11S18.075,1,12,1ZM17.713,9.701l-6.875,7c-.188.192-.445.299-.713.299s-.525-.108-.713-.299l-3.125-3.182c-.387-.394-.381-1.027.013-1.414.394-.387,1.027-.381,1.414.013l2.412,2.455,6.162-6.274c.387-.394,1.02-.4,1.414-.013.394.387.4,1.02.013,1.414Z" fill="#363636" fill-rule="evenodd"/>
</svg>