<?xml version="1.0" encoding="UTF-8"?>
<svg id="Camada_1" data-name="Camada 1" xmlns="http://www.w3.org/2000/svg" width="24" height="24" version="1.1" viewBox="0 0 24 24">
  <path d="M19.803,16.903l-.02.01c-.02-.05-.04-.11-.06-.17v-.02l-1.02-2.49c-.012-.03-.024-.06-.037-.09-.398-.972-.807-1.969-1.263-2.91-.1-.22-.23-.43-.4-.64-.2-.21-.45-.37-.73-.49-.485-.182-.992-.292-1.49-.354v-5.251c0-.65-.53-1.19-1.19-1.19h-6.71c-.66,0-1.19.53-1.19,1.19v5.025h-.53l-.13.02c-.59.16-1.01.7-1.02,1.32,0,.539.184.953.442,1.209-.174.22-.277.497-.282.791,0,.504.174.89.418,1.128-.175.212-.278.482-.278.772,0,.587.25,1.004.57,1.198-.265.212-.433.54-.44.892,0,.45.17.78.39.99h.02c.16.15.35.24.53.24h.31v.625c0,.65.53,1.19,1.19,1.19h6.72c.288,0,.545-.116.752-.289.759.56,1.635.94,2.568,1.084h.08v-.01c.041,0,.081-.005.12-.014,2.041.1,3.369-1.854,2.68-3.766ZM10.766,18.383h-1.4c-.3,0-.5-.2-.5-.5s.2-.5.5-.5h1.4c.2,0,.5.2.5.5s-.2.5-.5.5ZM6.693,15.828v-.187c.002-.02.01-.037.01-.058,0-.021-.008-.039-.01-.06v-1.448s0-.001,0-.002c0,0,0-.002,0-.002v-.306s0-.001,0-.002c0,0,0,0,0,0v-1.658s0,0,0,0c0,0,0-.001,0-.002v-.235s0-.002,0-.003c0,0,0,0,0-.002v-1.837s0,0,0-.002,0,0,0-.002v-3.503h7.09v3.067c-.621-.105-1.237-.221-1.81-.362-.37-.13-.75-.14-1.21,0-.51.26-.79.83-.67,1.41.11.46.4.87.81,1.12.33.2.68.35,1.03.45l1.86.617v3.008h-7.1Z" fill="#363636" stroke-width="0"/>
</svg>