<?xml version="1.0" encoding="UTF-8"?>
<svg xmlns="http://www.w3.org/2000/svg" width="24" height="24" version="1.1" viewBox="0 0 24 24">

      <path class="cls-1" d="M22.88,10.804c-.268-1.614-1.05-3.311-2.914-4.281-.005-.003-.011-.005-.016-.008-2.54-1.206-4.869-.561-6.687.011-.108.034-.214.068-.318.101-.791.251-1.445.459-2.014.511-.598.055-1.019-.069-1.363-.485-.075-.097-.112-.233-.082-.478.029-.238.11-.499.21-.823l.034-.112c.199-.649.503-1.64-.149-2.454h0c-.43-.629-1.19-.811-1.862-.784-.694.028-1.434.277-1.995.673C2.807,4.71,1,8.066,1,11.821c0,6.192,4.921,11.178,11.057,11.178,5.031,0,9.349-3.458,10.655-8.132l.003-.01.003-.011c.2-.862.429-2.438.162-4.042ZM4,11.499c0-.828.672-1.5,1.5-1.5s1.5.672,1.5,1.5-.672,1.5-1.5,1.5-1.5-.672-1.5-1.5ZM8,17.999c-.828,0-1.5-.672-1.5-1.5s.672-1.5,1.5-1.5,1.5.672,1.5,1.5-.672,1.5-1.5,1.5ZM13,19.999c-.828,0-1.5-.672-1.5-1.5s.672-1.5,1.5-1.5,1.5.672,1.5,1.5-.672,1.5-1.5,1.5ZM17,14.999c-1.381,0-2.5-1.119-2.5-2.5s1.119-2.5,2.5-2.5,2.5,1.119,2.5,2.5-1.119,2.5-2.5,2.5Z"/>

</svg>