<?xml version="1.0" encoding="UTF-8"?>
<svg id="Camada_1" data-name="Camada 1" xmlns="http://www.w3.org/2000/svg" width="24" height="24" version="1.1" viewBox="0 0 24 24">
  <path d="M22.78,9.797c-.436-2.132-1.494-4.086-3.041-5.617h0c-1.02-1.027-2.236-1.838-3.576-2.384-1.34-.546-2.777-.817-4.224-.796-1.444.004-2.874.292-4.207.849-1.333.556-2.543,1.37-3.562,2.394C2.113,6.312.962,9.113.97,12.03c.008,2.917,1.175,5.712,3.243,7.769,2.069,2.057,4.87,3.209,7.787,3.201h.06c2.176-.011,4.3-.667,6.102-1.885,1.803-1.218,3.204-2.944,4.026-4.958.822-2.015,1.028-4.228.592-6.36ZM18.44,7.341c-.014.064-.042.125-.08.179l-6.55,9.27c-.077.111-.172.209-.28.29-.252.186-.557.287-.87.29-.187-.003-.372-.043-.544-.119-.172-.076-.327-.185-.456-.321l-4-4.22c-.046-.047-.084-.102-.109-.163-.025-.061-.038-.126-.038-.192s.013-.131.038-.192c.025-.061.062-.116.109-.163.045-.047.1-.084.16-.109.06-.025.125-.038.19-.038s.13.012.19.038.114.062.16.109l4.01,4.22c.08.068.181.105.285.105s.205-.037.285-.105l6.63-9.34h0c.083-.093.198-.152.323-.163.125-.011.249.026.347.103.054.038.1.086.135.142.035.056.059.118.07.183.011.065.009.132-.006.196Z" fill="#363636" stroke-width="0"/>
</svg>