<svg width="24" height="24" viewBox="0 0 24 24" fill="none" xmlns="http://www.w3.org/2000/svg">
<path d="M19.31 13.48C19.302 13.48 10.698 13.48 6.41002 13.48L12.22 19.29C12.767 19.832 12.521 20.763 11.779 20.965C11.694 20.988 11.607 21 11.52 21C11.254 21.002 10.999 20.897 10.81 20.71L3.29002 13.19C2.90202 12.8 2.90202 12.17 3.29002 11.78C3.29202 11.778 3.29402 11.776 3.29602 11.774L10.81 4.26C11.395 3.759 12.302 4.079 12.443 4.836C12.499 5.133 12.417 5.44 12.22 5.67L6.41802 11.48H19.31C20.08 11.48 20.561 12.313 20.176 12.98C19.997 13.289 19.667 13.48 19.31 13.48Z" fill="#363636"/>
</svg>
