<?xml version="1.0" encoding="UTF-8"?>
<svg id="Camada_1" xmlns="http://www.w3.org/2000/svg" width="24" height="24" version="1.1" viewBox="0 0 24 24">
  <!-- Generator: Adobe Illustrator 29.1.0, SVG Export Plug-In . SVG Version: 2.1.0 Build 142)  -->
  <path d="M19,7h.586l-1.293,1.293c-.391.391-.391,1.024,0,1.414s1.024.391,1.414,0l3-3c.391-.391.391-1.024,0-1.414l-3-3c-.391-.391-1.024-.391-1.414,0-.391.391-.391,1.024,0,1.414l1.293,1.293h-.586c-4.411,0-6.698,3.242-8.682,6.055-.087.123-.173.246-.259.367-2.147,3.031-4.126,5.578-8.059,5.578-.552,0-1,.448-1,1s.448,1,1,1c5.067,0,7.588-3.453,9.691-6.422l.071-.1c2.17-3.064,3.88-5.478,7.238-5.478Z" fill="#363636"/>
  <path d="M19.707,14.293c-.391-.391-1.024-.391-1.414,0s-.391,1.024,0,1.414l1.293,1.293h-.586c-1.812,0-3.138-.705-4.313-1.817-.401-.379-1.034-.362-1.414.039-.38.401-.362,1.034.039,1.414,1.454,1.375,3.25,2.364,5.687,2.364h.586l-1.293,1.293c-.391.391-.391,1.024,0,1.414s1.024.391,1.414,0l3-3c.391-.391.391-1.024,0-1.414l-3-3Z" fill="#363636"/>
  <path d="M2,7c2.318,0,3.94.884,5.31,2.191.4.381,1.033.366,1.414-.033.381-.4.366-1.033-.033-1.414-1.662-1.586-3.758-2.744-6.69-2.744-.552,0-1,.448-1,1s.448,1,1,1Z" fill="#363636"/>
</svg>