<svg width="24" height="24" viewBox="0 0 24 24" fill="none" xmlns="http://www.w3.org/2000/svg">
<path d="M4.69002 12.52C3.92002 12.52 3.43901 11.687 3.82401 11.02C4.00301 10.711 4.33302 10.52 4.69002 10.52H17.59L11.78 4.71002C11.386 4.31902 11.386 3.68102 11.78 3.29002C12.17 2.90202 12.8 2.90202 13.19 3.29002L20.547 10.647C20.605 10.685 20.659 10.729 20.71 10.78C20.864 10.935 20.957 11.127 20.989 11.327C21.066 11.729 20.889 12.159 20.522 12.378L13.19 19.71C13.001 19.897 12.746 20.002 12.48 20C11.71 19.989 11.241 19.149 11.635 18.488C11.676 18.42 11.724 18.357 11.78 18.3L17.552 12.52H4.69002Z" fill="#363636"/>
</svg>
