<?xml version="1.0" encoding="UTF-8"?>
<svg xmlns="http://www.w3.org/2000/svg" width="24" height="24" version="1.1" viewBox="0 0 24 24">

        <path class="cls-1" d="M12,2.5c0-.276-.224-.5-.5-.5h-6c-.276,0-.5.224-.5.5v2h7v-2Z"/>
        <path class="cls-1" d="M8,16.5v-3c0-.398.158-.779.439-1.061.281-.281.663-.439,1.061-.439,1.67,0,3.274.643,4.481,1.792l.019-.033V5.5c0-.276-.224-.5-.5-.5H3.5c-.276,0-.5.224-.5.5v13c0,1.933,1.567,3.5,3.5,3.5h4.536c-.407-.256-.787-.558-1.132-.904-1.219-1.219-1.904-2.872-1.904-4.596Z"/>
        <path class="cls-1" d="M20.854,11.146c-.094-.094-.221-.146-.354-.146-1.724,0-3.377.685-4.596,1.904-.79.79-1.356,1.763-1.656,2.819-.236-.403-.523-.777-.859-1.112-1.031-1.031-2.43-1.611-3.889-1.611-.133,0-.26.053-.354.146-.094.094-.146.221-.146.354v3c0,1.459.579,2.858,1.611,3.889,1.031,1.031,2.43,1.611,3.889,1.611,1.724,0,3.377-.685,4.596-1.904s1.904-2.872,1.904-4.596v-4c0-.133-.053-.26-.146-.354Z"/>

</svg>