<svg xmlns="http://www.w3.org/2000/svg" width="24" height="24" viewBox="0 0 24 24"><path d="M12,14.85h0a1.35,1.35,0,1,0-.18,2.69,1.36,1.36,0,0,0,1.44-1.26v-.09A1.3,1.3,0,0,0,12,14.85Z"/><path d="M18.42,10.63c.16.15.31.3.45.46a.44.44,0,0,0,.62,0l0,0a.52.52,0,0,0,0-.68A10.29,10.29,0,0,0,5,9.84l-.5.5h0a.49.49,0,0,0,0,.68.43.43,0,0,0,.61,0l0,0A9.41,9.41,0,0,1,18.42,10.63Z"/><path d="M21.87,7.9A13.4,13.4,0,0,0,2.94,7c-.28.26-.55.52-.81.8a.5.5,0,0,0,0,.68.44.44,0,0,0,.62,0l0,0a12.53,12.53,0,0,1,17.71-.69c.25.24.5.49.74.75a.43.43,0,0,0,.61,0l0,0A.52.52,0,0,0,21.87,7.9Z"/><path d="M17.51,12.34a4.08,4.08,0,0,0-1,.14,7,7,0,0,0-9.29.22L7,13a.5.5,0,0,0,0,.68.43.43,0,0,0,.61,0l0,0a6.1,6.1,0,0,1,7.9-.76,4,4,0,1,0,2-.56Zm2.16,5.52a.5.5,0,0,1,0,.71.48.48,0,0,1-.7,0l-1.46-1.46-1.46,1.46a.5.5,0,0,1-.35.15.51.51,0,0,1-.36-.15.51.51,0,0,1,0-.71L16.8,16.4,15.34,15a.51.51,0,0,1,0-.71.5.5,0,0,1,.71,0l1.46,1.46L19,14.24a.48.48,0,0,1,.7,0,.5.5,0,0,1,0,.71L18.21,16.4Z"/></svg>