<svg width="24" height="24" viewBox="0 0 24 24" fill="none" xmlns="http://www.w3.org/2000/svg">
<path d="M11.4802 4.69002C11.4802 3.92002 12.3132 3.43901 12.9802 3.82401C13.2892 4.00301 13.4802 4.33302 13.4802 4.69002V17.59L19.2902 11.78C19.6812 11.386 20.3192 11.386 20.7102 11.78C21.0982 12.17 21.0982 12.8 20.7102 13.19L13.2332 20.667C13.1112 20.804 12.9482 20.911 12.7492 20.965C12.6612 20.989 12.5712 21.001 12.4802 21C12.1822 20.999 11.9282 20.873 11.7512 20.681L4.26024 13.19C3.87224 12.8 3.87224 12.17 4.26024 11.78C4.65124 11.386 5.28924 11.386 5.68024 11.78L11.4802 17.58V4.69002Z" fill="#363636"/>
</svg>
