<?xml version="1.0" encoding="UTF-8"?>
<svg xmlns="http://www.w3.org/2000/svg" width="24" height="24" version="1.1" viewBox="0 0 24 24">
  <defs>
    <style>
      .cls-1 {
        fill: #363636;
      }
    </style>
  </defs>
  <!-- Generator: Adobe Illustrator 28.6.0, SVG Export Plug-In . SVG Version: 1.2.0 Build 709)  -->
  <g>
    <g id="Camada_1">
      <g>
        <circle class="cls-1" cx="11" cy="3" r="1"/>
        <circle class="cls-1" cx="8.5" cy="6.5" r="2.5"/>
        <rect class="cls-1" x="7" y="12" width="10" height="5" rx="1.5" ry="1.5"/>
        <path class="cls-1" d="M21.976,18.27c-.307-2.487-.309-5.003-.006-7.491.066-.5.019-1.009-.138-1.489-.157-.48-.42-.918-.769-1.281-.35-.363-.776-.641-1.249-.812s-.977-.232-1.476-.176h-.003c-1.984.232-3.822.336-5.478.362l-.976.027c-.401,1.492-1.762,2.59-3.381,2.59-1.76,0-3.216-1.299-3.463-2.99-.288.022-.573.083-.847.181-.468.168-.893.441-1.241.798s-.612.789-.772,1.264c-.16.474-.211.979-.151,1.476h0c.154,1.252.232,2.511.232,3.772-.001,1.244-.078,2.487-.229,3.721-.066.5-.019,1.009.138,1.489.157.48.42.918.769,1.281.35.363.777.641,1.249.812.472.171.977.232,1.476.176h.002c4.214-.492,8.47-.492,12.684,0h.002c.494.056.994-.002,1.463-.17.468-.168.893-.441,1.241-.798.348-.357.612-.789.772-1.264.16-.474.211-.979.151-1.476h0ZM18,15.5c0,1.381-1.119,2.5-2.5,2.5h-7c-1.381,0-2.5-1.119-2.5-2.5v-2c0-1.381,1.119-2.5,2.5-2.5h7c1.381,0,2.5,1.119,2.5,2.5v2Z"/>
        <circle class="cls-1" cx="14.5" cy="4.5" r="1.5"/>
      </g>
    </g>
  </g>
</svg>