<?xml version="1.0" encoding="UTF-8"?>
<svg xmlns="http://www.w3.org/2000/svg" width="24" height="24" version="1.1" viewBox="0 0 24 24">

        <path  d="M10.729,20.493c-2.912-.141-5.229-2.547-5.229-5.493,0-3.038,2.462-5.5,5.5-5.5,1.555,0,2.96.646,3.96,1.683.494-.12,1.009-.183,1.54-.183.528,0,1.041.063,1.532.182-.901-1.656-2.371-2.959-4.147-3.646.973-.151,1.855-.376,2.598-.661.712-.273,1.323-.61,1.764-1.01.441-.4.754-.903.754-1.49s-.312-1.09-.754-1.49c-.441-.4-1.052-.737-1.764-1.01-1.428-.547-3.366-.875-5.482-.875s-4.055.328-5.482.875c-.712.273-1.323.61-1.764,1.01-.441.4-.754.903-.754,1.49s.312,1.09.754,1.49c.441.4,1.052.737,1.764,1.01.743.285,1.625.51,2.598.661-2.993,1.157-5.115,4.063-5.115,7.464,0,4.418,3.582,8,8,8,.6,0,1.185-.066,1.748-.192-.844-.598-1.539-1.391-2.019-2.315Z"/>
        <circle  cx="16.5" cy="17.5" r="5.5"/>
        <path  d="M13.886,11.547c-.781-.654-1.788-1.047-2.886-1.047-2.485,0-4.5,2.015-4.5,4.5,0,2.246,1.645,4.107,3.796,4.445-.192-.614-.296-1.268-.296-1.945,0-2.66,1.598-4.947,3.886-5.953Z"/>
   
</svg>