<?xml version="1.0" encoding="UTF-8"?>
<svg xmlns="http://www.w3.org/2000/svg" width="24" height="24" version="1.1" viewBox="0 0 24 24">
  <defs>
    <style>
      .cls-1 {
        fill: #363636;
      }
    </style>
  </defs>
  <!-- Generator: Adobe Illustrator 28.6.0, SVG Export Plug-In . SVG Version: 1.2.0 Build 709)  -->
  <g>
    <g id="Camada_1">
      <g>
        <path class="cls-1" d="M22.974,11.244c-.744.192-1.564.031-2.166-.569l-.059-.059c-.064.065-.13.13-.198.195-.862.834-2.243.834-3.105,0-.068-.066-.134-.131-.198-.195-.064.065-.13.13-.198.195-.862.834-2.243.834-3.105,0-.068-.066-.134-.131-.198-.195-.064.065-.13.13-.198.195-.862.834-2.243.834-3.105,0-.068-.066-.134-.131-.198-.195-.064.065-.13.13-.198.195-.862.834-2.243.834-3.105,0-.068-.066-.134-.131-.198-.195-.064.065-.13.13-.198.195-.862.834-2.243.834-3.105,0-.068-.066-.134-.131-.198-.195l-.059.059c-.602.6-1.421.761-2.166.569-.017.25-.026.502-.026.756,0,1.593.338,3.106.947,4.473.237-.211.447-.411.633-.602-.813-1.013-1.105-1.888-.96-2.601.202-.993,1.156-1.363,1.907-1.248.389.06.78.25,1.052.595.278.354.392.822.305,1.357-.09.552-.393,1.184-.966,1.898.071.073.145.147.224.222.474.459,1.24.459,1.714,0,.078-.076.153-.15.224-.222-.258-.321-.461-.625-.614-.912-.295-.553-.419-1.065-.371-1.522.048-.467.272-.838.591-1.085.311-.241.695-.352,1.063-.352s.752.111,1.063.352c.319.247.543.618.591,1.085.047.457-.076.969-.371,1.522-.153.287-.356.591-.614.912.071.073.145.147.224.222.474.459,1.24.459,1.714,0,.078-.076.153-.15.224-.222-.258-.321-.461-.625-.614-.912-.295-.553-.419-1.065-.371-1.522.048-.467.272-.838.591-1.085.311-.241.695-.352,1.063-.352s.752.111,1.063.352c.319.247.543.618.591,1.085.047.457-.076.969-.371,1.522-.153.287-.356.591-.614.912.071.073.145.147.224.222.474.459,1.24.459,1.714,0,.078-.076.153-.15.224-.222-.258-.321-.461-.625-.614-.912-.295-.553-.419-1.065-.371-1.522.048-.467.272-.838.591-1.085.311-.241.695-.352,1.063-.352s.752.111,1.063.352c.319.247.543.618.591,1.085.047.457-.076.969-.371,1.522-.153.287-.356.591-.614.912.071.073.145.147.224.222.474.459,1.24.459,1.714,0,.078-.076.153-.15.224-.222-.258-.321-.461-.625-.614-.912-.295-.553-.419-1.065-.371-1.522.048-.467.272-.838.591-1.085.311-.241.695-.352,1.063-.352s.752.111,1.063.352c.319.247.543.618.591,1.085.047.457-.076.969-.371,1.522-.153.287-.356.591-.614.912.071.073.145.147.224.222.474.459,1.24.459,1.714,0,.078-.076.153-.15.224-.222-.573-.714-.877-1.346-.966-1.898-.087-.534.027-1.003.305-1.357.271-.345.662-.536,1.052-.595.751-.115,1.706.255,1.907,1.248.145.714-.147,1.588-.96,2.601.187.191.397.392.633.602.609-1.367.947-2.88.947-4.473,0-.254-.009-.506-.026-.756Z"/>
        <path class="cls-1" d="M20.552,16.812c-.862.834-2.243.834-3.105,0-.068-.066-.134-.131-.198-.195-.064.065-.13.13-.198.195-.862.834-2.243.834-3.105,0-.068-.066-.134-.131-.198-.195-.064.065-.13.13-.198.195-.862.834-2.243.834-3.105,0-.068-.066-.134-.131-.198-.195-.064.065-.13.13-.198.195-.862.834-2.243.834-3.105,0-.068-.066-.134-.131-.198-.195-.064.065-.13.13-.198.195-.862.834-2.243.834-3.105,0-.068-.066-.134-.131-.198-.195-.248.251-.527.51-.838.779,1.887,3.345,5.474,5.605,9.588,5.605s7.702-2.259,9.588-5.605c-.311-.268-.59-.528-.838-.779-.064.065-.13.13-.198.195Z"/>
        <path class="cls-1" d="M22.859,10.237c-.112-.697-.29-1.372-.527-2.018-.064.241-.167.493-.307.754-.152.283-.352.582-.606.898.031.032.063.064.096.097.35.349.873.44,1.344.269Z"/>
        <path class="cls-1" d="M4.274,6.322c.322.233.557.59.622,1.047.064.448-.041.951-.313,1.493-.158.315-.377.652-.664,1.009.071.073.145.147.224.222.474.459,1.24.459,1.714,0,.078-.076.153-.15.224-.222-.258-.321-.461-.625-.614-.912-.295-.553-.419-1.065-.371-1.522.048-.467.272-.838.591-1.085.311-.241.695-.352,1.063-.352s.752.111,1.063.352c.319.247.543.618.591,1.085.047.457-.076.969-.371,1.522-.153.287-.356.591-.614.912.071.073.145.147.224.222.474.459,1.24.459,1.714,0,.078-.076.153-.15.224-.222-.258-.321-.461-.625-.614-.912-.295-.553-.419-1.065-.371-1.522.048-.467.272-.838.591-1.085.311-.241.695-.352,1.063-.352s.752.111,1.063.352c.319.247.543.618.591,1.085.047.457-.076.969-.371,1.522-.153.287-.356.591-.614.912.071.073.145.147.224.222.474.459,1.24.459,1.714,0,.078-.076.153-.15.224-.222-.258-.321-.461-.625-.614-.912-.295-.553-.419-1.065-.371-1.522.048-.467.272-.838.591-1.085.311-.241.695-.352,1.063-.352s.752.111,1.063.352c.319.247.543.618.591,1.085.047.457-.076.969-.371,1.522-.153.287-.356.591-.614.912.071.073.145.147.224.222.474.459,1.24.459,1.714,0,.078-.076.153-.15.224-.222-.258-.321-.461-.625-.614-.912-.295-.553-.419-1.065-.371-1.522.048-.467.272-.838.591-1.085.311-.241.695-.352,1.063-.352s.752.111,1.063.352c.319.247.543.618.591,1.085.047.457-.076.969-.371,1.522-.153.287-.356.591-.614.912.071.073.145.147.224.222.474.459,1.24.459,1.714,0,.078-.076.153-.15.224-.222-.287-.357-.506-.694-.664-1.009-.272-.542-.377-1.046-.313-1.493.065-.457.3-.813.622-1.047.314-.228.696-.329,1.061-.322.161.003.324.028.482.075-1.955-3.052-5.376-5.075-9.27-5.075S4.685,3.023,2.73,6.075c.158-.047.322-.072.482-.075.366-.007.747.094,1.061.322Z"/>
        <path class="cls-1" d="M2.485,9.967c.033-.033.065-.065.096-.097-.254-.316-.454-.615-.606-.898-.141-.261-.243-.513-.307-.754-.237.646-.414,1.321-.527,2.018.472.171.994.08,1.344-.269Z"/>
        <path class="cls-1" d="M20.767,7c-.359-.007-.627.188-.673.51-.042.293.068.819.656,1.594.56-.738.688-1.253.661-1.554-.031-.343-.291-.542-.643-.549Z"/>
        <path class="cls-1" d="M16.59,7.539c-.031.299.093.818.66,1.564.566-.747.691-1.265.66-1.564-.035-.34-.301-.539-.66-.539s-.625.2-.66.539Z"/>
        <path class="cls-1" d="M13.09,7.539c-.031.299.093.818.66,1.564.566-.747.691-1.265.66-1.564-.035-.34-.301-.539-.66-.539s-.625.2-.66.539Z"/>
        <path class="cls-1" d="M9.59,7.539c-.031.299.093.818.66,1.564.566-.747.691-1.265.66-1.564-.035-.34-.301-.539-.66-.539s-.625.2-.66.539Z"/>
        <path class="cls-1" d="M6.09,7.539c-.031.299.093.818.66,1.564.566-.747.691-1.265.66-1.564-.035-.34-.301-.539-.66-.539s-.625.2-.66.539Z"/>
        <path class="cls-1" d="M3.906,7.51c-.046-.322-.315-.517-.673-.51-.353.007-.613.207-.644.549-.027.301.101.816.661,1.554.588-.775.698-1.301.656-1.594Z"/>
        <path class="cls-1" d="M21.399,13.468c-.065-.32-.386-.518-.776-.459-.182.028-.327.111-.417.224-.083.105-.153.282-.105.578.051.316.236.747.649,1.291.617-.813.706-1.352.649-1.635Z"/>
        <path class="cls-1" d="M17.91,13.539c-.035-.34-.301-.539-.66-.539s-.625.2-.66.539c-.031.3.093.818.66,1.564.566-.747.691-1.265.66-1.564Z"/>
        <path class="cls-1" d="M14.41,13.539c-.035-.34-.301-.539-.66-.539s-.625.2-.66.539c-.031.3.093.818.66,1.564.566-.747.691-1.265.66-1.564Z"/>
        <path class="cls-1" d="M10.91,13.539c-.035-.34-.301-.539-.66-.539s-.625.2-.66.539c-.031.3.093.818.66,1.564.566-.747.691-1.265.66-1.564Z"/>
        <path class="cls-1" d="M7.41,13.539c-.035-.34-.301-.539-.66-.539s-.625.2-.66.539c-.031.3.093.818.66,1.564.566-.747.691-1.265.66-1.564Z"/>
        <path class="cls-1" d="M3.794,13.234c-.089-.114-.235-.197-.417-.224-.39-.06-.711.139-.776.459-.058.284.032.822.649,1.635.413-.544.597-.975.649-1.291.048-.297-.022-.473-.105-.578Z"/>
      </g>
    </g>
  </g>
</svg>