<?xml version="1.0" encoding="UTF-8"?>
<svg xmlns="http://www.w3.org/2000/svg" width="24" height="24" version="1.1" viewBox="0 0 24 24">
  <defs>
    <style>
      .cls-1 {
        fill: #363636;
      }
    </style>
  </defs>
  <!-- Generator: Adobe Illustrator 28.6.0, SVG Export Plug-In . SVG Version: 1.2.0 Build 709)  -->
  <g>
    <g id="Camada_1">
      <g>
        <path class="cls-1" d="M19.83,4.17c-.48-.48-1.02-.888-1.601-1.216l-1.725,3.235c-.13.244-.433.336-.676.206s-.336-.433-.206-.676l1.704-3.196c-.862-.342-1.789-.523-2.734-.523-.208,0-.395.129-.468.324l-2.318,6.182,3.689,3.689,6.182-2.318c.195-.073.324-.26.324-.468,0-1.965-.781-3.849-2.17-5.239Z"/>
        <path class="cls-1" d="M2.518,18.942c-.332.336-.518.789-.518,1.262,0,.476.189.933.526,1.27s.794.526,1.27.526c.473,0,.926-.186,1.262-.518l9.519-8.789-3.27-3.27L2.518,18.942Z"/>
      </g>
    </g>
  </g>
</svg>