<svg xmlns="http://www.w3.org/2000/svg" width="24" height="24" viewBox="0 0 24 24"><defs><style>.a{fill:#1c120e;}</style></defs><path class="a" d="M12,1A11,11,0,1,0,23,12,11,11,0,0,0,12,1ZM8.31,15.05c-.36-.43-1.52-.14-1.77-.47a5.46,5.46,0,0,1-.87-2.09,4.38,4.38,0,0,1,1.67-2c.32,0,.57,1.12,1.08,1.23s1.91-.25,2.38-.07,1,1.77,1.34,1.84,1.06-.36,1.25.11A2.61,2.61,0,0,1,13,15.66c-.36.3-1.3,1.27-1.33,1.74s-.55.72-.76,1.05-.65.5-.65,1a8.32,8.32,0,0,1-.15,1.27c-.36.25-.94-.08-1.15-.51a6.69,6.69,0,0,1-.62-1.81C8.28,17.94,8.67,15.49,8.31,15.05ZM14.18,3.16c.12-.36,1.21-.32,1.46-.4l.12,0A10,10,0,0,1,19.14,5a2.67,2.67,0,0,1-.38.09A11.05,11.05,0,0,1,16,4.18c-.24-.08-1.34.61-1.82.32S14.06,3.53,14.18,3.16Zm-5-.3c.31.2,2.18.35,2.23.81S10.41,4.73,10.1,5a4.64,4.64,0,0,0-.91,1.72c-.1.51-1.87.86-2.23,1s-2,.11-2.38.36.31,1.37.61,1.57.15,1.06-.25,1.32a7.53,7.53,0,0,1-1.78-1,11.17,11.17,0,0,1-.62-1.28A10.08,10.08,0,0,1,8.72,2.54ZM20.9,15.66c0-.28-1.06-1.75-1.17-2.21a6,6,0,0,0-.5-2c-.36-.45-1.67-.45-2-.4a9.44,9.44,0,0,1-2.43-.86,5.8,5.8,0,0,1-.56-2.39,3.53,3.53,0,0,1,.41-1.19c.1-.27,1.67-.27,2-.27a3.38,3.38,0,0,1,1.57,1.06c.21.35,1.83.4,2.13.4A2.32,2.32,0,0,0,21,7.6a9.9,9.9,0,0,1,.07,8.65A4.51,4.51,0,0,1,20.9,15.66Z"/></svg>