<svg width="24" height="24" viewBox="0 0 24 24" fill="none" xmlns="http://www.w3.org/2000/svg">
<path d="M11.5449 1.29297L9.04492 6.79297C9.03012 6.82552 9.01923 6.85978 9.01172 6.89453L9 7V17C9 17.0713 9.01541 17.1421 9.04492 17.207L11.5449 22.707C11.5449 22.707 11.566 22.7525 11.5996 22.8184L6.18359 18.3867C6.06754 18.2918 6.00001 18.15 6 18V6L6.0127 5.88965C6.03707 5.78201 6.09657 5.68449 6.18359 5.61328L11.5898 1.18848L11.5449 1.29297Z" fill="#363636"/>
<path d="M17.8164 5.61328C17.9325 5.70825 18 5.85004 18 6V18C18 18.15 17.9325 18.2918 17.8164 18.3867L12.3994 22.8184C12.4332 22.7523 12.4551 22.707 12.4551 22.707L14.9551 17.207C14.9846 17.1421 15 17.0713 15 17V7C15 6.92865 14.9846 6.85792 14.9551 6.79297L12.4551 1.29297L12.4092 1.18945L17.8164 5.61328Z" fill="#363636"/>
<path d="M12 21.291L10.2764 17.5H13.7236L12 21.291Z" fill="#363636"/>
<path d="M14 16.5H10V7.5H14V16.5Z" fill="#363636"/>
<path d="M13.7236 6.5H10.2764L12 2.70801L13.7236 6.5Z" fill="#363636"/>
</svg>
