<?xml version="1.0" encoding="UTF-8"?>
<svg xmlns="http://www.w3.org/2000/svg" width="24" height="24" version="1.1" viewBox="0 0 24 24">

        <path  d="M15,1.5c0-.276-.224-.5-.5-.5h-4c-.276,0-.5.224-.5.5v3.5h5V1.5Z"/>
        <path  d="M15,7.293v-1.293h-5v1.293l-1.682,1.682c-.844.844-1.318,1.989-1.318,3.182v.343c1.22,0,2.236.874,2.456,2.029.186.024.368.063.544.115v-3.145c0-.276.224-.5.5-.5h4s.5.224.5.5v8c0,.276-.224.5-.5.5h-2.627c-.633.907-1.683,1.5-2.873,1.5-.752,0-1.439-.236-2-.635v.635c0,.828.672,1.5,1.5,1.5h8c.828,0,1.5-.672,1.5-1.5v-9.343c0-1.194-.474-2.338-1.318-3.182l-1.682-1.682Z"/>
        <path  d="M14,19v-7h-3v3.127c.907.633,1.5,1.683,1.5,2.873,0,.347-.051.683-.145,1h1.645Z"/>
        <path  d="M12,18c0-1.657-1.343-3-3-3,0-1.105-.895-2-2-2-.744,0-1.392.406-1.736,1.007-1.232.152-2.264,1.2-2.264,2.493,0,1.381,1.119,2.5,2.5,2.5.232,0,.457-.032.671-.091.377,1.208,1.483,2.091,2.829,2.091,1.657,0,3-1.343,3-3Z"/>
        <path  d="M19.917,10.143c.055-.205.083-.421.083-.643,0-1.381-1.119-2.5-2.5-2.5-.585,0-1.123.201-1.549.537l1.084,1.084c.938.938,1.464,2.209,1.464,3.536v3.801c.163.027.33.042.5.042,1.657,0,3-1.343,3-3,0-1.337-.875-2.47-2.083-2.857Z"/>
        <circle  cx="20" cy="4" r="2"/>
        <circle  cx="3.5" cy="11.5" r="1.5"/>

</svg>