<?xml version="1.0" encoding="UTF-8"?>
<svg xmlns="http://www.w3.org/2000/svg" width="24" height="24" version="1.1" viewBox="0 0 24 24">
  <defs>
    <style>
      .cls-1 {
        fill: #363636;
      }
    </style>
  </defs>
  <!-- Generator: Adobe Illustrator 28.6.0, SVG Export Plug-In . SVG Version: 1.2.0 Build 709)  -->
  <g>
    <g id="Camada_1">
      <g>
        <path class="cls-1" d="M18.362,9.231l3.911-3.928c.925-.929.975-2.414.116-3.404l-.037-.042c-.951-1.094-2.63-1.153-3.655-.128l-3.918,3.919,3.583,3.583Z"/>
        <path class="cls-1" d="M15.763,15.505c.215,0,.406-.138.474-.342l1.661-4.983-4.019-4.019-4.982,1.661c-.204.068-.342.259-.342.474,0,1.912.759,3.745,2.111,5.097s3.185,2.111,5.097,2.111Z"/>
        <path class="cls-1" d="M21.977,8.69c-.266.074-.421.35-.347.616.596,2.129.469,4.395-.36,6.445-.829,2.049-2.314,3.766-4.223,4.882-1.908,1.116-4.133,1.568-6.326,1.285-2.193-.283-4.23-1.284-5.793-2.847-1.563-1.563-2.564-3.6-2.847-5.793-.283-2.193.169-4.417,1.285-6.325s2.833-3.393,4.882-4.223c2.049-.829,4.316-.956,6.445-.36.266.074.542-.081.616-.347s-.081-.542-.347-.616c-2.342-.655-4.835-.516-7.089.396S3.731,4.349,2.504,6.448s-1.725,4.546-1.414,6.958c.311,2.412,1.412,4.653,3.132,6.372,1.72,1.72,3.96,2.821,6.372,3.132s4.859-.186,6.958-1.414c2.099-1.227,3.733-3.116,4.645-5.37.912-2.254,1.051-4.747.396-7.089-.074-.266-.35-.421-.616-.347Z"/>
        <path class="cls-1" d="M4.889,8.346c-.515.999-.813,2.096-.875,3.218-.062,1.122.113,2.245.515,3.295.401,1.05,1.019,2.003,1.814,2.798.795.795,1.748,1.413,2.798,1.814,1.05.401,2.173.577,3.295.515,1.122-.062,2.219-.36,3.218-.875.999-.515,1.879-1.234,2.581-2.112h-2.235c-2.386-.003-4.674-.952-6.361-2.639-1.687-1.687-2.636-3.975-2.639-6.361v-2.235c-.877.702-1.597,1.582-2.111,2.581Z"/>
      </g>
    </g>
  </g>
</svg>