<?xml version="1.0" encoding="UTF-8"?>
<svg xmlns="http://www.w3.org/2000/svg" width="24" height="24" version="1.1" viewBox="0 0 24 24">
  <defs>
    <style>
      .cls-1 {
        fill: #363636;
      }
    </style>
  </defs>
  <!-- Generator: Adobe Illustrator 28.7.1, SVG Export Plug-In . SVG Version: 1.2.0 Build 142)  -->
  <g>
    <g id="Camada_1">
      <g>
        <circle class="cls-1" cx="12.5" cy="3.5" r="2.5"/>
        <path class="cls-1" d="M17.349,16.833c1.233-2.023.673-4.68-1.307-6.027-.078-.053-.157-.103-.237-.151l-.44-1.76c-.279-1.113-1.278-1.895-2.426-1.895h-1.2c-.949,0-1.814.536-2.239,1.383l-.999,1.999c-.34.679-.116,1.493.495,1.91l3.027,1.514c.494.247.694.848.447,1.342s-.848.694-1.342.447l-2.127-1.063-.991,4.87c-.03.147.008.3.103.416.095.116.237.184.387.184h2.5v2.5c0,.276.224.5.5.5h1c.215,0,.406-.138.474-.342l.886-2.658h3.64c.154,0,.299-.071.394-.192.095-.121.128-.28.091-.429l-.637-2.546Z"/>
      </g>
    </g>
  </g>
</svg>