<?xml version="1.0" encoding="UTF-8"?>
<svg xmlns="http://www.w3.org/2000/svg" width="24" height="24" version="1.1" viewBox="0 0 24 24">

        <path class="cls-1" d="M20,6.542c0-.542-.218-1.179-.553-1.834-.334-.654-.781-1.319-1.229-1.915-.448-.596-.896-1.123-1.233-1.501-.04-.044-.078-.087-.114-.127-.095-.105-.23-.165-.371-.165s-.276.06-.371.165c-.036.04-.074.083-.114.127-.336.378-.785.904-1.233,1.501-.448.597-.895,1.261-1.229,1.915-.335.655-.553,1.292-.553,1.834,0,2.193,1.75,3.458,3.5,3.458s3.5-1.265,3.5-3.458ZM16,8c-.552,0-1-.448-1-1s.448-1,1-1,1,.448,1,1-.448,1-1,1ZM16.5,5c-.276,0-.5-.224-.5-.5s.224-.5.5-.5.5.224.5.5-.224.5-.5.5Z"/>
        <path class="cls-1" d="M11.916,11.788c-.721-.96-1.444-1.809-1.987-2.419-.064-.072-.125-.14-.184-.205-.095-.105-.23-.165-.371-.165s-.276.06-.371.165c-.059.065-.12.133-.184.205-.543.609-1.265,1.458-1.986,2.419-.723.962-1.437,2.026-1.969,3.067-.537,1.049-.865,2.031-.865,2.838,0,3.363,2.674,5.307,5.375,5.307s5.375-1.944,5.375-5.307c0-.807-.328-1.789-.865-2.838-.532-1.041-1.247-2.105-1.969-3.067ZM8,20c-.552,0-1-.448-1-1s.448-1,1-1,1,.448,1,1-.448,1-1,1ZM9.5,15c-.276,0-.5-.224-.5-.5s.224-.5.5-.5.5.224.5.5-.224.5-.5.5ZM11,18c-.552,0-1-.448-1-1s.448-1,1-1,1,.448,1,1-.448,1-1,1Z"/>
        <path class="cls-1" d="M4.5,10.5c0-.552.448-1,1-1,.276,0,.5-.224.5-.5s-.224-.5-.5-.5c-.552,0-1-.448-1-1,0-.276-.224-.5-.5-.5s-.5.224-.5.5c0,.552-.448,1-1,1-.276,0-.5.224-.5.5s.224.5.5.5c.552,0,1,.448,1,1,0,.276.224.5.5.5s.5-.224.5-.5Z"/>
        <path class="cls-1" d="M8.5,4.5c.552,0,1,.448,1,1,0,.276.224.5.5.5s.5-.224.5-.5c0-.552.448-1,1-1,.276,0,.5-.224.5-.5s-.224-.5-.5-.5c-.552,0-1-.448-1-1,0-.276-.224-.5-.5-.5s-.5.224-.5.5c0,.552-.448,1-1,1-.276,0-.5.224-.5.5s.224.5.5.5Z"/>
        <path class="cls-1" d="M21.5,15.5c-.552,0-1-.448-1-1,0-.276-.224-.5-.5-.5s-.5.224-.5.5c0,.552-.448,1-1,1-.276,0-.5.224-.5.5s.224.5.5.5c.552,0,1,.448,1,1,0,.276.224.5.5.5s.5-.224.5-.5c0-.552.448-1,1-1,.276,0,.5-.224.5-.5s-.224-.5-.5-.5Z"/>

</svg>