<?xml version="1.0" encoding="UTF-8"?>
<svg xmlns="http://www.w3.org/2000/svg" width="24" height="24" version="1.1" viewBox="0 0 24 24">

        <path  d="M8,1.954c0-.276-.224-.5-.5-.5s-.5.224-.5.5v8.059h1V1.954Z"/>
        <path  d="M18.998,9.462c-.02-.26-.237-.462-.498-.462h-4c-.261,0-.479.201-.498.462l-1,13c-.011.139.037.276.132.378.095.102.228.16.367.16h6c.139,0,.272-.058.367-.16.095-.102.142-.239.132-.378l-1-13ZM14.348,18l.615-8h3.074l.615,8h-4.305Z"/>
        <path  d="M10.5,13h-1.5v-1.5c0-.276-.224-.5-.5-.5h-2c-.276,0-.5.224-.5.5v1.5h-1.5c-.142,0-.278.061-.373.167-.095.106-.14.247-.124.389l1,9c.028.253.242.445.497.445h4c.255,0,.469-.192.497-.445l1-9c.016-.141-.029-.283-.124-.389-.095-.106-.23-.167-.373-.167ZM9.052,22h-3.105l-.889-8h4.883l-.889,8Z"/>

</svg>