<svg xmlns="http://www.w3.org/2000/svg" viewBox="0 0 24 24"><g id="Create-Here"><path id="vector_wifi" data-name="vector wifi" d="M21.87,9.36A13.4,13.4,0,0,0,2.94,8.5c-.28.26-.55.52-.81.8a.5.5,0,0,0,0,.68.44.44,0,0,0,.62,0l0,0A12.52,12.52,0,0,1,20.49,9.3c.25.23.5.48.74.74a.43.43,0,0,0,.61,0l0,0A.52.52,0,0,0,21.87,9.36ZM7,14.43a.5.5,0,0,0,0,.68.42.42,0,0,0,.61,0l0,0a6.11,6.11,0,0,1,8.64-.19l.24.24a.44.44,0,0,0,.62,0s0,0,0,0a.5.5,0,0,0,0-.68,7,7,0,0,0-9.88-.34ZM4.49,11.8a.5.5,0,0,0,0,.69.43.43,0,0,0,.61,0l0,0a9.41,9.41,0,0,1,13.3-.4c.16.15.31.3.45.46a.44.44,0,0,0,.62,0l0,0a.52.52,0,0,0,0-.68A10.29,10.29,0,0,0,5,11.3l-.5.5Zm8.74,5.85a1.35,1.35,0,1,1-1.35-1.35A1.35,1.35,0,0,1,13.23,17.65Z"/></g></svg>