<?xml version="1.0" encoding="UTF-8"?>
<svg id="Camada_1" data-name="Camada 1" xmlns="http://www.w3.org/2000/svg" width="24" height="24" version="1.1" viewBox="0 0 24 24">
  <g display="none">
    <path d="M5.996,20.275c-.137-.007-.264-.073-.35-.18-.106-.105-.161-.251-.15-.4l.89-11.57h2.073v1.73c.006.274.226.495.5.5.276,0,.5-.224.5-.5v-1.73h5.04v1.73c0,.276.224.5.5.5.29.017.535-.21.54-.5v-1.73h2.037l.355,4.627c.023,0,.046,0,.068,0,.333,0,.659.031.974.09l-.408-5.286c-.021-.26-.239-.461-.5-.46h-2.527v-.82c0-1.265-.675-2.433-1.77-3.066-2.36-1.362-5.31.341-5.31,3.066v.82h-2.533c-.261-.001-.479.2-.5.46l-.93,12.07v.11c-.023.844.656,1.54,1.5,1.54h7.897c-.245-.307-.456-.642-.629-1h-7.268ZM9.459,6.275c0-1.14.382-1.93,1.433-2.372,1.752-.737,3.852.432,3.607,2.372v.82h-5.04v-.82Z" fill="#363636" fill-rule="evenodd" stroke-width="0"/>
    <path d="M21.181,14.82c-.844-.844-1.988-1.318-3.182-1.318-.89,0-1.76.264-2.5.758-.74.495-1.317,1.197-1.657,2.019-.341.822-.43,1.727-.256,2.6.174.873.602,1.675,1.232,2.304.629.629,1.431,1.058,2.304,1.232.873.174,1.778.085,2.6-.256.822-.341,1.525-.917,2.02-1.657.495-.74.758-1.61.758-2.5,0-1.193-.474-2.338-1.318-3.182ZM20.745,16.699l-3.084,3.289c-.093.1-.224.157-.36.158s-.268-.054-.363-.152l-1.678-1.73c-.192-.198-.188-.515.011-.707.198-.192.515-.188.707.011l1.313,1.353,2.726-2.907c.189-.201.505-.212.707-.023.201.189.212.505.023.707Z" fill="#363636" fill-rule="evenodd" stroke-width="0"/>
  </g>
  <g>
    <path d="M18.005,12.751c.333,0,.659.031.974.09l-.408-5.286c-.021-.26-.239-.461-.5-.46h-2.527v2.76c-.005.29-.25.517-.54.5-.276,0-.5-.224-.5-.5v-2.76h-5.04v2.76c0,.276-.224.5-.5.5-.274-.005-.494-.226-.5-.5v-2.76h-2.533c-.261-.001-.479.2-.5.46l-.93,12.07v.11c-.023.844.656,1.54,1.5,1.54h7.897c-.716-.898-1.144-2.035-1.144-3.273,0-2.9,2.351-5.251,5.251-5.251Z" fill="#363636" fill-rule="evenodd" stroke-width="0"/>
    <path d="M9.464,6.275c0-1.14.382-1.93,1.433-2.372,1.752-.737,3.852.432,3.607,2.372v.82h1.04v-.82c0-1.265-.675-2.433-1.77-3.066-2.36-1.362-5.31.341-5.31,3.066v.82h1v-.82Z" fill="#363636" fill-rule="evenodd" stroke-width="0"/>
    <path d="M21.187,14.82c-.844-.844-1.989-1.318-3.182-1.318-.89,0-1.76.264-2.5.758-.74.495-1.317,1.197-1.657,2.019-.341.822-.43,1.727-.256,2.6.174.873.602,1.675,1.231,2.304.629.629,1.431,1.058,2.304,1.232.873.174,1.778.085,2.6-.256.822-.341,1.525-.917,2.019-1.657.495-.74.758-1.61.758-2.5,0-1.193-.474-2.338-1.318-3.182ZM20.751,16.934l-3.084,3.289c-.094.1-.224.157-.36.158-.137.001-.268-.054-.363-.152l-1.678-1.73c-.192-.198-.188-.515.011-.707s.515-.188.707.011l1.313,1.354,2.726-2.907c.189-.202.505-.212.707-.023.201.189.212.505.023.707Z" fill="#363636" fill-rule="evenodd" stroke-width="0"/>
  </g>
</svg>