<?xml version="1.0" encoding="UTF-8"?>
<svg id="Camada_1" xmlns="http://www.w3.org/2000/svg" width="24" height="24" version="1.1" viewBox="0 0 24 24">
  <!-- Generator: Adobe Illustrator 29.5.1, SVG Export Plug-In . SVG Version: 2.1.0 Build 141)  -->
  <path d="M5.159,2l.074.005c.169.021.304.106.38.16.104.074.209.173.312.28.207.217.456.528.746.925l.225.315c1.072,1.555,1.471,2.863,2.944,6.13l.861,1.89c.248.538.437.943.508,1.083l.147.271c.362.628.845,1.201,1.189,1.441l.212.14c.197.12.357.184.545.222.274.055.638.062,1.286.026l1.144-.063h.067c.067.006.132.025.192.057l.998.524,1.324.711c.452.247.901.497,1.306.726.405.229.769.439,1.049.605.262.156.492.299.594.383l.115.098c.277.247.598.622.62,1.183v.125c-.017.29-.124.559-.244.769-.103.178-.235.348-.379.479l-.147.118c-.131.09-.299.15-.456.197-.169.051-.383.104-.641.163l-2.253.488c-.999.219-2.979.473-4.079.531l-.412.013c-.624-.001-1.238-.02-1.781-.112-.54-.092-1.065-.266-1.467-.622-.012-.011-.024-.021-.035-.033l-.361-.389-.027-.032c-.439-.558-.794-1.242-1.344-2.671l-.249-.66c-.527-1.425-.724-1.93-.979-2.412l-.288-.509c-.227-.385-.422-.752-.635-1.046-.104-.143-.192-.24-.264-.297-.045-.036-.069-.045-.076-.047-.026,0-.045.009-.069.031-.016.015-.034.038-.053.067l-.05.108c-.001.009-.009.047-.019.131-.012.104-.024.245-.036.422-.025.352-.048.826-.068,1.383-.03.835-.054,1.849-.064,2.904l-.007,1.065c-.001.648-.004,1.203-.007,1.597-.001.164-.002.301-.003.404v.057s-.002.123-.002.123c0,.014,0,.024,0,.031v.012c-.003.274-.226.494-.5.494h-1.497c-.135,0-.264-.055-.358-.151-.094-.097-.145-.228-.142-.362v-.004s0-.008,0-.015c0-.012,0-.031,0-.055.001-.049.003-.12.005-.211.004-.181.008-.439.011-.744.003-.306.004-.659.002-1.03l-.02-1.142c-.11-3.685-.114-4.807-.49-6.299l-.185-.671c-.532-1.794-.317-3.084-.093-4.351l.099-.486c.258-1.133.724-2.26,1.532-3.421l.126-.163c.139-.165.312-.333.454-.462.099-.09.194-.173.271-.234.038-.03.077-.06.112-.084.017-.011.041-.028.069-.043.014-.007.037-.02.066-.031h0c.018-.007.093-.036.191-.036Z" fill="#363636"/>
</svg>