<?xml version="1.0" encoding="UTF-8"?>
<svg xmlns="http://www.w3.org/2000/svg" width="24" height="24" version="1.1" viewBox="0 0 24 24">
  <defs>
    <style>
      .cls-1 {
        fill: #363636;
      }
    </style>
  </defs>
  <!-- Generator: Adobe Illustrator 28.6.0, SVG Export Plug-In . SVG Version: 1.2.0 Build 709)  -->
  <g>
    <g id="Camada_1">
      <g>
        <path class="cls-1" d="M20.43,2.122l1.125-.125c.275-.031.472-.278.442-.552-.03-.274-.278-.472-.552-.442l-1.125.125c-.275.031-.472.278-.442.552.031.274.278.472.552.442Z"/>
        <path class="cls-1" d="M15.93,2.622l2.25-.25c.275-.031.472-.278.442-.552-.03-.274-.278-.472-.552-.442l-2.25.25c-.275.031-.472.278-.442.552.031.274.278.472.552.442Z"/>
        <path class="cls-1" d="M12.555,2.997l1.125-.125c.275-.031.472-.278.442-.552-.03-.274-.278-.472-.552-.442l-1.125.125c-.275.031-.472.278-.442.552.031.274.278.472.552.442Z"/>
        <path class="cls-1" d="M10,2.5c0-.154-.071-.299-.192-.394-.121-.095-.28-.128-.429-.091l-4,1c-.223.056-.379.256-.379.485v2.5h5v-3.5Z"/>
        <path class="cls-1" d="M11.755,21.816c-.386-.163-.73-.411-1.009-.724-.279-.312-.486-.681-.611-1.081-.125-.399-.164-.821-.115-1.236.049-.415.184-.817.398-1.176.196-.327.453-.614.76-.84-.125-.421-.156-.869-.087-1.309.117-.747.513-1.426,1.118-1.883.242-.183.509-.324.791-.42v-2.648c0-.828-.672-1.5-1.5-1.5h-.5v-.5c0-.828-.672-1.5-1.5-1.5h-4c-.828,0-1.5.672-1.5,1.5v.5h-.5c-.828,0-1.5.672-1.5,1.5v11c0,.828.672,1.5,1.5,1.5h8c.599,0,1.117-.352,1.357-.86-.013-.034-.025-.069-.037-.104-.366-.002-.727-.077-1.065-.22Z"/>
        <path class="cls-1" d="M19.356,17.664c-.195-.173-.422-.302-.667-.378-.085-.026-.171-.045-.259-.058.064-.064.123-.133.176-.207.268-.411.372-.915.29-1.405-.082-.49-.344-.927-.73-1.219-.386-.292-.866-.416-1.339-.345s-.9.33-1.192.723c-.05.076-.094.156-.133.239-.039-.083-.083-.163-.133-.239-.288-.406-.718-.676-1.197-.753-.479-.077-.967.046-1.359.343-.392.297-.655.742-.733,1.24-.078.498.036,1.008.318,1.418.054.073.113.143.176.206-.265.04-.518.14-.742.292-.224.153-.413.354-.555.591-.141.237-.231.503-.264.779-.032.277-.006.557.076.822.083.265.22.508.402.712.182.204.405.364.653.469.248.105.515.152.782.138s.528-.088.765-.218c-.015.09-.024.18-.027.272,0,.507.194.994.538,1.352.344.359.811.56,1.298.56s.954-.201,1.298-.56c.344-.359.538-.845.538-1.352-.002-.092-.011-.184-.027-.274.227.124.476.197.732.214s.512-.021.752-.112c.24-.092.46-.235.644-.42.184-.185.329-.409.426-.656.096-.247.142-.512.134-.779-.008-.267-.069-.529-.18-.769-.111-.24-.269-.454-.463-.627ZM16.475,19.233c-.258.269-.609.42-.974.42-.272,0-.539-.084-.765-.242-.227-.158-.403-.382-.507-.644-.104-.262-.131-.55-.078-.829.053-.278.184-.534.377-.734.193-.201.438-.337.705-.393.267-.055.544-.027.796.082.252.109.467.292.618.528.151.236.232.513.232.797,0,.38-.145.745-.403,1.014Z"/>
        <path class="cls-1" d="M13.733,4.262l-1.125-.25c-.269-.06-.537.11-.596.38-.06.27.11.537.38.597l1.125.25c.27.06.537-.11.597-.38.06-.27-.11-.537-.38-.597Z"/>
        <path class="cls-1" d="M18.234,5.262l-2.25-.5c-.269-.06-.537.11-.596.38-.06.27.11.537.38.597l2.25.5c.27.06.537-.11.597-.38.06-.27-.11-.537-.38-.597Z"/>
        <path class="cls-1" d="M21.608,6.012l-1.125-.25c-.269-.06-.537.11-.596.38-.06.27.11.537.38.597l1.125.25c.27.06.537-.11.597-.38.06-.27-.11-.537-.38-.597Z"/>
      </g>
    </g>
  </g>
</svg>