<svg width="24" height="24" viewBox="0 0 24 24" xmlns="http://www.w3.org/2000/svg">
<path d="M21.9302 19.2945L17.4335 11.5003L12.9369 3.70617C12.7371 3.40639 12.4373 3.20654 12.0376 3.20654C11.6379 3.20654 11.3381 3.40639 11.1383 3.70617L6.64163 11.5003L2.145 19.2945C1.94515 19.5943 1.94515 19.994 2.145 20.2937C2.34486 20.5935 2.64463 20.7934 3.04433 20.7934H21.0308C21.4305 20.7934 21.7303 20.5935 21.9302 20.2937C22.0301 19.994 22.0301 19.5943 21.9302 19.2945ZM11.7378 8.10287C11.7378 7.8031 11.9377 7.60325 12.2374 7.60325C12.5372 7.60325 12.7371 7.8031 12.7371 8.10287V14.0984C12.7371 14.3982 12.5372 14.598 12.2374 14.598C11.9377 14.598 11.7378 14.3982 11.7378 14.0984V8.10287ZM12.2374 17.296C11.8377 17.296 11.538 16.9962 11.538 16.5965C11.538 16.1968 11.8377 15.897 12.2374 15.897C12.6371 15.897 12.9369 16.1968 12.9369 16.5965C12.9369 16.9962 12.6371 17.296 12.2374 17.296Z"/>
</svg>
