<?xml version="1.0" encoding="UTF-8"?>
<svg xmlns="http://www.w3.org/2000/svg" width="24" height="24" version="1.1" viewBox="0 0 24 24">

        <path class="cls-1" d="M3.5,2h.5v1.5h6v-1.5h2.499c.276,0,.5-.224.5-.5s-.224-.5-.5-.5H3.5c-.276,0-.5.224-.5.5s.224.5.5.5Z"/>
        <path class="cls-1" d="M17.272,12.195l-1.283.741c-.175.101-.272.298-.246.498.026.201.171.365.366.418l2.732.732c.267.072.541-.087.612-.353l.732-2.732c.052-.195-.018-.403-.179-.526s-.379-.137-.554-.036l-1.315.759-1.705-2.945c-.089-.154-.254-.249-.433-.249-.178,0-.343.095-.433.249l-1.449,2.5c-.139.239-.057.545.182.683s.545.057.683-.182l1.016-1.753,1.272,2.197Z"/>
        <path class="cls-1" d="M13.552,12.602l-2.732.732c-.195.052-.34.217-.366.418-.026.201.071.397.246.498l1.262.729-1.894,3.271c-.09.155-.09.345,0,.5.089.155.255.25.433.25h3c.276,0,.5-.224.5-.5s-.224-.5-.5-.5h-2.133l1.46-2.522,1.336.771c.175.101.394.087.554-.036s.231-.331.179-.526l-.732-2.732c-.071-.267-.346-.425-.612-.354Z"/>
        <path class="cls-1" d="M21.933,18.25l-1.449-2.516c-.138-.239-.443-.322-.683-.184-.239.138-.322.444-.184.683l1.017,1.766h-2.635v-1.5c0-.202-.122-.385-.309-.462-.187-.077-.402-.035-.545.108l-1.998,1.998c-.007.007-.015.015-.021.023-.037.041-.065.087-.086.135-.026.061-.041.128-.041.198,0,.066.013.128.036.186.024.061.061.118.111.168l2,2c.143.143.358.186.545.108.187-.077.309-.26.309-.462v-1.5h3.5c.179,0,.344-.095.433-.25.089-.155.089-.345,0-.5Z"/>
        <path class="cls-1" d="M9.201,19.249c-.268-.464-.267-1.037.001-1.501l1.392-2.405-.395-.228c-.525-.303-.816-.893-.737-1.495.079-.602.513-1.096,1.099-1.253l1.439-.386v-.937c0-1.104-.306-2.159-.693-3.127-.142-.357-.26-.712-.315-1.009-.078-.421-.081-.999-.059-1.497.011-.244.027-.459.04-.613.007-.077.013-.138.017-.18l.005-.047v-.012s.002-.003.002-.003c.016-.142-.029-.284-.123-.39-.095-.107-.231-.167-.373-.167H3.5c-.143,0-.278.061-.373.167-.095.106-.14.249-.123.39v.003s.002.012.002.012l.005.047c.004.042.01.103.017.18.013.154.03.369.04.613.022.498.019,1.076-.059,1.497-.055.296-.173.652-.315,1.009-.387.969-.693,2.024-.693,3.127v11.455c0,.276.224.5.5.5h9c.276,0,.5-.224.5-.5v-2.5h-1.5c-.536,0-1.032-.286-1.299-.751Z"/>

</svg>