<?xml version="1.0" encoding="UTF-8"?>
<svg xmlns="http://www.w3.org/2000/svg" width="24" height="24" version="1.1" viewBox="0 0 24 24">

        <path  d="M21.658,7.909c-.609-2.05-1.989-3.785-3.851-4.838-1.862-1.053-4.059-1.343-6.13-.809-2.071.534-3.854,1.851-4.974,3.673-.145.235-.071.543.164.688.235.145.543.071.688-.164.984-1.602,2.552-2.759,4.372-3.228,1.82-.47,3.752-.215,5.388.711,1.636.926,2.849,2.45,3.385,4.252s.35,3.742-.516,5.41c-.127.245-.032.547.214.674.245.127.547.032.674-.214.985-1.898,1.195-4.105.587-6.155Z"/>
        <path  d="M13.055,21.284c-.137-.021-.274-.051-.408-.092-.414-.124-.794-.337-1.117-.621-.323-.284-.58-.633-.757-1.023-.177-.389-.27-.812-.274-1.239-.004-.427.081-.851.25-1.243.153-.354.371-.677.645-.949-.063-.33-.072-.668-.026-1.002.053-.383.178-.753.369-1.09l-1.24.018c-2.221-.021-4.158-.28-5.52-.759-1.411-.496-1.978-1.134-1.978-1.784s.567-1.287,1.977-1.778c1.363-.474,3.301-.722,5.523-.722,2.2,0,4.005.367,5.24.897.619.265,1.074.562,1.367.855.293.293.393.548.393.748,0,.276.224.5.5.5s.5-.224.5-.5c0-.55-.276-1.045-.685-1.455s-.987-.77-1.68-1.067c-1.389-.595-3.335-.978-5.635-.978-2.277,0-4.34.252-5.852.778-1.466.51-2.648,1.371-2.648,2.722v7c0,.757.271,1.384.764,1.877.479.479,1.143.807,1.903,1.039,1.515.461,3.581.584,5.833.584h3.031c-.055-.062-.108-.126-.158-.192-.124-.164-.231-.34-.319-.524Z"/>
        <path  d="M19.348,16.772c-.124-.115-.261-.214-.409-.293.065-.135.115-.277.15-.424.061-.259.071-.527.03-.79-.041-.263-.132-.515-.268-.743-.136-.228-.316-.427-.528-.584-.212-.158-.454-.272-.711-.335-.257-.063-.523-.074-.784-.031-.261.042-.511.137-.735.278-.118.074-.228.161-.328.257-.099-.102-.209-.194-.328-.273-.225-.15-.478-.253-.744-.301-.266-.048-.539-.041-.802.021-.263.062-.511.177-.728.339-.217.161-.4.365-.538.599-.137.234-.227.493-.265.762-.037.269-.021.543.047.806.038.146.092.288.161.421-.146.078-.282.175-.405.287-.212.194-.38.431-.494.695-.114.264-.171.55-.169.838.003.288.065.573.184.835s.292.496.507.686c.216.19.469.331.744.414s.563.104.847.063h.002c.004.024.008.049.013.073.061.303.189.588.375.834.186.246.425.446.7.584.275.138.578.21.885.21s.61-.072.885-.21c.275-.138.514-.338.7-.584.186-.246.314-.531.374-.834.005-.026.01-.053.014-.08h.002c.282.039.569.016.842-.067.273-.083.524-.224.738-.414.214-.189.385-.422.503-.682s.181-.543.184-.83c.003-.286-.053-.57-.165-.833-.112-.263-.278-.5-.487-.694ZM15.75,19.123c-.828,0-1.5-.672-1.5-1.5s.672-1.5,1.5-1.5,1.5.672,1.5,1.5-.672,1.5-1.5,1.5Z"/>

</svg>