<svg xmlns="http://www.w3.org/2000/svg" viewBox="0 0 24 24"><g id="Create-Here"><path d="M15.65,3a1.06,1.06,0,0,0-.63.36,1,1,0,0,0-.24.69,1,1,0,0,0,.2.64,1.07,1.07,0,0,0,.56.37c4.29,1.6,6.87,6,5.38,10.11a9.38,9.38,0,0,1-3.46,4.54,9.49,9.49,0,0,1-10.9,0A9.38,9.38,0,0,1,3.1,15.18C1.61,11.06,4.18,6.66,8.48,5.07A1.07,1.07,0,0,0,9,4.7,1.06,1.06,0,0,0,9,3.38,1.06,1.06,0,0,0,8.37,3C6.91,2.75,2,6.17,2,12a10,10,0,0,0,17.07,7A9.92,9.92,0,0,0,22,12C22,6.17,17.11,2.75,15.65,3Z"/><path d="M20.67,14.42a9.47,9.47,0,0,0-3.89-3.26.88.88,0,0,1-.42-.31.81.81,0,0,1-.14-.5,1,1,0,0,1,.06-.34,1.07,1.07,0,0,1,.19-.28.79.79,0,0,1,.29-.18.92.92,0,0,1,.33-.06C18.06,9.51,20.11,12,20.67,14.42Z"/><path d="M16.46,6.24a1.16,1.16,0,0,0-.37.07,1,1,0,0,0-.32.21,1.06,1.06,0,0,0-.21.31,1,1,0,0,0-.07.37.88.88,0,0,0,.15.55.89.89,0,0,0,.45.34,8.85,8.85,0,0,1,4.76,5.36C21.3,9.51,17.72,6.28,16.46,6.24Z"/><path d="M3.35,14.42a9.47,9.47,0,0,1,3.89-3.26.88.88,0,0,0,.42-.31.81.81,0,0,0,.14-.5A.75.75,0,0,0,7.73,10a.74.74,0,0,0-.19-.27.84.84,0,0,0-.28-.18,1,1,0,0,0-.33-.06C6,9.51,3.9,12,3.35,14.42Z"/><path d="M7.58,6.24A1.16,1.16,0,0,1,8,6.31a1,1,0,0,1,.32.21.87.87,0,0,1,.2.31,1,1,0,0,1,.08.37,1,1,0,0,1-.15.55A.89.89,0,0,1,8,8.09a8.85,8.85,0,0,0-4.76,5.36C2.72,9.51,6.31,6.28,7.58,6.24Z"/></g></svg>