<?xml version="1.0" encoding="UTF-8"?>
<svg xmlns="http://www.w3.org/2000/svg" width="24" height="24" version="1.1" viewBox="0 0 24 24">

        <path class="cls-1" d="M21.268,2.732c-.469-.469-1.105-.732-1.768-.732h-4.167c-.221,0-.433.088-.589.244-.156.156-.244.368-.244.589s.088.433.244.589c.156.156.368.244.589.244h3.333c.221,0,.433.088.589.244.156.156.244.368.244.589s-.088.433-.244.589c-.156.156-.368.244-.589.244h-3.333c-.221,0-.433.088-.589.244-.156.156-.244.368-.244.589s.088.433.244.589c.156.156.368.244.589.244h3.333c.221,0,.433.088.589.244s.244.368.244.589-.088.433-.244.589c-.156.156-.368.244-.589.244h-3.333c-.221,0-.433.088-.589.244s-.244.368-.244.589.088.433.244.589c.156.156.368.244.589.244h3.333c.221,0,.433.088.589.244s.244.368.244.589-.088.433-.244.589c-.156.156-.368.244-.589.244h-3.333c-.221,0-.433.088-.589.244-.156.156-.244.368-.244.589s.088.433.244.589c.156.156.368.244.589.244h1.492c.117,0,.232.023.339.07.107.047.203.116.281.202.079.086.138.189.175.299.037.111.049.228.038.345l-.65,6.5c-.012.116.001.232.037.343.036.11.095.212.173.298.078.086.173.155.279.203.106.047.221.072.337.073h3.333c.221,0,.433-.088.589-.244.156-.156.244-.368.244-.589V4.5c0-.663-.263-1.299-.732-1.768Z"/>
        <path class="cls-1" d="M12.417,14.499c-.675.003-1.327.242-1.843.676L6.118,2.555c-.069-.192-.205-.352-.384-.45s-.388-.127-.586-.082-.374.162-.493.328-.172.37-.15.573l.705,6.342c.053.484.212.95.465,1.366.253.416.595.771,1,1.04l1.07.712-.985,2.791c-.517-.434-1.169-.673-1.843-.676-.774,0-1.515.307-2.062.854-.547.547-.854,1.289-.854,2.062v1.667c0,.773.307,1.515.854,2.062.547.547,1.289.854,2.062.854s1.515-.307,2.062-.854c.547-.547.854-1.289.854-2.062v-1.667c0-.045-.006-.088-.012-.131-.004-.027-.008-.055-.01-.082l.855-2.422.855,2.422c-.002.028-.006.055-.01.082-.006.043-.012.086-.012.131v1.667c0,.773.307,1.515.854,2.062.547.547,1.289.854,2.062.854s1.515-.307,2.062-.854.854-1.289.854-2.062v-1.667c0-.774-.307-1.515-.854-2.062-.547-.547-1.289-.854-2.062-.854ZM6.167,19.083c0,.331-.132.649-.366.884-.234.234-.552.366-.884.366s-.649-.132-.884-.366c-.234-.234-.366-.552-.366-.884v-1.667c0-.331.132-.649.366-.884.234-.234.552-.366.884-.366s.649.132.884.366c.234.234.366.552.366.884v1.667ZM13.667,19.083c0,.331-.132.649-.366.884-.234.234-.552.366-.884.366s-.649-.132-.884-.366c-.234-.234-.366-.552-.366-.884v-1.667c0-.331.132-.649.366-.884s.552-.366.884-.366.649.132.884.366c.234.234.366.552.366.884v1.667Z"/>
        <path class="cls-1" d="M12.123,9.268l.705-6.342c.022-.203-.032-.407-.15-.573-.118-.166-.294-.283-.493-.328-.199-.045-.408-.016-.586.082s-.316.258-.384.45l-1.667,4.715,1.452,4.115c.626-.541,1.027-1.297,1.123-2.118Z"/>

</svg>