<?xml version="1.0" encoding="UTF-8"?>
<svg xmlns="http://www.w3.org/2000/svg" width="24" height="24" version="1.1" viewBox="0 0 24 24">

        <path  d="M4.5,2.5c-.552,0-1-.448-1-1,0-.276-.224-.5-.5-.5s-.5.224-.5.5c0,.552-.448,1-1,1-.276,0-.5.224-.5.5s.224.5.5.5c.552,0,1,.448,1,1,0,.276.224.5.5.5s.5-.224.5-.5c0-.552.448-1,1-1,.276,0,.5-.224.5-.5s-.224-.5-.5-.5Z"/>
        <path  d="M14,1.5c0-.276-.224-.5-.5-.5h-6c-.276,0-.5.224-.5.5v2.5h7V1.5Z"/>
        <path  d="M13.5,17c-.175,0-.344-.03-.5-.085v1.585c0,.276-.224.5-.5.5h-4c-.276,0-.5-.224-.5-.5v-9c0-.276.224-.5.5-.5h4c.276,0,.5.224.5.5v4.585c.156-.055.325-.085.5-.085,1.38,0,2.5-1.12,2.5-2.5v-6c0-.276-.224-.5-.5-.5H5.5c-.276,0-.5.224-.5.5v14c0,1.933,1.567,3.5,3.5,3.5h4c1.933,0,3.5-1.567,3.5-3.5,0-1.38-1.12-2.5-2.5-2.5Z"/>
        <path  d="M22.5,7.5c-.552,0-1-.448-1-1,0-.276-.224-.5-.5-.5s-.5.224-.5.5c0,.552-.448,1-1,1-.276,0-.5.224-.5.5s.224.5.5.5c.552,0,1,.448,1,1,0,.276.224.5.5.5s.5-.224.5-.5c0-.552.448-1,1-1,.276,0,.5-.224.5-.5s-.224-.5-.5-.5Z"/>
        <path  d="M21.5,15c-1.933,0-3.5-1.567-3.5-3.5,0-.276-.224-.5-.5-.5s-.5.224-.5.5c0,1.933-1.567,3.5-3.5,3.5-.276,0-.5.224-.5.5s.224.5.5.5c1.933,0,3.5,1.567,3.5,3.5,0,.276.224.5.5.5s.5-.224.5-.5c0-1.933,1.567-3.5,3.5-3.5.276,0,.5-.224.5-.5s-.224-.5-.5-.5Z"/>
        <rect  x="9" y="10" width="3" height="8"/>

</svg>