<?xml version="1.0" encoding="utf-8"?>
<!-- Generator: Adobe Illustrator 28.4.1, SVG Export Plug-In . SVG Version: 6.00 Build 0)  -->
<svg version="1.0" id="Camada_1" xmlns="http://www.w3.org/2000/svg" xmlns:xlink="http://www.w3.org/1999/xlink" x="0px" y="0px"
	 width="24px" height="24px" viewBox="0 0 24 24" enable-background="new 0 0 24 24" xml:space="preserve">
<path fill-rule="evenodd" clip-rule="evenodd"    d="M1.5,12C1.5,6.2,6.2,1.5,12,1.5c5.8,0,10.5,4.7,10.5,10.5
	c0,5.8-4.7,10.5-10.5,10.5C6.2,22.5,1.5,17.8,1.5,12z M3.6,11H6c0.6,0,1,0.4,1,1s-0.4,1-1,1H3.6c0.5,3.9,3.5,7,7.4,7.4V18
	c0-0.6,0.4-1,1-1s1,0.4,1,1v2.4c3.9-0.5,7-3.5,7.4-7.4H18c-0.6,0-1-0.4-1-1s0.4-1,1-1h2.4C20,7.1,16.9,4,13,3.6V6c0,0.6-0.4,1-1,1
	s-1-0.4-1-1V3.6C7.1,4,4,7.1,3.6,11z"/>
</svg>
