<?xml version="1.0" encoding="UTF-8"?>
<svg xmlns="http://www.w3.org/2000/svg" width="24" height="24" version="1.1" viewBox="0 0 24 24">
  <defs>
    <style>
      .cls-1 {
        fill: #363636;
        fill-rule: evenodd;
      }
    </style>
  </defs>
  <!-- Generator: Adobe Illustrator 28.7.1, SVG Export Plug-In . SVG Version: 1.2.0 Build 142)  -->
  <g>
    <g id="Camada_1">
      <path class="cls-1" d="M10.544,1.058c.157-.081.345-.073.494.021,2.074,1.299,3.101,3.425,3.613,5.171.225.766.354,1.472.429,2.024l1.953-2.184c.097-.108.236-.169.382-.167s.283.069.376.181c.956,1.152,1.775,2.855,2.345,4.633.571,1.782.908,3.692.865,5.277-.04,1.482-.56,2.885-1.369,4.091-.817,1.217-1.954,2.185-3.286,2.796-.155.071-.335.058-.478-.034-.143-.092-.23-.25-.23-.421v-.008c-.061-1.156-.711-2.668-1.376-3.714-.313-.492-.84-1.089-1.437-1.642-.378-.35-.772-.67-1.141-.928-.033.175-.071.36-.113.543-.108.476-.257,1.026-.434,1.338-.302.529-.705.993-1.186,1.365-.457.39-.831.867-1.103,1.403-.273.54-.436,1.128-.479,1.731-.012.167-.107.317-.252.399s-.323.087-.472.011c-1.406-.711-2.585-1.801-3.405-3.146-.82-1.345-1.249-2.893-1.237-4.468.015-2.043.828-4,1.822-5.61.996-1.613,2.199-2.92,3.056-3.674.006-.006.013-.011.02-.016.694-.55,1.264-1.24,1.674-2.026.409-.785.648-1.648.702-2.532.011-.176.113-.334.27-.414Z"/>
    </g>
  </g>
</svg>