<?xml version="1.0" encoding="UTF-8"?>
<svg xmlns="http://www.w3.org/2000/svg" width="24" height="24" version="1.1" viewBox="0 0 24 24">
  <defs>
    <style>
      .cls-1, .cls-2 {
        fill: #363636;
      }

      .cls-2 {
        fill-rule: evenodd;
      }
    </style>
  </defs>
  <!-- Generator: Adobe Illustrator 28.7.1, SVG Export Plug-In . SVG Version: 1.2.0 Build 142)  -->
  <g>
    <g id="Camada_1">
      <g>
        <circle class="cls-1" cx="14.396" cy="7.521" r=".5"/>
        <circle class="cls-1" cx="12.396" cy="9.521" r=".5"/>
        <circle class="cls-1" cx="11.396" cy="14.521" r=".5"/>
        <circle class="cls-1" cx="8.396" cy="15.521" r=".5"/>
        <circle class="cls-1" cx="12.396" cy="17.521" r=".5"/>
        <circle class="cls-1" cx="15.396" cy="15.521" r=".5"/>
        <path class="cls-2" d="M16.5,12h-2c-.276,0-.5.224-.5.5s.224.5.5.5h2c.276,0,.5-.224.5-.5s-.224-.5-.5-.5Z"/>
        <path class="cls-2" d="M9.5,12h-2c-.276,0-.5.224-.5.5s.224.5.5.5h2c.276,0,.5-.224.5-.5s-.224-.5-.5-.5Z"/>
        <path class="cls-2" d="M12,1C5.925,1,1,5.925,1,12v8.5c0,.163.08.316.214.41l.006.004-.004-.003h-.001s.005.003.005.003l.01.007c.008.006.02.013.034.022.028.018.068.043.121.074.105.061.258.146.464.245.412.199,1.033.459,1.894.716,1.721.515,4.395,1.021,8.257,1.021s6.536-.506,8.257-1.021c.86-.258,1.482-.517,1.894-.716.206-.099.359-.184.464-.245.052-.031.093-.056.121-.074.014-.009.026-.016.034-.022l.01-.007.004-.003h.001s.001-.002.001-.002c.134-.094.214-.247.214-.41v-8.5c0-6.075-4.925-11-11-11ZM12,19.999c-4.418,0-8-3.582-8-8,0-1.055.13-2.216.539-3.192.071-.169.229-.286.411-.305,3.434-.345,6.421-1.586,8.701-3.857.13-.129.32-.177.496-.125,3.272.976,5.853,3.826,5.853,7.478,0,4.418-3.582,8-8,8Z"/>
      </g>
    </g>
  </g>
</svg>