<svg width="24" height="24" viewBox="0 0 24 24" fill="none" xmlns="http://www.w3.org/2000/svg">
<path d="M19.0076 12.521C18.7406 12.52 18.4846 12.412 18.2976 12.221L12.5276 6.428V19.311C12.5276 19.863 12.0796 20.311 11.5276 20.311C10.9756 20.311 10.5276 19.863 10.5276 19.311V6.411L4.71756 12.221C4.53056 12.412 4.27456 12.52 4.00756 12.521C3.23756 12.525 2.75156 11.695 3.13256 11.026C3.17756 10.947 3.23356 10.875 3.29756 10.811L10.8116 3.297C10.8136 3.295 10.8156 3.293 10.8176 3.291C11.2076 2.903 11.8376 2.903 12.2276 3.291C12.2296 3.293 12.2316 3.295 12.2336 3.297L19.7476 10.811C20.2946 11.353 20.0506 12.283 19.3076 12.486C19.2096 12.513 19.1086 12.525 19.0076 12.521Z" fill="#363636"/>
</svg>
