<svg xmlns="http://www.w3.org/2000/svg" viewBox="0 0 24 24"><g id="Create-Here"><path d="M19.69,21.4V2.55A1.24,1.24,0,0,0,19,1.2a.92.92,0,0,0-.36-.07h0a1.09,1.09,0,0,0-.69.26L16.13,2.63,14.78,1.44a1.17,1.17,0,0,0-1.46,0L12,2.57,10.76,1.46a1.21,1.21,0,0,0-1.56,0L7.89,2.63,6.19,1.39a1.14,1.14,0,0,0-.83-.23A1.18,1.18,0,0,0,4.29,2.34v19.1a1.43,1.43,0,0,0,.76,1.32,1,1,0,0,0,1.1-.15l1.71-1.24,1.35,1.22a1.21,1.21,0,0,0,1.56,0L12,21.48l1.3,1.1a1.19,1.19,0,0,0,1.56,0l1.32-1.17,1.65,1.2a1.2,1.2,0,0,0,1.42,0A1.33,1.33,0,0,0,19.69,21.4Zm-12-5.67a.5.5,0,0,1,.5-.5h7.51a.5.5,0,0,1,.5.5.51.51,0,0,1-.5.5H8.21A.5.5,0,0,1,7.71,15.73Zm8-7.14H8.21a.5.5,0,0,1-.5-.5.5.5,0,0,1,.5-.5h7.51a.5.5,0,0,1,.5.5A.51.51,0,0,1,15.72,8.59Zm.5,3.33a.51.51,0,0,1-.5.5H8.21a.5.5,0,0,1-.5-.5.5.5,0,0,1,.5-.5h7.51A.5.5,0,0,1,16.22,11.92Z"/></g></svg>