<?xml version="1.0" encoding="UTF-8"?>
<svg xmlns="http://www.w3.org/2000/svg" width="24" height="24" version="1.1" viewBox="0 0 24 24">

        <path class="cls-1" d="M17.5,3.5c.552,0,1,.448,1,1,0,.276.224.5.5.5s.5-.224.5-.5c0-.552.448-1,1-1,.276,0,.5-.224.5-.5s-.224-.5-.5-.5c-.552,0-1-.448-1-1,0-.276-.224-.5-.5-.5s-.5.224-.5.5c0,.552-.448,1-1,1-.276,0-.5.224-.5.5s.224.5.5.5Z"/>
        <path class="cls-1" d="M21.947,12.276l-1.494-2.988c-.062-.132-.18-.235-.332-.273l-3.135-.784c-.04.348-.17.669-.365.94l1.531.383-6.153,1.923-6.153-1.923,4.571-1.143c-.066-.402-.166-.717-.276-.962l-6.264,1.566c-.091.023-.171.07-.233.132-.037.037-.069.081-.093.13l-1.5,3c-.063.127-.07.274-.018.406s.157.236.29.285l8,3c.219.082.461,0,.588-.185.018-.027.034-.055.047-.086l1.04-2.428,1.04,2.428c.105.246.385.365.635.271l8-3c.133-.05.238-.154.29-.285.007-.016.012-.033.017-.05.033-.118.021-.245-.035-.356Z"/>
        <path class="cls-1" d="M3.5,4.5c.552,0,1,.448,1,1,0,.276.224.5.5.5s.5-.224.5-.5c0-.552.448-1,1-1,.276,0,.5-.224.5-.5s-.224-.5-.5-.5c-.552,0-1-.448-1-1,0-.276-.224-.5-.5-.5s-.5.224-.5.5c0,.552-.448,1-1,1-.276,0-.5.224-.5.5s.224.5.5.5Z"/>
        <circle class="cls-1" cx="10" cy="2" r="1"/>
        <circle class="cls-1" cx="15" cy="8" r="1"/>
        <path class="cls-1" d="M12.5,16.618v4.882c0,.276-.224.5-.5.5s-.5-.224-.5-.5v-4.882c-.404.361-.988.488-1.527.286l-5.973-2.24v4.836c0,.204.124.388.314.464l7.5,3c.122.049.257.047.377-.002l7.495-2.998c.19-.076.314-.26.314-.464v-4.836l-5.973,2.24c-.539.202-1.123.075-1.527-.286Z"/>
        <path class="cls-1" d="M9.743,4.544c-.044-.012-.081-.021-.108-.027-.014-.003-.025-.005-.034-.007l-.012-.002h-.005s-.004-.001-.004-.001c-.273-.045-.53.14-.574.413-.044.271.138.526.408.573l.007.002c.009.002.027.006.051.013.049.014.124.038.218.079.188.082.447.229.709.487.513.504,1.1,1.492,1.1,3.427,0,.276.224.5.5.5s.5-.224.5-.5c0-1.911.696-3.172,1.378-3.956.343-.395.686-.672.94-.849.127-.088.231-.151.301-.191.035-.02.061-.034.078-.042l.017-.008h.002c.249-.119.356-.416.238-.665-.117-.25-.416-.357-.666-.24h-.002s-.004.003-.004.003l-.01.005c-.008.004-.02.01-.033.017-.028.014-.066.035-.113.061-.094.053-.225.133-.379.24-.309.215-.716.546-1.123,1.014-.408.47-.812,1.075-1.115,1.833-.25-.589-.571-1.032-.907-1.362-.363-.356-.729-.567-1.01-.69-.14-.061-.26-.101-.348-.125Z"/>

</svg>