<?xml version="1.0" encoding="utf-8"?>
<!-- Generator: Adobe Illustrator 28.4.1, SVG Export Plug-In . SVG Version: 6.00 Build 0)  -->
<svg version="1.0" id="Camada_1" xmlns="http://www.w3.org/2000/svg" xmlns:xlink="http://www.w3.org/1999/xlink" x="0px" y="0px"
	 width="24px" height="24px" viewBox="0 0 24 24" enable-background="new 0 0 24 24" xml:space="preserve">
<path    d="M14,2c-0.6,0-1,0.4-1,1s0.4,1,1,1h4.6l-5.3,5.3c-0.4,0.4-0.4,1,0,1.4s1,0.4,1.4,0L20,5.4V10c0,0.6,0.4,1,1,1
	s1-0.4,1-1V3c0-0.6-0.4-1-1-1H14z"/>
<path    d="M10.7,13.3c-0.4-0.4-1-0.4-1.4,0L4,18.6V14c0-0.6-0.4-1-1-1s-1,0.4-1,1v7c0,0.6,0.4,1,1,1h7c0.6,0,1-0.4,1-1
	s-0.4-1-1-1H5.4l5.3-5.3C11.1,14.3,11.1,13.7,10.7,13.3z"/>
</svg>
