<?xml version="1.0" encoding="UTF-8"?>
<svg xmlns="http://www.w3.org/2000/svg" width="24" height="24" version="1.1" viewBox="0 0 24 24">

        <polygon  points="9.726 8 12 6.804 14.274 8 13.84 5.467 15.68 3.673 13.137 3.304 12 1 10.863 3.304 8.32 3.673 10.16 5.467 9.726 8"/>
        <path  d="M18.3,12.557l-.743-1.857-.929.371c-.166.069-3.056,1.283-4.628,5.6-1.572-4.318-4.462-5.532-4.628-5.6l-.929-.371-.743,1.857.928.372c.044.017,4.372,1.843,4.372,10.071h2c0-8.087,4.16-9.98,4.377-10.074l.923-.369Z"/>
        <polygon  points="5.548 18.188 4.475 16.013 3.401 18.188 1 18.537 2.737 20.23 2.327 22.621 4.475 21.493 6.622 22.621 6.212 20.23 7.949 18.537 5.548 18.188"/>
        <polygon  points="20.599 18.188 19.525 16.013 18.452 18.188 16.051 18.537 17.788 20.23 17.378 22.621 19.525 21.493 21.673 22.621 21.263 20.23 23 18.537 20.599 18.188"/>
        <path  d="M11,11.281c.365.372.704.767,1.016,1.184.303-.409.632-.798.984-1.165v-2.287h-2v2.268Z"/>
        <circle  cx="2.5" cy="9.5" r="1.5"/>
        <circle  cx="21.5" cy="9.5" r="1.5"/>

</svg>