<?xml version="1.0" encoding="UTF-8"?>
<svg id="Camada_1" data-name="Camada 1" xmlns="http://www.w3.org/2000/svg" width="24" height="24" version="1.1" viewBox="0 0 24 24">
  <path d="M21.108,3.012L12.108,1.012c-.072-.016-.146-.016-.217,0L2.892,3.012c-.229.051-.392.254-.392.488v10c0,.045.006.09.018.134,1.279,4.604,7.711,9.366,9.482,9.366,1.595,0,8.66-4.9,9.492-9.409.005-.03.008-.061.008-.091V3.5c0-.234-.163-.438-.392-.488ZM18.454,13.093c0,1.619-1.974,3.475-3.56,4.966l-.258.241c-.097.092-.22.137-.343.137-.133,0-.266-.053-.363-.157-.189-.2-.181-.517.021-.706l.258-.244c1.292-1.214,3.245-3.05,3.245-4.236v-5.87c0-.276.224-.5.5-.5s.5.224.5.5v5.87Z" fill="#363636" stroke-width="0"/>
</svg>