<?xml version="1.0" encoding="utf-8"?>
<!-- Generator: Adobe Illustrator 26.0.1, SVG Export Plug-In . SVG Version: 6.00 Build 0)  -->
<svg version="1.1" id="Camada_1" xmlns="http://www.w3.org/2000/svg" xmlns:xlink="http://www.w3.org/1999/xlink" x="0px" y="0px"
	 viewBox="0 0 24 24" style="enable-background:new 0 0 24 24;" xml:space="preserve">
<g>
	<path d="M7.4,10.2c0,0.1,0,0.2,0,0.4H12h4.7c0-0.1,0-0.2,0-0.4H12H7.4z"/>
	<path d="M6.7,6.3c0,1,0.1,1.9,0.4,2.8H12H17c0.2-0.9,0.4-1.9,0.4-2.8c0-1.1,0.2-2.1,0.5-3.2c0.1-0.1,0.1-0.3,0-0.4
		c-0.1-0.1-0.2-0.2-0.3-0.2c0,0-1.9-0.5-1.9-0.5c-0.3-0.1-0.5,0.1-0.6,0.3c-0.4,1.3-1.6,2.2-3,2.2c-1.4,0-2.6-0.8-3-2.2
		C8.9,2.1,8.7,1.9,8.4,2c0,0-1.9,0.5-1.9,0.5c-0.1,0-0.3,0.1-0.3,0.2C6.1,2.9,6.1,3,6.2,3.2C6.5,4.2,6.7,5.3,6.7,6.3z"/>
	<path d="M19,15.9c-0.7-1.5-1.5-3.2-2-4.4h-2.4c0,0,0.7,3.3,0.7,3.3c0.1,0.3,0,0.5-0.4,0.6c-0.4,0.1-0.6-0.2-0.6-0.4l-0.7-3.5H12
		h-1.6L9.7,15c0,0.2-0.3,0.5-0.6,0.4c-0.3-0.1-0.4-0.3-0.4-0.6c0,0,0.7-3.3,0.7-3.3H7c-0.5,1.2-1.3,2.9-2,4.4
		c-1.7,3.8-1.7,3.8-1.5,4.1c0.3,0.6,4,2,8.5,2c0,0,0,0,0,0s0,0,0,0c4.6,0,8.2-1.4,8.5-2C20.7,19.7,20.7,19.7,19,15.9z"/>
</g>
</svg>
