<?xml version="1.0" encoding="UTF-8"?>
<svg xmlns="http://www.w3.org/2000/svg" width="24" height="24" version="1.1" viewBox="0 0 24 24">

        <path class="cls-1" d="M17.936,6.048c.032-.841-.206-1.567-.526-2.152-.319-.582-.725-1.032-1.047-1.334-.162-.152-.305-.269-.409-.349-.052-.04-.095-.071-.125-.093-.015-.011-.028-.019-.037-.026l-.011-.008-.004-.002h-.001s-.001-.002-.001-.002c-.154-.101-.35-.11-.512-.023-.162.087-.263.256-.263.44,0,.099-.06.294-.24.541-.172.236-.416.467-.689.637-.175.109-.438.194-.744.249-.299.054-.601.073-.827.073h-3.409c-.704,0-1.531.251-2.186.905-.648.648-.905,1.472-.905,2.095v1h11.393c.355-.686.52-1.339.543-1.952Z"/>
        <path class="cls-1" d="M20,11.012v-1.512c0-.276-.224-.5-.5-.5H4.5c-.276,0-.5.224-.5.5v1.512c-1.142.119-2,1.128-2,2.306v6.364c0,1.256.973,2.318,2.227,2.318h15.545c1.254,0,2.227-1.062,2.227-2.318v-6.364c0-1.179-.858-2.187-2-2.306ZM17.5,19c0,.276-.224.5-.5.5H7c-.276,0-.5-.224-.5-.5v-5c0-.276.224-.5.5-.5h10c.276,0,.5.224.5.5v5Z"/>

</svg>