<?xml version="1.0" encoding="UTF-8"?>
<svg xmlns="http://www.w3.org/2000/svg" width="24" height="24" version="1.1" viewBox="0 0 24 24">

        <path class="cls-1" d="M9.792,11.937c.149.083.331.084.481.003.15-.081.249-.234.261-.404.017-.237.086-.469.203-.677.115-.206.274-.385.467-.525.401-.262.737-.606.987-1.006.278.22.521.482.72.775.298.44.488.94.558,1.464.022.164.123.307.271.381.148.074.323.07.467-.01.694-.386,1.273-.948,1.676-1.629.403-.681.616-1.456.616-2.245,0-.591-.054-1.703-.681-2.994-.628-1.294-1.813-2.73-4.013-4.002-.142-.082-.314-.089-.462-.02-.148.069-.253.206-.281.367-.152.871-.515,1.692-1.059,2.395-.143.184-.347.377-.612.626l-.007.006c-.253.238-.549.515-.824.839-.567.666-1.061,1.541-1.061,2.783,0,.789.213,1.564.616,2.244.403.681.981,1.242,1.675,1.629Z"/>
        <path class="cls-1" d="M21.469,9.846c-.794-.556-1.853-.973-3.022-1.331,0,.064.001.125.001.183,0,.61-.039,1.25-.16,1.865.894.296,1.57.597,2.034.922.537.376.678.695.678,1.015,0,.149-.074.409-.426.762-.351.351-.918.726-1.718,1.069-1.596.684-3.956,1.169-6.856,1.169s-5.26-.485-6.856-1.169c-.8-.343-1.367-.718-1.718-1.069-.352-.352-.426-.613-.426-.762,0-.32.14-.639.678-1.015.478-.334,1.179-.643,2.111-.947-.156-.566-.236-1.153-.237-1.746,0-.094.002-.187.006-.278-1.17.358-2.231.776-3.026,1.332-.876.613-1.531,1.474-1.531,2.654,0,.088.005.175.013.261-.009.037-.013.076-.013.116v5.623c0,.696.391,1.321.961,1.839.574.522,1.383.987,2.354,1.375,1.946.778,4.636,1.286,7.686,1.286s5.74-.508,7.686-1.286c.971-.388,1.779-.853,2.354-1.375.57-.518.961-1.142.961-1.839v-6c0-1.18-.655-2.041-1.531-2.654Z"/>

</svg>