<?xml version="1.0" encoding="UTF-8"?>
<svg id="Camada_1" xmlns="http://www.w3.org/2000/svg" width="40" height="40" version="1.1" viewBox="0 0 40 40">
  <!-- Generator: Adobe Illustrator 29.5.1, SVG Export Plug-In . SVG Version: 2.1.0 Build 141)  -->
  <path d="M16.078,5.619c1.736-3.047,6.107-3.047,7.843,0l13.809,24.248c1.721,3.021-.441,6.8-3.922,6.8H6.191c-3.48,0-5.642-3.778-3.922-6.8L16.078,5.619ZM20,31.667c1.381,0,2.5-1.119,2.5-2.5s-1.119-2.5-2.5-2.5-2.5,1.119-2.5,2.5,1.119,2.5,2.5,2.5ZM18.333,11.667c-.233,0-.455.098-.613.269-.158.171-.237.401-.217.633l.833,10c.036.432.397.764.83.764h1.667c.434,0,.795-.332.83-.764l.833-10c.019-.232-.059-.462-.217-.633-.158-.172-.38-.269-.613-.269h-3.333Z" fill="#363636" fill-rule="evenodd"/>
</svg>