<?xml version="1.0" encoding="utf-8"?>
<!-- Generator: Adobe Illustrator 27.0.1, SVG Export Plug-In . SVG Version: 6.00 Build 0)  -->
<svg version="1.1" id="Layer_1" xmlns="http://www.w3.org/2000/svg" xmlns:xlink="http://www.w3.org/1999/xlink" x="0px" y="0px"
	 viewBox="0 0 24 24" width="24" height="24" style="enable-background:new 0 0 24 24;" xml:space="preserve">
<path d="M19.8,16.9L19.8,16.9c0,0-0.1-0.1-0.1-0.2v0l-1-2.5c-0.4-1-0.8-2-1.3-3c-0.1-0.2-0.2-0.4-0.4-0.6c-0.2-0.2-0.5-0.4-0.7-0.5
	c-0.5-0.2-1-0.3-1.5-0.4V4.5c0-0.6-0.5-1.2-1.2-1.2H6.9c-0.7,0-1.2,0.5-1.2,1.2v5H5.2l-0.1,0c-0.6,0.2-1,0.7-1,1.3
	c0,0.5,0.2,0.9,0.5,1.2c-0.2,0.2-0.3,0.5-0.3,0.8c0,0.5,0.2,0.9,0.4,1.1c-0.2,0.2-0.3,0.5-0.3,0.8c0,0.6,0.3,1,0.6,1.2
	c-0.3,0.2-0.5,0.5-0.5,0.9c0,0.5,0.2,0.8,0.4,1c0.2,0.2,0,0,0,0C5,18,5.2,18.1,5.4,18.1h0.3v0.6c0,0.6,0.5,1.2,1.2,1.2h6.7
	c0.3,0,0.5-0.1,0.7-0.3c0.8,0.6,1.6,0.9,2.6,1.1H17v0c0,0,0.1,0,0.1,0C19.2,20.8,20.5,18.8,19.8,16.9z M11,18.4H9.6
	c-0.3,0-0.5-0.2-0.5-0.5c0-0.3,0.2-0.5,0.5-0.5H11c0.3,0,0.5,0.2,0.5,0.5C11.5,18.2,11.3,18.4,11,18.4z M6.7,15.8v-0.2
	c0,0,0,0,0-0.1c0,0,0,0,0-0.1v-9h7.1v3.1c-0.6-0.1-1.2-0.2-1.8-0.4c-0.4-0.1-0.8-0.1-1.2,0c-0.5,0.3-0.8,0.8-0.7,1.4
	c0.1,0.5,0.4,0.9,0.8,1.1c0.3,0.2,0.7,0.3,1,0.5l1.8,0.6v3H6.7z"/>
</svg>
