<?xml version="1.0" encoding="UTF-8"?>
<svg xmlns="http://www.w3.org/2000/svg" width="24" height="24" version="1.1" viewBox="0 0 24 24">

      <path class="cls-1" d="M9.5,2c-4.142,0-7.5,3.358-7.5,7.5,0,2.948,1.701,5.499,4.175,6.725-.115-.557-.175-1.134-.175-1.725,0-4.694,3.806-8.5,8.5-8.5.591,0,1.168.06,1.725.175-1.226-2.474-3.776-4.175-6.725-4.175ZM16.679,7.321c-.689-.209-1.421-.321-2.179-.321-.255,0-.507.013-.755.038l3.218,3.218c.025-.248.038-.5.038-.755,0-.758-.112-1.489-.321-2.179ZM7.775,17.825c1.226,2.474,3.776,4.175,6.725,4.175,4.142,0,7.5-3.358,7.5-7.5,0-2.948-1.701-5.499-4.175-6.725.115.557.175,1.134.175,1.725,0,4.694-3.806,8.5-8.5,8.5-.591,0-1.168-.06-1.725-.175ZM7.321,16.679c-.209-.689-.321-1.421-.321-2.179,0-.253.012-.502.037-.748l3.215,3.211c-.248.025-.498.037-.752.037-.758,0-1.489-.112-2.179-.321ZM12.568,7.251c.021.037.047.071.079.102l4,4c.031.031.066.058.102.079-.174.654-.434,1.272-.767,1.843l-5.257-5.257c.571-.333,1.189-.593,1.843-.767ZM14.118,15.41c.482-.377.916-.811,1.293-1.293l-5.528-5.528c-.482.377-.916.811-1.293,1.293l5.528,5.528ZM13.275,15.982l-5.257-5.257c-.331.567-.59,1.181-.763,1.831l4.194,4.189c.648-.174,1.26-.432,1.826-.762Z"/>

</svg>