<?xml version="1.0" encoding="UTF-8"?>
<svg xmlns="http://www.w3.org/2000/svg" width="24" height="24" version="1.1" viewBox="0 0 24 24">
  <defs>
    <style>
      .cls-1 {
        fill: #363636;
        fill-rule: evenodd;
      }
    </style>
  </defs>
  <!-- Generator: Adobe Illustrator 28.7.1, SVG Export Plug-In . SVG Version: 1.2.0 Build 142)  -->
  <g>
    <g id="Camada_1">
      <g>
        <path class="cls-1" d="M14,15.05v-.55c0-1.05.466-1.994,1.202-2.636-.361-.229-.781-.4-1.212-.526,1.5-.863,2.511-2.482,2.511-4.337,0-2.761-2.239-5-5-5s-5,2.239-5,5c0,1.851,1.006,3.468,2.501,4.332-4.035,1.097-7.001,4.786-7.001,9.168,0,.276.224.5.5.5h9.55c-.033-.162-.05-.329-.05-.5v-3c0-1.209.859-2.218,2-2.45Z"/>
        <path class="cls-1" d="M20.5,16h-.5v-1.5c0-1.376-1.124-2.5-2.5-2.5s-2.5,1.124-2.5,2.5v1.5h-.5c-.828,0-1.5.672-1.5,1.5v3c0,.828.672,1.5,1.5,1.5h6c.828,0,1.5-.672,1.5-1.5v-3c0-.828-.672-1.5-1.5-1.5ZM18,19.5c0,.276-.224.5-.5.5s-.5-.224-.5-.5v-1c0-.276.224-.5.5-.5s.5.224.5.5v1ZM19,16h-3v-1.5c0-.824.676-1.5,1.5-1.5s1.5.676,1.5,1.5v1.5Z"/>
      </g>
    </g>
  </g>
</svg>