<?xml version="1.0" encoding="UTF-8"?>
<svg xmlns="http://www.w3.org/2000/svg" width="24" height="24" version="1.1" viewBox="0 0 24 24">
  <defs>
    <style>
      .cls-1 {
        fill: #363636;
      }
    </style>
  </defs>
  <!-- Generator: Adobe Illustrator 28.6.0, SVG Export Plug-In . SVG Version: 1.2.0 Build 709)  -->
  <g>
    <g id="Camada_1">
      <g>
        <path class="cls-1" d="M12.436,2H3.565c-.865,0-1.551.73-1.497,1.594l.934,14.938c.016.263.235.469.499.469h9c.264,0,.482-.205.499-.469l.934-14.938c.054-.864-.632-1.594-1.497-1.594ZM11,14.5c0,.276-.224.5-.5.5h-5c-.276,0-.5-.224-.5-.5V6.5c0-.276.224-.5.5-.5h5c.276,0,.5.224.5.5v8Z"/>
        <path class="cls-1" d="M4,20.5c0,.828.672,1.5,1.5,1.5h5c.828,0,1.5-.672,1.5-1.5v-1H4v1Z"/>
        <path class="cls-1" d="M21.268,2.732c-.469-.469-1.105-.732-1.768-.732h-4.167c-.221,0-.433.088-.589.244s-.244.368-.244.589.088.433.244.589c.156.156.368.244.589.244h3.333c.221,0,.433.088.589.244.156.156.244.368.244.589s-.088.433-.244.589c-.156.156-.368.244-.589.244h-3.333c-.221,0-.433.088-.589.244-.156.156-.244.368-.244.589s.088.433.244.589c.156.156.368.244.589.244h3.333c.221,0,.433.088.589.244.156.156.244.368.244.589s-.088.433-.244.589c-.156.156-.368.244-.589.244h-3.333c-.221,0-.433.088-.589.244-.156.156-.244.368-.244.589s.088.433.244.589c.156.156.368.244.589.244h3.333c.221,0,.433.088.589.244.156.156.244.368.244.589s-.088.433-.244.589c-.156.156-.368.244-.589.244h-3.333c-.221,0-.433.088-.589.244-.156.156-.244.368-.244.589s.088.433.244.589.368.244.589.244h1.492c.117,0,.233.023.339.07.107.047.203.116.281.202.079.086.138.189.175.299.037.111.049.228.038.345l-.65,6.5c-.012.116.001.232.037.343.036.11.095.212.173.298.078.086.172.155.279.203.106.047.221.072.337.073h3.333c.221,0,.433-.088.589-.244.156-.156.244-.368.244-.589V4.5c0-.663-.263-1.299-.732-1.768Z"/>
      </g>
    </g>
  </g>
</svg>