<?xml version="1.0" encoding="UTF-8"?>
<svg xmlns="http://www.w3.org/2000/svg" width="24" height="24" version="1.1" viewBox="0 0 24 24">

        <path  d="M5.5,9c-.276,0-.5.224-.5.5s.224.5.5.5h1.5v4h1v-4h1.5c.276,0,.5-.224.5-.5s-.224-.5-.5-.5h-1.5v-2h1.5c.276,0,.5-.224.5-.5s-.224-.5-.5-.5h-1.5v-2h1.5c.276,0,.5-.224.5-.5s-.224-.5-.5-.5h-1.5v-1.5c0-.276-.224-.5-.5-.5s-.5.224-.5.5v1.5h-1.5c-.276,0-.5.224-.5.5s.224.5.5.5h1.5v2h-1.5c-.276,0-.5.224-.5.5s.224.5.5.5h1.5v2h-1.5Z"/>
        <path  d="M10.5,15h-6c-.276,0-.5.224-.5.5v7c0,.276.224.5.5.5h6c.276,0,.5-.224.5-.5v-7c0-.276-.224-.5-.5-.5ZM10,22h-5v-5h5v5Z"/>
        <path  d="M19.5,7h-6c-.276,0-.5.224-.5.5v15c0,.276.224.5.5.5h6c.276,0,.5-.224.5-.5V7.5c0-.276-.224-.5-.5-.5ZM19,18h-5v-10h5v10Z"/>
   
</svg>