<?xml version="1.0" encoding="utf-8"?>
<!-- Generator: Adobe Illustrator 28.4.1, SVG Export Plug-In . SVG Version: 6.00 Build 0)  -->
<svg version="1.0" id="Camada_1" xmlns="http://www.w3.org/2000/svg" xmlns:xlink="http://www.w3.org/1999/xlink" x="0px" y="0px"
	 width="24px" height="24px" viewBox="0 0 24 24" enable-background="new 0 0 24 24" xml:space="preserve">
<path    d="M16.9,3.4c-0.1-0.1-0.2-0.2-0.4-0.2s-0.3,0.1-0.4,0.2c-0.1,0.1-0.6,0.6-1.1,1.4c-0.5,0.8-1,1.8-1,2.9
	c0,1.4,1.1,2.5,2.5,2.5c1.4,0,2.5-1.1,2.5-2.5c0-1.1-0.5-2.2-1-2.9C17.5,4.1,16.9,3.5,16.9,3.4z"/>
<path    d="M21.1,16.5c0.2,0.2,0.3,0.4,0.3,0.7c0,0.1,0,0.2,0,0.3c-0.1,0.1-0.1,0.2-0.2,0.2l-6.3,2.6
	c-0.6,0.2-1.2,0.4-1.9,0.4c-0.6,0-1.2-0.1-1.7-0.3l-4.8-1.8l1-5.1c1.2-0.3,2.5-0.2,3.7,0.3c0.7,0.3,1.5,0.6,2.2,0.9c0,0,0.1,0,0.1,0
	l1.4,0.4c0.7,0.2,0.9,1,0.4,1.5C15,16.9,14.6,17,14.2,17c-0.4-0.1-1-0.1-1.5-0.2c-0.5-0.1-1.1-0.2-1.6-0.4c-0.2-0.1-0.5-0.1-0.6-0.2
	c-0.1,0-0.1,0-0.2,0l0,0l0,0C10,16,9.7,16.2,9.7,16.5C9.6,16.7,9.7,17,10,17.1l0,0l0,0c0,0,0.1,0,0.2,0.1c0.2,0,0.4,0.1,0.6,0.2
	c0.5,0.1,1.1,0.3,1.6,0.4c0.5,0.1,1.1,0.2,1.6,0.2c0.7,0.1,1.4-0.2,1.9-0.7c0.3-0.3,0.5-0.7,0.6-1.2c1.2-0.3,2.9-0.6,4,0
	C20.8,16.2,21,16.3,21.1,16.5z"/>
<path    d="M6.6,13.2l-1.3,6.2H3c-0.1,0-0.3-0.1-0.4-0.1S2.5,19,2.5,18.8v-6.2c0-0.1,0-0.2,0.1-0.2
	c0-0.1,0.1-0.1,0.1-0.2c0.1,0,0.1-0.1,0.2-0.1c0.1,0,0.2,0,0.2,0L6.6,13.2z"/>
<path    d="M11.4,5.9c-0.1-0.1-0.2-0.2-0.4-0.2c-0.2,0-0.3,0.1-0.4,0.2C10.6,6,10.2,6.4,9.8,7C9.4,7.5,9,8.4,9,9.2
	c0,1.1,0.9,2,2,2c1.1,0,2-0.9,2-2c0-0.9-0.4-1.7-0.8-2.3C11.8,6.4,11.4,6,11.4,5.9z"/>
</svg>
