<?xml version="1.0" encoding="UTF-8"?>
<svg xmlns="http://www.w3.org/2000/svg" width="24" height="24" version="1.1" viewBox="0 0 24 24">
  <defs>
    <style>
      .cls-1 {
        fill: #363636;
      }
    </style>
  </defs>
  <!-- Generator: Adobe Illustrator 28.7.1, SVG Export Plug-In . SVG Version: 1.2.0 Build 142)  -->
  <g>
    <g id="Camada_1">
      <g>
        <path class="cls-1" d="M12,17c1.657,0,3-1.343,3-3,0-.071-.015-.142-.045-.207-1.194-2.628-1.204-5.645-.897-8.042.153-1.193.383-2.218.574-2.944.095-.363.181-.65.242-.846.031-.098.055-.172.072-.222.008-.025.015-.043.019-.055l.005-.013v-.003c.088-.245-.026-.515-.262-.623-.236-.108-.516-.016-.643.21l-.004.006-.011.02-.042.076c-.037.067-.091.165-.16.291-.138.252-.334.616-.57,1.063-.471.894-1.1,2.126-1.729,3.471-.629,1.345-1.261,2.811-1.738,4.174-.472,1.349-.809,2.649-.809,3.642,0,1.657,1.343,3,3,3Z"/>
        <path class="cls-1" d="M22.5,13h-6c-.276,0-.5.224-.5.5,0,2.758-1.824,4.5-4,4.5s-4-1.742-4-4.5c0-.276-.224-.5-.5-.5H1.5c-.276,0-.5.224-.5.5v1.5h1.5c.276,0,.5.224.5.5s-.224.5-.5.5h-1.5v2h1.5c.276,0,.5.224.5.5s-.224.5-.5.5h-1.5v3.5c0,.276.224.5.5.5h21c.276,0,.5-.224.5-.5v-3.5h-1.5c-.276,0-.5-.224-.5-.5s.224-.5.5-.5h1.5v-2h-1.5c-.276,0-.5-.224-.5-.5s.224-.5.5-.5h1.5v-1.5c0-.276-.224-.5-.5-.5ZM4.5,16h1c.276,0,.5.224.5.5s-.224.5-.5.5h-1c-.276,0-.5-.224-.5-.5s.224-.5.5-.5ZM4.5,21h-1c-.276,0-.5-.224-.5-.5s.224-.5.5-.5h1c.276,0,.5.224.5.5s-.224.5-.5.5ZM6.5,19h-1c-.276,0-.5-.224-.5-.5s.224-.5.5-.5h1c.276,0,.5.224.5.5s-.224.5-.5.5ZM9.5,21h-1c-.276,0-.5-.224-.5-.5s.224-.5.5-.5h1c.276,0,.5.224.5.5s-.224.5-.5.5ZM14.5,21h-1c-.276,0-.5-.224-.5-.5s.224-.5.5-.5h1c.276,0,.5.224.5.5s-.224.5-.5.5ZM17.5,19h-1c-.276,0-.5-.224-.5-.5s.224-.5.5-.5h1c.276,0,.5.224.5.5s-.224.5-.5.5ZM19.5,21h-1c-.276,0-.5-.224-.5-.5s.224-.5.5-.5h1c.276,0,.5.224.5.5s-.224.5-.5.5ZM19.5,17h-1c-.276,0-.5-.224-.5-.5s.224-.5.5-.5h1c.276,0,.5.224.5.5s-.224.5-.5.5Z"/>
        <circle class="cls-1" cx="7.5" cy="11.5" r=".5"/>
        <circle class="cls-1" cx="22.5" cy="11.5" r=".5"/>
        <circle class="cls-1" cx="6.5" cy="9.5" r=".5"/>
        <circle class="cls-1" cx="21.5" cy="9.5" r=".5"/>
        <circle class="cls-1" cx="4.5" cy="11.5" r=".5"/>
        <circle class="cls-1" cx="19.5" cy="11.5" r=".5"/>
        <circle class="cls-1" cx="3.5" cy="9.5" r=".5"/>
        <circle class="cls-1" cx="18.5" cy="9.5" r=".5"/>
        <circle class="cls-1" cx="1.5" cy="11.5" r=".5"/>
        <circle class="cls-1" cx="16.5" cy="11.5" r=".5"/>
      </g>
    </g>
  </g>
</svg>