<svg width="24" height="24" viewBox="0 0 24 24" fill="none" xmlns="http://www.w3.org/2000/svg">
<path d="M19.39 2.5H4.61C4.0512 2.50263 3.51604 2.72578 3.12091 3.12091C2.72578 3.51604 2.50263 4.0512 2.5 4.61V19.39C2.50263 19.9488 2.72578 20.484 3.12091 20.8791C3.51604 21.2742 4.0512 21.4974 4.61 21.5H19.39C19.9488 21.4974 20.484 21.2742 20.8791 20.8791C21.2742 20.484 21.4974 19.9488 21.5 19.39V4.61C21.4974 4.0512 21.2742 3.51604 20.8791 3.12091C20.484 2.72578 19.9488 2.50263 19.39 2.5ZM17.28 13.06H6.72V10.94H17.28V13.06Z" fill="#363636"/>
</svg>
