<?xml version="1.0" encoding="UTF-8"?>
<svg xmlns="http://www.w3.org/2000/svg" width="24" height="24" version="1.1" viewBox="0 0 24 24">

        <path class="cls-1" d="M19.756,20.577c-.156-.156-.368-.244-.589-.244h-6.833v-.833c-.001-1.105-.441-2.164-1.222-2.945-.781-.781-1.84-1.221-2.945-1.222-.51.003-1.015.1-1.489.287l-.261-.403c-.323-.462-.55-.984-.665-1.536-.115-.552-.117-1.121-.005-1.674s.335-1.077.656-1.54c.321-.464.732-.857,1.21-1.157l1.152-.667,1.181,2.045c.11.191.292.331.506.388s.441.027.632-.083l.722-.417.583,1.005c.073.127.179.232.305.305.127.073.271.112.417.111.146,0,.29-.039.417-.112.127-.073.232-.178.305-.305.073-.127.112-.27.112-.417s-.039-.29-.112-.417l-.583-1.005.722-.417c.191-.11.331-.292.388-.506.057-.214.027-.441-.083-.632l-3.334-5.773c-.111-.191-.293-.331-.506-.388-.214-.057-.441-.027-.632.083l-2.887,1.667c-.191.11-.331.292-.388.506-.057.214-.027.441.083.632l1.319,2.286-1.175.68c-.671.416-1.251.964-1.704,1.611-.453.647-.769,1.379-.93,2.152s-.163,1.571-.005,2.344c.157.774.47,1.508.92,2.156l.235.368c-.402.387-.721.85-.94,1.363s-.331,1.065-.332,1.622v1.667c0,.221.088.433.244.589.156.156.368.244.589.244h14.333c.221,0,.433-.088.589-.244.156-.156.244-.368.244-.589s-.088-.433-.244-.589Z"/>
        <path class="cls-1" d="M13.578,17.338l5.109-2.949c.096-.054.179-.127.247-.214.067-.087.117-.186.146-.292.029-.106.036-.217.022-.326-.014-.109-.05-.214-.105-.309s-.128-.178-.216-.245c-.087-.067-.187-.116-.293-.144-.106-.028-.217-.035-.326-.02-.109.015-.214.051-.309.107l-5.104,2.949c.344.439.623.925.828,1.443Z"/>

</svg>