<?xml version="1.0" encoding="UTF-8"?>
<svg id="Camada_1" xmlns="http://www.w3.org/2000/svg" width="24" height="24" version="1.1" viewBox="0 0 24 24">
  <!-- Generator: Adobe Illustrator 29.3.0, SVG Export Plug-In . SVG Version: 2.1.0 Build 146)  -->
  <path d="M21.5,6c-1.933,0-3.5-1.567-3.5-3.5,0-.276-.224-.5-.5-.5s-.5.224-.5.5c0,1.933-1.567,3.5-3.5,3.5-.276,0-.5.224-.5.5s.224.5.5.5c1.933,0,3.5,1.567,3.5,3.5,0,.276.224.5.5.5s.5-.224.5-.5c0-1.933,1.567-3.5,3.5-3.5.276,0,.5-.224.5-.5s-.224-.5-.5-.5Z" fill="#363636"/>
  <path d="M15,12.5c0-.276-.224-.5-.5-.5-3.037,0-5.5-2.463-5.5-5.5,0-.276-.224-.5-.5-.5s-.5.224-.5.5c0,3.037-2.463,5.5-5.5,5.5-.276,0-.5.224-.5.5s.224.5.5.5c3.037,0,5.5,2.463,5.5,5.5,0,.276.224.5.5.5s.5-.224.5-.5c0-3.037,2.463-5.5,5.5-5.5.276,0,.5-.224.5-.5Z" fill="#363636"/>
  <path d="M19.5,18c-1.38,0-2.5-1.12-2.5-2.5,0-.276-.224-.5-.5-.5s-.5.224-.5.5c0,1.38-1.12,2.5-2.5,2.5-.276,0-.5.224-.5.5s.224.5.5.5c1.38,0,2.5,1.12,2.5,2.5,0,.276.224.5.5.5s.5-.224.5-.5c0-1.38,1.12-2.5,2.5-2.5.276,0,.5-.224.5-.5s-.224-.5-.5-.5Z" fill="#363636"/>
</svg>