<?xml version="1.0" encoding="UTF-8"?>
<svg xmlns="http://www.w3.org/2000/svg" width="24" height="24" version="1.1" viewBox="0 0 24 24">
  <defs>
    <style>
      .cls-1 {
        fill: #363636;
      }
    </style>
  </defs>
  <!-- Generator: Adobe Illustrator 28.6.0, SVG Export Plug-In . SVG Version: 1.2.0 Build 709)  -->
  <g>
    <g id="Camada_1">
      <g>
        <circle class="cls-1" cx="6.5" cy="4" r="3"/>
        <path class="cls-1" d="M19,13c2.209,0,4-1.791,4-4s-1.791-4-4-4-4,1.791-4,4,1.791,4,4,4ZM18.5,7c1.381,0,2.5,1.119,2.5,2.5,0,.276-.224.5-.5.5s-.5-.224-.5-.5c0-.828-.672-1.5-1.5-1.5-.276,0-.5-.224-.5-.5s.224-.5.5-.5Z"/>
        <path class="cls-1" d="M8,9c-3.866,0-7,3.134-7,7s3.134,7,7,7,7-3.134,7-7-3.134-7-7-7ZM11.5,16.5c-.276,0-.5-.224-.5-.5,0-1.657-1.343-3-3-3-.276,0-.5-.224-.5-.5s.224-.5.5-.5c2.209,0,4,1.791,4,4,0,.276-.224.5-.5.5Z"/>
        <path class="cls-1" d="M13,3.5c.552,0,1,.448,1,1,0,.276.224.5.5.5s.5-.224.5-.5c0-.552.448-1,1-1,.276,0,.5-.224.5-.5s-.224-.5-.5-.5c-.552,0-1-.448-1-1,0-.276-.224-.5-.5-.5s-.5.224-.5.5c0,.552-.448,1-1,1-.276,0-.5.224-.5.5s.224.5.5.5Z"/>
        <path class="cls-1" d="M21.25,17.25c-.828,0-1.5-.672-1.5-1.5,0-.414-.336-.75-.75-.75s-.75.336-.75.75c0,.828-.672,1.5-1.5,1.5-.414,0-.75.336-.75.75s.336.75.75.75c.828,0,1.5.672,1.5,1.5,0,.414.336.75.75.75s.75-.336.75-.75c0-.828.672-1.5,1.5-1.5.414,0,.75-.336.75-.75s-.336-.75-.75-.75Z"/>
      </g>
    </g>
  </g>
</svg>