<?xml version="1.0" encoding="UTF-8"?>
<svg id="Camada_1" xmlns="http://www.w3.org/2000/svg" width="24" height="24" version="1.1" viewBox="0 0 24 24">
  <!-- Generator: Adobe Illustrator 29.3.0, SVG Export Plug-In . SVG Version: 2.1.0 Build 146)  -->
  <path d="M8,5c0-1.657,1.343-3,3-3s3,1.343,3,3v1h1v-1c0-2.209-1.791-4-4-4s-4,1.791-4,4v1h1v-1Z" fill="#363636"/>
  <path d="M13,18.398v-3.918c0-.691.472-1.293,1.143-1.457l4-.979c.234-.057.479-.057.714,0l.2.049-1.066-5.684c-.044-.236-.251-.408-.491-.408h-2.5v3.5c0,.276-.224.5-.5.5s-.5-.224-.5-.5v-3.5h-6v3.5c0,.276-.224.5-.5.5s-.5-.224-.5-.5v-3.5h-2.5c-.241,0-.447.171-.491.408l-2.778,14.816c-.173.923.535,1.776,1.474,1.776h13.283c-.103-.062-.208-.127-.312-.196-1.148-.756-2.675-2.175-2.675-4.406Z" fill="#363636"/>
  <path d="M22.619,13.994l-4-.979c-.078-.019-.16-.019-.238,0l-4,.979c-.224.055-.381.255-.381.486v3.918c0,1.723,1.175,2.88,2.225,3.571.534.351,1.064.603,1.459.766.198.082.364.142.482.183.059.02.106.036.139.046l.039.012.011.003h.003s.002.001.002.001c.045.013.092.02.139.02h.002c.047,0,.094-.007.139-.02h.001s.003-.001.003-.001l.011-.003.039-.012c.033-.01.08-.026.139-.046.118-.04.284-.101.482-.183.395-.163.925-.414,1.459-.766,1.05-.691,2.225-1.848,2.225-3.571v-3.918c0-.23-.157-.431-.381-.486Z" fill="#363636"/>
</svg>