<svg width="24" height="24" viewBox="0 0 24 24" fill="none" xmlns="http://www.w3.org/2000/svg">
<path d="M15.1855 23H8.80957L10.8096 19H13.1904L15.1855 23Z" fill="#363636"/>
<path d="M19.5293 20.1025L16.1289 22.6523L14.1328 18.6494L15.5264 17.6045L19.5293 20.1025Z" fill="#363636"/>
<path d="M9.86523 18.6494L7.86523 22.6494L4.47461 20.1064L8.47363 17.6055L9.86523 18.6494Z" fill="#363636"/>
<path d="M8 7.27637V16.7227L4 19.2246V4.77734L8 7.27637Z" fill="#363636"/>
<path d="M20 19.2178L16 16.7227V7.27637L20 4.77539V19.2178Z" fill="#363636"/>
<path d="M15 7.25V16.749L13.333 18H10.667L9 16.749V7.25L10.667 6H13.333L15 7.25Z" fill="#363636"/>
<path d="M9.86523 5.34961L8.47266 6.39355L4.48438 3.90234C4.48005 3.89964 4.47508 3.89806 4.4707 3.89551L7.8623 1.35156L9.86523 5.34961Z" fill="#363636"/>
<path d="M19.5254 3.89355L15.5254 6.39355L14.1338 5.34961L16.1338 1.34961L19.5254 3.89355Z" fill="#363636"/>
<path d="M13.1914 5H10.8086L8.80566 1H15.1914L13.1914 5Z" fill="#363636"/>
</svg>
