<?xml version="1.0" encoding="UTF-8"?>
<svg id="Camada_1" xmlns="http://www.w3.org/2000/svg" width="24" height="24" version="1.1" viewBox="0 0 24 24">
  <!-- Generator: Adobe Illustrator 29.2.1, SVG Export Plug-In . SVG Version: 2.1.0 Build 116)  -->
  <path d="M22.5,10c.276,0,.5-.224.5-.5v-5c0-.276-.224-.5-.5-.5H1.5c-.276,0-.5.224-.5.5v5c0,.276.224.5.5.5,1.378,0,2.5,1.122,2.5,2.5s-1.122,2.5-2.5,2.5c-.276,0-.5.224-.5.5v5c0,.276.224.5.5.5h21c.276,0,.5-.224.5-.5v-5c0-.276-.224-.5-.5-.5-1.379,0-2.5-1.121-2.5-2.5s1.121-2.5,2.5-2.5ZM8,10c0-.828.672-1.5,1.5-1.5s1.5.672,1.5,1.5-.672,1.5-1.5,1.5-1.5-.672-1.5-1.5ZM9,16c-.128,0-.256-.049-.354-.146-.195-.195-.195-.512,0-.707l6-6c.195-.195.512-.195.707,0s.195.512,0,.707l-6,6c-.098.098-.226.146-.354.146ZM14.5,16.5c-.828,0-1.5-.672-1.5-1.5s.672-1.5,1.5-1.5,1.5.672,1.5,1.5-.672,1.5-1.5,1.5Z" fill="#363636"/>
</svg>