<?xml version="1.0" encoding="UTF-8"?>
<svg xmlns="http://www.w3.org/2000/svg" width="24" height="24" version="1.1" viewBox="0 0 24 24">
  <defs>
    <style>
      .cls-1 {
        fill: #363636;
      }
    </style>
  </defs>
  <!-- Generator: Adobe Illustrator 28.7.1, SVG Export Plug-In . SVG Version: 1.2.0 Build 142)  -->
  <g>
    <g id="Camada_1">
      <g>
        <path class="cls-1" d="M9.806,10l-.781-2.342c-.087-.262.054-.545.316-.632s.545.054.632.316l.886,2.658h.64v-3.5c0-.276.224-.5.5-.5s.5.224.5.5v3.5h.64l.886-2.658c.087-.262.371-.404.633-.316.262.087.404.37.316.632l-.781,2.342h2.874l.937-7.313c.023-.181-.055-.359-.202-.467s-.341-.125-.506-.048l-.005.002-.018.008c-.016.008-.041.019-.074.033-.065.029-.161.071-.282.121-.241.1-.579.232-.965.36-.79.262-1.709.483-2.406.43-.54-.042-1.053-.213-1.621-.423-.062-.023-.126-.047-.19-.071-.501-.187-1.052-.393-1.638-.5-.824-.15-1.744-.148-2.441-.112-.352.018-.655.045-.87.068-.108.011-.194.021-.253.029-.03.004-.053.007-.069.009l-.019.003h-.005s-.002.001-.002.001c-.27.038-.459.286-.426.557l.92,7.313h2.873Z"/>
        <path class="cls-1" d="M14.979,16.543c-.737-.327-1.789-.543-2.979-.543s-2.242.215-2.979.543c-.369.164-.637.346-.805.523-.166.175-.216.32-.216.434s.05.259.216.434c.169.177.436.359.805.523.737.327,1.789.543,2.979.543s2.242-.215,2.979-.543c.369-.164.637-.346.805-.523.166-.175.216-.32.216-.434s-.05-.259-.216-.434c-.169-.177-.436-.359-.805-.523Z"/>
        <path class="cls-1" d="M2,14v5.5c0,1.381,1.119,2.5,2.5,2.5h15c1.381,0,2.5-1.119,2.5-2.5v-5.5H2ZM16.509,18.623c-.287.301-.678.55-1.124.748-.892.396-2.089.629-3.385.629s-2.493-.232-3.385-.629c-.445-.198-.837-.447-1.123-.748-.289-.304-.491-.684-.491-1.123s.202-.819.491-1.123c.287-.301.678-.55,1.123-.748.892-.396,2.089-.629,3.385-.629s2.493.232,3.385.629c.445.198.837.447,1.124.748.289.304.491.684.491,1.123s-.202.819-.491,1.123Z"/>
        <path class="cls-1" d="M19.447,8.276c-.085-.169-.258-.276-.447-.276h-.676l-.25,2h.426c.276,0,.5.224.5.5s-.224.5-.5.5H5.5c-.276,0-.5-.224-.5-.5s.224-.5.5-.5h.426l-.25-2h-.676c-.189,0-.363.107-.447.276l-2.362,4.724h19.618l-2.362-4.724Z"/>
      </g>
    </g>
  </g>
</svg>