<?xml version="1.0" encoding="UTF-8"?>
<svg id="Camada_1" data-name="Camada 1" xmlns="http://www.w3.org/2000/svg" width="24" height="24" version="1.1" viewBox="0 0 24 24">
  <path d="M16.238,10c-3.314,0-6,2.686-6,6s2.686,6,6,6,6-2.686,6-6-2.686-6-6-6ZM19.946,14.602l-4.44,4.631c-.094.098-.223.153-.357.154h-.004c-.134,0-.262-.054-.356-.149l-2.253-2.287c-.194-.196-.192-.513.005-.707.197-.192.512-.191.708.006l1.893,1.92,4.084-4.259c.191-.199.508-.206.707-.016.199.191.206.508.016.707Z" fill="#363636" stroke-width="0"/>
  <path d="M9.238,16c0-3.86,3.141-7,7-7,1.924,0,3.668.781,4.935,2.041V3.594c0-.234-.163-.438-.392-.488L11.781,1.105c-.071-.016-.146-.016-.217,0L2.564,3.105c-.229.051-.392.254-.392.488v10c0,.045.006.09.018.134,1.28,4.604,7.711,9.366,9.482,9.366.356,0,.992-.255,1.763-.684-2.468-1.083-4.197-3.547-4.197-6.41Z" fill="#363636" stroke-width="0"/>
</svg>