<?xml version="1.0" encoding="utf-8"?>
<!-- Generator: Adobe Illustrator 28.4.1, SVG Export Plug-In . SVG Version: 6.00 Build 0)  -->
<svg version="1.0" id="Camada_1" xmlns="http://www.w3.org/2000/svg" xmlns:xlink="http://www.w3.org/1999/xlink" x="0px" y="0px"
	 width="24px" height="24px" viewBox="0 0 24 24" enable-background="new 0 0 24 24" xml:space="preserve">
<path fill-rule="evenodd" clip-rule="evenodd"    d="M12,2.5c-0.3,0-0.5,0.1-0.8,0.2l0,0l-7,4l0,0
	C4.2,6.8,4.1,6.8,4,6.9l8,4.6l8-4.6c-0.1-0.1-0.1-0.1-0.2-0.1l0,0l-7-4l0,0C12.5,2.6,12.3,2.5,12,2.5z M3.5,8c0-0.1,0-0.2,0-0.3
	l8,4.5v9.1c-0.1,0-0.2-0.1-0.2-0.1l-7-4C4,17.2,3.8,17,3.7,16.7c-0.1-0.2-0.2-0.5-0.2-0.7V8z M12.5,21.4c0.1,0,0.2-0.1,0.2-0.1l0,0
	l7-4c0.2-0.1,0.4-0.3,0.5-0.5c0.1-0.2,0.2-0.5,0.2-0.7V8c0-0.1,0-0.2,0-0.3l-8,4.6V21.4z"/>
</svg>
