<?xml version="1.0" encoding="UTF-8"?>
<svg id="Camada_1" xmlns="http://www.w3.org/2000/svg" width="24" height="24" version="1.1" viewBox="0 0 24 24">
  <!-- Generator: Adobe Illustrator 29.1.0, SVG Export Plug-In . SVG Version: 2.1.0 Build 142)  -->
  <path d="M20.43,2.122l1.125-.125c.274-.031.472-.278.442-.552s-.278-.472-.552-.442l-1.125.125c-.274.031-.472.278-.442.552.031.274.278.472.552.442Z" fill="#363636"/>
  <path d="M18.07,1.378l-2.25.25c-.274.031-.472.278-.442.552.031.274.278.472.552.442l2.25-.25c.274-.031.472-.278.442-.552s-.278-.472-.552-.442Z" fill="#363636"/>
  <path d="M13.57,1.878l-1.125.125c-.274.031-.472.278-.442.552.031.274.278.472.552.442l1.125-.125c.274-.031.472-.278.442-.552s-.278-.472-.552-.442Z" fill="#363636"/>
  <path d="M13.734,4.262l-1.125-.25c-.27-.06-.537.11-.597.38-.06.27.11.537.38.597l1.125.25c.27.06.537-.11.597-.38.06-.27-.11-.537-.38-.597Z" fill="#363636"/>
  <path d="M18.234,5.262l-2.25-.5c-.27-.06-.537.11-.597.38-.06.27.11.537.38.597l2.25.5c.27.06.537-.11.597-.38.06-.27-.11-.537-.38-.597Z" fill="#363636"/>
  <path d="M21.609,6.012l-1.125-.25c-.27-.06-.537.11-.597.38-.06.27.11.537.38.597l1.125.25c.27.06.537-.11.597-.38.06-.27-.11-.537-.38-.597Z" fill="#363636"/>
  <path d="M10,2.5c0-.154-.071-.299-.192-.394-.121-.095-.28-.128-.429-.091l-4,1c-.223.056-.379.256-.379.485v1.5h5v-2.5Z" fill="#363636"/>
  <path d="M11.5,9h-.5v-1.5c0-.828-.672-1.5-1.5-1.5h-4.002c-.828,0-1.498.672-1.498,1.5v1.5h-.5c-.828,0-1.5.672-1.5,1.5v11c0,.828.672,1.5,1.5,1.5h8c.828,0,1.5-.672,1.5-1.5v-11c0-.828-.672-1.5-1.5-1.5Z" fill="#363636"/>
</svg>