<?xml version="1.0" encoding="UTF-8"?>
<svg xmlns="http://www.w3.org/2000/svg" width="24" height="24" version="1.1" viewBox="0 0 24 24">

        <path  d="M13,3h3.083c.243,0,.476-.097.648-.268.172-.172.268-.488.268-.732s-.097-.56-.268-.732c-.172-.172-.405-.268-.648-.268h-7.167c-.243,0-.476.097-.648.268-.172.172-.268.405-.268.648v3.083h5v-2Z"/>
        <rect  x="8" y="13" width="5" height="4"/>
        <path  d="M16.071,8h-2.071v-1.056c0-.25-.098-.491-.272-.668-.174-.177-.41-.277-.657-.277h-5.143c-.246,0-.482.099-.657.277s-.272.417-.272.668v1.056h-2.071c-.246,0-.482.099-.657.277s-.272.417-.272.668v13.111c0,.25.098.491.272.668.174.177.41.277.657.277h11.143c.246,0,.482-.099.657-.277.174-.177.272-.417.272-.668v-13.111c0-.25-.098-.491-.272-.668-.174-.177-.41-.277-.657-.277ZM14.681,19.613c-.348.354-.689.387-1.181.387h-6c-.493,0-.815-.032-1.164-.387-.337-.343-.337-.804-.336-1.288v-8.326h9v8.278c0,.036,0,.073,0,.109.002.461.004.898-.319,1.227Z"/>
        <path  d="M20.713,4.964c-.159-.318-.365-.625-.563-.889-.199-.265-.397-.496-.544-.659-.074-.082-.136-.148-.18-.194-.022-.023-.039-.041-.052-.054l-.015-.015-.004-.004-.002-.002c-.094-.094-.221-.146-.354-.146s-.26.053-.354.146l-.002.002-.004.004-.015.015c-.012.013-.03.031-.052.054-.044.046-.106.112-.18.194-.147.164-.345.394-.544.659-.198.264-.404.571-.563.889-.155.31-.287.673-.287,1.036,0,.686.349,1.194.752,1.514.384.305.864.479,1.247.476.424.005.911-.163,1.295-.482.4-.332.706-.842.706-1.509,0-.363-.132-.727-.287-1.036Z"/>

</svg>