<?xml version="1.0" encoding="UTF-8"?>
<svg xmlns="http://www.w3.org/2000/svg" width="24" height="24" version="1.1" viewBox="0 0 24 24">
  <defs>
    <style>
      .cls-1 {
        fill: #363636;
      }
    </style>
  </defs>
  <!-- Generator: Adobe Illustrator 28.7.1, SVG Export Plug-In . SVG Version: 1.2.0 Build 142)  -->
  <g>
    <g id="Camada_1">
      <path class="cls-1" d="M12.41,1.213c-.094-.134-.246-.213-.41-.213s-.316.08-.41.213l-7,10c-.107.153-.12.352-.034.518.086.165.257.269.443.269h2.25l-4.65,6.2c-.114.151-.132.354-.047.524.085.169.258.276.447.276h8v2h-4c-.552,0-1,.448-1,1s.448,1,1,1h10c.552,0,1-.448,1-1s-.448-1-1-1h-4v-2h8c.189,0,.362-.107.447-.276.085-.169.066-.372-.047-.524l-4.65-6.2h2.25c.186,0,.357-.104.444-.269.086-.165.073-.365-.034-.518L12.41,1.213Z"/>
    </g>
  </g>
</svg>