<?xml version="1.0" encoding="utf-8"?>
<!-- Generator: Adobe Illustrator 28.3.0, SVG Export Plug-In . SVG Version: 6.00 Build 0)  -->
<svg version="1.1" id="Camada_2" xmlns="http://www.w3.org/2000/svg" xmlns:xlink="http://www.w3.org/1999/xlink" x="0px" y="0px"
	 width="24px" height="24px" viewBox="0 0 24 24" enable-background="new 0 0 24 24" xml:space="preserve">
<g>
	<path fill="#363636" d="M13.068,9.019h-2.024V6.996c0-0.552-0.448-1-1-1s-1,0.448-1,1v2.023H7.021c-0.552,0-1,0.448-1,1
		s0.448,1,1,1h2.023v2.024c0,0.553,0.448,1,1,1s1-0.447,1-1v-2.024h2.024c0.553,0,1-0.448,1-1S13.621,9.019,13.068,9.019z"/>
	<path fill="#363636" d="M21.764,20.379l-5.431-5.431c1.068-1.36,1.712-3.069,1.712-4.929c0-4.411-3.589-8-8-8c-4.411,0-8,3.589-8,8
		c0,4.412,3.589,8,8,8c1.832,0,3.517-0.625,4.867-1.665l5.438,5.438c0.195,0.195,0.451,0.293,0.707,0.293s0.512-0.098,0.707-0.293
		C22.154,21.402,22.154,20.77,21.764,20.379z M4.044,10.019c0-3.309,2.691-6,6-6c3.309,0,6,2.691,6,6c0,3.309-2.691,6-6,6
		C6.736,16.02,4.044,13.328,4.044,10.019z"/>
</g>
</svg>
