<?xml version="1.0" encoding="UTF-8"?>
<svg id="Camada_1" xmlns="http://www.w3.org/2000/svg" width="24" height="24" version="1.1" viewBox="0 0 24 24">
  <!-- Generator: Adobe Illustrator 29.3.0, SVG Export Plug-In . SVG Version: 2.1.0 Build 146)  -->
  <path d="M12,1c-3.492,0-6.738,1.457-9,4.069v-2.069c0-.552-.448-1-1-1s-1,.448-1,1v5c0,.3.134.583.366.773s.536.266.83.207l5-1c.542-.108.893-.635.784-1.177-.108-.542-.635-.893-1.177-.784l-2.394.479c1.884-2.247,4.621-3.498,7.59-3.498,4.971,0,9,4.029,9,9s-4.03,9-9,9c-.412,0-.813-.023-1.203-.068-.549-.063-1.044.331-1.107.879s.331,1.044.88,1.108c.467.054.945.081,1.432.081,6.075,0,11-4.925,11-11S18.075,1,12,1Z" fill="#363636"/>
  <path d="M3.068,13.203c-.045-.39-.068-.792-.068-1.203,0-.552-.448-1-1-1s-1,.448-1,1c0,.487.027.964.081,1.431.063.549.559.943,1.107.88.549-.063.942-.559.88-1.107Z" fill="#363636"/>
  <path d="M4.763,17.579c-.463-.619-.846-1.31-1.135-2.063-.198-.516-.776-.773-1.292-.575-.516.198-.773.776-.575,1.292.354.923.826,1.777,1.401,2.545.331.442.958.532,1.4.201.442-.331.532-.958.201-1.4Z" fill="#363636"/>
  <path d="M8.484,20.372c-.753-.289-1.444-.672-2.063-1.135-.442-.331-1.069-.241-1.4.201-.331.442-.241,1.069.201,1.4.768.575,1.622,1.047,2.545,1.401.516.198,1.094-.06,1.292-.575.198-.516-.06-1.094-.575-1.292Z" fill="#363636"/>
  <path d="M11,17c0,.552.448,1,1,1s1-.448,1-1v-1c1.381,0,2.5-1.119,2.5-2.5s-1.119-2.5-2.5-2.5h-2c-.276,0-.5-.224-.5-.5s.224-.5.5-.5h3.5c.552,0,1-.448,1-1s-.448-1-1-1h-1.5v-1c0-.552-.448-1-1-1s-1,.448-1,1v1c-1.381,0-2.5,1.119-2.5,2.5s1.119,2.5,2.5,2.5h2c.276,0,.5.224.5.5s-.224.5-.5.5h-3.5c-.552,0-1,.448-1,1s.448,1,1,1h1.5v1Z" fill="#363636"/>
</svg>