<svg xmlns="http://www.w3.org/2000/svg" width="24" height="24" viewBox="0 0 24 24"><path d="M18.7,1.25a1.33,1.33,0,0,0-.83.29l-1.2,1L15.16,1.3a1.32,1.32,0,0,0-.83-.3,1.29,1.29,0,0,0-.82.3L12,2.54,10.49,1.3A1.29,1.29,0,0,0,9.67,1a1.32,1.32,0,0,0-.83.3L7.33,2.54l-1.2-1a1.33,1.33,0,0,0-.83-.29,1.28,1.28,0,0,0-.89.35A1.3,1.3,0,0,0,4,2.55v18.9a1.3,1.3,0,0,0,1.3,1.3,1.33,1.33,0,0,0,.83-.29l1.2-1L8.84,22.7a1.32,1.32,0,0,0,.83.3,1.29,1.29,0,0,0,.82-.3L12,21.46l1.51,1.24a1.29,1.29,0,0,0,.82.3,1.32,1.32,0,0,0,.83-.3l1.51-1.24,1.2,1a1.33,1.33,0,0,0,.83.29,1.3,1.3,0,0,0,1.3-1.3V2.55A1.3,1.3,0,0,0,18.7,1.25ZM16,16.51H8a.51.51,0,0,1,0-1h8a.51.51,0,0,1,0,1Zm0-4H8a.51.51,0,0,1,0-1h8a.51.51,0,1,1,0,1Zm0-4H8a.51.51,0,0,1,0-1h8a.51.51,0,1,1,0,1Z"/></svg>