<?xml version="1.0" encoding="UTF-8"?>
<svg id="Camada_1" xmlns="http://www.w3.org/2000/svg" width="40" height="40" version="1.1" viewBox="0 0 40 40">
  <!-- Generator: Adobe Illustrator 29.5.1, SVG Export Plug-In . SVG Version: 2.1.0 Build 141)  -->
  <path d="M8.149,34.411l.044.407c.315,2.004,2.048,3.516,4.116,3.516h15.381c2.206,0,4.031-1.72,4.16-3.922l1.239-21.078H6.91l1.239,21.078ZM21.666,21.667c0-.92.746-1.667,1.667-1.667s1.667.746,1.667,1.667v10c0,.921-.746,1.667-1.667,1.667s-1.667-.746-1.667-1.667v-10ZM15,21.667c0-.92.746-1.667,1.667-1.667s1.667.746,1.667,1.667v10c0,.921-.746,1.667-1.667,1.667s-1.667-.746-1.667-1.667v-10Z" fill="#363636" fill-rule="evenodd"/>
  <path d="M35,8.333h-6.667v-1.667c0-2.761-2.239-5-5-5h-6.667c-2.761,0-5,2.239-5,5v1.667h-6.667c-.92,0-1.667.746-1.667,1.667s.746,1.667,1.667,1.667h30c.921,0,1.667-.746,1.667-1.667s-.746-1.667-1.667-1.667ZM25,8.333h-10v-1.667c0-.92.746-1.667,1.667-1.667h6.667c.92,0,1.667.746,1.667,1.667v1.667Z" fill="#363636" fill-rule="evenodd"/>
</svg>