<?xml version="1.0" encoding="UTF-8"?>
<svg id="Camada_1" xmlns="http://www.w3.org/2000/svg" width="24" height="24" version="1.1" viewBox="0 0 24 24">
  <!-- Generator: Adobe Illustrator 29.3.0, SVG Export Plug-In . SVG Version: 2.1.0 Build 146)  -->
  <path d="M19.683,14.468h0s-.003-.001-.003-.001l-.008-.003-.028-.01c-.023-.009-.056-.021-.098-.035-.084-.029-.203-.068-.352-.11-.297-.085-.713-.185-1.197-.247-.954-.122-2.236-.104-3.354.557-.728.43-1.259,1.057-1.643,1.691v-2.849c.785-.124,1.672-.523,2.483-1.118,1.001-.734,1.941-1.805,2.481-3.155.535-1.338.661-2.913.661-4.123,0-.611-.032-1.141-.064-1.519-.016-.189-.032-.341-.045-.446-.006-.053-.011-.094-.015-.122l-.004-.033v-.009s-.002-.003-.002-.003h0c-.036-.257-.262-.443-.519-.43h-.008s-.02.001-.02.001l-.076.004c-.065.004-.159.01-.276.018-.233.017-.558.043-.923.082-.72.077-1.636.205-2.32.416-.686.211-1.473.607-2.07.937-.303.167-.565.321-.751.434l-.02.012h-.001c-.168-.112-.401-.266-.663-.431-.514-.325-1.167-.719-1.644-.931-.086-.038-.173-.074-.262-.107-.188-.071-.38-.131-.564-.181-.22-.06-.429-.107-.612-.142-.206-.04-.383-.068-.509-.085-.063-.009-.114-.015-.15-.019l-.042-.005h-.012s-.004-.002-.004-.002h-.002c-.243-.024-.467.131-.531.367v.002s-.001.003-.001.003l-.002.009-.009.033c-.007.029-.017.07-.03.122-.025.105-.058.256-.094.444-.073.376-.157.905-.205,1.518-.095,1.212-.054,2.809.554,4.2,1.264,2.89,3.587,4.073,5.27,4.27v3.836c-.385-.634-.916-1.261-1.643-1.691-1.118-.661-2.4-.679-3.354-.557-.483.062-.9.162-1.197.247-.149.043-.268.082-.352.111-.042.014-.075.026-.098.035l-.027.01-.008.003h-.003s-.001.002-.001.002c-.219.086-.348.314-.31.546h0s0,.004,0,.004l.002.009.005.029c.005.025.011.06.02.104.018.088.046.214.086.367.079.305.205.725.396,1.183.375.902,1.028,2.026,2.128,2.676,1.118.661,2.4.679,3.354.557.386-.049.729-.123,1.003-.194v1.754c0,.276.224.5.5.5s.5-.224.5-.5v-2.752c.274.071.617.145,1.002.194.954.122,2.236.104,3.354-.557,1.1-.65,1.753-1.774,2.128-2.676.19-.458.317-.878.395-1.183.039-.153.067-.278.085-.367.009-.044.016-.079.02-.104l.005-.029v-.008s.002-.003.002-.003h0c.038-.233-.091-.461-.31-.548Z" fill="#363636"/>
  <path d="M11.115,3.552c.148.094.286.183.41.263.151-.089.326-.189.517-.294.603-.333,1.427-.75,2.165-.977.456-.14.998-.245,1.518-.322-.805-.757-1.89-1.222-3.083-1.222-1.345,0-2.552.591-3.377,1.525.048.02.095.04.143.061.514.229,1.196.641,1.708.965Z" fill="#363636"/>
</svg>