<?xml version="1.0" encoding="UTF-8"?>
<svg xmlns="http://www.w3.org/2000/svg" width="24" height="24" version="1.1" viewBox="0 0 24 24">
  <defs>
    <style>
      .cls-1 {
        fill: #363636;
        fill-rule: evenodd;
      }
    </style>
  </defs>
  <!-- Generator: Adobe Illustrator 28.7.1, SVG Export Plug-In . SVG Version: 1.2.0 Build 142)  -->
  <g>
    <g id="Camada_1">
      <g>
        <path class="cls-1" d="M9,1.5c0-.276-.224-.5-.5-.5h-4c-.276,0-.5.224-.5.5v3.5h5V1.5Z"/>
        <path class="cls-1" d="M9,8.349v-2.349h-5v2.349l-1.244,1.866c-.493.739-.756,1.608-.756,2.496v8.789c0,.828.672,1.5,1.5,1.5h6c.828,0,1.5-.672,1.5-1.5v-8.789c0-.888-.263-1.757-.756-2.496l-1.244-1.866ZM9,19.5c0,.276-.224.5-.5.5h-4c-.276,0-.5-.224-.5-.5v-6c0-.276.224-.5.5-.5h4c.276,0,.5.224.5.5v6Z"/>
        <path class="cls-1" d="M21,1.5c0-.276-.224-.5-.5-.5h-6c-.276,0-.5.224-.5.5v2.5h7V1.5Z"/>
        <path class="cls-1" d="M21.5,5h-8c-.276,0-.5.224-.5.5v14c0,1.933,1.567,3.5,3.5,3.5h2c1.933,0,3.5-1.567,3.5-3.5V5.5c0-.276-.224-.5-.5-.5ZM20,18.5c0,.276-.224.5-.5.5h-4c-.276,0-.5-.224-.5-.5v-9c0-.276.224-.5.5-.5h4c.276,0,.5.224.5.5v9Z"/>
      </g>
    </g>
  </g>
</svg>