<?xml version="1.0" encoding="UTF-8"?>
<svg id="Camada_1" data-name="Camada 1" xmlns="http://www.w3.org/2000/svg" width="24" height="24" version="1.1" viewBox="0 0 24 24">
  <path d="M22.794,9.798h0c-.436-2.133-1.494-4.087-3.041-5.618-1.02-1.027-2.236-1.838-3.576-2.384-1.34-.546-2.777-.817-4.224-.796-1.445.004-2.874.292-4.207.849-1.333.557-2.544,1.37-3.562,2.394C2.126,6.312.975,9.113.983,12.031c.008,2.917,1.174,5.712,3.243,7.769,2.069,2.057,4.87,3.209,7.787,3.201h.06c2.176-.011,4.3-.667,6.103-1.885,1.803-1.218,3.204-2.944,4.026-4.958.822-2.014,1.028-4.228.592-6.36ZM17.502,17.16c-.026.06-.062.114-.109.16-.045.047-.1.084-.16.11s-.125.04-.19.04c-.13.001-.256-.049-.35-.14l-4.68-4.62-4.63,4.67c-.046.047-.1.084-.16.11s-.125.04-.19.04c-.066,0-.131-.012-.191-.038s-.114-.064-.159-.112c-.047-.045-.084-.1-.109-.16-.025-.06-.038-.125-.038-.19s.013-.13.038-.19c.025-.06.062-.114.109-.16l4.62-4.68-4.67-4.62c-.082-.095-.126-.218-.122-.344.004-.126.056-.245.144-.335.088-.089.207-.142.333-.148.125-.005.249.037.345.118l4.68,4.62,4.63-4.67c.045-.048.098-.086.159-.112s.125-.039.191-.039.131.013.191.039.114.064.159.112c.047.045.084.1.109.16.025.06.038.125.038.19s-.013.13-.038.19c-.026.06-.062.114-.109.16l-4.62,4.68,4.67,4.62h0c.047.044.084.099.109.159.025.06.038.125.038.19s-.013.13-.038.19Z" fill="#363636" stroke-width="0"/>
</svg>