<?xml version="1.0" encoding="utf-8"?>
<!-- Generator: Adobe Illustrator 28.4.1, SVG Export Plug-In . SVG Version: 6.00 Build 0)  -->
<svg version="1.0" id="Camada_1" xmlns="http://www.w3.org/2000/svg" xmlns:xlink="http://www.w3.org/1999/xlink" x="0px" y="0px"
	 width="24px" height="24px" viewBox="0 0 24 24" enable-background="new 0 0 24 24" xml:space="preserve">
<path    d="M21.9,1.5c0.2,0,0.3,0,0.4,0.1c0.1,0.1,0.2,0.3,0.1,0.4l0,0l0,0l0,0c0,0,0,0,0,0.1c0,0.1,0,0.2,0,0.3
	c0,0.3-0.1,0.7-0.2,1.2c-0.2,1-0.5,2.3-0.9,3.8c-0.9,3-2.3,6.5-4.5,8.8c-2.4,2.4-5,2.8-7.1,2.6c-0.8-0.1-1.5-0.2-2.1-0.4l6.4-6.4
	c0.2-0.2,0.2-0.5,0-0.7c-0.2-0.2-0.5-0.2-0.7,0l-6.7,6.7l0,0l-4.3,4.3c-0.2,0.2-0.5,0.2-0.7,0c-0.2-0.2-0.2-0.5,0-0.7l4.2-4.2
	c-0.1-0.2-0.2-0.4-0.3-0.6c-0.2-0.6-0.5-1.4-0.6-2.5c-0.2-2,0.2-4.7,2.7-7.1c1.3-1.3,3.1-2.3,5.1-3.1c0.1-0.1,0.3-0.1,0.4,0
	c0.1,0.1,0.2,0.1,0.3,0.3L15,7.7l0.6-4.3c0-0.2,0.2-0.3,0.3-0.4c1.6-0.5,3.1-0.9,4.2-1.1c0.6-0.1,1-0.2,1.3-0.3
	c0.2,0,0.3-0.1,0.4-0.1C21.8,1.5,21.9,1.5,21.9,1.5L21.9,1.5L21.9,1.5L21.9,1.5z"/>
</svg>
