<?xml version="1.0" encoding="UTF-8"?>
<svg xmlns="http://www.w3.org/2000/svg" width="24" height="24" version="1.1" viewBox="0 0 24 24">
  <defs>
    <style>
      .cls-1 {
        fill: #363636;
      }
    </style>
  </defs>
  <!-- Generator: Adobe Illustrator 28.6.0, SVG Export Plug-In . SVG Version: 1.2.0 Build 709)  -->
  <g>
    <g id="Camada_1">
      <g>
        <path class="cls-1" d="M21.5,15h-.5v-.5c0-2.254-.896-4.416-2.49-6.01-1.476-1.476-3.438-2.353-5.51-2.475v-1.515c0-1.933-1.567-3.5-3.5-3.5h-5c-.276,0-.5.224-.5.5s.224.5.5.5h5c1.381,0,2.5,1.119,2.5,2.5v1.515c-2.072.122-4.035.999-5.51,2.475-1.594,1.594-2.49,3.756-2.49,6.01v.5h-.5c-.276,0-.5.224-.5.5s.224.5.5.5h18c.276,0,.5-.224.5-.5s-.224-.5-.5-.5ZM20,15H5v-.5c0-.167.006-.334.017-.5h14.967c.011.166.017.333.017.5v.5Z"/>
        <path class="cls-1" d="M4.5,18c-.276,0-.5.224-.5.5v1c0,.276.224.5.5.5s.5-.224.5-.5v-1c0-.276-.224-.5-.5-.5Z"/>
        <path class="cls-1" d="M9.5,18c-.276,0-.5.224-.5.5v1c0,.276.224.5.5.5s.5-.224.5-.5v-1c0-.276-.224-.5-.5-.5Z"/>
        <path class="cls-1" d="M6.5,21c-.276,0-.5.224-.5.5v1c0,.276.224.5.5.5s.5-.224.5-.5v-1c0-.276-.224-.5-.5-.5Z"/>
        <path class="cls-1" d="M12.5,21c-.276,0-.5.224-.5.5v1c0,.276.224.5.5.5s.5-.224.5-.5v-1c0-.276-.224-.5-.5-.5Z"/>
        <path class="cls-1" d="M18.5,21c-.276,0-.5.224-.5.5v1c0,.276.224.5.5.5s.5-.224.5-.5v-1c0-.276-.224-.5-.5-.5Z"/>
        <path class="cls-1" d="M15.5,18c-.276,0-.5.224-.5.5v1c0,.276.224.5.5.5s.5-.224.5-.5v-1c0-.276-.224-.5-.5-.5Z"/>
        <path class="cls-1" d="M20.5,18c-.276,0-.5.224-.5.5v1c0,.276.224.5.5.5s.5-.224.5-.5v-1c0-.276-.224-.5-.5-.5Z"/>
      </g>
    </g>
  </g>
</svg>