<?xml version="1.0" encoding="UTF-8"?>
<svg xmlns="http://www.w3.org/2000/svg" width="24" height="24" version="1.1" viewBox="0 0 24 24">
  <defs>
    <style>
      .cls-1 {
        fill: #363636;
      }
    </style>
  </defs>
  <!-- Generator: Adobe Illustrator 28.6.0, SVG Export Plug-In . SVG Version: 1.2.0 Build 709)  -->
  <g>
    <g id="Camada_1">
      <g>
        <path class="cls-1" d="M11.292,6.585L5.854,1.146c-.195-.195-.512-.195-.707,0L1.146,5.146c-.195.195-.195.512,0,.707l5.439,5.439,4.707-4.707Z"/>
        <path class="cls-1" d="M22.145,6.439l-3.586-3.586c-.586-.586-1.536-.586-2.121,0l-1.939,1.939,2.354,2.354c.195.195.195.512,0,.707-.195.195-.512.195-.707,0l-2.354-2.354-2.293,2.293,1.354,1.354c.195.195.195.512,0,.707-.195.195-.512.195-.707,0l-1.354-1.354-2.293,2.293,2.354,2.354c.195.195.195.512,0,.707s-.512.195-.707,0l-2.354-2.354-2.293,2.293,1.354,1.354c.195.195.195.512,0,.707s-.512.195-.707,0l-1.354-1.354-1.94,1.94c-.586.586-.586,1.536,0,2.121l3.586,3.586c.586.586,1.536.586,2.121,0l13.586-13.586c.586-.586.586-1.536,0-2.121Z"/>
        <path class="cls-1" d="M21.99,17.402c-.019-.097-.067-.186-.137-.255l-3.441-3.441-4.706,4.708,3.44,3.44c.07.07.159.117.255.137l5,1c.164.033.333-.018.452-.137.118-.118.169-.288.137-.452l-1-5Z"/>
      </g>
    </g>
  </g>
</svg>