<?xml version="1.0" encoding="utf-8"?>
<!-- Generator: Adobe Illustrator 28.4.1, SVG Export Plug-In . SVG Version: 6.00 Build 0)  -->
<svg version="1.0" id="Camada_1" xmlns="http://www.w3.org/2000/svg" xmlns:xlink="http://www.w3.org/1999/xlink" x="0px" y="0px"
	 width="24px" height="24px" viewBox="0 0 24 24" enable-background="new 0 0 24 24" xml:space="preserve">
<path    d="M19.6,2H4.4C3.1,2,2,3.1,2,4.4v15.2C2,20.9,3.1,22,4.4,22h15.2c1.3,0,2.4-1.1,2.4-2.4V4.4
	C22,3.1,20.9,2,19.6,2z M17.7,10.7c-0.1,0-0.2,0-0.3,0c-1.2,0-2.3-0.6-3-1.6c0,2.5,0,5.4,0,5.5c0,2.2-1.8,4.1-4.1,4.1
	c-2.2,0-4.1-1.8-4.1-4.1s1.8-4.1,4.1-4.1c0.1,0,0.2,0,0.3,0v2c-0.1,0-0.2,0-0.3,0c-1.1,0-2.1,0.9-2.1,2.1c0,1.1,0.9,2.1,2.1,2.1
	c1.1,0,2.2-0.9,2.2-2c0,0,0-9.3,0-9.3h1.9C14.6,7,16,8.4,17.7,8.5V10.7z"/>
</svg>
