<?xml version="1.0" encoding="UTF-8"?>
<svg xmlns="http://www.w3.org/2000/svg" width="24" height="24" version="1.1" viewBox="0 0 24 24">
  <defs>
    <style>
      .cls-1 {
        fill: #363636;
      }
    </style>
  </defs>
  <!-- Generator: Adobe Illustrator 28.7.1, SVG Export Plug-In . SVG Version: 1.2.0 Build 142)  -->
  <g>
    <g id="Camada_1">
      <g>
        <path class="cls-1" d="M12,5c.552,0,1-.448,1-1v-2c0-.552-.448-1-1-1s-1,.448-1,1v2c0,.552.448,1,1,1Z"/>
        <path class="cls-1" d="M5.931,6.803c.391.391,1.024.391,1.414,0,.391-.391.391-1.024,0-1.414l-1.414-1.414c-.391-.391-1.024-.391-1.414,0-.391.391-.391,1.024,0,1.414l1.414,1.414Z"/>
        <path class="cls-1" d="M2,12h2c.552,0,1-.448,1-1s-.448-1-1-1h-2c-.552,0-1,.448-1,1s.448,1,1,1Z"/>
        <path class="cls-1" d="M19,11c0,.552.448,1,1,1h2c.552,0,1-.448,1-1s-.448-1-1-1h-2c-.552,0-1,.448-1,1Z"/>
        <path class="cls-1" d="M18.319,6.803l1.414-1.414c.391-.391.391-1.024,0-1.414-.391-.391-1.024-.391-1.414,0l-1.414,1.414c-.391.391-.391,1.024,0,1.414s1.024.391,1.414,0Z"/>
        <path class="cls-1" d="M23,16c0-.552-.448-1-1-1h-7.978c-.015,0-.029,0-.044,0h-3.956c-.015,0-.029,0-.044,0H2c-.552,0-1,.448-1,1s.448,1,1,1h2.865l-3.633,4.36c-.354.424-.296,1.055.128,1.408.424.354,1.055.296,1.408-.128l4.7-5.64h1.144l-1.561,4.684c-.175.524.109,1.09.632,1.265.524.175,1.09-.108,1.265-.632l1.772-5.316h2.558l1.772,5.316c.175.524.741.807,1.265.632.524-.175.807-.741.633-1.265l-1.561-4.684h1.144l4.7,5.64c.354.424.984.482,1.408.128.424-.354.482-.984.128-1.408l-3.633-4.36h2.865c.552,0,1-.448,1-1Z"/>
        <path class="cls-1" d="M7.101,13h9.798c.066-.323.101-.657.101-1,0-2.761-2.239-5-5-5s-5,2.239-5,5c0,.343.035.677.101,1Z"/>
      </g>
    </g>
  </g>
</svg>