<?xml version="1.0" encoding="UTF-8"?>
<svg xmlns="http://www.w3.org/2000/svg" width="24" height="24" version="1.1" viewBox="0 0 24 24">
  <defs>
    <style>
      .cls-1 {
        fill: #363636;
      }
    </style>
  </defs>
  <!-- Generator: Adobe Illustrator 28.6.0, SVG Export Plug-In . SVG Version: 1.2.0 Build 709)  -->
  <g>
    <g id="Camada_1">
      <g>
        <path class="cls-1" d="M22.99,12.203s-.004-.003-.007-.005l-.824-.567-.064-.045-.063-.047-.062-.049-.061-.051-.061-.052-.06-.054-.06-.056-.059-.057-.058-.059-.058-.06-.058-.062-.057-.063-.057-.065-.056-.066-.056-.067-.056-.068-.056-.07-.055-.071-.055-.072-.053-.07-.002-.003-.053-.071-.002-.003-.053-.072-.002-.003-.053-.073-.002-.002-.053-.074-.002-.002-.053-.074v-.002s-.054-.075-.054-.075v-.002s-.054-.076-.054-.076v-.002s-.054-.076-.054-.076h0s-.053-.078-.053-.078h0s-.053-.079-.053-.079l-.053-.078-.053-.079-.316-.47-.052-.077-.053-.078-.051-.075h0s-.051-.075-.051-.075h0s-.051-.075-.051-.075v-.002s-.051-.072-.051-.072v-.002s-.051-.071-.051-.071v-.002s-.051-.07-.051-.07l-.002-.002-.049-.069-.002-.002-.049-.067-.002-.003-.049-.066-.002-.003-.048-.064-.002-.003-.048-.063-.003-.003-.047-.061-.003-.004-.047-.059-.003-.004-.046-.058-.003-.004-.047-.058-.049-.058-.049-.056-.048-.055-.048-.052-.047-.051-.047-.049-.047-.046-.046-.044-.045-.042-.045-.04-.044-.038-.044-.035-.043-.033-.042-.031-.041-.028-.04-.026-.039-.024-.038-.022-.037-.019-.036-.017-.035-.015-.034-.013-.033-.011-.032-.01-.031-.008-.031-.006-.03-.005-.03-.003-.029-.002h-.029s-.029,0-.029,0l-.029.002-.03.004-.03.005-.031.007-.032.008-.033.01-.034.012-.035.014-.036.016-.036.018-.038.02-.039.022-.039.024-.041.027-.041.029-.042.031-.043.034-.044.036-.044.038-.045.041-.046.043-.046.045-.047.047-.047.049-.048.051-.048.053-.048.055-.049.057-.049.059-.049.06-.049.062-.05.063-.05.065-.049.065-.002.003-.048.065-.002.003-.049.066-.002.003-.049.068-.002.002-.049.069-.002.002-.05.07v.002s-.051.071-.051.071v.002s-.052.073-.052.073l-.052.075h0s-.051.076-.051.076h0s-.052.077-.052.077l-.051.076-.157.234-.158.236-.106.157-.054.08-.053.077h0s-.053.078-.053.078h0s-.053.078-.053.078v.002s-.054.076-.054.076v.002s-.054.075-.054.075v.002s-.054.074-.054.074l-.002.002-.054.076-.055.075-.055.074-.055.073-.055.073-.055.072-.056.071-.056.069-.056.069-.057.067-.057.066-.057.065-.058.063-.058.062-.059.061-.059.059-.06.057-.06.056-.061.054-.061.052-.062.05-.063.049-.064.047-.053.036-.012.008-.053.034-.013.008-.053.032-.014.008-.053.03-.015.008-.053.027-.007.004-.008.004-.053.025-.012.006-.005.002-.053.023-.009.004-.009.004-.053.02c-.006.002-.012.005-.019.007l-.053.018c-.007.002-.013.004-.02.006l-.053.016c-.007.002-.014.004-.021.006l-.053.013c-.007.002-.014.003-.021.005l-.053.011c-.007.002-.015.003-.022.004l-.053.008c-.008.001-.015.002-.023.003l-.053.006h-.011s-.013.002-.013.002l-.053.003c-.008,0-.016,0-.023.001h-.053s-.009,0-.013,0c-.003,0-.007,0-.01,0l-.053-.002c-.008,0-.016,0-.023-.001l-.053-.004c-.008,0-.015-.001-.023-.002l-.053-.007h-.009s-.013-.003-.013-.003l-.053-.009c-.007-.001-.015-.003-.022-.004l-.053-.011c-.007-.002-.014-.003-.021-.005l-.053-.014c-.007-.002-.014-.004-.021-.006l-.053-.016c-.007-.002-.013-.004-.02-.007l-.053-.019c-.006-.002-.012-.005-.019-.007l-.053-.021s-.006-.002-.009-.003c-.003-.001-.006-.003-.009-.004l-.053-.023s-.006-.003-.009-.004c-.002-.001-.005-.002-.007-.004l-.053-.026c-.005-.003-.01-.005-.016-.008l-.053-.028-.014-.008-.053-.03-.013-.008-.053-.033-.013-.008-.053-.035-.012-.008-.064-.045-.063-.047-.062-.049-.061-.051-.061-.052-.06-.054-.059-.056-.059-.057-.058-.059-.058-.06-.057-.062-.057-.063-.057-.065-.056-.066-.056-.067-.056-.068-.056-.07-.055-.071-.055-.072-.055-.073-.055-.073-.055-.074-.054-.075-.053-.074-.002-.002-.053-.074v-.002s-.054-.075-.054-.075v-.002s-.054-.076-.054-.076v-.002s-.054-.076-.054-.076h0s-.053-.078-.053-.078h0s-.053-.079-.053-.079h0s-.053-.079-.053-.079l-.317-.472-.104-.155-.052-.077h0s-.051-.076-.051-.076h0s-.051-.076-.051-.076h0s-.051-.075-.051-.075v-.002s-.051-.072-.051-.072v-.002s-.051-.071-.051-.071v-.002s-.051-.07-.051-.07l-.002-.002-.049-.069-.002-.002-.049-.067-.002-.003-.049-.066-.002-.003-.048-.064-.051-.068-.05-.065-.05-.063-.049-.062-.049-.06-.049-.058-.049-.056-.048-.054-.048-.053-.047-.051-.047-.049-.046-.046-.046-.044-.045-.042-.045-.04-.044-.038-.043-.035-.043-.033-.042-.031-.041-.029-.04-.026-.039-.024-.038-.022-.037-.019-.036-.017-.035-.015-.034-.013-.033-.011-.032-.01-.032-.008-.031-.006-.03-.005-.03-.003-.029-.002h-.029s-.029,0-.029,0l-.029.002-.03.004-.03.005-.031.007-.032.008-.033.01-.034.012-.035.014-.036.016-.037.018-.038.02-.039.022-.04.024-.04.027-.041.029-.042.031-.043.034-.044.036-.044.038-.045.04-.046.043-.046.045-.047.047-.047.049-.048.051-.048.053-.048.055-.049.057-.049.059-.049.06-.049.062-.05.063-.05.065-.05.066-.05.068-.051.069-.051.07-.05.07-.002.002-.05.07v.002s-.051.071-.051.071v.002s-.052.073-.052.073v.002s-.052.074-.052.074h0s-.051.076-.051.076h0s-.051.076-.051.076l-.052.077-.262.391-.159.236-.053.079-.053.078h0s-.053.078-.053.078h0s-.054.079-.054.079l-.054.077-.054.077-.054.076-.054.076-.055.075-.055.074-.055.073-.055.073-.055.072-.056.071-.056.069-.056.069-.057.067-.057.066-.057.065-.058.063-.058.062-.059.061-.059.059-.06.057-.06.056-.061.054-.061.052-.062.05-.063.049-.064.047-.053.036-.012.008-.053.034-.013.008-.053.032-.014.008-.053.03-.015.008-.053.027c-.005.003-.01.005-.016.008l-.053.025c-.006.003-.011.005-.017.008l-.053.023c-.006.003-.012.005-.018.007l-.053.02c-.006.002-.013.005-.019.007l-.053.018c-.007.002-.013.004-.02.006l-.053.016c-.007.002-.014.004-.021.006l-.053.013c-.007.002-.014.003-.021.005l-.053.011c-.007.002-.015.003-.022.004l-.053.008c-.008.001-.015.002-.023.003l-.053.006c-.008,0-.015.002-.023.002l-.053.003c-.008,0-.016,0-.023.001h-.053c-.008.001-.016,0-.023,0l-.053-.002c-.008,0-.016,0-.023-.001l-.053-.004c-.008,0-.015-.001-.023-.002l-.053-.007c-.008,0-.015-.002-.023-.003l-.053-.009c-.007-.001-.015-.003-.022-.004l-.053-.011c-.007-.002-.014-.003-.021-.005l-.053-.014c-.007-.002-.014-.004-.02-.006l-.053-.016c-.007-.002-.013-.004-.02-.007l-.053-.019c-.006-.002-.012-.005-.019-.007l-.053-.021c-.006-.002-.012-.005-.018-.007l-.053-.023c-.006-.003-.011-.005-.017-.008l-.053-.026c-.005-.003-.01-.005-.016-.008l-.053-.028c-.009-.005-.018-.01-.027-.015l-.283-.174c-.005.142-.008.284-.008.427,0,1.8.432,3.5,1.199,5h.017s.029-.002.029-.002l.03-.003.03-.005.031-.006.032-.008.032-.01.033-.011.034-.013.035-.015.036-.017.037-.02.038-.022.039-.024.04-.026.041-.029.042-.031.043-.033.043-.035.044-.038.045-.04.045-.042.046-.044.047-.047.047-.048.047-.051.048-.053.048-.055.049-.056.049-.058.049-.06.049-.061.05-.063.05-.065.05-.066.05-.067.051-.069.051-.07.051-.071.051-.072.051-.073.052-.074.051-.074h0s.051-.076.051-.076h0s.051-.076.051-.076h0s.051-.077.051-.077l.052-.077.369-.549.054-.08.053-.077h0s.054-.079.054-.079l.054-.078.054-.077.054-.077.054-.077.054-.076.055-.075.055-.075.055-.074.055-.073.055-.072.056-.071.056-.07.056-.069.056-.068.057-.066.057-.065.058-.064.058-.062.058-.061.059-.059.059-.058.06-.056.061-.054.061-.053.062-.051.063-.049.064-.047.053-.037.012-.008.053-.035.013-.008.053-.033.014-.008.053-.03.015-.008.053-.028s.004-.002.006-.003c.003-.002.006-.003.01-.005l.053-.026c.005-.003.011-.005.017-.008l.053-.023c.006-.003.012-.005.018-.007l.053-.021c.006-.003.012-.005.019-.007l.053-.019c.006-.002.013-.005.02-.007l.053-.016c.007-.002.014-.004.02-.006l.053-.014c.007-.002.014-.003.021-.005l.053-.011c.007-.002.015-.003.022-.004l.053-.009c.008-.001.015-.002.023-.003l.053-.007c.008,0,.015-.002.023-.002l.053-.004c.008,0,.016,0,.023-.001l.053-.002c.008,0,.016,0,.023,0h.053c.008,0,.016.001.023.002l.053.003c.008,0,.015.001.023.002l.053.006c.008,0,.015.002.023.003l.053.008c.007.001.015.003.022.004l.053.011c.007.001.014.003.021.005l.053.013c.007.002.014.004.021.006l.053.016s.006.002.009.003c.004.001.007.003.011.004l.053.018c.006.002.013.004.019.007l.053.02c.006.002.012.005.018.007l.053.023c.006.002.011.005.017.008l.053.025c.005.003.011.005.016.008l.053.027.015.008.053.03.014.008.053.032.013.008.053.034.012.008.064.044.063.047.062.048.061.05.061.052.06.054.06.055.059.057.059.059.058.06.058.062.057.063.057.064.057.066.056.067.056.068.056.069.055.07.055.071.055.072.055.073.055.074.054.075.054.076.054.076.054.077.054.077.054.078.053.078.053.078.053.078.106.158.315.469.052.077h0s.051.076.051.076h0s.051.076.051.076h0s.051.075.051.075h.001s.05.074.05.074v.002s.051.072.051.072v.002s.051.07.051.07v.002s.051.069.051.069l.002.002.049.068.002.003.049.066.002.003.048.065.051.068.05.065.05.063.049.062.049.06.049.058.049.057.048.055.048.053.048.051.047.049.047.047.046.045.046.043.045.041.044.038.044.036.043.034.042.031.041.029.04.027.04.025.039.022.038.02.037.018.036.016.034.014.034.012.033.01.032.008.031.007.03.005.03.004.029.002h.029s.029,0,.029,0l.029-.002.03-.003.03-.005.031-.006.032-.008.032-.01.033-.011.034-.013.035-.015.036-.017.037-.02.038-.022.039-.024.04-.026.041-.029.042-.031.043-.033.043-.035.044-.038.045-.04.045-.042.046-.044.046-.047.047-.048.047-.051.048-.053.048-.055.049-.056.049-.058.049-.06.049-.061.05-.063.05-.065.05-.066.049-.066.002-.003.049-.066.002-.003.049-.067.002-.002.049-.069.002-.002.05-.07v-.002s.051-.071.051-.071v-.002s.052-.072.052-.072v-.002s.052-.073.052-.073h0s.052-.077.052-.077l.051-.075h0s.051-.077.051-.077l.105-.155.158-.235.159-.236.053-.078.053-.078h0s.053-.078.053-.078h0s.053-.078.053-.078v-.002s.054-.076.054-.076v-.002s.054-.075.054-.075v-.002s.054-.074.054-.074v-.002s.056-.076.056-.076l.055-.075.055-.075.055-.074.055-.073.055-.072.056-.071.056-.07.056-.069.057-.068.057-.066.057-.065.058-.064.058-.062.059-.061.059-.059.059-.058.06-.056.061-.054.061-.053.062-.051.063-.049.063-.047.053-.037.012-.008.053-.035.013-.008.053-.033.014-.008.053-.03.015-.008.053-.028c.005-.003.01-.005.016-.008l.053-.026s.005-.003.008-.004c.003-.001.005-.003.008-.004l.053-.023c.006-.003.012-.005.018-.007l.053-.021c.006-.003.012-.005.019-.007l.053-.019.005-.002s.009-.003.014-.005l.053-.016c.007-.002.014-.004.02-.006l.053-.014c.007-.002.014-.003.021-.005l.053-.011s.007-.001.01-.002c.004,0,.008-.001.012-.002l.053-.009c.008-.001.015-.002.023-.003l.053-.007s.007,0,.011-.001c.004,0,.008,0,.012-.001l.053-.004c.008,0,.016,0,.023-.001l.053-.002c.008,0,.016,0,.023,0h.053c.008,0,.016.001.023.002l.053.003c.008,0,.016.001.023.002l.053.006c.008,0,.015.002.023.003l.053.008c.007.001.015.003.022.004l.053.011s.005,0,.007.001c.005.001.01.002.015.003l.053.013c.007.002.014.004.021.006l.053.016c.007.002.013.004.02.006l.053.018c.006.002.013.004.019.007l.053.02c.006.002.012.005.018.007l.053.023s.006.003.009.004c.003.001.005.002.008.004l.053.025c.005.003.011.005.016.008l.053.027.015.008.053.03.014.008.053.032.013.008.053.034.012.008.064.044.063.047.062.048.061.05.061.052.06.054.06.055.059.057.059.059.058.06.058.062.057.063.057.064.057.066.056.067.056.068.056.069.055.07.055.071.055.072.055.073.055.074.054.075.054.076.054.076.054.077.054.077.054.078.054.078.053.078.053.078.053.079.316.471.052.077.052.077.052.076h0s.051.076.051.076h0s.051.075.051.075h.001s.05.074.05.074v.002s.051.072.051.072v.002s.051.07.051.07l.002.002.049.069.002.002.049.068.002.003.049.066.002.003.048.065.002.003.048.063.003.003.047.062.003.004.047.06.003.004.046.058.003.004.048.058.049.059.049.057.003.003c.526-1.25.827-2.618.854-4.053-.003-.002-.005-.003-.008-.005Z"/>
        <path class="cls-1" d="M21.613,17.162l-.058-.06-.058-.062-.057-.063-.057-.065-.056-.066-.056-.067-.056-.068-.056-.07-.055-.071-.055-.072-.055-.073-.053-.071-.002-.003-.053-.072-.002-.003-.053-.073-.002-.002-.053-.074-.002-.002-.053-.074v-.002s-.054-.075-.054-.075v-.002s-.054-.076-.054-.076v-.002s-.054-.076-.054-.076h0s-.053-.078-.053-.078h0s-.053-.08-.053-.08l-.053-.078-.053-.079-.316-.47-.052-.077-.053-.078-.051-.075h0s-.051-.075-.051-.075h0s-.051-.075-.051-.075v-.002s-.051-.072-.051-.072v-.002s-.051-.071-.051-.071v-.002s-.051-.07-.051-.07v-.002s-.051-.069-.051-.069l-.002-.002-.049-.067-.002-.003-.049-.066-.002-.003-.048-.064-.002-.003-.048-.063-.003-.003-.047-.061-.003-.004-.047-.059-.003-.004-.046-.058-.003-.004-.047-.058-.049-.058-.049-.056-.048-.055-.048-.052-.048-.051-.047-.048-.047-.047-.046-.044-.045-.042-.045-.04-.044-.038-.044-.035-.043-.033-.042-.031-.041-.029-.04-.026-.039-.024-.038-.022-.037-.02-.036-.017-.035-.015-.034-.013-.033-.011-.032-.01-.032-.008-.031-.006-.03-.005-.03-.003-.029-.002h-.029s-.029,0-.029,0l-.029.002-.03.004-.03.005-.031.007-.032.008-.033.01-.034.012-.035.014-.036.016-.036.018-.038.02-.039.022-.039.024-.04.027-.041.029-.042.031-.043.034-.044.036-.044.038-.045.041-.046.043-.046.045-.047.047-.047.049-.048.051-.048.053-.048.055-.049.057-.049.059-.049.06-.049.062-.05.064-.05.065-.049.065-.002.003-.048.065-.002.003-.049.066-.002.003-.049.068-.002.002-.049.069-.002.002-.05.07v.002s-.051.072-.051.072v.002s-.052.073-.052.073h-.001s-.051.075-.051.075l-.053.077-.052.076-.051.076-.157.234-.158.236-.106.157-.054.08-.053.077h0s-.053.078-.053.078h-.001s-.053.078-.053.078v.002s-.054.076-.054.076v.002s-.054.075-.054.075v.002s-.054.074-.054.074l-.002.002-.054.076-.055.075-.055.074-.055.073-.055.073-.055.072-.056.071-.056.069-.056.069-.056.067-.057.066-.057.065-.058.063-.058.062-.059.061-.059.059-.06.057-.06.056-.061.054-.061.052-.062.05-.063.049-.064.047-.053.036-.012.008-.053.034-.013.008-.053.032-.014.008-.053.03-.015.008-.053.027c-.005.003-.01.005-.016.008l-.053.025-.01.005-.007.003-.053.023s-.006.003-.01.004c-.003.001-.005.002-.008.003l-.053.02s-.006.002-.009.003c-.003.001-.007.002-.01.004l-.053.018c-.007.002-.013.004-.02.006l-.053.016c-.007.002-.014.004-.021.006l-.053.013c-.007.002-.014.003-.021.005l-.053.011c-.007.002-.015.003-.022.004l-.053.008c-.008.001-.015.002-.023.003l-.053.006c-.008,0-.015.002-.023.002l-.053.003s-.005,0-.008,0c-.005,0-.01,0-.016,0h-.053c-.008.001-.016,0-.023,0l-.053-.002s-.004,0-.006,0c-.006,0-.011,0-.017,0l-.053-.004c-.008,0-.015-.001-.023-.002l-.053-.007c-.008,0-.015-.002-.023-.003l-.053-.009c-.007-.001-.015-.003-.022-.004l-.053-.011s-.006-.001-.009-.002c-.004-.001-.008-.002-.013-.003l-.053-.014c-.007-.002-.014-.004-.021-.006l-.053-.016c-.007-.002-.013-.004-.02-.007l-.053-.019c-.006-.002-.012-.005-.019-.007l-.053-.021c-.006-.002-.012-.005-.018-.007l-.053-.023c-.006-.003-.011-.005-.017-.008l-.053-.026c-.005-.003-.01-.005-.016-.008l-.053-.028-.014-.008-.053-.03-.013-.008-.053-.033-.013-.008-.053-.035-.012-.008-.064-.045-.063-.047-.062-.049-.061-.051-.061-.052-.06-.054-.06-.056-.059-.057-.058-.059-.058-.06-.058-.062-.057-.063-.057-.065-.056-.066-.056-.067-.056-.068-.056-.07-.055-.071-.055-.072-.055-.073-.055-.073-.055-.074-.054-.075-.053-.074-.002-.002-.053-.074v-.002s-.054-.075-.054-.075v-.002s-.054-.076-.054-.076v-.002s-.054-.076-.054-.076h0s-.053-.078-.053-.078h0s-.053-.078-.053-.078h0s-.053-.079-.053-.079l-.317-.471-.104-.155-.052-.077-.052-.076h0s-.051-.076-.051-.076h0s-.051-.075-.051-.075v-.002s-.051-.072-.051-.072v-.002s-.051-.071-.051-.071v-.002s-.051-.07-.051-.07l-.052-.072-.051-.07-.051-.069-.05-.067-.05-.066-.05-.065-.05-.063-.049-.061-.049-.06-.049-.058-.049-.056-.048-.055-.048-.053-.047-.051-.047-.048-.047-.047-.046-.044-.045-.042-.045-.04-.044-.038-.044-.035-.043-.033-.042-.031-.041-.029-.04-.026-.039-.024-.038-.022-.037-.02-.036-.017-.035-.015-.034-.013-.033-.011-.032-.01-.032-.008-.031-.006-.03-.005-.03-.003-.029-.002h-.029s-.029,0-.029,0l-.029.002-.03.004-.03.005-.031.007-.032.008-.033.01-.034.012-.035.014-.036.016-.037.018-.038.02-.039.022-.04.024-.04.027-.041.029-.042.031-.043.034-.044.036-.044.038-.045.041-.046.043-.046.045-.047.047-.047.049-.048.051-.048.053-.048.055-.049.057-.049.058-.049.06-.05.062-.05.064-.05.065-.05.066-.05.068-.051.069-.051.07-.05.07-.002.002-.05.07v.002s-.051.072-.051.072v.002s-.052.073-.052.073h-.001s-.051.075-.051.075h0s-.051.076-.051.076h0s-.051.077-.051.077l-.052.077-.368.548-.053.079-.053.078-.054.08-.054.078-.054.078-.054.077-.054.077-.054.076-.054.076-.055.075-.055.074-.055.073-.055.073-.055.072-.056.071-.056.069-.056.069-.057.067-.057.066-.057.065-.058.063-.058.062-.059.061-.059.059-.06.057-.06.056-.061.054-.061.052-.062.05-.063.049-.064.047-.053.036-.012.008-.053.034-.013.008-.053.032-.014.008-.053.03-.015.008-.053.027c-.005.003-.01.005-.016.008l-.053.025c-.006.003-.011.005-.017.008l-.053.023c-.006.003-.012.005-.018.007l-.053.02c-.006.002-.012.005-.019.007l-.045.015c1.954,3.059,5.379,5.088,9.278,5.088,4.182,0,7.82-2.334,9.68-5.771l-.009-.008-.058-.059Z"/>
        <path class="cls-1" d="M1.833,10.904l.037.018.036.016.035.014.034.012.033.01.032.008.031.007.03.005.03.004.029.002h.029s.029,0,.029,0l.029-.002.03-.003.03-.005.031-.006.032-.008.032-.01.033-.011.034-.013.035-.015.036-.017.037-.02.038-.022.039-.024.04-.026.041-.029.042-.031.043-.033.043-.035.044-.038.045-.04.045-.042.046-.044.047-.047.047-.048.047-.051.048-.053.048-.055.049-.056.049-.058.049-.06.049-.061.05-.063.05-.065.05-.066.05-.067.051-.069.051-.07.051-.071.051-.072.051-.073.051-.074.051-.074h0s.051-.076.051-.076h0s.051-.076.051-.076h0s.051-.077.051-.077l.052-.077.422-.628.054-.079.054-.078.053-.076v-.002s.055-.078.055-.078l.054-.077.054-.077.054-.076.055-.075.055-.075.055-.074.055-.073.055-.072.056-.071.056-.07.056-.069.056-.068.057-.066.057-.065.058-.064.058-.062.058-.061.059-.059.059-.058.06-.056.061-.054.061-.053.062-.051.063-.049.064-.047.053-.037.012-.008.053-.035.013-.008.053-.033.014-.008.053-.03.015-.008.053-.028c.005-.003.01-.005.016-.008l.053-.026c.005-.003.011-.005.017-.008l.053-.023c.006-.003.012-.005.018-.007l.053-.021c.006-.002.012-.005.019-.007l.053-.019c.006-.002.013-.004.02-.006l.053-.016c.007-.002.014-.004.02-.006l.053-.014c.007-.002.014-.004.021-.005l.053-.011c.007-.002.015-.003.022-.004l.053-.009c.008-.001.015-.002.023-.003l.053-.006c.008,0,.015-.002.023-.002l.053-.004c.008,0,.016,0,.023-.001l.053-.002c.008,0,.016,0,.023,0h.053c.008.001.016.001.023.002l.053.003c.008,0,.015.001.023.002l.053.006c.008,0,.015.002.023.003l.053.008c.007.001.015.003.022.004l.053.011c.007.001.014.003.021.005l.053.013c.007.002.014.004.021.006l.053.016c.007.002.013.004.02.006l.053.018c.006.002.013.004.019.007l.053.02c.006.002.012.005.018.007l.053.023c.006.002.011.005.017.008l.053.025c.005.003.011.005.016.008l.053.027.015.008.053.03.014.008.053.032.013.008.053.034.012.008.064.044.063.046.062.048.061.05.061.052.06.054.06.055.059.057.059.059.058.06.058.062.057.063.057.064.057.066.056.067.056.068.056.069.055.07.055.071.055.072.055.073.055.074.054.075.054.076.054.076.054.077.054.077.054.078.053.078.053.078.053.078.106.158.315.469.052.077h0s.051.076.051.076h0s.051.076.051.076h0s.051.075.051.075v.002s.051.073.051.073v.002s.051.071.051.071v.002s.051.07.051.07v.002s.051.069.051.069l.002.002.049.068.002.003.049.066.002.003.048.065.051.068.05.065.05.063.05.062.049.06.049.058.049.057.048.055.048.053.048.051.047.049.047.047.046.045.046.043.045.041.044.038.044.036.043.034.042.031.041.029.04.027.04.025.039.022.038.02.037.018.035.016.035.014.034.012.033.01.032.008.031.007.03.005.03.004.029.002h.029s.029,0,.029,0l.029-.002.03-.003.03-.005.031-.006.032-.008.032-.01.033-.011.034-.013.035-.015.036-.017.037-.02.038-.022.039-.024.04-.026.041-.029.042-.031.043-.033.044-.035.044-.038.045-.04.045-.042.046-.044.047-.047.047-.048.047-.051.048-.053.048-.055.049-.056.049-.058.049-.06.049-.061.05-.063.05-.065.05-.066.049-.066.002-.003.049-.066.002-.003.049-.067.002-.002.049-.069.002-.002.05-.07v-.002s.051-.071.051-.071v-.002s.052-.072.052-.072v-.002s.052-.073.052-.073h0s.052-.077.052-.077l.051-.075h0s.051-.077.051-.077l.105-.155.158-.235.159-.236.053-.079.053-.078h0s.053-.078.053-.078h0s.053-.078.053-.078v-.002s.054-.076.054-.076v-.002s.054-.075.054-.075v-.002s.054-.074.054-.074v-.002s.056-.076.056-.076l.055-.075.055-.075.055-.074.055-.073.055-.072.056-.071.056-.07.056-.069.056-.068.057-.066.057-.065.058-.064.058-.062.059-.061.059-.059.06-.058.06-.056.061-.054.061-.053.062-.051.063-.049.063-.047.053-.037.012-.008.053-.035.013-.008.053-.033.014-.008.053-.03.015-.008.053-.028s.006-.003.01-.005c.002,0,.004-.002.006-.003l.053-.026c.005-.003.011-.005.016-.008l.053-.023c.006-.003.012-.005.018-.007l.053-.021c.006-.002.012-.005.019-.007l.053-.019c.007-.002.013-.004.02-.006l.053-.016c.007-.002.014-.004.02-.006l.053-.014c.007-.002.014-.004.021-.005l.053-.011c.007-.002.015-.003.022-.004l.053-.009h.008s.015-.003.015-.003l.053-.006s.008,0,.012-.001c.004,0,.007,0,.011,0l.053-.004c.008,0,.016,0,.023-.001l.053-.002c.008,0,.016,0,.023,0h.053s.01.001.01.001h.013s.053.004.053.004c.008,0,.015.001.023.002l.053.006c.008,0,.015.002.023.003l.053.008s.008.001.012.002c.003,0,.007.001.01.002l.053.011c.007.001.014.003.021.005l.053.013s.009.002.013.003c.003,0,.005.001.008.002l.053.016c.007.002.013.004.02.006l.053.018c.006.002.013.004.019.007l.053.02c.006.002.012.005.018.007l.053.023c.006.002.011.005.017.008l.053.025c.005.003.011.005.016.008l.053.027.015.008.053.03.014.008.053.032.013.008.053.034.012.008.064.044.063.046.062.048.061.05.061.052.06.054.06.055.059.057.059.059.058.06.058.062.057.063.057.064.057.066.056.067.056.068.056.069.055.07.055.071.055.072.055.073.055.074.054.075.054.076.054.076.054.077.054.077.054.078.053.078.053.078.053.078.053.079.316.471.052.077.052.077.052.076h0s.051.076.051.076h0s.051.075.051.075v.002s.052.073.052.073v.002s.051.071.051.071v.002s.051.07.051.07l.002.002.049.069.002.002.049.068.002.003.049.066.002.003.048.065.002.003.048.063.003.003.047.062.003.004.047.06.003.004.046.058.003.004.048.058.049.059.049.057.048.055.048.053.047.051.047.049.047.047.046.045.045.043.045.041.044.038.044.036.043.034.042.031.043.03.004.003.217.149c-.522-5.589-5.226-9.963-10.952-9.963C6.448,1,1.856,5.114,1.107,10.46l.694.427.031.017Z"/>
      </g>
    </g>
  </g>
</svg>