<?xml version="1.0" encoding="UTF-8"?>
<svg xmlns="http://www.w3.org/2000/svg" width="24" height="24" version="1.1" viewBox="0 0 24 24">
  <defs>
    <style>
      .cls-1 {
        fill: #363636;
      }
    </style>
  </defs>
  <!-- Generator: Adobe Illustrator 28.6.0, SVG Export Plug-In . SVG Version: 1.2.0 Build 709)  -->
  <g>
    <g id="Camada_1">
      <g>
        <path class="cls-1" d="M21.667,5.747c.331-.574.421-1.257.25-1.897-.172-.64-.591-1.186-1.165-1.518-.574-.332-1.257-.421-1.897-.25-.64.172-1.186.591-1.518,1.165l-3.238,5.753h5.829l1.739-3.253Z"/>
        <path class="cls-1" d="M21.854,10.146c-.093-.093-.22-.146-.352-.146H2.498c-.132,0-.258.053-.352.146-.094.094-.146.221-.146.354,0,2.119.587,4.196,1.694,6.002,1.053,1.719,2.539,3.128,4.306,4.09v.908c0,.276.224.5.5.5h7c.276,0,.5-.224.5-.5v-.908c1.767-.961,3.253-2.371,4.306-4.09,1.107-1.806,1.693-3.883,1.694-6.002,0-.133-.053-.26-.146-.354Z"/>
      </g>
    </g>
  </g>
</svg>