<?xml version="1.0" encoding="UTF-8"?>
<svg xmlns="http://www.w3.org/2000/svg" width="24" height="24" version="1.1" viewBox="0 0 24 24">
  <defs>
    <style>
      .cls-1 {
        fill: #363636;
      }
    </style>
  </defs>
  <!-- Generator: Adobe Illustrator 28.6.0, SVG Export Plug-In . SVG Version: 1.2.0 Build 709)  -->
  <g>
    <g id="Camada_1">
      <g>
        <path class="cls-1" d="M22.035,7.487c-.463.208-.685.442-.819.669-.138.233-.202.482-.288.816-.013.05-.026.101-.04.155-.134.512-.276.93-.434,1.23-.078.149-.174.296-.294.411-.122.117-.305.232-.542.232s-.419-.115-.542-.232c-.12-.115-.216-.261-.294-.411-.157-.3-.3-.719-.434-1.23-.108-.412-.21-.713-.302-.916-.092.204-.194.504-.302.916-.134.512-.276.93-.434,1.23-.078.149-.174.296-.294.411-.122.117-.305.232-.542.232s-.419-.115-.542-.232c-.121-.115-.216-.261-.294-.411-.157-.3-.3-.719-.434-1.23-.108-.412-.21-.713-.302-.916-.092.204-.194.504-.302.916-.134.512-.276.93-.434,1.23-.078.149-.174.296-.294.411-.122.117-.305.232-.542.232s-.419-.115-.542-.232c-.12-.115-.216-.261-.294-.411-.157-.3-.3-.719-.434-1.23-.108-.412-.21-.713-.302-.916-.092.204-.194.504-.302.916-.134.512-.276.93-.434,1.23-.078.149-.174.296-.294.411-.122.117-.305.232-.542.232s-.419-.115-.542-.232c-.12-.115-.216-.261-.294-.411-.157-.3-.3-.719-.434-1.23-.108-.412-.21-.713-.302-.916-.092.204-.194.504-.302.916-.134.512-.276.93-.434,1.23-.078.149-.174.296-.294.411-.122.117-.305.232-.542.232s-.419-.115-.542-.232c-.121-.115-.216-.261-.294-.411-.157-.3-.3-.719-.434-1.23-.108-.412-.21-.713-.302-.916-.092.204-.194.504-.302.916-.134.512-.276.93-.434,1.23-.078.149-.174.296-.294.411-.122.117-.305.232-.542.232s-.419-.115-.542-.232c-.12-.115-.216-.261-.294-.411-.157-.3-.3-.719-.434-1.23-.057-.217-.159-.591-.331-.925-.141-.273-.286-.439-.424-.518-.566,1.325-.879,2.785-.879,4.317,0,1.608.345,3.135.965,4.512.447-.182.679-.403.822-.618.174-.26.249-.549.347-.927l.025-.094c.134-.512.276-.93.434-1.23.078-.149.174-.296.294-.411.122-.117.305-.232.542-.232s.419.115.542.232c.121.115.216.261.294.411.157.3.3.719.434,1.23.108.412.21.713.302.916.092-.204.194-.504.302-.916.134-.512.276-.93.434-1.23.078-.149.174-.296.294-.411.122-.117.305-.232.542-.232s.419.115.542.232c.12.115.216.261.294.411.157.3.3.719.434,1.23.108.412.21.713.302.916.092-.204.194-.504.302-.916.134-.512.276-.93.434-1.23.078-.149.174-.296.294-.411.122-.117.305-.232.542-.232s.419.115.542.232c.12.115.216.261.294.411.157.3.3.719.434,1.23.108.412.21.713.302.916.092-.204.194-.504.302-.916.134-.512.276-.93.434-1.23.078-.149.174-.296.294-.411.122-.117.305-.232.542-.232s.419.115.542.232c.12.115.216.261.294.411.157.3.3.719.434,1.23.108.412.21.713.302.916.092-.204.194-.504.302-.916.134-.512.276-.93.434-1.23.078-.149.174-.296.294-.411.122-.117.305-.232.542-.232s.419.115.542.232c.12.115.216.261.294.411.157.3.3.719.434,1.23.108.412.21.713.302.916.092-.204.194-.504.302-.916.134-.512.276-.93.434-1.23.078-.149.173-.296.294-.411.122-.117.305-.232.542-.232s.419.115.542.232c.12.115.216.261.294.411.157.3.3.719.434,1.23.023.089.038.163.054.237.028.137.056.272.133.495.08.229.209.527.434.911.621-1.378.967-2.906.967-4.516s-.345-3.136-.965-4.513Z"/>
        <path class="cls-1" d="M20.655,15.934c-.099-.286-.156-.554-.187-.705-.01-.046-.017-.081-.022-.102-.108-.412-.21-.713-.302-.916-.092.204-.194.504-.302.916-.134.512-.276.93-.434,1.23-.078.149-.174.296-.294.411-.122.117-.305.232-.542.232s-.419-.115-.542-.232c-.12-.115-.216-.261-.294-.411-.157-.3-.3-.719-.434-1.23-.108-.412-.21-.713-.302-.916-.092.204-.194.504-.302.916-.134.512-.276.93-.434,1.23-.078.149-.174.296-.294.411-.122.117-.305.232-.542.232s-.419-.115-.542-.232c-.12-.115-.216-.261-.294-.411-.157-.3-.3-.719-.434-1.23-.108-.412-.21-.713-.302-.916-.092.204-.194.504-.302.916-.134.512-.276.93-.434,1.23-.078.149-.174.296-.294.411-.122.117-.305.232-.542.232s-.419-.115-.542-.232c-.12-.115-.216-.261-.294-.411-.157-.3-.3-.719-.434-1.23-.108-.412-.21-.713-.302-.916-.092.204-.194.504-.302.916-.134.512-.276.93-.434,1.23-.078.149-.174.296-.294.411-.122.117-.305.232-.542.232s-.419-.115-.542-.232c-.121-.115-.216-.261-.294-.411-.157-.3-.3-.719-.434-1.23-.108-.412-.21-.713-.302-.916-.092.204-.194.504-.302.916-.134.512-.276.93-.434,1.23-.078.149-.174.296-.294.411-.122.117-.305.232-.542.232s-.419-.115-.542-.232c-.121-.115-.216-.261-.294-.411-.157-.3-.3-.719-.434-1.23-.108-.412-.21-.713-.302-.916-.092.204-.194.504-.302.916-.009.035-.018.071-.028.108-.091.353-.207.806-.48,1.215-.259.387-.637.712-1.201.956,1.888,3.339,5.472,5.594,9.582,5.594,4.052,0,7.593-2.191,9.502-5.454-.006-.008-.012-.016-.017-.024-.448-.672-.689-1.185-.83-1.589Z"/>
        <path class="cls-1" d="M3.192,7.743c.227.441.352.91.41,1.13.108.412.21.713.302.916.092-.204.194-.504.302-.916.134-.512.276-.93.434-1.23.078-.149.174-.296.294-.411.122-.117.305-.232.542-.232s.419.115.542.232c.12.115.216.261.294.411.157.3.3.719.434,1.23.108.412.21.713.302.916.092-.204.194-.504.302-.916.134-.512.276-.93.434-1.23.078-.149.174-.296.294-.411.122-.117.305-.232.542-.232s.419.115.542.232c.121.115.216.261.294.411.157.3.3.719.434,1.23.108.412.21.713.302.916.092-.204.194-.504.302-.916.134-.512.276-.93.434-1.23.078-.149.174-.296.294-.411.122-.117.305-.232.542-.232s.419.115.542.232c.121.115.216.261.294.411.157.3.3.719.434,1.23.108.412.21.713.302.916.092-.204.194-.504.302-.916.134-.512.276-.93.434-1.23.078-.149.174-.296.294-.411.122-.117.305-.232.542-.232s.419.115.542.232c.12.115.216.261.294.411.157.3.3.719.434,1.23.108.412.21.713.302.916.092-.204.194-.504.302-.916.134-.512.276-.93.434-1.23.078-.149.174-.296.294-.411.122-.117.305-.232.542-.232s.419.115.542.232c.121.115.216.261.294.411.157.3.3.719.434,1.23.108.412.21.713.302.916.092-.204.194-.504.302-.916.011-.044.023-.09.035-.137.082-.324.183-.724.4-1.09.247-.417.626-.773,1.227-1.052-1.888-3.34-5.472-5.594-9.582-5.594C7.814,1,4.173,3.339,2.315,6.781c.428.219.705.628.878.963Z"/>
      </g>
    </g>
  </g>
</svg>