<?xml version="1.0" encoding="UTF-8"?>
<svg xmlns="http://www.w3.org/2000/svg" width="24" height="24" version="1.1" viewBox="0 0 24 24">

        <path class="cls-1" d="M9.466,6.774l-.431,2.645c-.031.189.049.379.206.489.157.11.362.121.53.029l2.23-1.233,2.23,1.233c.168.093.373.081.53-.029.156-.11.236-.3.206-.489l-.431-2.645,1.824-1.869c.131-.134.176-.33.116-.508-.06-.178-.213-.307-.399-.336l-2.5-.382-1.123-2.392c-.082-.175-.259-.287-.453-.287s-.37.112-.453.287l-1.123,2.392-2.5.382c-.185.028-.339.158-.399.336-.06.178-.015.374.116.508l1.824,1.869Z"/>
        <path class="cls-1" d="M20.453,9.287c-.062-.131-.18-.234-.331-.272l-4.388-1.097.175,1.075,2.243.561-6.153,1.923-6.153-1.923,2.244-.561.175-1.075-4.385,1.096s-.009.002-.013.003c-.133.036-.25.128-.316.259l-1.5,3c-.063.127-.07.274-.018.406s.157.236.29.285l8,3c.219.082.461,0,.588-.185.018-.027.034-.055.047-.086l1.04-2.428,1.04,2.428c.105.246.385.365.635.271l8-3c.133-.05.238-.154.29-.285.007-.016.012-.033.017-.05.033-.118.021-.245-.035-.356l-1.495-2.989Z"/>
        <circle class="cls-1" cx="2" cy="7" r="1"/>
        <circle class="cls-1" cx="22" cy="2" r="1"/>
        <path class="cls-1" d="M3.5,3.5c.552,0,1,.448,1,1,0,.276.224.5.5.5s.5-.224.5-.5c0-.552.448-1,1-1,.276,0,.5-.224.5-.5s-.224-.5-.5-.5c-.552,0-1-.448-1-1,0-.276-.224-.5-.5-.5s-.5.224-.5.5c0,.552-.448,1-1,1-.276,0-.5.224-.5.5s.224.5.5.5Z"/>
        <path class="cls-1" d="M17.5,6.5c.552,0,1,.448,1,1,0,.276.224.5.5.5s.5-.224.5-.5c0-.552.448-1,1-1,.276,0,.5-.224.5-.5s-.224-.5-.5-.5c-.552,0-1-.448-1-1,0-.276-.224-.5-.5-.5s-.5.224-.5.5c0,.552-.448,1-1,1-.276,0-.5.224-.5.5s.224.5.5.5Z"/>
        <path class="cls-1" d="M12.5,16.618v4.882c0,.276-.224.5-.5.5s-.5-.224-.5-.5v-4.882c-.404.361-.988.488-1.527.286l-5.973-2.24v4.836c0,.204.124.388.314.464l7.5,3c.122.049.257.047.377-.002l7.495-2.998c.19-.076.314-.26.314-.464v-4.836l-5.973,2.24c-.539.202-1.123.075-1.527-.286Z"/>

</svg>