<?xml version="1.0" encoding="UTF-8"?>
<svg xmlns="http://www.w3.org/2000/svg" width="24" height="24" version="1.1" viewBox="0 0 24 24">

      <path class="cls-1" d="M5.496,18.447c-.249-.003-.488-.1-.67-.27-.174-.18-.274-.419-.28-.67v-6.81c.025-.51.43-.92.94-.95h1.86c.542-.035,1.001.396,1,.94l.05,6.76c-.006.251-.106.49-.28.67-.175.182-.417.284-.67.28l-1.95.05ZM15.256,19.947h-3.16c-.312-.017-.615-.113-.88-.28l-1.91-1.36c-.13-.097-.208-.248-.21-.41v-7.7c0-.276.224-.5.5-.5.572.029,1.051-.428,1.05-1v-3.5c.004-.254.104-.497.28-.68.182-.17.421-.267.67-.27,1.803,0,3.273,1.447,3.3,3.25v2.2h1.45c.788.006,1.546.301,2.13.83.909.849,1.238,2.151.84,3.33l-1.86,4.53c-.322.939-1.208,1.566-2.2,1.56Z"/>

</svg>