<?xml version="1.0" encoding="UTF-8"?>
<svg id="Camada_1" xmlns="http://www.w3.org/2000/svg" width="40" height="40" version="1.1" viewBox="0 0 40 40">
  <!-- Generator: Adobe Illustrator 29.5.1, SVG Export Plug-In . SVG Version: 2.1.0 Build 141)  -->
  <path d="M12.166,1.911c.156-.156.368-.244.589-.244h14.49c.221,0,.433.088.589.244l10.255,10.255c.156.156.244.368.244.589v14.49c0,.221-.088.433-.244.589l-10.255,10.255c-.156.156-.368.244-.589.244h-14.49c-.221,0-.433-.088-.589-.244L1.911,27.834c-.156-.156-.244-.368-.244-.589v-14.49c0-.221.088-.433.244-.589L12.166,1.911ZM20,30c1.381,0,2.5-1.119,2.5-2.5s-1.119-2.5-2.5-2.5-2.5,1.119-2.5,2.5,1.119,2.5,2.5,2.5ZM18.334,10c-.233,0-.455.098-.613.269-.158.171-.236.401-.217.633l.833,10c.036.432.397.764.83.764h1.667c.433,0,.794-.332.83-.764l.833-10c.019-.232-.059-.462-.217-.633-.158-.172-.38-.269-.613-.269h-3.333Z" fill="#363636" fill-rule="evenodd"/>
</svg>