<?xml version="1.0" encoding="UTF-8"?>
<svg xmlns="http://www.w3.org/2000/svg" width="24" height="24" version="1.1" viewBox="0 0 24 24">

        <polygon class="cls-1" points="7.473 14 10.527 14 10.971 6 7.029 6 7.473 14"/>
        <path class="cls-1" d="M12,17.5c0-2.086,1.162-3.901,2.873-4.833l1.123-10.111c.016-.141-.029-.283-.124-.389-.095-.106-.23-.167-.373-.167H2.5c-.142,0-.278.061-.373.167-.095.106-.14.247-.124.389l2,18c.021.187.146.347.322.413l.008.003.023.009c.02.007.049.018.087.031.075.027.184.065.32.111.272.091.656.214,1.104.338.888.246,2.059.509,3.119.54,1.079.032,2.265-.236,3.156-.498.096-.028.19-.057.28-.085v-2.022c0-.253.062-.491.173-.699-.361-.274-.594-.707-.594-1.195ZM11.499,14.528c-.015.265-.234.472-.499.472h-4c-.265,0-.484-.207-.499-.472l-.5-9c-.008-.137.042-.271.136-.371.094-.1.226-.156.363-.156h5c.137,0,.269.057.363.156.094.1.144.234.136.371l-.5,9Z"/>
        <path class="cls-1" d="M14,17.5c0-1.933,1.567-3.5,3.5-3.5.677,0,1.31.192,1.846.526l-.726.726c-.143.143-.186.358-.108.545.077.187.26.309.462.309h2.042c.006,0,.012,0,.018,0h.046c.276,0,.5-.224.5-.5v-2.105c0-.202-.122-.385-.309-.462-.187-.077-.402-.035-.545.108l-.658.658c-.728-.507-1.613-.804-2.568-.804-2.485,0-4.5,2.015-4.5,4.5,0,.276.224.5.5.5s.5-.224.5-.5Z"/>
        <path class="cls-1" d="M21.5,17c-.276,0-.5.224-.5.5,0,1.933-1.567,3.5-3.5,3.5-.677,0-1.31-.192-1.846-.526l.726-.726c.143-.143.186-.358.108-.545-.077-.187-.26-.309-.462-.309h-2.039c-.008,0-.015,0-.023,0h-.044c-.276,0-.5.224-.5.5v2.105c0,.202.122.385.309.462.187.077.402.035.545-.108l.658-.658c.728.507,1.613.804,2.568.804,2.485,0,4.5-2.015,4.5-4.5,0-.276-.224-.5-.5-.5Z"/>

</svg>