<?xml version="1.0" encoding="utf-8"?>
<!-- Generator: Adobe Illustrator 26.0.1, SVG Export Plug-In . SVG Version: 6.00 Build 0)  -->
<svg version="1.1" xmlns="http://www.w3.org/2000/svg" xmlns:xlink="http://www.w3.org/1999/xlink" x="0px" y="0px"
	 viewBox="0 0 24 24" style="enable-background:new 0 0 24 24;" xml:space="preserve">
<style type="text/css">
	.st0{fill:none;}
	.st1{display:none;}
	.st2{display:inline;}
	.st3{display:inline;clip-path:url(#SVGID_00000021119205548972478760000011086413222681540258_);}
	.st4{opacity:0.1;enable-background:new    ;}
	.st5{fill:#616161;}
	.st6{clip-path:url(#SVGID_00000034805064729555115720000008725776466775596933_);}
	.st7{fill:#FFFFFF;}
</style>
<g id="Info">
</g>
<g id="Keyline">
</g>
<g id="Create-Here">
	<g>
		<path d="M11.997,2.497c-5.247,0-9.5,4.253-9.5,9.5s4.253,9.5,9.5,9.5s9.5-4.253,9.5-9.5S17.244,2.497,11.997,2.497z
			 M16.644,16.143c-0.002,0.273-0.227,0.497-0.5,0.5l-3.396,0.027c-0.288-0.005-0.505-0.23-0.501-0.502
			c0.003-0.271,0.228-0.496,0.5-0.499l2.199-0.017L8.339,9.052l-0.017,2.193c-0.003,0.273-0.228,0.497-0.5,0.5
			c-0.284-0.003-0.502-0.228-0.5-0.5L7.35,7.851c0.002-0.273,0.227-0.497,0.5-0.5l3.396-0.027c0.288,0.005,0.505,0.23,0.501,0.502
			c-0.003,0.271-0.228,0.496-0.5,0.499L9.048,8.341l6.607,6.602l0.017-2.193c0.003-0.273,0.228-0.497,0.5-0.5
			c0.284,0.003,0.502,0.228,0.5,0.5L16.644,16.143z"/>
	</g>
</g>
</svg>
