<?xml version="1.0" encoding="UTF-8"?>
<svg xmlns="http://www.w3.org/2000/svg" width="24" height="24" version="1.1" viewBox="0 0 24 24">
  <defs>
    <style>
      .cls-1 {
        fill: #363636;
      }
    </style>
  </defs>
  <!-- Generator: Adobe Illustrator 28.6.0, SVG Export Plug-In . SVG Version: 1.2.0 Build 709)  -->
  <g>
    <g id="Camada_1">
      <path class="cls-1" d="M15,1c-1.061,0-2.078.421-2.828,1.172-.75.75-1.172,1.768-1.172,2.828v.5c0,.276.224.5.5.5s.5-.224.5-.5v-.5c0-.796.316-1.559.879-2.121s1.326-.879,2.121-.879,1.559.316,2.121.879c.563.563.879,1.326.879,2.121v8H1.5c-.276,0-.5.224-.5.5v3c0,1.194.474,2.338,1.318,3.182.725.725,1.672,1.177,2.682,1.29v1.528c0,.276.224.5.5.5s.5-.224.5-.5v-1.5h12v1.5c0,.276.224.5.5.5s.5-.224.5-.5v-1.528c1.01-.113,1.957-.565,2.682-1.29.844-.844,1.318-1.988,1.318-3.182v-3c0-.276-.224-.5-.5-.5h-3.5V5c0-1.061-.421-2.078-1.172-2.828-.75-.75-1.767-1.172-2.828-1.172Z"/>
    </g>
  </g>
</svg>