<?xml version="1.0" encoding="UTF-8"?>
<svg id="Camada_1" data-name="Camada 1" xmlns="http://www.w3.org/2000/svg" width="24" height="24" version="1.1" viewBox="0 0 24 24">
  <path d="M21.854,2.146c-.195-.195-.512-.195-.707,0l-4.868,4.868c-.528-.875-1.318-1.587-2.279-2.014,0-1.1-.9-2-2-2s-2,.9-2,2c-1.8.8-3,2.6-3,4.6v4c0,.5-.2.9-.6,1.2l-1.4,1v1.8c0,.2.044.393.122.571l-2.975,2.975c-.195.195-.195.512,0,.707.195.195.512.195.707,0L21.854,2.854c.195-.195.195-.512,0-.707Z" fill="#363636" stroke-width="0"/>
  <path d="M12,21.6c1,0,1.9-.6,2.3-1.5h-4.6c.4.9,1.3,1.5,2.3,1.5Z" fill="#363636" stroke-width="0"/>
  <path d="M17,13.6v-4c0-.155-.007-.308-.021-.46l-9.96,9.96h10.481c.8,0,1.5-.7,1.5-1.5v-1.8l-1.4-1c-.4-.3-.6-.7-.6-1.2Z" fill="#363636" stroke-width="0"/>
</svg>