<?xml version="1.0" encoding="UTF-8"?>
<svg xmlns="http://www.w3.org/2000/svg" width="24" height="24" version="1.1" viewBox="0 0 24 24">

        <path class="cls-1" d="M10,3h3.083c.243,0,.476-.097.648-.268s.268-.488.268-.732-.097-.56-.268-.732-.405-.268-.648-.268h-7.167c-.243,0-.476.097-.648.268-.172.172-.268.405-.268.648v3.083h5v-2Z"/>
        <path class="cls-1" d="M10,17.5v-3c0-.398.158-.779.439-1.061.281-.281.663-.439,1.061-.439.867,0,1.715.173,2.5.5v-4.556c0-.25-.098-.491-.272-.668-.174-.177-.41-.277-.657-.277h-2.071v-1.056c0-.25-.098-.491-.272-.668-.174-.177-.41-.277-.657-.277h-5.143c-.246,0-.482.099-.657.277s-.272.417-.272.668v1.056H1.929c-.246,0-.482.099-.657.277s-.272.417-.272.668v13.111c0,.25.098.491.272.668.174.177.41.277.657.277h11.107c-.407-.256-.787-.558-1.132-.904-1.219-1.219-1.904-2.872-1.904-4.596Z"/>
        <path class="cls-1" d="M22.854,12.146c-.094-.094-.221-.146-.354-.146-1.724,0-3.377.685-4.596,1.904-.79.79-1.356,1.763-1.656,2.819-.236-.403-.523-.777-.859-1.112-.411-.411-.881-.75-1.389-1.01-.767-.391-1.623-.601-2.5-.601-.133,0-.26.053-.354.146s-.146.221-.146.354v3c0,1.459.58,2.858,1.611,3.889.397.397.848.727,1.336.982.781.409,1.656.629,2.553.629,1.724,0,3.377-.685,4.596-1.904s1.904-2.872,1.904-4.596v-4c0-.133-.053-.26-.146-.354Z"/>
        <path class="cls-1" d="M14.752,7.514c.384.305.864.479,1.247.476.424.005.911-.163,1.295-.482.4-.332.706-.842.706-1.509,0-.363-.132-.727-.287-1.036-.159-.318-.365-.625-.563-.889-.199-.265-.397-.496-.544-.659-.074-.082-.136-.148-.18-.194-.022-.023-.039-.041-.052-.054l-.015-.015-.004-.004-.002-.002c-.094-.094-.221-.146-.354-.146s-.26.053-.354.146l-.002.002-.004.004-.015.015c-.012.013-.03.031-.052.054-.044.046-.106.112-.18.194-.147.164-.345.394-.544.659-.198.264-.404.571-.563.889-.155.31-.287.673-.287,1.036,0,.686.349,1.194.752,1.514Z"/>

</svg>