<?xml version="1.0" encoding="utf-8"?>
<!-- Generator: Adobe Illustrator 26.0.1, SVG Export Plug-In . SVG Version: 6.00 Build 0)  -->
<svg version="1.1" id="Camada_1" xmlns="http://www.w3.org/2000/svg" xmlns:xlink="http://www.w3.org/1999/xlink" x="0px" y="0px"
	 viewBox="0 0 24 24" style="enable-background:new 0 0 24 24;" xml:space="preserve">
<g>
	<path d="M15.4,7.1h4.3l-4.8-4.8v4.3C14.9,6.8,15.1,7.1,15.4,7.1z"/>
	<path d="M15.4,8.1c-0.8,0-1.5-0.7-1.5-1.5V2H5.5C4.7,2,4,2.7,4,3.5c0,0,0,0,0,0v17C4,21.3,4.7,22,5.5,22c0,0,0,0,0,0h12.3
		c0.3,0,1.7-0.2,1.7-0.5c0.3,0,0.5-0.8,0.5-1.1V8.1H15.4z M12.8,17.3H7.2c-0.3,0-0.5-0.2-0.5-0.5c0-0.3,0.2-0.5,0.5-0.5h5.6
		c0.3,0,0.5,0.2,0.5,0.5C13.3,17.1,13,17.3,12.8,17.3z M14.8,14.3H7.2c-0.3,0-0.5-0.2-0.5-0.5c0-0.3,0.2-0.5,0.5-0.5h7.6
		c0.3,0,0.5,0.2,0.5,0.5C15.3,14.1,15,14.3,14.8,14.3z M14.8,11.3H7.2c-0.3,0-0.5-0.2-0.5-0.5c0-0.3,0.2-0.5,0.5-0.5h7.6
		c0.3,0,0.5,0.2,0.5,0.5C15.3,11.1,15,11.3,14.8,11.3z"/>
</g>
</svg>
