<?xml version="1.0" encoding="UTF-8"?>
<svg id="Camada_1" xmlns="http://www.w3.org/2000/svg" width="24" height="24" version="1.1" viewBox="0 0 24 24">
  <!-- Generator: Adobe Illustrator 29.2.1, SVG Export Plug-In . SVG Version: 2.1.0 Build 116)  -->
  <path d="M19.5,2H4.5c-1.381,0-2.5,1.119-2.5,2.5v15c0,1.381,1.119,2.5,2.5,2.5h15c1.381,0,2.5-1.119,2.5-2.5V4.5c0-1.381-1.119-2.5-2.5-2.5ZM19,13.5c0,.276-.224.5-.5.5h-4.5v4.5c0,.276-.224.5-.5.5h-3c-.276,0-.5-.224-.5-.5v-4.5h-4.5c-.276,0-.5-.224-.5-.5v-3c0-.276.224-.5.5-.5h4.5v-4.5c0-.276.224-.5.5-.5h3c.276,0,.5.224.5.5v4.5h4.5c.276,0,.5.224.5.5v3Z" fill="#363636" fill-rule="evenodd"/>
</svg>