<?xml version="1.0" encoding="utf-8"?>
<!-- Generator: Adobe Illustrator 26.0.1, SVG Export Plug-In . SVG Version: 6.00 Build 0)  -->
<svg version="1.1" id="Camada_1" xmlns="http://www.w3.org/2000/svg" xmlns:xlink="http://www.w3.org/1999/xlink" x="0px" y="0px"
	 viewBox="0 0 24 24" style="enable-background:new 0 0 24 24;" xml:space="preserve">
<path d="M19,15.9c-0.9-1.9-1.9-4-2.2-5.1c0,0,0-0.1,0-0.2c0-0.1-0.1-0.6,0-0.8c0.4-1.1,0.6-2.3,0.6-3.5c0-1.1,0.2-2.1,0.5-3.2
	c0.1-0.1,0.1-0.3,0-0.4c-0.1-0.1-0.2-0.2-0.3-0.2l-1.6-0.4c0,0-0.3-0.1-0.3-0.1c-0.3-0.1-0.5,0.1-0.6,0.3c-0.4,1.3-1.6,2.2-3,2.2
	c-1.4,0-2.6-0.8-3-2.2C8.9,2.1,8.7,1.9,8.4,2c0,0-0.3,0.1-0.3,0.1L6.5,2.5c-0.1,0-0.3,0.1-0.3,0.2C6.1,2.9,6.1,3,6.2,3.2
	c0.3,1,0.5,2.1,0.5,3.2c0,1.2,0.2,2.4,0.6,3.5c0.1,0.3,0,0.7,0,0.8c0,0.1,0,0.2,0,0.2C6.9,11.9,5.9,14,5,15.9
	c-1.7,3.7-1.7,3.8-1.5,4.1c0.3,0.6,3.9,2,8.5,2s8.2-1.4,8.5-2C20.7,19.7,20.7,19.6,19,15.9z M7.3,3.3l0.9-0.2
	c0.6,1.5,2.2,2.4,3.8,2.4s3.2-0.9,3.8-2.4l0.9,0.2c-0.3,1-0.4,1.9-0.4,2.9c0,1-0.2,1.9-0.4,2.9H12H8.1C7.8,8.2,7.7,7.3,7.7,6.3
	C7.7,5.3,7.5,4.3,7.3,3.3z M15.6,10.2c0,0.1,0,0.2,0,0.4H12H8.4c0-0.1,0-0.2,0-0.4H12H15.6z M12,21c-2.6,0-5.1-0.4-7.5-1.4
	c0.2-0.6,0.9-2,1.5-3.2c0.8-1.7,1.7-3.6,2.2-4.8h1.3l-0.7,3.3c0,0.1-0.1,0.5,0.3,0.6c0.5,0.1,0.6-0.3,0.6-0.5l0.7-3.5H12h1.6
	l0.7,3.5c0,0.2,0.2,0.6,0.6,0.5c0.5-0.1,0.4-0.5,0.3-0.6l-0.7-3.3h1.3c0.5,1.2,1.4,3.1,2.2,4.8c0.6,1.2,1.2,2.6,1.5,3.2
	C17.1,20.6,14.6,21,12,21z"/>
</svg>
