<svg xmlns="http://www.w3.org/2000/svg" width="24" height="24" viewBox="0 0 24 24">
  <g id="Create-Here">
    <g>
      <rect id="Bounds" width="24" height="24" style="fill: none"/>
      <path d="M12.09,4a2.41,2.41,0,0,0-2.4,2.4v.76H14.5V6.43A2.42,2.42,0,0,0,12.09,4ZM8.69,9.5V8.19h-2L5.82,19.4v.07a.47.47,0,0,0,.47.47H17.85c.35-.07.46-.34.43-.47s0,0,0-.06L17.44,8.19H15.5V9.5a.5.5,0,0,1-.5.5.5.5,0,0,1-.5-.5V8.19H9.69V9.5a.5.5,0,0,1-.5.5A.5.5,0,0,1,8.69,9.5Zm0-3.07v.76H6.19a.5.5,0,0,0-.5.46L4.82,19.34v.13a1.47,1.47,0,0,0,1.47,1.47H18a1.47,1.47,0,0,0,1.29-1.62L18.4,7.65a.5.5,0,0,0-.5-.46H15.5V6.43a3.41,3.41,0,0,0-6.81,0Zm6.16,5.22a.48.48,0,0,1,0,.7L12.71,14.5l2.14,2.15a.49.49,0,1,1-.7.7L12,15.21,9.85,17.35a.49.49,0,0,1-.7-.7l2.14-2.15L9.15,12.35a.49.49,0,0,1,.7-.7L12,13.79l2.15-2.14A.48.48,0,0,1,14.85,11.65Z" style="fill-rule: evenodd"/>
    </g>
  </g>
</svg>
