<?xml version="1.0" encoding="UTF-8"?>
<svg xmlns="http://www.w3.org/2000/svg" width="24" height="24" version="1.1" viewBox="0 0 24 24">

        <path class="cls-1" d="M22.5,1c-.276,0-.5.224-.5.5v16.5c0,1.061-.421,2.078-1.172,2.828-.75.75-1.768,1.172-2.828,1.172s-2.078-.421-2.828-1.172c-.75-.75-1.172-1.767-1.172-2.828h1.5c.276,0,.5-.224.5-.5s-.224-.5-.5-.5h-4c-.276,0-.5.224-.5.5s.224.5.5.5h1.5c0,1.326.527,2.598,1.464,3.536.938.938,2.209,1.464,3.536,1.464s2.598-.527,3.536-1.464c.938-.938,1.464-2.209,1.464-3.536V1.5c0-.276-.224-.5-.5-.5Z"/>
        <path class="cls-1" d="M20,12.5v-6c0-1.381-1.119-2.5-2.5-2.5H3.5c-1.381,0-2.5,1.119-2.5,2.5v6c0,1.381,1.119,2.5,2.5,2.5h14c1.381,0,2.5-1.119,2.5-2.5ZM11.985,10.379c-.056-.223-.256-.379-.485-.379h-2c-.229,0-.429.156-.485.379l-.905,3.621H3.5c-.828,0-1.5-.672-1.5-1.5v-6c0-.828.672-1.5,1.5-1.5h14c.828,0,1.5.672,1.5,1.5v6c0,.828-.672,1.5-1.5,1.5h-4.61l-.905-3.621Z"/>

</svg>