<?xml version="1.0" encoding="UTF-8"?>
<svg id="Camada_1" xmlns="http://www.w3.org/2000/svg" width="40" height="40" version="1.1" viewBox="0 0 40 40">
  <!-- Generator: Adobe Illustrator 29.5.1, SVG Export Plug-In . SVG Version: 2.1.0 Build 141)  -->
  <path d="M22.5,27.5c-.46,0-.833.373-.833.833v1.667c0,.46.373.833.833.833.46,0,.833-.373.833-.833v-1.667c0-.46-.373-.833-.833-.833Z" fill="#363636" fill-rule="evenodd"/>
  <path d="M17.5,25c-.46,0-.833.373-.833.833v1.667c0,.46.373.833.833.833.46,0,.833-.373.833-.833v-1.667c0-.46-.373-.833-.833-.833Z" fill="#363636" fill-rule="evenodd"/>
  <path d="M21.666,19.167c0-.46-.373-.833-.833-.833-.46,0-.833.373-.833.833v1.667c0,.46.373.833.833.833.46,0,.833-.373.833-.833v-1.667Z" fill="#363636" fill-rule="evenodd"/>
  <path d="M14.166,17.5c-.46,0-.833.373-.833.833v1.667c0,.46.373.833.833.833.46,0,.833-.373.833-.833v-1.667c0-.46-.373-.833-.833-.833Z" fill="#363636" fill-rule="evenodd"/>
  <path d="M27.5,16.667c-.46,0-.833.373-.833.833v1.667c0,.46.373.833.833.833.46,0,.833-.373.833-.833v-1.667c0-.46-.373-.833-.833-.833Z" fill="#363636" fill-rule="evenodd"/>
  <path d="M27.984,10.189c.501-.797.905-1.707,1.206-2.477.249-.637.444-1.223.576-1.649.066-.213.117-.389.151-.511.017-.06.03-.108.039-.142.005-.017.009-.03.011-.039.001-.004.002-.011.002-.011l.002-.005c.08-.306-.02-.632-.259-.84-.209-.181-.492-.245-.755-.177l-.112.037-.003.002s-.006.002-.01.003c-.008.004-.022.01-.038.016-.032.013-.079.034-.138.059-.12.051-.294.124-.505.215-.422.181-.999.432-1.615.711-.834.378-1.791.831-2.531,1.235-.589-1.082-1.324-2.126-1.95-2.939-.396-.514-.754-.947-1.014-1.252-.13-.152-.237-.273-.311-.356-.036-.041-.065-.074-.085-.096-.01-.011-.019-.02-.024-.026l-.01-.01c-.158-.172-.38-.27-.614-.27-.233,0-.456.098-.614.27l-.01.01c-.005.006-.015.015-.024.026-.02.022-.048.055-.085.096-.074.083-.181.204-.311.356-.26.304-.618.737-1.014,1.252-.626.813-1.363,1.858-1.951,2.939-.74-.404-1.695-.858-2.529-1.235-.616-.279-1.193-.53-1.615-.711-.211-.091-.384-.164-.505-.215-.059-.025-.106-.045-.138-.059-.016-.007-.029-.013-.038-.016-.004-.002-.01-.003-.01-.003l-.003-.002c-.292-.121-.629-.068-.867.14-.239.208-.339.535-.259.841l.002.003s0,.007.002.011c.002.009.007.022.011.039.009.033.022.081.039.142.035.122.085.298.151.511.132.426.328,1.012.576,1.649.3.77.707,1.678,1.208,2.476-5.318,1.102-8.554,6.904-6.273,12.156l.633,1.421c1.524,3.323,3.363,6.674,5.426,9.315,2.324,2.974,5.102,5.26,8.2,5.26,3.097,0,5.874-2.287,8.198-5.26,2.358-3.018,4.423-6.965,6.061-10.736l.218-.549c1.837-5.102-1.36-10.544-6.496-11.606ZM12.774,6.899c1.241.562,2.536,1.19,3.079,1.571.203.142.459.187.698.122.239-.065.436-.234.539-.459.543-1.193,1.415-2.456,2.173-3.441.271-.352.524-.662.736-.916.212.254.465.565.736.916.758.985,1.63,2.248,2.173,3.441.102.225.3.394.539.459.239.065.495.02.698-.122.543-.381,1.839-1.009,3.079-1.571.2-.09.397-.176.584-.259-.055.15-.108.307-.169.466-.419,1.074-.956,2.171-1.538,2.852l-.041.042h-12.122l-.041-.042c-.582-.681-1.119-1.778-1.538-2.852-.062-.158-.116-.316-.171-.466.188.083.386.168.586.259ZM32.91,21.235l-.176.444c-1.614,3.714-3.613,7.514-5.846,10.373-2.267,2.901-4.61,4.62-6.885,4.621-2.275,0-4.619-1.719-6.886-4.621-1.954-2.501-3.728-5.724-5.221-8.978l-.623-1.395c-2.055-4.731,1.407-10.013,6.579-10.013h12.305c5.01,0,8.415,4.958,6.755,9.569Z" fill="#363636" fill-rule="evenodd"/>
</svg>