<svg xmlns="http://www.w3.org/2000/svg" width="24" height="24" viewBox="0 0 24 24">
  <g id="Create-Here">
    <g>
      <rect id="Bounds" width="24" height="24" style="fill: none"/>
      <path d="M12.41,4a.5.5,0,0,0,0,1h3.94L12,11.78a.52.52,0,0,0,0,.51.51.51,0,0,0,.44.26h4.86a.5.5,0,0,0,.5-.5.5.5,0,0,0-.5-.5H13.33l4.36-6.78a.49.49,0,0,0,0-.51A.51.51,0,0,0,17.27,4ZM5.5,11.5A.5.5,0,0,1,6,11H9.21a.5.5,0,0,1,.43.25.49.49,0,0,1,0,.51L6.88,16.34H9.21a.51.51,0,0,1,.5.5.5.5,0,0,1-.5.5H6a.47.47,0,0,1-.43-.25.5.5,0,0,1,0-.5L8.32,12H6A.5.5,0,0,1,5.5,11.5Zm7,5A.5.5,0,0,1,13,16h2.25a.52.52,0,0,1,.45.27.51.51,0,0,1,0,.52L14,19.11h1.27a.5.5,0,0,1,0,1H13a.52.52,0,0,1-.45-.27.49.49,0,0,1,0-.52L14.27,17H13A.5.5,0,0,1,12.5,16.5Z" style="fill-rule: evenodd"/>
    </g>
  </g>
</svg>
