<?xml version="1.0" encoding="UTF-8"?>
<svg xmlns="http://www.w3.org/2000/svg" width="24" height="24" version="1.1" viewBox="0 0 24 24">

        <path  d="M19.696,2.12l.875-.125c.273-.039.463-.292.424-.566-.039-.273-.292-.463-.566-.424l-.875.125c-.273.039-.463.292-.424.566.039.273.292.463.566.424Z"/>
        <path  d="M17.804,1.38l-1.75.25c-.273.039-.463.292-.424.566.039.273.292.463.566.424l1.75-.25c.273-.039.463-.292.424-.566-.039-.273-.292-.463-.566-.424Z"/>
        <path  d="M14.304,1.88l-.875.125c-.273.039-.463.292-.424.566.039.273.292.463.566.424l.875-.125c.273-.039.463-.292.424-.566-.039-.273-.292-.463-.566-.424Z"/>
        <path  d="M14.446,4.13l-.875-.125c-.273-.039-.527.151-.566.424-.039.273.151.527.424.566l.875.125c.273.039.527-.151.566-.424.039-.273-.151-.527-.424-.566Z"/>
        <path  d="M17.946,4.63l-1.75-.25c-.273-.039-.527.151-.566.424-.039.273.151.527.424.566l1.75.25c.273.039.527-.151.566-.424.039-.273-.151-.527-.424-.566Z"/>
        <path  d="M20.571,5.005l-.875-.125c-.273-.039-.527.151-.566.424-.039.273.151.527.424.566l.875.125c.273.039.527-.151.566-.424.039-.273-.151-.527-.424-.566Z"/>
        <path  d="M10.066,8.482c-.043-.076-.066-.161-.066-.248v-1.234h.5c.276,0,.5-.224.5-.5v-3c0-.276-.224-.5-.5-.5h-.5v-1.5c0-.276-.224-.5-.5-.5h-4c-.276,0-.5.224-.5.5v1.5h-.5c-.276,0-.5.224-.5.5v3c0,.276.224.5.5.5h.5v1.234c0,.087-.023.173-.066.248l-1.737,3.039c-.13.227-.198.483-.198.744v9.234c0,.828.672,1.5,1.5,1.5h6c.828,0,1.5-.672,1.5-1.5v-9.234c0-.261-.068-.518-.198-.744l-1.737-3.039ZM6,2h3v1h-3v-1ZM5,4h5v2h-5v-2ZM11,21.5c0,.276-.224.5-.5.5h-6c-.276,0-.5-.224-.5-.5v-9.234c0-.087.023-.173.066-.248l1.737-3.039c.13-.227.198-.483.198-.744v-1.234h3v1.234c0,.261.068.518.198.744l1.736,3.039c.043.076.066.161.066.248v9.234Z"/>

</svg>