<svg width="24" height="24" viewBox="0 0 24 24" fill="none" xmlns="http://www.w3.org/2000/svg">
<path fill-rule="evenodd" clip-rule="evenodd" d="M2.84229 0.0851769C2.69462 0.182648 2.1646 0.933621 1.72374 1.67003C0.610537 3.52941 0 5.52752 0 7.31126C0 8.45139 0.182978 9.52383 0.617626 10.9311C1.43318 13.5717 1.57156 14.9334 1.70943 21.6756C1.74955 23.6384 1.74636 23.6096 1.93987 23.7431C2.02177 23.7996 2.14402 23.8145 2.54367 23.8166C2.98557 23.8189 3.06254 23.8085 3.19507 23.7291C3.27774 23.6797 3.35916 23.6035 3.37598 23.5599C3.39406 23.5132 3.41474 22.1216 3.42644 20.1715C3.45331 15.6819 3.50109 14.2528 3.64508 13.6309C3.75627 13.1507 4.01993 12.8555 4.42745 12.755L4.61378 12.7091L4.90865 13.0093C5.58022 13.6929 6.19468 14.5122 6.63342 15.309C7.03808 16.0439 7.15842 16.3333 8.06886 18.7614C8.80792 20.7324 9.13067 21.5183 9.40274 22.0095C10.0226 23.1286 10.7898 23.6732 12.0949 23.9205C12.6601 24.0276 14.8288 24.0262 15.7395 23.9181C18.2034 23.6257 21.5659 22.9657 22.9211 22.5086C23.4111 22.3432 23.7826 22.0042 23.9279 21.5897C24.0204 21.3259 24.0235 21.1248 23.9395 20.8285C23.7624 20.2035 23.3398 19.7971 22.2157 19.1707C20.3148 18.1115 18.5253 17.1435 17.866 16.8175C17.6888 16.7299 17.3988 16.5749 17.2216 16.4731C16.7283 16.1895 16.5879 16.1701 15.8976 16.2896C15.4318 16.3703 15.1747 16.3892 14.5634 16.3878C13.8596 16.3861 13.7808 16.378 13.4446 16.2721C12.5425 15.9882 11.8996 15.4914 11.2275 14.5588C10.6567 13.7667 10.3379 13.1407 9.18299 10.5447C7.05461 5.76032 6.29763 4.27359 4.92721 2.18596C4.30215 1.23373 3.38091 0.130861 3.1343 0.0394926C2.98016 -0.0175803 3.00342 -0.0212332 2.84229 0.0851769ZM3.94918 1.99222C5.18253 3.63058 5.7108 4.59879 7.61887 8.71819C8.04041 9.62822 8.56972 10.7692 8.79513 11.2538C9.02054 11.7384 9.31146 12.3766 9.44156 12.672C10.6155 15.3376 11.7675 16.627 13.4035 17.1063C13.7066 17.195 13.8242 17.2053 14.5312 17.2042C15.1777 17.2032 15.4069 17.1857 15.7972 17.1078C16.0593 17.0555 16.3099 17.0127 16.3542 17.0127C16.3984 17.0127 16.6697 17.136 16.957 17.2866C17.2443 17.4373 17.9071 17.7783 18.4298 18.0442C21.4425 19.5771 22.8928 20.4128 23.1814 20.7822C23.3036 20.9385 23.3751 21.1785 23.3459 21.3338C23.2794 21.6874 21.9538 22.073 18.9293 22.6184C16.551 23.0473 14.712 23.2329 13.2908 23.1875C11.9706 23.1454 11.2718 22.9547 10.6593 22.4693C10.07 22.0023 9.64861 21.239 8.99911 19.4623C7.95686 16.6112 7.73735 16.0514 7.36463 15.2936C6.77983 14.1046 5.8133 12.8288 4.78467 11.8879C4.08337 11.2465 2.56487 10.1675 1.26702 9.38841L0.778049 9.09488L0.728591 8.78837C0.516262 7.47307 0.599389 6.03219 0.957063 4.82881C1.14046 4.2117 1.35424 3.71962 1.75048 3.0023C2.02664 2.50244 2.66066 1.43537 2.87915 1.10286L3.03999 0.858025L3.23573 1.08125C3.34337 1.20403 3.66441 1.61394 3.94918 1.99222ZM1.31619 10.3033C1.7518 10.5553 2.98963 11.4068 3.47219 11.7863L3.89956 12.1225L3.71384 12.2688C3.22232 12.656 3.01231 13.2287 2.93563 14.3911C2.88688 15.1297 2.84123 17.5425 2.81973 20.5153L2.80169 23.0079L2.58024 23.0205L2.3588 23.033L2.34024 22.4618C2.33002 22.1476 2.30631 21.2523 2.28756 20.4723C2.15336 14.8944 1.96378 13.1511 1.25703 10.9959C1.11427 10.5606 0.994213 10.1364 1.01377 10.1364C1.0215 10.1364 1.1576 10.2115 1.31619 10.3033Z" fill="#363636"/>
</svg>
