<?xml version="1.0" encoding="UTF-8"?>
<svg xmlns="http://www.w3.org/2000/svg" width="24" height="24" version="1.1" viewBox="0 0 24 24">
  <defs>
    <style>
      .cls-1 {
        fill: #363636;
      }
    </style>
  </defs>
  <!-- Generator: Adobe Illustrator 28.7.1, SVG Export Plug-In . SVG Version: 1.2.0 Build 142)  -->
  <g>
    <g id="Camada_1">
      <g>
        <path class="cls-1" d="M17.5,16.5c-.552,0-1-.448-1-1,0-.276-.224-.5-.5-.5s-.5.224-.5.5c0,.552-.448,1-1,1-.276,0-.5.224-.5.5s.224.5.5.5c.552,0,1,.448,1,1,0,.276.224.5.5.5s.5-.224.5-.5c0-.552.448-1,1-1,.276,0,.5-.224.5-.5s-.224-.5-.5-.5Z"/>
        <path class="cls-1" d="M22.894,20.193l-.002-.002-.007-.009-.028-.036c-.025-.033-.062-.081-.109-.145-.095-.128-.232-.316-.4-.556-.336-.479-.792-1.162-1.274-1.972-.969-1.631-2.018-3.742-2.416-5.746-.124-.623-.215-1.408-.296-2.113-.023-.199-.045-.393-.067-.574-.524-4.295-3.891-8.039-8.396-8.039-1.883,0-3.609.653-4.965,1.746-.273-.342-.435-.775-.435-1.246,0-.276-.224-.5-.5-.5s-.5.224-.5.5c0,1.104-.896,2-2,2-.276,0-.5.224-.5.5s.224.5.5.5c.572,0,1.088.24,1.453.625-.608,1.121-.953,2.407-.953,3.775v1.262c-.561.286-.911.913-.799,1.584l1.306,7.836c.04.241.249.418.493.418v2.5c0,.276.224.5.5.5h4c.276,0,.5-.224.5-.5v-2.5c.245,0,.453-.177.493-.418l.517-3.099c.159.011.322.017.49.017.023,0,.046,0,.069,0,.058.252.164.586.358.974.417.834,1.228,1.898,2.795,2.942.012.008.025.016.038.023,2.854,1.557,5.34,1.695,7.125,1.431.889-.132,1.6-.363,2.092-.563.246-.1.438-.193.571-.262.066-.034.118-.063.154-.084.018-.01.033-.019.043-.025l.013-.008.004-.003h.002s.001-.002.001-.002c.12-.075.203-.197.227-.337.025-.139-.011-.283-.098-.395ZM4,3.159c.222.333.508.62.841.841-.333.222-.62.508-.841.841-.222-.333-.508-.62-.841-.841.333-.222.62-.508.841-.841ZM3.09,17l-.667-4h2.576v4h-1.91ZM7,22h-3v-2h3v2ZM7.577,19H3.424l-.167-1h2.243c.276,0,.5-.224.5-.5v-5c0-.276-.224-.5-.5-.5h-3.243l-.07-.418c-.051-.305.184-.582.493-.582h5.639c.309,0,.544.277.493.582l-1.236,7.418ZM9.5,15.5c-.111,0-.22-.003-.325-.009l.624-3.745c.152-.914-.553-1.747-1.48-1.747h-3.32v-1.08l.01-.002c.264-.049.632-.12,1.047-.209.821-.178,1.856-.435,2.629-.744.774-.31,1.68-.829,2.376-1.258.267-.165.507-.318.702-.446.03.071.062.146.096.223.188.426.462.985.756,1.337.304.364.743.65,1.072.835.114.064.221.12.312.165v2.648l-.002.011c-.004.027-.01.069-.021.124-.02.11-.054.271-.108.466-.109.391-.296.908-.609,1.42-.615,1.006-1.718,2.011-3.761,2.011ZM21.601,20.381c-.43.175-1.063.381-1.862.5-1.586.235-3.843.124-6.48-1.309-1.421-.951-2.105-1.882-2.437-2.545-.12-.24-.195-.449-.243-.614,1.8-.304,2.894-1.354,3.535-2.402.374-.612.593-1.221.719-1.674.063-.227.104-.418.128-.554.012-.068.021-.122.027-.161.003-.019.005-.035.006-.046l.002-.014v-.004s0-.002,0-.002h0c.002-.019.003-.038.003-.056v-3c0-.203-.123-.386-.31-.463l-.007-.003-.028-.012c-.025-.011-.062-.027-.109-.049-.094-.044-.224-.108-.368-.189-.3-.169-.61-.383-.794-.604-.194-.233-.42-.674-.61-1.102-.091-.205-.167-.393-.221-.53-.027-.068-.048-.124-.062-.161l-.016-.043-.004-.011v-.003c-.054-.146-.172-.259-.32-.306s-.309-.023-.437.066l-.005.003-.016.011-.065.044c-.057.039-.141.095-.246.165-.21.139-.506.331-.846.541-.688.424-1.532.905-2.222,1.181-.691.276-1.656.519-2.469.695-.402.087-.76.156-1.017.203-.128.024-.231.042-.302.054l-.081.014-.02.003h-.006c-.242.041-.42.25-.42.495v1.5h-1v-1.1c0-.912.175-1.781.492-2.575.005.058.008.116.008.175,0,.276.224.5.5.5s.5-.224.5-.5c0-1.104.896-2,2-2,.276,0,.5-.224.5-.5s-.224-.5-.5-.5c-.257,0-.503-.049-.729-.137,1.149-.857,2.577-1.363,4.129-1.363,3.895,0,6.927,3.256,7.404,7.161.02.166.041.348.063.54.082.709.179,1.553.312,2.221.432,2.172,1.549,4.399,2.537,6.062.497.836.968,1.54,1.314,2.035.078.111.15.212.214.302-.045.02-.093.04-.144.06Z"/>
        <path class="cls-1" d="M18.5,3.5c.552,0,1,.448,1,1,0,.276.224.5.5.5s.5-.224.5-.5c0-.552.448-1,1-1,.276,0,.5-.224.5-.5s-.224-.5-.5-.5c-.552,0-1-.448-1-1,0-.276-.224-.5-.5-.5s-.5.224-.5.5c0,.552-.448,1-1,1-.276,0-.5.224-.5.5s.224.5.5.5Z"/>
      </g>
    </g>
  </g>
</svg>