<?xml version="1.0" encoding="utf-8"?>
<!-- Generator: Adobe Illustrator 26.0.1, SVG Export Plug-In . SVG Version: 6.00 Build 0)  -->
<svg version="1.1" xmlns="http://www.w3.org/2000/svg" xmlns:xlink="http://www.w3.org/1999/xlink" x="0px" y="0px"
	 viewBox="0 0 24 24" enable-background="new 0 0 24 24" xml:space="preserve">
<g id="Camada_1" display="none">
	<g id="Info" display="inline">
	</g>
	<g id="Keyline" display="inline">
	</g>
	<g id="Create-Here" display="inline">
		<path fill-rule="evenodd" clip-rule="evenodd" d="M17.83,9.37c0-0.26-0.21-0.46-0.46-0.46c-0.09,0-0.18,0.03-0.25,0.09
			c-0.8,0.56-2.36,1.72-3.15,2.29c-0.14,0.1-0.32,0.1-0.45,0.01c-0.57-0.39-1.72-1.17-2.28-1.57c-0.27-0.2-0.6-0.33-0.97-0.33
			c-0.33,0-0.63,0.1-0.89,0.27C9.18,9.79,9.02,9.97,8.9,10.17c-0.65,1.06-1.97,3.16-2.65,4.21c-0.05,0.07-0.09,0.16-0.09,0.25
			c0,0.26,0.21,0.46,0.46,0.46c0.09,0,0.18-0.03,0.25-0.09c0.8-0.56,2.36-1.71,3.15-2.29c0.14-0.1,0.32-0.1,0.46-0.01
			c0.57,0.39,1.72,1.17,2.28,1.57c0.27,0.2,0.6,0.33,0.97,0.33c0.33,0,0.63-0.1,0.89-0.27c0.19-0.13,0.35-0.31,0.47-0.51
			c0.65-1.06,1.97-3.16,2.65-4.21C17.79,9.55,17.83,9.47,17.83,9.37z"/>
		<path d="M12,3.23c4.67,0,8.47,3.8,8.47,8.47s-3.8,8.47-8.47,8.47c-0.89,0-1.77-0.14-2.63-0.42l-0.34-0.11L8.7,19.76l-2.27,0.83
			l0.28-1.61l0.1-0.57l-0.43-0.38c-1.81-1.61-2.85-3.91-2.85-6.32C3.53,7.03,7.33,3.23,12,3.23 M12,2.2c-5.25,0-9.5,4.25-9.5,9.5
			c0,2.82,1.24,5.35,3.19,7.09l-0.39,2.2c-0.08,0.44,0.27,0.81,0.68,0.81c0.08,0,0.16-0.01,0.24-0.04l2.83-1.03
			c0.93,0.3,1.92,0.47,2.95,0.47c5.25,0,9.5-4.25,9.5-9.5C21.5,6.45,17.25,2.2,12,2.2L12,2.2z"/>
	</g>
</g>
<g id="Camada_2" display="none">
	<g display="inline">
		<path fill="none" d="M12,3.23c-4.67,0-8.47,3.8-8.47,8.47c0,2.41,1.04,4.71,2.85,6.32l0.43,0.38l-0.1,0.57l-0.28,1.61l2.27-0.83
			l0.34-0.12l0.34,0.11c0.86,0.28,1.74,0.42,2.63,0.42c4.67,0,8.47-3.8,8.47-8.47S16.67,3.23,12,3.23z M17.74,9.62
			c-0.68,1.04-2,3.15-2.65,4.21c-0.12,0.2-0.28,0.38-0.47,0.51c-0.25,0.17-0.56,0.27-0.89,0.27c-0.36,0-0.69-0.13-0.96-0.33
			c-0.56-0.41-1.71-1.18-2.28-1.57c-0.14-0.1-0.32-0.09-0.46,0.01C9.25,13.29,7.68,14.45,6.89,15c-0.07,0.05-0.16,0.08-0.25,0.08
			c-0.26,0-0.46-0.21-0.46-0.46c0-0.1,0.04-0.18,0.08-0.25c0.68-1.04,2-3.15,2.65-4.21c0.12-0.2,0.28-0.38,0.47-0.51
			c0.25-0.17,0.56-0.27,0.89-0.27c0.36,0,0.69,0.13,0.96,0.33c0.56,0.41,1.71,1.18,2.28,1.57c0.14,0.09,0.32,0.09,0.46-0.01
			c0.78-0.58,2.35-1.73,3.15-2.29c0.07-0.05,0.16-0.09,0.25-0.09c0.26,0,0.46,0.21,0.46,0.46C17.83,9.47,17.79,9.55,17.74,9.62z"/>
		<path d="M12,2.2c-5.25,0-9.5,4.25-9.5,9.5c0,2.82,1.24,5.35,3.19,7.09l-0.39,2.2c-0.08,0.44,0.27,0.81,0.68,0.81
			c0.08,0,0.16-0.01,0.24-0.04l2.83-1.03c0.93,0.3,1.92,0.47,2.95,0.47c5.25,0,9.5-4.25,9.5-9.5C21.5,6.45,17.25,2.2,12,2.2z
			 M12,20.17c-0.89,0-1.77-0.14-2.63-0.42l-0.34-0.11L8.7,19.76l-2.27,0.83l0.28-1.61l0.1-0.57l-0.43-0.38
			c-1.81-1.61-2.85-3.91-2.85-6.32c0-4.67,3.8-8.47,8.47-8.47s8.47,3.8,8.47,8.47S16.67,20.17,12,20.17z"/>
		<path d="M17.37,8.91c-0.1,0-0.18,0.03-0.25,0.09c-0.8,0.56-2.36,1.71-3.15,2.29c-0.14,0.1-0.32,0.1-0.46,0.01
			c-0.57-0.39-1.72-1.17-2.28-1.57c-0.27-0.2-0.6-0.33-0.96-0.33c-0.33,0-0.63,0.1-0.89,0.27C9.18,9.79,9.02,9.97,8.9,10.17
			c-0.65,1.06-1.97,3.16-2.65,4.21c-0.05,0.07-0.08,0.16-0.08,0.25c0,0.26,0.21,0.46,0.46,0.46c0.1,0,0.18-0.03,0.25-0.08
			c0.8-0.56,2.36-1.71,3.15-2.29c0.14-0.1,0.32-0.1,0.46-0.01c0.57,0.39,1.72,1.17,2.28,1.57c0.27,0.2,0.6,0.33,0.96,0.33
			c0.33,0,0.63-0.1,0.89-0.27c0.19-0.13,0.35-0.31,0.47-0.51c0.65-1.06,1.97-3.16,2.65-4.21c0.05-0.08,0.08-0.16,0.08-0.25
			C17.83,9.12,17.62,8.91,17.37,8.91z"/>
	</g>
</g>
<g id="Camada_2_cópia">
	<path d="M17.37,8.86c-0.1,0-0.2,0.03-0.28,0.09c-0.7,0.49-1.97,1.42-2.81,2.04l-0.34,0.25c-0.12,0.09-0.28,0.09-0.4,0l-0.41-0.28
		c-0.6-0.41-1.42-0.97-1.87-1.29c-0.3-0.22-0.65-0.34-0.99-0.34c-0.33,0-0.64,0.1-0.92,0.28c-0.19,0.13-0.35,0.3-0.48,0.52
		c-0.64,1.05-1.95,3.13-2.65,4.21c-0.06,0.1-0.09,0.19-0.09,0.28c0,0.28,0.23,0.51,0.51,0.51c0.1,0,0.19-0.03,0.28-0.09
		c0.69-0.48,1.94-1.4,2.77-2.01l0.38-0.28c0.12-0.09,0.28-0.09,0.4,0l0.41,0.28c0.6,0.41,1.43,0.97,1.87,1.29
		c0.3,0.22,0.65,0.34,0.99,0.34c0.33,0,0.64-0.1,0.92-0.28c0.19-0.13,0.35-0.3,0.48-0.52c0.63-1.04,1.95-3.13,2.65-4.21
		c0.04-0.06,0.09-0.16,0.09-0.28C17.88,9.09,17.65,8.86,17.37,8.86z"/>
	<path d="M12,2.2c-5.25,0-9.5,4.25-9.5,9.5c0,2.82,1.24,5.35,3.19,7.09l-0.39,2.2c-0.08,0.44,0.27,0.81,0.68,0.81l0.24-0.04
		l2.83-1.03c0.93,0.3,1.92,0.47,2.95,0.47c5.25,0,9.5-4.25,9.5-9.5C21.5,6.45,17.25,2.2,12,2.2z M12,20.17
		c-0.89,0-1.77-0.14-2.63-0.42l-0.34-0.11L8.7,19.76l-2.27,0.83l0.28-1.61l0.1-0.57l-0.43-0.38c-1.81-1.61-2.85-3.91-2.85-6.32
		c0-4.67,3.8-8.47,8.47-8.47s8.47,3.8,8.47,8.47S16.67,20.17,12,20.17z"/>
</g>
</svg>
