<?xml version="1.0" encoding="utf-8"?>
<!-- Generator: Adobe Illustrator 26.0.1, SVG Export Plug-In . SVG Version: 6.00 Build 0)  -->
<svg version="1.1" id="Camada_1" xmlns="http://www.w3.org/2000/svg" xmlns:xlink="http://www.w3.org/1999/xlink" x="0px" y="0px"
	 viewBox="0 0 24 24" style="enable-background:new 0 0 24 24;" xml:space="preserve">
<g id="Create-Here">
	<path id="vector_play" d="M4.6,2.5C4,2.3,3.3,2.5,3,3.1C2.9,3.3,2.9,3.5,2.9,3.7l2.6,16.5c0,0.2,0.1,0.5,0.2,0.7
		c0.2,0.4,0.6,0.6,1,0.6c0.3,0,0.5-0.1,0.7-0.3l13.2-10.3c0.6-0.4,0.7-1.2,0.4-1.8c-0.1-0.2-0.2-0.3-0.4-0.4L4.6,2.5z M16.8,11.7
		l-10,5.7c-0.2,0.1-0.5,0-0.5-0.1c0-0.1,0-0.3,0-0.3V5.6c0-0.3,0-0.3,0.2-0.4c0.1-0.1,0.3-0.1,0.3,0c0.1,0,10,5.6,10,5.6
		c0.3,0.2,0.4,0.5,0.2,0.8C16.9,11.6,16.9,11.7,16.8,11.7z"/>
</g>
</svg>
