<svg xmlns="http://www.w3.org/2000/svg" width="24" height="24" viewBox="0 0 24 24">
  <g id="Create-Here">
    <g>
      <rect width="24" height="24" style="fill: none"/>
      <path d="M19.07,4.93a1.53,1.53,0,0,0-2.12,0L7.76,14.12a.5.5,0,0,0,0,.71h0l0,0L4.89,18.4a.5.5,0,0,0,0,.67.49.49,0,0,0,.35.15.56.56,0,0,0,.32-.11l3.53-2.83s0,0,0,0h0a.5.5,0,0,0,.35.15.51.51,0,0,0,.36-.15l9.19-9.19a1.5,1.5,0,0,0,0-2.12ZM9.52,15.18l-.7-.7.7-.71.71.71Zm8.84-8.84-7.42,7.43-.71-.71,7.43-7.42a.5.5,0,0,1,.7,0,.48.48,0,0,1,0,.7Z"/>
    </g>
  </g>
</svg>
