<?xml version="1.0" encoding="UTF-8"?>
<svg id="Camada_1" xmlns="http://www.w3.org/2000/svg" width="40" height="40" version="1.1" viewBox="0 0 40 40">
  <!-- Generator: Adobe Illustrator 29.5.1, SVG Export Plug-In . SVG Version: 2.1.0 Build 141)  -->
  <path d="M15.833,30c.46,0,.833-.373.833-.833v-11.667c0-.46-.373-.833-.833-.833s-.833.373-.833.833v11.667c0,.46.373.833.833.833Z" fill="#363636" fill-rule="evenodd"/>
  <path d="M24.166,30c.46,0,.833-.373.833-.833v-11.667c0-.46-.373-.833-.833-.833s-.833.373-.833.833v11.667c0,.46.373.833.833.833Z" fill="#363636" fill-rule="evenodd"/>
  <path d="M35.833,8.333h-7.5v-2.5c0-2.301-1.865-4.167-4.167-4.167h-8.333c-2.301,0-4.167,1.865-4.167,4.167v2.5h-7.5c-.46,0-.833.373-.833.833s.373.833.833.833h2.547l1.436,24.411.044.407c.315,2.004,2.048,3.516,4.116,3.516h15.381c2.206,0,4.031-1.72,4.16-3.922l1.436-24.411h2.547c.46,0,.833-.373.833-.833s-.373-.833-.833-.833ZM13.333,5.833c0-1.381,1.119-2.5,2.5-2.5h8.333c1.381,0,2.5,1.119,2.5,2.5v2.5h-13.333v-2.5ZM30.185,34.313c-.078,1.321-1.172,2.354-2.495,2.354h-15.381c-1.241,0-2.28-.907-2.469-2.109l-.026-.244-1.431-24.313h23.232l-1.431,24.313Z" fill="#363636" fill-rule="evenodd"/>
</svg>