<?xml version="1.0" encoding="UTF-8"?>
<svg xmlns="http://www.w3.org/2000/svg" width="24" height="24" version="1.1" viewBox="0 0 24 24">

        <path  d="M8.896,7.822c-.204.068-.342.259-.342.474,0,1.912.759,3.745,2.111,5.097,1.352,1.352,3.185,2.111,5.097,2.111.215,0,.406-.138.474-.342l1.903-5.709,4.133-4.151c.925-.929.975-2.414.116-3.404l-.037-.042c-.951-1.094-2.63-1.153-3.655-.128l-4.239,4.239-5.562,1.854ZM19.404,2.436c.615-.615,1.623-.58,2.193.077l.037.042c.516.594.485,1.485-.069,2.042l-3.91,3.927-1.043-1.043-1.124-1.128,3.916-3.916ZM15.904,8.187l1.202,1.206-1.7,5.101c-1.516-.087-2.953-.728-4.033-1.808-1.08-1.08-1.721-2.517-1.808-4.033l5.105-1.702,1.235,1.235Z"/>
        <path  d="M21.977,8.69c-.266.074-.421.35-.347.616.596,2.129.469,4.395-.36,6.445-.829,2.049-2.314,3.766-4.223,4.882-1.908,1.116-4.133,1.568-6.326,1.285-2.193-.283-4.23-1.284-5.793-2.847-1.563-1.563-2.564-3.6-2.847-5.793-.283-2.193.169-4.417,1.285-6.326s2.833-3.393,4.882-4.223c2.049-.829,4.316-.956,6.445-.36.266.074.542-.081.616-.347s-.081-.542-.347-.616c-2.342-.655-4.835-.516-7.089.396S3.731,4.349,2.504,6.448s-1.725,4.546-1.414,6.958c.311,2.412,1.412,4.653,3.132,6.372,1.72,1.719,3.96,2.821,6.372,3.132s4.859-.186,6.958-1.414c2.099-1.227,3.733-3.116,4.645-5.37.912-2.254,1.051-4.747.396-7.089-.074-.266-.35-.421-.616-.347Z"/>
        <path  d="M5.62,9.812c-.267-.07-.541.089-.611.356-.321,1.215-.317,2.493.011,3.707.328,1.213.968,2.319,1.856,3.208.889.889,1.995,1.529,3.208,1.856s2.491.331,3.707.011c.267-.07.426-.344.356-.611-.07-.267-.344-.426-.611-.356-1.046.276-2.146.273-3.191-.009-1.045-.282-1.997-.833-2.762-1.598s-1.316-1.717-1.598-2.762c-.282-1.044-.285-2.145-.009-3.191.07-.267-.089-.541-.356-.611Z"/>

</svg>