<?xml version="1.0" encoding="UTF-8"?>
<svg id="Camada_1" data-name="Camada 1" xmlns="http://www.w3.org/2000/svg" width="24" height="24" version="1.1" viewBox="0 0 24 24">
  <path d="M21.108,3.012L12.108,1.012c-.072-.016-.146-.016-.217,0L2.892,3.012c-.229.051-.392.254-.392.488v10c0,.045.006.09.018.134,1.279,4.604,7.711,9.366,9.482,9.366,1.595,0,8.66-4.9,9.492-9.409.005-.03.008-.061.008-.091V3.5c0-.234-.163-.438-.392-.488ZM20.5,13.453c-.79,4.061-7.36,8.547-8.5,8.547-1.251,0-7.305-4.45-8.5-8.569V3.901l8.5-1.889,8.5,1.889v9.552Z" fill="#363636" stroke-width="0"/>
  <path d="M14.294,18.437c.123,0,.246-.045.343-.137l.258-.241c1.586-1.491,3.56-3.347,3.56-4.966v-5.87c0-.276-.224-.5-.5-.5s-.5.224-.5.5v5.87c0,1.187-1.953,3.022-3.245,4.236l-.258.244c-.201.189-.21.506-.021.706.098.104.23.157.363.157Z" fill="#363636" stroke-width="0"/>
</svg>