<?xml version="1.0" encoding="utf-8"?>
<!-- Generator: Adobe Illustrator 28.3.0, SVG Export Plug-In . SVG Version: 6.00 Build 0)  -->
<svg version="1.1" id="Camada_1" xmlns="http://www.w3.org/2000/svg" xmlns:xlink="http://www.w3.org/1999/xlink" x="0px" y="0px"
	 width="24px" height="24px" viewBox="0 0 24 24" enable-background="new 0 0 24 24" xml:space="preserve">
<path fill="#363636" d="M22.274,1.692c-0.104-0.088-0.239-0.125-0.374-0.117c-1.683,0.17-3.892,0.671-5.908,1.341
	c-0.161,0.054-0.284,0.186-0.327,0.35l-0.877,3.406l-1.392-2.285c-0.131-0.216-0.406-0.299-0.637-0.193
	c-2.077,0.964-3.858,2.088-5.293,3.343c-1.6,1.398-2.64,3.62-2.713,5.8c-0.052,1.547,0.381,2.937,1.223,3.973L1.63,21.656
	c-0.195,0.195-0.195,0.512,0,0.707c0.098,0.098,0.226,0.146,0.354,0.146s0.256-0.049,0.354-0.146l4.367-4.367
	c0.868,0.672,2.035,1.05,3.399,1.05c0.121,0,0.243-0.003,0.367-0.009c2.68-0.123,5.488-1.498,7.156-3.503
	c1.999-2.403,4.956-11.135,4.822-13.49C22.441,1.908,22.379,1.781,22.274,1.692z M16.857,14.896
	c-1.473,1.771-4.058,3.034-6.433,3.143c-1.226,0.064-2.259-0.218-3.008-0.754l5.947-5.947c0.195-0.195,0.195-0.512,0-0.707
	s-0.512-0.195-0.707,0l-5.952,5.952c-0.646-0.84-0.994-1.949-0.952-3.211c0.064-1.912,0.973-3.859,2.372-5.081
	c1.271-1.111,2.835-2.118,4.653-2.998l1.773,2.912c0.104,0.172,0.304,0.262,0.5,0.234c0.199-0.03,0.36-0.175,0.411-0.37l1.104-4.288
	c1.656-0.534,3.416-0.946,4.867-1.143C21.166,5.379,18.533,12.88,16.857,14.896z"/>
</svg>
