<svg width="24" height="24" viewBox="0 0 24 24" fill="none" xmlns="http://www.w3.org/2000/svg">
<path fill-rule="evenodd" clip-rule="evenodd" d="M12.41 4C12.2774 4 12.1502 4.05268 12.0564 4.14645C11.9627 4.24021 11.91 4.36739 11.91 4.5C11.91 4.63261 11.9627 4.75979 12.0564 4.85355C12.1502 4.94732 12.2774 5 12.41 5H16.35L12 11.78C11.9562 11.8578 11.9332 11.9457 11.9332 12.035C11.9332 12.1243 11.9562 12.2121 12 12.29C12.044 12.3682 12.1078 12.4334 12.1851 12.4791C12.2623 12.5247 12.3503 12.5492 12.44 12.55H17.3C17.4326 12.55 17.5598 12.4973 17.6536 12.4036C17.7473 12.3098 17.8 12.1826 17.8 12.05C17.8 11.9174 17.7473 11.7902 17.6536 11.6964C17.5598 11.6027 17.4326 11.55 17.3 11.55H13.33L17.69 4.77C17.7368 4.69318 17.7616 4.60496 17.7616 4.515C17.7616 4.42504 17.7368 4.33682 17.69 4.26C17.6477 4.18463 17.587 4.12124 17.5136 4.07576C17.4401 4.03028 17.3563 4.00421 17.27 4H12.41ZM5.5 11.5C5.5 11.3674 5.55268 11.2402 5.64645 11.1464C5.74021 11.0527 5.86739 11 6 11H9.21C9.29726 11.0005 9.38286 11.0239 9.45829 11.0677C9.53373 11.1116 9.59637 11.1744 9.64 11.25C9.68682 11.3268 9.71158 11.415 9.71158 11.505C9.71158 11.595 9.68682 11.6832 9.64 11.76L6.88 16.34H9.21C9.34181 16.3426 9.4675 16.3961 9.56072 16.4893C9.65394 16.5825 9.70744 16.7082 9.71 16.84C9.71 16.9726 9.65732 17.0998 9.56355 17.1936C9.46979 17.2873 9.34261 17.34 9.21 17.34H6C5.91212 17.3427 5.82523 17.3207 5.74922 17.2765C5.67321 17.2324 5.61111 17.1677 5.57 17.09C5.52612 17.014 5.50301 16.9278 5.50301 16.84C5.50301 16.7522 5.52612 16.666 5.57 16.59L8.32 12H6C5.86739 12 5.74021 11.9473 5.64645 11.8536C5.55268 11.7598 5.5 11.6326 5.5 11.5ZM12.5 16.5C12.5 16.3674 12.5527 16.2402 12.6464 16.1464C12.7402 16.0527 12.8674 16 13 16H15.25C15.3422 16.0011 15.4325 16.0266 15.5116 16.0741C15.5906 16.1215 15.6557 16.1891 15.7 16.27C15.7466 16.3487 15.7713 16.4385 15.7713 16.53C15.7713 16.6215 15.7466 16.7113 15.7 16.79L14 19.11H15.27C15.4026 19.11 15.5298 19.1627 15.6236 19.2564C15.7173 19.3502 15.77 19.4774 15.77 19.61C15.77 19.7426 15.7173 19.8698 15.6236 19.9636C15.5298 20.0573 15.4026 20.11 15.27 20.11H13C12.9078 20.1089 12.8175 20.0834 12.7384 20.0359C12.6594 19.9885 12.5943 19.9209 12.55 19.84C12.5012 19.7621 12.4753 19.672 12.4753 19.58C12.4753 19.488 12.5012 19.3979 12.55 19.32L14.27 17H13C12.8674 17 12.7402 16.9473 12.6464 16.8536C12.5527 16.7598 12.5 16.6326 12.5 16.5Z" fill="black"/>
</svg>
