<?xml version="1.0" encoding="UTF-8"?>
<svg xmlns="http://www.w3.org/2000/svg" width="24" height="24" version="1.1" viewBox="0 0 24 24">

        <polygon  points="10.406 8 12.68 6.805 14.954 8 14.52 5.467 16.36 3.673 13.817 3.304 12.68 1 11.543 3.304 9 3.673 10.84 5.467 10.406 8"/>
        <polygon  points="5.548 18.175 4.475 16 3.401 18.175 1 18.524 2.737 20.217 2.327 22.609 4.475 21.48 6.622 22.609 6.212 20.217 7.949 18.524 5.548 18.175"/>
        <polygon  points="20.548 18.175 19.474 16 18.401 18.175 16 18.524 17.737 20.217 17.327 22.609 19.474 21.48 21.622 22.609 21.212 20.217 22.949 18.524 20.548 18.175"/>
        <path  d="M18.097,12.578c.072-.065.128-.113.166-.145l.025-.021.017-.014.01-.008.002-.002c.214-.175.245-.49.07-.703-.175-.214-.491-.245-.704-.07t.317.386l-.317-.386h-.001s-.004.004-.004.004l-.014.012c-.012.01-.029.024-.05.042-.043.037-.105.091-.183.161-.156.14-.378.346-.643.611-.529.529-1.234,1.299-1.94,2.261-.853,1.163-1.719,2.625-2.268,4.298-.605-2.443-1.775-4.383-2.941-5.818-.838-1.031-1.675-1.805-2.305-2.321-.315-.259-.579-.454-.766-.585-.093-.066-.168-.116-.22-.15-.026-.017-.046-.03-.061-.039l-.017-.011-.005-.003h-.002s-.001-.002-.001-.002c0,0-.002.004-.009.015l.009-.015c-.235-.145-.543-.071-.688.164-.145.235-.071.543.164.688h.002s.011.008.011.008c.01.007.026.017.048.031.043.028.109.072.193.132.169.119.413.299.707.54.589.483,1.376,1.21,2.164,2.179,1.574,1.937,3.138,4.829,3.138,8.685,0,.276.224.5.5.5s.5-.224.5-.5c0-2.85,1.309-5.371,2.653-7.204.669-.913,1.339-1.643,1.841-2.145.251-.251.459-.444.603-.573ZM6.169,10.225c-.039.063-.089.144-.169.275l.169-.275Z"/>
        <path  d="M12,9.5v3c0,.276.224.5.5.5s.5-.224.5-.5v-3c0-.276-.224-.5-.5-.5s-.5.224-.5.5Z"/>
        <circle  cx="2.5" cy="9.5" r="1.5"/>
        <circle  cx="21.5" cy="9.5" r="1.5"/>
   
</svg>