<?xml version="1.0" encoding="UTF-8"?>
<svg id="Camada_1" xmlns="http://www.w3.org/2000/svg" width="40" height="40" version="1.1" viewBox="0 0 40 40">
  <!-- Generator: Adobe Illustrator 29.5.1, SVG Export Plug-In . SVG Version: 2.1.0 Build 141)  -->
  <path d="M20,4.167c-8.745,0-15.833,7.089-15.833,15.833s7.089,15.833,15.833,15.833,15.833-7.089,15.833-15.833-7.089-15.833-15.833-15.833ZM2.5,20C2.5,10.335,10.335,2.5,20,2.5s17.5,7.835,17.5,17.5-7.835,17.5-17.5,17.5S2.5,29.665,2.5,20ZM28.917,14.406c.328.322.333.85.011,1.178l-11.458,11.667c-.157.16-.371.249-.594.249s-.438-.09-.594-.249l-5.208-5.303c-.322-.328-.318-.856.011-1.178.328-.323.856-.318,1.179.011l4.614,4.698,10.864-11.061c.323-.328.85-.333,1.178-.011Z" fill="#363636" fill-rule="evenodd"/>
</svg>