<?xml version="1.0" encoding="utf-8"?>
<!-- Generator: Adobe Illustrator 28.4.1, SVG Export Plug-In . SVG Version: 6.00 Build 0)  -->
<svg version="1.0" id="Camada_1" xmlns="http://www.w3.org/2000/svg" xmlns:xlink="http://www.w3.org/1999/xlink" x="0px" y="0px"
	 width="24px" height="24px" viewBox="0 0 24 24" enable-background="new 0 0 24 24" xml:space="preserve">
<path    d="M7,9.5c-0.3,0-0.5,0.2-0.5,0.5c0,0.3,0.2,0.5,0.5,0.5h6c0.3,0,0.5-0.2,0.5-0.5c0-0.3-0.2-0.5-0.5-0.5H7z"/>
<path fill-rule="evenodd" clip-rule="evenodd"    d="M3.4,6.3c-2.9,5,0.7,11.3,6.5,11.3c1.9,0,3.7-0.7,5-1.9l5.8,5.7
	c0.1,0.1,0.2,0.1,0.4,0.1c0.1,0,0.3-0.1,0.4-0.1c0.2-0.2,0.2-0.5,0-0.7l-5.8-5.7c1.1-1.3,1.8-3,1.8-4.9c0-1.3-0.3-2.6-1-3.8
	C13.5,1.3,6.3,1.3,3.4,6.3z M4.3,13.3C1.8,9,4.9,3.6,9.9,3.6c3.6,0,6.5,2.9,6.5,6.5c0,1.1-0.3,2.3-0.9,3.2c-0.3,0.5-0.6,0.9-0.9,1.2
	c0,0,0,0-0.1,0c0,0,0,0-0.1,0.1C11.6,17.6,6.5,17.1,4.3,13.3z"/>
</svg>
