<?xml version="1.0" encoding="UTF-8"?>
<svg xmlns="http://www.w3.org/2000/svg" width="24" height="24" version="1.1" viewBox="0 0 24 24">
 
        <path  d="M14,3.5c0-.276-.224-.5-.5-.5H1.5c-.276,0-.5.224-.5.5v5c0,1.023.438,1.94,1.042,2.72.604.78,1.397,1.453,2.169,2,.775.549,1.547.983,2.123,1.279.27.139.499.248.666.325v5.175h-3.5c-.276,0-.5.224-.5.5s.224.5.5.5h8c.276,0,.5-.224.5-.5s-.224-.5-.5-.5h-3.5v-5.175c.167-.077.396-.187.666-.325.576-.296,1.348-.73,2.123-1.279.772-.547,1.565-1.221,2.169-2,.604-.78,1.042-1.698,1.042-2.72V3.5ZM12.167,10.608c-.521.673-1.228,1.281-1.956,1.797-.725.514-1.453.924-2.002,1.206-.274.141-.501.249-.659.321l-.049.023-.049-.023c-.158-.073-.386-.181-.659-.321-.549-.282-1.277-.692-2.002-1.206-.728-.516-1.435-1.123-1.956-1.797-.401-.518-.678-1.056-.784-1.608h10.903c-.106.552-.383,1.09-.784,1.608ZM13,8H2v-4h11v4Z"/>
        <path  d="M22.792,8.094c-.13-.094-.298-.12-.451-.069l-6,2c-.204.068-.342.259-.342.474v4.668c-.227-.108-.482-.168-.75-.168-.966,0-1.75.784-1.75,1.75s.784,1.75,1.75,1.75c.953,0,1.727-.761,1.75-1.708,0-.007,0-.015,0-.022v-3.409l5-1.667v1.975c-.227-.108-.482-.168-.75-.168-.966,0-1.75.784-1.75,1.75s.784,1.75,1.75,1.75c.909,0,1.656-.693,1.742-1.579.005-.029.008-.06.008-.091v-4.314c0-.011,0-.022,0-.033v-2.484c0-.161-.077-.312-.208-.406ZM15.25,17.5c-.414,0-.75-.336-.75-.75s.336-.75.75-.75.75.336.75.75-.336.75-.75.75ZM21.25,16c-.414,0-.75-.336-.75-.75s.336-.75.75-.75.75.336.75.75-.336.75-.75.75ZM22,10.64l-5,1.667v-1.446l5-1.667v1.446Z"/>

</svg>