<?xml version="1.0" encoding="utf-8"?>
<!-- Generator: Adobe Illustrator 28.3.0, SVG Export Plug-In . SVG Version: 6.00 Build 0)  -->
<svg version="1.1" id="Camada_2" xmlns="http://www.w3.org/2000/svg" xmlns:xlink="http://www.w3.org/1999/xlink" x="0px" y="0px"
	 width="24px" height="24px" viewBox="0 0 24 24" enable-background="new 0 0 24 24" xml:space="preserve">
<path fill="#363636" d="M11.961,3.106c1.451,1.162,6.539,7.467,6.539,11.93c0,3.584-2.916,6.5-6.5,6.5s-6.5-2.916-6.5-6.5
	C5.5,9.81,10.427,4.145,11.961,3.106 M12,2c-1.017,0-7.5,6.758-7.5,13.036c0,4.142,3.358,7.5,7.5,7.5s7.5-3.358,7.5-7.5
	C19.5,9.593,12.931,2,12,2L12,2z"/>
<path fill="#363636" d="M12.03,18.269c-1.802,0-3.742-1.275-3.742-4.076c0-0.276,0.224-0.5,0.5-0.5s0.5,0.224,0.5,0.5
	c0,2.125,1.377,3.076,2.742,3.076c0.276,0,0.5,0.224,0.5,0.5S12.306,18.269,12.03,18.269z"/>
</svg>
