<?xml version="1.0" encoding="UTF-8"?>
<svg xmlns="http://www.w3.org/2000/svg" width="24" height="24" version="1.1" viewBox="0 0 24 24">
  <defs>
    <style>
      .cls-1 {
        fill: #363636;
        fill-rule: evenodd;
      }
    </style>
  </defs>
  <!-- Generator: Adobe Illustrator 28.6.0, SVG Export Plug-In . SVG Version: 1.2.0 Build 709)  -->
  <g>
    <g id="Camada_1">
      <g>
        <path class="cls-1" d="M9.5,15h-2.5v-5h1.5c.276,0,.5-.224.5-.5s-.224-.5-.5-.5h-1.5v-2h1.5c.276,0,.5-.224.5-.5s-.224-.5-.5-.5h-1.5v-2h1.5c.276,0,.5-.224.5-.5s-.224-.5-.5-.5h-1.5v-1.5c0-.276-.224-.5-.5-.5s-.5.224-.5.5v1.5h-1.5c-.276,0-.5.224-.5.5s.224.5.5.5h1.5v2h-1.5c-.276,0-.5.224-.5.5s.224.5.5.5h1.5v2h-1.5c-.276,0-.5.224-.5.5s.224.5.5.5h1.5v5h-2.5c-.276,0-.5.224-.5.5v7c0,.276.224.5.5.5h6c.276,0,.5-.224.5-.5v-7c0-.276-.224-.5-.5-.5ZM9,22h-5v-6h5v6Z"/>
        <path class="cls-1" d="M20.5,7h-6c-.276,0-.5.224-.5.5v15c0,.276.224.5.5.5h6c.276,0,.5-.224.5-.5V7.5c0-.276-.224-.5-.5-.5ZM20,22h-5v-3h2.5c.276,0,.5-.224.5-.5s-.224-.5-.5-.5h-2.5v-10h5v14Z"/>
      </g>
    </g>
  </g>
</svg>