<?xml version="1.0" encoding="UTF-8"?>
<svg xmlns="http://www.w3.org/2000/svg" width="24" height="24" version="1.1" viewBox="0 0 24 24">

        <path  d="M14,7.5c0-.276-.224-.5-.5-.5-3.037,0-5.5-2.463-5.5-5.5,0-.276-.224-.5-.5-.5s-.5.224-.5.5c0,3.037-2.463,5.5-5.5,5.5-.276,0-.5.224-.5.5s.224.5.5.5c3.037,0,5.5,2.463,5.5,5.5,0,.276.224.5.5.5s.5-.224.5-.5c0-3.037,2.463-5.5,5.5-5.5.276,0,.5-.224.5-.5ZM7.5,10.996c-.659-1.576-1.92-2.837-3.496-3.496,1.576-.659,2.837-1.92,3.496-3.496.659,1.576,1.92,2.837,3.496,3.496-1.576.659-2.837,1.92-3.496,3.496Z"/>
        <path  d="M22.5,17c-2.485,0-4.5-2.015-4.5-4.5,0-.276-.224-.5-.5-.5s-.5.224-.5.5c0,2.485-2.015,4.5-4.5,4.5-.276,0-.5.224-.5.5s.224.5.5.5c2.485,0,4.5,2.015,4.5,4.5,0,.276.224.5.5.5s.5-.224.5-.5c0-2.485,2.015-4.5,4.5-4.5.276,0,.5-.224.5-.5s-.224-.5-.5-.5ZM17.5,20.206c-.549-1.194-1.512-2.157-2.706-2.706,1.194-.549,2.157-1.512,2.706-2.706.549,1.194,1.512,2.157,2.706,2.706-1.194.549-2.157,1.512-2.706,2.706Z"/>
        <path  d="M16.75,5.75c.828,0,1.5.672,1.5,1.5,0,.414.336.75.75.75s.75-.336.75-.75c0-.828.672-1.5,1.5-1.5.414,0,.75-.336.75-.75s-.336-.75-.75-.75c-.828,0-1.5-.672-1.5-1.5,0-.414-.336-.75-.75-.75s-.75.336-.75.75c0,.828-.672,1.5-1.5,1.5-.414,0-.75.336-.75.75s.336.75.75.75Z"/>
        <path  d="M7.25,18.25c-.828,0-1.5-.672-1.5-1.5,0-.414-.336-.75-.75-.75s-.75.336-.75.75c0,.828-.672,1.5-1.5,1.5-.414,0-.75.336-.75.75s.336.75.75.75c.828,0,1.5.672,1.5,1.5,0,.414.336.75.75.75s.75-.336.75-.75c0-.828.672-1.5,1.5-1.5.414,0,.75-.336.75-.75s-.336-.75-.75-.75Z"/>
 
</svg>