<?xml version="1.0" encoding="UTF-8"?>
<svg xmlns="http://www.w3.org/2000/svg" width="24" height="24" version="1.1" viewBox="0 0 24 24">
  <defs>
    <style>
      .cls-1 {
        fill: #363636;
        fill-rule: evenodd;
      }
    </style>
  </defs>
  <!-- Generator: Adobe Illustrator 28.6.0, SVG Export Plug-In . SVG Version: 1.2.0 Build 709)  -->
  <g>
    <g id="Camada_1">
      <g>
        <path class="cls-1" d="M18.5,14h-1.5v-6.085c.583-.206,1-.762,1-1.415V1.5c0-.202-.122-.385-.309-.462-.187-.077-.402-.035-.545.108l-1.707,1.707c-.281.281-.439.663-.439,1.061v2.586c0,.653.417,1.209,1,1.415v6.085h-1.5c-.276,0-.5.224-.5.5v7c0,.828.672,1.5,1.5,1.5h2c.828,0,1.5-.672,1.5-1.5v-7c0-.276-.224-.5-.5-.5ZM16,3.914c0-.133.053-.26.146-.354l.854-.854v3.793c0,.275-.222.499-.497.5h-.005c-.275-.001-.497-.225-.497-.5v-2.586ZM18,21.5c0,.276-.224.5-.5.5h-2c-.276,0-.5-.224-.5-.5v-6.5h3v6.5Z"/>
        <path class="cls-1" d="M9.5,8h-4c-.276,0-.5.224-.5.5v13c0,.828.672,1.5,1.5,1.5h2c.828,0,1.5-.672,1.5-1.5v-13c0-.276-.224-.5-.5-.5ZM9,21.5c0,.276-.224.5-.5.5h-2c-.276,0-.5-.224-.5-.5v-10h3v10ZM9,10.5h-3v-1.5h3v1.5Z"/>
      </g>
    </g>
  </g>
</svg>