<?xml version="1.0" encoding="UTF-8"?>
<svg id="Camada_1" data-name="Camada 1" xmlns="http://www.w3.org/2000/svg" width="24" height="24" version="1.1" viewBox="0 0 24 24">
  <path d="M12.013,9.251c-.133,0-.26.053-.354.146-.094.094-.146.221-.146.354v8c0,.133.053.26.146.354.094.094.221.146.354.146s.26-.053.354-.146c.094-.094.146-.221.146-.354v-8c0-.133-.053-.26-.146-.354-.094-.094-.221-.146-.354-.146Z" fill="#363636" stroke-width="0"/>
  <path d="M12.693,6.001c-.187-.165-.43-.255-.68-.25-.265,0-.52.105-.707.293-.188.188-.293.442-.293.707.004.264.112.515.3.7.186.185.438.289.7.29.264-.004.515-.112.7-.3.185-.186.289-.438.29-.7.002-.138-.024-.275-.078-.402-.053-.127-.132-.242-.232-.338Z" fill="#363636" stroke-width="0"/>
  <path d="M22.794,9.797c-.436-2.132-1.494-4.086-3.041-5.617-1.02-1.027-2.236-1.838-3.576-2.384-1.34-.546-2.777-.817-4.224-.796-1.445.004-2.874.292-4.207.849-1.333.556-2.544,1.37-3.562,2.394C2.126,6.312.975,9.113.983,12.031c.008,2.917,1.174,5.712,3.243,7.769,2.068,2.057,4.87,3.209,7.787,3.201h.06c2.176-.011,4.3-.667,6.102-1.885,1.803-1.218,3.204-2.944,4.026-4.958.822-2.015,1.028-4.228.592-6.359ZM19.127,19.054c-1.871,1.88-4.412,2.94-7.064,2.947h-.05c-2.652,0-5.196-1.054-7.071-2.929-1.875-1.875-2.929-4.419-2.929-7.071s1.054-5.196,2.929-7.071c1.875-1.875,4.419-2.929,7.071-2.929,2.652-.007,5.198,1.041,7.078,2.911,1.88,1.871,2.94,4.412,2.947,7.064.007,2.652-1.041,5.198-2.911,7.078Z" fill="#363636" stroke-width="0"/>
</svg>