<svg width="24" height="24" viewBox="0 0 24 24" fill="none" xmlns="http://www.w3.org/2000/svg">
<path fill-rule="evenodd" clip-rule="evenodd" d="M12.0254 1.00098C12.0339 1.00142 12.0423 1.00206 12.0508 1.00293C12.0683 1.00472 12.0855 1.00814 12.1025 1.01172C12.1067 1.0126 12.1111 1.01268 12.1152 1.01367L12.1426 1.02051C12.1526 1.02348 12.1621 1.02767 12.1719 1.03125C12.1787 1.03377 12.1856 1.03623 12.1924 1.03906C12.2092 1.0461 12.2253 1.05466 12.2412 1.06348C12.2454 1.0658 12.2498 1.06785 12.2539 1.07031C12.2723 1.08118 12.2898 1.09331 12.3066 1.10645C12.3098 1.10888 12.3133 1.11077 12.3164 1.11328L17.8164 5.61328C17.9325 5.70825 18 5.85004 18 6V18C18 18.15 17.9325 18.2918 17.8164 18.3867L12.3164 22.8867C12.3135 22.8891 12.3096 22.8903 12.3066 22.8926C12.2894 22.906 12.2718 22.9186 12.2529 22.9297C12.2448 22.9345 12.2368 22.9391 12.2285 22.9434C12.2136 22.9511 12.1983 22.9577 12.1826 22.9639C12.1741 22.9672 12.1658 22.9708 12.1572 22.9736C12.1072 22.9902 12.0545 23 12 23C11.9452 23 11.892 22.9904 11.8418 22.9736C11.8332 22.9708 11.8249 22.9672 11.8164 22.9639C11.8008 22.9577 11.7854 22.9511 11.7705 22.9434C11.7622 22.9391 11.7542 22.9345 11.7461 22.9297C11.7273 22.9186 11.7096 22.906 11.6924 22.8926C11.6896 22.8904 11.6863 22.8889 11.6836 22.8867L6.18359 18.3867C6.06754 18.2918 6.00001 18.15 6 18V6L6.0127 5.88965C6.03707 5.78201 6.09657 5.68449 6.18359 5.61328L11.6836 1.11328L11.6943 1.10547C11.7103 1.09308 11.7268 1.08165 11.7441 1.07129L11.7559 1.06348L11.7598 1.06152C11.7991 1.03987 11.8414 1.02312 11.8857 1.0127C11.8945 1.01066 11.9033 1.00937 11.9121 1.00781C11.9263 1.00528 11.9406 1.00326 11.9551 1.00195C11.9635 1.0012 11.972 1.0013 11.9805 1.00098C11.987 1.00072 11.9935 1 12 1C12.0085 1 12.017 1.00055 12.0254 1.00098ZM10.2764 17.5L12 21.291L13.7236 17.5H10.2764ZM7 6.23633V17.7627L10.6572 20.7549L9.04492 17.207L9.04297 17.2021C9.01557 17.1403 9 17.072 9 17V7C9 6.92768 9.01534 6.85894 9.04297 6.79688L9.04492 6.79297L10.6582 3.24219L7 6.23633ZM14.9551 6.79297L14.9561 6.79688C14.9838 6.85904 15 6.92754 15 7V17C15 17.0721 14.9836 17.1402 14.9561 17.2021L14.9551 17.207L13.3418 20.7549L17 17.7627V6.23633L13.3408 3.24219L14.9551 6.79297ZM10 16.5H14V7.5H10V16.5ZM10.2764 6.5H13.7236L12 2.70801L10.2764 6.5Z" fill="#363636"/>
</svg>
