<svg width="24" height="24" viewBox="0 0 24 24" fill="none" xmlns="http://www.w3.org/2000/svg">
<path fill-rule="evenodd" clip-rule="evenodd" d="M11 5.24998V5.62998C10.1419 5.85155 9.38163 6.35184 8.83864 7.0523C8.29565 7.75275 8.00066 8.61371 8 9.49998V13.5C8.00078 13.8882 7.91076 14.2713 7.73713 14.6185C7.5635 14.9658 7.31107 15.2677 7 15.5L6 16.25V17.5C6 17.6326 6.05268 17.7598 6.14645 17.8535C6.24021 17.9473 6.36739 18 6.5 18H17.5C17.6326 18 17.7598 17.9473 17.8536 17.8535C17.9473 17.7598 18 17.6326 18 17.5V16.25L17 15.5C16.6889 15.2677 16.4365 14.9658 16.2629 14.6185C16.0892 14.2713 15.9992 13.8882 16 13.5V9.49998C15.9993 8.61371 15.7044 7.75275 15.1614 7.0523C14.6184 6.35184 13.8581 5.85155 13 5.62998V4.99998C12.9997 4.86593 12.9725 4.73331 12.92 4.60998V4.60998C12.8297 4.39808 12.6691 4.22383 12.4652 4.11668C12.2613 4.00954 12.0267 3.97606 11.8009 4.02191C11.5752 4.06776 11.3722 4.19012 11.2263 4.36833C11.0804 4.54653 11.0004 4.76965 11 4.99998V5.24998ZM10 4.90998C9.10718 5.29964 8.34762 5.94162 7.81466 6.75705C7.28171 7.57248 6.99855 8.52583 7 9.49998V13.5C7.00078 13.733 6.94691 13.9629 6.8427 14.1713C6.7385 14.3797 6.58687 14.5608 6.4 14.7L5.2 15.6L5 15.75V17.5C5 17.8978 5.15804 18.2793 5.43934 18.5606C5.72064 18.8419 6.10218 19 6.5 19H17.5C17.8978 19 18.2794 18.8419 18.5607 18.5606C18.842 18.2793 19 17.8978 19 17.5V15.75L18.8 15.6L17.6 14.7C17.4131 14.5608 17.2615 14.3797 17.1573 14.1713C17.0531 13.9629 16.9992 13.733 17 13.5V9.49998C16.9995 8.52754 16.7154 7.57634 16.1826 6.76287C15.6498 5.9494 14.8913 5.30896 14 4.91998C14 4.38955 13.7893 3.88084 13.4142 3.50577C13.0391 3.1307 12.5304 2.91998 12 2.91998C11.4696 2.91998 10.9609 3.1307 10.5858 3.50577C10.2107 3.88084 10 4.38955 10 4.91998V4.90998ZM12 21.5C11.5141 21.4985 11.039 21.3559 10.6325 21.0897C10.226 20.8234 9.90554 20.4448 9.71 20H14.29C14.0945 20.4448 13.774 20.8234 13.3675 21.0897C12.961 21.3559 12.4859 21.4985 12 21.5V21.5Z" fill="black"/>
</svg>
