<svg xmlns="http://www.w3.org/2000/svg" viewBox="0 0 24 24"><g id="Create-Here"><path id="vector_like" data-name="vector like" d="M18.93,13.58a3.62,3.62,0,0,1-2.29.83H15.09v2.21a3.42,3.42,0,0,1-3.48,3.26h0a1.07,1.07,0,0,1-.72-.28.91.91,0,0,1-.3-.67V15.41a1.05,1.05,0,0,0-1.11-1h0a.52.52,0,0,1-.54-.5l0-7.73a.48.48,0,0,1,.22-.41L11.15,4.4a2,2,0,0,1,.94-.28h3.39a2.47,2.47,0,0,1,2.36,1.57l2,4.54A3.07,3.07,0,0,1,18.93,13.58Zm-.1-3L16.83,6a1.41,1.41,0,0,0-1.36-.91H12.12a.94.94,0,0,0-.36.11L10,6.43l.05,7a2,2,0,0,1,1.66,2l-.05,3.46A2.36,2.36,0,0,0,14,16.61V13.9a.53.53,0,0,1,.53-.5h2.09a2.46,2.46,0,0,0,1.56-.56,2.1,2.1,0,0,0,.62-2.26ZM7,14.36H5a1,1,0,0,1-.71-.28A.93.93,0,0,1,4,13.4V6.57a1,1,0,0,1,1-1h2a1,1,0,0,1,1,1v0L8,13.41a1,1,0,0,1-1,.95ZM5.08,6.58,5,13.35,7,13.4,7,6.63Z"/></g></svg>