<svg id="Icon_Outlined_Action_Increase" data-name="Icon / Outlined / Action / Increase" xmlns="http://www.w3.org/2000/svg" width="24" height="24" viewBox="0 0 24 24">
  <rect id="box" width="24" height="24" opacity="0"/>
  <g id="outlined-action-increase" transform="translate(-1.3 -1.3)">
    <path id="Caminho_2908" data-name="Caminho 2908" d="M18.67,13.623a.613.613,0,0,0-.657.636V17.1L9.486,8.59h2.83a.645.645,0,0,0,0-1.29H7.943a.609.609,0,0,0-.643.645v4.387a.643.643,0,1,0,1.286,0V9.494l8.489,8.516h-2.83a.645.645,0,0,0,0,1.29h4.373a.609.609,0,0,0,.643-.645l.039-4.387A.624.624,0,0,0,18.67,13.623Z" transform="translate(0)"/>
  </g>
</svg>
