<?xml version="1.0" encoding="UTF-8"?>
<svg xmlns="http://www.w3.org/2000/svg" width="24" height="24" version="1.1" viewBox="0 0 24 24">
  <defs>
    <style>
      .cls-1 {
        fill: #363636;
        fill-rule: evenodd;
      }
    </style>
  </defs>
  <!-- Generator: Adobe Illustrator 28.6.0, SVG Export Plug-In . SVG Version: 1.2.0 Build 709)  -->
  <g>
    <g id="Camada_1">
      <path class="cls-1" d="M17.468,6.532c-1.204-3.231-4.317-5.532-7.968-5.532C4.806,1,1,4.806,1,9.5c0,3.651,2.301,6.764,5.532,7.968,1.204,3.231,4.317,5.532,7.968,5.532,4.694,0,8.5-3.806,8.5-8.5,0-3.651-2.301-6.764-5.532-7.968ZM16.679,7.321c.209.689.321,1.421.321,2.179,0,.255-.013.507-.038.755l-3.218-3.218c.248-.025.5-.038.755-.038.758,0,1.489.112,2.179.321h.001ZM13.275,15.982c-.566.33-1.179.589-1.826.762l-4.194-4.189c.174-.649.432-1.264.763-1.831h0s5.257,5.258,5.257,5.258ZM8.589,9.883c.377-.482.811-.916,1.293-1.293l5.528,5.528c-.377.482-.811.916-1.293,1.293l-5.528-5.528ZM10.724,8.019c.571-.333,1.189-.593,1.843-.767.021.036.048.071.079.102l4,4c.031.032.066.058.102.079-.174.654-.434,1.272-.767,1.843l-5.257-5.257ZM6.175,16.225c-2.474-1.226-4.175-3.776-4.175-6.725,0-4.142,3.358-7.5,7.5-7.5,2.948,0,5.499,1.701,6.725,4.175-.557-.115-1.134-.175-1.725-.175-4.694,0-8.5,3.806-8.5,8.5,0,.591.06,1.168.175,1.725ZM7,14.5c0-.252.013-.502.037-.748l3.215,3.211c-.247.024-.498.037-.752.037-.758,0-1.49-.112-2.179-.321-.209-.69-.321-1.421-.321-2.179ZM14.5,22c-2.948,0-5.499-1.701-6.725-4.175.557.115,1.134.175,1.725.175,4.694,0,8.5-3.806,8.5-8.5,0-.591-.06-1.168-.175-1.725,2.474,1.226,4.175,3.776,4.175,6.725,0,4.142-3.358,7.5-7.5,7.5Z"/>
    </g>
  </g>
</svg>