<?xml version="1.0" encoding="UTF-8"?>
<svg id="Camada_1" xmlns="http://www.w3.org/2000/svg" width="24" height="24" version="1.1" viewBox="0 0 24 24">
  <!-- Generator: Adobe Illustrator 29.1.0, SVG Export Plug-In . SVG Version: 2.1.0 Build 142)  -->
  <path d="M15.855,10.816c-.058-.052-.129-.086-.204-.098l-2.266-.344-1.015-2.15c-.037-.068-.091-.125-.156-.164-.065-.039-.138-.06-.213-.06s-.148.021-.213.06c-.065.039-.118.096-.156.164l-1.015,2.15-2.266.344c-.076.011-.147.045-.206.096-.059.052-.102.12-.126.196-.024.076-.027.158-.008.236.018.078.057.149.112.205l1.64,1.677-.389,2.368c-.012.078-.003.159.026.232.029.073.077.137.138.184.062.048.135.076.211.082s.153-.011.22-.049l2.029-1.114,2.028,1.118c.058.033.124.05.19.05.06,0,.119-.014.173-.04.054-.026.102-.065.141-.113s.066-.104.082-.164c.016-.06.019-.124.009-.185l-.387-2.368,1.64-1.677c.055-.056.094-.127.112-.206.018-.078.015-.16-.009-.237-.023-.076-.066-.144-.124-.195Z" fill="#363636" fill-rule="evenodd"/>
  <path d="M22.5,10c.276,0,.5-.224.5-.5v-5c0-.276-.224-.5-.5-.5H1.5c-.276,0-.5.224-.5.5v5c0,.276.224.5.5.5,1.381,0,2.5,1.119,2.5,2.5s-1.119,2.5-2.5,2.5c-.276,0-.5.224-.5.5v5c0,.276.224.5.5.5h21c.276,0,.5-.224.5-.5v-5c0-.276-.224-.5-.5-.5-1.381,0-2.5-1.119-2.5-2.5s1.119-2.5,2.5-2.5ZM22,15.965v4.035H2v-4.035c1.696-.243,3-1.701,3-3.465s-1.304-3.222-3-3.465v-4.035h20v4.035c-1.696.243-3,1.701-3,3.465s1.304,3.222,3,3.465Z" fill="#363636" fill-rule="evenodd"/>
</svg>