<?xml version="1.0" encoding="UTF-8"?>
<svg id="Camada_1" xmlns="http://www.w3.org/2000/svg" width="24" height="24" version="1.1" viewBox="0 0 24 24">
  <!-- Generator: Adobe Illustrator 29.2.1, SVG Export Plug-In . SVG Version: 2.1.0 Build 116)  -->
  <path d="M22.5,21H1.5c-.276,0-.5-.224-.5-.5v-5c0-.276.224-.5.5-.5,1.378,0,2.5-1.121,2.5-2.5s-1.122-2.5-2.5-2.5c-.276,0-.5-.224-.5-.5v-5c0-.276.224-.5.5-.5h21c.276,0,.5.224.5.5v5c0,.276-.224.5-.5.5-1.379,0-2.5,1.122-2.5,2.5s1.121,2.5,2.5,2.5c.276,0,.5.224.5.5v5c0,.276-.224.5-.5.5ZM2,20h20v-4.035c-1.694-.244-3-1.704-3-3.464s1.306-3.221,3-3.464v-4.036H2v4.036c1.694.243,3,1.704,3,3.464s-1.306,3.22-3,3.464v4.035Z" fill="#363636"/>
  <path d="M9,16c-.128,0-.256-.049-.354-.146-.195-.195-.195-.512,0-.707l6-6c.195-.195.512-.195.707,0s.195.512,0,.707l-6,6c-.098.098-.226.146-.354.146Z" fill="#363636"/>
  <path d="M9.5,11.5c.828,0,1.5-.672,1.5-1.5s-.672-1.5-1.5-1.5-1.5.672-1.5,1.5.672,1.5,1.5,1.5Z" fill="#363636"/>
  <path d="M14.5,16.5c.828,0,1.5-.672,1.5-1.5s-.672-1.5-1.5-1.5-1.5.672-1.5,1.5.672,1.5,1.5,1.5Z" fill="#363636"/>
</svg>