<?xml version="1.0" encoding="UTF-8"?>
<svg xmlns="http://www.w3.org/2000/svg" width="24" height="24" version="1.1" viewBox="0 0 24 24">

        <path  d="M21.655,7.917c-.612-2.052-1.995-3.788-3.859-4.842-1.864-1.055-4.064-1.347-6.138-.815-2.074.532-3.862,1.847-4.988,3.668-.145.235-.073.543.162.688.235.145.543.073.688-.162.99-1.602,2.562-2.758,4.386-3.226,1.824-.468,3.758-.211,5.397.716,1.639.927,2.855,2.453,3.393,4.258.538,1.805.357,3.747-.506,5.421-.127.245-.03.547.215.674.245.127.547.03.674-.215.982-1.903,1.188-4.113.576-6.165Z"/>
        <path  d="M17.246,9.9c-.441-.4-1.052-.738-1.764-1.011-1.428-.548-3.366-.876-5.482-.876s-4.055.328-5.482.876c-.712.273-1.323.611-1.764,1.011-.441.4-.753.903-.753,1.49,0,.024,0,.047.002.071-.001.013-.002.026-.002.039v6.968c0,.581.33,1.086.772,1.489.448.408,1.067.767,1.787,1.063,1.443.595,3.384.979,5.441.979s3.998-.385,5.441-.979c.72-.297,1.339-.655,1.787-1.063.442-.403.772-.908.772-1.489v-6.968c0-.013,0-.026-.002-.039.001-.023.002-.047.002-.071,0-.587-.312-1.09-.754-1.49ZM17,18.468c0,.185-.107.442-.446.75-.333.304-.839.608-1.494.878-1.307.538-3.116.904-5.06.904s-3.753-.365-5.06-.904c-.655-.27-1.161-.574-1.494-.878-.339-.309-.446-.566-.446-.75v-1.817c.434.331.99.626,1.631.876,1.506.589,3.57.972,5.87.972.276,0,.5-.224.5-.5s-.224-.5-.5-.5c-2.2,0-4.137-.367-5.506-.903-.687-.269-1.207-.57-1.547-.87-.346-.305-.448-.555-.448-.727v-1.916c.411.312.93.581,1.518.807,1.428.548,3.366.876,5.482.876s4.055-.328,5.482-.876c.588-.225,1.106-.495,1.518-.807v5.384ZM16.574,12.14c-.318.288-.805.571-1.451.818-1.287.494-3.098.81-5.124.81s-3.837-.316-5.124-.81c-.645-.247-1.133-.53-1.451-.818-.318-.288-.425-.542-.425-.749s.108-.461.425-.749c.318-.288.805-.571,1.451-.818,1.287-.494,3.098-.809,5.124-.809s3.837.316,5.124.809c.645.247,1.133.53,1.451.818.318.288.425.542.425.749s-.108.461-.425.749Z"/>
 
</svg>