<?xml version="1.0" encoding="utf-8"?>
<!-- Generator: Adobe Illustrator 28.4.1, SVG Export Plug-In . SVG Version: 6.00 Build 0)  -->
<svg version="1.0" id="Camada_1" xmlns="http://www.w3.org/2000/svg" xmlns:xlink="http://www.w3.org/1999/xlink" x="0px" y="0px"
	 width="24px" height="24px" viewBox="0 0 24 24" enable-background="new 0 0 24 24" xml:space="preserve">
<path    d="M21.9,2.9c0.2-0.2,0.2-0.5,0-0.7c-0.2-0.2-0.5-0.2-0.7,0l-19,19c-0.2,0.2-0.2,0.5,0,0.7
	c0.2,0.2,0.5,0.2,0.7,0L21.9,2.9z"/>
<path    d="M12,22c-2,0-4-0.8-5.5-2.4l0.7-0.7c1.3,1.4,3,2.1,4.8,2.1c3.1,0,6.5-2.5,6.5-6.7c0-1-0.4-2.2-1-3.5
	c-0.2-0.4-0.5-0.9-0.7-1.4l0.7-0.7c0.3,0.5,0.6,1.1,0.9,1.6c0.7,1.3,1.1,2.7,1.1,3.9C19.5,19.2,15.6,22,12,22z"/>
<path    d="M12.7,4c0.6,0.7,1.5,1.7,2.3,2.8l0.7-0.7c-0.8-1.1-1.6-2.1-2.2-2.8c-0.3-0.4-0.6-0.7-0.8-0.9
	c-0.1-0.1-0.2-0.2-0.2-0.2l-0.1-0.1l0,0l0,0c0,0-0.2-0.1-0.4-0.1c-0.2,0-0.4,0.1-0.4,0.1l0,0l0,0l-0.1,0.1c-0.1,0.1-0.1,0.1-0.2,0.2
	c-0.2,0.2-0.5,0.5-0.8,0.9C9.9,4.1,9,5.2,8.1,6.4C7.2,7.6,6.3,9,5.6,10.3C5,11.7,4.5,13,4.5,14.3c0,1,0.2,1.9,0.4,2.7l0.8-0.8
	c-0.2-0.6-0.2-1.2-0.2-1.9c0-1,0.4-2.2,1-3.5C7.2,9.5,8,8.2,8.9,7c0.9-1.2,1.7-2.2,2.4-3c0.3-0.3,0.5-0.6,0.7-0.8
	C12.2,3.4,12.4,3.7,12.7,4z"/>
</svg>
