<svg width="24" height="24" viewBox="0 0 24 24" fill="none" xmlns="http://www.w3.org/2000/svg">
<path fill-rule="evenodd" clip-rule="evenodd" d="M16.14 1C16.2726 1 16.3998 1.05268 16.4936 1.14645C16.5873 1.24021 16.64 1.36739 16.64 1.5V2.44C16.64 2.57261 16.5873 2.69979 16.4936 2.79355C16.3998 2.88732 16.2726 2.94 16.14 2.94C16.0074 2.94 15.8802 2.88732 15.7865 2.79355C15.6927 2.69979 15.64 2.57261 15.64 2.44V1.52C15.6373 1.45268 15.6483 1.3855 15.6722 1.32251C15.6961 1.25952 15.7325 1.20201 15.7792 1.15345C15.8259 1.10488 15.8819 1.06625 15.9439 1.03988C16.0059 1.01351 16.0726 0.999946 16.14 1ZM11.31 3C11.4041 2.91356 11.5272 2.8656 11.655 2.8656C11.7828 2.8656 11.9059 2.91356 12 3L12.65 3.66C12.6978 3.70489 12.736 3.75911 12.762 3.81931C12.7881 3.8795 12.8015 3.9444 12.8015 4.01C12.8015 4.0756 12.7881 4.1405 12.762 4.20069C12.736 4.26089 12.6978 4.31511 12.65 4.36C12.6035 4.40686 12.5482 4.44406 12.4873 4.46945C12.4264 4.49483 12.361 4.5079 12.295 4.5079C12.229 4.5079 12.1637 4.49483 12.1027 4.46945C12.0418 4.44406 11.9865 4.40686 11.94 4.36L11.29 3.71C11.2004 3.61227 11.1524 3.48349 11.1561 3.35095C11.1598 3.2184 11.215 3.09253 11.31 3V3ZM20.31 3C20.4041 2.91356 20.5272 2.8656 20.655 2.8656C20.7828 2.8656 20.9059 2.91356 21 3C21.0469 3.04648 21.0841 3.10178 21.1095 3.16271C21.1348 3.22364 21.1479 3.28899 21.1479 3.355C21.1479 3.42101 21.1348 3.48636 21.1095 3.54729C21.0841 3.60822 21.0469 3.66352 21 3.71L20.35 4.36C20.3035 4.40686 20.2482 4.44406 20.1873 4.46945C20.1264 4.49483 20.061 4.5079 19.995 4.5079C19.929 4.5079 19.8637 4.49483 19.8027 4.46945C19.7418 4.44406 19.6865 4.40686 19.64 4.36C19.5922 4.31511 19.5541 4.26089 19.528 4.20069C19.5019 4.1405 19.4885 4.0756 19.4885 4.01C19.4885 3.9444 19.5019 3.8795 19.528 3.81931C19.5541 3.75911 19.5922 3.70489 19.64 3.66L20.31 3ZM9.31002 7.83C9.31002 7.69739 9.3627 7.57021 9.45646 7.47645C9.55023 7.38268 9.67741 7.33 9.81002 7.33H10.74C10.8726 7.33 10.9998 7.38268 11.0936 7.47645C11.1873 7.57021 11.24 7.69739 11.24 7.83C11.24 7.96261 11.1873 8.08979 11.0936 8.18355C10.9998 8.27732 10.8726 8.33 10.74 8.33H9.81002C9.68245 8.33023 9.55961 8.28169 9.46666 8.19431C9.37371 8.10694 9.31767 7.98734 9.31002 7.86V7.83ZM21.55 7.33C21.4174 7.33 21.2902 7.38268 21.1965 7.47645C21.1027 7.57021 21.05 7.69739 21.05 7.83C21.05 7.96261 21.1027 8.08979 21.1965 8.18355C21.2902 8.27732 21.4174 8.33 21.55 8.33H22.48C22.6126 8.33 22.7398 8.27732 22.8336 8.18355C22.9273 8.08979 22.98 7.96261 22.98 7.83C22.98 7.69739 22.9273 7.57021 22.8336 7.47645C22.7398 7.38268 22.6126 7.33 22.48 7.33H21.55ZM15.09 5C15.4238 4.86817 15.7813 4.80688 16.14 4.82C16.5019 4.80778 16.8625 4.86901 17.2 5V5C17.8995 5.27057 18.4722 5.79331 18.8054 6.46522C19.1386 7.13712 19.208 7.90945 19 8.63C18.8985 8.98554 18.815 9.346 18.75 9.71V9.71C18.75 9.78 18.75 9.85 18.75 9.92C18.6964 10.2621 18.6058 10.5974 18.48 10.92C18.3858 11.1619 18.2308 11.3755 18.03 11.54C17.73 11.7378 17.3872 11.8612 17.03 11.9C16.9585 11.9108 16.8902 11.9369 16.8298 11.9766C16.7694 12.0163 16.7183 12.0686 16.68 12.13V9.64C16.68 9.50739 16.6273 9.38021 16.5336 9.28645C16.4398 9.19268 16.3126 9.14 16.18 9.14C16.0482 9.14256 15.9225 9.19606 15.8293 9.28928C15.7361 9.3825 15.6826 9.50819 15.68 9.64V12.12C15.6428 12.0577 15.592 12.0047 15.5314 11.9648C15.4708 11.925 15.4019 11.8994 15.33 11.89C14.9732 11.8494 14.6308 11.7261 14.33 11.53C14.13 11.377 13.9747 11.1733 13.88 10.94C13.7588 10.6159 13.6684 10.2811 13.61 9.94C13.61 9.87 13.61 9.79 13.61 9.72C13.54 9.39 13.46 9.03 13.36 8.66C13.1381 7.94655 13.1904 7.17597 13.5066 6.49904C13.8229 5.82211 14.3804 5.28756 15.07 5V5H15.09ZM14.44 12.76C14.1824 12.6699 13.9398 12.5418 13.72 12.38C13.3728 12.1274 13.1055 11.7802 12.95 11.38C12.7961 11.0064 12.6821 10.6176 12.61 10.22C12.61 10.14 12.61 10.06 12.61 9.98C12.55 9.66 12.48 9.34 12.39 8.98C12.0671 8.01189 12.1264 6.95697 12.5559 6.03118C12.9853 5.10539 13.7524 4.37874 14.7 4C15.1576 3.81729 15.6474 3.72885 16.14 3.74C16.6359 3.72887 17.1289 3.81728 17.59 4C18.5305 4.369 19.2991 5.07619 19.745 5.98276C20.1909 6.88933 20.2819 7.92982 20 8.9C19.9 9.24 19.84 9.57 19.77 9.9C19.77 9.97 19.77 10.05 19.77 10.12C19.7013 10.5237 19.5907 10.9192 19.44 11.3C19.2793 11.6973 19.0131 12.0431 18.67 12.3C18.4484 12.4672 18.2021 12.5987 17.94 12.69C17.9299 12.8156 17.8728 12.9327 17.7801 13.018C17.6874 13.1033 17.566 13.1504 17.44 13.15H15.04C14.9716 13.1614 14.9017 13.1589 14.8342 13.1428C14.7668 13.1267 14.7033 13.0973 14.6474 13.0563C14.5915 13.0154 14.5443 12.9636 14.5087 12.9041C14.4731 12.8446 14.4497 12.7786 14.44 12.71V12.76ZM14.94 14.02C14.8074 14.02 14.6802 14.0727 14.5865 14.1664C14.4927 14.2602 14.44 14.3874 14.44 14.52C14.4426 14.6518 14.4961 14.7775 14.5893 14.8707C14.6825 14.9639 14.8082 15.0174 14.94 15.02H17.34C17.4726 15.02 17.5998 14.9673 17.6936 14.8736C17.7873 14.7798 17.84 14.6526 17.84 14.52C17.84 14.3874 17.7873 14.2602 17.6936 14.1664C17.5998 14.0727 17.4726 14.02 17.34 14.02H14.94ZM15.05 19.63L14.79 16.16C14.44 16.1 14.1 16.02 13.79 15.93L14.08 19.73V19.79C14.0845 19.8172 14.0822 19.845 14.0735 19.8712C14.0648 19.8973 14.0499 19.9209 14.03 19.94C14.0028 19.9774 13.9685 20.009 13.929 20.033C13.8895 20.057 13.8457 20.073 13.8 20.08H4.14002C4.09979 20.0813 4.0597 20.0746 4.02214 20.0601C3.98458 20.0456 3.95032 20.0237 3.92139 19.9957C3.89247 19.9678 3.86947 19.9342 3.85377 19.8972C3.83807 19.8601 3.82999 19.8203 3.83002 19.78V19.71L4.52002 10.43H6.06002V12.53C6.06258 12.6618 6.11608 12.7875 6.2093 12.8807C6.30252 12.9739 6.42821 13.0274 6.56002 13.03C6.69263 13.03 6.8198 12.9773 6.91357 12.8836C7.00734 12.7898 7.06002 12.6626 7.06002 12.53V10.43H8.06002C7.95348 10.1022 7.86666 9.76822 7.80002 9.43H7.06002V8.83C7.0606 8.56974 7.11408 8.31231 7.21723 8.07336C7.32037 7.83441 7.47102 7.61893 7.66002 7.44C7.67091 7.01018 7.71774 6.58202 7.80002 6.16C7.28173 6.38759 6.84107 6.76139 6.53202 7.23563C6.22297 7.70987 6.05893 8.26395 6.06002 8.83V9.38H4.06002C3.93406 9.3796 3.81259 9.42675 3.71989 9.51203C3.62719 9.59731 3.57009 9.71444 3.56002 9.84L2.83002 19.61V19.73C2.84042 20.0705 2.98301 20.3935 3.22757 20.6306C3.47212 20.8676 3.7994 21.0002 4.14002 21H13.91C14.2482 20.9598 14.557 20.7885 14.7702 20.5229C14.9834 20.2574 15.0838 19.9188 15.05 19.58V19.63Z" fill="black"/>
</svg>
