<?xml version="1.0" encoding="UTF-8"?>
<svg id="Camada_1" data-name="Camada 1" xmlns="http://www.w3.org/2000/svg" width="24" height="24" version="1.1" viewBox="0 0 24 24">
  <g display="none">
    <path d="M5.996,20.275c-.137-.007-.264-.073-.35-.18-.106-.105-.161-.251-.15-.4l.89-11.57h2.073v1.73c.006.274.226.495.5.5.276,0,.5-.224.5-.5v-1.73h5.04v1.73c0,.276.224.5.5.5.29.017.535-.21.54-.5v-1.73h2.037l.355,4.627c.023,0,.046,0,.068,0,.333,0,.659.031.974.09l-.408-5.286c-.021-.26-.239-.461-.5-.46h-2.527v-.82c0-1.265-.675-2.433-1.77-3.066-2.36-1.362-5.31.341-5.31,3.066v.82h-2.533c-.261-.001-.479.2-.5.46l-.93,12.07v.11c-.023.844.656,1.54,1.5,1.54h7.897c-.245-.307-.456-.642-.629-1h-7.268ZM9.459,6.275c0-1.14.382-1.93,1.433-2.372,1.752-.737,3.852.432,3.607,2.372v.82h-5.04v-.82Z" fill="#363636" fill-rule="evenodd" stroke-width="0"/>
    <path d="M21.181,14.82c-.844-.844-1.988-1.318-3.182-1.318-.89,0-1.76.264-2.5.758-.74.495-1.317,1.197-1.657,2.019-.341.822-.43,1.727-.256,2.6.174.873.602,1.675,1.232,2.304.629.629,1.431,1.058,2.304,1.232.873.174,1.778.085,2.6-.256.822-.341,1.525-.917,2.02-1.657.495-.74.758-1.61.758-2.5,0-1.193-.474-2.338-1.318-3.182ZM20.745,16.699l-3.084,3.289c-.093.1-.224.157-.36.158s-.268-.054-.363-.152l-1.678-1.73c-.192-.198-.188-.515.011-.707.198-.192.515-.188.707.011l1.313,1.353,2.726-2.907c.189-.201.505-.212.707-.023.201.189.212.505.023.707Z" fill="#363636" fill-rule="evenodd" stroke-width="0"/>
  </g>
  <g>
    <path d="M10.176,11.342c.261-.286.46-.622.585-.989.124-.367.171-.755.137-1.14l-.417-4.752h0s-.004-.048-.004-.048c-.004-.055-.01-.12-.017-.182v-.005c-.025-.199-.096-.653-.309-1.071-.216-.425-.635-.906-1.36-.906h-1.364c-.731,0-1.151.488-1.366.915-.211.42-.281.875-.303,1.073-.006.053-.011.116-.015.163l-.004.049-.407,4.77c-.033.386.015.774.14,1.14.125.366.325.703.587.988.032.035.065.069.099.102h-2.543l.214,8.121v.008s0,0,.5-.03l-.499.03h0s0,.004,0,.004v.006s.002.02.002.02c.001.017.003.039.006.067.006.056.016.133.032.225.032.182.09.432.196.688.205.498.66,1.16,1.562,1.16h5.5c.903,0,1.357-.661,1.562-1.16.105-.256.164-.506.196-.688.016-.092.026-.169.032-.225.003-.028.005-.051.007-.067l.002-.02v-.006s0-.002,0-.002v-.002s-.051-.003-.051-.003c.045.003.051.003.051.003v-.008s.214-8.121.214-8.121h-3.07c.036-.035.07-.071.104-.108ZM12.767,19.57l-.338-.02c.166.01.264.016.338.02ZM6.736,4.539c.003-.034.005-.061.007-.084.003-.036.005-.065.009-.102v-.002c.018-.157.071-.474.203-.737.129-.257.276-.364.472-.364h1.364c.195,0,.34.106.469.359.131.258.186.571.207.738.005.044.008.086.012.137l.005.061.417,4.756c.022.247-.008.497-.088.732-.08.235-.208.451-.375.635-.168.183-.372.33-.599.43-.227.1-.473.152-.721.153-.249,0-.494-.051-.722-.151-.228-.1-.432-.246-.6-.429-.168-.183-.297-.399-.377-.634-.08-.235-.111-.484-.09-.732l.407-4.766ZM11.929,19.525v.003c0,.008-.002.022-.004.041-.004.037-.011.093-.023.16-.024.137-.066.312-.136.481-.145.352-.34.54-.638.54h-5.5c-.297,0-.493-.189-.638-.54-.07-.169-.111-.344-.136-.481-.012-.067-.019-.123-.023-.16-.002-.019-.003-.032-.004-.041v-.003s-.058-2.194-.058-2.194l.062.291c.001.015.003.033.005.055.006.056.016.133.032.225.032.182.09.432.196.688.205.498.66,1.16,1.562,1.16h3.5c.903,0,1.357-.661,1.562-1.16.105-.256.164-.506.196-.688.016-.092.026-.169.032-.225.002-.022.004-.04.005-.055l.062-.291-.058,2.194ZM12.01,12.45l-1.078,5.032-.002.037h0s0,.009,0,.009c0,.008-.002.022-.004.041-.004.037-.011.093-.023.16-.024.137-.066.312-.136.481-.145.352-.34.54-.638.54h-3.5c-.297,0-.493-.189-.638-.54-.07-.169-.111-.344-.136-.481-.012-.067-.019-.123-.023-.16-.002-.019-.003-.032-.004-.041v-.009s-.003-.037-.003-.037l-1.078-5.032h7.263Z" fill="#363636" fill-rule="evenodd" stroke-width="0"/>
    <path d="M20.227,13.498c-.133-.396-.348-.76-.63-1.069-.282-.309-.626-.555-1.008-.724-.151-.066-.306-.12-.464-.161v-4.627c.035-.021.069-.045.101-.07.155-.124.245-.278.298-.404.053-.127.077-.247.088-.33.006-.043.009-.08.011-.107,0-.014.001-.026.002-.035v-.012s0-.005,0-.005v-1.954c0-.332-.132-.649-.366-.884-.234-.234-.552-.366-.884-.366s-.649.132-.884.366c-.234.234-.366.552-.366.884v1.971c0,.009.001.021.002.035.002.028.005.064.011.107.012.083.036.203.088.33.053.126.143.28.298.404.032.026.066.049.101.07v4.627c-.159.041-.315.095-.466.161-.383.169-.727.416-1.01.726-.282.31-.497.675-.63,1.072-.133.397-.181.818-.142,1.235l.443,4.739.004.041c.005.063.012.138.021.211.027.214.107.683.341,1.112.242.443.692.908,1.443.908h1.504c.756,0,1.207-.472,1.448-.918.234-.433.312-.904.337-1.113h0s0,0,0,.001l-.496-.062.496.061c.007-.058.013-.123.018-.175l.005-.055v-.003s.432-4.756.432-4.756c.038-.417-.011-.836-.145-1.233ZM17.124,4c0-.066.026-.13.073-.177.047-.047.11-.073.177-.073s.13.026.177.073c.047.047.073.11.073.177v1.946c0,.005-.001.016-.003.029-.004.026-.01.053-.018.075h-.458c-.008-.022-.014-.049-.018-.075-.002-.013-.003-.024-.003-.029v-.002s0-1.944,0-1.944ZM18.945,19.393h0c-.003.034-.005.062-.008.086-.004.042-.007.076-.012.116h0c-.02.167-.079.492-.225.761-.138.257-.31.393-.568.393h-1.504c-.257,0-.427-.135-.565-.388-.145-.266-.206-.588-.227-.758h0c-.007-.053-.011-.103-.016-.164l-.005-.053-.443-4.743c-.026-.279.006-.559.095-.825.089-.265.232-.509.42-.716s.418-.372.674-.485c.256-.113.533-.171.812-.17h0c.279,0,.555.058.811.17.255.112.485.277.673.483.188.206.332.449.421.714.089.265.122.545.097.823l-.432,4.753Z" fill="#363636" fill-rule="evenodd" stroke-width="0"/>
  </g>
</svg>