<svg xmlns="http://www.w3.org/2000/svg" width="24" height="24.001" viewBox="0 0 24 24.001">
  <g id="outlined-content-world" transform="translate(-1 -1)">
    <path id="outlined-content-world-2" data-name="outlined-content-world" d="M0,12A12,12,0,1,1,12,24,12,12,0,0,1,0,12Zm1.091,0A10.924,10.924,0,0,0,21.6,17.226a3.364,3.364,0,0,1-.414-1.156c-.033-.077-.284-.5-.458-.8a6.789,6.789,0,0,1-.818-1.615,2.291,2.291,0,0,1-.1-.567,3.981,3.981,0,0,0-.251-1.386,3.107,3.107,0,0,0-1.637-.24,9.187,9.187,0,0,1-3.044-1.025c-.709-.469-.85-3.055-.85-3.055a2.747,2.747,0,0,1,.37-1.232l.11-.251c.152-.436.611-.654,2.662-.654a3.957,3.957,0,0,1,2.182,1.429A10.468,10.468,0,0,0,21.2,6.84a1.893,1.893,0,0,0,.458-.132A10.926,10.926,0,0,0,20.28,4.768a2.688,2.688,0,0,1-.73.207h-.164A9.259,9.259,0,0,1,16.615,4.1l-.24-.1-.339.12a2.184,2.184,0,0,1-1.833.153c-.861-.491-.468-1.494-.305-1.92V2.182c.109-.458.589-.622,1.091-.7a10.7,10.7,0,0,0-5.934,0l.087.132a4.517,4.517,0,0,0,.655.152c.993.175,1.941.426,2.018,1.091s-.6,1.189-1.189,1.648a4.166,4.166,0,0,0-.35.284,4.708,4.708,0,0,0-.85,1.6c-.12.688-1.08,1.015-2.3,1.364l-.447.132a4.016,4.016,0,0,1-1.222.185,9.474,9.474,0,0,0-1.091.121,2.317,2.317,0,0,0,.557.85,1.092,1.092,0,0,1,.414.928,1.744,1.744,0,0,1-.709,1.418l-.241.153-.261-.109a6.728,6.728,0,0,1-2.182-1.3,5.125,5.125,0,0,1-.48-.916A10.691,10.691,0,0,0,1.091,12Zm19.222-.938A4.38,4.38,0,0,1,20.892,13a1.241,1.241,0,0,1,.076.48,9.275,9.275,0,0,0,.687,1.277,5.047,5.047,0,0,1,.568,1.091v-.023A10.6,10.6,0,0,0,22.909,12a10.893,10.893,0,0,0-.862-4.308,3.309,3.309,0,0,1-.948.239c-1.091,0-2.455-.12-2.793-.709a3.958,3.958,0,0,0-1.287-.894,7.279,7.279,0,0,0-1.669.174l-.077.175a2,2,0,0,0-.261.764,7.533,7.533,0,0,0,.436,2.182,14.981,14.981,0,0,0,2.247.785s.206-.022.507-.022A2.811,2.811,0,0,1,20.313,11.062ZM1.964,7.637A14.913,14.913,0,0,0,2.847,9.5a6.046,6.046,0,0,0,1.33.753.759.759,0,0,0,.066-.36,2.926,2.926,0,0,1-.971-1.844.809.809,0,0,1,.382-.73,4.277,4.277,0,0,1,1.8-.339,5.707,5.707,0,0,0,.949-.1c.1-.043.316-.1.568-.175a5.365,5.365,0,0,0,1.571-.621A5.383,5.383,0,0,1,9.633,4.015a4.91,4.91,0,0,1,.447-.371,5.994,5.994,0,0,0,.676-.578,10.168,10.168,0,0,0-1.091-.272,3.131,3.131,0,0,1-1.091-.305c-.2-.142-.523-.394-.753-.589A10.974,10.974,0,0,0,1.964,7.637ZM16.549,2.945l.393.164a7.727,7.727,0,0,0,2.367.785,10.965,10.965,0,0,0-2.476-1.68l-.7.218a1.918,1.918,0,0,1-.534.087,4.2,4.2,0,0,0-.775.12v.109a3.1,3.1,0,0,0-.153.612,3.284,3.284,0,0,0,.905-.251,1.575,1.575,0,0,1,.971-.164ZM9.327,22.179a1.831,1.831,0,0,1-1.091-.916,7.8,7.8,0,0,1-.731-2.182,7.962,7.962,0,0,1,.066-1.092,9.56,9.56,0,0,0,0-2.344,3.923,3.923,0,0,0-.687-.076,1.538,1.538,0,0,1-1.233-.416A6.07,6.07,0,0,1,4.56,12.491c.044-.643,1.593-2.673,2.356-2.673.48,0,.721.448.982.841a1.992,1.992,0,0,0,.36.534,5.282,5.282,0,0,0,.993-.076,3.918,3.918,0,0,1,1.669,0c.425.175.753.764,1.091,1.385.1.186.241.448.339.59h.174c.36-.121,1.189-.306,1.506.414a3.274,3.274,0,0,1-.622,2.858,5.371,5.371,0,0,0-1.243,1.648A1.79,1.79,0,0,1,11.5,19.1a1.812,1.812,0,0,0-.251.261,2.5,2.5,0,0,1-.349.394c-.262.207-.262.272-.262.4a8.874,8.874,0,0,1-.175,1.483v.218l-.174.12a1.091,1.091,0,0,1-.633.2q-.082.008-.163.008T9.327,22.179Zm-.928-7.2c.328.436.328,1.309.121,3.109a8.389,8.389,0,0,0,0,.861,7.254,7.254,0,0,0,.611,1.778.786.786,0,0,0,.305.339,5.921,5.921,0,0,0,.087-.884A1.569,1.569,0,0,1,10.113,19a1.828,1.828,0,0,0,.207-.23,2.569,2.569,0,0,1,.4-.436c.164-.164.338-.316.338-.448.066-.895,1.647-2.28,1.647-2.28v-.043a2.686,2.686,0,0,0,.273-1.385H12.7a1.6,1.6,0,0,1-.72.054c-.4-.054-.633-.512-.982-1.145a4.192,4.192,0,0,0-.578-.906,5.977,5.977,0,0,0-1.091.077,4.528,4.528,0,0,1-1.364,0,1.915,1.915,0,0,1-1.091-1.091l-.087-.131A5.812,5.812,0,0,0,5.6,12.589a6.231,6.231,0,0,0,.839,1.888h.48c.049,0,.1-.005.146-.005A2.017,2.017,0,0,1,8.4,14.979Z" transform="translate(1 1)" fill="#1c120e"/>
  </g>
</svg>
