<svg xmlns="http://www.w3.org/2000/svg" viewBox="0 0 24 24"><circle cx="8.6" cy="12.8" r="1"/><circle cx="15.4" cy="12.8" r="1"/><path d="M9.2 16.9c-.1.1-.1.2 0 .4.1.1.2.1.4 0 .1-.1 2.3-1.8 5.1 0h.1c.1 0 .2 0 .2-.1.1-.1 0-.3-.1-.3-3.1-2-5.7 0-5.7 0z"/><path d="M19.4 7.7c0-.3-.3-.6-.6-.6H16v-.7c-.1-2-1.7-3.6-3.8-3.8h-.6C9.7 2.8 8.1 4.4 8 6.4v.7H5.2c-.3 0-.6.3-.6.6l-1 11.9v.2c0 .4.2.8.5 1.1s.7.5 1.2.4h13.5c.4 0 .9-.1 1.2-.4s.5-.7.5-1.1v-.2L19.4 7.7zM9.3 6.4c.1-.7.4-1.4 1-1.9.5-.4 1.1-.6 1.8-.6.6 0 1.3.2 1.8.6.6.5.9 1.1 1 1.9v.8H9.3v-.8zM18.7 20H5.3c-.4 0-.5-.2-.5-.3l1-11.2H8v1.8c0 .4.3.7.6.7s.6-.3.6-.7V8.4h5.5v1.8c0 .4.3.7.6.7.4 0 .6-.3.6-.7V8.4h2.2l1 11.2c.1.2 0 .4-.4.4z"/></svg>