<?xml version="1.0" encoding="UTF-8"?>
<svg xmlns="http://www.w3.org/2000/svg" width="24" height="24" version="1.1" viewBox="0 0 24 24">

      <path class="cls-1" d="M12,1C5.935,1,1,5.935,1,12c0,2.004.547,3.879,1.488,5.499.01.018.012.039.025.056.006.009.016.013.022.021,1.916,3.24,5.436,5.424,9.466,5.424,6.065,0,11-4.935,11-11S18.065,1,12,1ZM12,2c4.749,0,8.728,3.331,9.742,7.777-.231-.315-.45-.654-.672-1.005-.675-1.068-1.373-2.174-2.641-2.704-.044-.018-.09-.03-.137-.035-1.548-.183-2.551,1.406-3.445,2.802-.451.704-.877,1.369-1.329,1.741-.164.161-.588.521-.923.421-.926-.407-1.489-1.307-2.085-2.26-.653-1.045-1.329-2.126-2.549-2.653-.031-.013-.063-.023-.096-.03-1.523-.323-2.517,1.213-3.479,2.695-.93,1.433-1.585,2.334-2.332,2.211C2.577,5.932,6.837,2,12,2ZM2.001,11.977c1.369.173,2.348-1.333,3.225-2.684.765-1.177,1.566-2.388,2.389-2.27.904.414,1.46,1.303,2.048,2.243.65,1.04,1.322,2.114,2.584,2.665.148.046.302.068.457.068.507,0,1.033-.24,1.48-.68.542-.442,1.01-1.173,1.505-1.946.754-1.176,1.543-2.382,2.424-2.353.936.423,1.507,1.328,2.111,2.285.492.779,1.01,1.573,1.749,2.167.009.176.027.349.027.527,0,1.163-.21,2.276-.577,3.316-.014-.021-.027-.04-.041-.062l.003-.003-.004.002c-.033-.05-.067-.101-.101-.153h.001s-.002,0-.002,0c-.049-.075-.097-.149-.147-.225-.357-.549-.766-1.174-1.222-1.702-.012-.015-.03-.036-.031-.037-.004-.004-.113-.13-.116-.134-.003-.003-.111-.119-.114-.122-.005-.005-.113-.116-.118-.121s-.115-.108-.12-.113-.116-.101-.122-.105c-.007-.006-.12-.096-.128-.102-.007-.005-.118-.085-.126-.09-.007-.005-.12-.074-.128-.079-.011-.006-.127-.069-.138-.074-.012-.006-.129-.059-.141-.063-.014-.005-.132-.049-.146-.053-.013-.004-.132-.035-.146-.038-.007-.002-.117-.022-.124-.023-.018-.003-.089-.011-.107-.012-.014,0-.12-.005-.147-.005,0,0-.007,0-.008,0-.01,0-.021.001-.031.002-.036.002-.084.005-.088.005-.019.002-.09.01-.108.014-.002,0-.02.004-.03.006-.022.004-.045.008-.067.013-.015.003-.036.007-.039.008-.014.004-.133.038-.146.043-.005.002-.03.011-.053.02-.006.002-.012.003-.018.005-.004.001-.006.004-.01.005-.028.01-.056.021-.061.023-.012.005-.128.061-.139.066-.009.004-.122.067-.13.072-.006.004-.057.037-.094.06-.004.003-.008.005-.011.007-.009.006-.025.016-.027.017-.006.005-.118.086-.124.091-.008.006-.12.096-.127.102-.003.003-.052.045-.086.076-.008.007-.016.014-.024.021-.002.002-.011.009-.011.01-.004.004-.113.109-.117.113s-.112.115-.115.118c-.002.002-.051.055-.083.091-.002.002-.004.005-.007.007-.008.009-.024.026-.024.027-.004.004-.112.129-.116.133-.002.003-.11.133-.112.136,0,.001-.023.03-.044.056-.003.004-.006.007-.01.011-.002.003-.004.005-.006.008-.026.033-.052.066-.053.067,0,0-.105.139-.106.14,0,.002-.107.146-.109.147,0,.003-.108.15-.11.153,0,0-.107.152-.108.154l.011.011c-.034.049-.069.096-.103.145l-.012-.005s-.106.155-.107.156c0,0-.106.157-.106.158l-.13.193c-.004.005-.007.01-.011.016l-.617.889c-.163.228-.319.438-.472.627l-.003-.002.002.003c-.03.037-.06.071-.089.105l-.004-.003.003.004c-.03.036-.061.074-.091.107l-.008-.006.006.008c-.03.033-.06.061-.09.092l-.008-.006.006.008c-.03.031-.06.063-.089.091l-.011-.009.008.012c-.028.026-.055.047-.083.071l-.009-.009.007.011c-.027.023-.054.045-.08.065l-.009-.01.007.012c-.027.02-.054.042-.081.06l-.01-.011.006.013c-.039.026-.078.046-.117.066l-.007-.008.004.01c-.036.019-.072.035-.109.049l-.003-.005v.006c-.042.016-.085.029-.128.038h0s0,0,0,0c-.085.017-.171.025-.259.012-.285-.068-.532-.246-.76-.472l.002-.002-.002.002c-.215-.214-.414-.472-.608-.727l-.08-.104h0s0,0,0,0l-.002-.003c-.234-.315-.452-.645-.67-.974l-.053-.08h0c-.156-.236-.318-.473-.484-.708-.025-.036-.051-.072-.051-.073,0,0-.012-.017-.017-.023-.058-.081-.116-.161-.176-.241-.009-.012-.025-.033-.025-.034-.002-.003-.11-.144-.112-.146-.001-.002-.108-.136-.109-.138-.002-.003-.11-.133-.113-.136-.003-.004-.112-.13-.116-.134-.003-.003-.111-.119-.114-.122-.004-.004-.113-.115-.117-.119-.005-.004-.077-.073-.104-.099h0s0,0,0,0c-.005-.004-.017-.016-.018-.017-.005-.005-.116-.101-.122-.105-.008-.006-.12-.096-.128-.102,0,0-.012-.009-.016-.011-.091-.069-.183-.126-.276-.178-.017-.01-.025-.014-.045-.025-.087-.046-.174-.087-.263-.118-.035-.013-.07-.026-.078-.028-.014-.004-.133-.036-.148-.039-.002,0-.024-.004-.043-.008-.019-.003-.038-.008-.058-.011-.006-.001-.02-.004-.021-.004-.019-.003-.089-.011-.108-.012-.015,0-.121-.005-.147-.005-.018-.002-.121.007-.128.007-.018.002-.089.01-.106.014-.012.002-.129.024-.14.027-.014.004-.132.038-.146.043-.005.002-.116.043-.121.045-.015.006-.083.035-.097.043-.008.004-.121.062-.129.067-.01.006-.125.074-.134.08-.007.005-.119.082-.125.087-.006.004-.118.089-.124.094s-.118.099-.124.104c-.004.004-.114.104-.118.108-.004.005-.114.113-.119.118-.004.004-.113.119-.117.123-.001.002-.025.028-.046.052-.025.028-.049.056-.074.084-.014.016-.101.121-.103.122-.001.001-.023.029-.042.052-.062.076-.122.151-.181.229,0,0-.002.003-.002.003-.001.002-.108.144-.109.146l-.005.007c-.036.05-.073.099-.108.149-.012.017-.05.07-.052.072h0c-.035.05-.07.099-.104.149h0s-.017.024-.036.051c-.004.006-.009.012-.013.018-.004.005-.007.011-.011.016-.025.036-.048.069-.048.07,0,0-.106.155-.106.156,0,0-.107.157-.107.158l-.052.078c-.075.112-.153.221-.227.335-.067.102-.134.201-.201.302l-.044.064h0c-.033.05-.066.101-.099.149l-.003-.002.003.003c-.033.049-.068.095-.102.143h-.003s.002,0,.002,0c-.034.048-.069.094-.103.141h-.002s.001,0,.001,0c-.033.045-.065.091-.099.135h-.002s.002,0,.002,0c-.033.043-.063.09-.097.132l-.006-.003.004.005c-.144.182-.296.351-.458.508-.682-1.351-1.075-2.871-1.075-4.485,0-.008.001-.016.001-.023ZM12,22c-3.531,0-6.633-1.844-8.413-4.615.018-.016.04-.035.042-.036.004-.005.114-.108.119-.113.003-.003.112-.114.115-.117.004-.005.114-.122.119-.127.002-.003.109-.126.111-.129s.11-.133.112-.136h0c.251-.304.477-.622.692-.945.031-.045.069-.1.069-.101l.105-.156s.106-.157.107-.158.106-.158.106-.159h0c.119-.179.235-.358.364-.536.015-.022.034-.048.049-.071h0s0,0,0,0c.032-.047.065-.094.101-.146h0s0,0,0,0c.032-.046.068-.094.102-.143h.002s-.001,0-.001,0c.033-.046.064-.09.099-.137l.003.002-.002-.003c.032-.042.066-.085.099-.128h.002s-.002,0-.002,0c.032-.041.062-.082.095-.123l.003.002-.002-.003c.033-.04.068-.079.102-.119h0s0,0,0,0c.032-.038.063-.076.096-.112h.002s-.001,0-.001,0c.318-.353.674-.647,1.018-.68.134-.012.272.021.415.093v.004s.001-.003.001-.003c.039.02.08.045.12.072v.004s.001-.003.001-.003c.028.018.055.038.084.059l-.002.003.003-.002c.056.044.113.089.171.146.289.277.543.585.785.912h-.001s.001,0,.001,0c.226.306.442.629.662.962.02.03.042.059.061.089h0s.106.161.107.162l.004-.002c.034.051.07.101.105.152l-.004.004s.107.156.108.158.107.155.109.157c0,.002.107.153.108.155,0,0,.107.147.107.148,0,0,.002.002.002.002.002.002.003.005.005.007l.008.011c.023.032.094.127.096.13.001.002.108.142.11.144.003.003.111.141.114.145.002.002.108.131.11.133.002.003.11.127.113.131.004.004.113.123.117.127.004.005.114.117.119.122.003.003.081.077.104.099h0s.013.013.014.013c.006.006.117.104.123.108.005.004.116.093.122.097.007.006.12.087.127.092.009.006.124.079.134.085.008.005.122.068.131.072.006.003.116.056.122.058.013.007.079.032.093.037.005.002.116.039.121.04.017.006.086.023.104.027.002,0,.047.009.08.015.001,0,.003.001.004.002.002,0,.005,0,.007,0,.008.001.023.004.023.004.018.004.089.012.106.014.016,0,.131.007.15.007h0c.016,0,.136-.005.151-.007.015-.002.135-.019.149-.021s.134-.03.147-.034.132-.043.146-.048c.012-.005.128-.053.14-.059.001,0,.011-.006.015-.007.017-.008.034-.017.051-.025.033-.017.067-.034.072-.037.002,0,.109-.063.111-.065.007-.003.028-.017.048-.03.39-.248.719-.603,1.002-.967.014-.017.033-.041.034-.041.002-.002.109-.14.112-.143,0-.002.107-.144.109-.146,0,0,.107-.146.109-.148,0-.002.106-.15.107-.152s.108-.153.109-.155l.105-.153s.106-.157.106-.158l.19-.283.041-.058c.291-.436.582-.872.901-1.276.326-.402.652-.776,1.058-.938.386-.153.815.124,1.238.571h-.001s.001,0,.001,0c.032.034.065.065.097.101l-.004.004.005-.003c.032.036.064.078.096.116l-.002.003.003-.002c.034.04.068.08.101.122l-.004.004.005-.003c.033.041.066.077.099.118l-.007.007.009-.005c.034.044.066.091.1.136l-.006.007.008-.004c.034.045.067.09.1.136l-.007.007.009-.004c.034.047.068.091.102.139l-.008.008.01-.005c.033.046.064.093.096.14l-.007.007s.055.081.056.083l.009-.004c.033.049.067.098.099.146l-.006.006.105.156.007-.003c.034.052.067.102.1.154l-.004.004.105.157h.003c.016.023.033.049.049.073.019.03.035.053.054.082h-.001s.083.124.101.15c.185.283.359.529.522.742-1.63,3.315-5.033,5.607-8.97,5.607Z"/>

</svg>