<?xml version="1.0" encoding="UTF-8"?>
<svg xmlns="http://www.w3.org/2000/svg" width="24" height="24" version="1.1" viewBox="0 0 24 24">

        <path  d="M21.658,7.909c-.609-2.05-1.989-3.785-3.851-4.838-1.862-1.053-4.059-1.343-6.13-.809-2.071.534-3.854,1.851-4.974,3.673-.145.235-.071.543.164.688.235.145.543.071.688-.164.984-1.602,2.551-2.759,4.372-3.228,1.82-.47,3.752-.215,5.388.711,1.636.926,2.849,2.45,3.385,4.252.535,1.802.35,3.742-.516,5.41-.127.245-.032.547.214.674.245.127.547.032.674-.214.985-1.898,1.195-4.105.587-6.155Z"/>
        <path  d="M4.647,14.227c1.511.531,3.573.794,5.849.816.276.003.502-.219.505-.495.003-.276-.219-.502-.495-.505-2.224-.021-4.162-.279-5.526-.759-1.411-.496-1.978-1.134-1.978-1.784s.567-1.287,1.977-1.778c1.363-.474,3.301-.722,5.523-.722,2.2,0,4.005.367,5.24.897.619.265,1.074.562,1.367.855.293.293.393.548.393.748,0,.276.224.5.5.5s.5-.224.5-.5c0-.55-.276-1.045-.685-1.455s-.987-.77-1.68-1.067c-1.389-.595-3.335-.978-5.635-.978-2.277,0-4.34.252-5.852.778-1.466.51-2.648,1.371-2.648,2.722v7c0,.757.271,1.384.764,1.877.479.479,1.143.807,1.903,1.039,1.515.461,3.581.584,5.833.584.276,0,.5-.224.5-.5s-.224-.5-.5-.5c-2.248,0-4.182-.127-5.542-.541-.677-.206-1.169-.471-1.487-.789-.304-.304-.471-.677-.471-1.17v-5.129c.452.356,1.024.637,1.647.856Z"/>
        <path  d="M19.348,16.772c-.124-.115-.261-.214-.409-.293.065-.135.115-.277.15-.424.061-.259.071-.527.03-.79-.041-.263-.132-.515-.268-.743-.136-.228-.316-.427-.528-.584-.212-.158-.454-.272-.711-.335-.257-.063-.523-.074-.784-.031-.261.042-.511.137-.735.278-.118.074-.228.161-.328.257-.099-.102-.209-.194-.328-.273-.225-.15-.478-.253-.744-.301-.266-.048-.539-.041-.802.021-.263.062-.511.177-.728.339-.217.161-.4.365-.538.599-.137.234-.227.493-.265.762-.037.269-.021.543.047.806.038.146.092.288.161.421-.146.078-.282.175-.405.287-.212.194-.38.431-.494.695-.114.264-.171.55-.169.838.003.288.065.573.184.835s.292.496.507.686c.216.19.469.331.744.414s.563.104.847.063h.002c.004.024.008.049.013.073.061.303.189.588.375.834.186.246.425.446.7.584.275.138.578.21.885.21s.61-.072.885-.21c.275-.138.514-.338.7-.584.186-.246.314-.531.374-.834.005-.026.01-.053.014-.08h.002c.282.039.569.016.842-.067.273-.083.524-.224.738-.414.214-.189.385-.422.503-.682s.181-.543.184-.83c.003-.286-.053-.57-.165-.833-.112-.263-.278-.5-.487-.694ZM18.905,18.715c-.061.134-.148.252-.255.347-.107.095-.232.165-.367.206-.134.041-.275.052-.413.033-.138-.019-.272-.068-.392-.145-.173-.11-.395-.104-.562.016-.166.12-.242.329-.192.528.039.155.043.317.012.473-.031.157-.097.303-.192.428-.094.125-.215.225-.351.294-.136.069-.286.104-.436.104s-.3-.035-.436-.104c-.136-.069-.257-.169-.351-.294-.095-.125-.16-.271-.192-.428-.031-.157-.027-.319.012-.473.05-.2-.026-.41-.194-.529-.167-.12-.391-.125-.564-.013-.12.078-.254.128-.393.149-.139.02-.281.01-.416-.031-.135-.041-.262-.11-.37-.206-.108-.096-.196-.214-.257-.349-.061-.135-.094-.281-.095-.431-.001-.149.029-.297.087-.433.059-.136.145-.256.251-.354.106-.097.231-.17.365-.213.077-.024.156-.039.236-.044.204-.013.379-.149.443-.343s.003-.408-.154-.539c-.062-.052-.118-.112-.166-.178l-.007-.009c-.083-.11-.145-.236-.18-.372-.035-.136-.044-.278-.025-.417s.066-.273.136-.392c.07-.12.163-.222.272-.303.109-.081.232-.138.361-.168.13-.03.263-.034.394-.01.131.024.256.074.369.149.112.075.21.173.286.288l.008.012c.046.066.085.139.114.216.073.195.26.324.468.324s.395-.129.468-.324c.029-.076.067-.148.112-.214.078-.109.175-.201.287-.271.112-.07.235-.117.364-.138.128-.021.259-.016.386.016.126.031.246.087.353.167.106.079.197.18.267.296.07.116.117.246.138.382.021.136.016.275-.016.408-.031.133-.087.257-.164.367-.048.066-.103.125-.164.176-.157.131-.218.345-.154.539.064.194.239.33.443.343.08.005.159.02.236.044.013.004.026.008.039.011.116.045.224.112.317.199.105.098.19.218.247.353.058.135.087.282.085.43-.002.148-.034.294-.095.428Z"/>

</svg>