<?xml version="1.0" encoding="UTF-8"?>
<svg xmlns="http://www.w3.org/2000/svg" width="24" height="24" version="1.1" viewBox="0 0 24 24">

        <path  d="M6.5,7c1.657,0,3-1.343,3-3s-1.343-3-3-3-3,1.343-3,3,1.343,3,3,3ZM6.5,2c1.105,0,2,.895,2,2s-.895,2-2,2-2-.895-2-2,.895-2,2-2Z"/>
        <path  d="M18.5,8c.828,0,1.5.672,1.5,1.5,0,.276.224.5.5.5s.5-.224.5-.5c0-1.381-1.119-2.5-2.5-2.5-.276,0-.5.224-.5.5s.224.5.5.5Z"/>
        <path  d="M19,13c2.209,0,4-1.791,4-4s-1.791-4-4-4-4,1.791-4,4,1.791,4,4,4ZM19,6c1.657,0,3,1.343,3,3s-1.343,3-3,3-3-1.343-3-3,1.343-3,3-3Z"/>
        <path  d="M8,12c-.276,0-.5.224-.5.5s.224.5.5.5c1.657,0,3,1.343,3,3,0,.276.224.5.5.5s.5-.224.5-.5c0-2.209-1.791-4-4-4Z"/>
        <path  d="M8,9c-3.866,0-7,3.134-7,7s3.134,7,7,7,7-3.134,7-7-3.134-7-7-7ZM8,22c-3.314,0-6-2.686-6-6s2.686-6,6-6,6,2.686,6,6-2.686,6-6,6Z"/>
        <path  d="M13,3.5c.552,0,1,.448,1,1,0,.276.224.5.5.5s.5-.224.5-.5c0-.552.448-1,1-1,.276,0,.5-.224.5-.5s-.224-.5-.5-.5c-.552,0-1-.448-1-1,0-.276-.224-.5-.5-.5s-.5.224-.5.5c0,.552-.448,1-1,1-.276,0-.5.224-.5.5s.224.5.5.5Z"/>
        <path  d="M21.25,17.25c-.828,0-1.5-.672-1.5-1.5,0-.414-.336-.75-.75-.75s-.75.336-.75.75c0,.828-.672,1.5-1.5,1.5-.414,0-.75.336-.75.75s.336.75.75.75c.828,0,1.5.672,1.5,1.5,0,.414.336.75.75.75s.75-.336.75-.75c0-.828.672-1.5,1.5-1.5.414,0,.75-.336.75-.75s-.336-.75-.75-.75Z"/>

</svg>