<?xml version="1.0" encoding="UTF-8"?>
<svg id="Camada_1" xmlns="http://www.w3.org/2000/svg" width="24" height="24" version="1.1" viewBox="0 0 24 24">
  <!-- Generator: Adobe Illustrator 29.2.1, SVG Export Plug-In . SVG Version: 2.1.0 Build 116)  -->
  <path d="M4.5,12c.276,0,.5-.224.5-.5v-1.5h6.5c.276,0,.5-.224.5-.5V3h6.5c.827,0,1.5.673,1.5,1.5v7c0,.276.224.5.5.5s.5-.224.5-.5v-7c0-1.378-1.121-2.5-2.5-2.5h-6.921c-.018,0-.035.005-.053.005-.009,0-.017-.005-.026-.005-.026,0-.049.011-.074.015-.61.037-1.18.282-1.615.718l-5.078,5.078c-.436.436-.681,1.006-.718,1.615-.004.025-.015.048-.015.074,0,.009.005.017.005.026,0,.018-.005.035-.005.053v1.921c0,.276.224.5.5.5ZM5.439,8.518l5.078-5.078c.141-.14.304-.249.482-.324v5.884h-5.884c.074-.178.183-.342.324-.482Z" fill="#363636"/>
  <path d="M5,15h-2.5c-.276,0-.5.224-.5.5v7c0,.276.224.5.5.5s.5-.224.5-.5v-1.5h2c1.654,0,3-1.346,3-3s-1.346-3-3-3ZM5,20h-2v-4h2c1.103,0,2,.897,2,2s-.897,2-2,2Z" fill="#363636"/>
  <path d="M12,15h-1.5c-.276,0-.5.224-.5.5v7c0,.276.224.5.5.5h1.5c2.206,0,4-1.794,4-4s-1.794-4-4-4ZM12,22h-1v-6h1c1.654,0,3,1.346,3,3s-1.346,3-3,3Z" fill="#363636"/>
  <path d="M22.5,15h-4c-.276,0-.5.224-.5.5v7c0,.276.224.5.5.5s.5-.224.5-.5v-3h2.5c.276,0,.5-.224.5-.5s-.224-.5-.5-.5h-2.5v-2.5h3.5c.276,0,.5-.224.5-.5s-.224-.5-.5-.5Z" fill="#363636"/>
</svg>