<svg xmlns="http://www.w3.org/2000/svg" width="24" height="24" viewBox="0 0 24 24">
  <g id="Create-Here">
    <g>
      <rect width="24" height="24" style="fill: none"/>
      <g>
        <path d="M14.39,17.41a.34.34,0,0,0,0-.1s0,0,0-.08a.36.36,0,0,0,0-.09l-.07-.06L14.16,17l-.09,0S14,17,14,17h0a8.29,8.29,0,0,1-4.45-2.48A8.18,8.18,0,0,1,7.05,10h0l0-.08a.3.3,0,0,0,0-.1l0-.05a.81.81,0,0,0-.09-.1h0l-.14-.07H6.62a.29.29,0,0,0-.13,0h0a7.11,7.11,0,0,0-4,2.05.51.51,0,0,0,0,.71.52.52,0,0,0,.71,0,6,6,0,0,1,3-1.67,6.51,6.51,0,0,0,.47,1.39A7.47,7.47,0,0,0,3,14.44a.5.5,0,0,0,.37.83.52.52,0,0,0,.38-.17A6.68,6.68,0,0,1,7.1,13a9.83,9.83,0,0,0,.75,1.11,17.33,17.33,0,0,0-3.14,2.65.5.5,0,0,0,.36.85.47.47,0,0,0,.35-.15A16.68,16.68,0,0,1,8.5,14.85l.31.33.33.31a16,16,0,0,1-2.59,3.08.51.51,0,0,0,0,.71.51.51,0,0,0,.36.15.52.52,0,0,0,.35-.14,17.4,17.4,0,0,0,2.66-3.14,11.84,11.84,0,0,0,1.1.75,6.59,6.59,0,0,1-2.12,3.33.5.5,0,0,0,0,.7.52.52,0,0,0,.38.17A.54.54,0,0,0,9.56,21a7.54,7.54,0,0,0,2.35-3.61,8.13,8.13,0,0,0,1.39.47,6.11,6.11,0,0,1-1.66,3,.5.5,0,0,0,.35.85.51.51,0,0,0,.36-.15,7.09,7.09,0,0,0,2.05-4h0S14.39,17.44,14.39,17.41Z"/>
        <path d="M21.54,11.64a.51.51,0,0,0-.71,0,6,6,0,0,1-3,1.67,6.51,6.51,0,0,0-.47-1.39A7.47,7.47,0,0,0,21,9.56a.5.5,0,0,0-.75-.66A6.61,6.61,0,0,1,16.89,11a9.83,9.83,0,0,0-.75-1.11,17.33,17.33,0,0,0,3.14-2.65.5.5,0,0,0,0-.71.5.5,0,0,0-.71,0,16.31,16.31,0,0,1-3.07,2.59l-.31-.33-.33-.31a16,16,0,0,1,2.59-3.08.51.51,0,0,0,0-.71.5.5,0,0,0-.71,0,17.4,17.4,0,0,0-2.66,3.14A11.84,11.84,0,0,0,13,7.1,6.59,6.59,0,0,1,15.1,3.77.5.5,0,0,0,14.43,3a7.54,7.54,0,0,0-2.35,3.61,8.13,8.13,0,0,0-1.39-.47,6.11,6.11,0,0,1,1.66-3,.49.49,0,0,0-.7-.7,7,7,0,0,0-2.06,4h0s0,.06,0,.08a.49.49,0,0,0,0,.12.21.21,0,0,0,0,.07l0,.1.06.06L9.83,7l.09,0a.29.29,0,0,0,.1,0h0a8.29,8.29,0,0,1,4.45,2.48A8.18,8.18,0,0,1,16.94,14h0a.49.49,0,0,0,.06.17l0,0a.39.39,0,0,0,.08.1l.06,0,.1.05h.08l.08,0h.07a7.11,7.11,0,0,0,4-2.05A.51.51,0,0,0,21.54,11.64Z"/>
      </g>
    </g>
  </g>
</svg>
