<?xml version="1.0" encoding="UTF-8"?>
<svg id="Camada_1" data-name="Camada 1" xmlns="http://www.w3.org/2000/svg" width="24" height="24" version="1.1" viewBox="0 0 24 24">
  <path d="M22.794,9.797c-.436-2.132-1.494-4.086-3.041-5.617-1.02-1.027-2.236-1.838-3.576-2.384-1.34-.546-2.777-.817-4.224-.796-1.445.004-2.874.292-4.207.849s-2.544,1.37-3.562,2.394C2.126,6.312.975,9.113.983,12.031c.008,2.917,1.174,5.712,3.243,7.769s4.87,3.209,7.787,3.201h.06c2.176-.011,4.3-.667,6.103-1.885,1.803-1.218,3.204-2.944,4.026-4.958s1.028-4.228.592-6.36ZM19.127,19.054c-1.871,1.88-4.412,2.94-7.064,2.947h-.05c-2.652,0-5.196-1.054-7.071-2.929-1.875-1.875-2.929-4.419-2.929-7.071s1.054-5.196,2.929-7.071,4.419-2.929,7.071-2.929c2.652-.007,5.198,1.041,7.078,2.911,1.88,1.871,2.94,4.412,2.947,7.064s-1.041,5.198-2.911,7.078Z" fill="#363636" stroke-width="0"/>
  <path d="M17.393,16.621l-4.67-4.62,4.62-4.68c.047-.046.083-.1.109-.16.025-.06.038-.125.038-.19s-.013-.13-.038-.19c-.025-.06-.062-.115-.109-.16-.045-.048-.099-.086-.159-.112s-.125-.039-.191-.039-.13.013-.191.039-.114.064-.159.112l-4.63,4.67-4.68-4.62c-.096-.081-.22-.123-.345-.118-.126.006-.245.059-.333.148-.088.09-.14.209-.144.335s.04.249.122.344l4.67,4.62-4.62,4.68c-.047.046-.084.1-.109.16-.025.06-.038.125-.038.19s.013.13.038.19c.025.06.062.115.109.16.045.048.099.086.159.112.06.026.125.039.191.038.065,0,.13-.014.19-.04.06-.026.114-.063.16-.11l4.63-4.67,4.68,4.62c.094.091.22.141.35.14.065,0,.13-.014.19-.04.06-.026.115-.063.16-.11.047-.046.083-.1.109-.16.025-.06.038-.125.038-.19s-.013-.13-.038-.19c-.025-.06-.062-.115-.109-.16Z" fill="#363636" stroke-width="0"/>
</svg>