<svg xmlns="http://www.w3.org/2000/svg" width="24" height="24" viewBox="0 0 24 24"><defs><style>.a{fill:none;}</style></defs><path class="a" d="M18.85,1.89a.21.21,0,0,0-.12,0L16.57,3.46a.51.51,0,0,1-.63,0L14.25,2A.18.18,0,0,0,14,2L12.34,3.4a.5.5,0,0,1-.66,0L10,2a.21.21,0,0,0-.26,0L8.1,3.43a.51.51,0,0,1-.63,0L5.35,2a.18.18,0,0,0-.14,0,.2.2,0,0,0-.2.19V21.43a.47.47,0,0,0,.19.41l.12-.05,2.12-1.5a.47.47,0,0,1,.3-.1.55.55,0,0,1,.34.13l1.71,1.5a.2.2,0,0,0,.26,0l1.63-1.4a.51.51,0,0,1,.66,0l1.71,1.4a.2.2,0,0,0,.27,0L16,20.36a.53.53,0,0,1,.63,0l2.06,1.46a.24.24,0,0,0,.27,0s0-.15,0-.38V2.31c0-.3,0-.37,0-.38ZM15.73,16.23H8.22a.5.5,0,0,1-.5-.5.5.5,0,0,1,.5-.5h7.51a.5.5,0,0,1,.5.5A.5.5,0,0,1,15.73,16.23Zm0-3.81H8.22a.5.5,0,0,1-.5-.5.5.5,0,0,1,.5-.5h7.51a.5.5,0,0,1,.5.5A.5.5,0,0,1,15.73,12.42Zm0-3.83H8.22a.5.5,0,0,1-.5-.5.5.5,0,0,1,.5-.5h7.51a.5.5,0,0,1,.5.5A.5.5,0,0,1,15.73,8.59Z"/><path d="M20,21.38V2.31A1.24,1.24,0,0,0,19.24.94a1,1,0,0,0-.37-.08h0a1.15,1.15,0,0,0-.75.26L16.31,2.39,14.9,1.18a1.26,1.26,0,0,0-1.51,0L12,2.33,10.71,1.2a1.24,1.24,0,0,0-1.6,0L7.74,2.39,6,1.13A1.14,1.14,0,0,0,5.1.9,1.21,1.21,0,0,0,4,2.1V21.43a1.47,1.47,0,0,0,.77,1.34,1.06,1.06,0,0,0,1.15-.15L7.7,21.36,9.12,22.6a1.25,1.25,0,0,0,.8.29,1.29,1.29,0,0,0,.8-.29L12,21.47l1.37,1.13a1.21,1.21,0,0,0,1.59,0l1.39-1.19,1.73,1.23a1.28,1.28,0,0,0,1.46,0A1.35,1.35,0,0,0,20,21.38Zm-1,0c0,.23,0,.36,0,.38a.24.24,0,0,1-.27,0l-2.06-1.46a.53.53,0,0,0-.63,0l-1.68,1.45a.2.2,0,0,1-.27,0l-1.71-1.4a.51.51,0,0,0-.66,0l-1.63,1.4a.2.2,0,0,1-.26,0l-1.71-1.5a.55.55,0,0,0-.34-.13.47.47,0,0,0-.3.1l-2.12,1.5-.12.05A.47.47,0,0,1,5,21.43V2.11a.2.2,0,0,1,.2-.19.18.18,0,0,1,.14,0l2.12,1.5a.51.51,0,0,0,.63,0L9.78,2A.21.21,0,0,1,10,2l1.64,1.41a.5.5,0,0,0,.66,0L14,2a.18.18,0,0,1,.22,0l1.69,1.45a.51.51,0,0,0,.63,0l2.16-1.53a.21.21,0,0,1,.12,0l.09,0s0,.08,0,.38Z"/><path d="M15.73,7.59H8.22a.5.5,0,0,0-.5.5.5.5,0,0,0,.5.5h7.51a.5.5,0,0,0,.5-.5A.5.5,0,0,0,15.73,7.59Z"/><path d="M15.73,11.42H8.22a.5.5,0,0,0-.5.5.5.5,0,0,0,.5.5h7.51a.5.5,0,0,0,.5-.5A.5.5,0,0,0,15.73,11.42Z"/><path d="M15.73,15.23H8.22a.5.5,0,0,0-.5.5.5.5,0,0,0,.5.5h7.51a.5.5,0,0,0,.5-.5A.5.5,0,0,0,15.73,15.23Z"/></svg>