<svg width="24" height="24" viewBox="0 0 24 24" xmlns="http://www.w3.org/2000/svg">
<path d="M19.9565 9.90416C19.854 9.64237 19.5121 9.37031 19.2044 9.28818L14.8526 8.65679H14.8086L12.855 4.5759C12.8208 4.49376 12.7817 4.42703 12.728 4.35517C12.5619 4.19091 12.3079 4.06258 12.0882 4.02151V4.00098C12.0882 4.00098 12.0637 4.01124 12.0491 4.01124C12.0393 4.01124 12.0295 4.00611 12.0149 4.00611C11.9612 4.00611 11.9123 4.00611 11.8684 4.00611C11.6144 4.04718 11.3018 4.3295 11.1553 4.61696L9.22605 8.70812C9.21139 8.78512 9.2407 8.73892 9.16744 8.72866L4.81565 9.36004C4.76681 9.36517 4.7082 9.38057 4.67401 9.39084C4.48353 9.47811 4.29305 9.6475 4.16606 9.8323C4.16606 9.8323 4.16118 9.8323 4.15629 9.83743C4.14652 9.8477 4.14164 9.8631 4.13187 9.87336C4.11722 9.89389 4.10257 9.91443 4.0928 9.93496C4.05861 9.99143 4.03419 10.0479 4.02442 10.1095C4.02442 10.1146 4.01954 10.1249 4.01465 10.13C4.01465 10.1403 4.01465 10.1557 4.01465 10.166C4.01465 10.1916 4 10.2122 4 10.2327C4 10.2481 4.00488 10.2584 4.00977 10.2738C4.00977 10.5407 4.1221 10.8743 4.29793 11.0899L7.36518 14.2263L7.40426 14.2623C7.46775 14.3187 7.47263 14.3187 7.44333 14.4008L6.71071 18.8513C6.70582 18.8975 6.70094 18.9489 6.69605 19.0002C6.72536 19.339 6.92072 19.7394 7.15028 19.8831C7.37983 20.032 7.80964 20.0371 8.10757 19.9139L11.9856 17.8196C11.9856 17.8196 11.9954 17.8093 12.0002 17.8042C12.0344 17.7734 12.01 17.7888 12.0637 17.8298L15.9271 19.9139C15.9662 19.9344 16.0053 19.955 16.0394 19.9652C16.352 20.0422 16.7867 19.9755 16.9918 19.7907C17.197 19.6059 17.3386 19.1799 17.3191 18.8462L16.5816 14.2982L16.5718 14.2417L19.727 11.0078C19.7612 10.9719 19.7905 10.9359 19.8198 10.8949C19.9858 10.6074 20.0542 10.1608 19.9516 9.89903L19.9565 9.90416ZM19.1018 10.32C19.1018 10.32 19.1018 10.32 19.092 10.3251L15.9271 13.5641L15.9857 13.5128C15.8636 13.6257 15.7269 13.8259 15.6829 13.9799C15.6389 14.1339 15.6585 14.3803 15.7024 14.5446L15.6829 14.4727L16.4204 19.0156C16.4692 19.0823 16.4546 19.0156 16.4009 19.0669C16.3471 19.1131 16.4009 19.1388 16.352 19.0772C16.3374 19.0772 16.3423 19.0772 16.3374 19.0669L12.4252 16.9572C12.3275 16.9213 12.2054 16.9059 12.0833 16.9007L12.0735 5.08408L13.9686 9.04178C14.12 9.30871 14.4765 9.5551 14.7696 9.6013L15.2336 9.67317L19.0725 10.2276C19.0969 10.2173 19.1067 10.2122 19.1067 10.207C19.1067 10.207 19.0969 10.2276 19.1067 10.2584C19.1311 10.3251 19.1653 10.284 19.092 10.3148L19.1018 10.32Z" />
</svg>
