<svg xmlns="http://www.w3.org/2000/svg" viewBox="0 0 24 24">
  <path d="M19.25,15.2a3,3,0,1,0-3.5,2.95V19.2h-1a.5.5,0,0,0-.5.5.5.5,0,0,0,.5.5h1v1a.5.5,0,1,0,1,0v-1h1a.5.5,0,0,0,.5-.5.5.5,0,0,0-.5-.5h-1V18.15A3,3,0,0,0,19.25,15.2Zm-3,2a2,2,0,1,1,2-2A2,2,0,0,1,16.25,17.2Zm-4,3.09H8.74A1.1,1.1,0,0,1,8,19.93c-1-1.14-2.12-4.75-2.21-11.5h9.17c0,.61,0,1.19,0,1.75a.5.5,0,0,0,.48.52.49.49,0,0,0,.52-.48c0-.72,0-1.48,0-2.29a.5.5,0,0,0-.14-.36.51.51,0,0,0-.36-.14H13.76l-.22-1.55a.49.49,0,0,0-.49-.43h-.36V2.8a.5.5,0,0,0-.5-.5H8.49a.5.5,0,0,0-.5.5V5.45H7.64a.51.51,0,0,0-.5.43L6.92,7.43H5.25a.5.5,0,0,0-.35.14.51.51,0,0,0-.15.36c0,6.24,1,11,2.47,12.66a2,2,0,0,0,1.52.7h3.51a.5.5,0,0,0,.5-.5A.5.5,0,0,0,12.25,20.29ZM9,3.3h2.7V5.45H9ZM8.07,6.45h4.55l.13,1H7.93Z"/>
</svg>
