<?xml version="1.0" encoding="UTF-8"?>
<svg xmlns="http://www.w3.org/2000/svg" width="24" height="24" version="1.1" viewBox="0 0 24 24">

        <path  d="M12.5,15c-.846,0-1.575.436-2.024,1.093l-1.437-3.593,3.926-9.814c.102-.256-.022-.547-.279-.65s-.547.022-.65.279l-3.536,8.839L4.964,2.314c-.103-.256-.394-.381-.65-.279-.256.103-.381.394-.279.65l3.926,9.814-1.437,3.593c-.449-.656-1.178-1.093-2.024-1.093-1.413,0-2.5,1.216-2.5,2.643v1.714c0,1.427,1.087,2.643,2.5,2.643s2.5-1.216,2.5-2.643v-1.714c0-.015,0-.03,0-.045l1.5-3.751,1.5,3.751c0,.015,0,.031,0,.046v1.714c0,1.427,1.087,2.643,2.5,2.643s2.5-1.216,2.5-2.643v-1.714c0-1.427-1.087-2.643-2.5-2.643ZM6,19.357c0,.94-.703,1.643-1.5,1.643s-1.5-.703-1.5-1.643v-1.714c0-.94.703-1.643,1.5-1.643s1.5.703,1.5,1.643v1.714ZM14,19.357c0,.94-.703,1.643-1.5,1.643s-1.5-.703-1.5-1.643v-1.714c0-.94.703-1.643,1.5-1.643s1.5.703,1.5,1.643v1.714Z"/>
        <path  d="M21.353,2.654c-.415-.418-.979-.654-1.567-.654h-4.286c-.276,0-.5.224-.5.5s.224.5.5.5h4.286c.321,0,.629.128.857.358.228.23.357.542.357.869v16.773h-3.434l.813-6.538v-.012c.032-.309-.002-.621-.098-.917-.096-.295-.253-.567-.461-.798-.207-.231-.461-.416-.744-.543-.283-.127-.59-.192-.9-.192h-.677c-.276,0-.5.224-.5.5s.224.5.5.5h.677c.169,0,.337.036.491.105.155.069.294.171.408.298.114.127.201.277.254.44.053.161.072.332.056.502l-.882,7.094c-.018.142.027.285.122.393.095.107.231.169.375.169h4.5c.276,0,.5-.224.5-.5V4.227c0-.59-.232-1.156-.647-1.574Z"/>
        <path  d="M15.5,5h3c.276,0,.5-.224.5-.5s-.224-.5-.5-.5h-3c-.276,0-.5.224-.5.5s.224.5.5.5Z"/>
        <path  d="M15.5,7h3c.276,0,.5-.224.5-.5s-.224-.5-.5-.5h-3c-.276,0-.5.224-.5.5s.224.5.5.5Z"/>
        <path  d="M15.5,9h3c.276,0,.5-.224.5-.5s-.224-.5-.5-.5h-3c-.276,0-.5.224-.5.5s.224.5.5.5Z"/>
        <path  d="M15.5,11h3c.276,0,.5-.224.5-.5s-.224-.5-.5-.5h-3c-.276,0-.5.224-.5.5s.224.5.5.5Z"/>

</svg>