<?xml version="1.0" encoding="UTF-8"?>
<svg xmlns="http://www.w3.org/2000/svg" width="24" height="24" version="1.1" viewBox="0 0 24 24">

        <path  d="M7.253,7.919c.154.1.35.108.511.02.161-.087.261-.256.261-.439,0-.224.002-.26.039-.328.013-.024.055-.078.137-.158.037-.036.075-.071.113-.106l.016-.014c.031-.029.068-.062.097-.09.073-.071.135-.146.187-.222.044.061.089.128.139.201.151.22.22.422.22.718,0,.183.1.352.262.439.161.087.357.08.511-.02.419-.272.675-.666.891-1.093.251-.494.362-.939.362-1.426v-.006c0-.361,0-1.064-.317-1.865-.323-.815-.959-1.698-2.176-2.453-.138-.086-.309-.099-.459-.035-.15.063-.259.196-.293.355l-.072.335c-.001.007-.003.014-.004.021-.071.412-.108.54-.143.621-.016.037-.037.074-.079.14-.011.017-.025.038-.04.062-.038.059-.088.136-.143.224-.049.079-.129.172-.264.322l-.016.018c-.121.135-.272.303-.414.499-.307.423-.579.984-.579,1.764,0,.486.109.932.361,1.426.217.428.474.821.893,1.093ZM7.389,4.223c.111-.153.231-.287.359-.429l.014-.015c.118-.131.26-.29.363-.458.048-.078.085-.135.121-.189.018-.027.035-.054.053-.082.052-.081.105-.168.152-.275.053-.121.093-.254.131-.422.64.523.983,1.067,1.172,1.545.245.619.247,1.163.247,1.503,0,.313-.066.605-.253.974-.011.022-.022.043-.033.063-.04-.074-.085-.147-.134-.219l-.03-.044c-.189-.277-.432-.633-.817-.884-.129-.084-.29-.104-.436-.053-.146.05-.26.165-.31.311-.113.329-.154.44-.257.54-.015.014-.035.033-.068.063l-.019.017c-.04.036-.09.082-.141.132-.053.052-.12.12-.183.199-.022-.039-.043-.081-.066-.125-.187-.368-.252-.66-.252-.974,0-.52.173-.88.389-1.177Z"/>
        <path  d="M11.795,21.37c-1.047.471-2.475.63-3.295.63-.712,0-1.902-.121-2.896-.471-1.041-.367-1.604-.882-1.604-1.529v-7.775c.243.12.521.225.821.315.963.289,2.264.46,3.679.46s2.716-.172,3.679-.46c.299-.09.578-.194.821-.315v1.275c0,.276.224.5.5.5s.5-.224.5-.5v-2.5c0-.45-.302-.777-.604-.992-.315-.224-.739-.404-1.217-.548-.963-.289-2.264-.46-3.679-.46s-2.716.171-3.679.46c-.478.143-.902.324-1.217.548-.302.214-.604.542-.604.992v9c0,1.354,1.187,2.089,2.271,2.471,1.131.399,2.441.529,3.229.529.892,0,2.479-.166,3.705-.719.252-.113.364-.409.251-.661-.113-.252-.409-.364-.661-.251ZM4.182,10.824c.191-.135.5-.278.926-.406.846-.254,2.046-.418,3.392-.418s2.545.164,3.392.418c.426.128.735.27.926.406.131.093.169.154.179.176-.01.022-.048.083-.179.176-.191.135-.5.278-.926.406-.846.254-2.046.418-3.392.418s-2.545-.164-3.392-.418c-.426-.128-.735-.27-.926-.406-.131-.093-.169-.154-.179-.176.01-.022.048-.083.179-.176Z"/>
        <path  d="M20.835,18.466c-.112-.263-.278-.5-.487-.694-.124-.115-.261-.214-.409-.293.065-.135.115-.277.15-.424.061-.259.071-.527.03-.79-.041-.263-.132-.515-.268-.743-.136-.228-.316-.427-.528-.584-.212-.158-.454-.272-.711-.335-.257-.063-.523-.074-.784-.031-.261.042-.511.137-.735.278-.118.074-.228.161-.328.257-.099-.102-.209-.194-.328-.273-.225-.15-.478-.253-.744-.301-.266-.048-.539-.041-.802.021-.263.062-.511.177-.728.339-.217.161-.4.365-.538.599-.137.234-.227.493-.265.762-.037.269-.021.543.047.806.038.146.092.288.161.421-.146.078-.282.175-.405.287-.212.194-.38.431-.494.695-.114.264-.171.55-.169.838.003.288.065.573.184.835s.292.496.507.686c.216.19.469.331.744.414s.563.104.847.063h.002c.004.024.008.049.013.073.061.303.189.588.375.834.186.246.425.446.7.584.275.138.578.21.885.21s.61-.072.885-.21c.275-.138.514-.338.7-.584.186-.246.314-.531.374-.834.005-.026.01-.053.014-.08h.002c.282.039.569.016.842-.067.273-.083.524-.224.738-.414.214-.189.385-.422.503-.682s.181-.543.184-.83c.003-.286-.053-.57-.165-.833ZM19.905,19.715c-.061.134-.148.252-.255.347-.107.095-.232.165-.367.206-.134.041-.275.052-.413.033-.138-.019-.272-.068-.392-.145-.173-.11-.395-.104-.562.016-.166.12-.242.329-.192.528.039.155.043.317.012.473-.031.157-.097.303-.192.428-.094.125-.215.225-.351.294-.136.069-.286.104-.436.104s-.3-.035-.436-.104c-.136-.069-.257-.169-.351-.294-.095-.125-.16-.271-.192-.428-.031-.157-.027-.319.012-.473.05-.2-.026-.41-.194-.529-.167-.12-.391-.125-.564-.013-.12.078-.254.128-.393.149-.139.02-.281.01-.416-.031-.135-.041-.262-.11-.37-.206-.108-.096-.196-.214-.257-.349-.061-.135-.094-.281-.095-.431-.001-.149.029-.297.087-.433.059-.136.145-.256.251-.354.106-.097.231-.17.365-.213.077-.024.156-.039.236-.044.204-.013.379-.149.443-.343s.003-.408-.154-.539c-.062-.052-.118-.112-.166-.178l-.007-.009c-.083-.11-.145-.236-.18-.372-.035-.136-.044-.278-.025-.417s.066-.273.136-.392c.07-.12.163-.222.272-.303.109-.081.232-.138.361-.168.13-.03.263-.034.394-.01.131.024.256.074.369.149.112.075.21.173.286.288l.008.012c.046.066.085.139.114.216.073.195.26.324.468.324s.395-.129.468-.324c.029-.076.067-.148.112-.214.078-.109.175-.201.287-.271.112-.07.235-.117.364-.138.128-.021.259-.016.386.016.126.031.246.087.353.167.106.079.197.18.267.296.07.116.117.246.138.382.021.136.016.275-.016.408-.031.133-.087.257-.164.367-.048.066-.103.125-.164.176-.157.131-.218.345-.154.539.064.194.239.33.443.343.08.005.159.02.236.044.013.004.026.008.039.011.116.045.224.112.317.199.105.098.19.218.247.353.058.135.087.282.085.43-.002.148-.034.294-.095.428Z"/>
  
</svg>