<?xml version="1.0" encoding="UTF-8"?>
<svg xmlns="http://www.w3.org/2000/svg" width="24" height="24" version="1.1" viewBox="0 0 24 24">
  <defs>
    <style>
      .cls-1 {
        fill: #363636;
      }
    </style>
  </defs>
  <!-- Generator: Adobe Illustrator 28.7.1, SVG Export Plug-In . SVG Version: 1.2.0 Build 142)  -->
  <g>
    <g id="Camada_1">
      <g>
        <path class="cls-1" d="M16.5,4h.5v.5c0,.276.224.5.5.5s.5-.224.5-.5v-.5h.5c.276,0,.5-.224.5-.5s-.224-.5-.5-.5h-.5v-.5c0-.276-.224-.5-.5-.5s-.5.224-.5.5v.5h-.5c-.276,0-.5.224-.5.5s.224.5.5.5Z"/>
        <path class="cls-1" d="M21.324,10.879c-.372.139-.81.193-1.284.193-2.811,0-5.112-2.302-5.112-5.112,0-.473.053-.912.193-1.284.065-.174.028-.371-.096-.509s-.316-.197-.496-.151c-2.634.674-4.529,3.061-4.529,5.872,0,3.363,2.749,6.112,6.112,6.112,2.811,0,5.198-1.895,5.872-4.529.046-.18-.012-.372-.15-.496-.139-.124-.335-.161-.51-.096ZM16.112,15c-2.81,0-5.112-2.302-5.112-5.112,0-2.051,1.204-3.826,2.966-4.619-.027.232-.037.465-.037.691,0,3.363,2.749,6.112,6.112,6.112.226,0,.459-.01.691-.037-.793,1.762-2.568,2.966-4.62,2.966Z"/>
        <path class="cls-1" d="M2.5,13.993h-1c-.276,0-.5.224-.5.5s.224.5.5.5h1c.276,0,.5-.224.5-.5s-.224-.5-.5-.5Z"/>
        <path class="cls-1" d="M4,18.321l-.707.707c-.195.195-.195.512,0,.707.195.195.512.195.707,0l.707-.707c.195-.195.195-.512,0-.707-.195-.195-.512-.195-.707,0Z"/>
        <path class="cls-1" d="M3.647,9.85c.195.195.512.195.707,0,.195-.195.195-.512,0-.707l-.707-.707c-.195-.195-.512-.195-.707,0s-.195.512,0,.707l.707.707Z"/>
        <path class="cls-1" d="M8.5,20c-.276,0-.5.224-.5.5v1c0,.276.224.5.5.5s.5-.224.5-.5v-1c0-.276-.224-.5-.5-.5Z"/>
        <path class="cls-1" d="M13.849,18.785c-.195-.195-.512-.195-.707,0s-.195.512,0,.707l.707.707c.195.195.512.195.707,0,.195-.195.195-.512,0-.707l-.707-.707Z"/>
        <path class="cls-1" d="M8.5,8c.276,0,.5-.224.5-.5v-1c0-.276-.224-.5-.5-.5s-.5.224-.5.5v1c0,.276.224.5.5.5Z"/>
        <path class="cls-1" d="M11.975,16.666c-.733.817-1.795,1.33-2.977,1.33-2.208,0-3.998-1.79-3.998-3.998,0-2.027,1.543-3.752,3.556-3.978.274-.031.472-.278.441-.553-.031-.274-.278-.472-.553-.441-2.519.282-4.444,2.435-4.444,4.971,0,2.76,2.238,4.998,4.998,4.998,1.478,0,2.807-.643,3.722-1.662.184-.206.167-.522-.038-.706-.206-.184-.522-.167-.706.038Z"/>
        <path class="cls-1" d="M22.5,7h-.5v-.5c0-.276-.224-.5-.5-.5s-.5.224-.5.5v.5h-.5c-.276,0-.5.224-.5.5s.224.5.5.5h.5v.5c0,.276.224.5.5.5s.5-.224.5-.5v-.5h.5c.276,0,.5-.224.5-.5s-.224-.5-.5-.5Z"/>
      </g>
    </g>
  </g>
</svg>