<svg width="24" height="24" viewBox="0 0 24 24" fill="none" xmlns="http://www.w3.org/2000/svg">
<path d="M11.5051 4.32501C11.5051 4.04901 11.7291 3.82501 12.0051 3.82501C12.2731 3.83601 12.4851 4.05601 12.4851 4.32501V18.445L19.1651 11.765C19.3591 11.574 19.6711 11.574 19.8651 11.765C20.0621 11.961 20.0621 12.279 19.8651 12.475L12.4491 19.891C12.3891 20.017 12.2771 20.119 12.1231 20.159C12.0841 20.169 12.0451 20.174 12.0051 20.175V20.135C11.8701 20.135 11.7401 20.081 11.6451 19.985L4.13505 12.475C3.93805 12.279 3.93805 11.961 4.13505 11.765C4.32905 11.574 4.64105 11.574 4.83505 11.765L11.5051 18.47V4.32501Z" fill="#363636"/>
</svg>
