<?xml version="1.0" encoding="UTF-8"?>
<svg xmlns="http://www.w3.org/2000/svg" width="24" height="24" version="1.1" viewBox="0 0 24 24">
  <defs>
    <style>
      .cls-1 {
        fill: #363636;
      }
    </style>
  </defs>
  <!-- Generator: Adobe Illustrator 28.6.0, SVG Export Plug-In . SVG Version: 1.2.0 Build 709)  -->
  <g>
    <g id="Camada_1">
      <g>
        <path class="cls-1" d="M19.5,21h-7.5v-1.188c0-1.061-.421-2.078-1.172-2.828-.75-.75-1.768-1.172-2.828-1.172-.577,0-1.142.125-1.658.36l-.47-.741c-.004-.007-.009-.013-.013-.02-.371-.528-.629-1.126-.761-1.758-.131-.632-.132-1.283-.002-1.915.13-.632.387-1.231.756-1.76.368-.527.839-.973,1.384-1.312l1.679-.964,1.652,2.862c.138.239.444.321.683.183l1.019-.588.783,1.565c.123.247.424.347.671.224.247-.124.347-.424.224-.671l-.81-1.619,1.145-.661c.239-.138.321-.444.183-.683l-3.5-6.062c-.138-.239-.444-.321-.683-.183l-3.031,1.75c-.115.066-.199.176-.233.304-.034.128-.016.265.05.379l1.348,2.334-1.684.967-.014.009c-.664.411-1.238.954-1.685,1.594-.447.641-.759,1.366-.916,2.131-.157.765-.156,1.555.003,2.32.158.761.469,1.482.914,2.119l.457.722c-.111.09-.218.185-.32.287-.75.75-1.172,1.768-1.172,2.828v1.688c0,.276.224.5.5.5h15c.276,0,.5-.224.5-.5s-.224-.5-.5-.5ZM8.185,4.434l2.165-1.25,3,5.196-2.165,1.25-3-5.196ZM11,21h-6v-1.188c0-.796.316-1.559.879-2.121.563-.563,1.326-.879,2.121-.879s1.559.316,2.121.879c.563.563.879,1.326.879,2.121v1.188Z"/>
        <path class="cls-1" d="M12.061,15.739c.132.242.436.332.678.2l5.5-3c.242-.132.332-.436.2-.678-.132-.242-.436-.332-.678-.2l-5.5,3c-.242.132-.332.436-.2.678Z"/>
      </g>
    </g>
  </g>
</svg>