<?xml version="1.0" encoding="UTF-8"?>
<svg id="Camada_1" xmlns="http://www.w3.org/2000/svg" width="24" height="24" version="1.1" viewBox="0 0 24 24">
  <!-- Generator: Adobe Illustrator 29.1.0, SVG Export Plug-In . SVG Version: 2.1.0 Build 142)  -->
  <path d="M14,13h-4c-2.209,0-4,1.791-4,4v2c0,1.105.895,2,2,2h8c1.105,0,2-.895,2-2v-2c0-2.209-1.791-4-4-4ZM17,19c0,.552-.448,1-1,1h-8c-.552,0-1-.448-1-1v-2c0-1.657,1.343-3,3-3h4c1.657,0,3,1.343,3,3v2Z" fill="#363636" fill-rule="evenodd"/>
  <path d="M20,12.126v-3.126c0-2.973-2.162-5.441-5-5.917v-.083c0-1.105-.895-2-2-2h-2c-1.105,0-2,.895-2,2v.083c-2.838.476-5,2.944-5,5.917v3.126c-1.725.444-3,2.01-3,3.874v4c0,1.105.895,2,2,2h1.268c.346.598.992,1,1.732,1h12c.74,0,1.387-.402,1.732-1h1.268c1.105,0,2-.895,2-2v-4c0-1.864-1.275-3.43-3-3.874ZM4,21h-1c-.552,0-1-.448-1-1v-4c0-1.306.835-2.417,2-2.829v7.829ZM11,2h2c.552,0,1,.448,1,1h-4c0-.552.448-1,1-1ZM19,21c0,.552-.448,1-1,1H6c-.552,0-1-.448-1-1v-12c0-2.761,2.239-5,5-5h4c2.761,0,5,2.239,5,5v12ZM22,20c0,.552-.448,1-1,1h-1v-7.829c1.165.412,2,1.523,2,2.829v4Z" fill="#363636" fill-rule="evenodd"/>
</svg>