<svg xmlns="http://www.w3.org/2000/svg" width="24" height="24" viewBox="0 0 24 24">
  <g id="Create-Here">
    <g>
      <rect id="Bounds" width="24" height="24" style="fill: #333;fill-opacity: 0"/>
      <path id="Vector" d="M11,5.25v.38A4,4,0,0,0,8,9.5v4a2.49,2.49,0,0,1-1,2l-1,.75V17.5a.5.5,0,0,0,.5.5h11a.5.5,0,0,0,.5-.5V16.25l-1-.75a2.49,2.49,0,0,1-1-2v-4a4,4,0,0,0-3-3.87V5a1,1,0,0,0-.08-.39v0A1,1,0,0,0,11,5Zm-1-.34A5,5,0,0,0,7,9.5v4a1.49,1.49,0,0,1-.6,1.2l-1.2.9-.2.15V17.5A1.5,1.5,0,0,0,6.5,19h11A1.5,1.5,0,0,0,19,17.5V15.75l-.2-.15-1.2-.9a1.49,1.49,0,0,1-.6-1.2v-4a5,5,0,0,0-3-4.58,2,2,0,0,0-4,0ZM12,21.5A2.51,2.51,0,0,1,9.71,20h4.58A2.51,2.51,0,0,1,12,21.5Z" style="fill-rule: evenodd"/>
    </g>
  </g>
</svg>
