<svg xmlns="http://www.w3.org/2000/svg" width="24" height="24" viewBox="0 0 24 24">
  <g id="Create-Here">
    <g>
      <g id="Middle">
        <path d="M12,15.13a3,3,0,1,1,3-3A3,3,0,0,1,12,15.13Zm0-5a2,2,0,1,0,2,2A2,2,0,0,0,12,10.13Z"/>
      </g>
      <path d="M12,5.22a2.74,2.74,0,0,1,2.67,2.14l.2.85.87-.08.16,0H16a2.74,2.74,0,0,1,1.33,5.14l-.82.45.4.84a2.7,2.7,0,0,1,.27,1.17,2.76,2.76,0,0,1-2.75,2.75,2.67,2.67,0,0,1-1.78-.68L12,17.21l-.65.56a2.68,2.68,0,0,1-1.77.67A2.75,2.75,0,0,1,6.8,15.7a2.66,2.66,0,0,1,.27-1.16l.39-.85-.81-.45A2.74,2.74,0,0,1,8,8.1h.09l.17,0,.87.08.2-.86A2.72,2.72,0,0,1,12,5.22m0-1A3.75,3.75,0,0,0,8.33,7.13c-.12,0-.23,0-.35,0a3.74,3.74,0,0,0-1.82,7A3.67,3.67,0,0,0,5.8,15.7a3.74,3.74,0,0,0,3.75,3.74A3.69,3.69,0,0,0,12,18.53a3.74,3.74,0,0,0,6.19-2.83,3.82,3.82,0,0,0-.36-1.59A3.74,3.74,0,0,0,16,7.1c-.12,0-.24,0-.35,0A3.76,3.76,0,0,0,12,4.22Z"/>
    </g>
  </g>
</svg>
