<svg width="24" height="24" viewBox="0 0 24 24" fill="none" xmlns="http://www.w3.org/2000/svg">
<path d="M12.0021 20.159C11.7261 20.159 11.5021 19.935 11.5021 19.659C11.5021 19.656 11.5021 9.073 11.5021 5.54L4.83212 12.219C4.73912 12.31 4.61212 12.357 4.48212 12.349C4.35112 12.354 4.22312 12.304 4.13212 12.209C3.93512 12.013 3.93512 11.695 4.13212 11.499L11.6421 3.989C11.8381 3.792 12.1561 3.792 12.3521 3.989C12.3711 4.008 12.3881 4.029 12.4041 4.05L19.8721 11.509C20.0641 11.707 20.0641 12.021 19.8721 12.219C19.7671 12.316 19.6251 12.364 19.4821 12.349C19.3511 12.353 19.2241 12.302 19.1321 12.209L12.5021 5.561V19.659C12.4971 19.933 12.2761 20.154 12.0021 20.159Z" fill="#363636"/>
</svg>
