<?xml version="1.0" encoding="UTF-8"?>
<svg xmlns="http://www.w3.org/2000/svg" width="24" height="24" version="1.1" viewBox="0 0 24 24">
 
        <path class="cls-1" d="M4.5,3.5c.552,0,1,.448,1,1,0,.276.224.5.5.5s.5-.224.5-.5c0-.552.448-1,1-1,.276,0,.5-.224.5-.5s-.224-.5-.5-.5c-.552,0-1-.448-1-1,0-.276-.224-.5-.5-.5s-.5.224-.5.5c0,.552-.448,1-1,1-.276,0-.5.224-.5.5s.224.5.5.5Z"/>
        <path class="cls-1" d="M22.854,3.755c-1.205-1.205-2.737-1.746-4.354-1.746-1.637,0-3.154.655-4.336,1.73-.162.147-.209.382-.117.58l2.455,5.302.499,10.892c.003.456.203.804.471,1.071.128.129.277.24.461.315.183.074.372.101.568.101.444,0,.779-.161,1.065-.446.305-.305.432-.732.435-1.041l.493-10.88,2.461-5.315c.088-.19.048-.415-.1-.564ZM19,20.477c0,.008,0,.015,0,.023,0,.033-.009.098-.037.173-.028.074-.066.134-.105.173-.115.115-.202.154-.357.154-.104,0-.159-.014-.192-.028-.032-.013-.072-.036-.131-.096-.13-.13-.178-.24-.178-.377,0-.008,0-.015,0-.023l-.48-10.469h1.955l-.475,10.469ZM19.68,9.008h-2.361l-2.207-4.767c.294-.237.606-.443.934-.616l.91,1.902c.119.249.418.354.667.235.249-.119.354-.418.235-.667l-.887-1.855c.491-.152,1.004-.233,1.529-.233,1.269,0,2.441.386,3.394,1.218l-2.214,4.782Z"/>
        <path class="cls-1" d="M5,12c-1.105,0-2,.895-2,2s.895,2,2,2,2-.895,2-2-.895-2-2-2ZM5,15c-.552,0-1-.448-1-1s.448-1,1-1,1,.448,1,1-.448,1-1,1Z"/>
        <path class="cls-1" d="M10,12c-1.105,0-2,.895-2,2s.895,2,2,2,2-.895,2-2-.895-2-2-2ZM10,15c-.552,0-1-.448-1-1s.448-1,1-1,1,.448,1,1-.448,1-1,1Z"/>
        <path class="cls-1" d="M10,17c-1.105,0-2,.895-2,2s.895,2,2,2,2-.895,2-2-.895-2-2-2ZM10,20c-.552,0-1-.448-1-1s.448-1,1-1,1,.448,1,1-.448,1-1,1Z"/>
        <path class="cls-1" d="M5,17c-1.105,0-2,.895-2,2s.895,2,2,2,2-.895,2-2-.895-2-2-2ZM5,20c-.552,0-1-.448-1-1s.448-1,1-1,1,.448,1,1-.448,1-1,1Z"/>
        <path class="cls-1" d="M12.5,10.001H2.5c-.828,0-1.5.672-1.5,1.5v10c0,.828.672,1.5,1.5,1.5h10c.828,0,1.5-.672,1.5-1.5v-10c0-.828-.672-1.5-1.5-1.5ZM13,21.501c0,.276-.224.5-.5.5H2.5c-.276,0-.5-.224-.5-.5v-10c0-.276.224-.5.5-.5h10c.276,0,.5.224.5.5v10Z"/>
        <path class="cls-1" d="M9.5,6.5c.552,0,1,.448,1,1,0,.276.224.5.5.5s.5-.224.5-.5c0-.552.448-1,1-1,.276,0,.5-.224.5-.5s-.224-.5-.5-.5c-.552,0-1-.448-1-1,0-.276-.224-.5-.5-.5s-.5.224-.5.5c0,.552-.448,1-1,1-.276,0-.5.224-.5.5s.224.5.5.5Z"/>

</svg>