<?xml version="1.0" encoding="UTF-8"?>
<svg xmlns="http://www.w3.org/2000/svg" width="24" height="24" version="1.1" viewBox="0 0 24 24">

        <path class="cls-1" d="M21.816,16.73c-.055-.226-.119-.453-.187-.694-.323-1.15-.736-2.621-.736-5.745,0-2.368-.613-4.793-2.372-6.568-1.728-1.743-4.072-2.723-6.517-2.723s-4.789.98-6.516,2.723c-1.759,1.775-2.372,4.2-2.372,6.568,0,3.124-.413,4.595-.737,5.745-.068.241-.132.469-.187.694-.168.685-.255,1.35-.127,2.273.125.904.454,2.04,1.084,3.677.099.258.388.386.646.287.258-.099.386-.388.287-.646-.621-1.613-.917-2.664-1.027-3.455-.107-.771-.037-1.306.108-1.898.052-.211.113-.43.18-.666.327-1.161.773-2.746.773-6.011,0-2.214.573-4.342,2.082-5.864,1.541-1.554,3.629-2.427,5.806-2.427s4.266.872,5.806,2.427c1.509,1.522,2.082,3.651,2.082,5.864,0,3.266.446,4.85.773,6.011.066.236.128.454.18.666.145.592.214,1.127.108,1.898-.109.79-.406,1.842-1.027,3.455-.099.258.029.547.287.646.258.099.547-.029.646-.287.63-1.637.959-2.773,1.084-3.677.128-.923.041-1.588-.127-2.273Z"/>
        <path class="cls-1" d="M17.167,14.802c-.34-.372-.555-.841-.614-1.342-.059-.501.041-1.007.286-1.448l.421-.759c.338-.608.481-1.306.411-1.998-.071-.692-.352-1.346-.805-1.874l-.005-.006-.008-.009-2.986-3.208c-.124-.133-.311-.189-.488-.144s-.315.181-.362.357c-.415,1.572-1.156,2.873-2.403,3.833-1.249.962-2.49,1.295-4.113,1.294-.161,0-.312.077-.406.208-.094.13-.12.298-.069.451l.826,2.474c.151.458.192.851.15,1.322-.049.543-.121.956-.35,1.261l-.155.206c-.12.159-.133.375-.035.548.505.887,1.202,1.649,2.037,2.232v1.299c0,.828-.672,1.5-1.5,1.5-.276,0-.5.224-.5.5s.224.5.5.5c1.381,0,2.5-1.119,2.5-2.5v-.72c.773.364,1.609.582,2.467.639.023.002.046.001.068,0,.857-.06,1.693-.279,2.465-.643v.725c0,1.381,1.119,2.5,2.5,2.5.276,0,.5-.224.5-.5s-.224-.5-.5-.5c-.828,0-1.5-.672-1.5-1.5v-1.303c.887-.617,1.619-1.433,2.135-2.385.102-.188.073-.419-.071-.576l-.398-.435ZM14.756,17.492c-.828.533-1.775.851-2.757.926-.954-.069-1.877-.371-2.688-.879-.729-.457-1.348-1.068-1.812-1.789.377-.545.453-1.195.499-1.706.055-.603-.001-1.135-.196-1.727l-.614-1.839c1.491-.091,2.767-.505,4.036-1.482,1.218-.938,2.006-2.146,2.499-3.525l2.391,2.569c.317.371.513.83.563,1.316.05.489-.052.981-.29,1.411l-.421.759c-.347.624-.488,1.341-.405,2.05.083.709.387,1.374.869,1.9l.15.164c-.462.743-1.085,1.376-1.823,1.852Z"/>

</svg>