<?xml version="1.0" encoding="UTF-8"?>
<svg xmlns="http://www.w3.org/2000/svg" width="24" height="24" version="1.1" viewBox="0 0 24 24">

        <path  d="M19.854,4.146c-1.397-1.397-3.404-2.146-5.354-2.146-.133,0-.26.053-.354.146-.094.094-.146.221-.146.354v6.5H5v-2.5c0-1.381-1.119-2.5-2.5-2.5-.276,0-.5.224-.5.5s.224.5.5.5c.828,0,1.5.672,1.5,1.5v2.951c0,.008,0,.017,0,.025,0,.008,0,.016,0,.025v2c0,2.485,2.015,4.5,4.5,4.5h9c2.485,0,4.5-2.015,4.5-4.5v-2c0-1.95-.75-3.957-2.146-5.354ZM15,3.019c1.545.115,3.071.759,4.146,1.835,1.076,1.076,1.72,2.601,1.835,4.146h-5.981V3.019ZM21,11.5c0,1.933-1.567,3.5-3.5,3.5h-9c-1.933,0-3.5-1.567-3.5-3.5v-1.5h16v1.5Z"/>
        <path  d="M8.5,17c-1.381,0-2.5,1.119-2.5,2.5s1.119,2.5,2.5,2.5,2.5-1.119,2.5-2.5-1.119-2.5-2.5-2.5ZM8.5,21c-.828,0-1.5-.672-1.5-1.5s.672-1.5,1.5-1.5,1.5.672,1.5,1.5-.672,1.5-1.5,1.5Z"/>
        <path  d="M17.5,17c-1.381,0-2.5,1.119-2.5,2.5s1.119,2.5,2.5,2.5,2.5-1.119,2.5-2.5-1.119-2.5-2.5-2.5ZM17.5,21c-.828,0-1.5-.672-1.5-1.5s.672-1.5,1.5-1.5,1.5.672,1.5,1.5-.672,1.5-1.5,1.5Z"/>

</svg>