<svg xmlns="http://www.w3.org/2000/svg" width="24" height="24" viewBox="0 0 24 24">
  <g id="Create-Here">
    <path d="M12.08,20.5a.5.5,0,0,1-.5-.5V18l-1.4,1.34a.49.49,0,0,1-.7,0,.5.5,0,0,1,0-.71l2.09-2V12.9L8.29,15l-.42,2.81a.5.5,0,1,1-1-.15l.3-2L5.42,16.7a.5.5,0,0,1-.68-.18.48.48,0,0,1,.17-.68l1.85-1.11-2-.9a.5.5,0,0,1-.24-.67.49.49,0,0,1,.66-.24L7.79,14.1,11.14,12,7.79,9.9,5.21,11.08a.49.49,0,0,1-.66-.24.5.5,0,0,1,.24-.67l2-.9L4.91,8.16a.48.48,0,0,1-.17-.68.5.5,0,0,1,.68-.18L7.18,8.36l-.3-2A.51.51,0,0,1,7.3,5.8a.51.51,0,0,1,.57.42L8.29,9l3.29,2.07V7.41l-2.09-2a.5.5,0,0,1,0-.71.49.49,0,0,1,.7,0L11.58,6V4a.5.5,0,0,1,.5-.5.5.5,0,0,1,.5.5V6L14,4.7a.5.5,0,1,1,.69.73l-2.09,2V11.1L15.88,9l.42-2.81a.51.51,0,0,1,.57-.42.51.51,0,0,1,.42.57l-.3,2L18.74,7.3a.5.5,0,0,1,.52.86L17.41,9.27l2,.9a.5.5,0,0,1,.25.67.49.49,0,0,1-.66.24L16.38,9.9,13,12l3.36,2.1L19,12.92a.49.49,0,0,1,.66.24.5.5,0,0,1-.25.67l-2,.9,1.85,1.11a.5.5,0,0,1-.52.86L17,15.64l.3,2a.5.5,0,1,1-1,.15L15.88,15l-3.3-2.07v3.69l2.09,2a.5.5,0,0,1-.69.73L12.58,18v2A.5.5,0,0,1,12.08,20.5Z"/>
  </g>
</svg>
