<svg width="24" height="24" viewBox="0 0 24 24" fill="none" xmlns="http://www.w3.org/2000/svg">
<path d="M11.0467 17.4813H9.64673C9.34673 17.4813 9.14673 17.6813 9.14673 17.9813C9.14673 18.2813 9.34673 18.4813 9.64673 18.4813H11.0467C11.3467 18.4813 11.5467 18.2813 11.5467 17.9813C11.5467 17.6813 11.2467 17.4813 11.0467 17.4813Z" fill="#363636"/>
<path d="M19.9271 16.9611L18.9271 14.4611C18.5271 13.4611 18.1271 12.4611 17.6271 11.4611C17.5271 11.2611 17.4271 11.0611 17.2271 10.8611C17.0271 10.6611 16.8271 10.4611 16.5271 10.3611C16.0271 10.1611 15.5271 10.0611 15.0271 9.96114V4.66114C15.0271 4.06114 14.5271 3.46114 13.8271 3.46114H7.12715C6.52715 3.46114 5.92715 3.96114 5.92715 4.66114V9.66114H5.42715H5.32715C4.72715 9.86114 4.32715 10.3611 4.32715 10.9611C4.32715 11.4611 4.52715 11.8611 4.82715 12.1611C4.62715 12.3611 4.52715 12.6611 4.52715 12.9611C4.52715 13.4611 4.72715 13.8611 4.92715 14.0611C4.72715 14.2611 4.62715 14.5611 4.62715 14.8611C4.62715 15.4611 4.92715 15.8611 5.22715 16.0611C4.92715 16.2611 4.82715 16.5611 4.82715 16.9611C4.82715 17.7611 5.32715 18.1611 5.72715 18.1611H6.02715V18.7611C6.02715 19.3611 6.52715 19.9611 7.22715 19.9611H13.9271C14.2271 19.9611 14.4271 19.8611 14.7271 19.6611C15.5271 20.2611 16.3271 20.5611 17.3271 20.7611H17.4271C17.6271 20.7611 17.9271 20.5611 17.9271 20.3611C17.9271 20.0611 17.8271 19.8611 17.5271 19.7611C16.7271 19.6611 15.9271 19.2611 15.2271 18.7611V14.7611C15.4271 15.3611 15.7271 15.9611 16.1271 16.5611C16.3271 16.8611 16.5271 17.1611 16.9271 17.3611C17.1271 17.4611 17.4271 17.3611 17.6271 17.1611C17.7271 16.9611 17.6271 16.6611 17.4271 16.4611C17.2271 16.3611 17.1271 16.2611 17.0271 16.0611C16.4271 15.0611 16.0271 13.8611 15.8271 12.6611V12.3611L14.7271 12.1611C14.7271 12.1611 14.7271 12.1611 14.6271 12.1611L12.4271 11.4611C12.1271 11.3611 11.8271 11.2611 11.6271 11.0611C11.4271 10.9611 11.3271 10.7611 11.2271 10.5611C11.2271 10.4611 11.2271 10.3611 11.3271 10.2611C11.5271 10.2611 11.6271 10.2611 11.9271 10.2611C12.8271 10.4611 13.7271 10.6611 14.7271 10.7611C15.2271 10.7611 15.7271 10.9611 16.2271 11.0611C16.3271 11.0611 16.5271 11.1611 16.5271 11.2611C16.6271 11.3611 16.7271 11.4611 16.7271 11.6611C17.2271 12.6611 17.6271 13.6611 18.0271 14.6611L19.0271 17.1611C19.1271 17.3611 19.3271 17.4611 19.5271 17.4611C19.6271 17.4611 19.6271 17.4611 19.7271 17.4611C19.9271 17.4611 20.0271 17.1611 19.9271 16.9611ZM5.92715 17.2611H5.72715C5.72715 17.2611 5.72715 17.1611 5.72715 17.0611C5.72715 16.9611 5.82715 16.9611 5.82715 16.9611H6.02715V17.2611H5.92715ZM5.92715 15.2611H5.62715C5.62715 15.1611 5.52715 15.0611 5.52715 14.9611C5.52715 14.8611 5.52715 14.7611 5.62715 14.7611H5.92715V15.2611ZM5.92715 13.4611H5.52715C5.52715 13.4611 5.42715 13.3611 5.42715 13.0611C5.42715 12.9611 5.52715 12.8611 5.62715 12.7611H5.92715V13.4611ZM5.92715 11.5611H5.42715C5.42715 11.5611 5.22715 11.3611 5.22715 11.0611C5.22715 10.9611 5.32715 10.7611 5.42715 10.7611H5.82715V11.5611H5.92715ZM14.0271 18.8611C14.0271 18.9611 13.9271 19.0611 13.8271 19.0611H7.12715C7.02715 19.0611 6.92715 18.9611 6.92715 18.8611V16.9611H14.0271V18.8611ZM14.0271 9.76114C13.4271 9.66114 12.8271 9.56114 12.2271 9.36114C11.8271 9.26114 11.4271 9.26114 11.0271 9.36114C10.5271 9.66114 10.2271 10.1611 10.3271 10.7611C10.4271 11.2611 10.7271 11.6611 11.1271 11.8611C11.4271 12.0611 11.8271 12.1611 12.1271 12.2611L14.0271 12.8611V15.8611H6.92715V6.66114H14.0271V9.76114ZM14.0271 5.66114H6.92715V4.66114C6.92715 4.56114 7.02715 4.46114 7.12715 4.46114H13.8271C13.9271 4.46114 14.0271 4.56114 14.0271 4.66114V5.66114Z" fill="#363636"/>
</svg>
