<svg xmlns="http://www.w3.org/2000/svg" width="24" height="24" viewBox="0 0 24 24"><path d="M12.71,14.5l2.14-2.15a.49.49,0,0,0-.7-.7L12,13.79,9.85,11.65a.49.49,0,0,0-.7.7l2.14,2.15L9.15,16.65a.48.48,0,0,0,0,.7.48.48,0,0,0,.7,0L12,15.21l2.15,2.14a.47.47,0,0,0,.35.15.5.5,0,0,0,.35-.85Z"/><path d="M18.4,7.65a.5.5,0,0,0-.5-.46H15.5V6.43a3.41,3.41,0,0,0-6.81,0v.76H6.19a.5.5,0,0,0-.5.46L4.82,19.34v.13a1.47,1.47,0,0,0,1.46,1.47H18a1.62,1.62,0,0,0,1.07-.65,1.29,1.29,0,0,0,.22-.94ZM9.69,6.43a2.41,2.41,0,0,1,4.81,0v.76H9.69Zm8.53,13.28a.59.59,0,0,1-.37.23H6.28a.49.49,0,0,1-.46-.53L6.65,8.19h2V9.5a.5.5,0,0,0,1,0V8.19H14.5V9.5a.5.5,0,0,0,.5.5.5.5,0,0,0,.5-.5V8.19h1.94l.84,11.28A.3.3,0,0,1,18.22,19.71Z"/></svg>