<?xml version="1.0" encoding="UTF-8"?>
<svg xmlns="http://www.w3.org/2000/svg" width="24" height="24" version="1.1" viewBox="0 0 24 24">

      <path  d="M19.83,4.17c-.719-.719-1.56-1.268-2.476-1.636-.003-.001-.004-.003-.007-.004-.003-.001-.006,0-.009-.001-.863-.344-1.791-.528-2.748-.528-.208,0-.395.129-.468.324l-2.557,6.818L2.525,18.935c-.339.34-.525.791-.525,1.27s.187.93.526,1.27.791.526,1.27.526.931-.188,1.255-.513l9.806-9.054,6.818-2.556c.195-.073.324-.26.324-.468,0-1.979-.771-3.84-2.17-5.239ZM4.358,20.767c-.298.299-.827.3-1.125,0-.15-.15-.233-.351-.233-.562s.083-.412.247-.577l8.768-9.496,1.854,1.855-9.511,8.781ZM14.717,11.419l-2.136-2.136,2.353-6.274c.547.029,1.072.149,1.584.311l-.923,2.459c-.098.259.033.547.292.644.058.021.117.032.176.032.202,0,.393-.124.468-.324l.916-2.441c.609.305,1.181.692,1.677,1.187,1.129,1.129,1.785,2.606,1.868,4.189l-6.274,2.353Z"/>

</svg>