<?xml version="1.0" encoding="UTF-8"?>
<svg xmlns="http://www.w3.org/2000/svg" width="24" height="24" version="1.1" viewBox="0 0 24 24">

      <path  d="M21.408,10.196l-.953-.944.484-.484c.473-.472.732-1.1.732-1.768s-.26-1.296-.732-1.768l-2.172-2.172c-.975-.975-2.561-.976-3.535,0l-.508.508-.994-.986c-.776-.769-2.036-.769-2.812-.005l-1.125,1.107c-.382.376-.595.879-.597,1.416-.002.536.204,1.041.583,1.42l1.993,2.003-3.238,3.238-1.998-1.98c-.773-.767-2.034-.77-2.812-.005l-1.125,1.108h0c-.382.376-.594.879-.596,1.416s.204,1.041.582,1.42l.991.996-.517.517c-.974.975-.974,2.561,0,3.535l2.172,2.172c.472.473,1.1.732,1.768.732s1.296-.26,1.768-.732l.504-.504.972.976c.378.381.881.59,1.417.59.005,0,.01,0,.016,0,.541-.004,1.047-.221,1.423-.609l1.147-1.188c.757-.783.743-2.043-.03-2.811l-1.96-1.943,3.213-3.213,1.967,1.976c.379.38.882.589,1.418.589h.015c.542-.004,1.047-.221,1.424-.609l1.146-1.188c.757-.783.743-2.043-.03-2.81ZM15.939,3.768c.584-.584,1.537-.584,2.121,0l2.172,2.172c.283.283.439.66.439,1.061s-.156.777-.439,1.061l-.487.487-4.311-4.275.505-.505ZM8.061,20.232c-.566.566-1.555.566-2.121,0l-2.172-2.172c-.584-.585-.584-1.536,0-2.121l.515-.515,4.283,4.303-.505.505ZM13.527,19.509l-1.147,1.188c-.188.195-.441.303-.712.306-.252-.01-.525-.103-.716-.295l-7.657-7.692c-.189-.19-.292-.442-.291-.71,0-.269.107-.52.298-.708l1.125-1.108c.39-.383,1.02-.38,1.406.002l7.679,7.613c.387.383.394,1.013.016,1.404ZM11.546,14.747l-2.301-2.281,3.233-3.233,2.286,2.296-3.218,3.218ZM20.72,12.311l-1.146,1.188c-.188.194-.441.303-.712.305-.25.013-.525-.103-.717-.294l-7.656-7.693c-.189-.19-.293-.442-.292-.71s.107-.52.298-.708l1.125-1.107c.193-.191.448-.286.702-.286s.51.096.704.288l7.678,7.613c.387.383.394,1.014.016,1.405Z"/>

</svg>