<?xml version="1.0" encoding="UTF-8"?>
<svg id="Camada_1" xmlns="http://www.w3.org/2000/svg" width="24" height="24" version="1.1" viewBox="0 0 24 24">
  <!-- Generator: Adobe Illustrator 29.3.0, SVG Export Plug-In . SVG Version: 2.1.0 Build 146)  -->
  <path d="M22.585,9.623l-1.443-.249c-.401-.068-.802-.009-1.161.165-.007-.154-.018-.306-.037-.456l1.132-.218c.538-.105,1.002-.412,1.308-.864.307-.453.419-.999.315-1.537l-.293-1.522c-.025-.13-.101-.245-.211-.319-.109-.074-.244-.102-.375-.077l-1.522.293c-.538.105-1.003.412-1.309.865-.054.08-.094.166-.136.251-.012-.021-.022-.036-.034-.056l.111-1.555c.04-.554-.14-1.091-.504-1.512-.364-.421-.87-.674-1.425-.713l-1.578-.113c-.143-.013-.264.034-.363.121-.101.087-.162.21-.172.342l-.112,1.578c-.04.554.14,1.091.504,1.512h0c.365.421.871.674,1.424.713l1.226.088c.59.986,1.542,3.013.801,4.963-.902,2.375-3.782,4.533-6.732,6.208-2.95-1.675-5.83-3.833-6.732-6.208-.741-1.953.213-3.982.803-4.966l1.188-.085c.553-.039,1.059-.292,1.425-.712h.001c.364-.422.543-.958.503-1.513l-.113-1.578c-.009-.132-.071-.255-.171-.342-.1-.087-.233-.135-.363-.121l-1.578.113c-.554.039-1.06.292-1.427.713-.364.42-.543.957-.504,1.512l.113,1.578c0,.008.005.015.006.023-.004.007-.008.012-.012.02-.043-.089-.085-.178-.142-.261h0c-.306-.453-.771-.76-1.309-.865l-1.522-.293c-.272-.046-.533.126-.586.396l-.293,1.522c-.104.538.008,1.083.315,1.537.306.453.771.76,1.31.865l1.141.22c-.018.152-.03.306-.037.462-.358-.172-.756-.23-1.155-.162l-1.443.249c-.27.046-.452.302-.409.572l.241,1.493c.085.529.366.993.79,1.305.338.25.735.381,1.144.381.11,0,.22-.009.331-.028l1.444-.249c.039-.007.071-.026.106-.041.091.136.186.271.287.406-.443.062-.854.259-1.174.584l-1.086,1.104c-.093.095-.145.223-.144.354,0,.133.055.26.149.353l1.105,1.086c.387.38.897.589,1.439.589h.015c.547-.004,1.061-.222,1.446-.612l.857-.872c.933.736,1.961,1.418,3.009,2.039-3.386,1.796-6.569,2.91-6.632,2.932-.261.09-.399.375-.31.636.071.207.265.337.473.337.054,0,.109-.009.163-.027.273-.094,3.757-1.314,7.337-3.287,3.579,1.974,7.064,3.194,7.336,3.287.054.019.109.027.163.027.207,0,.401-.13.473-.337.09-.261-.049-.546-.31-.636-.062-.022-3.245-1.136-6.631-2.932,1.045-.62,2.071-1.3,3.003-2.034l.852.867c.385.391.897.608,1.444.612h.016c.542,0,1.052-.209,1.438-.589l1.105-1.086c.095-.093.148-.22.149-.353,0-.132-.051-.26-.144-.354l-1.086-1.104c-.318-.322-.724-.519-1.164-.583.103-.138.201-.277.294-.417.035.015.066.034.105.041l1.443.249c.11.02.221.028.33.028.409,0,.807-.131,1.145-.381.424-.313.704-.776.789-1.305l.241-1.492c.044-.271-.138-.526-.408-.572ZM19.817,6.263h0c.157-.232.396-.39.671-.443l1.03-.199.198,1.031c.054.275-.004.555-.161.788-.157.232-.395.389-.67.442l-1.031.199-.198-1.031c-.054-.276.004-.556.161-.788ZM2.432,7.44c-.157-.232-.214-.512-.161-.788l.198-1.031,1.03.198c.276.054.514.211.671.443.157.232.214.512.161.787l-.198,1.031-1.03-.198c-.276-.054-.515-.211-.672-.443ZM6.292,3.487c.19-.219.454-.351.742-.372l1.08-.077.077,1.079c.02.288-.073.567-.262.786-.191.219-.455.351-.742.371l-1.08.077-.078-1.079c-.02-.289.073-.567.262-.786ZM3.346,12.37c-.251.04-.502-.017-.71-.171-.212-.157-.353-.391-.396-.66l-.162-1.004.956-.165c.249-.042.502.017.71.171.212.157.354.392.396.661l.162,1.003-.956.165ZM6.39,16.228c-.197.2-.459.312-.739.313-.275-.011-.546-.105-.746-.302l-.749-.735.735-.748c.197-.2.459-.312.739-.313h.001c.279-.004.544.104.745.301l.749.735-.735.749ZM16.035,4.903c-.189-.219-.283-.498-.262-.786l.076-1.079,1.08.077c.288.021.551.152.74.371s.283.498.262.786l-.076,1.079-1.08-.077c-.287-.021-.55-.152-.74-.371ZM19.832,15.504l-.749.735c-.2.195-.506.307-.745.302-.28-.002-.542-.113-.739-.313l-.735-.749.748-.735c.197-.194.458-.301.735-.301.004,0,.011,0,.011,0,.28.002.542.113.739.313l.735.748ZM21.766,11.527c-.044.27-.185.504-.396.661-.207.153-.457.212-.711.171l-.956-.165.162-1.003c.044-.27.185-.504.396-.661h0c.207-.153.456-.214.711-.171l.956.165-.162,1.003Z" fill="#363636"/>
</svg>