<?xml version="1.0" encoding="utf-8"?>
<!-- Generator: Adobe Illustrator 26.0.1, SVG Export Plug-In . SVG Version: 6.00 Build 0)  -->
<svg version="1.1" id="Camada_1" xmlns="http://www.w3.org/2000/svg" xmlns:xlink="http://www.w3.org/1999/xlink" x="0px" y="0px"
	 viewBox="0 0 24 24" style="enable-background:new 0 0 24 24;" xml:space="preserve">
<g>
	<path d="M11.6,15.8H6c-0.3,0-0.5,0.2-0.5,0.5s0.3,0.5,0.5,0.5h5.6c0.3,0,0.5-0.2,0.5-0.5S11.9,15.8,11.6,15.8z"/>
	<path d="M13.6,12.8H6c-0.3,0-0.5,0.2-0.5,0.5s0.3,0.5,0.5,0.5h7.6c0.3,0,0.5-0.2,0.5-0.5S13.9,12.8,13.6,12.8z"/>
	<path d="M13.7,9.8H6c-0.3,0-0.5,0.2-0.5,0.5s0.3,0.5,0.5,0.5h7.6c0.3,0,0.5-0.2,0.5-0.5S13.9,9.8,13.7,9.8z"/>
	<path d="M11.7,20.5H4.3c-0.3,0-0.5-0.2-0.5-0.5V3c0-0.3,0.2-0.5,0.5-0.5h8.4v3.6c0,0.8,0.7,1.5,1.5,1.5h3.6v4.3
		c0,0.3,0.2,0.5,0.5,0.5s0.5-0.2,0.5-0.5c0,0,0-4.8,0-4.9c0-0.1,0-0.1-0.1-0.2l-5.1-5.2c-0.1-0.1-0.1-0.1-0.2-0.1c-0.1,0-9,0-9,0
		c-0.9,0-1.6,0.6-1.6,1.4c0,0,0,0,0,0.1v17c0,0.8,0.7,1.5,1.5,1.5h7.3c0.3,0,0.5-0.2,0.5-0.5S11.9,20.5,11.7,20.5z M13.7,3.2
		l3.4,3.4h-2.9c-0.3,0-0.5-0.2-0.5-0.5V3.2z"/>
	<path d="M20.1,17v-0.6c0-1.6-1.3-2.9-2.9-2.9c-1.6,0-2.9,1.3-2.9,2.9V17c-0.6,0-1.1,0.5-1.1,1.1v3.3c0,0.6,0.5,1.1,1.1,1.1h5.8
		c0.6,0,1.1-0.5,1.1-1.1v-3.3C21.3,17.5,20.8,17,20.1,17z M15.3,16.5c0-1.1,0.9-1.9,1.9-1.9c1.1,0,1.9,0.9,1.9,1.9v0.6h-3.8V16.5z
		 M20.2,21.5c0,0.1-0.1,0.1-0.1,0.1h-5.8c-0.1,0-0.1,0-0.1-0.1v-3.3c0-0.1,0.1-0.1,0.1-0.1h5.8c0.1,0,0.1,0.1,0.1,0.1V21.5z"/>
	<path d="M17.2,18.5c-0.5,0-0.9,0.4-0.9,0.9c0,0.3,0.1,0.5,0.3,0.7c0,0,0,0,0,0v0.5c0,0.3,0.3,0.6,0.6,0.6c0.3,0,0.6-0.3,0.6-0.6
		v-0.5c0.2-0.2,0.3-0.4,0.3-0.7C18.1,18.9,17.7,18.5,17.2,18.5z"/>
</g>
</svg>
