<?xml version="1.0" encoding="utf-8"?>
<!-- Generator: Adobe Illustrator 26.0.1, SVG Export Plug-In . SVG Version: 6.00 Build 0)  -->
<svg version="1.1" id="Camada_1" xmlns="http://www.w3.org/2000/svg" xmlns:xlink="http://www.w3.org/1999/xlink" x="0px" y="0px"
	 viewBox="0 0 24 24" style="enable-background:new 0 0 24 24;" xml:space="preserve">
<g id="Create-Here">
	<path d="M6.2,16c-0.3,0-0.5,0.2-0.5,0.5S6,17,6.2,17h5.6c0.3,0,0.5-0.2,0.5-0.5c0-0.3-0.2-0.5-0.5-0.5H6.2z"/>
	<path d="M14.3,13.5c0-0.3-0.2-0.5-0.5-0.5H6.2c-0.3,0-0.5,0.2-0.5,0.5S6,14,6.2,14h7.6C14.1,14,14.3,13.8,14.3,13.5z"/>
	<path d="M13.9,10H6.2c-0.3,0-0.5,0.2-0.5,0.5S6,11,6.2,11h7.6c0.3,0,0.5-0.2,0.5-0.5S14.1,10,13.9,10z"/>
	<path d="M11.9,20.7H4.5c-0.3,0-0.5-0.2-0.5-0.5v-17c0-0.3,0.2-0.5,0.5-0.5h8.4v3.6c0,0.8,0.7,1.5,1.5,1.5H18v4.3
		c0,0.3,0.2,0.5,0.5,0.5s0.5-0.2,0.5-0.5c0,0,0-4.8,0-4.9c0-0.1,0-0.1-0.1-0.2l-5.1-5.2c-0.1-0.1-0.2-0.1-0.2-0.1h-9
		C3.7,1.7,3,2.3,3,3.1c0,0,0,0,0,0.1l0,0v17c0,0.8,0.7,1.5,1.5,1.5h7.3c0.3,0,0.5-0.2,0.5-0.5C12.3,20.9,12.1,20.7,11.9,20.7z
		 M17.3,6.8h-2.9c-0.3,0-0.5-0.2-0.5-0.5V3.4L17.3,6.8z"/>
	<path d="M20.3,17.2v-0.6c0-1.6-1.3-2.9-2.9-2.9c-1.6,0-2.9,1.3-2.9,2.9v0.6c-0.6,0-1.1,0.5-1.1,1.1v3.3c0,0.6,0.5,1.1,1.1,1.1h5.8
		c0.6,0,1.1-0.5,1.1-1.1c0,0,0,0,0,0v-3.3C21.5,17.7,21,17.2,20.3,17.2z M17.4,14.8c1.1,0,1.9,0.9,1.9,1.9l0,0v0.6h-3.8v-0.6
		C15.5,15.6,16.4,14.8,17.4,14.8C17.4,14.8,17.4,14.8,17.4,14.8z M20.4,21.7c0,0.1-0.1,0.1-0.1,0.1c0,0,0,0,0,0h-5.8
		c-0.1,0-0.1,0-0.1-0.1c0,0,0,0,0,0v-3.3c0-0.1,0.1-0.1,0.1-0.1h5.8c0.1,0,0.1,0.1,0.1,0.1L20.4,21.7z"/>
	<path d="M17.4,18.7c-0.5,0-0.9,0.4-0.9,0.9c0,0,0,0,0,0c0,0.3,0.1,0.5,0.3,0.7v0.5c0,0.3,0.3,0.6,0.6,0.6l0,0
		c0.3,0,0.6-0.3,0.6-0.6c0,0,0,0,0,0v-0.5c0.4-0.3,0.4-0.9,0.1-1.2C17.9,18.8,17.7,18.7,17.4,18.7z"/>
</g>
</svg>
