<svg xmlns="http://www.w3.org/2000/svg" width="24" height="24" viewBox="0 0 24 24">
  <g id="Create-Here">
    <g>
      <rect width="24" height="24" style="fill: none"/>
      <path d="M22,12.05c-5.07-3.22-7.42-5.2-13.17-3.68-2,.53-4.51,2.85-5.77,4.35-.24.21-.48.41-.71.59a1.08,1.08,0,0,0-.41.85A1,1,0,0,0,2.3,15l.26.19A13.54,13.54,0,0,0,11,18.5c3.77,0,6.27-2.1,8.1-3.64.43-.36.83-.7,1.19-.95l.25-.18h0A10.85,10.85,0,0,0,22,12.67.39.39,0,0,0,22,12.05Zm-7.23-.45a1.5,1.5,0,1,1-1.5-1.5A1.5,1.5,0,0,1,14.72,11.6Zm3.73,2.5c-1.71,1.43-4,3.4-7.45,3.4-3.66,0-6.07-1.81-7.84-3.13l-.25-.27c.53-.41,1-.86,1.55-1.35A20.69,20.69,0,0,1,6.54,11a4,4,0,0,0,0,.5,4.5,4.5,0,0,0,9,0,4,4,0,0,0-.06-.7,19.21,19.21,0,0,1,1.81,1.34,23.34,23.34,0,0,0,1.87,1.4Z"/>
    </g>
  </g>
</svg>
