<?xml version="1.0" encoding="UTF-8"?>
<svg xmlns="http://www.w3.org/2000/svg" width="24" height="24" version="1.1" viewBox="0 0 24 24">
  <defs>
    <style>
      .cls-1 {
        fill: #363636;
        fill-rule: evenodd;
      }
    </style>
  </defs>
  <!-- Generator: Adobe Illustrator 28.7.1, SVG Export Plug-In . SVG Version: 1.2.0 Build 142)  -->
  <g>
    <g id="Camada_1">
      <g>
        <path class="cls-1" d="M11.5,20H3.014c.259-4.462,3.958-8,8.486-8,.995,0,1.948.17,2.833.483.26.092.546-.044.638-.305.092-.26-.044-.546-.305-.638-.219-.078-.442-.147-.668-.209,1.495-.864,2.501-2.481,2.501-4.332,0-2.761-2.239-5-5-5s-5,2.239-5,5c0,1.851,1.006,3.468,2.501,4.332-4.035,1.097-7.001,4.786-7.001,9.168,0,.276.224.5.5.5h9c.276,0,.5-.224.5-.5s-.224-.5-.5-.5ZM7.5,7c0-2.209,1.791-4,4-4s4,1.791,4,4-1.791,4-4,4-4-1.791-4-4Z"/>
        <path class="cls-1" d="M17.5,18c-.276,0-.5.224-.5.5v1c0,.276.224.5.5.5s.5-.224.5-.5v-1c0-.276-.224-.5-.5-.5Z"/>
        <path class="cls-1" d="M20.5,16h-.5v-1.5c0-1.376-1.124-2.5-2.5-2.5s-2.5,1.124-2.5,2.5v1.5h-.5c-.828,0-1.5.672-1.5,1.5v3c0,.828.672,1.5,1.5,1.5h6c.828,0,1.5-.672,1.5-1.5v-3c0-.828-.672-1.5-1.5-1.5ZM16,14.5c0-.824.676-1.5,1.5-1.5s1.5.676,1.5,1.5v1.5h-3v-1.5ZM21,20.5c0,.276-.224.5-.5.5h-6c-.276,0-.5-.224-.5-.5v-3c0-.276.224-.5.5-.5h6c.276,0,.5.224.5.5v3Z"/>
      </g>
    </g>
  </g>
</svg>