<?xml version="1.0" encoding="UTF-8"?>
<svg xmlns="http://www.w3.org/2000/svg" width="24" height="24" version="1.1" viewBox="0 0 24 24">
  <defs>
    <style>
      .cls-1 {
        fill: #363636;
      }
    </style>
  </defs>
  <!-- Generator: Adobe Illustrator 28.6.0, SVG Export Plug-In . SVG Version: 1.2.0 Build 709)  -->
  <g>
    <g id="Camada_1">
      <path class="cls-1" d="M20.971,9.762c-.067-1.361-.66-2.621-1.67-3.546-.055-.05-.109-.099-.166-.146-.291-1.188-1.645-5.071-6.906-5.071C7.14,1,3,4.671,3,9.189c.018,1.883.733,3.676,2.011,5.066.111,4.844,3.3,8.745,7.214,8.745,3.949,0,7.166-3.914,7.266-8.77.533-.589.939-1.265,1.197-2.019.274-.8.369-1.633.283-2.449ZM12.229,2c3.461,0,4.947,1.858,5.575,3.252-.683-.289-1.426-.432-2.181-.41-3.661,0-4.821,2.182-5.844,4.108,0,0,0,.001-.001.002l-.081.151c-.893,1.686-1.814,3.426-4.11,4.3-1.012-1.18-1.573-2.667-1.587-4.22,0-3.961,3.691-7.185,8.229-7.185ZM12.225,22c-3.354,0-6.09-3.432-6.213-7.706,2.523-.993,3.595-2.884,4.505-4.6,1.561.068,3.099.496,4.468,1.243,1.406.768,2.612,1.871,3.51,3.188-.053,4.354-2.843,7.876-6.271,7.876ZM19.742,11.887c-.161.469-.388.903-.678,1.297-.955-1.282-2.189-2.355-3.601-3.125-1.362-.744-2.879-1.199-4.427-1.333.872-1.56,1.917-2.883,4.6-2.883.974-.037,1.918.276,2.685.858.035.038.076.069.12.094.062.051.124.104.184.159.814.747,1.293,1.761,1.35,2.885.072.697-.006,1.386-.232,2.048Z"/>
    </g>
  </g>
</svg>