<?xml version="1.0" encoding="UTF-8"?>
<svg xmlns="http://www.w3.org/2000/svg" width="24" height="24" version="1.1" viewBox="0 0 24 24">
  <defs>
    <style>
      .cls-1 {
        fill: #363636;
      }
    </style>
  </defs>
  <!-- Generator: Adobe Illustrator 28.6.0, SVG Export Plug-In . SVG Version: 1.2.0 Build 709)  -->
  <g>
    <g id="Camada_1">
      <path class="cls-1" d="M18.5,14h-3.748l.245-2.45c.015-.141-.031-.28-.126-.385-.007-.007-.017-.01-.024-.017.095-.197.153-.415.153-.647,0-.386-.15-.734-.39-1,.24-.266.39-.614.39-1,0-.827-.673-1.5-1.5-1.5h-.113c.067-.328.113-.661.113-1,0-2.757-2.243-5-5-5S3.5,3.243,3.5,6c0,.338.046.671.113,1h-.113c-.827,0-1.5.673-1.5,1.5,0,.386.15.734.39,1-.24.266-.39.614-.39,1,0,.233.058.451.153.648-.007.007-.017.01-.024.017-.095.104-.141.245-.127.385l.82,8.199c.129,1.283,1.198,2.251,2.488,2.251h3.69v.5c0,.276.224.5.5.5h12c.276,0,.5-.224.5-.5v-5c0-1.93-1.57-3.5-3.5-3.5ZM4.5,6c0-2.206,1.794-4,4-4s4,1.794,4,4c0,.341-.054.674-.138,1h-7.724c-.084-.326-.138-.66-.138-1ZM3.5,8h10c.275,0,.5.224.5.5s-.225.5-.5.5h-.5c-.276,0-.5.224-.5.5s.224.5.5.5h.5c.275,0,.5.224.5.5s-.225.5-.5.5H3.5c-.276,0-.5-.224-.5-.5s.224-.5.5-.5h.5c.276,0,.5-.224.5-.5s-.224-.5-.5-.5h-.5c-.276,0-.5-.224-.5-.5s.224-.5.5-.5ZM5.31,21c-.774,0-1.416-.581-1.493-1.351l-.765-7.649h10.895l-.2,2h-1.247c-1.93,0-3.5,1.57-3.5,3.5v3.5h-3.69ZM21,22h-11v-4.5c0-1.379,1.122-2.5,2.5-2.5h6c1.379,0,2.5,1.121,2.5,2.5v4.5Z"/>
    </g>
  </g>
</svg>