<?xml version="1.0" encoding="UTF-8"?>
<svg xmlns="http://www.w3.org/2000/svg" width="24" height="24" version="1.1" viewBox="0 0 24 24">
  <defs>
    <style>
      .cls-1, .cls-2 {
        fill: #363636;
      }

      .cls-2 {
        fill-rule: evenodd;
      }
    </style>
  </defs>
  <!-- Generator: Adobe Illustrator 28.7.1, SVG Export Plug-In . SVG Version: 1.2.0 Build 142)  -->
  <g>
    <g id="Camada_1">
      <g>
        <circle class="cls-1" cx="14.396" cy="7.521" r=".5"/>
        <circle class="cls-1" cx="12.396" cy="9.521" r=".5"/>
        <circle class="cls-1" cx="11.396" cy="14.521" r=".5"/>
        <circle class="cls-1" cx="8.396" cy="15.521" r=".5"/>
        <circle class="cls-1" cx="12.396" cy="17.521" r=".5"/>
        <circle class="cls-1" cx="15.396" cy="15.521" r=".5"/>
        <path class="cls-2" d="M16.5,12h-2c-.276,0-.5.224-.5.5s.224.5.5.5h2c.276,0,.5-.224.5-.5s-.224-.5-.5-.5Z"/>
        <path class="cls-2" d="M9.5,12h-2c-.276,0-.5.224-.5.5s.224.5.5.5h2c.276,0,.5-.224.5-.5s-.224-.5-.5-.5Z"/>
        <path class="cls-2" d="M14.147,4.521c-.176-.052-.366-.005-.496.125-2.281,2.271-5.267,3.512-8.701,3.857-.183.018-.34.135-.411.305-.408.976-.539,2.137-.539,3.192,0,4.418,3.582,8,8,8s8-3.582,8-8c0-3.652-2.581-6.502-5.853-7.478ZM12,18.999c-3.866,0-7-3.134-7-7,0-.883.099-1.782.358-2.535,3.387-.394,6.409-1.64,8.78-3.897,2.782.943,4.862,3.393,4.862,6.432,0,3.866-3.134,7-7,7Z"/>
        <path class="cls-2" d="M12,1C5.925,1,1,5.925,1,12v8.5c0,.163.08.316.214.41h.001s.001.002.001.002l.004.003.01.007c.008.006.02.013.034.022.028.018.068.043.121.074.105.061.258.146.464.245.412.199,1.033.459,1.894.716,1.721.515,4.395,1.021,8.257,1.021s6.536-.506,8.257-1.021c.86-.258,1.482-.517,1.894-.716.206-.099.359-.184.464-.245.052-.031.093-.056.121-.074.014-.009.026-.016.034-.022l.01-.007.004-.003h.001s.001-.002.001-.002c.134-.094.214-.247.214-.41v-8.5c0-6.075-4.925-11-11-11ZM22,20.216c-.075.041-.169.09-.284.146-.364.176-.935.416-1.745.659-1.62.485-4.196.979-7.97.979s-6.351-.494-7.97-.979c-.81-.242-1.382-.483-1.745-.659-.115-.056-.21-.105-.284-.146v-8.216C2,6.477,6.477,2,12,2s10,4.477,10,10v8.216Z"/>
      </g>
    </g>
  </g>
</svg>