<?xml version="1.0" encoding="utf-8"?>
<!-- Generator: Adobe Illustrator 28.4.1, SVG Export Plug-In . SVG Version: 6.00 Build 0)  -->
<svg version="1.0" id="Camada_1" xmlns="http://www.w3.org/2000/svg" xmlns:xlink="http://www.w3.org/1999/xlink" x="0px" y="0px"
	 width="24px" height="24px" viewBox="0 0 24 24" enable-background="new 0 0 24 24" xml:space="preserve">
<path    d="M18.4,6.7c-0.2,0.2-0.5,0.2-0.7,0c-1.2-1.1-2.1-1.3-2.9-1.2c-0.8,0.2-1.6,0.6-2.3,1.1l-0.2,0.1
	C11.5,7.3,10.6,7.8,9.4,8C8.3,8.1,7,7.8,5.7,6.7C5.5,6.6,5.4,6.3,5.6,6C5.8,5.8,6.1,5.8,6.3,6c1.2,0.9,2.2,1.1,3,1
	c0.9-0.1,1.7-0.5,2.4-1c0.1,0,0.1-0.1,0.2-0.1c0.7-0.5,1.6-1.1,2.6-1.3C15.7,4.3,17,4.7,18.4,6C18.5,6.2,18.5,6.5,18.4,6.7z"/>
<path    d="M21.4,12.1c-0.2,0.2-0.5,0.2-0.7,0c-1.6-1.6-3.3-1.8-4.8-1.5c-1.5,0.3-2.8,1.1-3.6,1.6
	c-0.8,0.5-2.2,1.4-3.9,1.7c-1.8,0.3-3.8,0.1-5.7-1.8c-0.2-0.2-0.2-0.5,0-0.7c0.2-0.2,0.5-0.2,0.7,0C5,13,6.7,13.2,8.2,12.9
	c1.5-0.3,2.8-1.1,3.6-1.6c0.8-0.5,2.2-1.4,3.9-1.7c1.8-0.3,3.8-0.1,5.7,1.8C21.5,11.6,21.6,11.9,21.4,12.1z"/>
<path    d="M17.6,18.2c0.2,0.2,0.5,0.2,0.7,0c0.2-0.2,0.2-0.5,0-0.7c-1.3-1.3-2.6-1.7-3.8-1.4c-1,0.2-1.9,0.8-2.6,1.3
	c-0.1,0-0.1,0.1-0.2,0.1c-0.7,0.5-1.5,0.9-2.4,1c-0.9,0.1-1.8-0.1-3-1c-0.2-0.2-0.5-0.1-0.7,0.1c-0.2,0.2-0.1,0.5,0.1,0.7
	c1.3,1.1,2.6,1.4,3.7,1.2c1.1-0.1,2.1-0.7,2.8-1.2l0.2-0.1c0.7-0.5,1.5-1,2.3-1.1C15.5,16.9,16.5,17.1,17.6,18.2z"/>
</svg>
