<?xml version="1.0" encoding="utf-8"?>
<svg version="1.1" id="Info" xmlns="http://www.w3.org/2000/svg" xmlns:xlink="http://www.w3.org/1999/xlink" x="0px" y="0px"
	 width="24" height="24" viewBox="0 0 24 24" style="enable-background:new 0 0 24 24;" xml:space="preserve">
<g>
	<path d="M11.1,17.4H9.7c-0.3,0-0.5,0.2-0.5,0.5c0,0.3,0.2,0.5,0.5,0.5h1.4c0.3,0,0.5-0.2,0.5-0.5C11.6,17.6,11.3,17.4,11.1,17.4z"
		/>
	<path d="M19.8,16.8l-1-2.5c-0.4-1-0.8-2-1.3-3c-0.1-0.2-0.2-0.4-0.4-0.6c-0.2-0.2-0.4-0.4-0.7-0.5c-0.5-0.2-1-0.3-1.5-0.4V4.5
		c0-0.6-0.5-1.2-1.2-1.2l0,0H7c-0.6,0-1.2,0.5-1.2,1.2v5H5.3l-0.1,0c-0.6,0.2-1,0.7-1,1.3c0,0.5,0.2,0.9,0.5,1.2
		c-0.2,0.2-0.3,0.5-0.3,0.8c0,0.5,0.2,0.9,0.4,1.1c-0.2,0.2-0.3,0.5-0.3,0.8c0,0.6,0.3,1,0.6,1.2c-0.3,0.2-0.4,0.5-0.4,0.9
		c0,0.8,0.5,1.2,0.9,1.2h0.3v0.6c0,0.6,0.5,1.2,1.2,1.2h6.7c0.3,0,0.5-0.1,0.8-0.3c0.8,0.6,1.6,0.9,2.6,1.1c0,0,0.1,0,0.1,0v0
		c0.2,0,0.5-0.2,0.5-0.4c0-0.3-0.1-0.5-0.4-0.6c-0.8-0.1-1.6-0.5-2.3-1v-4c0.2,0.6,0.5,1.2,0.9,1.8c0.2,0.3,0.4,0.6,0.8,0.8
		c0.2,0.1,0.5,0,0.7-0.2c0.1-0.2,0-0.5-0.2-0.7c-0.2-0.1-0.3-0.2-0.4-0.4c-0.6-1-1-2.2-1.2-3.4l0-0.3L14.6,12c0,0,0,0-0.1,0
		l-2.2-0.7c-0.3-0.1-0.6-0.2-0.8-0.4c-0.2-0.1-0.3-0.3-0.4-0.5c0-0.1,0-0.2,0.1-0.3c0.2,0,0.3,0,0.6,0c0.9,0.2,1.8,0.4,2.8,0.5
		c0.5,0,1,0.2,1.5,0.3c0.1,0,0.3,0.1,0.3,0.2c0.1,0.1,0.2,0.2,0.2,0.4c0.5,1,0.9,2,1.3,3l1,2.5c0.1,0.2,0.3,0.3,0.5,0.3l0,0
		c0.1,0,0.1,0,0.2,0C19.8,17.3,19.9,17,19.8,16.8z M5.8,17.1H5.6c0,0,0-0.1,0-0.2c0-0.1,0.1-0.1,0.1-0.1h0.2V17.1z M5.8,15.1H5.5
		c0-0.1-0.1-0.2-0.1-0.3c0-0.1,0-0.2,0.1-0.2h0.3V15.1z M5.8,13.3l-0.4,0c0,0-0.1-0.1-0.1-0.4c0-0.1,0.1-0.2,0.2-0.3h0.3V13.3z
		 M5.8,11.4H5.3c0,0-0.2-0.2-0.2-0.5c0-0.1,0.1-0.3,0.2-0.3h0.4V11.4z M13.9,18.7c0,0.1-0.1,0.2-0.2,0.2H7c-0.1,0-0.2-0.1-0.2-0.2
		v-1.9h7.1h0V18.7z M13.9,9.6c-0.6-0.1-1.2-0.2-1.8-0.4c-0.4-0.1-0.8-0.1-1.2,0c-0.5,0.3-0.8,0.8-0.7,1.4c0.1,0.5,0.4,0.9,0.8,1.1
		c0.3,0.2,0.7,0.3,1,0.4l1.9,0.6v3H6.8V6.5h7.1V9.6z M13.9,5.5H6.8v-1c0-0.1,0.1-0.2,0.2-0.2h6.7c0.1,0,0.2,0.1,0.2,0.2V5.5z"/>
</g>
</svg>
