<?xml version="1.0" encoding="utf-8"?>
<!-- Generator: Adobe Illustrator 26.0.1, SVG Export Plug-In . SVG Version: 6.00 Build 0)  -->
<svg version="1.1" id="Camada_1" xmlns="http://www.w3.org/2000/svg" xmlns:xlink="http://www.w3.org/1999/xlink" x="0px" y="0px"
	 viewBox="0 0 24 24" style="enable-background:new 0 0 24 24;" xml:space="preserve">
<g id="Create-Here">
	<path d="M20.2,10.3c-0.1,0-0.2,0-0.4,0V9.8c0-0.8-0.6-1.4-1.4-1.4l0,0c-0.1,0-0.2,0-0.4,0c0-0.7-0.6-1.3-1.4-1.3
		c-0.7,0-1.3,0.6-1.3,1.3c0-0.3,0.1-0.5,0.1-0.8c0.1-3-2.2-5.6-5.2-5.7c-3-0.1-5.6,2.2-5.7,5.2c0,0.2,0,0.3,0,0.5c0,0.1,0,0.3,0,0.5
		c-0.6,0.3-1,1-1,1.7c0,0.4,0.1,0.8,0.3,1.1l-0.1,0.1c-0.3,0.6-0.4,1.2-0.3,1.9c0.1,0.7,0.4,1.3,0.8,1.8c-1.2,1.4-1.8,3.1-1.8,4.9
		c0,0.3,0.2,0.5,0.5,0.5s0.5-0.2,0.5-0.5c0-3.6,2.9-6.5,6.5-6.6c0,0,0,0,0,0c0.7,0,1.4,0.1,2,0.3v3.5c0,2.6,2.1,4.8,4.8,4.8
		s4.8-2.1,4.8-4.8v-5.2C21.6,10.9,21,10.3,20.2,10.3C20.2,10.3,20.2,10.3,20.2,10.3z M10.1,12.1c-1.7,0-3-1.3-3-3
		c0-0.5,0.1-1,0.4-1.5c1,0,2-0.5,2.7-1.2c0.7,0.7,1.6,1.2,2.6,1.2c0.3,0.4,0.4,1,0.4,1.5C13.1,10.8,11.7,12.1,10.1,12.1z M13.7,11.6
		c-0.1,0-0.2,0-0.4,0h-0.1c0.2-0.2,0.4-0.5,0.5-0.8L13.7,11.6z M4.9,11c0-0.1-0.1-0.3-0.1-0.4c-0.1-0.2-0.2-0.4-0.2-0.6
		c0-0.2,0.1-0.6,0.8-1c0.2-0.1,0.3-0.3,0.2-0.5c0-0.2,0-0.5,0-0.7C5.5,5.3,7.4,3.2,9.8,3.1c2.5-0.1,4.6,1.8,4.7,4.3
		c0,0.1,0,0.3,0,0.4c0,0.2,0,0.4-0.1,0.6c0,0.1,0,0.1,0,0.2c-0.1,0.1-0.2,0.1-0.3,0.2c0-0.7-0.3-1.4-0.7-2.1
		c-0.1-0.1-0.3-0.2-0.5-0.2c-1,0-1.9-0.5-2.4-1.3C10.3,5.1,10,5.1,9.8,5.2c0,0-0.1,0.1-0.1,0.1C9.1,6.2,8.2,6.7,7.2,6.6l0,0
		C7,6.6,6.8,6.7,6.7,6.8C5.5,8.7,6,11.1,7.8,12.4c0,0,0,0,0,0c-1,0.3-2,0.9-2.8,1.6c-0.3-0.3-0.5-0.7-0.5-1.1c0-0.4,0.1-0.9,0.2-1.3
		C4.7,11.6,4.9,11.2,4.9,11z M20.5,16.9c0,2.1-1.7,3.8-3.8,3.8S13,19,13,16.9v-4c0-0.2,0.2-0.4,0.4-0.4c0.2,0,0.4,0.2,0.4,0.4v2.8
		c0,0.2,0.2,0.5,0.4,0.5c0.1,0,2.2,0.4,2.2,2.2c0,0.3,0.2,0.5,0.5,0.5s0.5-0.2,0.5-0.5c0-1.5-1.1-2.8-2.6-3.1V9.7
		c0-0.2,0.1-0.3,0.3-0.3c0.2,0,0.4,0.1,0.4,0.3c0,0.2,0,4.6,0,4.6c0,0.3,0.2,0.5,0.5,0.5c0.3,0,0.5-0.2,0.5-0.5V8.6
		c0-0.2,0.2-0.4,0.4-0.4c0.2,0,0.4,0.2,0.4,0.4v5.7c0,0.3,0.2,0.5,0.5,0.5s0.5-0.2,0.5-0.5V9.8c0-0.2,0.2-0.4,0.4-0.4
		c0.2,0,0.4,0.2,0.4,0.4v4.5c0,0.3,0.2,0.5,0.5,0.5c0.3,0,0.5-0.2,0.5-0.5v-2.8c0-0.1,0.1-0.3,0.3-0.3c0.2,0,0.4,0.1,0.4,0.3
		C20.5,11.9,20.5,16.9,20.5,16.9z"/>
</g>
</svg>
