<?xml version="1.0" encoding="utf-8"?>
<!-- Generator: Adobe Illustrator 26.3.1, SVG Export Plug-In . SVG Version: 6.00 Build 0)  -->
<svg version="1.1" id="Camada_1" xmlns="http://www.w3.org/2000/svg" xmlns:xlink="http://www.w3.org/1999/xlink" x="0px" y="0px"
	 viewBox="0 0 24 24" style="enable-background:new 0 0 24 24;" xml:space="preserve">
<g>
	<circle cx="8.6" cy="12.8" r="1"/>
	<circle cx="15.4" cy="12.8" r="1"/>
	<path d="M9.2,16.9c-0.1,0.1-0.1,0.2,0,0.4c0.1,0.1,0.2,0.1,0.4,0c0.1-0.1,2.3-1.8,5.1,0c0,0,0.1,0,0.1,0c0.1,0,0.2,0,0.2-0.1
		c0.1-0.1,0-0.3-0.1-0.3C11.8,14.9,9.2,16.9,9.2,16.9z"/>
	<path d="M19.4,7.7c0-0.3-0.3-0.6-0.6-0.6c0,0,0,0,0,0H16l0-0.7c-0.1-2-1.7-3.6-3.8-3.8c-0.1,0-0.2,0-0.3,0c-0.1,0-0.2,0-0.3,0
		C9.7,2.8,8.1,4.4,8,6.4l0,0.7H5.2c0,0,0,0,0,0c-0.3,0-0.6,0.3-0.6,0.6l-1,11.9l0,0.2c0,0.4,0.2,0.8,0.5,1.1s0.7,0.5,1.2,0.4H12h6.8
		c0.4,0,0.9-0.1,1.2-0.4s0.5-0.7,0.5-1.1l0-0.2L19.4,7.7z M9.3,6.4c0.1-0.7,0.4-1.4,1-1.9c0.5-0.4,1.1-0.6,1.8-0.6
		c0.6,0,1.3,0.2,1.8,0.6c0.6,0.5,0.9,1.1,1,1.9l0,0.8H12H9.3L9.3,6.4z M18.7,20H12H5.3c-0.4,0-0.5-0.2-0.5-0.3l1-11.2H8v1.8
		c0,0.4,0.3,0.7,0.6,0.7c0.3,0,0.6-0.3,0.6-0.7V8.4H12h2.7v1.8c0,0.4,0.3,0.7,0.6,0.7c0.4,0,0.6-0.3,0.6-0.7V8.4h2.2l1,11.2
		C19.2,19.8,19.1,20,18.7,20z"/>
</g>
</svg>
