<?xml version="1.0" encoding="UTF-8"?>
<svg id="Camada_1" xmlns="http://www.w3.org/2000/svg" width="24" height="24" version="1.1" viewBox="0 0 24 24">
  <!-- Generator: Adobe Illustrator 29.3.0, SVG Export Plug-In . SVG Version: 2.1.0 Build 146)  -->
  <path d="M2.704,13.956s0,0-.204-.456l.204.456.018-.008.052-.023c.045-.02.112-.051.198-.09.172-.078.422-.193.732-.337.621-.289,1.485-.698,2.458-1.181,1.942-.962,4.342-2.223,6.117-3.399,1.588-1.052,3.479-2.567,4.965-3.811.745-.624,1.392-1.182,1.852-1.585.159-.139.296-.259.407-.357l-.485,1.697c-.076.266.078.542.343.618.266.076.542-.078.618-.343l1-3.5c.05-.175.001-.363-.127-.491-.128-.128-.316-.177-.491-.127l-3.5,1c-.266.076-.419.353-.343.618.076.266.353.419.618.343l1.575-.45c-.081.072-.173.152-.273.239-.456.399-1.097.953-1.836,1.571-1.48,1.239-3.337,2.725-4.875,3.744-1.721,1.14-4.073,2.378-6.009,3.336-.965.478-1.822.884-2.437,1.17-.307.143-.555.256-.724.334-.085.039-.151.068-.195.088l-.05.023-.017.007c-.252.113-.365.408-.253.661.113.252.409.365.661.253Z" fill="#363636" fill-rule="evenodd"/>
  <path d="M20.5,8c-1.381,0-2.5,1.119-2.5,2.5-.418-.314-.937-.5-1.5-.5-1.381,0-2.5,1.119-2.5,2.5-.418-.314-.937-.5-1.5-.5-1.381,0-2.5,1.119-2.5,2.5-.418-.314-.937-.5-1.5-.5-1.381,0-2.5,1.119-2.5,2.5-.418-.314-.937-.5-1.5-.5-1.381,0-2.5,1.119-2.5,2.5v4c0,.276.224.5.5.5h20c.276,0,.5-.224.5-.5v-12c0-1.381-1.119-2.5-2.5-2.5ZM6,22h-3v-3.5c0-.828.672-1.5,1.5-1.5s1.5.672,1.5,1.5v3.5ZM10,22h-3v-5.5c0-.828.672-1.5,1.5-1.5s1.5.672,1.5,1.5v5.5ZM14,22h-3v-7.5c0-.828.672-1.5,1.5-1.5s1.5.672,1.5,1.5v7.5ZM18,22h-3v-9.5c0-.828.672-1.5,1.5-1.5s1.5.672,1.5,1.5v9.5ZM22,22h-3v-11.5c0-.828.672-1.5,1.5-1.5s1.5.672,1.5,1.5v11.5Z" fill="#363636" fill-rule="evenodd"/>
</svg>