<?xml version="1.0" encoding="UTF-8"?>
<svg id="Camada_1" xmlns="http://www.w3.org/2000/svg" width="24" height="24" version="1.1" viewBox="0 0 24 24">
  <!-- Generator: Adobe Illustrator 29.5.1, SVG Export Plug-In . SVG Version: 2.1.0 Build 141)  -->
  <path d="M10.625,20.125c-.414,0-.75-.336-.75-.75,0-.207-.168-.375-.375-.375-.207,0-.375.168-.375.375,0,.414-.336.75-.75.75-.207,0-.375.168-.375.375,0,.207.168.375.375.375.414,0,.75.336.75.75,0,.207.168.375.375.375.207,0,.375-.168.375-.375,0-.414.336-.75.75-.75.207,0,.375-.168.375-.375,0-.207-.168-.375-.375-.375Z" fill="#363636"/>
  <path d="M10.978,7.851c-.069-.222-.287-.371-.527-.348-.24.024-.423.214-.447.445v.102l.5,5,.019.1c.069.222.287.372.527.348.24-.024.423-.214.447-.445v-.102l-.5-5-.02-.1Z" fill="#363636"/>
  <path d="M8.978,6.851c-.069-.222-.287-.371-.527-.348-.24.024-.423.214-.447.445v.102l.5,5,.02.1c.069.222.287.372.527.348.24-.024.423-.214.447-.445v-.102l-.5-5-.02-.1Z" fill="#363636"/>
  <path d="M8.619,4.385l-.377.02c-1.823.152-3.278,1.407-3.727,3.134l-.076.352c-.378,2.169.651,4.38,2.236,5.904,1.585,1.525,3.83,2.464,6.003,1.952l.338-.095c1.656-.539,2.769-2.044,2.868-3.786l.009-.376c-.014-1.872-.917-3.663-2.249-4.969-1.333-1.305-3.143-2.171-5.025-2.136ZM14.885,11.808c-.077,1.348-.93,2.487-2.181,2.894l-.256.071c-1.746.411-3.659-.332-5.08-1.699-1.422-1.368-2.249-3.262-1.944-5.012l.058-.27c.343-1.324,1.449-2.275,2.843-2.392l.313-.016c1.565-.029,3.125.694,4.306,1.851,1.181,1.157,1.937,2.703,1.949,4.261l-.008.311Z" fill="#363636"/>
  <path d="M21.288,17.62l-3.667-2.968c.013-.025.026-.05.039-.074.014-.027.029-.056.042-.08.011-.021.026-.052.039-.082l.09-.222c.89-2.294.499-4.732-.611-6.792-1.073-1.989-2.836-3.667-4.852-4.58l-.407-.173c-3.004-1.187-5.89-.68-7.788.986-1.904,1.672-2.732,4.438-1.764,7.586l.156.463c.847,2.297,2.646,4.301,4.818,5.476,2.213,1.197,4.86,1.553,7.308.421l3.145,3.7c.015.017.032.034.049.049.559.498,1.232.728,1.99.658l.183-.033c.065-.016.129-.034.178-.048.118-.034.245-.074.32-.101l.191-.079c.425-.2.697-.506.862-.768.094-.149.156-.288.195-.391.019-.051.033-.095.043-.128.005-.016.009-.03.012-.041.001-.005.002-.01.003-.014l.002-.006v-.002c.271-.916.167-2.019-.536-2.723l-.039-.035ZM20.898,20.117c-.003.011-.006.022-.009.033l-.002.006c-.003.011-.01.031-.02.058-.02.053-.055.13-.106.212-.09.143-.229.298-.444.398l-.097.04c-.049.017-.155.05-.262.081-.052.015-.101.029-.14.038l-.038.01c-.467.043-.861-.088-1.212-.393l-3.368-3.964c-.133-.156-.345-.213-.535-.151l-.079.033c-2.188,1.155-4.631.897-6.729-.237-1.973-1.067-3.597-2.888-4.354-4.94l-.14-.413c-.867-2.818-.105-5.16,1.468-6.541,1.579-1.386,4.056-1.876,6.761-.807l.363.154c1.805.819,3.408,2.336,4.383,4.144.972,1.804,1.3,3.855.63,5.766l-.148.38s-.012.024-.045.086c-.028.053-.066.124-.101.193-.034.067-.073.148-.102.222-.014.035-.032.087-.044.145-.006.029-.014.075-.014.129,0,.048.007.153.071.264.03.052.07.099.117.137l3.923,3.174c.359.368.483,1.052.271,1.745Z" fill="#363636"/>
  <path d="M5.5,17.5c-.552,0-1-.448-1-1,0-.276-.224-.5-.5-.5-.276,0-.5.224-.5.5,0,.552-.448,1-1,1-.276,0-.5.224-.5.5,0,.276.224.5.5.5.552,0,1,.448,1,1,0,.276.224.5.5.5.276,0,.5-.224.5-.5,0-.552.448-1,1-1,.276,0,.5-.224.5-.5,0-.276-.224-.5-.5-.5Z" fill="#363636"/>
  <path d="M19.375,6.875c.414,0,.75.336.75.75,0,.207.168.375.375.375.207,0,.375-.168.375-.375,0-.414.336-.75.75-.75.207,0,.375-.168.375-.375,0-.207-.168-.375-.375-.375-.414,0-.75-.336-.75-.75,0-.207-.168-.375-.375-.375-.207,0-.375.168-.375.375,0,.414-.336.75-.75.75-.207,0-.375.168-.375.375,0,.207.168.375.375.375Z" fill="#363636"/>
</svg>