<?xml version="1.0" encoding="utf-8"?>
<!-- Generator: Adobe Illustrator 26.0.1, SVG Export Plug-In . SVG Version: 6.00 Build 0)  -->
<svg version="1.1" xmlns="http://www.w3.org/2000/svg" xmlns:xlink="http://www.w3.org/1999/xlink" x="0px" y="0px"
	 viewBox="0 0 24 24" style="enable-background:new 0 0 24 24;" xml:space="preserve">
<style type="text/css">
	.st0{fill:none;}
	.st1{display:none;}
	.st2{display:inline;}
	.st3{display:inline;clip-path:url(#SVGID_00000172442187888242964860000012410901456693329594_);}
	.st4{opacity:0.1;enable-background:new    ;}
	.st5{fill:#616161;}
	.st6{clip-path:url(#SVGID_00000024717600528006341400000016713743365287466392_);}
	.st7{fill:#FFFFFF;}
</style>
<g id="Info">
</g>
<g id="Keyline">
</g>
<g id="Create-Here">
	<path id="Elipse_2_00000161625965410951770920000014478173435058078372_" d="M12,3.5c4.687,0,8.5,3.813,8.5,8.5s-3.813,8.5-8.5,8.5
		S3.5,16.687,3.5,12S7.313,3.5,12,3.5 M12,2.5c-5.247,0-9.5,4.253-9.5,9.5s4.253,9.5,9.5,9.5s9.5-4.253,9.5-9.5S17.247,2.5,12,2.5
		L12,2.5z"/>
	<path d="M16.169,12.246c-0.272,0.003-0.497,0.228-0.5,0.5l-0.017,2.193L9.045,8.338l2.199-0.017c0.272-0.003,0.497-0.228,0.5-0.499
		c0.004-0.272-0.213-0.497-0.501-0.502L7.848,7.347c-0.273,0.003-0.498,0.228-0.5,0.5L7.32,11.243c-0.003,0.272,0.216,0.496,0.5,0.5
		c0.272-0.003,0.497-0.228,0.5-0.5l0.017-2.193l6.607,6.602l-2.199,0.017c-0.272,0.003-0.497,0.228-0.5,0.499
		c-0.004,0.272,0.213,0.497,0.501,0.502l3.396-0.027c0.273-0.003,0.498-0.228,0.5-0.5l0.028-3.396
		C16.672,12.473,16.453,12.249,16.169,12.246z"/>
</g>
</svg>
