<?xml version="1.0" encoding="UTF-8"?>
<svg id="Camada_1" xmlns="http://www.w3.org/2000/svg" width="40" height="40" version="1.1" viewBox="0 0 40 40">
  <!-- Generator: Adobe Illustrator 29.5.1, SVG Export Plug-In . SVG Version: 2.1.0 Build 141)  -->
  <path d="M38.09,12.166L27.835,1.911c-.156-.156-.368-.244-.589-.244h-14.49c-.221,0-.433.088-.589.244L1.911,12.166c-.156.156-.244.368-.244.589v14.49c0,.221.088.433.244.589l10.255,10.255c.156.156.368.244.589.244h14.49c.221,0,.433-.088.589-.244l10.255-10.255c.156-.156.244-.368.244-.589v-14.49c0-.221-.088-.433-.244-.589ZM36.667,26.9l-9.767,9.767h-13.8L3.334,26.9v-13.8L13.101,3.333h13.8l9.767,9.767v13.8Z" fill="#363636"/>
  <path d="M20,21.667c.46,0,.833-.373.833-.833v-11.667c0-.46-.373-.833-.833-.833s-.833.373-.833.833v11.667c0,.46.373.833.833.833Z" fill="#363636"/>
  <path d="M20,25.833c-.921,0-1.667.746-1.667,1.667s.746,1.667,1.667,1.667,1.667-.746,1.667-1.667-.746-1.667-1.667-1.667Z" fill="#363636"/>
</svg>