<?xml version="1.0" encoding="utf-8"?>
<!-- Generator: Adobe Illustrator 26.0.1, SVG Export Plug-In . SVG Version: 6.00 Build 0)  -->
<svg version="1.1" xmlns="http://www.w3.org/2000/svg" xmlns:xlink="http://www.w3.org/1999/xlink" x="0px" y="0px"
	 viewBox="0 0 24 24" style="enable-background:new 0 0 24 24;" xml:space="preserve">
<style type="text/css">
	.st0{display:none;}
	.st1{display:inline;}
</style>
<g id="Camada_1" class="st0">
	<g id="Create-Here" class="st1">
		<path id="vector_play" d="M4.6,2.5C4,2.3,3.3,2.5,3,3.1C2.9,3.3,2.9,3.5,2.9,3.7l2.6,16.5c0,0.2,0.1,0.5,0.2,0.7
			c0.2,0.4,0.6,0.6,1,0.6c0.3,0,0.5-0.1,0.7-0.3l13.2-10.3c0.6-0.4,0.7-1.2,0.4-1.8c-0.1-0.2-0.2-0.3-0.4-0.4L4.6,2.5z M16.8,11.7
			l-10,5.7c-0.2,0.1-0.5,0-0.5-0.1s0-0.3,0-0.3V5.6c0-0.3,0-0.3,0.2-0.4c0.1-0.1,0.3-0.1,0.3,0c0.1,0,10,5.6,10,5.6
			c0.3,0.2,0.4,0.5,0.2,0.8C16.9,11.6,16.9,11.7,16.8,11.7z"/>
	</g>
</g>
<g id="corrigido">
	<path d="M20.6,8.7l-8-3.1l-8-3.1C3.7,2.2,2.8,2.9,3,3.8l1.3,8.4l1.3,8.4c0.1,0.9,1.2,1.3,1.9,0.7l6.7-5.3l6.7-5.3
		C21.6,10.1,21.4,9,20.6,8.7z M16.9,11.6l-5,2.9l-5,2.9c-0.3,0.2-0.6,0-0.6-0.4l0-5.8l0-5.8c0-0.3,0.4-0.5,0.6-0.4l5,2.9l5,2.9
		C17.2,11,17.2,11.4,16.9,11.6z"/>
</g>
</svg>
