<?xml version="1.0" encoding="UTF-8"?>
<svg xmlns="http://www.w3.org/2000/svg" width="24" height="24" version="1.1" viewBox="0 0 24 24">
  <defs>
    <style>
      .cls-1 {
        fill: #363636;
      }
    </style>
  </defs>
  <!-- Generator: Adobe Illustrator 28.6.0, SVG Export Plug-In . SVG Version: 1.2.0 Build 709)  -->
  <g>
    <g id="Camada_1">
      <path class="cls-1" d="M22.5,13h-3.5V5c0-1.068-.416-2.072-1.172-2.829-1.51-1.511-4.146-1.511-5.656,0-.756.756-1.172,1.76-1.172,2.829v.5c0,.276.224.5.5.5s.5-.224.5-.5v-.5c0-.801.312-1.555.879-2.122,1.133-1.133,3.109-1.133,4.242,0,.566.567.879,1.321.879,2.122v8H1.5c-.276,0-.5.224-.5.5v3c0,1.202.468,2.332,1.318,3.182.73.73,1.672,1.157,2.682,1.27v1.549c0,.276.224.5.5.5s.5-.224.5-.5v-1.5h12v1.5c0,.276.224.5.5.5s.5-.224.5-.5v-1.55c1.005-.115,1.963-.549,2.682-1.268.838-.838,1.318-1.997,1.318-3.182v-3c0-.276-.224-.5-.5-.5ZM22,16.5c0,.921-.374,1.823-1.025,2.475s-1.554,1.025-2.475,1.025H5.5c-.935,0-1.813-.364-2.475-1.025-.661-.661-1.025-1.54-1.025-2.475v-2.5h20v2.5Z"/>
    </g>
  </g>
</svg>