<?xml version="1.0" encoding="UTF-8"?>
<svg id="Camada_1" xmlns="http://www.w3.org/2000/svg" width="24" height="24" version="1.1" viewBox="0 0 24 24">
  <!-- Generator: Adobe Illustrator 29.3.0, SVG Export Plug-In . SVG Version: 2.1.0 Build 146)  -->
  <path d="M21.5,6c-1.933,0-3.5-1.567-3.5-3.5,0-.276-.224-.5-.5-.5s-.5.224-.5.5c0,1.933-1.567,3.5-3.5,3.5-.276,0-.5.224-.5.5s.224.5.5.5c1.933,0,3.5,1.567,3.5,3.5,0,.276.224.5.5.5s.5-.224.5-.5c0-1.933,1.567-3.5,3.5-3.5.276,0,.5-.224.5-.5s-.224-.5-.5-.5ZM17.5,8.437c-.429-.829-1.107-1.508-1.937-1.937.829-.429,1.508-1.108,1.937-1.937.429.829,1.107,1.508,1.937,1.937-.829.429-1.508,1.108-1.937,1.937Z" fill="#363636" fill-rule="evenodd"/>
  <path d="M15,12.5c0-.276-.224-.5-.5-.5-3.037,0-5.5-2.463-5.5-5.5,0-.276-.224-.5-.5-.5s-.5.224-.5.5c0,3.037-2.463,5.5-5.5,5.5-.276,0-.5.224-.5.5s.224.5.5.5c3.037,0,5.5,2.463,5.5,5.5,0,.276.224.5.5.5s.5-.224.5-.5c0-3.037,2.463-5.5,5.5-5.5.276,0,.5-.224.5-.5ZM8.5,15.996c-.659-1.576-1.92-2.837-3.496-3.496,1.576-.659,2.837-1.92,3.496-3.496.659,1.576,1.92,2.837,3.496,3.496-1.576.659-2.837,1.92-3.496,3.496Z" fill="#363636" fill-rule="evenodd"/>
  <path d="M19.5,18c-1.38,0-2.5-1.12-2.5-2.5,0-.276-.224-.5-.5-.5s-.5.224-.5.5c0,1.38-1.12,2.5-2.5,2.5-.276,0-.5.224-.5.5s.224.5.5.5c1.38,0,2.5,1.12,2.5,2.5,0,.276.224.5.5.5s.5-.224.5-.5c0-1.38,1.12-2.5,2.5-2.5.276,0,.5-.224.5-.5s-.224-.5-.5-.5ZM16.5,19.696c-.295-.49-.707-.901-1.196-1.196.49-.295.901-.707,1.196-1.196.295.49.707.901,1.196,1.196-.49.295-.901.707-1.196,1.196Z" fill="#363636" fill-rule="evenodd"/>
</svg>