<svg xmlns="http://www.w3.org/2000/svg" width="24" height="24" viewBox="0 0 24 24"><path d="M12,21.5A2.49,2.49,0,0,0,14.29,20H9.71A2.49,2.49,0,0,0,12,21.5Z"/><path d="M17.6,14.7a1.49,1.49,0,0,1-.6-1.2v-4a5,5,0,0,0-3-4.58,2,2,0,0,0-4,0A5,5,0,0,0,7,9.5v4a1.49,1.49,0,0,1-.6,1.2L5,15.75V17.5A1.5,1.5,0,0,0,6.5,19h11A1.5,1.5,0,0,0,19,17.5V15.75Zm.4,2.8a.5.5,0,0,1-.5.5H6.5a.5.5,0,0,1-.5-.5V16.25l1-.75a2.51,2.51,0,0,0,1-2v-4a4,4,0,0,1,2.67-3.77L11,5.61V5a1,1,0,0,1,2,0v.61l.33.12A4,4,0,0,1,16,9.5v4a2.51,2.51,0,0,0,1,2l1,.75Z"/></svg>