<svg xmlns="http://www.w3.org/2000/svg" width="24" height="24" viewBox="0 0 24 24"><path d="M10.44,10c0-.27,0-.55,0-.84a.51.51,0,0,0-.5-.5H9l-.37-1.5a.52.52,0,0,0-.46-.38V4.5a.5.5,0,0,0-.5-.5H4.92a.5.5,0,0,0-.5.5V6.81H4.35a.49.49,0,0,0-.48.38l-.38,1.5h-1a.5.5,0,0,0-.5.5,25,25,0,0,0,.66,6.16,7.1,7.1,0,0,0,1.49,3.2,1.66,1.66,0,0,0,1.16.51H7.63a1.66,1.66,0,0,0,1.16-.51l0,0a5.83,5.83,0,0,0,1-2.49h-1a4.62,4.62,0,0,1-.75,1.83.65.65,0,0,1-.44.2H5.29a.7.7,0,0,1-.46-.22,6.26,6.26,0,0,1-1.22-2.73A23.84,23.84,0,0,1,3,9.69H9.45c0,.11,0,.23,0,.34Zm-5-5H7.13V6.81H5.42Zm-.9,3.69.22-.88h3l.22.88Z"/><path d="M21,7.75h-.87V6.88h.43a.5.5,0,0,0,.5-.5V4.5a.5.5,0,0,0-.5-.5H15.92a.5.5,0,0,0-.5.5V6.38a.5.5,0,0,0,.5.5h.43v.87h-.87a1,1,0,0,0-1,1V10h1V8.75H21v9.31H15.48V16h-1v2a1,1,0,0,0,1,1H21a1,1,0,0,0,1-1V8.75A1,1,0,0,0,21,7.75Zm-1.87,0H17.35V6.88h1.82Zm.93-1.87H16.42V5H20.1Z"/><circle cx="12.01" cy="13.03" r="1"/><circle cx="16.01" cy="13.03" r="1"/><circle cx="8.01" cy="13.03" r="1"/></svg>