<svg xmlns="http://www.w3.org/2000/svg" viewBox="0 0 24 24"><g id="Create-Here"><path d="M19.63,16V8A2.07,2.07,0,0,0,17.57,6H6.41A1.94,1.94,0,0,0,5,6.54,2,2,0,0,0,4.37,8v8a2.08,2.08,0,0,0,2.07,2.08H17.57A2.08,2.08,0,0,0,19.63,16Zm-1,0a1.06,1.06,0,0,1-.32.79,1.1,1.1,0,0,1-.77.32H6.42A1.09,1.09,0,0,1,5.33,16V10.14H18.67Zm0-6.8H5.32V8h0a1.08,1.08,0,0,1,1.09-1.1H17.58a1.14,1.14,0,0,1,.78.32,1.11,1.11,0,0,1,.31.79Z"/><path d="M7,14h4.17a.49.49,0,0,0,0-1H7a.49.49,0,0,0,0,1Z"/><path d="M7,12.1H17a.49.49,0,0,0,0-1H7a.49.49,0,0,0,0,1Z"/><path d="M3.52,17.09H2.46v2.12a1.07,1.07,0,0,0,1.06,1.06H5.64V19.21H3.52Z"/><path d="M20.48,19.21H18.36v1.06h2.12a1.07,1.07,0,0,0,1.06-1.06V17.09H20.48Z"/><path d="M3.52,6.91V4.79H5.64V3.73H3.52A1.07,1.07,0,0,0,2.46,4.79V6.91Z"/><path d="M20.48,3.73H18.36V4.79h2.12V6.91h1.06V4.79A1.07,1.07,0,0,0,20.48,3.73Z"/></g></svg>