<?xml version="1.0" encoding="UTF-8"?>
<svg xmlns="http://www.w3.org/2000/svg" width="24" height="24" version="1.1" viewBox="0 0 24 24">
  <defs>
    <style>
      .cls-1 {
        fill: #363636;
        fill-rule: evenodd;
      }
    </style>
  </defs>
  <!-- Generator: Adobe Illustrator 28.6.0, SVG Export Plug-In . SVG Version: 1.2.0 Build 709)  -->
  <g>
    <g id="Camada_1">
      <g>
        <path class="cls-1" d="M8.092,10.38c.439.65,1.006,1.22,1.712,1.568.155.077.338.068.485-.024.147-.091.236-.252.236-.425,0-.181.06-.386.218-.62.172-.255.342-.424.544-.624.069-.069.152-.147.239-.229.142-.134.294-.278.417-.407.092-.096.184-.2.27-.314.3.223.558.476.726.753.301.495.535.991.535,1.44,0,.173.089.333.236.425.147.091.33.1.485.024.706-.349,1.273-.918,1.712-1.568.487-.721.592-1.539.592-2.28,0-.589-.055-1.699-.683-2.993-.629-1.297-1.816-2.743-4.019-4.038-.145-.085-.323-.092-.473-.018s-.254.218-.276.385l-.064.497c-.095.464-.193.76-.326,1.026-.137.275-.322.538-.624.935-.149.188-.357.385-.625.634l-.013.012c-.255.238-.551.515-.826.833-.569.658-1.071,1.52-1.071,2.727,0,.793.228,1.57.56,2.226.009.019.02.037.032.054ZM9.328,6.027c.239-.277.501-.522.765-.768l.012-.011c.25-.233.516-.482.718-.739l.005-.007c.304-.401.541-.729.725-1.096.161-.322.273-.657.369-1.08,1.638,1.091,2.518,2.234,2.995,3.217.536,1.106.583,2.046.583,2.557,0,.659-.097,1.241-.421,1.72-.222.329-.471.615-.744.846-.137-.427-.351-.814-.541-1.126-.365-.601-.951-1.052-1.489-1.37-.125-.074-.277-.09-.415-.044-.138.047-.249.151-.303.286-.067.166-.187.329-.367.518-.114.119-.221.221-.341.333-.089.084-.185.173-.294.281l-.007.007c-.201.199-.433.428-.664.769-.083.123-.154.249-.212.378-.281-.23-.537-.518-.765-.852-.268-.538-.438-1.15-.438-1.746,0-.893.359-1.531.828-2.073Z"/>
        <path class="cls-1" d="M23,12.5c0-.965-.526-1.691-1.318-2.244-.776-.543-1.856-.959-3.102-1.329-.265-.078-.543.072-.622.337-.078.265.073.543.337.622,1.225.363,2.176.744,2.813,1.19.622.435.891.89.891,1.425,0,.304-.172.679-.633,1.099-.457.415-1.148.825-2.052,1.187-1.805.722-4.364,1.214-7.314,1.214s-5.51-.492-7.314-1.214c-.904-.362-1.596-.772-2.052-1.187-.461-.419-.633-.795-.633-1.099,0-.535.269-.99.891-1.425.638-.446,1.588-.826,2.813-1.19.265-.079.416-.357.337-.622-.078-.265-.357-.416-.622-.337-1.246.37-2.326.786-3.102,1.329-.791.554-1.318,1.279-1.318,2.244,0,.079.005.158.015.235-.01.039-.015.079-.015.121v5.644c0,.696.391,1.32.961,1.839.574.522,1.383.987,2.354,1.375,1.946.778,4.636,1.286,7.686,1.286s5.74-.508,7.686-1.286c.971-.388,1.779-.853,2.354-1.375.57-.518.961-1.142.961-1.839v-5.644c0-.042-.005-.083-.015-.121.01-.077.015-.156.015-.235ZM22,18.5c0,.303-.172.679-.633,1.099-.457.415-1.148.825-2.052,1.187-1.805.722-4.364,1.214-7.314,1.214s-5.51-.492-7.314-1.214c-.904-.362-1.596-.772-2.052-1.187-.461-.419-.633-.795-.633-1.099v-4.126c.572.508,1.365.961,2.314,1.34,1.946.778,4.636,1.286,7.686,1.286s5.74-.508,7.686-1.286c.949-.379,1.742-.832,2.314-1.34v4.126Z"/>
      </g>
    </g>
  </g>
</svg>