<?xml version="1.0" encoding="utf-8"?>
<!-- Generator: Adobe Illustrator 28.4.1, SVG Export Plug-In . SVG Version: 6.00 Build 0)  -->
<svg version="1.0" id="Camada_1" xmlns="http://www.w3.org/2000/svg" xmlns:xlink="http://www.w3.org/1999/xlink" x="0px" y="0px"
	 width="24px" height="24px" viewBox="0 0 24 24" enable-background="new 0 0 24 24" xml:space="preserve">
<path fill-rule="evenodd" clip-rule="evenodd"    d="M16.5,3.1c0.1,0,0.3,0.1,0.4,0.2c0.1,0.1,0.6,0.6,1.1,1.4
	c0.5,0.8,1,1.8,1,2.9c0,1.4-1.1,2.5-2.5,2.5C15.1,10,14,8.9,14,7.5c0-1.1,0.5-2.2,1-2.9c0.5-0.8,1-1.3,1.1-1.4
	C16.2,3.1,16.4,3.1,16.5,3.1z M16.5,4.3c-0.2,0.2-0.4,0.5-0.6,0.9C15.4,5.9,15,6.7,15,7.5C15,8.4,15.7,9,16.5,9
	C17.3,9,18,8.4,18,7.5c0-0.8-0.4-1.7-0.9-2.4C16.9,4.8,16.7,4.5,16.5,4.3z"/>
<path fill-rule="evenodd" clip-rule="evenodd"    d="M21.5,17c-0.1-0.2-0.2-0.5-0.3-0.7c-0.2-0.2-0.4-0.4-0.6-0.5
	c-1.2-0.6-3.4-0.2-4.5,0.2c-0.1-0.4-0.3-0.7-0.5-0.9c-0.3-0.2-0.6-0.4-1-0.4c-1.2-0.3-2.3-0.7-3.4-1.2c-1.2-0.5-2.6-0.5-3.9-0.2
	c-0.1-0.1-0.2-0.2-0.3-0.2L3.2,12c-0.1,0-0.2,0-0.2,0c-0.1,0-0.1,0-0.2,0.1s-0.1,0.1-0.1,0.2c0,0.1-0.1,0.1-0.1,0.2v6.2
	c0,0.1,0.1,0.3,0.1,0.4C2.8,19,2.9,19.1,3,19.1h2.8c0.1,0,0.2,0,0.3-0.1c0.1-0.1,0.2-0.2,0.2-0.3l0.1-0.4l4.9,1.8
	c0.6,0.2,1.1,0.3,1.7,0.3c0.6,0,1.3-0.1,1.9-0.4l6.3-2.6c0.1,0,0.2-0.1,0.2-0.2C21.5,17.2,21.5,17.1,21.5,17z M5.5,18.1h-2v-5
	l2.8,0.8L5.5,18.1z M14.6,19.2c-0.9,0.4-1.9,0.4-2.9,0.1l-5-1.9l0.6-3c1.2-0.3,2.4-0.3,3.5,0.1c1.1,0.5,2.3,1,3.6,1.2
	c0.6,0.1,0.8,0.4,0.7,0.7s-0.2,0.4-0.6,0.4c-1.4-0.2-2.8-0.4-4.2-0.9c-0.1,0-0.1,0-0.2,0c-0.1,0-0.1,0-0.2,0c-0.1,0-0.1,0.1-0.2,0.1
	c0,0.1-0.1,0.1-0.1,0.2c0,0.1,0,0.1,0,0.2c0,0.1,0,0.1,0.1,0.2s0.1,0.1,0.1,0.2c0.1,0,0.1,0.1,0.2,0.1c1.4,0.4,2.9,0.7,4.4,0.9h0.2
	c0.2,0,0.4,0,0.6-0.1c0.2-0.1,0.4-0.2,0.5-0.4c1-0.3,3.3-1,4.3-0.5c0.1,0,0.1,0.1,0.2,0.1L14.6,19.2z"/>
<path fill-rule="evenodd" clip-rule="evenodd"    d="M11.4,5.7c-0.1-0.1-0.2-0.2-0.4-0.2c-0.2,0-0.3,0.1-0.4,0.2
	c-0.1,0.1-0.5,0.5-0.8,1.1C9.4,7.3,9,8.1,9,9c0,1.1,0.9,2,2,2c1.1,0,2-0.9,2-2c0-0.9-0.4-1.7-0.8-2.3C11.8,6.1,11.4,5.7,11.4,5.7z
	 M10.6,7.3c0.1-0.2,0.3-0.4,0.4-0.5c0.1,0.1,0.2,0.3,0.4,0.5C11.7,7.8,12,8.4,12,9c0,0.6-0.4,1-1,1c-0.6,0-1-0.4-1-1
	C10,8.4,10.3,7.8,10.6,7.3z"/>
</svg>
