<?xml version="1.0" encoding="UTF-8"?>
<svg id="Camada_1" xmlns="http://www.w3.org/2000/svg" width="24" height="24" version="1.1" viewBox="0 0 24 24">
  <!-- Generator: Adobe Illustrator 29.5.1, SVG Export Plug-In . SVG Version: 2.1.0 Build 141)  -->
  <path d="M13.396,21.995h-.009c-1.219-.003-2.213-.059-2.978-.734l-.397-.423c-.537-.68-.938-1.521-1.619-3.363-.695-1.878-.813-2.151-1.267-2.921l-.065-.11c-.204-.346-.553-.938-.764-1.21-.036.038-.074.088-.093.143-.07.289-.185,2.746-.192,5.9-.003,1.297-.013,2.224-.013,2.224-.003.274-.226.495-.5.495h-1.995c-.135,0-.264-.055-.358-.151s-.145-.228-.142-.362c0-.017.045-1.694,0-3.2l-.025-.849c-.1-3.433-.126-4.354-.65-6.122-.541-1.823-.302-3.166-.092-4.351.25-1.412.783-2.69,1.63-3.907h0c.007-.011.845-1.054,1.289-1.054.342.002.669.214,1.515,1.37.907,1.24,1.33,2.222,2.097,4.004.29.673.632,1.467,1.071,2.442.613,1.357,1.227,2.691,1.37,2.973.347.688.922,1.424,1.336,1.713.537.375.792.453,2.042.388l1.145-.063c.086-.011.181.015.26.057l.998.524c1.443.757,3.932,2.145,4.271,2.425.33.271.713.662.736,1.281.024.586-.374,1.219-.772,1.49-.273.188-.781.297-2.137.587l-1.211.262c-1.144.25-3.565.544-4.482.544ZM6.385,12.165c.456,0,.749.433,1.538,1.771l.065.11c.49.831.628,1.148,1.343,3.082.72,1.948,1.062,2.578,1.441,3.06l.335.357c.427.374,1.08.447,2.282.45h.009c.849,0,3.194-.286,4.267-.521l1.216-.263c.916-.196,1.64-.352,1.786-.438.136-.093.341-.41.332-.623-.007-.181-.11-.334-.371-.549-.216-.171-2.324-1.379-4.102-2.312l-.876-.46-1.007.056c-1.313.072-1.854.003-2.669-.565-.558-.391-1.224-1.227-1.656-2.082-.15-.298-.76-1.621-1.388-3.013-.442-.98-.787-1.78-1.079-2.457-.763-1.771-1.146-2.661-1.986-3.809-.342-.467-.555-.716-.683-.847-.173.154-.394.369-.493.511-.773,1.111-1.239,2.227-1.466,3.51-.209,1.181-.407,2.295.066,3.892.561,1.892.588,2.841.691,6.376l.025.849c.03,1.021.021,2.119.01,2.743h.989c.003-.396.007-1.001.008-1.721.004-1.812.07-5.717.248-6.227.174-.503.658-.883,1.125-.883Z" fill="#363636"/>
</svg>