<svg xmlns="http://www.w3.org/2000/svg" width="24" height="24" viewBox="0 0 24 24"><defs><style>.a{fill:none;}</style></defs><path d="M15.885.033a.5.5,0,0,0-.638.3A7.711,7.711,0,0,1,10.7,5.02,7.326,7.326,0,0,1,4.986,4.8,7.692,7.692,0,0,1,.972.333.5.5,0,0,0,.028.666,8.976,8.976,0,0,0,1.354,3.115L.252,4.291a.54.54,0,0,0,0,.729.461.461,0,0,0,.682,0L2.009,3.873A8.569,8.569,0,0,0,4.151,5.486L3.6,6.916a.53.53,0,0,0,.261.674.47.47,0,0,0,.186.039.484.484,0,0,0,.446-.318l.55-1.416A8.521,8.521,0,0,0,6.3,6.279l.028.008a8.311,8.311,0,0,0,1.3.179h0V7.984a.484.484,0,1,0,.965,0V6.467a7.563,7.563,0,0,0,2.465-.511c.044-.016.084-.038.126-.055l.548,1.41a.484.484,0,0,0,.446.318.462.462,0,0,0,.185-.039.529.529,0,0,0,.261-.674L12.07,5.49a8.574,8.574,0,0,0,2.143-1.613L15.284,5.02a.463.463,0,0,0,.684,0,.542.542,0,0,0,0-.729l-1.1-1.177A8.916,8.916,0,0,0,16.189.671a.5.5,0,0,0-.3-.638" transform="translate(4.001 8)"/><rect class="a" width="24" height="24"/></svg>