<?xml version="1.0" encoding="UTF-8"?>
<svg id="Camada_1" xmlns="http://www.w3.org/2000/svg" width="24" height="24" version="1.1" viewBox="0 0 24 24">
  <!-- Generator: Adobe Illustrator 29.1.0, SVG Export Plug-In . SVG Version: 2.1.0 Build 142)  -->
  <path d="M18.5,9h-3.5v-3.5c0-.276-.224-.5-.5-.5h-5c-.276,0-.5.224-.5.5v3.5h-3.5c-.276,0-.5.224-.5.5v5c0,.276.224.5.5.5h3.5v3.5c0,.276.224.5.5.5h5c.276,0,.5-.224.5-.5v-3.5h3.5c.276,0,.5-.224.5-.5v-5c0-.276-.224-.5-.5-.5ZM18,14h-3.5c-.276,0-.5.224-.5.5v3.5h-4v-3.5c0-.276-.224-.5-.5-.5h-3.5v-4h3.5c.276,0,.5-.224.5-.5v-3.5h4v3.5c0,.276.224.5.5.5h3.5v4Z" fill="#363636" fill-rule="evenodd"/>
  <path d="M19.5,2H4.5c-1.381,0-2.5,1.119-2.5,2.5v15c0,1.381,1.119,2.5,2.5,2.5h15c1.381,0,2.5-1.119,2.5-2.5V4.5c0-1.381-1.119-2.5-2.5-2.5ZM21,19.5c0,.828-.672,1.5-1.5,1.5H4.5c-.828,0-1.5-.672-1.5-1.5V4.5c0-.828.672-1.5,1.5-1.5h15c.828,0,1.5.672,1.5,1.5v15Z" fill="#363636" fill-rule="evenodd"/>
</svg>