<?xml version="1.0" encoding="utf-8"?>
<!-- Generator: Adobe Illustrator 28.4.1, SVG Export Plug-In . SVG Version: 6.00 Build 0)  -->
<svg version="1.0" id="Camada_1" xmlns="http://www.w3.org/2000/svg" xmlns:xlink="http://www.w3.org/1999/xlink" x="0px" y="0px"
	 width="24px" height="24px" viewBox="0 0 24 24" enable-background="new 0 0 24 24" xml:space="preserve">
<path fill-rule="evenodd" clip-rule="evenodd"    d="M11.2,4.5c0.2,0.1,0.3,0.3,0.3,0.5v14c0,0.2-0.1,0.4-0.3,0.5
	c-0.2,0.1-0.4,0.1-0.5-0.1l-4.9-3.9H2c-0.3,0-0.5-0.2-0.5-0.5V9c0-0.3,0.2-0.5,0.5-0.5h3.8l4.9-3.9C10.8,4.5,11,4.5,11.2,4.5z
	 M10.5,6L6.3,9.4C6.2,9.5,6.1,9.5,6,9.5H2.5v5H6c0.1,0,0.2,0,0.3,0.1l4.2,3.4V6z"/>
<path    d="M22.4,8.6c0.2,0.2,0.2,0.5,0,0.7L19.7,12l2.6,2.6c0.2,0.2,0.2,0.5,0,0.7c-0.2,0.2-0.5,0.2-0.7,0L19,12.7
	l-2.6,2.6c-0.2,0.2-0.5,0.2-0.7,0c-0.2-0.2-0.2-0.5,0-0.7l2.6-2.6l-2.6-2.6c-0.2-0.2-0.2-0.5,0-0.7c0.2-0.2,0.5-0.2,0.7,0l2.6,2.6
	l2.6-2.6C21.8,8.5,22.2,8.5,22.4,8.6z"/>
</svg>
