<?xml version="1.0" encoding="utf-8"?>
<!-- Generator: Adobe Illustrator 28.4.1, SVG Export Plug-In . SVG Version: 6.00 Build 0)  -->
<svg version="1.0" id="Camada_1" xmlns="http://www.w3.org/2000/svg" xmlns:xlink="http://www.w3.org/1999/xlink" x="0px" y="0px"
	 width="24px" height="24px" viewBox="0 0 24 24" enable-background="new 0 0 24 24" xml:space="preserve">
<path    d="M19.4,4.6c-0.2-0.2-0.5-0.2-0.7,0c-0.2,0.2-0.2,0.5,0,0.7c1.8,1.8,2.8,4.2,2.8,6.7c0,2.5-1,4.9-2.8,6.7
	c-0.2,0.2-0.2,0.5,0,0.7c0.2,0.2,0.5,0.2,0.7,0c2-2,3.1-4.6,3.1-7.4C22.5,9.2,21.4,6.5,19.4,4.6z"/>
<path    d="M15.9,8.1c-0.2-0.2-0.5-0.2-0.7,0c-0.2,0.2-0.2,0.5,0,0.7c0.8,0.8,1.3,2,1.3,3.2c0,1.2-0.5,2.3-1.3,3.2
	c-0.2,0.2-0.2,0.5,0,0.7c0.2,0.2,0.5,0.2,0.7,0c1-1,1.6-2.4,1.6-3.9S16.9,9.1,15.9,8.1z"/>
<path fill-rule="evenodd" clip-rule="evenodd"    d="M11.5,5c0-0.2-0.1-0.4-0.3-0.5c-0.2-0.1-0.4-0.1-0.5,0.1L5.8,8.5H2
	C1.7,8.5,1.5,8.7,1.5,9v6c0,0.3,0.2,0.5,0.5,0.5h3.8l4.9,3.9c0.2,0.1,0.4,0.1,0.5,0.1c0.2-0.1,0.3-0.3,0.3-0.5V5z M6.3,9.4L10.5,6
	V18l-4.2-3.4c-0.1-0.1-0.2-0.1-0.3-0.1H2.5v-5H6C6.1,9.5,6.2,9.5,6.3,9.4z"/>
</svg>
