<?xml version="1.0" encoding="UTF-8"?>
<svg xmlns="http://www.w3.org/2000/svg" width="24" height="24" version="1.1" viewBox="0 0 24 24">

        <path class="cls-1" d="M12.5,4h1.5v1.5c0,.276.224.5.5.5s.5-.224.5-.5v-1.5h1.5c.276,0,.5-.224.5-.5s-.224-.5-.5-.5h-1.5v-1.5c0-.276-.224-.5-.5-.5s-.5.224-.5.5v1.5h-1.5c-.276,0-.5.224-.5.5s.224.5.5.5Z"/>
        <path class="cls-1" d="M20.924,14.632c-.722.271-1.556.368-2.424.368-5.224,0-9.5-4.276-9.5-9.5,0-.868.097-1.702.368-2.424.065-.174.028-.371-.096-.509-.124-.139-.316-.197-.496-.151C4.255,3.572,1,7.671,1,12.5c0,5.776,4.724,10.5,10.5,10.5,4.829,0,8.928-3.255,10.084-7.776.046-.18-.012-.372-.151-.496s-.335-.161-.51-.096ZM11.5,22c-5.224,0-9.5-4.276-9.5-9.5,0-4.059,2.54-7.541,6.169-8.853-.125.609-.169,1.238-.169,1.853,0,5.776,4.724,10.5,10.5,10.5.614,0,1.244-.045,1.853-.169-1.312,3.63-4.793,6.169-8.853,6.169Z"/>
        <path class="cls-1" d="M22.5,9h-1.5v-1.5c0-.276-.224-.5-.5-.5s-.5.224-.5.5v1.5h-1.5c-.276,0-.5.224-.5.5s.224.5.5.5h1.5v1.5c0,.276.224.5.5.5s.5-.224.5-.5v-1.5h1.5c.276,0,.5-.224.5-.5s-.224-.5-.5-.5Z"/>

</svg>