<svg xmlns="http://www.w3.org/2000/svg" width="24" height="24" viewBox="0 0 24 24">
  <g id="Create-Here">
    <g>
      <rect width="24" height="24" style="fill: none"/>
      <path d="M19.4,7.83a.51.51,0,0,0,.35-.15L21.38,6a.48.48,0,0,0,0-.7L18.93,2.89a.5.5,0,0,0-.71,0L16.59,4.52a.51.51,0,0,0-.15.35v.61L12.1,9.83,10.77,8.5a4,4,0,0,0-5.44-5l-.63.31,2,2a.68.68,0,0,1,.19.47.64.64,0,0,1-.19.45.68.68,0,0,1-.94,0l-2-2-.3.63a4,4,0,0,0,4.95,5.44l.1.1-1,1a1,1,0,0,0,0,1.42l.11.11L4.33,16.78a2.22,2.22,0,0,0,0,3.16,2.21,2.21,0,0,0,3.15,0l3.33-3.32.11.11a1,1,0,0,0,.71.29h0a1,1,0,0,0,.71-.29l.65-.65a4,4,0,0,0,3.86,4.82,4,4,0,0,0,1.72-.39l.63-.3-2-2a.67.67,0,0,1-.2-.47.75.75,0,0,1,.19-.47.67.67,0,0,1,.93,0l2,2,.3-.63a4,4,0,0,0-5-5.44l-1-1,4.35-4.34Zm-11.07,2A3,3,0,0,1,4.14,6.55l.92.93a1.68,1.68,0,0,0,2.34,0,1.63,1.63,0,0,0,0-2.33l-.93-.93a3,3,0,0,1,3.26,4.2l-.15.31,1.81,1.81-.58.59-.52-.52a1,1,0,0,0-1-.25l-.69-.69ZM11.63,16l-.47-.46a.48.48,0,0,0-.7,0L6.78,19.24A1.24,1.24,0,0,1,5,17.49l3.68-3.68a.48.48,0,0,0,0-.7l-.46-.47L9.58,11.3l.86.86,0,0,1.63,1.63,0,0,.86.86Zm3.63-1.62.31-.15a3,3,0,0,1,3.39.58,3,3,0,0,1,.81,2.68l-.93-.93a1.68,1.68,0,0,0-2.34,0A1.7,1.7,0,0,0,16,17.75a1.67,1.67,0,0,0,.49,1.17l.92.92a3,3,0,0,1-3.25-4.18l.15-.32-.41-.41a1,1,0,0,0-.25-.95l-.52-.52.59-.58Zm3-7.43-5.77,5.78-.93-.93L17.3,6a.5.5,0,0,0,.14-.35V5.08L18.58,4l1.74,1.74L19.19,6.83h-.61A.54.54,0,0,0,18.22,7Z"/>
    </g>
  </g>
</svg>
