<?xml version="1.0" encoding="UTF-8"?>
<svg xmlns="http://www.w3.org/2000/svg" width="24" height="24" version="1.1" viewBox="0 0 24 24">

        <path class="cls-1" d="M7.5,21h-1c-1.381,0-2.5-1.119-2.5-2.5V6h9v4.5c0,.276.224.5.5.5s.5-.224.5-.5v-5c0-.276-.224-.5-.5-.5h-1.5v-2.5c0-.276-.224-.5-.5-.5h-6c-.276,0-.5.224-.5.5v2.5h-1.5c-.276,0-.5.224-.5.5v13c0,1.933,1.567,3.5,3.5,3.5h1c.276,0,.5-.224.5-.5s-.224-.5-.5-.5ZM6,3h5v2h-5v-2Z"/>
        <path class="cls-1" d="M20.854,11.146c-.094-.094-.221-.146-.354-.146-1.724,0-3.377.685-4.596,1.904-.79.79-1.356,1.763-1.656,2.819-.236-.403-.523-.777-.859-1.112-1.031-1.031-2.43-1.611-3.889-1.611-.133,0-.26.053-.354.146-.094.094-.146.221-.146.354v3c0,1.459.579,2.858,1.611,3.889,1.031,1.031,2.43,1.611,3.889,1.611,1.724,0,3.377-.685,4.596-1.904s1.904-2.872,1.904-4.596v-4c0-.133-.053-.26-.146-.354ZM14,20.972c-1.01-.113-1.957-.565-2.682-1.29-.844-.844-1.318-1.989-1.318-3.182v-2.472c1.01.113,1.957.565,2.682,1.29.844.844,1.318,1.989,1.318,3.182v2.472ZM20,15.5c0,1.459-.58,2.858-1.611,3.889-.913.913-2.114,1.472-3.389,1.588v-3.477c0-1.459.58-2.858,1.611-3.889.913-.913,2.114-1.472,3.389-1.588v3.477Z"/>

</svg>