<?xml version="1.0" encoding="UTF-8"?>
<svg xmlns="http://www.w3.org/2000/svg" width="24" height="24" version="1.1" viewBox="0 0 24 24">
  <defs>
    <style>
      .cls-1 {
        fill: #363636;
        fill-rule: evenodd;
      }
    </style>
  </defs>
  <!-- Generator: Adobe Illustrator 28.6.0, SVG Export Plug-In . SVG Version: 1.2.0 Build 709)  -->
  <g>
    <g id="Camada_1">
      <g>
        <path class="cls-1" d="M19.917,10.143c.055-.205.083-.421.083-.643,0-1.381-1.119-2.5-2.5-2.5-.765,0-1.45.344-1.908.885l-.592-.592V1.5c0-.276-.224-.5-.5-.5h-4c-.276,0-.5.224-.5.5v5.793l-1.682,1.682c-.844.844-1.318,1.989-1.318,3.182v.843c-.744,0-1.392.406-1.737,1.007-1.232.152-2.263,1.2-2.263,2.493,0,1.381,1.119,2.5,2.5,2.5.232,0,.457-.032.671-.091.159.509.448.961.829,1.313v1.278c0,.828.672,1.5,1.5,1.5h8c.828,0,1.5-.672,1.5-1.5v-5.671c.313.111.65.171,1,.171,1.657,0,3-1.343,3-3,0-1.337-.875-2.47-2.083-2.857ZM11,2h3v3h-3v-3ZM7.044,18.219c-.002-.018-.005-.035-.008-.052-.006-.075-.03-.149-.071-.217-.143-.236-.451-.311-.687-.168-.226.138-.492.217-.778.217-.828,0-1.5-.672-1.5-1.5,0-.81.723-1.512,1.57-1.512.067,0,.13-.013.188-.037.135-.048.249-.153.303-.298.141-.382.509-.653.938-.653.552,0,1,.448,1,1,0,.118-.02.23-.057.333-.035.1-.037.204-.011.299.002.016.005.032.009.048.063.269.332.436.601.373.147-.034.3-.053.458-.053.446,0,.858.146,1.19.393.006.005.013.01.019.014.48.365.791.943.791,1.593,0,.429-.135.826-.365,1.152-.029.03-.055.064-.076.1-.367.456-.929.748-1.56.748-1.023,0-1.847-.771-1.956-1.781ZM11,15.764v-3.764h3v7h-2.171c.111-.313.171-.649.171-1,0-.888-.386-1.687-1-2.236ZM17,21.5c0,.276-.224.5-.5.5h-8c-.276,0-.5-.224-.5-.5v-.672c.311.111.647.172,1,.172.888,0,1.687-.386,2.236-1h3.264c.276,0,.5-.224.5-.5v-8c0-.276-.224-.5-.5-.5h-4c-.276,0-.5.224-.5.5v3.671c-.313-.111-.65-.171-1-.171,0-.74-.402-1.386-1-1.732v-1.111c0-.928.369-1.819,1.025-2.475l1.828-1.828c.094-.094.146-.221.146-.354v-1.5h3v1.5c0,.133.053.26.146.354l1.828,1.828c.656.656,1.025,1.547,1.025,2.475v9.343ZM19,15c-.365,0-.706-.097-1-.268v-2.576c0-1.194-.474-2.338-1.318-3.182l-.379-.379c.274-.363.709-.596,1.197-.596.828,0,1.5.672,1.5,1.5,0,.263-.068.51-.186.724-.005.009-.01.019-.015.028-.038.063-.063.135-.07.213-.025.275.178.518.453.543,1.018.092,1.817.949,1.817,1.992,0,1.105-.895,2-2,2Z"/>
        <path class="cls-1" d="M20,6c1.105,0,2-.895,2-2s-.895-2-2-2-2,.895-2,2,.895,2,2,2ZM20,3c.552,0,1,.448,1,1s-.448,1-1,1-1-.448-1-1,.448-1,1-1Z"/>
        <path class="cls-1" d="M5,11.5c0-.828-.672-1.5-1.5-1.5s-1.5.672-1.5,1.5.672,1.5,1.5,1.5,1.5-.672,1.5-1.5ZM3,11.5c0-.276.224-.5.5-.5s.5.224.5.5-.224.5-.5.5-.5-.224-.5-.5Z"/>
      </g>
    </g>
  </g>
</svg>