<?xml version="1.0" encoding="UTF-8"?>
<svg xmlns="http://www.w3.org/2000/svg" width="24" height="24" version="1.1" viewBox="0 0 24 24">
  <defs>
    <style>
      .cls-1 {
        fill: #363636;
      }
    </style>
  </defs>
  <!-- Generator: Adobe Illustrator 28.6.0, SVG Export Plug-In . SVG Version: 1.2.0 Build 709)  -->
  <g>
    <g id="Camada_1">
      <path class="cls-1" d="M12,1C5.935,1,1,5.935,1,12s4.935,11,11,11,11-4.935,11-11S18.065,1,12,1ZM12,2c3.774,0,7.065,2.103,8.767,5.198-.429.347-.668.992-.846,1.675-.122.463-.226.747-.303.919-.077-.172-.181-.456-.303-.918-.254-.973-.584-1.874-1.269-1.874s-1.015.9-1.27,1.874c-.121.462-.225.746-.302.918-.078-.172-.182-.456-.303-.918-.254-.973-.584-1.874-1.27-1.874s-1.015.9-1.269,1.874c-.121.462-.225.746-.302.918-.078-.172-.182-.456-.303-.918-.255-.973-.585-1.873-1.27-1.873s-1.015.9-1.27,1.874c-.121.462-.224.746-.302.918-.077-.172-.181-.456-.302-.918-.255-.973-.585-1.873-1.27-1.873s-1.015.9-1.27,1.873c-.121.463-.225.746-.302.918-.078-.172-.181-.456-.302-.918-.255-.973-.585-1.873-1.27-1.873s-1.015.9-1.27,1.874c-.121.462-.224.746-.302.918-.077-.172-.181-.456-.302-.918l-.073-.284c-.145-.569-.265-1.019-.364-1.261,1.681-3.166,5.008-5.328,8.835-5.328ZM2.544,8.774c.005.019.012.045.016.063l.074.29c.255.973.585,1.873,1.27,1.873s1.014-.9,1.269-1.873c.121-.463.225-.747.302-.919.077.172.181.456.302.918.255.973.585,1.874,1.269,1.874h0c.684,0,1.015-.9,1.27-1.873.121-.462.225-.746.302-.918.077.172.181.456.302.918.255.973.585,1.873,1.27,1.873s1.014-.9,1.269-1.873c.121-.463.225-.747.302-.918.078.172.181.456.303.918.254.973.584,1.874,1.269,1.874s1.016-.9,1.27-1.874c.121-.462.225-.746.302-.918.078.172.182.456.303.918.255.973.585,1.873,1.27,1.873s1.015-.9,1.269-1.873c.121-.462.225-.746.303-.918.077.172.181.456.302.918.255.973.585,1.873,1.27,1.873s1.015-.9,1.27-1.874c.133-.509.252-.8.343-.967.494,1.183.769,2.48.769,3.84,0,1.095-.183,2.146-.51,3.133-.025-.087-.055-.174-.078-.26-.254-.973-.584-1.873-1.269-1.873s-1.016.9-1.27,1.873c-.121.463-.225.746-.302.919-.078-.173-.182-.456-.303-.919-.255-.973-.585-1.873-1.27-1.873s-1.015.9-1.269,1.873c-.122.463-.226.747-.303.919-.077-.172-.181-.456-.303-.919-.254-.973-.584-1.873-1.269-1.873s-1.015.9-1.27,1.873c-.121.463-.225.746-.302.918-.078-.172-.182-.455-.302-.918-.255-.973-.585-1.873-1.269-1.873h0c-.684,0-1.015.9-1.27,1.873-.121.463-.225.746-.302.918-.077-.172-.181-.455-.302-.918-.255-.973-.585-1.873-1.27-1.873s-1.015.9-1.27,1.873c-.121.463-.224.746-.302.919-.077-.173-.181-.456-.302-.919-.255-.973-.585-1.873-1.27-1.873s-1.015.9-1.288,1.944c-.09.346-.207.784-.333.988-.519-1.208-.808-2.537-.808-3.933,0-1.13.197-2.212.544-3.226ZM12,22c-3.748,0-7.017-2.076-8.729-5.135.477-.315.659-.984.856-1.738.121-.463.225-.746.302-.918.077.172.181.455.302.918.255.973.585,1.873,1.27,1.873s1.014-.9,1.269-1.873c.121-.463.225-.747.302-.919.077.172.181.456.302.919.255.973.585,1.873,1.27,1.873s1.015-.9,1.27-1.873c.121-.463.225-.746.302-.918.078.172.181.455.302.918.255.973.586,1.873,1.27,1.873s1.015-.9,1.269-1.873c.121-.463.225-.746.303-.918.077.172.181.455.302.918.255.973.585,1.873,1.27,1.873s1.015-.9,1.27-1.873c.121-.463.225-.746.302-.918.078.172.182.455.303.918.254.973.584,1.873,1.27,1.873s1.015-.9,1.269-1.873c.121-.463.225-.746.302-.918.078.175.184.464.308.938.09.342.217.8.523,1.238-1.629,3.319-5.034,5.615-8.973,5.615Z"/>
    </g>
  </g>
</svg>