<?xml version="1.0" encoding="UTF-8"?>
<svg xmlns="http://www.w3.org/2000/svg" width="24" height="24" version="1.1" viewBox="0 0 24 24">

      <path  d="M21.854,17.146l-4.147-4.147,5.146-5.146c.195-.195.195-.512,0-.707l-5-5c-.188-.188-.52-.188-.707,0l-5.146,5.146L5.854,1.146c-.195-.195-.512-.195-.707,0L1.146,5.146c-.195.195-.195.512,0,.707l6.146,6.146-5.147,5.147c-.195.195-.195.512,0,.707l5,5c.094.094.221.146.354.146s.26-.053.354-.146l5.147-5.147,4.147,4.147c.069.07.158.117.256.137l5,1c.032.007.065.01.098.01.131,0,.259-.052.354-.146.118-.118.17-.288.137-.451l-1-5c-.02-.098-.066-.187-.137-.256ZM2.207,5.5l3.293-3.293,5.793,5.793-3.293,3.293L2.207,5.5ZM7.499,21.793l-4.292-4.293,2.293-2.293.647.647c.098.098.226.146.354.146s.256-.049.354-.146c.195-.195.195-.512,0-.707l-.647-.647,2.145-2.145s.001,0,.002-.001,0-.001.001-.002l.145-.145,1.647,1.647c.098.098.226.146.354.146s.256-.049.354-.146c.195-.195.195-.512,0-.707l-1.647-1.647,2.293-2.293.647.647c.098.098.226.146.354.146s.256-.049.354-.146c.195-.195.195-.512,0-.707l-.647-.647.145-.144s.002,0,.002-.002,0-.002.002-.002l2.144-2.145,1.647,1.647c.098.098.226.146.354.146s.256-.049.354-.146c.195-.195.195-.512,0-.707l-1.647-1.647,2.292-2.293,4.293,4.293-14.293,14.293ZM17.746,21.039l-4.04-4.04,3.293-3.293,4.04,4.04.823,4.116-4.116-.823Z"/>

</svg>