<svg xmlns="http://www.w3.org/2000/svg" width="24" height="24" viewBox="0 0 24 24">
  <g id="Create-Here">
    <g>
      <rect width="24" height="24" style="fill: none"/>
      <path d="M5.11,19.14A.54.54,0,0,1,4.75,19a.5.5,0,0,1-.09-.58l2.12-4.24a.6.6,0,0,1,.09-.13L16.42,4.5a2,2,0,1,1,2.83,2.83h0L9.7,16.88a.6.6,0,0,1-.13.09L5.33,19.09A.44.44,0,0,1,5.11,19.14Zm2.45-4.29L6.22,17.53,8.9,16.19a1.28,1.28,0,0,0-.44-.9A1.26,1.26,0,0,0,7.56,14.85ZM8.33,14a2.59,2.59,0,0,1,.84.58,2.7,2.7,0,0,1,.58.84l8.79-8.8a1,1,0,1,0-1.41-1.41Z"/>
    </g>
  </g>
</svg>
