<?xml version="1.0" encoding="UTF-8"?>
<svg xmlns="http://www.w3.org/2000/svg" width="24" height="24" version="1.1" viewBox="0 0 24 24">

        <path  d="M12.5,12h-4c-.276,0-.5.224-.5.5v6c0,.276.224.5.5.5h4c.276,0,.5-.224.5-.5v-6c0-.276-.224-.5-.5-.5ZM12,18h-3v-5h3v5Z"/>
        <path  d="M15.5,8h-.5v-1.5c0-.828-.672-1.5-1.5-1.5h-.5v-3h3.499c.276,0,.5-.224.5-.5s-.224-.5-.5-.5h-7.999c-.276,0-.5.224-.5.5v3.5h-.5c-.828,0-1.5.672-1.5,1.5v1.5h-.5c-.828,0-1.5.672-1.5,1.5v12c0,.828.672,1.5,1.5,1.5h10c.828,0,1.5-.672,1.5-1.5v-12c0-.828-.672-1.5-1.5-1.5ZM9,2h3v3h-3v-3ZM7,6.5c0-.276.224-.5.5-.5h6c.276,0,.5.224.5.5v1.5h-7v-1.5ZM16,21.5c0,.276-.224.5-.5.5H5.5c-.276,0-.5-.224-.5-.5v-12c0-.276.224-.5.5-.5h10c.276,0,.5.224.5.5v12Z"/>
        <path  d="M20.713,3.964c-.159-.318-.365-.625-.563-.889-.199-.265-.397-.496-.544-.659-.074-.082-.136-.148-.18-.194-.022-.023-.039-.041-.052-.054l-.015-.015-.004-.004-.002-.002c-.094-.094-.221-.146-.354-.146s-.26.053-.354.146l-.002.002-.004.004-.015.015c-.012.013-.03.031-.052.054-.044.046-.106.112-.18.194-.147.164-.345.394-.544.659-.198.264-.404.571-.563.889-.155.31-.287.673-.287,1.036,0,.686.349,1.194.752,1.514.384.305.864.479,1.247.476.424.005.911-.163,1.295-.482.4-.332.706-.842.706-1.509,0-.363-.132-.727-.287-1.036ZM19.656,5.739c-.213.177-.474.254-.648.251h-.014c-.116.001-.382-.07-.62-.259-.222-.177-.373-.417-.373-.731,0-.137.055-.336.182-.589.122-.245.291-.5.468-.736.121-.161.242-.309.35-.434.108.125.229.273.35.434.177.236.346.491.468.736.126.253.182.452.182.589,0,.333-.144.573-.344.739Z"/>

</svg>