<svg width="24" height="24" viewBox="0 0 24 24" fill="none" xmlns="http://www.w3.org/2000/svg">
<path d="M4.32617 12.483C4.05017 12.483 3.82617 12.259 3.82617 11.983C3.82617 11.707 4.05017 11.483 4.32617 11.483H18.4252L11.7662 4.83298C11.5752 4.63898 11.5752 4.32698 11.7662 4.13298C11.9622 3.93598 12.2802 3.93598 12.4762 4.13298L19.8922 11.549C19.9402 11.572 19.9862 11.603 20.0262 11.643C20.2232 11.839 20.2232 12.157 20.0262 12.353L12.5162 19.863C12.4112 19.969 12.2652 20.024 12.1162 20.013C11.7312 20.008 11.4962 19.588 11.6942 19.257C11.7142 19.223 11.7382 19.191 11.7662 19.163L18.4822 12.483H4.32617Z" fill="#363636"/>
</svg>
