<?xml version="1.0" encoding="UTF-8"?>
<svg xmlns="http://www.w3.org/2000/svg" width="24" height="24" version="1.1" viewBox="0 0 24 24">
  <defs>
    <style>
      .cls-1 {
        fill: #363636;
      }
    </style>
  </defs>
  <!-- Generator: Adobe Illustrator 28.6.0, SVG Export Plug-In . SVG Version: 1.2.0 Build 709)  -->
  <g>
    <g id="Camada_1">
      <path class="cls-1" d="M22.5,9c.276,0,.5-.224.5-.5V2.5c0-.827-.673-1.5-1.5-1.5h-6c-.276,0-.5.224-.5.5v6.5h-6V1.5c0-.276-.224-.5-.5-.5H2.5c-.827,0-1.5.673-1.5,1.5v6c0,.276.224.5.5.5h6.5v6H1.5c-.276,0-.5.224-.5.5v6c0,.827.673,1.5,1.5,1.5h6c.276,0,.5-.224.5-.5v-6.5h6v6.5c0,.276.224.5.5.5h6c.827,0,1.5-.673,1.5-1.5v-6c0-.276-.224-.5-.5-.5h-6.5v-6h6.5ZM16,2h5.5c.275,0,.5.224.5.5v5.5h-6V2ZM2,2.5c0-.276.224-.5.5-.5h5.5v6H2V2.5ZM8,22H2.5c-.276,0-.5-.225-.5-.5v-5.5h6v6ZM9,9h6v6h-6v-6ZM22,21.5c0,.275-.225.5-.5.5h-5.5v-6h6v5.5Z"/>
    </g>
  </g>
</svg>