<?xml version="1.0" encoding="UTF-8"?>
<svg id="Camada_1" data-name="Camada 1" xmlns="http://www.w3.org/2000/svg" width="24" height="24" version="1.1" viewBox="0 0 24 24">
  <defs>
    <style>
      .cls-1 {
        fill-rule: evenodd;
      }

      .cls-1, .cls-2 {
        fill: #363636;
        stroke-width: 0px;
      }
    </style>
  </defs>
  <path class="cls-2" d="M14,4c.3,0,.4,0,.5,0s.3.2.5.7c.1.2.4.3.7.2.2,0,.3-.4.2-.7-.3-.6-.6-.9-1-1.1-.3-.2-.6-.2-.9-.2h-5.5c-.3,0-.5.2-.5.5s.2.5.5.5h1.5v3h0c-1.8,0-3.3,1.2-4,2.8,0,.3,0,.5.3.6s.5,0,.6-.3c.6-1.2,1.9-2.1,3.3-2.1h.1c2,0,3.7,1.6,3.7,3.7v.3c0,.3.2.5.5.5s.5-.2.5-.5v-.3c0-2.4-1.7-4.3-4-4.6h0v-3.1h3Z"/>
  <path class="cls-1" d="M18.5,5.3l-.4.4h-.1c0,0-.1.2-.2.3-.2.2-.4.4-.6.7-.4.6-.8,1.4-.8,2.3s.2,1,.6,1.4.9.6,1.4.6,1-.2,1.4-.6c.4-.4.6-.9.6-1.4,0-.9-.4-1.8-.8-2.3-.2-.3-.3-.5-.5-.7-.1-.2-.1-.1-.2-.2h-.1c0,0-.3-.4-.3-.4ZM18.5,6.8c-.1,0-.2.3-.3.5-.4.5-.7,1.2-.7,1.8s.1.5.3.7c.2,0,.4.2.7.2s.5-.1.7-.3.3-.4.3-.7c0-.6-.3-1.2-.7-1.8,0-.2-.2-.3-.3-.4Z"/>
  <path class="cls-1" d="M21.1,16.3c.2.2.3.4.3.7v.3c-.1.1-.1.2-.2.2l-6.3,2.6c-.6.2-1.2.4-1.9.4s-1.2-.1-1.7-.3l-4.9-1.8v.4c0,.1-.2.2-.3.3,0,.1-.2.1-.3.1h-2.8c0,0-.3-.1-.4-.1,0-.1,0-.2,0-.4v-6.2c0-.1,0-.2,0-.3.1-.1,0,0,.1-.1,0-.1.2,0,.2,0,.1,0,.2,0,.2,0l3.9,1.1c0,0,.2.1.3.2,1.3-.3,2.6-.3,3.9.2,1.1.5,2.2.9,3.4,1.2.4,0,.7.2,1,.4s.5.6.5.9c1.1-.4,3.3-.8,4.5-.2.2.2.4.3.5.5ZM3.5,18.1h2l.8-4.2-2.8-.8s0,5,0,5ZM11.7,19.3c.9.4,2,.3,2.9-.1l5.8-2.4q-.1-.1-.2-.1c-1-.5-3.4.1-4.3.5-.1.2-.3.3-.5.4s-.4.1-.6.1h-.2c-1.5-.2-3-.5-4.4-.9-.1,0,0,0-.3,0-.1,0-.2-.2-.2-.3s0,0,0-.1,0,0,0-.2,0-.1.1-.2.1-.1.2-.1,0,0,.2,0,0,0,.2,0c1.4.4,2.8.7,4.2.9.4,0,.5-.1.6-.4s-.2-.6-.7-.7c-1.2-.3-2.4-.7-3.6-1.2-1.1-.4-2.4-.4-3.5-.1l-.6,3,4.8,2Z"/>
</svg>