<?xml version="1.0" encoding="UTF-8"?>
<svg id="Camada_1" xmlns="http://www.w3.org/2000/svg" width="40" height="40" version="1.1" viewBox="0 0 40 40">
  <!-- Generator: Adobe Illustrator 29.5.1, SVG Export Plug-In . SVG Version: 2.1.0 Build 141)  -->
  <path d="M20,18.333c-.46,0-.833.373-.833.833v10c0,.46.373.833.833.833s.833-.373.833-.833v-10c0-.46-.373-.833-.833-.833Z" fill="#363636" fill-rule="evenodd"/>
  <path d="M20,10.833c-.921,0-1.667.746-1.667,1.667s.746,1.667,1.667,1.667,1.667-.746,1.667-1.667-.746-1.667-1.667-1.667Z" fill="#363636" fill-rule="evenodd"/>
  <path d="M20,1.667C9.875,1.667,1.667,9.875,1.667,20s8.208,18.333,18.333,18.333,18.333-8.208,18.333-18.333S30.125,1.667,20,1.667ZM20,36.667c-9.205,0-16.667-7.462-16.667-16.667S10.796,3.333,20,3.333s16.667,7.462,16.667,16.667-7.462,16.667-16.667,16.667Z" fill="#363636" fill-rule="evenodd"/>
</svg>