<?xml version="1.0" encoding="UTF-8"?>
<svg xmlns="http://www.w3.org/2000/svg" width="24" height="24" version="1.1" viewBox="0 0 24 24">
  <defs>
    <style>
      .cls-1 {
        fill: #363636;
        fill-rule: evenodd;
      }
    </style>
  </defs>
  <!-- Generator: Adobe Illustrator 28.6.0, SVG Export Plug-In . SVG Version: 1.2.0 Build 709)  -->
  <g>
    <g id="Camada_1">
      <g>
        <path class="cls-1" d="M10.5,13h-1.5v-3.5c0-.276-.224-.5-.5-.5h-.5V1.5c0-.276-.224-.5-.5-.5s-.5.224-.5.5v7.5h-.5c-.276,0-.5.224-.5.5v3.5h-1.5c-.142,0-.278.061-.373.167-.095.106-.14.247-.124.389l1,9c.028.253.242.445.497.445h4c.255,0,.469-.192.497-.445l1-9c.016-.141-.029-.283-.124-.389-.095-.106-.23-.167-.373-.167ZM7,10h1v3h-1v-3ZM9.052,22h-3.105l-.889-8h4.883l-.889,8Z"/>
        <path class="cls-1" d="M18.998,9.462c-.02-.26-.237-.462-.498-.462h-4c-.261,0-.479.201-.498.462l-1,13c-.011.139.037.276.132.378.095.102.228.16.367.16h6c.139,0,.272-.058.367-.16.095-.102.142-.239.132-.378l-1-13ZM14.04,22l.231-3h2.229c.276,0,.5-.224.5-.5s-.224-.5-.5-.5h-2.153l.615-8h3.074l.923,12h-4.92Z"/>
      </g>
    </g>
  </g>
</svg>