<?xml version="1.0" encoding="UTF-8"?>
<svg xmlns="http://www.w3.org/2000/svg" width="24" height="24" version="1.1" viewBox="0 0 24 24">

        <path class="cls-1" d="M11.87,20.539c-.861.254-1.93.488-2.855.461-.94-.028-2.019-.265-2.881-.504-.427-.119-.794-.235-1.053-.322-.043-.014-.082-.028-.119-.04L3.059,3h11.883l-.993,8.94c-.031.274.167.522.442.552.274.031.522-.167.552-.442l1.055-9.495c.016-.141-.029-.283-.124-.389-.095-.106-.23-.167-.373-.167H2.5c-.142,0-.278.061-.373.167-.095.106-.14.247-.124.389l2,18c.021.187.146.347.322.413l.008.003.023.009c.02.007.049.018.087.031.075.027.184.065.32.111.272.091.656.214,1.104.338.888.246,2.059.509,3.119.54,1.084.032,2.275-.238,3.167-.502.265-.078.416-.356.338-.621-.078-.265-.356-.416-.621-.338Z"/>
        <path class="cls-1" d="M6.5,5c-.137,0-.269.057-.363.156-.094.1-.144.234-.136.371l.5,9c.015.265.234.472.499.472h4c.265,0,.484-.207.499-.472l.5-9c.008-.137-.042-.271-.136-.371-.094-.1-.226-.156-.363-.156h-5ZM10.527,14h-3.054l-.444-8h3.943l-.445,8Z"/>
        <path class="cls-1" d="M14,17.5c0-1.933,1.567-3.5,3.5-3.5,1.006,0,1.914.424,2.553,1.105h-1.079c-.276,0-.5.224-.5.5s.224.5.5.5h2.041c.006,0,.013,0,.019,0h.045c.276,0,.5-.224.5-.5v-2.105c0-.276-.224-.5-.5-.5s-.5.224-.5.5v.718c-.805-.755-1.888-1.218-3.079-1.218-2.485,0-4.5,2.015-4.5,4.5,0,.276.224.5.5.5s.5-.224.5-.5Z"/>
        <path class="cls-1" d="M21.5,17c-.276,0-.5.224-.5.5,0,1.933-1.567,3.5-3.5,3.5-1.006,0-1.914-.424-2.553-1.105h1.079c.276,0,.5-.224.5-.5s-.224-.5-.5-.5h-2.039c-.008,0-.015,0-.023,0h-.044c-.276,0-.5.224-.5.5v2.105c0,.276.224.5.5.5s.5-.224.5-.5v-.718c.805.755,1.888,1.218,3.079,1.218,2.485,0,4.5-2.015,4.5-4.5,0-.276-.224-.5-.5-.5Z"/>

</svg>