<?xml version="1.0" encoding="UTF-8"?>
<svg xmlns="http://www.w3.org/2000/svg" width="24" height="24" version="1.1" viewBox="0 0 24 24">
  <defs>
    <style>
      .cls-1 {
        fill: #363636;
        fill-rule: evenodd;
      }
    </style>
  </defs>
  <!-- Generator: Adobe Illustrator 28.6.0, SVG Export Plug-In . SVG Version: 1.2.0 Build 709)  -->
  <g>
    <g id="Camada_1">
      <g>
        <path class="cls-1" d="M20.43,2.122l1.125-.125c.274-.031.472-.278.442-.552-.031-.274-.278-.472-.552-.442l-1.125.125c-.274.031-.472.278-.442.552.031.274.278.472.552.442Z"/>
        <path class="cls-1" d="M15.93,2.622l2.25-.25c.274-.031.472-.278.442-.552-.031-.274-.278-.472-.552-.442l-2.25.25c-.274.031-.472.278-.442.552.031.274.278.472.552.442Z"/>
        <path class="cls-1" d="M12.555,2.997l1.125-.125c.274-.031.472-.278.442-.552-.031-.274-.278-.472-.552-.442l-1.125.125c-.274.031-.472.278-.442.552.031.274.278.472.552.442Z"/>
        <path class="cls-1" d="M11.5,22H3.5c-.276,0-.5-.224-.5-.5v-11c0-.276.224-.5.5-.5h8c.276,0,.5.224.5.5v2c0,.276.224.5.5.5s.5-.224.5-.5v-2c0-.828-.672-1.5-1.5-1.5h-.5v-1.5c0-.653-.417-1.209-1-1.415v-3.585c0-.154-.071-.299-.192-.394-.121-.095-.28-.128-.429-.091l-4,1c-.223.056-.379.256-.379.485v2.585c-.583.206-1,.762-1,1.415v1.5h-.5c-.828,0-1.5.672-1.5,1.5v11c0,.828.672,1.5,1.5,1.5h8c.276,0,.5-.224.5-.5s-.224-.5-.5-.5ZM6,3.89l3-.75v2.86h-3v-2.11ZM5,7.5c0-.276.224-.5.5-.5h4c.276,0,.5.224.5.5v1.5h-5v-1.5Z"/>
        <path class="cls-1" d="M13.734,4.262l-1.125-.25c-.27-.06-.537.11-.597.38-.06.27.11.537.38.597l1.125.25c.27.06.537-.11.597-.38.06-.27-.11-.537-.38-.597Z"/>
        <path class="cls-1" d="M18.234,5.262l-2.25-.5c-.27-.06-.537.11-.597.38-.06.27.11.537.38.597l2.25.5c.27.06.537-.11.597-.38.06-.27-.11-.537-.38-.597Z"/>
        <path class="cls-1" d="M21.609,6.012l-1.125-.25c-.27-.06-.537.11-.597.38-.06.27.11.537.38.597l1.125.25c.27.06.537-.11.597-.38.06-.27-.11-.537-.38-.597Z"/>
        <path class="cls-1" d="M19.348,17.772c-.124-.115-.261-.214-.409-.293.065-.135.115-.277.15-.424.061-.259.071-.527.03-.79-.041-.263-.132-.515-.268-.743-.136-.228-.316-.427-.528-.584-.212-.158-.454-.272-.711-.335-.257-.063-.523-.074-.784-.031-.261.042-.511.137-.735.278-.118.074-.228.161-.328.257-.099-.102-.209-.194-.328-.273-.225-.15-.478-.253-.744-.301-.266-.048-.539-.041-.802.021-.263.062-.511.177-.728.339-.217.161-.4.365-.538.599-.137.234-.227.493-.265.762-.037.269-.021.543.047.806.038.146.092.288.161.421-.146.078-.282.175-.405.287-.212.194-.38.431-.494.695-.114.264-.171.55-.169.838.003.288.065.573.184.835s.292.496.507.686c.216.19.469.331.744.414s.563.104.847.063h.002c.004.024.008.049.013.073.061.303.189.588.375.834.186.246.425.446.7.584.275.138.578.21.885.21s.61-.072.885-.21c.275-.138.514-.338.7-.584.186-.246.314-.531.374-.834.005-.026.01-.053.014-.08h.002c.282.039.569.016.842-.067.273-.083.524-.224.738-.414.214-.189.385-.422.503-.682s.181-.543.184-.83c.003-.286-.053-.57-.165-.833-.112-.263-.278-.5-.487-.694ZM18.905,19.715c-.061.134-.148.252-.255.347-.107.095-.232.165-.367.206-.134.041-.275.052-.413.033-.138-.019-.272-.068-.392-.145-.173-.11-.395-.104-.562.016-.166.12-.242.329-.192.528.039.155.043.317.012.473-.031.157-.097.303-.192.428-.094.125-.215.225-.351.294-.136.069-.286.104-.436.104s-.3-.035-.436-.104c-.136-.069-.257-.169-.351-.294-.095-.125-.16-.271-.192-.428-.031-.157-.027-.319.012-.473.05-.2-.026-.41-.194-.529-.167-.12-.391-.125-.564-.013-.12.078-.254.128-.393.149-.139.02-.281.01-.416-.031-.135-.041-.262-.11-.37-.206-.108-.096-.196-.214-.257-.349-.061-.135-.094-.281-.095-.431-.001-.149.029-.297.087-.433.059-.136.145-.256.251-.354.106-.097.231-.17.365-.213.077-.024.156-.039.236-.044.204-.013.379-.149.443-.343s.003-.408-.154-.539c-.062-.052-.118-.112-.166-.178l-.007-.009c-.083-.11-.145-.236-.18-.372-.035-.136-.044-.278-.025-.417s.066-.273.136-.392c.07-.12.163-.222.272-.303.109-.081.232-.138.361-.168.13-.03.263-.034.394-.01.131.024.256.074.369.149.112.075.21.173.286.288l.008.012c.046.066.085.139.114.216.073.195.26.324.468.324s.395-.129.468-.324c.029-.076.067-.148.112-.214.078-.109.175-.201.287-.271.112-.07.235-.117.364-.138.128-.021.259-.016.386.016.126.031.246.087.353.167.106.079.197.18.267.296.07.116.117.246.138.382.021.136.016.275-.016.408-.031.133-.087.257-.164.367-.048.066-.103.125-.164.176-.157.131-.218.345-.154.539.064.194.239.33.443.343.08.005.159.02.236.044.013.004.026.008.039.011.116.045.224.112.317.199.105.098.19.218.247.353.058.135.087.282.085.43-.002.148-.034.294-.095.428Z"/>
      </g>
    </g>
  </g>
</svg>