<?xml version="1.0" encoding="utf-8"?>
<!-- Generator: Adobe Illustrator 28.4.1, SVG Export Plug-In . SVG Version: 6.00 Build 0)  -->
<svg version="1.0" id="Camada_1" xmlns="http://www.w3.org/2000/svg" xmlns:xlink="http://www.w3.org/1999/xlink" x="0px" y="0px"
	 width="24px" height="24px" viewBox="0 0 24 24" enable-background="new 0 0 24 24" xml:space="preserve">
<path    d="M4.4,2C3.1,2,2,3.1,2,4.4v15.2C2,20.9,3.1,22,4.4,22h15.2c1.3,0,2.4-1.1,2.4-2.4V4.4C22,3.1,20.9,2,19.6,2
	H4.4z M4.4,3h15.2C20.4,3,21,3.6,21,4.4v15.2c0,0.8-0.6,1.4-1.4,1.4H4.4C3.6,21,3,20.4,3,19.6V4.4C3,3.6,3.6,3,4.4,3z M12.5,4.9
	c-0.1,0-0.2,0.1-0.3,0.1C12.1,5.1,12,5.2,12,5.3c0,0,0,2.3,0,4.6c0,1.2,0,2.3,0,3.2c0,0.9,0,1.4,0,1.5c0,0.9-0.8,1.6-1.7,1.6
	c-0.9,0-1.6-0.7-1.6-1.6c0-0.9,0.7-1.6,1.6-1.6c0,0,0.1,0,0.2,0c0.1,0,0.1,0,0.2,0c0.1,0,0.1-0.1,0.2-0.1c0.1,0,0.1-0.1,0.1-0.2
	c0-0.1,0-0.1,0-0.2v-2c0-0.1,0-0.2-0.1-0.3s-0.2-0.1-0.3-0.1c-0.1,0-0.2,0-0.3,0c-2.5,0-4.5,2-4.5,4.5c0,2.5,2,4.5,4.5,4.5
	c2.5,0,4.5-2,4.5-4.5v-4.3c0.7,0.6,1.6,0.9,2.5,0.9c0.1,0,0.3,0,0.4,0c0.1,0,0.2-0.1,0.3-0.2c0.1-0.1,0.1-0.2,0.1-0.3V8.5
	c0-0.1,0-0.2-0.1-0.3C18,8.1,17.8,8.1,17.7,8c-1.5-0.1-2.7-1.3-2.8-2.8c0-0.1-0.1-0.2-0.2-0.3c-0.1-0.1-0.2-0.1-0.3-0.1H12.5z
	 M13,5.8h1.1c0.3,1.6,1.6,2.8,3.2,3.1v1.4c-1-0.1-1.9-0.6-2.4-1.4c-0.1-0.1-0.1-0.2-0.2-0.2c-0.1,0-0.2,0-0.3,0
	c-0.1,0-0.2,0.1-0.2,0.2c-0.1,0.1-0.1,0.2-0.1,0.3v5.5c0,2-1.6,3.6-3.6,3.6c-2,0-3.6-1.6-3.6-3.6c0-1.9,1.5-3.4,3.4-3.5v1
	c-1.3,0.1-2.3,1.2-2.3,2.5c0,1.4,1.1,2.5,2.5,2.5c1.4,0,2.6-1.1,2.6-2.5c0,0,0-0.6,0-1.5c0-0.9,0-2,0-3.2C13,7.9,13,6.2,13,5.8z"/>
</svg>
