<?xml version="1.0" encoding="UTF-8"?>
<svg xmlns="http://www.w3.org/2000/svg" width="24" height="24" version="1.1" viewBox="0 0 24 24">
  <defs>
    <style>
      .cls-1 {
        fill: #363636;
        fill-rule: evenodd;
      }
    </style>
  </defs>
  <!-- Generator: Adobe Illustrator 28.7.1, SVG Export Plug-In . SVG Version: 1.2.0 Build 142)  -->
  <g>
    <g id="Camada_1">
      <g>
        <path class="cls-1" d="M11.015,8.426l2.14,1.319c.159.098.358.099.518.004.16-.095.254-.272.243-.458-.114-2.006.149-3.914.443-5.327.147-.705.301-1.282.418-1.682.058-.2.107-.355.142-.46.017-.052.03-.092.039-.117l.01-.029.002-.006h0c.087-.246-.027-.517-.264-.624-.236-.108-.516-.017-.643.21l-.006.01-.016.028-.06.108c-.052.094-.128.233-.224.409-.191.352-.461.856-.776,1.464-.629,1.215-1.44,2.851-2.165,4.529-.098.228-.015.494.197.624ZM13.123,5.213c-.141.963-.239,2.05-.234,3.193l-.98-.604c.399-.904.818-1.787,1.214-2.589Z"/>
        <path class="cls-1" d="M10.12,9.574l-.101.207c-.007.014-.013.029-.019.044-.573,1.545-1.001,3.057-1.001,4.174,0,1.657,1.343,3,3,3s3-1.343,3-3c0-.071-.015-.142-.045-.207-.071-.156-.14-.304-.206-.446-.293-.628-.534-1.145-.665-1.778-.028-.134-.109-.251-.226-.324l-3.024-1.878c-.12-.075-.267-.095-.403-.056s-.249.135-.311.262ZM10.809,10.529l2.344,1.456c.165.667.436,1.245.705,1.82.047.1.093.199.139.298-.054,1.057-.927,1.897-1.997,1.897-1.105,0-2-.895-2-2,0-.851.313-2.079.809-3.471Z"/>
        <path class="cls-1" d="M8.723,8.416c.23.153.54.091.693-.139s.091-.54-.139-.693l-1.5-1c-.23-.153-.54-.091-.693.139-.153.23-.091.54.139.693l1.5,1Z"/>
        <path class="cls-1" d="M7.158,10.474l1.5-.5c.262-.087.404-.37.316-.632s-.37-.404-.632-.316l-1.5.5c-.262.087-.404.37-.316.632.087.262.37.404.632.316Z"/>
        <path class="cls-1" d="M9.526,6.658c.087.262.37.404.632.316s.404-.37.316-.632l-.5-1.5c-.087-.262-.37-.404-.632-.316-.262.087-.404.37-.316.632l.5,1.5Z"/>
        <path class="cls-1" d="M6.5,18h-1c-.276,0-.5.224-.5.5s.224.5.5.5h1c.276,0,.5-.224.5-.5s-.224-.5-.5-.5Z"/>
        <path class="cls-1" d="M4.5,17h1c.276,0,.5-.224.5-.5s-.224-.5-.5-.5h-1c-.276,0-.5.224-.5.5s.224.5.5.5Z"/>
        <path class="cls-1" d="M16,18.5c0,.276.224.5.5.5h1c.276,0,.5-.224.5-.5s-.224-.5-.5-.5h-1c-.276,0-.5.224-.5.5Z"/>
        <path class="cls-1" d="M18.5,17h1c.276,0,.5-.224.5-.5s-.224-.5-.5-.5h-1c-.276,0-.5.224-.5.5s.224.5.5.5Z"/>
        <path class="cls-1" d="M14.5,20h-1c-.276,0-.5.224-.5.5s.224.5.5.5h1c.276,0,.5-.224.5-.5s-.224-.5-.5-.5Z"/>
        <path class="cls-1" d="M19.5,20h-1c-.276,0-.5.224-.5.5s.224.5.5.5h1c.276,0,.5-.224.5-.5s-.224-.5-.5-.5Z"/>
        <path class="cls-1" d="M9.5,20h-1c-.276,0-.5.224-.5.5s.224.5.5.5h1c.276,0,.5-.224.5-.5s-.224-.5-.5-.5Z"/>
        <path class="cls-1" d="M4.5,20h-1c-.276,0-.5.224-.5.5s.224.5.5.5h1c.276,0,.5-.224.5-.5s-.224-.5-.5-.5Z"/>
        <path class="cls-1" d="M22.5,13h-6c-.276,0-.5.224-.5.5,0,2.758-1.824,4.5-4,4.5s-4-1.742-4-4.5c0-.276-.224-.5-.5-.5H1.5c-.276,0-.5.224-.5.5v9c0,.276.224.5.5.5h21c.276,0,.5-.224.5-.5v-9c0-.276-.224-.5-.5-.5ZM22,15h-.5c-.276,0-.5.224-.5.5s.224.5.5.5h.5v2h-.5c-.276,0-.5.224-.5.5s.224.5.5.5h.5v3H2v-3h.5c.276,0,.5-.224.5-.5s-.224-.5-.5-.5h-.5v-2h.5c.276,0,.5-.224.5-.5s-.224-.5-.5-.5h-.5v-1h5.018c.214,2.972,2.334,5,4.982,5s4.768-2.028,4.982-5h5.018v1Z"/>
      </g>
    </g>
  </g>
</svg>