<?xml version="1.0" encoding="UTF-8"?>
<svg xmlns="http://www.w3.org/2000/svg" width="24" height="24" version="1.1" viewBox="0 0 24 24">
  <defs>
    <style>
      .cls-1 {
        fill: #363636;
        fill-rule: evenodd;
      }
    </style>
  </defs>
  <!-- Generator: Adobe Illustrator 28.7.1, SVG Export Plug-In . SVG Version: 1.2.0 Build 142)  -->
  <g>
    <g id="Camada_1">
      <g>
        <path class="cls-1" d="M8.615,19.371c.892.396,2.089.629,3.385.629s2.493-.232,3.385-.629c.445-.198.837-.447,1.124-.748.289-.304.491-.684.491-1.123s-.202-.819-.491-1.123c-.287-.301-.678-.55-1.124-.748-.892-.396-2.089-.629-3.385-.629s-2.493.232-3.385.629c-.445.198-.837.447-1.123.748-.289.304-.491.684-.491,1.123s.202.819.491,1.123c.287.301.678.55,1.123.748ZM8.216,17.066c.169-.177.436-.359.805-.523.737-.328,1.789-.543,2.979-.543s2.242.215,2.979.543c.369.164.637.346.805.523.166.175.216.32.216.434s-.05.259-.216.434c-.169.177-.436.359-.805.523-.737.327-1.789.543-2.979.543s-2.242-.215-2.979-.543c-.369-.164-.637-.346-.805-.523-.166-.175-.216-.32-.216-.434s.05-.259.216-.434Z"/>
        <path class="cls-1" d="M21.992,13.409c-.009-.051-.026-.099-.05-.144l-2.495-4.989c-.085-.169-.258-.276-.447-.276h-1.679l.675-5.313c.023-.181-.054-.36-.202-.467s-.342-.126-.507-.048l-.005.002-.018.008c-.016.008-.041.019-.074.033-.065.029-.161.071-.282.121-.241.1-.579.232-.965.36-.79.262-1.709.483-2.406.43-.539-.042-1.053-.213-1.621-.423-.062-.023-.126-.047-.19-.071-.501-.187-1.052-.393-1.638-.5-.824-.15-1.744-.148-2.441-.112-.352.018-.655.045-.87.068-.108.011-.194.021-.253.029-.03.004-.053.007-.069.009l-.019.003h-.005s-.002.001-.002.001c-.27.039-.46.287-.426.558l.675,5.313h-1.679c-.189,0-.363.107-.447.276l-2.496,4.991c-.019.036-.033.073-.043.112-.01.039-.015.079-.015.12v6c0,1.381,1.119,2.5,2.5,2.5h15c1.381,0,2.5-1.119,2.5-2.5v-5.992c0-.033-.002-.065-.008-.098ZM7.699,3.018c.668-.034,1.499-.032,2.211.097.493.09.958.263,1.468.453.063.023.127.047.191.071.57.211,1.199.429,1.891.482.909.07,1.989-.209,2.798-.478.231-.077.446-.155.636-.227l-.836,6.583h-1.866l.781-2.342c.087-.262-.054-.545-.316-.632-.262-.087-.545.054-.633.316l-.886,2.658h-.64v-3.5c0-.276-.224-.5-.5-.5s-.5.224-.5.5v3.5h-.64l-.886-2.658c-.087-.262-.37-.404-.632-.316-.262.087-.404.37-.316.632l.781,2.342h-1.866l-.881-6.936c.178-.016.396-.034.639-.046ZM5.309,9h1.497l.127,1h-.433c-.276,0-.5.224-.5.5s.224.5.5.5h3.988c.008,0,.016,0,.024,0h2.976c.008,0,.016,0,.024,0h3.988c.276,0,.5-.224.5-.5s-.224-.5-.5-.5h-.432l.127-1h1.496l2,4H3.309l2-4ZM21,19.5c0,.828-.672,1.5-1.5,1.5H4.5c-.828,0-1.5-.672-1.5-1.5v-5.5h18v5.5Z"/>
      </g>
    </g>
  </g>
</svg>