<?xml version="1.0" encoding="UTF-8"?>
<svg id="Camada_1" xmlns="http://www.w3.org/2000/svg" width="24" height="24" version="1.1" viewBox="0 0 24 24">
  <!-- Generator: Adobe Illustrator 29.1.0, SVG Export Plug-In . SVG Version: 2.1.0 Build 142)  -->
  <path d="M11,22H3v-10.965c0-.656.071-1.273.298-1.823.041-.1.084-.2.128-.301.222-.517.46-1.072.569-1.84.076-.529.074-1.191.056-1.7-.005-.133-.01-.258-.016-.37h5.93c-.006.112-.012.237-.016.37-.017.509-.019,1.171.056,1.7.09.63.221,1.037.381,1.443.257-.24.531-.462.82-.664-.089-.262-.157-.538-.212-.92-.062-.437-.064-1.026-.047-1.525.008-.245.021-.461.031-.616.005-.077.01-.139.013-.181l.004-.048v-.012s.001-.003.001-.003c.013-.14-.034-.279-.129-.382-.095-.104-.229-.163-.369-.163h-.5v-2h2.499c.276,0,.5-.224.5-.5s-.224-.5-.5-.5H3.5c-.276,0-.5.224-.5.5s.224.5.5.5h.5v2h-.5c-.14,0-.274.059-.369.163s-.141.243-.129.383v.003s.001.012.001.012l.004.048c.003.042.008.104.013.181.01.155.023.371.031.616.017.499.015,1.087-.047,1.525-.09.628-.271,1.053-.488,1.562-.046.108-.094.221-.143.34-.297.721-.374,1.485-.374,2.204v11.465c0,.276.224.5.5.5h9c.276,0,.5-.224.5-.5v-1.865c-.351-.185-.685-.398-1-.635v2ZM5,2h4v2h-4v-2Z" fill="#363636" fill-rule="evenodd"/>
  <path d="M18,13.5h-2v-2c0-.276-.224-.5-.5-.5s-.5.224-.5.5v2h-2c-.276,0-.5.224-.5.5s.224.5.5.5h2v2c0,.276.224.5.5.5s.5-.224.5-.5v-2h2c.276,0,.5-.224.5-.5s-.224-.5-.5-.5Z" fill="#363636" fill-rule="evenodd"/>
  <path d="M15.5,7.5c-3.59,0-6.5,2.91-6.5,6.5s2.91,6.5,6.5,6.5,6.5-2.91,6.5-6.5-2.91-6.5-6.5-6.5ZM15.5,19.5c-3.038,0-5.5-2.462-5.5-5.5s2.462-5.5,5.5-5.5,5.5,2.462,5.5,5.5-2.462,5.5-5.5,5.5Z" fill="#363636" fill-rule="evenodd"/>
</svg>