<?xml version="1.0" encoding="utf-8"?>
<!-- Generator: Adobe Illustrator 28.4.1, SVG Export Plug-In . SVG Version: 6.00 Build 0)  -->
<svg version="1.0" id="Camada_1" xmlns="http://www.w3.org/2000/svg" xmlns:xlink="http://www.w3.org/1999/xlink" x="0px" y="0px"
	 width="24px" height="24px" viewBox="0 0 24 24" enable-background="new 0 0 24 24" xml:space="preserve">
<path    d="M21.4,2.6c-0.2-0.2-0.5-0.2-0.7,0l-6.1,6.1V3c0-0.3-0.2-0.5-0.5-0.5S13.5,2.7,13.5,3v7
	c0,0.3,0.2,0.5,0.5,0.5h7c0.3,0,0.5-0.2,0.5-0.5c0-0.3-0.2-0.5-0.5-0.5h-5.8l6.1-6.1C21.5,3.2,21.5,2.8,21.4,2.6z"/>
<path    d="M3,13.5c-0.3,0-0.5,0.2-0.5,0.5s0.2,0.5,0.5,0.5h5.8l-6.1,6.1c-0.2,0.2-0.2,0.5,0,0.7c0.2,0.2,0.5,0.2,0.7,0
	l6.1-6.1V21c0,0.3,0.2,0.5,0.5,0.5c0.3,0,0.5-0.2,0.5-0.5v-7c0-0.3-0.2-0.5-0.5-0.5H3z"/>
</svg>
