<svg width="24" height="24" viewBox="0 0 24 24" fill="none" xmlns="http://www.w3.org/2000/svg">
<path fill-rule="evenodd" clip-rule="evenodd" d="M15.5166 1.00098C15.5293 1.00139 15.542 1.0025 15.5547 1.00391C15.5715 1.00575 15.588 1.00917 15.6045 1.0127C15.6168 1.01534 15.6294 1.01689 15.6416 1.02051C15.6655 1.02754 15.6883 1.03733 15.7109 1.04785C15.715 1.04975 15.7196 1.05072 15.7236 1.05273L15.7314 1.05664C15.7552 1.06904 15.7781 1.08337 15.7998 1.09961L15.8057 1.10352C15.8077 1.10507 15.8095 1.10682 15.8115 1.1084L19.7998 4.09961C19.8077 4.10556 19.8138 4.11375 19.8213 4.12012C19.8395 4.13551 19.857 4.1517 19.873 4.16992C19.8825 4.18059 19.891 4.19174 19.8994 4.20312C19.9074 4.21387 19.9166 4.22381 19.9238 4.23535C19.928 4.24203 19.9298 4.25004 19.9336 4.25684C19.9415 4.2709 19.9486 4.28505 19.9551 4.2998C19.9639 4.31981 19.9715 4.33977 19.9775 4.36035C19.9816 4.37426 19.9854 4.38808 19.9883 4.40234C19.9924 4.4228 19.9936 4.44326 19.9951 4.46387C19.996 4.47593 20 4.48781 20 4.5V19.5C20 19.5119 19.996 19.5234 19.9951 19.5352C19.9937 19.5558 19.9923 19.5762 19.9883 19.5967C19.9855 19.611 19.9816 19.6248 19.9775 19.6387C19.9715 19.6593 19.9639 19.6792 19.9551 19.6992C19.9486 19.714 19.9414 19.7281 19.9336 19.7422C19.9296 19.7492 19.9282 19.7577 19.9238 19.7646C19.9168 19.776 19.9072 19.7854 19.8994 19.7959C19.891 19.8073 19.8825 19.8184 19.873 19.8291C19.857 19.8474 19.8395 19.8635 19.8213 19.8789C19.8136 19.8854 19.8079 19.8943 19.7998 19.9004L15.8115 22.8906C15.8095 22.8922 15.8077 22.894 15.8057 22.8955L15.7998 22.9004C15.7765 22.9179 15.7513 22.9323 15.7256 22.9453L15.7236 22.9473C15.7197 22.9492 15.7149 22.9493 15.7109 22.9512C15.6883 22.9617 15.6655 22.9715 15.6416 22.9785C15.6294 22.9822 15.6168 22.9837 15.6045 22.9863C15.588 22.9899 15.5716 22.9933 15.5547 22.9951C15.5419 22.9965 15.5293 22.9976 15.5166 22.998C15.5111 22.9982 15.5056 23 15.5 23H8.5C8.49411 23 8.48829 22.9983 8.48242 22.998C8.46969 22.9976 8.45709 22.9965 8.44434 22.9951C8.42747 22.9932 8.41106 22.9899 8.39453 22.9863C8.38221 22.9836 8.36964 22.9822 8.35742 22.9785C8.33353 22.9714 8.31068 22.9618 8.28809 22.9512C8.28439 22.9494 8.28004 22.9491 8.27637 22.9473L8.27344 22.9453C8.24797 22.9324 8.22329 22.9177 8.2002 22.9004L8.19434 22.8955C8.19212 22.8938 8.18968 22.8924 8.1875 22.8906L4.2002 19.9004C4.19189 19.8942 4.18559 19.8856 4.17773 19.8789C4.15959 19.8635 4.14202 19.8474 4.12598 19.8291C4.11659 19.8184 4.10802 19.8073 4.09961 19.7959C4.09194 19.7855 4.08314 19.7758 4.07617 19.7646C4.07176 19.7576 4.06945 19.7494 4.06543 19.7422C4.0576 19.7281 4.05039 19.714 4.04395 19.6992C4.03518 19.6792 4.02746 19.6592 4.02148 19.6387C4.01746 19.6248 4.01356 19.6109 4.01074 19.5967C4.00671 19.5762 4.00535 19.5557 4.00391 19.5352C4.00308 19.5234 4 19.5118 4 19.5V4.5C4 4.48783 4.00303 4.47591 4.00391 4.46387C4.00539 4.4433 4.00667 4.42276 4.01074 4.40234C4.01359 4.3881 4.01743 4.37423 4.02148 4.36035C4.0275 4.3398 4.03514 4.31978 4.04395 4.2998C4.05041 4.28507 4.05758 4.27088 4.06543 4.25684C4.06932 4.24989 4.07191 4.24217 4.07617 4.23535C4.08328 4.22398 4.09176 4.21372 4.09961 4.20312C4.10803 4.19175 4.11659 4.18058 4.12598 4.16992C4.14202 4.1517 4.15959 4.13552 4.17773 4.12012C4.18544 4.11357 4.19206 4.10571 4.2002 4.09961L8.1875 1.1084C8.18968 1.10666 8.19212 1.10522 8.19434 1.10352L8.2002 1.09961L8.26855 1.05664L8.27148 1.05469L8.27637 1.05273C8.30977 1.03604 8.34412 1.02335 8.37891 1.01465C8.38243 1.01377 8.3861 1.0135 8.38965 1.0127C8.42176 1.00541 8.45407 1.00183 8.48633 1.00098C8.49089 1.00085 8.49543 1 8.5 1H15.5C15.5055 1 15.5111 1.00079 15.5166 1.00098ZM10.8086 19L9.30859 22H14.6914L13.1914 19H10.8086ZM5.38281 19.5361L8.32031 21.7402L9.86523 18.6494L8.47363 17.6055L5.38281 19.5361ZM14.1338 18.6494L15.6787 21.7393L18.6162 19.5361L15.5254 17.6055L14.1338 18.6494ZM5 18.5977L8 16.7227V7.27637L5 5.40137V18.5977ZM16 7.27637V16.7227L19 18.5977V5.40137L16 7.27637ZM9 7.25V16.749L10.667 18H13.333L15 16.749V7.25L13.333 6H10.667L9 7.25ZM5.38281 4.46191L8.47363 6.39355L9.86523 5.34961L8.32031 2.25879L5.38281 4.46191ZM14.1338 5.34961L15.5254 6.39355L18.6162 4.46191L15.6787 2.25879L14.1338 5.34961ZM10.8086 5H13.1914L14.6914 2H9.30859L10.8086 5Z" fill="#363636"/>
</svg>
