<svg viewBox="0 0 20 20" xmlns="http://www.w3.org/2000/svg">
<path d="M6.04275 14.5959L2.39675 10.9499C1.86775 10.4189 1.86775 9.55993 2.39675 9.02993L8.87875 2.54593C9.10975 2.31293 9.41875 2.17193 9.74575 2.14893L11.9097 2.00293C12.3047 1.97693 12.6897 2.12493 12.9637 2.40793L14.5468 3.98393L14.5528 3.97193L16.1728 4.72593C16.5368 4.90393 16.8047 5.23293 16.9017 5.62593L17.4127 7.68393C17.4877 7.99393 17.4517 8.32093 17.3077 8.60793L13.2548 16.8899C13.0288 17.3559 12.5578 17.6509 12.0398 17.6519H12.0318C11.8228 17.6529 11.6168 17.6029 11.4328 17.5059L6.80475 15.2369C6.63575 15.1319 6.48875 14.9989 6.36775 14.8419C6.24975 14.7769 6.13875 14.6949 6.04275 14.5959ZM15.0388 5.16393L14.8518 7.26993C14.8138 7.57693 14.6738 7.86193 14.4548 8.08093L7.97175 14.5649C7.89275 14.6479 7.80375 14.7219 7.70775 14.7829L11.7888 16.7769C11.9228 16.8339 12.0758 16.8339 12.2098 16.7769C12.3338 16.7339 12.4377 16.6479 12.5017 16.5339V16.4929L16.5538 8.21893C16.6068 8.10193 16.6208 7.97193 16.5938 7.84593L16.1077 5.81993C16.0707 5.66193 15.9638 5.52993 15.8158 5.46393L15.0428 5.10393C15.0418 5.12393 15.0398 5.14393 15.0388 5.16393ZM9.47075 3.08893L2.98675 9.57293C2.75175 9.78993 2.75175 10.1639 2.98675 10.3829L6.63475 14.0289C6.85275 14.2659 7.22675 14.2659 7.44475 14.0289L13.9278 7.54693C14.0238 7.45793 14.0818 7.33693 14.0908 7.20593L14.2768 5.09893C14.2938 4.93793 14.2368 4.77693 14.1228 4.66093L12.4128 2.94293C12.3008 2.82693 12.1437 2.76793 11.9827 2.78093L9.82675 2.92693C9.69375 2.93493 9.56575 2.99293 9.47075 3.08893ZM12.1208 5.94093C11.2728 5.92993 10.7558 5.00293 11.1908 4.27393C11.6258 3.54593 12.6868 3.56093 13.0998 4.30293C13.1928 4.46893 13.2408 4.65693 13.2388 4.84793C13.2348 5.45893 12.7328 5.95093 12.1208 5.94093ZM12.1208 4.55493C11.8988 4.51893 11.7197 4.73493 11.7987 4.94493C11.8477 5.07593 11.9828 5.15493 12.1208 5.13093C12.3418 5.09393 12.4398 4.83093 12.2978 4.65793C12.2538 4.60393 12.1898 4.56693 12.1208 4.55493Z"/>
</svg>
