<?xml version="1.0" encoding="UTF-8"?>
<svg xmlns="http://www.w3.org/2000/svg" width="24" height="24" version="1.1" viewBox="0 0 24 24">
  <defs>
    <style>
      .cls-1 {
        fill: #363636;
      }
    </style>
  </defs>
  <!-- Generator: Adobe Illustrator 28.7.1, SVG Export Plug-In . SVG Version: 1.2.0 Build 142)  -->
  <g>
    <g id="Camada_1">
      <path class="cls-1" d="M21.9,18.2l-4.65-6.2h2.25c.187,0,.357-.104.443-.269s.073-.365-.034-.518L12.909,1.213c-.186-.268-.633-.268-.818,0l-7,10c-.107.153-.12.352-.034.518.086.166.257.269.443.269h2.25l-4.65,6.2c-.114.151-.132.354-.047.523.085.169.258.276.447.276h8.5v3h-4.5c-.276,0-.5.224-.5.5s.224.5.5.5h10c.276,0,.5-.224.5-.5s-.224-.5-.5-.5h-4.5v-3h8.5c.189,0,.362-.107.447-.276s.066-.372-.047-.523ZM4.5,18l4.65-6.2c.114-.151.132-.354.047-.523-.085-.169-.258-.276-.447-.276h-2.29L12.5,2.372l6.04,8.628h-2.29c-.189,0-.362.107-.447.276s-.066.372.047.523l4.65,6.2H4.5Z"/>
    </g>
  </g>
</svg>