<svg xmlns="http://www.w3.org/2000/svg" width="24" height="24" viewBox="0 0 24 24"><path d="M14.25,15.5a.5.5,0,0,0-.47.54l.28,3.7a.21.21,0,0,1,0,.14.47.47,0,0,1-.2.15H4.14a.32.32,0,0,1-.31-.35l.69-9.3H6.06v2.1a.51.51,0,0,0,.5.5.5.5,0,0,0,.5-.5v-2.1h.87a.5.5,0,0,0,.5-.5.5.5,0,0,0-.5-.5H7.06V8.83A1.9,1.9,0,0,1,8,7.2a.5.5,0,0,0-.53-.85A2.91,2.91,0,0,0,6.06,8.83v.55h-2a.5.5,0,0,0-.5.46l-.72,9.77a.45.45,0,0,0,0,.12A1.31,1.31,0,0,0,4.14,21h9.77a1.43,1.43,0,0,0,.94-.59,1.06,1.06,0,0,0,.2-.83L14.78,16A.49.49,0,0,0,14.25,15.5Z"/><path d="M17.34,14h-2.4a.5.5,0,0,0-.5.5.51.51,0,0,0,.5.5h2.4a.5.5,0,0,0,.5-.5A.5.5,0,0,0,17.34,14Z"/><path d="M17.59,4a3.69,3.69,0,0,0-1.45-.26A3.74,3.74,0,0,0,14.71,4,4,4,0,0,0,12.34,9c.09.35.16.68.22,1,.23,1.13.47,2.29,1.89,2.77a.5.5,0,0,0,.49.46h2.4a.5.5,0,0,0,.49-.46c1.42-.49,1.66-1.67,1.89-2.81.06-.32.13-.65.23-1A4,4,0,0,0,17.59,4ZM19,8.63c-.11.37-.18.73-.25,1.07-.26,1.28-.4,2-1.75,2.19a.51.51,0,0,0-.35.24V9.64a.5.5,0,0,0-.5-.5.51.51,0,0,0-.5.5v2.5a.46.46,0,0,0-.35-.25c-1.35-.21-1.49-.9-1.75-2.15-.07-.33-.14-.69-.24-1.05A3,3,0,0,1,15.09,5a3.09,3.09,0,0,1,2.12,0A3,3,0,0,1,19,8.63Z"/><path d="M16.14,3a.5.5,0,0,0,.5-.5V1.52a.5.5,0,0,0-.5-.5.5.5,0,0,0-.5.5v.94A.5.5,0,0,0,16.14,3Z"/><path d="M12,4.39a.47.47,0,0,0,.35.15.5.5,0,0,0,.35-.85L12,3a.5.5,0,1,0-.71.71Z"/><path d="M21,3a.51.51,0,0,0-.71,0l-.65.66a.5.5,0,0,0,.35.85.51.51,0,0,0,.36-.15L21,3.74A.5.5,0,0,0,21,3Z"/><path d="M9.81,8.36h.93a.5.5,0,0,0,.5-.5.5.5,0,0,0-.5-.5H9.81a.5.5,0,0,0-.5.5A.5.5,0,0,0,9.81,8.36Z"/><path d="M22.48,7.36h-.93a.5.5,0,0,0-.5.5.5.5,0,0,0,.5.5h.93a.5.5,0,0,0,.5-.5A.5.5,0,0,0,22.48,7.36Z"/></svg>