<?xml version="1.0" encoding="utf-8"?>
<!-- Generator: Adobe Illustrator 27.0.1, SVG Export Plug-In . SVG Version: 6.00 Build 0)  -->
<svg version="1.1" id="Create-Here" xmlns="http://www.w3.org/2000/svg" xmlns:xlink="http://www.w3.org/1999/xlink" x="0px"
	 y="0px" width="24px" height="24px" viewBox="0 0 24 24" style="enable-background:new 0 0 24 24;" xml:space="preserve">
<g>
	<path d="M20.3,19.5l-1-12c0-0.3-0.2-0.5-0.5-0.5h-2.9V6.4c0-1.3-0.4-2.3-1.1-2.9c-1.2-1.1-2.9-1-2.9-1c-1.2,0-2.1,0.4-2.8,1.1
		c-1.1,1.1-1,2.7-1,2.8V7H5.2C4.9,7,4.7,7.2,4.7,7.4l-1,12c0,0.1-0.2,0.9,0.3,1.5c0.2,0.3,0.6,0.5,1.3,0.5h13.3
		c0.7,0,1.1-0.3,1.3-0.5C20.5,20.3,20.3,19.5,20.3,19.5z M9.1,6.3c0,0,0-1.2,0.7-2.1c0.5-0.5,1.2-0.7,2.1-0.7c0,0,1.3-0.1,2.2,0.7
		c0.5,0.5,0.8,1.2,0.8,2.2V7H9.1L9.1,6.3z M19.2,20.3c-0.1,0.1-0.3,0.2-0.5,0.2H5.4c-0.3,0-0.4-0.1-0.5-0.2
		c-0.2-0.2-0.1-0.6-0.1-0.8L5.6,8h2.4v1.6c0,0.3,0.2,0.5,0.5,0.5s0.5-0.2,0.5-0.5l0-1.6h5.8v1.6c0,0.3,0.2,0.5,0.5,0.5
		s0.5-0.2,0.5-0.5V8h2.4l0.9,11.6C19.3,19.7,19.3,20.1,19.2,20.3z"/>
	<circle cx="8.6" cy="12.7" r="1"/>
	<circle cx="15.4" cy="12.7" r="1"/>
	<path d="M9.2,16.9c-0.1,0.1-0.1,0.2,0,0.4c0.1,0.1,0.2,0.1,0.4,0c0.1-0.1,2.3-1.8,5.1,0c0,0,0.1,0,0.1,0c0.1,0,0.2,0,0.2-0.1
		c0.1-0.1,0-0.3-0.1-0.3C11.8,14.9,9.2,16.9,9.2,16.9z"/>
</g>
</svg>
