<svg xmlns="http://www.w3.org/2000/svg" width="24" height="24" viewBox="0 0 24 24"><path d="M17.86,4.66C16.57,3.22,14.6,2.49,12,2.49s-4.57.73-5.86,2.17S4.21,8.57,4.54,11.5C4.82,14,5.77,17,6.65,18.12,8.16,20,10.51,21.51,12,21.51s3.84-1.49,5.35-3.39C18.23,17,19.18,14,19.46,11.5,19.79,8.57,19.24,6.21,17.86,4.66Zm.61,6.73a15.6,15.6,0,0,1-1.9,6.11c-1.43,1.8-3.52,3-4.57,3s-3.14-1.21-4.57-3a15.65,15.65,0,0,1-1.9-6.11C5.32,9.55,5.39,7,6.89,5.33,8,4.11,9.7,3.49,12,3.49s4,.62,5.11,1.84C18.61,7,18.68,9.55,18.47,11.39Z"/><path d="M10.5,11a.48.48,0,0,0,.46-.32.5.5,0,0,0-.27-.65c-2.15-.85-2.9-.64-3.47,0l-.07.08a.5.5,0,0,0,0,.71.48.48,0,0,0,.7,0A.86.86,0,0,0,8,10.7c.18-.2.44-.51,2.33.25A.46.46,0,0,0,10.5,11Z"/><path d="M16.78,10.05c-.57-.67-1.32-.89-3.47,0a.5.5,0,0,0-.27.65.48.48,0,0,0,.46.32.46.46,0,0,0,.19,0c1.89-.76,2.15-.45,2.33-.25a.86.86,0,0,0,.13.14.48.48,0,0,0,.7,0,.5.5,0,0,0,0-.71Z"/><path d="M13.91,16.52a1.12,1.12,0,0,1-.49,0,3.21,3.21,0,0,0-.72-.11,1,1,0,0,0-.43.11l-.25.17h0l-.25-.17a1,1,0,0,0-.43-.11,3.21,3.21,0,0,0-.72.11,1.13,1.13,0,0,1-.49,0,.5.5,0,1,0-.18,1,2.14,2.14,0,0,0,.89,0,2.89,2.89,0,0,1,.47-.09l.11.07a1.29,1.29,0,0,0,.2.15.74.74,0,0,0,.84,0,1.29,1.29,0,0,0,.2-.15l.1-.07a2.79,2.79,0,0,1,.48.09,2.14,2.14,0,0,0,.89,0,.5.5,0,0,0-.18-1Z"/><path d="M11.13,13.65,11,13.46l-.31-.39h0l0,0-.08.08a1,1,0,0,0-.2.32.7.7,0,0,0,.05.62,1,1,0,0,0,.53.4s0,0,0,0l.05.05.1.11a1.31,1.31,0,0,0,.38.24,1.93,1.93,0,0,0,1.1,0,1.31,1.31,0,0,0,.38-.24l.1-.11.05-.05s0,0,0,0a1,1,0,0,0,.53-.4.73.73,0,0,0,.05-.62,1.19,1.19,0,0,0-.2-.32l-.08-.08,0,0h0a1.12,1.12,0,0,0-.15.18l.15-.18a.51.51,0,0,0-.71.08.5.5,0,0,0,0,.51.89.89,0,0,0-.21.16l-.08.09,0,.05,0,0a1,1,0,0,1-.4,0l0,0,0-.05-.09-.09a.83.83,0,0,0-.2-.16.5.5,0,0,0,0-.51.51.51,0,0,0-.71-.08Z"/></svg>