<svg xmlns="http://www.w3.org/2000/svg" viewBox="0 0 24 24"><g id="Create-Here"><path d="M20.06,15.42l-.11-.2a1.35,1.35,0,0,0-1.79-.37l-2,1a1.24,1.24,0,0,0-.25-.39,1.31,1.31,0,0,0-.89-.42l-2.9-.38h-.2c-.08,0-2.09-.08-2.88,0a28.29,28.29,0,0,0-4.43,1.8l-.45.21L5.92,20l.4-.23c.92-.51,2-1.08,2.15-1.14a.94.94,0,0,1,.39.13L11.46,20l.09,0a1.74,1.74,0,0,0,.39.05,1.86,1.86,0,0,0,.34,0l3.52-.69,3.4-2.15A1.46,1.46,0,0,0,20.06,15.42Zm-1.28.94-3.25,2.07-3.45.68a.75.75,0,0,1-.26,0L9.23,17.85a1.57,1.57,0,0,0-1-.18,16.59,16.59,0,0,0-2,1l-.86-1.56A25.71,25.71,0,0,1,9.1,15.61c.72-.07,2.73,0,2.77,0H12L14.9,16a.42.42,0,0,1,.3.13.4.4,0,0,1,.09.22.61.61,0,0,1-.68.29l-3.22-.43a.47.47,0,0,0-.12.94l3.19.42A1.54,1.54,0,0,0,16,17l2.65-1.34a.43.43,0,0,1,.56.09A.57.57,0,0,1,18.78,16.36Z"/><path d="M8.48,14.25h7.14a1,1,0,0,0,.72-.33,1,1,0,0,0,.26-.74l-.55-6.23a.47.47,0,0,0-.46-.43H14.28V6.25a2.25,2.25,0,0,0-4.49,0v.26H8.47A.47.47,0,0,0,8,6.94l-.55,6.23v.11A1,1,0,0,0,8.48,14.25Zm2.24-8a1.32,1.32,0,0,1,2.63,0v.26H10.72ZM8.9,7.45h.89v.8a.47.47,0,0,0,.46.48.48.48,0,0,0,.47-.48v-.8h2.63v.81a.46.46,0,0,0,.46.47.47.47,0,0,0,.47-.47V7.45h.88l.5,5.82-7.16,0c-.06,0-.11,0-.11-.05Z"/></g></svg>