<?xml version="1.0" encoding="UTF-8"?>
<svg id="Camada_1" data-name="Camada 1" xmlns="http://www.w3.org/2000/svg" width="24" height="24" version="1.1" viewBox="0 0 24 24">
  <path d="M21.854,2.146c-.195-.195-.512-.195-.707,0l-4.831,4.831c-.042-.073-.087-.144-.133-.215-.533-.813-1.291-1.454-2.183-1.843,0-.53-.211-1.039-.586-1.414-.375-.375-.884-.586-1.414-.586s-1.039.211-1.414.586c-.375.375-.586.884-.586,1.414-.891.389-1.65,1.029-2.183,1.843s-.817,1.765-.817,2.737v4c0,.233-.053.463-.157.671-.104.208-.256.389-.443.529l-1.4,1.05v1.75c0,.226.051.447.146.647l-3,3c-.195.195-.195.512,0,.707.195.195.512.195.707,0l3-3h.002s.854-.854.854-.854h-.003l9.226-9.226v.002s.821-.821.821-.821v-.002s5.099-5.1,5.099-5.1c.195-.195.195-.512,0-.707ZM6,17.293v-1.043l1-.75c.31-.233.562-.535.735-.883.173-.347.264-.729.265-1.117v-4c0-.827.258-1.634.736-2.309.478-.675,1.154-1.185,1.934-1.461l.33-.12v-.61c0-.265.105-.52.293-.707.188-.188.442-.293.707-.293s.52.105.707.293c.188.188.293.442.293.707v.61l.33.12c.78.275,1.456.785,1.934,1.461.118.167.223.342.314.524l-9.578,9.578Z" fill="#363636" stroke-width="0"/>
  <path d="M17.157,14.171c-.104-.208-.158-.438-.157-.671v-4c0-.121-.005-.242-.013-.362l-.987.987v3.376c0,.388.091.771.265,1.117.173.347.425.649.735.883l1,.75v1.25c0,.133-.053.26-.146.354-.094.094-.221.146-.354.146h-9.376l-1,1h10.376c.398,0,.779-.158,1.061-.439.281-.281.439-.663.439-1.061v-1.75l-1.4-1.05c-.187-.139-.339-.32-.443-.529Z" fill="#363636" stroke-width="0"/>
  <path d="M10.63,21.093c.407.267.883.408,1.37.407.487,0,.963-.141,1.37-.407.407-.266.727-.646.92-1.093h-4.58c.193.446.513.826.92,1.093Z" fill="#363636" stroke-width="0"/>
</svg>