<?xml version="1.0" encoding="UTF-8"?>
<svg xmlns="http://www.w3.org/2000/svg" width="24" height="24" version="1.1" viewBox="0 0 24 24">

        <path class="cls-1" d="M17.5,3.5c.552,0,1,.448,1,1,0,.276.224.5.5.5s.5-.224.5-.5c0-.552.448-1,1-1,.276,0,.5-.224.5-.5s-.224-.5-.5-.5c-.552,0-1-.448-1-1,0-.276-.224-.5-.5-.5s-.5.224-.5.5c0,.552-.448,1-1,1-.276,0-.5.224-.5.5s.224.5.5.5Z"/>
        <path class="cls-1" d="M21.947,12.276l-1.5-3c-.06-.119-.161-.205-.279-.247-.014-.005-.029-.01-.046-.014h-.001s-3.135-.784-3.135-.784c-.04.348-.17.669-.365.94l1.531.383-6.153,1.923-6.152-1.923,4.571-1.143c-.066-.402-.166-.717-.276-.962l-6.257,1.564c-.022.005-.044.012-.066.02-.046.018-.087.041-.125.07-.059.045-.108.103-.143.173l-1.5,3c-.063.127-.07.274-.018.406s.157.236.29.285l1.676.628v5.904c0,.205.124.388.314.464l7.497,2.999c.119.048.253.05.374,0l7.5-3c.19-.076.314-.26.314-.464v-5.904l1.676-.628c.133-.05.238-.154.29-.285s.045-.28-.018-.406ZM3.196,12.227l1.061-2.123,7.065,2.208-1.094,2.552-7.033-2.637ZM11.5,21.761l-6.5-2.6v-5.19l5.324,1.997c.25.094.53-.026.635-.271l.54-1.261v7.326ZM19,19.161l-6.5,2.6v-7.326l.54,1.261c.105.246.385.365.635.271l5.324-1.997v5.19ZM13.771,14.864l-1.094-2.552,7.065-2.208,1.061,2.123-7.033,2.637Z"/>
        <path class="cls-1" d="M3.5,4.5c.552,0,1,.448,1,1,0,.276.224.5.5.5s.5-.224.5-.5c0-.552.448-1,1-1,.276,0,.5-.224.5-.5s-.224-.5-.5-.5c-.552,0-1-.448-1-1,0-.276-.224-.5-.5-.5s-.5.224-.5.5c0,.552-.448,1-1,1-.276,0-.5.224-.5.5s.224.5.5.5Z"/>
        <circle class="cls-1" cx="10" cy="2" r="1"/>
        <circle class="cls-1" cx="15" cy="8" r="1"/>
        <path class="cls-1" d="M9.743,4.544c-.044-.012-.081-.021-.108-.027-.014-.003-.025-.005-.034-.007l-.012-.002h-.008c-.273-.046-.53.139-.574.411-.044.271.138.526.408.573l.007.002c.009.002.027.006.051.013.049.014.124.038.218.079.188.082.447.229.709.487.513.504,1.1,1.492,1.1,3.427,0,.276.224.5.5.5s.5-.224.5-.5c0-1.911.696-3.172,1.378-3.956.343-.395.686-.672.94-.849.127-.088.231-.151.301-.191.035-.02.061-.034.078-.042l.017-.008h.002c.249-.119.356-.416.238-.665-.117-.25-.416-.357-.666-.24h-.002s-.004.003-.004.003l-.01.005c-.008.004-.02.01-.033.017-.028.014-.066.035-.113.061-.094.053-.225.133-.379.24-.309.215-.716.546-1.123,1.014-.408.47-.812,1.075-1.115,1.833-.25-.589-.571-1.032-.907-1.362-.363-.356-.729-.567-1.01-.69-.14-.061-.26-.101-.348-.125Z"/>

</svg>