<?xml version="1.0" encoding="UTF-8"?>
<svg xmlns="http://www.w3.org/2000/svg" width="24" height="24" version="1.1" viewBox="0 0 24 24">
  <defs>
    <style>
      .cls-1 {
        fill: #363636;
        fill-rule: evenodd;
      }
    </style>
  </defs>
  <!-- Generator: Adobe Illustrator 28.6.0, SVG Export Plug-In . SVG Version: 1.2.0 Build 709)  -->
  <g>
    <g id="Camada_1">
      <g>
        <path class="cls-1" d="M16.5,14H7.5c-.276,0-.5.224-.5.5v4c0,.276.224.5.5.5h9c.276,0,.5-.224.5-.5v-4c0-.276-.224-.5-.5-.5ZM16,18h-8v-3h8v3Z"/>
        <path class="cls-1" d="M20,11.012v-2.512c0-.276-.224-.5-.5-.5h-2.107c.355-.686.52-1.339.543-1.952.032-.841-.206-1.567-.526-2.152-.319-.582-.725-1.032-1.047-1.334-.162-.152-.305-.269-.409-.349-.052-.04-.095-.071-.125-.093-.015-.011-.028-.019-.037-.026l-.011-.008-.004-.002h-.001s-.001-.002-.276.416l.275-.418c-.154-.101-.35-.11-.512-.023-.162.087-.263.256-.263.44,0,.099-.06.294-.24.541-.172.236-.416.467-.689.637-.175.109-.438.194-.744.249-.299.054-.601.073-.827.073h-3.409c-.704,0-1.531.251-2.186.905-.648.648-.905,1.472-.905,2.095v1h-1.5c-.276,0-.5.224-.5.5v2.512c-1.142.119-2,1.128-2,2.306v6.364c0,1.256.973,2.318,2.227,2.318h15.545c1.254,0,2.227-1.062,2.227-2.318v-6.364c0-1.179-.858-2.187-2-2.306ZM7,7c0-.377.165-.941.612-1.388.441-.441,1.001-.612,1.478-.612h3.409c.274,0,.637-.022,1.004-.089.36-.065.765-.179,1.095-.384.383-.239.722-.559.969-.897.063-.087.123-.179.178-.275.257.251.554.597.788,1.023.253.461.427,1.008.404,1.633-.021.57-.209,1.236-.701,1.99H7v-1ZM5,9h11.493s.008,0,.013,0h2.494v2H5v-2ZM21,19.682c0,.753-.573,1.318-1.227,1.318H4.227c-.654,0-1.227-.566-1.227-1.318v-6.364c0-.753.573-1.318,1.227-1.318h15.545c.654,0,1.227.566,1.227,1.318v6.364Z"/>
      </g>
    </g>
  </g>
</svg>