<svg width="24" height="24" viewBox="0 0 24 24" xmlns="http://www.w3.org/2000/svg">
<path d="M13.2452 20.215C12.9137 20.5465 12.4632 20.7335 11.9958 20.7335C11.5198 20.7335 11.0778 20.5465 10.7463 20.215L8.52784 17.9966C8.83383 17.8181 9.12282 17.5971 9.37781 17.3421L11.8768 14.8432L14.3842 17.3506C14.6817 17.6481 15.0132 17.8946 15.3787 18.0901L13.2537 20.215H13.2452ZM17.3506 17.3081C16.5686 17.3081 15.8292 17.0021 15.2767 16.4496L12.2677 13.4407C12.0552 13.2282 11.6898 13.2282 11.4773 13.4407L8.47684 16.4411C7.92435 16.9936 7.18487 17.2996 6.40289 17.2996H6.0459L9.8538 21.1075C11.0438 22.2975 12.9647 22.2975 14.1462 21.1075L17.9456 17.3081H17.3591H17.3506Z" />
<path d="M14.3761 6.65788L11.8687 9.16532L9.36971 6.66638C9.11472 6.41139 8.82573 6.19039 8.51973 6.0119L10.7382 3.79345C11.4267 3.10497 12.5571 3.10497 13.2456 3.79345L15.3706 5.9184C15.0051 6.1139 14.6736 6.36039 14.3761 6.65788ZM14.1381 2.89248C12.9481 1.70251 11.0272 1.70251 9.8372 2.89248L6.0293 6.70038H6.38629C7.16827 6.70038 7.90775 7.00637 8.46024 7.55886L11.4607 10.5593C11.6817 10.7803 12.0301 10.7803 12.2511 10.5593L15.2601 7.55036C15.8126 6.99787 16.552 6.69188 17.334 6.69188H17.929L14.1381 2.89248Z" />
<path d="M20.2065 13.2537L18.3026 15.1662H17.3506C17.1466 15.1662 16.9426 15.0812 16.7896 14.9367L13.8572 12.0042L16.7896 9.07182C16.9341 8.92732 17.1381 8.84233 17.3506 8.84233H18.3026L20.2065 10.7548C20.538 11.0863 20.725 11.5368 20.725 12.0042C20.725 12.4717 20.538 12.9222 20.2065 13.2622M6.95538 14.9282C6.81088 15.0727 6.60688 15.1577 6.39439 15.1577H5.67191L3.77646 13.2622C3.08797 12.5737 3.08797 11.4433 3.77646 10.7548L5.67191 8.85933H6.39439C6.59839 8.85933 6.80238 8.94432 6.95538 9.08882L9.8708 12.0042L6.94688 14.9197L6.95538 14.9282ZM21.1075 9.8623L18.8296 7.58436H17.3591C16.8151 7.58436 16.2881 7.80535 15.9057 8.18784L12.8967 11.1968C12.6162 11.4773 12.2507 11.6133 11.8768 11.6133C11.5028 11.6133 11.1373 11.4688 10.8568 11.1968L7.85635 8.19634C7.47386 7.81385 6.94688 7.59286 6.40289 7.59286H5.16192L2.89248 9.8623C1.70251 11.0523 1.70251 12.9732 2.89248 14.1632L5.16192 16.4326H6.40289C6.94688 16.4326 7.47386 16.2116 7.85635 15.8292L10.8568 12.8287C11.4008 12.2847 12.3527 12.2847 12.8967 12.8287L15.9057 15.8377C16.2881 16.2201 16.8151 16.4411 17.3591 16.4411H18.8296L21.1075 14.1632C22.2975 12.9732 22.2975 11.0523 21.1075 9.8623Z" />
</svg>
