<?xml version="1.0" encoding="UTF-8"?>
<svg xmlns="http://www.w3.org/2000/svg" width="24" height="24" version="1.1" viewBox="0 0 24 24">

        <path class="cls-1" d="M9.466,6.774l-.431,2.645c-.031.189.049.379.206.489.157.11.362.121.53.029l2.23-1.233,2.23,1.233c.168.093.373.081.53-.029.156-.11.236-.3.206-.489l-.431-2.645,1.824-1.869c.131-.134.176-.33.116-.508-.06-.178-.213-.307-.399-.336l-2.5-.382-1.123-2.392c-.082-.175-.259-.287-.453-.287s-.37.112-.453.287l-1.123,2.392-2.5.382c-.185.028-.339.158-.399.336-.06.178-.015.374.116.508l1.824,1.869Z"/>
        <path class="cls-1" d="M20.451,9.285c-.056-.116-.155-.21-.284-.256-.018-.006-.036-.012-.055-.016l-4.379-1.095.175,1.075,2.243.561-6.152,1.923-6.152-1.923,2.243-.561.175-1.075-4.376,1.094c-.142.032-.268.126-.337.264l-1.5,3c-.063.127-.07.274-.018.406s.157.236.29.285l1.676.628v5.904c0,.205.124.388.314.464l7.497,2.999c.119.048.253.05.374,0l7.5-3c.19-.076.314-.26.314-.464v-5.904l1.676-.628c.133-.05.238-.154.29-.285s.045-.28-.018-.406l-1.496-2.992ZM3.196,12.227l1.061-2.123,7.065,2.208-1.094,2.552-7.033-2.637ZM11.5,21.761l-6.5-2.6v-5.19l5.324,1.997c.25.094.53-.026.635-.271l.54-1.261v7.326ZM19,19.161l-6.5,2.6v-7.326l.54,1.261c.105.246.385.365.635.271l5.324-1.997v5.19ZM13.771,14.864l-1.094-2.552,7.065-2.208,1.061,2.123-7.033,2.637Z"/>
        <circle class="cls-1" cx="2" cy="7" r="1"/>
        <circle class="cls-1" cx="22" cy="2" r="1"/>
        <path class="cls-1" d="M3.5,3.5c.552,0,1,.448,1,1,0,.276.224.5.5.5s.5-.224.5-.5c0-.552.448-1,1-1,.276,0,.5-.224.5-.5s-.224-.5-.5-.5c-.552,0-1-.448-1-1,0-.276-.224-.5-.5-.5s-.5.224-.5.5c0,.552-.448,1-1,1-.276,0-.5.224-.5.5s.224.5.5.5Z"/>
        <path class="cls-1" d="M17.5,6.5c.552,0,1,.448,1,1,0,.276.224.5.5.5s.5-.224.5-.5c0-.552.448-1,1-1,.276,0,.5-.224.5-.5s-.224-.5-.5-.5c-.552,0-1-.448-1-1,0-.276-.224-.5-.5-.5s-.5.224-.5.5c0,.552-.448,1-1,1-.276,0-.5.224-.5.5s.224.5.5.5Z"/>

</svg>