<?xml version="1.0" encoding="UTF-8"?>
<svg xmlns="http://www.w3.org/2000/svg" width="24" height="24" version="1.1" viewBox="0 0 24 24">

        <circle class="cls-1" cx="16.5" cy="4.5" r=".5"/>
        <circle class="cls-1" cx="16" cy="7" r="1"/>
        <path class="cls-2" d="M20,6.542c0-.542-.218-1.179-.553-1.834-.334-.654-.781-1.319-1.229-1.915-.448-.596-.896-1.123-1.233-1.501-.04-.044-.078-.087-.114-.127-.095-.105-.23-.165-.371-.165s-.276.06-.371.165c-.036.04-.074.083-.114.127-.336.378-.785.904-1.233,1.501-.448.597-.895,1.261-1.229,1.915-.335.655-.553,1.292-.553,1.834,0,2.193,1.75,3.458,3.5,3.458s3.5-1.265,3.5-3.458ZM16.5,9c-1.295,0-2.5-.91-2.5-2.458,0-.306.133-.772.443-1.379.299-.584.709-1.198,1.138-1.77.32-.426.641-.816.918-1.137.277.322.598.712.918,1.137.43.572.84,1.186,1.138,1.77.31.606.443,1.073.443,1.379,0,1.548-1.205,2.458-2.5,2.458Z"/>
        <path class="cls-2" d="M8.5,4.5c.552,0,1,.448,1,1,0,.276.224.5.5.5s.5-.224.5-.5c0-.552.448-1,1-1,.276,0,.5-.224.5-.5s-.224-.5-.5-.5c-.552,0-1-.448-1-1,0-.276-.224-.5-.5-.5s-.5.224-.5.5c0,.552-.448,1-1,1-.276,0-.5.224-.5.5s.224.5.5.5Z"/>
        <path class="cls-2" d="M4.5,10.5c0-.552.448-1,1-1,.276,0,.5-.224.5-.5s-.224-.5-.5-.5c-.552,0-1-.448-1-1,0-.276-.224-.5-.5-.5s-.5.224-.5.5c0,.552-.448,1-1,1-.276,0-.5.224-.5.5s.224.5.5.5c.552,0,1,.448,1,1,0,.276.224.5.5.5s.5-.224.5-.5Z"/>
        <path class="cls-2" d="M21.5,15.5c-.552,0-1-.448-1-1,0-.276-.224-.5-.5-.5s-.5.224-.5.5c0,.552-.448,1-1,1-.276,0-.5.224-.5.5s.224.5.5.5c.552,0,1,.448,1,1,0,.276.224.5.5.5s.5-.224.5-.5c0-.552.448-1,1-1,.276,0,.5-.224.5-.5s-.224-.5-.5-.5Z"/>
        <circle class="cls-1" cx="9.5" cy="14.5" r=".5"/>
        <circle class="cls-1" cx="8" cy="19" r="1"/>
        <circle class="cls-1" cx="11" cy="17" r="1"/>
        <path class="cls-2" d="M11.916,11.788c-.721-.96-1.444-1.809-1.987-2.419-.064-.072-.125-.14-.184-.205-.095-.105-.23-.165-.371-.165s-.276.06-.371.165c-.059.065-.12.133-.184.205-.543.609-1.265,1.458-1.986,2.419-.723.962-1.437,2.026-1.969,3.067-.537,1.049-.865,2.031-.865,2.838,0,3.363,2.674,5.307,5.375,5.307s5.375-1.944,5.375-5.307c0-.807-.328-1.789-.865-2.838-.532-1.041-1.247-2.105-1.969-3.067ZM9.375,22c-2.247,0-4.375-1.589-4.375-4.307,0-.571.243-1.382.755-2.383.496-.971,1.175-1.984,1.878-2.921.619-.823,1.24-1.565,1.742-2.137.502.572,1.123,1.314,1.742,2.137.704.937,1.382,1.951,1.878,2.921.512,1.001.755,1.812.755,2.383,0,2.717-2.128,4.307-4.375,4.307Z"/>

</svg>