<svg xmlns="http://www.w3.org/2000/svg" width="24" height="24" viewBox="0 0 24 24">
  <g id="Create-Here">
    <g>
      <path d="M12,8a4,4,0,1,0,4,4A4,4,0,0,0,12,8Zm0,7a3,3,0,1,1,3-3A3,3,0,0,1,12,15Z"/>
      <path d="M7,12a.5.5,0,0,0-.5-.5h-3a.5.5,0,0,0,0,1h3A.5.5,0,0,0,7,12Z"/>
      <path d="M7.65,8.35a.48.48,0,0,0,.7,0,.48.48,0,0,0,0-.7l-2-2a.49.49,0,0,0-.7.7Z"/>
      <path d="M12,7a.5.5,0,0,0,.5-.5v-3a.5.5,0,0,0-1,0v3A.5.5,0,0,0,12,7Z"/>
      <path d="M16,8.5a.47.47,0,0,0,.35-.15l2-2a.49.49,0,1,0-.7-.7l-2,2a.48.48,0,0,0,0,.7A.47.47,0,0,0,16,8.5Z"/>
      <path d="M20.5,11.5h-3a.5.5,0,0,0,0,1h3a.5.5,0,0,0,0-1Z"/>
      <path d="M16.35,15.65a.49.49,0,1,0-.7.7l2,2a.48.48,0,0,0,.7,0,.48.48,0,0,0,0-.7Z"/>
      <path d="M12,17a.5.5,0,0,0-.5.5v3a.5.5,0,0,0,1,0v-3A.5.5,0,0,0,12,17Z"/>
      <path d="M7.65,15.65l-2,2a.48.48,0,0,0,0,.7.48.48,0,0,0,.7,0l2-2a.49.49,0,1,0-.7-.7Z"/>
    </g>
  </g>
</svg>
