<?xml version="1.0" encoding="UTF-8"?>
<svg id="Camada_1" xmlns="http://www.w3.org/2000/svg" width="24" height="24" version="1.1" viewBox="0 0 24 24">
  <!-- Generator: Adobe Illustrator 29.1.0, SVG Export Plug-In . SVG Version: 2.1.0 Build 142)  -->
  <path d="M19.5,7h1.793l-2.146,2.146c-.195.195-.195.512,0,.707.195.195.512.195.707,0l3-3c.048-.048.084-.103.109-.162.022-.054.035-.11.037-.167,0-.008,0-.016,0-.024,0-.068-.013-.132-.038-.191s-.061-.114-.109-.162l-3-3c-.195-.195-.512-.195-.707,0-.195.195-.195.512,0,.707l2.146,2.146h-1.793c-4.146,0-6.289,3.033-8.305,5.889-.076.108-.152.215-.228.322-2.136,3.015-4.251,5.789-8.467,5.789-.276,0-.5.224-.5.5s.224.5.5.5c4.784,0,7.169-3.226,9.283-6.211l.136-.193c2.107-2.977,3.961-5.596,7.581-5.596Z" fill="#363636"/>
  <path d="M22.969,18.326c-.024-.065-.063-.127-.115-.179l-3-3c-.195-.195-.512-.195-.707,0s-.195.512,0,.707l2.146,2.146h-1.793c-1.969,0-3.412-.776-4.656-1.953-.201-.19-.517-.181-.707.02-.19.201-.181.517.02.707,1.384,1.309,3.062,2.227,5.344,2.227h1.793l-2.146,2.146c-.195.195-.195.512,0,.707s.512.195.707,0l2.996-2.996c.013-.013.026-.027.037-.041.028-.034.05-.07.067-.108.029-.063.045-.134.045-.208,0-.009,0-.017,0-.026-.003-.052-.013-.102-.031-.149Z" fill="#363636"/>
  <path d="M2.5,7c2.471,0,4.212.952,5.655,2.329.2.191.516.183.707-.017.191-.2.183-.516-.017-.707-1.589-1.516-3.566-2.605-6.345-2.605-.276,0-.5.224-.5.5s.224.5.5.5Z" fill="#363636"/>
</svg>