<svg width="24" height="24" viewBox="0 0 24 24" fill="none" xmlns="http://www.w3.org/2000/svg">
<path d="M17.5102 8C17.5102 7.72386 17.2864 7.5 17.0102 7.5C16.7341 7.5 16.5102 7.72386 16.5102 8V12C16.5102 12.6848 16.3956 13.3494 16.003 14.0744C15.6051 14.809 14.9056 15.6352 13.6877 16.6096C13.472 16.7821 13.4371 17.0967 13.6096 17.3123C13.7821 17.528 14.0967 17.5629 14.3124 17.3904C15.5944 16.3648 16.4001 15.441 16.8823 14.5506C17.3697 13.6506 17.5102 12.8144 17.5102 11.9993V8Z" fill="#363636"/>
<path fill-rule="evenodd" clip-rule="evenodd" d="M12.1752 1.53176C12.0624 1.48953 11.9382 1.48941 11.8254 1.53142L3.76792 4.53142C3.57078 4.60482 3.44067 4.79376 3.4424 5.00411L3.49993 12.0021C3.50062 14.1657 4.57849 16.2766 6.12031 18.0754C7.6675 19.8804 9.72218 21.4202 11.7762 22.4472C11.917 22.5176 12.0827 22.5176 12.2234 22.4472C14.2776 21.4201 16.3323 19.8805 17.8807 18.0756C19.4243 16.2763 20.5046 14.165 20.51 12.0013L20.51 12V5C20.51 4.7915 20.3807 4.60489 20.1854 4.53176L12.1752 1.53176ZM4.49994 12L4.44525 5.3463L11.9993 2.53372L19.51 5.34666V11.9995C19.5052 13.8355 18.5806 15.7239 17.1217 17.4244C15.7233 19.0546 13.8705 20.4676 11.9998 21.4388C10.1293 20.4676 8.27672 19.0546 6.87957 17.4246C5.42189 15.724 4.49992 13.8357 4.49994 12Z" fill="#363636"/>
</svg>
