<?xml version="1.0" encoding="UTF-8"?>
<svg id="Camada_1" data-name="Camada 1" xmlns="http://www.w3.org/2000/svg" width="24" height="24" version="1.1" viewBox="0 0 24 24">
  <path d="M21.173,12.592V3.594c0-.234-.163-.438-.392-.488L11.781,1.105c-.071-.016-.146-.016-.217,0L2.564,3.105c-.229.051-.392.254-.392.488v10c0,.045.006.09.018.134,1.28,4.604,7.711,9.366,9.482,9.366.512,0,1.592-.51,2.846-1.347.545.163,1.122.253,1.72.253,3.314,0,6-2.686,6-6,0-1.267-.395-2.44-1.065-3.408ZM11.672,22.094c-1.251,0-7.305-4.45-8.5-8.569V3.995l8.5-1.889,8.5,1.889v7.483c-1.054-.918-2.428-1.478-3.935-1.478-3.314,0-6,2.686-6,6,0,2.295,1.29,4.287,3.183,5.297-.812.502-1.458.797-1.748.797ZM19.5,16.678h-2.762v2.763c0,.276-.224.5-.5.5s-.5-.224-.5-.5v-2.763h-2.763c-.276,0-.5-.224-.5-.5s.224-.5.5-.5h2.763v-2.763c0-.276.224-.5.5-.5s.5.224.5.5v2.763h2.762c.276,0,.5.224.5.5s-.224.5-.5.5Z" fill="#363636" stroke-width="0"/>
</svg>