<?xml version="1.0" encoding="UTF-8"?>
<svg id="Camada_1" xmlns="http://www.w3.org/2000/svg" width="24" height="24" version="1.1" viewBox="0 0 24 24">
  <!-- Generator: Adobe Illustrator 29.1.0, SVG Export Plug-In . SVG Version: 2.1.0 Build 142)  -->
  <path d="M21.5,12c-.276,0-.5.224-.5.5v8c0,.276-.224.5-.5.5H3.5c-.276,0-.5-.224-.5-.5V3.5c0-.276.224-.5.5-.5h8c.276,0,.5-.224.5-.5s-.224-.5-.5-.5H3.5c-.828,0-1.5.672-1.5,1.5v17c0,.828.672,1.5,1.5,1.5h17c.828,0,1.5-.672,1.5-1.5v-8c0-.276-.224-.5-.5-.5Z" fill="#363636"/>
  <path d="M21.5,2h-7c-.276,0-.5.224-.5.5s.224.5.5.5h5.793l-8.646,8.646c-.195.195-.195.512,0,.707s.512.195.707,0L21,3.707v5.793c0,.276.224.5.5.5s.5-.224.5-.5V2.5c0-.276-.224-.5-.5-.5Z" fill="#363636"/>
</svg>