<svg id="Icon_Outlined_Brand_Messenger" data-name="Icon / Outlined / Brand / Messenger" xmlns="http://www.w3.org/2000/svg" width="24" height="24" viewBox="0 0 24 24">
  <rect id="box" width="24" height="24" opacity="0"/>
  <g id="outlined-brand-messenger" transform="translate(2.5 2.198)">
    <path id="Caminho_2903" data-name="Caminho 2903" d="M14.871,6.66a.468.468,0,0,0-.28.09c-.7.49-1.97,1.42-2.81,2.04l-.34.25a.33.33,0,0,1-.4,0l-.41-.28c-.6-.41-1.42-.97-1.87-1.29a1.631,1.631,0,0,0-1.91-.06,1.593,1.593,0,0,0-.48.52c-.64,1.05-1.95,3.13-2.65,4.211a.537.537,0,0,0-.09.28.512.512,0,0,0,.51.51.494.494,0,0,0,.28-.09c.69-.48,1.94-1.4,2.77-2.01l.38-.28a.33.33,0,0,1,.4,0l.41.28c.6.41,1.43.97,1.87,1.29a1.631,1.631,0,0,0,1.91.06,1.593,1.593,0,0,0,.48-.52c.63-1.04,1.95-3.13,2.65-4.211a.5.5,0,0,0-.42-.79Z" transform="translate(0 0.001)"/>
    <path id="Caminho_2904" data-name="Caminho 2904" d="M9.5,0A9.493,9.493,0,0,0,3.19,16.592l-.39,2.2a.69.69,0,0,0,.559.8.619.619,0,0,0,.121.011l.24-.04,2.83-1.03A9.5,9.5,0,1,0,9.5,0Zm0,17.972a8.452,8.452,0,0,1-2.629-.42l-.341-.11-.33.12-2.27.83.28-1.61.1-.57-.43-.38A8.465,8.465,0,1,1,9.5,17.972Z" transform="translate(0 0)"/>
  </g>
</svg>
