<?xml version="1.0" encoding="UTF-8"?>
<svg xmlns="http://www.w3.org/2000/svg" width="24" height="24" version="1.1" viewBox="0 0 24 24">

        <path  d="M10.5,5h-5c-.276,0-.5.224-.5.5v10c0,.276.224.5.5.5h5c.276,0,.5-.224.5-.5V5.5c0-.276-.224-.5-.5-.5ZM10,15h-4V6h4v9Z"/>
        <path  d="M12.436,2H3.565c-.865,0-1.551.73-1.497,1.594l.934,14.938c.016.263.235.469.499.469h.5v1.5c0,.828.672,1.5,1.5,1.5h5c.828,0,1.5-.672,1.5-1.5v-1.5h.5c.264,0,.482-.205.499-.469l.934-14.938c.054-.864-.632-1.594-1.497-1.594ZM11,20.5c0,.276-.224.5-.5.5h-5c-.276,0-.5-.224-.5-.5v-1.5h6v1.5ZM12.03,18H3.97l-.904-14.469c-.018-.288.211-.531.499-.531h8.871c.288,0,.517.243.499.531l-.904,14.469Z"/>
        <path  d="M15.5,9h3c.276,0,.5-.224.5-.5s-.224-.5-.5-.5h-3c-.276,0-.5.224-.5.5s.224.5.5.5Z"/>
        <path  d="M15.5,11h3c.276,0,.5-.224.5-.5s-.224-.5-.5-.5h-3c-.276,0-.5.224-.5.5s.224.5.5.5Z"/>
        <path  d="M15.5,5h3c.276,0,.5-.224.5-.5s-.224-.5-.5-.5h-3c-.276,0-.5.224-.5.5s.224.5.5.5Z"/>
        <path  d="M15.5,7h3c.276,0,.5-.224.5-.5s-.224-.5-.5-.5h-3c-.276,0-.5.224-.5.5s.224.5.5.5Z"/>
        <path  d="M21.353,2.654c-.415-.418-.979-.654-1.567-.654h-4.286c-.276,0-.5.224-.5.5s.224.5.5.5h4.286c.321,0,.629.128.857.358.228.23.357.542.357.869v16.773h-3.434l.813-6.538v-.012c.032-.309-.002-.621-.098-.917-.096-.295-.253-.567-.461-.798-.207-.231-.461-.416-.744-.543-.283-.127-.59-.192-.9-.192h-.677c-.276,0-.5.224-.5.5s.224.5.5.5h.677c.169,0,.337.036.491.105.155.069.294.171.408.298.114.127.201.277.254.44.053.161.072.332.056.502l-.882,7.094c-.018.142.027.285.122.393.095.107.231.169.375.169h4.5c.276,0,.5-.224.5-.5V4.227c0-.59-.232-1.156-.647-1.574Z"/>

</svg>