<?xml version="1.0" encoding="utf-8"?>
<!-- Generator: Adobe Illustrator 28.3.0, SVG Export Plug-In . SVG Version: 6.00 Build 0)  -->
<svg version="1.1" id="Camada_2" xmlns="http://www.w3.org/2000/svg" xmlns:xlink="http://www.w3.org/1999/xlink" x="0px" y="0px"
	 width="24px" height="24px" viewBox="0 0 24 24" enable-background="new 0 0 24 24" xml:space="preserve">
<path fill="#363636" d="M20.245,5.842L13.21,1.78c-0.746-0.431-1.673-0.431-2.419,0L3.755,5.842c-0.746,0.431-1.21,1.234-1.21,2.096
	v8.124c0,0.861,0.464,1.664,1.21,2.095l7.035,4.063c0.374,0.215,0.792,0.322,1.21,0.322l0,0c0.002,0,0.003,0.001,0.005,0.001
	c0.008,0,0.015-0.004,0.022-0.005c0.409-0.005,0.817-0.109,1.182-0.32l7.035-4.062c0.746-0.431,1.21-1.233,1.21-2.096V7.938
	C21.455,7.075,20.991,6.272,20.245,5.842z M11.29,2.647c0.219-0.126,0.464-0.19,0.71-0.19c0.245,0,0.491,0.063,0.709,0.19
	c0,0,0,0,0,0l7.035,4.062c0.03,0.017,0.053,0.043,0.081,0.062l-7.831,4.651L4.037,6.876c0.069-0.06,0.137-0.121,0.218-0.168
	L11.29,2.647z M4.255,17.291c-0.438-0.253-0.71-0.725-0.71-1.229V7.938c0-0.061,0.016-0.118,0.024-0.177l7.936,4.532v9.149
	c-0.073-0.027-0.147-0.049-0.215-0.088L4.255,17.291z M20.455,16.061c0,0.506-0.271,0.977-0.71,1.229l-7.035,4.062
	c-0.065,0.037-0.136,0.058-0.205,0.084v-9.156l7.903-4.694c0.029,0.114,0.047,0.231,0.047,0.351V16.061z"/>
</svg>
