<?xml version="1.0" encoding="utf-8"?>
<!-- Generator: Adobe Illustrator 28.4.1, SVG Export Plug-In . SVG Version: 6.00 Build 0)  -->
<svg version="1.0" id="Camada_1" xmlns="http://www.w3.org/2000/svg" xmlns:xlink="http://www.w3.org/1999/xlink" x="0px" y="0px"
	 width="24px" height="24px" viewBox="0 0 24 24" enable-background="new 0 0 24 24" xml:space="preserve">
<path    d="M14,2.5c-0.3,0-0.5,0.2-0.5,0.5s0.2,0.5,0.5,0.5h5.8l-6.1,6.1c-0.2,0.2-0.2,0.5,0,0.7c0.2,0.2,0.5,0.2,0.7,0
	l6.1-6.1V10c0,0.3,0.2,0.5,0.5,0.5s0.5-0.2,0.5-0.5V3c0-0.3-0.2-0.5-0.5-0.5H14z"/>
<path    d="M10.4,13.6c-0.2-0.2-0.5-0.2-0.7,0l-6.1,6.1V14c0-0.3-0.2-0.5-0.5-0.5S2.5,13.7,2.5,14v7
	c0,0.3,0.2,0.5,0.5,0.5h7c0.3,0,0.5-0.2,0.5-0.5s-0.2-0.5-0.5-0.5H4.2l6.1-6.1C10.5,14.2,10.5,13.8,10.4,13.6z"/>
</svg>
