<?xml version="1.0" encoding="UTF-8"?>
<svg xmlns="http://www.w3.org/2000/svg" width="24" height="24" version="1.1" viewBox="0 0 24 24">
  <defs>
    <style>
      .cls-1, .cls-2 {
        fill: #363636;
      }

      .cls-2 {
        fill-rule: evenodd;
      }
    </style>
  </defs>
  <!-- Generator: Adobe Illustrator 28.6.0, SVG Export Plug-In . SVG Version: 1.2.0 Build 709)  -->
  <g>
    <g id="Camada_1">
      <g>
        <rect class="cls-1" x="5" y="12" width="4" height="7" rx=".5" ry=".5"/>
        <rect class="cls-1" x="10" y="8" width="4" height="11" rx=".5" ry=".5"/>
        <path class="cls-2" d="M18.5,5h-3c-.276,0-.5.224-.5.5v13c0,.276.224.5.5.5h3c.276,0,.5-.224.5-.5V5.5c0-.276-.224-.5-.5-.5ZM18,18h-2V6h2v12Z"/>
        <path class="cls-2" d="M19.5,2H4.5c-1.381,0-2.5,1.119-2.5,2.5v15c0,1.381,1.119,2.5,2.5,2.5h15c1.381,0,2.5-1.119,2.5-2.5V4.5c0-1.381-1.119-2.5-2.5-2.5ZM21,19.5c0,.828-.672,1.5-1.5,1.5H4.5c-.828,0-1.5-.672-1.5-1.5V4.5c0-.828.672-1.5,1.5-1.5h15c.828,0,1.5.672,1.5,1.5v15Z"/>
      </g>
    </g>
  </g>
</svg>