<?xml version="1.0" encoding="UTF-8"?>
<svg id="Camada_1" xmlns="http://www.w3.org/2000/svg" width="24" height="24" version="1.1" viewBox="0 0 24 24">
  <!-- Generator: Adobe Illustrator 29.1.0, SVG Export Plug-In . SVG Version: 2.1.0 Build 142)  -->
  <circle cx="16.001" cy="8" r="1.5" fill="#363636"/>
  <path d="M22.854,1.146c-.104-.104-.249-.157-.396-.145-5.236.45-9.301,2.357-12.15,5l-3.307-.002c-.755,0-1.499.344-1.977.942l-.01.013-3.913,5.246c-.104.139-.128.322-.064.484.064.161.207.278.378.308l4.696.824,4.075,4.075.824,4.696c.03.171.146.314.307.378.161.064.344.04.483-.063l5.248-3.899s.01-.007.014-.011c.593-.475.94-1.193.94-1.953v-3.348c2.642-2.849,4.548-6.913,4.998-12.147.013-.147-.04-.292-.145-.396ZM5.997,12.781l-3.61-.633,3.422-4.588c.282-.349.733-.56,1.191-.56h2.318c-1.575,1.737-2.686,3.72-3.322,5.781ZM17.001,17.038c0,.453-.205.882-.558,1.167l-4.59,3.41-.634-3.612c2.061-.636,4.045-1.747,5.781-3.324v2.358ZM10.795,17.087l-3.882-3.882c1.581-5.313,6.588-10.221,15.03-11.149-.929,8.442-5.836,13.448-11.149,15.03Z" fill="#363636"/>
  <path d="M7.721,19.202c-.247-.123-.547-.022-.67.225-.158.318-.386.644-.702.96-.278.278-.707.53-1.233.749-.519.216-1.099.386-1.648.517-.529.126-1.021.213-1.388.269.056-.367.143-.858.269-1.387.13-.549.3-1.128.517-1.648.219-.526.471-.955.749-1.234.318-.318.642-.545.958-.701.248-.122.349-.422.227-.67-.122-.248-.422-.349-.67-.227-.42.207-.833.5-1.223.891-.411.411-.724.977-.966,1.556-.244.586-.428,1.221-.566,1.801-.138.581-.232,1.117-.291,1.506-.03.195-.051.355-.064.466-.007.056-.012.099-.015.13l-.004.035v.01s-.001.003-.001.003h0s.497.051.497.051l.05.497h.004s.01-.001.01-.001l.035-.004c.03-.003.074-.008.13-.015.111-.014.271-.035.466-.064.39-.059.925-.153,1.507-.291.58-.138,1.215-.323,1.801-.566.579-.241,1.145-.554,1.556-.965.39-.39.682-.803.89-1.222.123-.247.022-.547-.225-.67Z" fill="#363636"/>
  <path d="M1.002,22.453c-.015.149.038.298.144.404s.254.159.404.144t-.05-.497q-.497-.05-.497-.05Z" fill="#363636"/>
</svg>