<?xml version="1.0" encoding="UTF-8"?>
<svg xmlns="http://www.w3.org/2000/svg" width="24" height="24" version="1.1" viewBox="0 0 24 24">

        <path class="cls-1" d="M15.5,3.5c.552,0,1,.448,1,1,0,.276.224.5.5.5s.5-.224.5-.5c0-.552.448-1,1-1,.276,0,.5-.224.5-.5s-.224-.5-.5-.5c-.552,0-1-.448-1-1,0-.276-.224-.5-.5-.5s-.5.224-.5.5c0,.552-.448,1-1,1-.276,0-.5.224-.5.5s.224.5.5.5Z"/>
        <path class="cls-1" d="M10.882,7.564l-.194,1.184c-.006.039-.001.079.013.116.014.037.038.069.069.092.031.024.067.038.106.041.038.003.076-.006.11-.025l1.015-.557,1.014.559c.029.016.062.025.095.025.03,0,.059-.007.086-.02s.051-.032.07-.056c.019-.024.033-.052.041-.082.008-.03.009-.062.004-.093l-.194-1.184.82-.839c.027-.028.047-.064.056-.103s.008-.08-.004-.118c-.012-.038-.033-.072-.062-.098-.029-.026-.064-.043-.102-.049l-1.133-.172-.507-1.075c-.019-.034-.046-.062-.078-.082-.032-.02-.069-.03-.107-.03s-.074.01-.107.03c-.032.02-.059.048-.078.082l-.507,1.075-1.133.172c-.038.006-.073.022-.103.048s-.051.06-.063.098c-.012.038-.013.079-.004.118.009.039.029.075.056.103l.82.839Z"/>
        <path class="cls-1" d="M21.947,12.276l-1.495-2.99c-.062-.131-.18-.234-.331-.271l-4.74-1.185c-.089.332-.226.645-.402.93l3.173.793-6.153,1.923-6.152-1.923,3.174-.793c-.177-.285-.313-.598-.402-.93l-4.733,1.183c-.02.005-.04.011-.059.018-.05.018-.096.044-.136.076-.056.044-.104.101-.138.169l-1.5,3c-.063.127-.07.274-.018.406s.157.236.29.285l1.677.629c0,.012-.001.025-.001.038v5.865c0,.205.124.388.314.464l7.5,3,.006.002c.117.045.247.045.366-.002l7.5-3c.19-.076.314-.26.314-.464v-5.904l1.676-.628c.133-.05.238-.154.29-.285s.045-.28-.018-.406ZM3.196,12.227l1.061-2.123,7.065,2.208-1.094,2.552-7.033-2.637ZM11.5,21.761l-6.5-2.6v-5.19l5.324,1.997c.25.094.53-.026.635-.271l.54-1.261v7.326ZM19,19.161l-6.5,2.6v-7.326l.54,1.261c.105.246.385.365.635.271l5.324-1.997v5.19ZM13.771,14.864l-1.094-2.552,7.065-2.208,1.061,2.123-7.033,2.637Z"/>
        <path class="cls-1" d="M3.5,5.5c.552,0,1,.448,1,1,0,.276.224.5.5.5s.5-.224.5-.5c0-.552.448-1,1-1,.276,0,.5-.224.5-.5s-.224-.5-.5-.5c-.552,0-1-.448-1-1,0-.276-.224-.5-.5-.5s-.5.224-.5.5c0,.552-.448,1-1,1-.276,0-.5.224-.5.5s.224.5.5.5Z"/>
        <circle class="cls-1" cx="9" cy="2" r="1"/>
        <circle class="cls-1" cx="20" cy="7" r="1"/>

</svg>