<?xml version="1.0" encoding="UTF-8"?>
<svg xmlns="http://www.w3.org/2000/svg" width="24" height="24" version="1.1" viewBox="0 0 24 24">
  <defs>
    <style>
      .cls-1, .cls-2 {
        fill: #363636;
      }

      .cls-2 {
        fill-rule: evenodd;
      }
    </style>
  </defs>
  <!-- Generator: Adobe Illustrator 28.6.0, SVG Export Plug-In . SVG Version: 1.2.0 Build 709)  -->
  <g>
    <g id="Camada_1">
      <g>
        <circle class="cls-1" cx="11" cy="3" r="1"/>
        <path class="cls-2" d="M21.976,18.27c-.307-2.487-.309-5.003-.006-7.491.066-.5.019-1.009-.138-1.489-.157-.48-.42-.919-.769-1.281-.35-.363-.776-.641-1.249-.812s-.977-.232-1.476-.176h-.003c-1.984.232-3.822.336-5.478.362-.276.004-.496.232-.492.508.004.276.232.496.508.492,1.686-.026,3.557-.132,5.577-.368.345-.038.695.003,1.023.122.328.119.625.312.87.566s.429.561.539.898.143.696.096,1.049v.005c-.314,2.569-.312,5.168.005,7.737.042.349.006.703-.106,1.036-.112.333-.297.635-.54.884-.243.249-.538.439-.863.555-.325.116-.671.157-1.013.118-4.29-.5-8.623-.5-12.913,0-.346.038-.695-.003-1.023-.122-.328-.119-.625-.312-.87-.566-.244-.253-.429-.561-.539-.898-.11-.338-.143-.696-.096-1.049v-.005c.157-1.276.236-2.559.238-3.845,0-1.301-.08-2.602-.24-3.893-.042-.349-.006-.703.106-1.036.112-.333.297-.635.54-.884.243-.249.538-.439.863-.555.324-.116.67-.157,1.011-.118.14.017.282.033.424.048.034.004.068.004.101,0,.255,1.11,1.249,1.938,2.437,1.938,1.381,0,2.5-1.119,2.5-2.5s-1.119-2.5-2.5-2.5c-1.232,0-2.256.891-2.462,2.064-.128-.013-.254-.028-.38-.043h-.005c-.494-.056-.994.002-1.463.17-.468.168-.893.441-1.241.798s-.612.789-.772,1.264c-.16.474-.211.979-.151,1.476h0c.154,1.252.232,2.511.232,3.772-.001,1.244-.078,2.487-.229,3.721-.066.5-.019,1.009.138,1.489.157.48.42.918.769,1.281.35.363.777.641,1.249.812.472.171.977.232,1.476.176h.002c4.214-.492,8.47-.492,12.684,0h.002c.494.056.994-.002,1.463-.17.468-.168.893-.441,1.241-.798.348-.357.612-.789.772-1.264.16-.474.211-.979.151-1.476h0ZM8.5,6c.828,0,1.5.672,1.5,1.5s-.672,1.5-1.5,1.5-1.5-.672-1.5-1.5.672-1.5,1.5-1.5Z"/>
        <circle class="cls-1" cx="14.5" cy="4.5" r="1.5"/>
        <path class="cls-2" d="M6,13.5v2c0,1.381,1.119,2.5,2.5,2.5h7c1.381,0,2.5-1.119,2.5-2.5v-2c0-1.381-1.119-2.5-2.5-2.5h-7c-1.381,0-2.5,1.119-2.5,2.5ZM17,13.5v2c0,.828-.672,1.5-1.5,1.5h-7c-.828,0-1.5-.672-1.5-1.5v-2c0-.828.672-1.5,1.5-1.5h7c.828,0,1.5.672,1.5,1.5Z"/>
      </g>
    </g>
  </g>
</svg>