<svg width="24" height="24" viewBox="0 0 24 24" fill="none" xmlns="http://www.w3.org/2000/svg">
<path fill-rule="evenodd" clip-rule="evenodd" d="M12.09 4C11.4543 4.00263 10.8454 4.25633 10.3959 4.70585C9.94634 5.15537 9.69264 5.76429 9.69001 6.4V7.16H14.5V6.43C14.5013 6.1122 14.44 5.79725 14.3196 5.50314C14.1992 5.20903 14.0221 4.94151 13.7983 4.71586C13.5745 4.49022 13.3084 4.31086 13.0153 4.18803C12.7222 4.0652 12.4078 4.00131 12.09 4ZM8.69001 9.5V8.19H6.69001L5.82001 19.4V19.47C5.82001 19.5946 5.86952 19.7142 5.95767 19.8023C6.04581 19.8905 6.16536 19.94 6.29001 19.94H17.85C18.2 19.87 18.31 19.6 18.28 19.47C18.25 19.34 18.28 19.47 18.28 19.41L17.44 8.19H15.5V9.5C15.5 9.6326 15.4473 9.75978 15.3536 9.85355C15.2598 9.94732 15.1326 10 15 10C14.8674 10 14.7402 9.94732 14.6465 9.85355C14.5527 9.75978 14.5 9.6326 14.5 9.5V8.19H9.69001V9.5C9.69001 9.6326 9.63733 9.75978 9.54356 9.85355C9.44979 9.94732 9.32261 10 9.19001 10C9.0574 10 8.93022 9.94732 8.83645 9.85355C8.74269 9.75978 8.69001 9.6326 8.69001 9.5ZM8.69001 6.43V7.19H6.19001C6.06405 7.18959 5.94257 7.23674 5.84988 7.32203C5.75718 7.40731 5.70008 7.52444 5.69001 7.65L4.82001 19.34V19.47C4.82001 19.8599 4.97488 20.2338 5.25056 20.5094C5.52624 20.7851 5.90014 20.94 6.29001 20.94H18C18.3853 20.8948 18.7371 20.6992 18.9787 20.3957C19.2203 20.0923 19.3322 19.7056 19.29 19.32L18.4 7.65C18.3899 7.52444 18.3328 7.40731 18.2401 7.32203C18.1474 7.23674 18.026 7.18959 17.9 7.19H15.5V6.43C15.4528 5.55884 15.0734 4.73892 14.4401 4.13895C13.8067 3.53898 12.9674 3.20459 12.095 3.20459C11.2226 3.20459 10.3833 3.53898 9.74995 4.13895C9.11657 4.73892 8.73723 5.55884 8.69001 6.43V6.43ZM14.85 11.65C14.8978 11.6949 14.936 11.7491 14.962 11.8093C14.9881 11.8695 15.0015 11.9344 15.0015 12C15.0015 12.0656 14.9881 12.1305 14.962 12.1907C14.936 12.2509 14.8978 12.3051 14.85 12.35L12.71 14.5L14.85 16.65C14.896 16.696 14.9324 16.7505 14.9573 16.8106C14.9822 16.8706 14.995 16.935 14.995 17C14.995 17.065 14.9822 17.1294 14.9573 17.1894C14.9324 17.2495 14.896 17.304 14.85 17.35C14.804 17.396 14.7495 17.4324 14.6894 17.4573C14.6294 17.4822 14.565 17.495 14.5 17.495C14.435 17.495 14.3706 17.4822 14.3106 17.4573C14.2505 17.4324 14.196 17.396 14.15 17.35L12 15.21L9.85001 17.35C9.75718 17.4428 9.63128 17.495 9.50001 17.495C9.36873 17.495 9.24283 17.4428 9.15001 17.35C9.05718 17.2572 9.00503 17.1313 9.00503 17C9.00503 16.8687 9.05718 16.7428 9.15001 16.65L11.29 14.5L9.15001 12.35C9.05718 12.2572 9.00503 12.1313 9.00503 12C9.00503 11.8687 9.05718 11.7428 9.15001 11.65C9.24283 11.5572 9.36873 11.505 9.50001 11.505C9.63128 11.505 9.75718 11.5572 9.85001 11.65L12 13.79L14.15 11.65C14.1949 11.6022 14.2491 11.564 14.3093 11.538C14.3695 11.5119 14.4344 11.4985 14.5 11.4985C14.5656 11.4985 14.6305 11.5119 14.6907 11.538C14.7509 11.564 14.8051 11.6022 14.85 11.65V11.65Z" fill="black"/>
</svg>
