<?xml version="1.0" encoding="utf-8"?>
<!-- Generator: Adobe Illustrator 26.0.1, SVG Export Plug-In . SVG Version: 6.00 Build 0)  -->
<svg version="1.1" id="Camada_1" xmlns="http://www.w3.org/2000/svg" xmlns:xlink="http://www.w3.org/1999/xlink" x="0px" y="0px"
	 viewBox="0 0 24 24" style="enable-background:new 0 0 24 24;" xml:space="preserve">
<g id="Create-Here">
	<path d="M16.3,13.8c0-0.3-0.2-0.5-0.5-0.5H7.2c-0.3,0-0.5,0.2-0.5,0.5s0.2,0.5,0.5,0.5h8.6C16.1,14.3,16.3,14.1,16.3,13.8z"/>
	<path d="M7.2,16.3c-0.3,0-0.5,0.2-0.5,0.5c0,0.3,0.2,0.5,0.5,0.5h6.6c0.3,0,0.5-0.2,0.5-0.5s-0.2-0.5-0.5-0.5H7.2z"/>
	<path d="M7.2,11.2h7.6c0.3,0,0.5-0.2,0.5-0.5s-0.2-0.5-0.5-0.5H7.2c-0.3,0-0.5,0.2-0.5,0.5C6.7,11,6.9,11.2,7.2,11.2z"/>
	<path d="M19.9,7.2l-5.1-5.1C14.7,2.1,14.6,2,14.5,2h-9C4.7,2,4,2.7,4,3.5c0,0,0,0,0,0l0,0v17C4,21.3,4.7,22,5.5,22c0,0,0,0,0,0h13
		c0.8,0,1.5-0.7,1.5-1.5c0,0,0-13,0-13.1C20,7.4,20,7.4,19.9,7.2z M18.3,7.1h-2.9c-0.3,0-0.5-0.2-0.5-0.5V3.7L18.3,7.1z M19,9.5v11
		c0,0.3-0.2,0.5-0.5,0.5h-13C5.2,21,5,20.8,5,20.5v-17C5,3.2,5.2,3,5.5,3h8.4v3.6c0,0.8,0.7,1.5,1.5,1.5H19V9.5z"/>
</g>
</svg>
