<svg xmlns="http://www.w3.org/2000/svg" width="24" height="24" viewBox="0 0 24 24">
  <g id="Create-Here">
    <g>
      <rect width="24" height="24" style="fill: none"/>
      <path d="M17,7.5V4a1,1,0,0,0-1.6-.78c-.64.5-1.19,1-1.59,1.33A2.42,2.42,0,0,0,13,6.36V7.5A1.49,1.49,0,0,0,14.25,9v5H14a1,1,0,0,0-1,1v4.5A1.5,1.5,0,0,0,14.5,21h1A1.5,1.5,0,0,0,17,19.5V15a1,1,0,0,0-1-1h-.25V9A1.49,1.49,0,0,0,17,7.5Zm-1,12a.5.5,0,0,1-.5.5h-1a.5.5,0,0,1-.5-.5V15h2Zm-2-12V6.36a1.4,1.4,0,0,1,.47-1.06C14.86,5,15.4,4.49,16,4V7.5a.5.5,0,0,1-.5.5h-1A.5.5,0,0,1,14,7.5ZM10,9H8a1,1,0,0,0-1,1v9.5A1.5,1.5,0,0,0,8.5,21h1A1.5,1.5,0,0,0,11,19.5V10A1,1,0,0,0,10,9Zm0,1v1H8V10ZM9.5,20h-1a.5.5,0,0,1-.5-.5V12h2v7.5A.5.5,0,0,1,9.5,20Z"/>
    </g>
  </g>
</svg>
