<?xml version="1.0" encoding="UTF-8"?>
<svg xmlns="http://www.w3.org/2000/svg" width="24" height="24" version="1.1" viewBox="0 0 24 24">
  <defs>
    <style>
      .cls-1 {
        fill: #363636;
        fill-rule: evenodd;
      }
    </style>
  </defs>
  <!-- Generator: Adobe Illustrator 28.7.1, SVG Export Plug-In . SVG Version: 1.2.0 Build 142)  -->
  <g>
    <g id="Camada_1">
      <g>
        <path class="cls-1" d="M8.5,13h-4c-.276,0-.5.224-.5.5v6c0,.276.224.5.5.5h4c.276,0,.5-.224.5-.5v-6c0-.276-.224-.5-.5-.5ZM8,19h-3v-5h3v5Z"/>
        <path class="cls-1" d="M9,8.349V1.5c0-.276-.224-.5-.5-.5h-4c-.276,0-.5.224-.5.5v6.849l-1.244,1.866c-.493.739-.756,1.608-.756,2.496v8.789c0,.828.672,1.5,1.5,1.5h6c.828,0,1.5-.672,1.5-1.5v-8.789c0-.888-.263-1.757-.756-2.496l-1.244-1.866ZM5,2h3v3h-3v-3ZM10,21.5c0,.276-.224.5-.5.5H3.5c-.276,0-.5-.224-.5-.5v-8.789c0-.691.205-1.367.588-1.941l1.328-1.992c.055-.082.084-.179.084-.277v-2.5h3v2.5c0,.099.029.195.084.277l1.328,1.992c.383.575.588,1.25.588,1.941v8.789Z"/>
        <path class="cls-1" d="M15.5,19h4c.276,0,.5-.224.5-.5v-9c0-.276-.224-.5-.5-.5h-4c-.276,0-.5.224-.5.5v9c0,.276.224.5.5.5ZM16,10h3v8h-3v-8Z"/>
        <path class="cls-1" d="M21.5,5h-.5V1.5c0-.276-.224-.5-.5-.5h-6c-.276,0-.5.224-.5.5v3.5h-.5c-.276,0-.5.224-.5.5v14c0,1.933,1.567,3.5,3.5,3.5h2c1.933,0,3.5-1.567,3.5-3.5V5.5c0-.276-.224-.5-.5-.5ZM15,2h5v3h-5v-3ZM21,19.5c0,1.381-1.119,2.5-2.5,2.5h-2c-1.381,0-2.5-1.119-2.5-2.5V6h7v13.5Z"/>
      </g>
    </g>
  </g>
</svg>