<?xml version="1.0" encoding="UTF-8"?>
<svg xmlns="http://www.w3.org/2000/svg" width="24" height="24" version="1.1" viewBox="0 0 24 24">

        <path  d="M4.5,2.5c-.552,0-1-.448-1-1,0-.276-.224-.5-.5-.5s-.5.224-.5.5c0,.552-.448,1-1,1-.276,0-.5.224-.5.5s.224.5.5.5c.552,0,1,.448,1,1,0,.276.224.5.5.5s.5-.224.5-.5c0-.552.448-1,1-1,.276,0,.5-.224.5-.5s-.224-.5-.5-.5Z"/>
        <path  d="M15.5,18c-.276,0-.5.224-.5.5v1c0,1.381-1.119,2.5-2.5,2.5h-4c-1.381,0-2.5-1.119-2.5-2.5V6h9v5.5c0,.276.224.5.5.5s.5-.224.5-.5v-6c0-.276-.224-.5-.5-.5h-1.5V1.5c0-.276-.224-.5-.5-.5h-6c-.276,0-.5.224-.5.5v3.5h-1.5c-.276,0-.5.224-.5.5v14c0,1.933,1.567,3.5,3.5,3.5h4c1.933,0,3.5-1.567,3.5-3.5v-1c0-.276-.224-.5-.5-.5ZM8,2h5v3h-5v-3Z"/>
        <path  d="M12.5,14c.276,0,.5-.224.5-.5v-4c0-.276-.224-.5-.5-.5h-4c-.276,0-.5.224-.5.5v9c0,.276.224.5.5.5h4c.276,0,.5-.224.5-.5v-1c0-.276-.224-.5-.5-.5s-.5.224-.5.5v.5h-3v-8h3v3.5c0,.276.224.5.5.5Z"/>
        <path  d="M22.5,7.5c-.552,0-1-.448-1-1,0-.276-.224-.5-.5-.5s-.5.224-.5.5c0,.552-.448,1-1,1-.276,0-.5.224-.5.5s.224.5.5.5c.552,0,1,.448,1,1,0,.276.224.5.5.5s.5-.224.5-.5c0-.552.448-1,1-1,.276,0,.5-.224.5-.5s-.224-.5-.5-.5Z"/>
        <path  d="M21.5,15c-1.933,0-3.5-1.567-3.5-3.5,0-.276-.224-.5-.5-.5s-.5.224-.5.5c0,1.933-1.567,3.5-3.5,3.5-.276,0-.5.224-.5.5s.224.5.5.5c1.933,0,3.5,1.567,3.5,3.5,0,.276.224.5.5.5s.5-.224.5-.5c0-1.933,1.567-3.5,3.5-3.5.276,0,.5-.224.5-.5s-.224-.5-.5-.5ZM17.5,17.437c-.429-.829-1.107-1.508-1.937-1.937.829-.429,1.508-1.107,1.937-1.937.429.829,1.107,1.508,1.937,1.937-.829.429-1.508,1.107-1.937,1.937Z"/>

</svg>