<?xml version="1.0" encoding="UTF-8"?>
<svg id="Camada_1" data-name="Camada 1" xmlns="http://www.w3.org/2000/svg" width="24" height="24" version="1.1" viewBox="0 0 24 24">
  <defs>
    <style>
      .cls-1 {
        fill: #363636;
        fill-rule: evenodd;
        stroke-width: 0px;
      }
    </style>
  </defs>
  <path class="cls-1" d="M10.8,1.5h.4l8,3c.2,0,.3.3.3.5v4.9c1.5,1,2.5,2.7,2.5,4.6,0,3-2.5,5.5-5.5,5.5s-1-.1-1.4-.2c-.9.8-1.9,1.4-2.6,1.9-.4.2-.7.4-.9.5-.1.1-.2.1-.3.1h0s0,0-.2,0c-.2,0-.2,0-.2,0h-.1c-.1,0-.2-.1-.3-.1-.2-.1-.5-.3-.9-.5-.8-.5-1.8-1.2-2.8-2.1-2-1.8-4.2-4.4-4.2-7.6v-7c0-.2,0-.4.3-.5L10.8,1.5ZM14,19.4c-1.8-.9-3-2.8-3-4.9,0-3,2.5-5.5,5.5-5.5s1.4.1,2,.4v-4l-7.5-2.9-7.5,2.8v6.7c0,2.8,1.9,5.1,3.8,6.9,1,.9,2,1.5,2.7,2,.4.2.7.4.9.5,0,0,0,0,.1,0,0,0,0,0,.1,0,.2-.1.5-.3.9-.5.6-.4,1.3-.9,2-1.5ZM17,11.5c0-.3-.2-.5-.5-.5s-.5.2-.5.5v2.5h-2.5c-.3,0-.5.2-.5.5s.2.5.5.5h2.5v2.5c0,.3.2.5.5.5s.5-.2.5-.5v-2.5h2.5c.3,0,.5-.2.5-.5s-.2-.5-.5-.5h-2.5v-2.5Z"/>
</svg>