<?xml version="1.0" encoding="UTF-8"?>
<svg id="Camada_1" xmlns="http://www.w3.org/2000/svg" width="24" height="24" version="1.1" viewBox="0 0 24 24">
  <!-- Generator: Adobe Illustrator 29.3.0, SVG Export Plug-In . SVG Version: 2.1.0 Build 146)  -->
  <path d="M13.5,22H2.705c-.313,0-.549-.284-.491-.592l2.701-14.408h2.085v2.5c0,.276.224.5.5.5s.5-.224.5-.5v-2.5h6v2.5c0,.276.224.5.5.5s.5-.224.5-.5v-2.5h2.085l.767,4.092c.051.271.312.45.584.399.271-.051.45-.312.399-.583l-.844-4.5c-.044-.236-.251-.408-.491-.408h-2.5v-1c0-2.209-1.791-4-4-4s-4,1.791-4,4v1h-2.5c-.241,0-.447.171-.491.408l-2.778,14.816c-.173.923.535,1.776,1.474,1.776h10.795c.276,0,.5-.224.5-.5s-.224-.5-.5-.5ZM8,5c0-1.657,1.343-3,3-3s3,1.343,3,3v1h-6v-1Z" fill="#363636" fill-rule="evenodd"/>
  <path d="M22.619,13.994l-4-.979c-.078-.019-.16-.019-.238,0l-4,.979c-.224.055-.381.255-.381.486v3.918c0,1.723,1.175,2.88,2.225,3.571.534.351,1.064.603,1.459.766.198.082.364.142.482.183.059.02.106.036.139.046l.039.012.011.003h.003s.002.001.002.001c.091.026.189.026.28,0h.001s.003-.001.003-.001l.011-.003.039-.012c.033-.01.08-.026.139-.046.118-.04.284-.101.482-.183.395-.163.925-.414,1.459-.766,1.05-.691,2.225-1.848,2.225-3.571v-3.918c0-.23-.157-.431-.381-.486ZM22,18.398c0,1.216-.825,2.11-1.775,2.735-.466.307-.936.53-1.291.677-.177.073-.323.127-.424.161l-.01.003-.01-.003c-.101-.035-.248-.088-.424-.161-.355-.147-.825-.37-1.291-.677-.95-.625-1.775-1.52-1.775-2.735v-3.526l3.5-.857,3.5.857v3.526Z" fill="#363636" fill-rule="evenodd"/>
</svg>