<svg xmlns="http://www.w3.org/2000/svg" width="24" height="24" viewBox="0 0 24 24">
  <g id="outlined-content-world_1" data-name="outlined-content-world 1" transform="translate(0)">
    <g id="Grupo_1" data-name="Grupo 1">
      <path id="União_7" data-name="União 7" d="M-513-3861a12,12,0,0,1,12-12,12,12,0,0,1,12,12,12,12,0,0,1-12,12A12,12,0,0,1-513-3861Zm1.092,0a10.924,10.924,0,0,0,10.938,10.91,10.925,10.925,0,0,0,9.571-5.684,3.361,3.361,0,0,1-.414-1.156c-.033-.077-.284-.5-.458-.8a6.769,6.769,0,0,1-.818-1.615,2.26,2.26,0,0,1-.1-.568,4,4,0,0,0-.251-1.386,3.122,3.122,0,0,0-1.637-.24,9.16,9.16,0,0,1-3.044-1.024c-.709-.469-.85-3.055-.85-3.055a2.745,2.745,0,0,1,.369-1.233l.11-.251c.153-.436.611-.654,2.662-.654a3.961,3.961,0,0,1,2.182,1.429,10.423,10.423,0,0,0,1.848.166,1.906,1.906,0,0,0,.458-.132,10.882,10.882,0,0,0-1.377-1.939,2.722,2.722,0,0,1-.73.207h-.164a9.264,9.264,0,0,1-2.771-.876l-.24-.1-.339.12a2.186,2.186,0,0,1-1.832.153c-.861-.491-.469-1.494-.305-1.92v-.171c.109-.458.589-.622,1.091-.7a10.711,10.711,0,0,0-5.934,0l.087.132a4.589,4.589,0,0,0,.655.152c.992.175,1.941.426,2.018,1.091s-.6,1.19-1.189,1.648a3.732,3.732,0,0,0-.35.284,4.693,4.693,0,0,0-.85,1.6c-.12.688-1.08,1.015-2.3,1.364l-.447.132a4.007,4.007,0,0,1-1.222.186,9.357,9.357,0,0,0-1.092.121,2.332,2.332,0,0,0,.557.851,1.09,1.09,0,0,1,.414.927,1.743,1.743,0,0,1-.709,1.418l-.241.154-.261-.11a6.739,6.739,0,0,1-2.182-1.3,5.135,5.135,0,0,1-.479-.916A10.7,10.7,0,0,0-511.909-3861Zm19.222-.938a4.368,4.368,0,0,1,.578,1.938,1.223,1.223,0,0,1,.077.479,9.171,9.171,0,0,0,.686,1.277,5.02,5.02,0,0,1,.569,1.092v-.023a10.6,10.6,0,0,0,.685-3.825,10.889,10.889,0,0,0-.861-4.308,3.3,3.3,0,0,1-.949.238c-1.091,0-2.454-.12-2.793-.708a3.971,3.971,0,0,0-1.287-.894,7.3,7.3,0,0,0-1.669.174l-.078.175a2.018,2.018,0,0,0-.26.764,7.506,7.506,0,0,0,.436,2.182,14.882,14.882,0,0,0,2.246.785s.206-.022.507-.022q.134-.013.267-.013A2.81,2.81,0,0,1-492.687-3861.938Zm-18.349-3.425a14.983,14.983,0,0,0,.883,1.863,6.048,6.048,0,0,0,1.331.752.76.76,0,0,0,.066-.36,2.923,2.923,0,0,1-.971-1.844.808.808,0,0,1,.382-.73,4.283,4.283,0,0,1,1.8-.339,5.65,5.65,0,0,0,.949-.1c.1-.043.316-.1.568-.175a5.356,5.356,0,0,0,1.572-.621,5.377,5.377,0,0,1,1.091-2.069,4.931,4.931,0,0,1,.447-.371,6.089,6.089,0,0,0,.676-.578,10.053,10.053,0,0,0-1.091-.271,3.122,3.122,0,0,1-1.092-.305c-.2-.142-.523-.395-.752-.589A10.974,10.974,0,0,0-511.036-3865.363Zm14.583-4.692h0l.394.164a7.746,7.746,0,0,0,2.367.784,10.987,10.987,0,0,0-2.477-1.68l-.7.218a1.952,1.952,0,0,1-.534.087,4.159,4.159,0,0,0-.775.12v.109a3.019,3.019,0,0,0-.154.612,3.291,3.291,0,0,0,.9-.251,1.577,1.577,0,0,1,.736-.182A1.621,1.621,0,0,1-496.453-3870.055Zm-7.22,19.234a1.834,1.834,0,0,1-1.091-.916,7.8,7.8,0,0,1-.731-2.182,7.9,7.9,0,0,1,.066-1.093,9.644,9.644,0,0,0,0-2.343,3.876,3.876,0,0,0-.687-.076,1.541,1.541,0,0,1-1.233-.416,6.069,6.069,0,0,1-1.091-2.662c.044-.643,1.593-2.673,2.356-2.673.48,0,.72.448.982.841a2.01,2.01,0,0,0,.36.534,5.223,5.223,0,0,0,.993-.077,3.925,3.925,0,0,1,1.669,0c.425.175.753.765,1.091,1.385.1.187.241.448.339.59h.174c.361-.121,1.19-.306,1.507.414a3.28,3.28,0,0,1-.622,2.859,5.366,5.366,0,0,0-1.243,1.647,1.785,1.785,0,0,1-.665,1.088,1.83,1.83,0,0,0-.251.261,2.487,2.487,0,0,1-.35.394c-.261.207-.261.272-.261.4a8.953,8.953,0,0,1-.175,1.482v.219l-.174.12a1.086,1.086,0,0,1-.633.2c-.055,0-.109.008-.163.008S-503.616-3850.818-503.673-3850.821Zm-.807-4.091a7.946,7.946,0,0,0,0,.861,7.235,7.235,0,0,0,.611,1.778.773.773,0,0,0,.3.339,5.861,5.861,0,0,0,.087-.885,1.563,1.563,0,0,1,.59-1.181,2.015,2.015,0,0,0,.207-.23,2.533,2.533,0,0,1,.4-.436c.164-.163.338-.316.338-.448.066-.894,1.647-2.279,1.647-2.279v-.044a2.674,2.674,0,0,0,.273-1.384h-.278a1.6,1.6,0,0,1-.719.053c-.4-.053-.634-.512-.983-1.145a4.19,4.19,0,0,0-.577-.906,6.035,6.035,0,0,0-1.092.077,4.528,4.528,0,0,1-1.364,0,1.915,1.915,0,0,1-1.092-1.091l-.087-.131a5.824,5.824,0,0,0-1.187,1.553,6.234,6.234,0,0,0,.839,1.888h.48c.049,0,.1,0,.146,0a2.016,2.016,0,0,1,1.335.507h0C-504.273-3857.585-504.273-3856.712-504.48-3854.912Z" transform="translate(513 3873)"/>
    </g>
  </g>
</svg>
