<?xml version="1.0" encoding="UTF-8"?>
<svg xmlns="http://www.w3.org/2000/svg" width="24" height="24" version="1.1" viewBox="0 0 24 24">

        <path class="cls-1" d="M22.854,1.146c-.195-.195-.512-.195-.707,0l-5.437,5.437c-.516-.293-1.095-.487-1.71-.555V1.5c0-.276-.224-.5-.5-.5h-4c-.276,0-.5.224-.5.5v4.528c-2.243.25-4,2.165-4,4.472v6.793l-4.854,4.854c-.195.195-.195.512,0,.707.195.195.512.195.707,0L22.854,1.854c.195-.195.195-.512,0-.707ZM11,2h3v1h-3v-1ZM7,16.293v-2.293h2.293l-2.293,2.293ZM10.293,13h-3.293v-2.5c0-1.924,1.576-3.5,3.5-3.5.276,0,.5-.224.5-.5v-2.5h3v2.5c0,.276.224.5.5.5.523,0,1.021.117,1.468.325l-5.675,5.675Z"/>
        <path class="cls-1" d="M17.469,8.653c.336.537.531,1.171.531,1.847v2.5h-4.879l-1,1h5.879v4h-9.879l-1,1h10.879v1.139c0,.927-.832,1.632-1.747,1.48l-3.671-.612c-.054-.009-.11-.009-.164,0l-3.671.612c-.914.152-1.747-.553-1.747-1.48v-1.018l-1,1v.018c0,1.545,1.387,2.72,2.911,2.466l3.589-.598,3.589.598c1.524.254,2.911-.921,2.911-2.466v-9.639c0-.953-.3-1.839-.81-2.569l-.721.721Z"/>

</svg>