<svg width="24" height="24" viewBox="0 0 24 24" fill="none" xmlns="http://www.w3.org/2000/svg">
<path fill-rule="evenodd" clip-rule="evenodd" d="M5.99666 21.2727C5.15266 21.2727 4.47366 20.5767 4.49666 19.7327V19.6227L5.42666 7.55269C5.44766 7.29269 5.66566 7.09169 5.92666 7.09269H8.45966V6.27269C8.45966 3.54769 11.4097 1.84469 13.7697 3.20669C14.8647 3.83969 15.5397 5.00769 15.5397 6.27269V7.09269H18.0667C18.3277 7.09169 18.5457 7.29269 18.5667 7.55269L18.9357 12.3382C18.5987 12.1834 18.2429 12.0625 17.8726 11.9798L17.5767 8.12269H15.5397V9.85269C15.5347 10.1427 15.2897 10.3697 14.9997 10.3527C14.7237 10.3527 14.4997 10.1287 14.4997 9.85269V8.12269H9.45966V9.85269C9.45966 10.1287 9.23566 10.3527 8.95966 10.3527C8.68566 10.3477 8.46566 10.1267 8.45966 9.85269V8.12269H6.38666L5.49666 19.6927C5.48566 19.8417 5.54066 19.9877 5.64666 20.0927C5.73266 20.1997 5.85966 20.2657 5.99666 20.2727H12.288C12.5447 20.6425 12.8468 20.9786 13.1862 21.2727H5.99666ZM14.4997 6.27269C14.7447 4.33269 12.645 3.16364 10.8926 3.9006C9.84165 4.3426 9.45966 5.13246 9.45966 6.27269V7.09269H14.4997V6.27269Z" fill="#363636"/>
<path d="M17.1982 13.7164C17.1982 13.4403 16.9744 13.2164 16.6982 13.2164C16.4221 13.2164 16.1982 13.4403 16.1982 13.7164L16.1982 16.7164H13.1982C12.9221 16.7164 12.6982 16.9403 12.6982 17.2164C12.6982 17.4926 12.9221 17.7164 13.1982 17.7164H16.1982L16.1982 20.7164C16.1982 20.9926 16.422 21.2164 16.6982 21.2164C16.9743 21.2164 17.1982 20.9926 17.1982 20.7164L17.1982 17.7164H20.1982C20.4744 17.7164 20.6982 17.4926 20.6982 17.2164C20.6982 16.9403 20.4744 16.7164 20.1982 16.7164H17.1982L17.1982 13.7164Z" fill="#363636"/>
</svg>
