<svg id="Camada_1" data-name="Camada 1" xmlns="http://www.w3.org/2000/svg" viewBox="0 0 19 19.6"><g id="Camada_2_cópia" data-name="Camada 2 cópia"><path d="M17.37,8.86a.468.468,0,0,0-.28.09c-.7.49-1.97,1.42-2.81,2.04l-.34.25a.33.33,0,0,1-.4,0l-.41-.28c-.6-.41-1.42-.97-1.87-1.29a1.63,1.63,0,0,0-1.91-.06,1.606,1.606,0,0,0-.48.52c-.64,1.05-1.95,3.13-2.65,4.21a.541.541,0,0,0-.09.28.512.512,0,0,0,.51.51.49.49,0,0,0,.28-.09c.69-.48,1.94-1.4,2.77-2.01l.38-.28a.33.33,0,0,1,.4,0l.41.28c.6.41,1.43.97,1.87,1.29a1.63,1.63,0,0,0,1.91.06,1.606,1.606,0,0,0,.48-.52c.63-1.04,1.95-3.13,2.65-4.21a.5.5,0,0,0-.42-.79Z" transform="translate(-2.5 -2.2)"/><path d="M12,2.2A9.492,9.492,0,0,0,5.69,18.79l-.39,2.2a.69.69,0,0,0,.68.81l.24-.04,2.83-1.03A9.5,9.5,0,1,0,12,2.2Zm0,17.97a8.46,8.46,0,0,1-2.63-.42l-.34-.11-.33.12-2.27.83.28-1.61.1-.57-.43-.38A8.464,8.464,0,1,1,12,20.17Z" transform="translate(-2.5 -2.2)"/></g></svg>