<?xml version="1.0" encoding="UTF-8"?>
<svg xmlns="http://www.w3.org/2000/svg" width="24" height="24" version="1.1" viewBox="0 0 24 24">
  <defs>
    <style>
      .cls-1 {
        fill: #363636;
        fill-rule: evenodd;
      }
    </style>
  </defs>
  <!-- Generator: Adobe Illustrator 28.7.1, SVG Export Plug-In . SVG Version: 1.2.0 Build 142)  -->
  <g>
    <g id="Camada_1">
      <path class="cls-1" d="M11.544,1.058c.157-.081.345-.073.494.021,2.102,1.316,2.872,3.478,3.128,5.239.129.885.131,1.689.102,2.27-.015.291-.038.529-.057.695-.01.083-.019.148-.025.194-.003.023-.006.041-.008.053l-.002.015v.004s0,.001,0,.001c0,0,0,0-.493-.083l.493.083c-.046.272-.305.456-.577.41-.272-.046-.455-.304-.409-.576h0s.002-.01.002-.01c.001-.009.003-.022.006-.041.005-.037.013-.093.022-.167.017-.147.038-.362.051-.629.027-.535.024-1.271-.093-2.076-.203-1.398-.742-2.947-2.012-4.05-.131.715-.369,1.407-.706,2.055-.472.906-1.129,1.703-1.929,2.339-.789.696-1.92,1.924-2.857,3.44-.942,1.525-1.66,3.301-1.673,5.092-.01,1.389.367,2.754,1.091,3.94.6.984,1.417,1.812,2.386,2.424.1-.468.259-.922.476-1.351.333-.658.794-1.243,1.356-1.721.006-.005.013-.01.019-.015.381-.293.699-.658.937-1.075.238-.417.39-.878.448-1.354.02-.163.119-.307.265-.383.146-.076.32-.076.466.002,1.21.643,2.232,1.588,2.967,2.744.601.946.993,2.006,1.152,3.11.891-.527,1.656-1.247,2.236-2.112.721-1.075,1.166-2.297,1.2-3.561.08-2.93-.867-6.106-2.576-8.164-.176-.212-.147-.528.065-.704.212-.176.528-.147.704.065,1.891,2.279,2.892,5.704,2.806,8.83-.04,1.482-.56,2.885-1.369,4.091-.817,1.217-1.954,2.185-3.286,2.796-.155.071-.335.058-.478-.034-.143-.092-.23-.25-.23-.421v-.009c-.061-1.191-.429-2.346-1.069-3.352-.52-.819-1.206-1.517-2.009-2.051-.101.348-.243.684-.423,1.001-.302.529-.705.993-1.186,1.365-.457.39-.831.867-1.103,1.403-.273.54-.436,1.128-.479,1.731-.012.167-.107.317-.252.399s-.323.087-.472.011c-1.406-.711-2.585-1.801-3.405-3.146-.82-1.345-1.249-2.893-1.237-4.468.015-2.043.828-4,1.822-5.61.996-1.613,2.199-2.92,3.056-3.674.006-.006.013-.011.02-.016.694-.55,1.264-1.24,1.674-2.026.409-.785.648-1.648.702-2.532.011-.176.113-.334.27-.414Z"/>
    </g>
  </g>
</svg>