<?xml version="1.0" encoding="UTF-8"?>
<svg id="Camada_1" data-name="Camada 1" xmlns="http://www.w3.org/2000/svg" width="24" height="24" version="1.1" viewBox="0 0 24 24">
  <path d="M12,1.99c.19,0,.364.108.448.279l2.974,6.024,6.65.966c.188.027.345.159.404.34.059.181.01.38-.126.513l-4.812,4.691,1.136,6.623c.032.188-.045.377-.199.489-.154.112-.358.127-.527.038l-5.947-3.126-5.947,3.126c-.168.088-.373.074-.527-.038-.154-.112-.231-.301-.199-.489l1.136-6.623L1.651,10.112c-.136-.133-.185-.332-.127-.513.059-.181.215-.313.404-.34l6.65-.966,2.974-6.024c.084-.171.258-.279.448-.279ZM12,3.62l-2.642,5.352c-.073.148-.214.25-.376.273l-5.907.858,4.275,4.167c.118.115.172.28.144.442l-1.009,5.884,5.283-2.777c.146-.076.32-.076.465,0l5.283,2.777-1.009-5.884c-.028-.162.026-.328.144-.442l4.275-4.167-5.908-.858c-.163-.024-.304-.126-.376-.273l-2.642-5.352Z" fill="#363636" fill-rule="evenodd" stroke-width="0"/>
</svg>