<svg xmlns="http://www.w3.org/2000/svg" width="24" height="24" viewBox="0 0 24 24"><defs><style>.a{fill:#1c120e;}</style></defs><path class="a" d="M12,1A11,11,0,1,0,23,12,11,11,0,0,0,12,1Zm9.37,14.53a4.68,4.68,0,0,0-.52-1,8.39,8.39,0,0,1-.63-1.17c0-.11,0-.26-.07-.44a4,4,0,0,0-.53-1.78c-.61-.79-2.4-.6-2.4-.6a13.73,13.73,0,0,1-2.06-.72,6.89,6.89,0,0,1-.4-2,1.83,1.83,0,0,1,.24-.7l.07-.16A6.71,6.71,0,0,1,16.6,6.8a3.63,3.63,0,0,1,1.18.82c.31.54,1.56.65,2.56.65a3,3,0,0,0,.87-.22A10,10,0,0,1,22,12,9.73,9.73,0,0,1,21.37,15.51ZM15.3,3.31a1.77,1.77,0,0,0,.49-.08l.64-.2A10.09,10.09,0,0,1,18.7,4.57h0a7.07,7.07,0,0,1-2.17-.72l-.36-.15a1.44,1.44,0,0,0-.89.15,3,3,0,0,1-.83.23c0-.1.09-.42.14-.56l0-.1A3.86,3.86,0,0,1,15.3,3.31ZM8.17,2.74c.21.18.51.41.69.54a2.85,2.85,0,0,0,1,.28,9.23,9.23,0,0,1,1,.25,5.67,5.67,0,0,1-.62.53,4.6,4.6,0,0,0-.41.34,4.93,4.93,0,0,0-1,1.9,4.92,4.92,0,0,1-1.44.57c-.23.07-.43.12-.52.16A5.26,5.26,0,0,1,6,7.4a3.92,3.92,0,0,0-1.65.31A.74.74,0,0,0,4,8.38a2.68,2.68,0,0,0,.89,1.69.7.7,0,0,1-.06.33,5.52,5.52,0,0,1-1.22-.69A13.71,13.71,0,0,1,2.8,8,10.06,10.06,0,0,1,8.17,2.74ZM12,22A10,10,0,0,1,2,12a9.8,9.8,0,0,1,.34-2.55,4.72,4.72,0,0,0,.44.84,6.16,6.16,0,0,0,2,1.19l.24.1.22-.14a1.6,1.6,0,0,0,.65-1.3,1,1,0,0,0-.38-.85A2.13,2.13,0,0,1,5,8.51,8.62,8.62,0,0,1,6,8.4a3.66,3.66,0,0,0,1.12-.17l.41-.12c1.12-.32,2-.62,2.11-1.25a4.3,4.3,0,0,1,.78-1.47,3.84,3.84,0,0,1,.32-.26c.54-.42,1.16-.9,1.09-1.51s-.94-.84-1.85-1a4.2,4.2,0,0,1-.6-.14L9.3,2.36a9.8,9.8,0,0,1,5.44,0c-.46.07-.9.22-1,.64l0,.16c-.15.39-.51,1.31.28,1.76a2,2,0,0,0,1.68-.14l.31-.11.22.09a8.5,8.5,0,0,0,2.54.8h.15a2.45,2.45,0,0,0,.67-.19,10.06,10.06,0,0,1,1.26,1.78,1.76,1.76,0,0,1-.42.12,9.63,9.63,0,0,1-1.69-.15,3.63,3.63,0,0,0-2-1.31c-1.88,0-2.3.2-2.44.6l-.1.23a2.51,2.51,0,0,0-.34,1.13s.13,2.37.78,2.8a8.42,8.42,0,0,0,2.79.94,2.84,2.84,0,0,1,1.5.22A3.64,3.64,0,0,1,19.16,13c0,.21.06.39.09.52A6.25,6.25,0,0,0,20,15c.16.27.39.66.42.73a3.09,3.09,0,0,0,.38,1.06A10,10,0,0,1,12,22Z"/><path class="a" d="M12.48,13l-.16,0c-.09-.13-.22-.37-.31-.54-.31-.57-.61-1.11-1-1.27a3.59,3.59,0,0,0-1.53,0,4.91,4.91,0,0,1-.91.07,1.81,1.81,0,0,1-.33-.49C8,10.41,7.78,10,7.34,10c-.7,0-2.12,1.86-2.16,2.45a5.56,5.56,0,0,0,1,2.44,1.41,1.41,0,0,0,1.13.38,3.7,3.7,0,0,1,.63.07,8.77,8.77,0,0,1,0,2.15,7.24,7.24,0,0,0-.06,1,7.16,7.16,0,0,0,.67,2,1.68,1.68,0,0,0,1,.84,1.53,1.53,0,0,0,.3,0,1,1,0,0,0,.58-.18l.16-.11,0-.2a8.15,8.15,0,0,0,.16-1.36c0-.12,0-.18.24-.37a2.33,2.33,0,0,0,.32-.36,1.64,1.64,0,0,1,.23-.24,1.64,1.64,0,0,0,.61-1A4.92,4.92,0,0,1,13.29,16a3,3,0,0,0,.57-2.62C13.57,12.72,12.81,12.89,12.48,13Zm.17,2.31s-1.45,1.27-1.51,2.09c0,.12-.16.26-.31.41a2.37,2.37,0,0,0-.37.4,1.63,1.63,0,0,1-.19.21,1.44,1.44,0,0,0-.54,1.08,5.42,5.42,0,0,1-.08.81A.72.72,0,0,1,9.37,20a6.72,6.72,0,0,1-.56-1.63,7.68,7.68,0,0,1,0-.79C9,15.93,9,15.13,8.7,14.73a1.85,1.85,0,0,0-1.36-.46H7c-.06,0-.1,0-.1,0a5.7,5.7,0,0,1-.77-1.73,5.34,5.34,0,0,1,1.09-1.42l.08.12c.21.39.48.86,1,1a4.17,4.17,0,0,0,1.25,0,5.39,5.39,0,0,1,1-.07,3.86,3.86,0,0,1,.53.83c.32.58.53,1,.9,1.05a1.47,1.47,0,0,0,.66-.05l.26,0A2.46,2.46,0,0,1,12.65,15.27Z"/></svg>