<svg xmlns="http://www.w3.org/2000/svg" width="22" height="22" viewBox="0 0 22 22">
  <path id="outlined-content-world" d="M-308-3228a11,11,0,0,1,11-11,11,11,0,0,1,11,11,11,11,0,0,1-11,11A11,11,0,0,1-308-3228Zm1,0a10,10,0,0,0,10,10,10,10,0,0,0,8.8-5.21,3.083,3.083,0,0,1-.38-1.06c-.031-.07-.26-.46-.42-.73a6.224,6.224,0,0,1-.75-1.48,2.1,2.1,0,0,1-.09-.519,3.649,3.649,0,0,0-.23-1.271,2.848,2.848,0,0,0-1.5-.22,8.426,8.426,0,0,1-2.79-.94c-.65-.43-.779-2.8-.779-2.8a2.517,2.517,0,0,1,.339-1.129l.1-.23c.139-.4.56-.6,2.44-.6a3.627,3.627,0,0,1,2,1.31,9.592,9.592,0,0,0,1.69.15,1.745,1.745,0,0,0,.419-.121,10.006,10.006,0,0,0-1.26-1.779,2.468,2.468,0,0,1-.67.19h-.15a8.49,8.49,0,0,1-2.54-.8l-.22-.09-.311.11a2,2,0,0,1-1.68.14c-.789-.45-.429-1.37-.28-1.76v-.16c.1-.419.54-.57,1-.64a9.807,9.807,0,0,0-5.44,0l.08.121a4.137,4.137,0,0,0,.6.14c.91.16,1.779.391,1.849,1s-.55,1.09-1.09,1.51a3.848,3.848,0,0,0-.32.26,4.314,4.314,0,0,0-.779,1.469c-.11.63-.99.931-2.111,1.25l-.41.121a3.673,3.673,0,0,1-1.12.169,8.716,8.716,0,0,0-1,.111,2.125,2.125,0,0,0,.51.78,1,1,0,0,1,.38.85,1.6,1.6,0,0,1-.65,1.3l-.22.14-.239-.1a6.166,6.166,0,0,1-2-1.191,4.7,4.7,0,0,1-.44-.84A9.8,9.8,0,0,0-307-3228Zm17.62-.859a4.014,4.014,0,0,1,.53,1.78,1.137,1.137,0,0,1,.069.44,8.512,8.512,0,0,0,.63,1.17,4.625,4.625,0,0,1,.52,1v-.021A9.717,9.717,0,0,0-287-3228a9.986,9.986,0,0,0-.79-3.949,3.033,3.033,0,0,1-.869.219c-1,0-2.25-.11-2.561-.65a3.63,3.63,0,0,0-1.18-.82,6.66,6.66,0,0,0-1.53.159l-.07.16a1.83,1.83,0,0,0-.239.7,6.9,6.9,0,0,0,.4,2,13.712,13.712,0,0,0,2.06.72s.189-.02.464-.02A2.576,2.576,0,0,1-289.38-3228.86ZM-306.2-3232a13.674,13.674,0,0,0,.81,1.71,5.538,5.538,0,0,0,1.219.69.7.7,0,0,0,.06-.33,2.682,2.682,0,0,1-.89-1.69.741.741,0,0,1,.35-.67,3.918,3.918,0,0,1,1.65-.311,5.229,5.229,0,0,0,.87-.09c.09-.04.29-.09.52-.16a4.919,4.919,0,0,0,1.44-.57,4.933,4.933,0,0,1,1-1.9,4.5,4.5,0,0,1,.41-.34,5.5,5.5,0,0,0,.62-.53,9.335,9.335,0,0,0-1-.249,2.874,2.874,0,0,1-1-.28c-.18-.131-.48-.361-.69-.54A10.059,10.059,0,0,0-306.2-3232Zm13.369-4.3.36.15a7.092,7.092,0,0,0,2.17.72,10.051,10.051,0,0,0-2.27-1.54l-.64.2a1.765,1.765,0,0,1-.49.08,3.841,3.841,0,0,0-.71.11v.1a2.832,2.832,0,0,0-.14.561,3.013,3.013,0,0,0,.83-.23,1.445,1.445,0,0,1,.673-.167A1.444,1.444,0,0,1-292.83-3236.3Zm-6.619,17.63a1.677,1.677,0,0,1-1-.84,7.15,7.15,0,0,1-.671-2,7.3,7.3,0,0,1,.06-1,8.762,8.762,0,0,0,0-2.149,3.623,3.623,0,0,0-.63-.07,1.41,1.41,0,0,1-1.13-.381,5.564,5.564,0,0,1-1-2.44c.041-.59,1.46-2.45,2.16-2.45.44,0,.661.41.9.771a1.826,1.826,0,0,0,.33.49,4.835,4.835,0,0,0,.91-.07,3.592,3.592,0,0,1,1.53,0c.39.16.69.7,1,1.27.09.17.221.41.311.541h.159c.33-.111,1.09-.281,1.381.38a3,3,0,0,1-.571,2.62,4.921,4.921,0,0,0-1.139,1.51,1.642,1.642,0,0,1-.61,1,1.663,1.663,0,0,0-.23.239,2.292,2.292,0,0,1-.319.361c-.24.19-.24.249-.24.37a8.139,8.139,0,0,1-.16,1.36v.2l-.159.11a1,1,0,0,1-.581.18,1.466,1.466,0,0,1-.15.008A1.466,1.466,0,0,1-299.45-3218.67Zm-.85-6.6c.3.4.3,1.2.111,2.85a7.7,7.7,0,0,0,0,.789,6.654,6.654,0,0,0,.56,1.63.72.72,0,0,0,.28.311,5.426,5.426,0,0,0,.08-.81,1.439,1.439,0,0,1,.54-1.08,1.69,1.69,0,0,0,.19-.21,2.352,2.352,0,0,1,.37-.4c.15-.15.31-.29.31-.41.06-.82,1.51-2.09,1.51-2.09v-.04a2.462,2.462,0,0,0,.25-1.27h-.26a1.462,1.462,0,0,1-.66.05c-.37-.05-.581-.47-.9-1.049a3.841,3.841,0,0,0-.53-.831,5.484,5.484,0,0,0-1,.07,4.159,4.159,0,0,1-1.25,0,1.755,1.755,0,0,1-1-1l-.08-.12a5.329,5.329,0,0,0-1.09,1.419,5.713,5.713,0,0,0,.77,1.731h.44c.045,0,.089,0,.134,0A1.848,1.848,0,0,1-300.3-3225.27Z" transform="translate(308 3239)" fill="#1c120e"/>
</svg>
