<?xml version="1.0" encoding="UTF-8"?>
<svg id="Camada_1" xmlns="http://www.w3.org/2000/svg" width="24" height="24" version="1.1" viewBox="0 0 24 24">
  <!-- Generator: Adobe Illustrator 29.3.0, SVG Export Plug-In . SVG Version: 2.1.0 Build 146)  -->
  <path d="M19.725,14.493l-.005-.009-.037-.017h0s-.003-.001-.003-.001l-.008-.003-.027-.01c-.023-.009-.056-.021-.098-.035-.084-.029-.203-.068-.352-.11-.296-.085-.713-.185-1.197-.247-.954-.122-2.236-.104-3.354.557-.728.43-1.259,1.057-1.643,1.691v-2.849c.785-.124,1.672-.523,2.483-1.118,1.001-.734,1.941-1.805,2.481-3.155.535-1.338.661-2.913.661-4.123,0-.611-.032-1.141-.064-1.519-.016-.189-.032-.341-.044-.446-.006-.053-.011-.094-.015-.122l-.004-.033v-.009s-.002-.003-.002-.003h0c-.036-.257-.262-.443-.519-.43h-.008s-.02.001-.02.001l-.076.004c-.065.004-.16.01-.276.018-.233.017-.558.043-.923.082-.169.018-.349.039-.535.063-.824-1.018-2.085-1.669-3.498-1.669-1.533,0-2.887.767-3.699,1.936-.413-.156-.84-.258-1.175-.323-.206-.04-.383-.068-.509-.085-.063-.009-.114-.015-.15-.019l-.042-.005h-.012s-.003-.002-.003-.002h-.002c-.016-.002-.032-.003-.049-.003-.224,0-.423.15-.483.369v.002s-.001.003-.001.003l-.003.009-.009.033c-.007.029-.017.07-.03.122-.025.105-.058.256-.094.444-.073.376-.157.905-.205,1.518-.095,1.212-.054,2.809.554,4.2,1.264,2.89,3.587,4.073,5.27,4.27v3.836c-.385-.634-.916-1.261-1.643-1.691-1.118-.661-2.4-.679-3.354-.557-.483.062-.9.162-1.197.247-.149.043-.268.082-.352.111-.042.014-.075.026-.098.035l-.028.01-.008.003h-.003s-.001.002-.001.002c-.1.04-.179.111-.234.197l-.01.008v.005c-.06.099-.086.216-.066.336h0s0,.004,0,.004v.009s.007.029.007.029c.005.025.011.06.02.104.018.088.046.214.085.367.079.305.205.725.396,1.183.375.902,1.028,2.026,2.128,2.676,1.118.661,2.4.679,3.354.557.386-.049.729-.123,1.003-.194v1.754c0,.276.224.5.5.5s.5-.224.5-.5v-2.752c.274.071.617.145,1.002.194.954.122,2.236.104,3.354-.557,1.1-.65,1.753-1.774,2.128-2.676.19-.458.317-.878.396-1.183.039-.153.067-.278.086-.367.009-.044.016-.079.02-.104l.005-.029v-.008s.002-.003.002-.003h0c.035-.217-.078-.424-.268-.522ZM10.87,19.948c-.857.11-1.876.071-2.718-.426-.825-.488-1.371-1.375-1.713-2.199-.168-.405-.281-.778-.351-1.049l-.002-.009c.26-.074.624-.162,1.044-.216.857-.11,1.876-.071,2.718.426.844.498,1.389,1.386,1.726,2.205.166.403.275.773.342,1.042l.002.009c-.26.075-.626.163-1.048.217ZM12.64,2c.884,0,1.692.328,2.308.869-.21.045-.411.096-.596.153-.686.211-1.473.607-2.07.937-.303.167-.565.321-.751.434l-.021.012h-.001c-.168-.113-.401-.266-.663-.431-.303-.192-.655-.408-.991-.596.64-.838,1.649-1.378,2.784-1.378ZM12.504,12.5h-.008c-1.31-.002-3.622-.893-4.849-3.7-.512-1.17-.564-2.573-.474-3.721.045-.567.123-1.058.19-1.407.008-.039.015-.077.022-.112.059.01.123.022.189.035.374.073.832.189,1.222.363.402.179.999.535,1.515.862.254.161.481.309.644.418.082.054.147.098.193.129l.052.035.013.009.004.003.553.008.003-.002.013-.009.055-.034c.048-.03.118-.074.207-.127.178-.107.428-.255.717-.414.585-.323,1.298-.677,1.881-.856.585-.18,1.419-.301,2.132-.377.296-.031.565-.055.777-.071.003.031.006.064.009.098.03.356.061.857.061,1.434,0,1.165-.124,2.59-.589,3.752-.46,1.15-1.269,2.079-2.144,2.72-.884.648-1.78.964-2.388.966ZM18.912,15.276c-.07.271-.182.644-.351,1.049-.343.825-.888,1.711-1.714,2.199-.842.497-1.861.536-2.718.426-.422-.054-.788-.142-1.048-.217l.002-.009c.067-.269.176-.639.342-1.042.337-.819.882-1.707,1.726-2.205.842-.497,1.861-.536,2.718-.426.42.054.784.141,1.044.216l-.002.009Z" fill="#363636"/>
</svg>