<svg xmlns="http://www.w3.org/2000/svg" width="24" height="24" viewBox="0 0 24 24"><path d="M17,21H7a3,3,0,0,1-3-3v-.5A1.5,1.5,0,0,1,5.5,16h13A1.5,1.5,0,0,1,20,17.5V18A3,3,0,0,1,17,21ZM5.5,17a.5.5,0,0,0-.5.5V18a2,2,0,0,0,2,2H17a2,2,0,0,0,2-2v-.5a.5.5,0,0,0-.5-.5H16.77l-.41.61a2,2,0,0,1-1.66.89H9.3a2,2,0,0,1-1.66-.89L7.23,17Zm2.93,0,0,.05a1,1,0,0,0,.83.45h5.4a1,1,0,0,0,.83-.45l0-.05Z"/><path d="M12.65,7.65l-3.5,3.5.7.7,3.5-3.5Zm1.5,2-3.5,3.5.7.7,3.5-3.5ZM12,5A6,6,0,0,0,8.69,16H12a5,5,0,1,1,5-5,5,5,0,0,1-5,5h3.31A6,6,0,0,0,12,5Zm0-2a8,8,0,0,0-8,8,7.91,7.91,0,0,0,1.77,5H7.11a7,7,0,1,1,9.78,0h1.34A7.91,7.91,0,0,0,20,11,8,8,0,0,0,12,3Z"/></svg>