<?xml version="1.0" encoding="UTF-8"?>
<svg xmlns="http://www.w3.org/2000/svg" width="24" height="24" version="1.1" viewBox="0 0 24 24">
  <defs>
    <style>
      .cls-1 {
        fill: #363636;
      }
    </style>
  </defs>
  <!-- Generator: Adobe Illustrator 28.7.1, SVG Export Plug-In . SVG Version: 1.2.0 Build 142)  -->
  <g>
    <g id="Camada_1">
      <g>
        <path class="cls-1" d="M12.5,6c1.381,0,2.5-1.119,2.5-2.5s-1.119-2.5-2.5-2.5-2.5,1.119-2.5,2.5,1.119,2.5,2.5,2.5ZM12.5,2c.828,0,1.5.672,1.5,1.5s-.672,1.5-1.5,1.5-1.5-.672-1.5-1.5.672-1.5,1.5-1.5Z"/>
        <path class="cls-1" d="M17.349,16.833c1.233-2.023.673-4.68-1.307-6.027-.078-.053-.157-.103-.237-.151l-.44-1.76c-.279-1.113-1.278-1.895-2.426-1.895h-1.2c-.949,0-1.814.536-2.239,1.383l-.999,1.999c-.37.741-.071,1.642.671,2.013l3.106,1.553c.247.123.547.023.671-.224.123-.247.023-.547-.224-.671l-3.106-1.553c-.247-.123-.347-.424-.223-.671l.999-1.998c.255-.509.776-.831,1.345-.831h1.2c.688,0,1.289.469,1.456,1.137l.492,1.969c.034.138.126.254.251.321.118.063.233.131.342.206,1.588,1.08,1.999,3.242.919,4.83-.08.118-.106.264-.072.403l.534,2.135h-3.349c-.007,0-.015,0-.022,0h-4.387l.49-2.635c.051-.272-.129-.533-.4-.583-.271-.051-.532.129-.583.4l-.6,3.226c-.027.146.012.297.107.411.095.114.236.18.385.18h2.5v2.5c0,.276.224.5.5.5h1c.215,0,.406-.138.474-.342l.886-2.658h3.64c.154,0,.299-.071.394-.192.095-.121.128-.28.091-.429l-.637-2.546Z"/>
      </g>
    </g>
  </g>
</svg>