<?xml version="1.0" encoding="UTF-8"?>
<svg xmlns="http://www.w3.org/2000/svg" width="24" height="24" version="1.1" viewBox="0 0 24 24">

        <path  d="M21.233,2.769c-1.024-1.024-2.683-1.024-3.707,0l-2.146,2.146-.439-.439c-.586-.586-1.536-.586-2.121,0l-.793.793c-.195.195-.195.512,0,.707l.646.646-4.497,4.497c-.01.008-.02.017-.029.027-.009.009-.018.019-.027.029l-.594.594c-.06.06-.104.135-.128.217l-1.379,4.877c-.049.174,0,.362.128.49.128.128.315.177.49.128l4.879-1.377c.082-.023.157-.067.218-.128l5.146-5.147,1.146,1.147c.195.195.512.195.707,0l.793-.793c.586-.586.586-1.536,0-2.121l-.439-.439,2.146-2.146c1.024-1.024,1.024-2.683,0-3.707ZM11.118,15.177l-3.894,1.099,1.101-3.892.235-.235c.029.016.059.032.091.048.311.156.762.303,1.349.303.325,0,.664-.08.979-.18.315-.099.642-.23.948-.352l.009-.004c.316-.126.611-.244.887-.331.279-.088.503-.133.678-.133.383,0,.683.101.886.2.052.025.098.051.136.074l-3.404,3.404ZM15.242,11.053c-.017-.013-.035-.026-.056-.041-.086-.06-.207-.137-.362-.212-.311-.151-.761-.3-1.323-.3-.325,0-.664.08-.979.18-.315.099-.642.23-.948.352l-.009.004c-.316.126-.611.244-.887.331-.279.088-.503.133-.678.133-.28,0-.508-.047-.684-.107l4.063-4.063,2.793,2.793-.93.931ZM20.526,5.769l-2.5,2.5c-.195.195-.195.512,0,.707l.793.793c.195.195.195.512,0,.707l-.439.439-5.293-5.293.439-.439c.195-.195.512-.195.707,0l.793.793c.195.195.512.195.707,0l2.5-2.5c.633-.633,1.66-.633,2.293,0s.633,1.66,0,2.293Z"/>
        <path  d="M6.15,19.075c-.199-.265-.397-.496-.544-.659-.074-.082-.136-.148-.18-.194-.022-.023-.04-.041-.052-.054l-.015-.015-.004-.004-.002-.002c-.094-.094-.221-.146-.354-.146s-.26.053-.354.146l-.002.002-.004.004-.015.015c-.012.013-.03.031-.052.054-.044.046-.106.112-.18.194-.147.164-.345.394-.544.659-.198.263-.404.571-.563.889-.155.309-.287.673-.287,1.036,0,.686.349,1.194.751,1.514.384.305.864.479,1.247.476.424.005.911-.163,1.295-.481.4-.332.706-.842.706-1.509,0-.363-.132-.727-.287-1.036-.159-.318-.365-.625-.563-.889ZM5.656,21.739c-.213.177-.474.254-.648.251h-.014c-.116.001-.382-.07-.62-.259-.222-.177-.374-.417-.374-.731,0-.137.055-.336.182-.589.122-.245.291-.5.468-.736.121-.161.242-.309.35-.435.108.125.229.273.35.435.177.237.346.491.468.736.126.253.182.452.182.589,0,.333-.144.573-.344.739Z"/>

</svg>