<?xml version="1.0" encoding="UTF-8"?>
<svg xmlns="http://www.w3.org/2000/svg" width="24" height="24" version="1.1" viewBox="0 0 24 24">
  <defs>
    <style>
      .cls-1 {
        fill: #363636;
      }
    </style>
  </defs>
  <!-- Generator: Adobe Illustrator 28.6.0, SVG Export Plug-In . SVG Version: 1.2.0 Build 709)  -->
  <g>
    <g id="Camada_1">
      <g>
        <path class="cls-1" d="M11,22c-3.866,0-7-3.134-7-7s3.134-7,7-7c2.29,0,4.323,1.099,5.601,2.8.166.221.479.265.7.099.221-.166.265-.479.1-.7-.892-1.188-2.108-2.119-3.516-2.664.973-.151,1.855-.376,2.598-.661.712-.273,1.323-.61,1.764-1.01.441-.4.754-.903.754-1.49s-.312-1.09-.754-1.49c-.441-.4-1.052-.737-1.764-1.01-1.428-.547-3.366-.875-5.482-.875s-4.055.328-5.482.875c-.712.273-1.323.61-1.764,1.01-.441.4-.754.903-.754,1.49s.312,1.09.754,1.49c.441.4,1.052.737,1.764,1.01.743.285,1.625.51,2.598.661-2.993,1.157-5.115,4.063-5.115,7.464,0,4.418,3.582,8,8,8,.276,0,.5-.224.5-.5s-.224-.5-.5-.5ZM5.876,5.941c-.645-.247-1.133-.529-1.451-.817-.318-.288-.425-.542-.425-.749s.107-.461.425-.749c.318-.288.805-.57,1.451-.817,1.287-.493,3.098-.809,5.124-.809s3.838.316,5.124.809c.645.247,1.133.529,1.451.817.318.288.425.542.425.749s-.107.461-.425.749c-.318.288-.805.57-1.451.817-1.287.493-3.098.809-5.124.809s-3.837-.316-5.124-.809Z"/>
        <path class="cls-1" d="M16.5,12c-3.038,0-5.5,2.462-5.5,5.5s2.462,5.5,5.5,5.5,5.5-2.462,5.5-5.5-2.462-5.5-5.5-5.5ZM16.5,22c-2.485,0-4.5-2.015-4.5-4.5s2.015-4.5,4.5-4.5,4.5,2.015,4.5,4.5-2.015,4.5-4.5,4.5Z"/>
        <path class="cls-1" d="M11,11.5c.445,0,.87.083,1.26.234.258.1.547-.029.646-.286.099-.258-.029-.547-.286-.647-.503-.194-1.05-.301-1.62-.301-2.485,0-4.5,2.015-4.5,4.5,0,1.646.884,3.085,2.2,3.869.237.141.544.064.685-.174s.063-.544-.174-.685c-1.026-.611-1.712-1.731-1.712-3.01,0-1.933,1.567-3.5,3.5-3.5Z"/>
      </g>
    </g>
  </g>
</svg>