<svg xmlns="http://www.w3.org/2000/svg" width="24" height="24" viewBox="0 0 24 24">
  <g id="Create-Here">
    <g>
      <rect id="Bounds" width="24" height="24" style="fill: none"/>
      <path d="M16.14,1a.5.5,0,0,1,.5.5v.94a.5.5,0,0,1-.5.5.5.5,0,0,1-.5-.5V1.52A.5.5,0,0,1,16.14,1ZM11.31,3A.51.51,0,0,1,12,3l.65.66a.48.48,0,0,1,0,.7.5.5,0,0,1-.71,0l-.65-.65A.51.51,0,0,1,11.31,3Zm9,0A.51.51,0,0,1,21,3a.5.5,0,0,1,0,.71l-.65.65a.5.5,0,0,1-.71,0,.48.48,0,0,1,0-.7Zm-11,4.83a.5.5,0,0,1,.5-.5h.93a.5.5,0,0,1,.5.5.5.5,0,0,1-.5.5H9.81A.5.5,0,0,1,9.31,7.86Zm12.24-.5a.5.5,0,0,0-.5.5.5.5,0,0,0,.5.5h.93a.5.5,0,0,0,.5-.5.5.5,0,0,0-.5-.5ZM15.09,5a2.6,2.6,0,0,1,1.05-.18A2.68,2.68,0,0,1,17.2,5h0A3,3,0,0,1,19,8.63a10.93,10.93,0,0,0-.25,1.08h0c0,.07,0,.14,0,.21a4.8,4.8,0,0,1-.27,1,1.51,1.51,0,0,1-.45.62,2.26,2.26,0,0,1-1,.36.5.5,0,0,0-.35.23V9.64a.5.5,0,0,0-.5-.5.51.51,0,0,0-.5.5v2.48a.48.48,0,0,0-.35-.23,2.31,2.31,0,0,1-1-.36,1.41,1.41,0,0,1-.45-.59,5.51,5.51,0,0,1-.27-1c0-.07,0-.15,0-.22h0c-.07-.33-.15-.69-.25-1.06A3,3,0,0,1,15.07,5h0Zm-.65,7.76a2.74,2.74,0,0,1-.72-.38,2.24,2.24,0,0,1-.77-1,5.73,5.73,0,0,1-.34-1.16c0-.08,0-.16,0-.24h0c-.06-.32-.13-.64-.22-1A4,4,0,0,1,14.7,4a3.66,3.66,0,0,1,1.44-.26A3.71,3.71,0,0,1,17.59,4,4.05,4.05,0,0,1,20,8.9c-.1.34-.16.67-.23,1h0c0,.07,0,.15,0,.22a5.89,5.89,0,0,1-.33,1.18,2.35,2.35,0,0,1-.77,1,2.67,2.67,0,0,1-.73.39.5.5,0,0,1-.5.46h-2.4A.52.52,0,0,1,14.44,12.71Zm.5,1.26a.5.5,0,0,0-.5.5.51.51,0,0,0,.5.5h2.4a.5.5,0,0,0,.5-.5.5.5,0,0,0-.5-.5Zm.11,5.61-.26-3.47c-.35-.06-.69-.14-1-.23l.29,3.8v.06a.17.17,0,0,1-.05.15.35.35,0,0,1-.23.14H4.14a.3.3,0,0,1-.31-.3v-.07l.69-9.28H6.06v2.1a.51.51,0,0,0,.5.5.5.5,0,0,0,.5-.5v-2.1h1a8.64,8.64,0,0,1-.26-1H7.06V8.83a1.92,1.92,0,0,1,.6-1.39A7.71,7.71,0,0,1,7.8,6.16,2.91,2.91,0,0,0,6.06,8.83v.55h-2a.5.5,0,0,0-.5.46l-.73,9.77v.12A1.31,1.31,0,0,0,4.14,21h9.77A1.3,1.3,0,0,0,15.05,19.58Z" style="fill-rule: evenodd"/>
    </g>
  </g>
</svg>
