<?xml version="1.0" encoding="utf-8"?>
<!-- Generator: Adobe Illustrator 28.4.1, SVG Export Plug-In . SVG Version: 6.00 Build 0)  -->
<svg version="1.0" id="Camada_1" xmlns="http://www.w3.org/2000/svg" xmlns:xlink="http://www.w3.org/1999/xlink" x="0px" y="0px"
	 width="24px" height="24px" viewBox="0 0 24 24" enable-background="new 0 0 24 24" xml:space="preserve">
<path    d="M8.5,3.5c-1.3,0-2.6,1-3.2,2.3C4.9,6.6,4.1,7.5,3,7.5H2C1.7,7.5,1.5,7.3,1.5,7S1.7,6.5,2,6.5h1
	c0.5,0,1.1-0.5,1.4-1.2c0.7-1.6,2.4-2.8,4.1-2.8c1.7,0,3.4,1.3,4.1,2.8C12.9,6,13.5,6.5,14,6.5h1c0.3,0,0.5,0.2,0.5,0.5
	S15.3,7.5,15,7.5h-1c-1.1,0-1.9-0.9-2.3-1.7C11.1,4.5,9.8,3.5,8.5,3.5z"/>
<path    d="M15.5,10.5c-1.3,0-2.6,1-3.2,2.3c-0.4,0.8-1.2,1.7-2.3,1.7H9c-0.3,0-0.5-0.2-0.5-0.5s0.2-0.5,0.5-0.5h1
	c0.5,0,1.1-0.5,1.4-1.2c0.7-1.6,2.4-2.8,4.1-2.8s3.4,1.3,4.1,2.8c0.3,0.7,0.8,1.2,1.4,1.2h1c0.3,0,0.5,0.2,0.5,0.5s-0.2,0.5-0.5,0.5
	h-1c-1.1,0-1.9-0.9-2.3-1.7C18.1,11.5,16.8,10.5,15.5,10.5z"/>
<path    d="M5.3,19.8c0.6-1.3,1.9-2.3,3.2-2.3s2.6,1,3.2,2.3c0.4,0.8,1.2,1.7,2.3,1.7h1c0.3,0,0.5-0.2,0.5-0.5
	s-0.2-0.5-0.5-0.5h-1c-0.5,0-1.1-0.5-1.4-1.2c-0.7-1.6-2.4-2.8-4.1-2.8c-1.7,0-3.4,1.3-4.1,2.8C4.1,20,3.5,20.5,3,20.5H2
	c-0.3,0-0.5,0.2-0.5,0.5s0.2,0.5,0.5,0.5h1C4.1,21.5,4.9,20.6,5.3,19.8z"/>
</svg>
