<svg width="24" height="24" viewBox="0 0 24 24" fill="none" xmlns="http://www.w3.org/2000/svg">
<path fill-rule="evenodd" clip-rule="evenodd" d="M6.42002 3H10.75C10.8818 3.00256 11.0075 3.05606 11.1007 3.14928C11.194 3.2425 11.2475 3.36819 11.25 3.5C11.25 3.63261 11.1973 3.75979 11.1036 3.85355C11.0098 3.94732 10.8826 4 10.75 4H10.66V5.25C10.7649 5.27297 10.8595 5.32907 10.93 5.41C10.9761 5.46507 11.0105 5.52892 11.0311 5.59768C11.0517 5.66644 11.0582 5.73868 11.05 5.81C10.94 6.41448 10.9638 7.03576 11.12 7.63C11.1392 7.68185 11.1626 7.73202 11.19 7.78C10.893 7.95246 10.6089 8.1463 10.34 8.36C10.2994 8.2363 10.2492 8.11594 10.19 8C10.0165 7.43052 9.95203 6.8334 10 6.24H6.57002C6.56898 6.83616 6.4814 7.42901 6.31002 8V8C5.85243 9.15775 5.63141 10.3954 5.66002 11.64V19.5C5.66002 19.6326 5.7127 19.7598 5.80647 19.8536C5.90024 19.9473 6.02742 20 6.16002 20H10.46C10.5926 20 10.7198 19.9473 10.8136 19.8536C10.9073 19.7598 10.96 19.6326 10.96 19.5V18.06C11.2727 18.2705 11.6082 18.4449 11.96 18.58V19.5C11.96 19.8978 11.802 20.2794 11.5207 20.5607C11.2394 20.842 10.8578 21 10.46 21H6.14002C5.7422 21 5.36067 20.842 5.07936 20.5607C4.79806 20.2794 4.64002 19.8978 4.64002 19.5V11.64C4.61671 10.2725 4.8613 8.91358 5.36002 7.64C5.54823 7.04944 5.60622 6.42512 5.53002 5.81C5.52189 5.73868 5.52834 5.66644 5.54897 5.59768C5.56959 5.52892 5.60398 5.46507 5.65002 5.41C5.72052 5.32907 5.81518 5.27297 5.92002 5.25V4H4.65002C4.51742 4 4.39024 3.94732 4.29647 3.85355C4.2027 3.75979 4.15002 3.63261 4.15002 3.5C4.15258 3.36819 4.20608 3.2425 4.2993 3.14928C4.39252 3.05606 4.51822 3.00256 4.65002 3H6.42002ZM9.66002 4V5.24H6.92002V4H9.66002ZM10.78 11.86C10.7427 11.9877 10.657 12.0957 10.5412 12.1611C10.4254 12.2265 10.2886 12.244 10.16 12.21C10.0331 12.1749 9.92518 12.0911 9.85965 11.9769C9.79412 11.8627 9.77629 11.7273 9.81002 11.6C10.0388 10.6145 10.5821 9.73022 11.3579 9.08076C12.1336 8.4313 13.0996 8.05195 14.11 8V8C14.8732 8.01478 15.6189 8.23058 16.2721 8.62562C16.9252 9.02065 17.4626 9.58096 17.83 10.25L18.01 9.75C18.031 9.68652 18.0644 9.62788 18.1085 9.57756C18.1525 9.52723 18.2061 9.48625 18.2662 9.45702C18.3264 9.42779 18.3917 9.41092 18.4585 9.4074C18.5253 9.40387 18.592 9.41377 18.6549 9.43651C18.7178 9.45925 18.7754 9.49437 18.8245 9.53978C18.8736 9.58519 18.913 9.63998 18.9405 9.70091C18.968 9.76183 18.9831 9.82766 18.9847 9.89449C18.9863 9.96132 18.9745 10.0278 18.95 10.09L18.36 11.72C18.3361 11.7864 18.299 11.8472 18.2509 11.8988C18.2027 11.9504 18.1446 11.9916 18.08 12.02C18.0151 12.0472 17.9454 12.0613 17.875 12.0613C17.8046 12.0613 17.7349 12.0472 17.67 12.02L16.19 11.28C16.0819 11.2149 16.0023 11.1113 15.9674 10.99C15.9324 10.8687 15.9446 10.7386 16.0016 10.626C16.0586 10.5133 16.156 10.4264 16.2745 10.3826C16.3929 10.3388 16.5235 10.3415 16.64 10.39L16.76 10.45C16.4694 10.0158 16.0789 9.6575 15.6213 9.40521C15.1637 9.15293 14.6524 9.01398 14.13 9C13.3401 9.04885 12.587 9.35178 11.9833 9.86359C11.3796 10.3754 10.9575 11.0687 10.78 11.84V11.86ZM18.5 13.9C18.3415 14.9598 17.8203 15.9319 17.0252 16.6504C16.2301 17.3689 15.2104 17.7893 14.14 17.84V17.84C13.3354 17.8123 12.5528 17.5708 11.8726 17.1402C11.1924 16.7095 10.6392 16.1054 10.27 15.39L10.15 15.69C10.0996 15.8133 10.0023 15.9116 9.87948 15.9632C9.75664 16.0147 9.61835 16.0154 9.49502 15.965C9.3717 15.9146 9.27344 15.8173 9.22187 15.6945C9.1703 15.5716 9.16963 15.4333 9.22002 15.31L9.86002 13.73C9.88567 13.667 9.92365 13.6098 9.97174 13.5617C10.0198 13.5136 10.077 13.4756 10.14 13.45C10.2033 13.423 10.2713 13.4091 10.34 13.4091C10.4088 13.4091 10.4768 13.423 10.54 13.45L11.96 14.13C12.0198 14.1582 12.0734 14.198 12.1178 14.2469C12.1622 14.2959 12.1965 14.3531 12.2188 14.4153C12.2411 14.4775 12.2509 14.5435 12.2477 14.6095C12.2444 14.6755 12.2283 14.7402 12.2 14.8C12.1718 14.8598 12.1321 14.9134 12.0831 14.9578C12.0342 15.0022 11.9769 15.0365 11.9147 15.0588C11.8525 15.081 11.7865 15.0909 11.7205 15.0876C11.6545 15.0844 11.5898 15.0682 11.53 15.04L11.12 14.84C11.3933 15.4129 11.8164 15.9012 12.3445 16.2533C12.8726 16.6053 13.4861 16.8081 14.12 16.84C14.9568 16.7912 15.751 16.4551 16.3686 15.8884C16.9862 15.3218 17.3894 14.5594 17.51 13.73C17.5326 13.5974 17.6069 13.4792 17.7166 13.4013C17.8263 13.3235 17.9624 13.2925 18.095 13.315C18.2276 13.3375 18.3459 13.4118 18.4237 13.5216C18.5015 13.6313 18.5326 13.7674 18.51 13.9H18.5Z" fill="black"/>
</svg>
