<svg xmlns="http://www.w3.org/2000/svg" width="24" height="24" viewBox="0 0 24 24">
  <g id="Create-Here">
    <g>
      <path d="M14.22,17.05a.51.51,0,0,0-.67.23l-1,2a.51.51,0,0,0,.23.67A.54.54,0,0,0,13,20a.5.5,0,0,0,.45-.28l1-2A.51.51,0,0,0,14.22,17.05Z" style="fill: #1f140f"/>
      <path d="M11.22,17.05a.51.51,0,0,0-.67.23l-1.5,3a.51.51,0,0,0,.23.67A.54.54,0,0,0,9.5,21a.5.5,0,0,0,.45-.28l1.5-3A.51.51,0,0,0,11.22,17.05Z" style="fill: #1f140f"/>
      <path d="M16.72,17.05a.51.51,0,0,0-.67.23l-.5,1a.51.51,0,0,0,.23.67A.54.54,0,0,0,16,19a.5.5,0,0,0,.45-.28l.5-1A.51.51,0,0,0,16.72,17.05Z" style="fill: #1f140f"/>
      <path d="M8.22,17.05a.51.51,0,0,0-.67.23l-.5,1a.51.51,0,0,0,.23.67A.54.54,0,0,0,7.5,19,.5.5,0,0,0,8,18.72l.5-1A.51.51,0,0,0,8.22,17.05Z" style="fill: #1f140f"/>
      <path d="M18.57,8.94A4.71,4.71,0,0,0,9.94,6.8a3.39,3.39,0,0,0-1.25-.24A3.3,3.3,0,0,0,5.4,9.71,3.29,3.29,0,0,0,6.33,16V16H16.72a3.77,3.77,0,0,0,1.85-7.06ZM16.72,15h-10l-.26,0a2.31,2.31,0,0,1-2-2.27,2.27,2.27,0,0,1,1.33-2.07l.55-.26,0-.6a2.3,2.3,0,0,1,2.29-2.2,2.18,2.18,0,0,1,.87.17l.77.31.45-.69A3.7,3.7,0,0,1,17.57,9l.05.52.45.26A2.76,2.76,0,0,1,16.72,15Z" style="fill: #1f140f"/>
    </g>
  </g>
</svg>
