<svg xmlns="http://www.w3.org/2000/svg" width="24" height="24" viewBox="0 0 24 24">
  <g id="Create-Here">
    <path d="M14,6.08a4,4,0,0,1,4,3.62l0,.52.45.26A3,3,0,0,1,17,16.08H6.4l-.28,0A2.51,2.51,0,0,1,4,13.58a2.47,2.47,0,0,1,1.44-2.26L6,11.07l0-.61A2.5,2.5,0,0,1,8.48,8.08a2.53,2.53,0,0,1,.94.18l.77.32.45-.69A4,4,0,0,1,14,6.08m0-1A5,5,0,0,0,9.8,7.34a3.41,3.41,0,0,0-1.32-.26A3.48,3.48,0,0,0,5,10.42,3.48,3.48,0,0,0,6,17v0H17a4,4,0,0,0,1.95-7.47A5,5,0,0,0,14,5.08Z" style="fill: #1f140f"/>
  </g>
</svg>
