<?xml version="1.0" encoding="UTF-8"?>
<svg id="Camada_1" xmlns="http://www.w3.org/2000/svg" width="24" height="24" version="1.1" viewBox="0 0 24 24">
  <!-- Generator: Adobe Illustrator 29.3.0, SVG Export Plug-In . SVG Version: 2.1.0 Build 146)  -->
  <path d="M12,1c-3.766,0-6.959,2.139-8.985,4.809v-3.309c0-.276-.224-.5-.5-.5s-.5.224-.5.5v5c0,.15.067.292.183.387s.268.133.415.104l5-1c.271-.054.446-.318.392-.588-.054-.271-.318-.446-.588-.392l-3.877.775c1.864-2.658,4.914-4.785,8.46-4.785,5.523,0,10,4.477,10,10s-4.477,10-10,10c-.331,0-.659-.016-.981-.047-.275-.027-.519.174-.546.449-.027.275.174.519.449.546.355.034.714.052,1.078.052,6.075,0,11-4.925,11-11S18.075,1,12,1Z" fill="#363636"/>
  <path d="M2.047,12.981c-.031-.323-.047-.65-.047-.981,0-.276-.224-.5-.5-.5s-.5.224-.5.5c0,.364.018.723.052,1.078.027.275.271.476.546.449.275-.027.476-.271.449-.546Z" fill="#363636"/>
  <path d="M2.428,14.904c-.08-.264-.359-.414-.623-.333s-.414.359-.334.623c.211.696.489,1.363.826,1.993.13.243.433.335.677.205.243-.13.335-.433.205-.677-.307-.573-.559-1.178-.751-1.81Z" fill="#363636"/>
  <path d="M4.269,18.344c-.175-.213-.49-.244-.704-.069s-.244.49-.069.704c.457.557.968,1.067,1.525,1.525.213.175.528.145.704-.069.175-.213.144-.528-.069-.704-.506-.416-.971-.881-1.387-1.387Z" fill="#363636"/>
  <path d="M9.096,21.572c-.632-.192-1.238-.444-1.81-.751-.243-.13-.546-.039-.677.205-.13.243-.039.546.205.677.63.337,1.297.615,1.993.826.264.08.543-.069.623-.334.08-.264-.069-.543-.334-.623Z" fill="#363636"/>
  <path d="M13.25,15h-4.25c-.276,0-.5.224-.5.5s.224.5.5.5h2.5v1.5c0,.276.224.5.5.5s.5-.224.5-.5v-1.5h.75c1.243,0,2.25-1.007,2.25-2.25s-1.007-2.25-2.25-2.25h-2.5c-.69,0-1.25-.56-1.25-1.25s.56-1.25,1.25-1.25h4.25c.276,0,.5-.224.5-.5s-.224-.5-.5-.5h-2.494l.017-1.494c.003-.276-.218-.503-.494-.506-.276-.003-.503.218-.506.494l-.018,1.506h-.756c-1.243,0-2.25,1.007-2.25,2.25s1.007,2.25,2.25,2.25h2.5c.69,0,1.25.56,1.25,1.25s-.56,1.25-1.25,1.25Z" fill="#363636"/>
</svg>