<?xml version="1.0" encoding="UTF-8"?>
<svg id="Camada_1" data-name="Camada 1" xmlns="http://www.w3.org/2000/svg" width="24" height="24" version="1.1" viewBox="0 0 24 24">
  <path d="M19.74,4.18c-1.02-1.027-2.236-1.838-3.576-2.384-1.34-.546-2.777-.817-4.224-.796-1.444.004-2.874.292-4.207.849-1.333.556-2.543,1.37-3.562,2.394C2.113,6.312.962,9.113.97,12.03c.008,2.917,1.175,5.712,3.243,7.769,2.069,2.057,4.87,3.209,7.787,3.201h.06c2.176-.011,4.3-.667,6.102-1.885,1.803-1.218,3.204-2.944,4.026-4.958.822-2.015,1.028-4.228.592-6.36-.436-2.132-1.494-4.086-3.041-5.617ZM12.05,22h-.05c-2.652,0-5.196-1.054-7.071-2.929-1.875-1.875-2.929-4.419-2.929-7.071s1.054-5.196,2.929-7.071c1.875-1.875,4.419-2.929,7.071-2.929,2.652-.007,5.198,1.041,7.078,2.911,1.88,1.871,2.94,4.412,2.947,7.064.007,2.652-1.041,5.198-2.911,7.078-1.871,1.88-4.412,2.94-7.064,2.947Z" fill="#363636" stroke-width="0"/>
  <path d="M17.57,6.88l-6.63,9.34c-.08.068-.181.105-.285.105s-.205-.037-.285-.105l-4.01-4.22c-.046-.047-.1-.083-.16-.109s-.125-.038-.19-.038-.13.013-.19.038-.115.062-.16.109c-.047.047-.084.102-.109.163-.025.061-.038.126-.038.192s.013.131.038.192c.025.061.063.116.109.163l4,4.22c.129.136.284.245.456.321.172.076.357.116.544.119.313-.003.618-.104.87-.29.108-.081.203-.179.28-.29l6.55-9.27c.038-.054.066-.115.08-.179.015-.064.017-.131.006-.196-.011-.065-.035-.127-.07-.183-.035-.056-.081-.104-.135-.142-.098-.077-.222-.114-.347-.103-.125.011-.24.07-.323.163Z" fill="#363636" stroke-width="0"/>
</svg>