<?xml version="1.0" encoding="UTF-8"?>
<svg xmlns="http://www.w3.org/2000/svg" width="24" height="24" version="1.1" viewBox="0 0 24 24">
  <defs>
    <style>
      .cls-1 {
        fill: #363636;
      }
    </style>
  </defs>
  <!-- Generator: Adobe Illustrator 28.7.1, SVG Export Plug-In . SVG Version: 1.2.0 Build 142)  -->
  <g>
    <g id="Camada_1">
      <g>
        <path class="cls-1" d="M12.5,4c.276,0,.5-.224.5-.5V1.5c0-.276-.224-.5-.5-.5s-.5.224-.5.5v2c0,.276.224.5.5.5Z"/>
        <path class="cls-1" d="M6.491,6.197c.195.195.512.195.707,0,.195-.195.195-.512,0-.707l-1.414-1.414c-.195-.195-.512-.195-.707,0s-.195.512,0,.707l1.414,1.414Z"/>
        <path class="cls-1" d="M2.501,11.999h2c.276,0,.5-.224.5-.5s-.224-.5-.5-.5h-2c-.276,0-.5.224-.5.5s.224.5.5.5Z"/>
        <path class="cls-1" d="M20.499,11.999h2c.276,0,.5-.224.5-.5s-.224-.5-.5-.5h-2c-.276,0-.5.224-.5.5s.224.5.5.5Z"/>
        <path class="cls-1" d="M18.509,6.197l1.414-1.414c.195-.195.195-.512,0-.707-.195-.195-.512-.195-.707,0l-1.414,1.414c-.195.195-.195.512,0,.707.195.195.512.195.707,0Z"/>
        <path class="cls-1" d="M17.586,15.999h4.914c.276,0,.5-.224.5-.5s-.224-.5-.5-.5H1.5c-.276,0-.5.224-.5.5s.224.5.5.5h4.914l-5.293,6.176c-.18.21-.155.525.054.705.21.18.525.156.705-.054l5.473-6.385c.005-.006.011-.012.016-.018l.362-.423h1.773l-1.818,6.364c-.076.266.078.542.343.618.266.076.542-.078.618-.343l1.897-6.638h2.911l1.897,6.638c.076.266.353.419.618.343.266-.076.419-.353.343-.618l-1.818-6.364h1.774l.18.21.007.008,5.664,6.608c.18.21.495.234.705.054.21-.18.234-.495.054-.705l-5.293-6.176Z"/>
        <path class="cls-1" d="M8.767,12.983c.267-.072.424-.346.353-.613-.076-.282-.12-.572-.12-.871,0-1.933,1.567-3.5,3.5-3.5s3.5,1.567,3.5,3.5c0,.299-.043.589-.119.869-.073.266.084.541.351.614.267.073.541-.084.614-.351.098-.358.155-.737.155-1.133,0-2.485-2.015-4.5-4.5-4.5s-4.5,2.015-4.5,4.5c0,.397.058.775.154,1.131.072.267.346.424.613.353Z"/>
      </g>
    </g>
  </g>
</svg>