<?xml version="1.0" encoding="UTF-8"?>
<svg xmlns="http://www.w3.org/2000/svg" width="24" height="24" version="1.1" viewBox="0 0 24 24">
 
        <circle class="cls-1" cx="9" cy="17" r="1"/>
        <circle class="cls-1" cx="15" cy="17" r="1"/>
        <path class="cls-2" d="M17.303,13.839l-.084-.076c-.225-.205-.451-.409-.678-.608.046-.051.099-.111.158-.179.205-.237.482-.579.775-1.003.582-.841,1.248-2.031,1.517-3.374.254-1.268.505-3.033.693-4.471.094-.721.172-1.364.227-1.826.027-.231.049-.417.064-.546l.017-.148.006-.052c.019-.175-.054-.347-.194-.453-.14-.106-.325-.132-.488-.066h-.002s-.003.002-.003.002l-.012.005-.045.018c-.039.016-.095.04-.167.07-.143.061-.347.151-.595.267-.494.231-1.166.567-1.871.983-.703.416-1.451.918-2.093,1.486-.636.563-1.201,1.218-1.492,1.947-.523,1.307-.78,2.731-.907,3.815-.064.544-.096,1.009-.112,1.339v.032h-.031v-.032c-.018-.329-.05-.794-.114-1.339-.128-1.084-.384-2.507-.907-3.815-.291-.729-.856-1.384-1.492-1.947-.641-.567-1.389-1.07-2.093-1.486-.705-.417-1.376-.752-1.871-.983-.248-.116-.452-.206-.595-.267-.071-.031-.128-.054-.167-.07l-.045-.018-.012-.005h-.003s-.002-.002-.002-.002c-.163-.065-.349-.04-.489.066-.14.106-.214.278-.194.453l.006.052.017.148c.015.129.036.315.064.546.055.462.133,1.105.227,1.826.188,1.438.439,3.203.693,4.471.269,1.344.935,2.533,1.517,3.374.293.423.57.766.775,1.003.061.07.115.132.162.183-.211.186-.421.376-.632.568l-.064.058c-.496.45-1.002.909-1.552,1.355-.767.62-1.146,1.625-1.206,2.652-.06,1.035.196,2.162.784,3.105.592.95,1.525,1.719,2.801,1.995,1.217.263,2.691.066,4.409-.758,1.717.824,3.191,1.021,4.409.758,1.276-.276,2.209-1.044,2.801-1.995.587-.943.844-2.071.784-3.105-.06-1.027-.439-2.032-1.206-2.652-.518-.419-1.003-.86-1.487-1.3ZM13.015,11.016c.015-.311.046-.753.107-1.271.122-1.041.366-2.368.843-3.56.209-.521.644-1.054,1.227-1.569.577-.511,1.267-.977,1.939-1.374.664-.392,1.3-.711,1.773-.933-.053.447-.126,1.035-.211,1.687-.187,1.437-.436,3.172-.682,4.404-.231,1.156-.815,2.217-1.358,3.001-.269.389-.524.703-.71.919-.066.076-.123.14-.169.19-.032-.025-.065-.051-.097-.076-.799-.615-1.661-1.123-2.665-1.333l.004-.087ZM7.349,11.403c-.543-.784-1.127-1.844-1.358-3.001-.246-1.232-.495-2.967-.682-4.404-.085-.653-.157-1.241-.211-1.688.473.222,1.109.54,1.773.933.672.397,1.361.863,1.939,1.374.583.516,1.018,1.048,1.227,1.569.477,1.193.72,2.519.843,3.56.061.518.091.96.107,1.271l.004.086c-.99.204-1.832.695-2.621,1.302-.047.036-.093.072-.14.109-.046-.051-.104-.115-.17-.192-.186-.216-.44-.53-.71-.919ZM18.364,20.361c-.466.749-1.183,1.333-2.164,1.545-.837.181-1.911.099-3.239-.446l.816-.544c.183-.122.265-.35.201-.561-.064-.211-.258-.355-.479-.355h-3c-.22,0-.415.144-.479.355s.018.439.201.561l.817.545c-1.327.545-2.4.626-3.237.445-.981-.212-1.698-.797-2.164-1.545-.471-.756-.681-1.674-.633-2.511.049-.845.355-1.539.833-1.926.574-.464,1.098-.94,1.59-1.387l.07-.063c.516-.469.994-.899,1.475-1.269.956-.735,1.881-1.198,3.027-1.198s2.094.482,3.066,1.23c.488.376.969.809,1.48,1.273l.089.081c.48.436.985.895,1.526,1.333.478.387.784,1.081.833,1.926.049.838-.162,1.755-.633,2.511Z"/>

</svg>