<?xml version="1.0" encoding="UTF-8"?>
<svg xmlns="http://www.w3.org/2000/svg" width="24" height="24" version="1.1" viewBox="0 0 24 24">
  <defs>
    <style>
      .cls-1 {
        fill: #363636;
      }
    </style>
  </defs>
  <!-- Generator: Adobe Illustrator 28.7.1, SVG Export Plug-In . SVG Version: 1.2.0 Build 142)  -->
  <g>
    <g id="Camada_1">
      <g>
        <path class="cls-1" d="M12,17c1.657,0,3-1.343,3-3,0-.071-.015-.142-.045-.207-1.194-2.628-1.204-5.645-.897-8.042.153-1.193.383-2.218.574-2.944.095-.363.181-.65.242-.846.031-.098.055-.172.072-.222.008-.025.015-.043.019-.055l.005-.013v-.003c.088-.245-.026-.515-.262-.623-.236-.108-.516-.016-.643.21l-.004.006-.011.02-.042.076c-.037.067-.091.165-.16.291-.138.252-.334.616-.57,1.063-.471.894-1.1,2.126-1.729,3.471-.629,1.345-1.261,2.811-1.738,4.174-.472,1.349-.809,2.649-.809,3.642,0,1.657,1.343,3,3,3ZM10.753,10.688c.461-1.319,1.078-2.752,1.7-4.081.226-.483.452-.951.67-1.394-.02.135-.039.271-.056.411-.314,2.447-.327,5.632.931,8.477-.053,1.057-.927,1.899-1.997,1.899-1.105,0-2-.896-2-2,0-.814.287-1.979.753-3.312Z"/>
        <path class="cls-1" d="M6.5,18h-1c-.276,0-.5.224-.5.5s.224.5.5.5h1c.276,0,.5-.224.5-.5s-.224-.5-.5-.5Z"/>
        <path class="cls-1" d="M4.5,17h1c.276,0,.5-.224.5-.5s-.224-.5-.5-.5h-1c-.276,0-.5.224-.5.5s.224.5.5.5Z"/>
        <path class="cls-1" d="M16,18.5c0,.276.224.5.5.5h1c.276,0,.5-.224.5-.5s-.224-.5-.5-.5h-1c-.276,0-.5.224-.5.5Z"/>
        <path class="cls-1" d="M18.5,17h1c.276,0,.5-.224.5-.5s-.224-.5-.5-.5h-1c-.276,0-.5.224-.5.5s.224.5.5.5Z"/>
        <path class="cls-1" d="M14.5,20h-1c-.276,0-.5.224-.5.5s.224.5.5.5h1c.276,0,.5-.224.5-.5s-.224-.5-.5-.5Z"/>
        <path class="cls-1" d="M19.5,20h-1c-.276,0-.5.224-.5.5s.224.5.5.5h1c.276,0,.5-.224.5-.5s-.224-.5-.5-.5Z"/>
        <path class="cls-1" d="M9.5,20h-1c-.276,0-.5.224-.5.5s.224.5.5.5h1c.276,0,.5-.224.5-.5s-.224-.5-.5-.5Z"/>
        <path class="cls-1" d="M4.5,20h-1c-.276,0-.5.224-.5.5s.224.5.5.5h1c.276,0,.5-.224.5-.5s-.224-.5-.5-.5Z"/>
        <path class="cls-1" d="M22.5,13h-6c-.276,0-.5.224-.5.5,0,2.758-1.824,4.5-4,4.5s-4-1.742-4-4.5c0-.276-.224-.5-.5-.5H1.5c-.276,0-.5.224-.5.5v9c0,.276.224.5.5.5h21c.276,0,.5-.224.5-.5v-9c0-.276-.224-.5-.5-.5ZM22,15h-.5c-.276,0-.5.224-.5.5s.224.5.5.5h.5v2h-.5c-.276,0-.5.224-.5.5s.224.5.5.5h.5v3H2v-3h.5c.276,0,.5-.224.5-.5s-.224-.5-.5-.5h-.5v-2h.5c.276,0,.5-.224.5-.5s-.224-.5-.5-.5h-.5v-1h5.018c.214,2.972,2.334,5,4.982,5s4.768-2.028,4.982-5h5.018v1Z"/>
        <circle class="cls-1" cx="7.5" cy="11.5" r=".5"/>
        <circle class="cls-1" cx="22.5" cy="11.5" r=".5"/>
        <circle class="cls-1" cx="6.5" cy="9.5" r=".5"/>
        <circle class="cls-1" cx="21.5" cy="9.5" r=".5"/>
        <circle class="cls-1" cx="4.5" cy="11.5" r=".5"/>
        <circle class="cls-1" cx="19.5" cy="11.5" r=".5"/>
        <circle class="cls-1" cx="3.5" cy="9.5" r=".5"/>
        <circle class="cls-1" cx="18.5" cy="9.5" r=".5"/>
        <circle class="cls-1" cx="1.5" cy="11.5" r=".5"/>
        <circle class="cls-1" cx="16.5" cy="11.5" r=".5"/>
      </g>
    </g>
  </g>
</svg>