<?xml version="1.0" encoding="UTF-8"?>
<svg xmlns="http://www.w3.org/2000/svg" width="24" height="24" version="1.1" viewBox="0 0 24 24">
  <defs>
    <style>
      .cls-1 {
        fill: #363636;
      }
    </style>
  </defs>
  <!-- Generator: Adobe Illustrator 28.6.0, SVG Export Plug-In . SVG Version: 1.2.0 Build 709)  -->
  <g>
    <g id="Camada_1">
      <path class="cls-1" d="M12,1C5.935,1,1,5.935,1,12s4.935,11,11,11,11-4.935,11-11S18.065,1,12,1ZM20.75,12h-.008c-.696.003-1.301.394-1.54.995-.23.579-.217,1.516.878,2.876-.071.074-.146.148-.226.225-.473.453-1.239.453-1.712-.003-.077-.075-.151-.148-.223-.222,1.101-1.369,1.108-2.308.874-2.886-.242-.599-.848-.985-1.544-.985s-1.302.387-1.544.985c-.233.578-.227,1.517.874,2.886-.07.072-.145.146-.223.222-.473.457-1.242.457-1.715,0-.077-.075-.151-.148-.223-.222,1.101-1.369,1.108-2.308.874-2.886-.242-.599-.848-.985-1.544-.985s-1.302.387-1.544.985c-.234.578-.227,1.517.874,2.886-.07.072-.145.146-.223.222-.473.457-1.242.457-1.714,0-.078-.075-.152-.149-.223-.222,1.101-1.369,1.108-2.308.874-2.886-.242-.599-.848-.985-1.544-.985s-1.302.387-1.544.985c-.234.578-.227,1.517.874,2.886-.071.072-.146.146-.223.222-.472.456-1.241.458-1.714,0-.078-.075-.152-.149-.223-.222,1.101-1.369,1.108-2.308.874-2.886-.242-.599-.848-.985-1.544-.985s-1.302.387-1.544.985c-.234.578-.227,1.517.874,2.886-.071.072-.146.146-.223.222-.473.458-1.24.459-1.711.003-.079-.076-.154-.151-.226-.225,1.097-1.364,1.108-2.302.876-2.881-.241-.6-.846-.989-1.542-.99h-.004c-.486,0-.919.196-1.224.514-.009-.171-.026-.34-.026-.514,0-.094.012-.185.014-.279.478-.39.896-.762,1.235-1.106.067.067.135.135.206.204.867.837,2.228.834,3.097-.007.068-.066.134-.131.198-.195.063.064.129.129.198.195.856.828,2.249.828,3.104,0,.068-.066.134-.131.198-.195.063.064.129.129.198.195.854.827,2.248.828,3.105,0,.068-.066.134-.131.197-.195.063.064.13.129.197.195.857.826,2.25.827,3.105,0,.068-.066.134-.131.197-.195.063.064.13.129.197.195.869.84,2.23.844,3.099.006.069-.068.138-.135.203-.202.341.344.759.715,1.237,1.104.003.094.014.185.014.279,0,.173-.017.342-.026.513-.305-.317-.739-.513-1.224-.513ZM20.75,15.102c-.618-.818-.748-1.412-.618-1.737.105-.268.387-.363.614-.364h.004c.228,0,.509.095.616.359.132.324.005.92-.616,1.742ZM17.25,15.102c-.62-.822-.748-1.418-.617-1.741.108-.266.39-.36.617-.36s.51.095.617.36c.131.323.004.919-.617,1.741ZM13.75,15.102c-.621-.822-.748-1.418-.617-1.741.107-.266.39-.36.617-.36s.51.095.617.36c.131.323.004.919-.617,1.741ZM10.25,15.101c-.621-.821-.748-1.417-.617-1.74.107-.266.389-.36.617-.36s.51.095.617.36c.131.323.003.919-.617,1.74ZM6.75,15.101c-.621-.821-.748-1.417-.617-1.74.107-.266.389-.36.617-.36s.509.095.617.36c.131.323.004.919-.617,1.74ZM2.327,9.508c.084.12.153.237.252.361-.128.131-.275.266-.419.401.045-.258.102-.511.167-.762ZM3.349,7.007c.212.026.426.132.516.347.139.333.002.929-.617,1.746-.263-.347-.417-.629-.512-.851.175-.431.381-.844.612-1.242ZM3.25,15.101c-.621-.821-.748-1.417-.617-1.74.108-.266.389-.36.617-.36h.002c.228,0,.509.096.616.362.13.324.001.919-.618,1.738ZM6.133,7.361c.107-.266.389-.361.617-.361s.509.095.617.361c.131.323.004.918-.617,1.74-.621-.822-.748-1.417-.617-1.74ZM9.633,7.361c.107-.266.389-.361.617-.361s.51.095.617.361c.131.323.003.918-.617,1.74-.621-.822-.748-1.417-.617-1.74ZM13.133,7.361c.107-.266.39-.361.617-.361s.51.095.617.361c.131.323.004.919-.617,1.741-.621-.822-.748-1.417-.617-1.741ZM16.633,7.361c.107-.266.39-.361.617-.361s.51.095.617.361c.131.323.004.919-.617,1.741-.621-.822-.748-1.417-.617-1.741ZM20.654,7.011c.229.395.434.804.607,1.231-.092.222-.238.501-.512.862-.599-.786-.748-1.37-.625-1.719.087-.247.31-.349.53-.374ZM21.419,9.871c.099-.124.17-.241.254-.362.065.251.121.504.167.762-.146-.135-.296-.272-.421-.4ZM12,2c3.325,0,6.267,1.637,8.087,4.141-.419.169-.754.482-.906.912-.212.601-.149,1.52.898,2.82-.072.074-.148.149-.229.226-.478.46-1.229.459-1.708-.006-.078-.075-.151-.149-.223-.222,1.101-1.369,1.108-2.308.874-2.886-.242-.599-.848-.986-1.544-.986s-1.302.387-1.544.986c-.234.578-.227,1.517.874,2.886-.07.073-.145.146-.223.221-.473.457-1.242.457-1.715,0-.077-.075-.151-.149-.223-.222,1.101-1.369,1.108-2.308.874-2.886-.242-.599-.848-.986-1.544-.986s-1.302.387-1.544.986c-.234.578-.227,1.517.874,2.886-.07.073-.145.146-.223.221-.473.457-1.243.458-1.714,0-.078-.075-.152-.149-.223-.222,1.101-1.369,1.108-2.307.874-2.885-.242-.599-.848-.986-1.544-.986s-1.302.387-1.544.986c-.234.578-.227,1.517.874,2.885-.071.073-.145.147-.223.222-.473.457-1.241.457-1.714,0-.078-.075-.152-.149-.223-.222,1.101-1.369,1.108-2.307.874-2.885-.242-.599-.848-.986-1.544-.986s-1.302.387-1.544.986c-.234.578-.227,1.517.874,2.885-.071.073-.145.147-.223.222-.473.456-1.238.459-1.708.006-.082-.079-.159-.156-.232-.231,1.151-1.44,1.083-2.39.87-2.899-.164-.393-.487-.67-.875-.826,1.819-2.505,4.763-4.143,8.088-4.143ZM12,22c-3.819,0-7.142-2.154-8.826-5.309.025-.025.052-.051.076-.075.064.065.131.132.2.198.855.827,2.246.825,3.102-.003.068-.066.134-.131.198-.195.063.064.129.129.198.195.855.828,2.249.828,3.104,0,.068-.066.134-.131.198-.195.063.064.129.129.198.195.854.828,2.248.829,3.105,0,.068-.065.134-.131.197-.195.063.064.129.13.197.195.857.828,2.25.828,3.105,0,.068-.065.134-.131.197-.195.063.064.129.13.197.195.437.422.995.632,1.554.632s1.115-.21,1.549-.629c.069-.066.136-.133.2-.197.024.024.051.049.076.074-1.684,3.155-5.007,5.309-8.826,5.309Z"/>
    </g>
  </g>
</svg>