<?xml version="1.0" encoding="UTF-8"?>
<svg id="Camada_1" data-name="Camada 1" xmlns="http://www.w3.org/2000/svg" width="24" height="24" version="1.1" viewBox="0 0 24 24">
  <path d="M12,1.682C6.311,1.682,1.682,6.311,1.682,12s4.629,10.318,10.318,10.318,10.318-4.629,10.318-10.318S17.689,1.682,12,1.682ZM12.5,21.293v-3.656c0-.276-.224-.5-.5-.5s-.5.224-.5.5v3.656c-4.739-.253-8.54-4.055-8.793-8.793h3.657c.276,0,.5-.224.5-.5s-.224-.5-.5-.5h-3.657C2.96,6.761,6.761,2.96,11.5,2.707v3.657c0,.276.224.5.5.5s.5-.224.5-.5v-3.657c4.738.253,8.54,4.054,8.793,8.793h-3.656c-.276,0-.5.224-.5.5s.224.5.5.5h3.656c-.253,4.738-4.055,8.54-8.793,8.793Z" fill="#363636" stroke-width="0"/>
</svg>