<?xml version="1.0" encoding="UTF-8"?>
<svg id="Camada_1" data-name="Camada 1" xmlns="http://www.w3.org/2000/svg" width="24" height="24" version="1.1" viewBox="0 0 24 24">
  <path d="M6.314,10.719c.256.103.547-.022.65-.279.528-1.32,1.807-2.186,3.228-2.186h.133c2.029,0,3.674,1.645,3.674,3.674v.326c0,.276.224.5.5.5s.5-.224.5-.5v-.326c0-2.353-1.739-4.3-4.002-4.626.001-.016.002-.032.002-.048v-3h3c.263,0,.397.007.526.072.12.06.305.208.526.651.123.247.424.347.671.224.247-.124.347-.424.224-.671-.278-.557-.593-.908-.974-1.099-.357-.178-.71-.178-.948-.178h-5.526c-.276,0-.5.224-.5.5s.224.5.5.5h1.5v3.004c-1.753.075-3.308,1.17-3.964,2.81-.103.256.022.547.279.65Z" fill="#363636" fill-rule="evenodd" stroke-width="0"/>
  <path d="M18.5,11.255c.53,0,1.039-.211,1.414-.586s.586-.884.586-1.414c0-.9-.442-1.752-.834-2.34-.201-.302-.402-.552-.552-.728-.075-.088-.139-.158-.184-.206-.023-.024-.041-.043-.054-.057l-.015-.016-.005-.005-.002-.002h0s-.354-.354-.354-.354l-.354.354h0s-.002.002-.002.002l-.005.005-.015.016c-.013.013-.031.032-.054.057-.045.049-.109.118-.184.206-.15.175-.351.426-.552.728-.392.587-.834,1.44-.834,2.34,0,.53.211,1.039.586,1.414.375.375.884.586,1.414.586ZM18.166,7.47c.115-.173.231-.327.334-.456.103.129.219.283.334.456.358.538.666,1.185.666,1.785,0,.265-.105.52-.293.707-.188.188-.442.293-.707.293s-.52-.105-.707-.293c-.188-.188-.293-.442-.293-.707,0-.6.308-1.248.666-1.785Z" fill="#363636" fill-rule="evenodd" stroke-width="0"/>
  <path d="M21.476,17.215c-.068-.241-.186-.466-.346-.659-.16-.193-.359-.35-.584-.461-1.25-.64-3.37-.15-4.52.2-.077-.355-.263-.677-.532-.921-.269-.244-.607-.397-.968-.439-1.155-.265-2.278-.654-3.35-1.16-1.245-.462-2.602-.536-3.89-.21-.059-.115-.159-.204-.28-.25l-3.85-1.1c-.074-.02-.152-.022-.228-.007-.076.015-.147.046-.208.093-.062.046-.112.106-.147.174-.035.068-.055.144-.057.221v6.16c0,.133.053.26.146.354.094.094.221.146.354.146h2.82c.115,0,.227-.04.316-.113.089-.073.151-.174.174-.287l.08-.37,4.87,1.84c.555.215,1.145.323,1.74.32.642.001,1.277-.125,1.87-.37l6.3-2.61c.103-.046.188-.125.241-.224.053-.1.07-.215.049-.326ZM5.476,18.405h-1.96v-5l2.77.78-.81,4.22ZM14.556,19.495c-.918.386-1.949.404-2.88.05l-5-1.91.62-3c1.159-.349,2.398-.321,3.54.08,1.143.545,2.344.957,3.58,1.23.55.11.75.44.71.72-.04.28-.19.4-.57.36-1.423-.154-2.829-.438-4.2-.85-.063-.029-.132-.044-.201-.044-.069,0-.138.013-.202.04-.064.027-.121.068-.168.118s-.084.11-.107.176c-.023.065-.032.135-.027.204s.025.136.058.198.078.115.132.157c.055.043.117.074.185.091,1.445.442,2.928.747,4.43.91h.2c.223.004.444-.046.644-.145.2-.099.373-.245.506-.425,1-.34,3.31-1,4.35-.45.07.029.134.07.19.12l-5.79,2.37Z" fill="#363636" fill-rule="evenodd" stroke-width="0"/>
</svg>