<svg xmlns="http://www.w3.org/2000/svg" width="24" height="24" viewBox="0 0 24 24">
  <g id="Create-Here">
    <g>
      <rect id="Bounds" width="24" height="24" style="fill: none"/>
      <path d="M6.42,3h4.33a.51.51,0,0,1,.5.5.5.5,0,0,1-.5.5h-.09V5.25a.5.5,0,0,1,.27.16.53.53,0,0,1,.12.4,4.2,4.2,0,0,0,.07,1.82,1,1,0,0,0,.07.15,7.08,7.08,0,0,0-.85.58A2.52,2.52,0,0,0,10.19,8a.08.08,0,0,0,0,0A4.73,4.73,0,0,1,10,6.24H6.57A6.16,6.16,0,0,1,6.31,8l0,0a9.32,9.32,0,0,0-.65,3.64V19.5a.5.5,0,0,0,.5.5h4.3a.5.5,0,0,0,.5-.5V18.06a5,5,0,0,0,1,.52v.92a1.5,1.5,0,0,1-1.5,1.5H6.14a1.5,1.5,0,0,1-1.5-1.5V11.64a10.48,10.48,0,0,1,.72-4,4.29,4.29,0,0,0,.17-1.83.53.53,0,0,1,.12-.4.5.5,0,0,1,.27-.16V4H4.65a.5.5,0,0,1-.5-.5.51.51,0,0,1,.5-.5ZM9.66,4V5.24H6.92V4Zm1.12,7.86a.51.51,0,0,1-.62.35.5.5,0,0,1-.35-.61A4.66,4.66,0,0,1,14.11,8h0a4.34,4.34,0,0,1,3.72,2.25l.18-.5a.5.5,0,1,1,.94.34l-.59,1.63a.52.52,0,0,1-.28.3.53.53,0,0,1-.41,0l-1.48-.74a.5.5,0,0,1,.45-.89l.12.06A3.27,3.27,0,0,0,14.13,9,3.67,3.67,0,0,0,10.78,11.84ZM18.5,13.9a4.63,4.63,0,0,1-4.36,3.94h0a4.53,4.53,0,0,1-3.87-2.45l-.12.3a.5.5,0,0,1-.93-.38l.64-1.58a.51.51,0,0,1,.28-.28.51.51,0,0,1,.4,0l1.42.68a.5.5,0,1,1-.43.91l-.41-.2a3.52,3.52,0,0,0,3,2,3.64,3.64,0,0,0,3.39-3.11.5.5,0,1,1,1,.17Z" style="fill-rule: evenodd"/>
    </g>
  </g>
</svg>
