<svg width="24" height="24" viewBox="0 0 24 24" fill="none" xmlns="http://www.w3.org/2000/svg">
<path d="M19.6538 12.494C19.6498 12.494 9.06976 12.494 5.53376 12.494L12.2138 19.174C12.4058 19.372 12.4058 19.686 12.2138 19.884C12.1178 19.971 11.9938 20.021 11.8638 20.024C11.7308 20.023 11.6028 19.973 11.5038 19.884L3.99376 12.364C3.89276 12.263 3.84376 12.131 3.84576 11.999C3.84376 11.867 3.89276 11.735 3.99376 11.634L11.5038 4.12401C11.6998 3.92701 12.0178 3.92701 12.2138 4.12401C12.4048 4.31801 12.4048 4.63001 12.2138 4.82401L5.56176 11.494H19.6538C19.9298 11.494 20.1538 11.718 20.1538 11.994C20.1538 12.27 19.9298 12.494 19.6538 12.494Z" fill="#363636"/>
</svg>
