<?xml version="1.0" encoding="UTF-8"?>
<svg xmlns="http://www.w3.org/2000/svg" width="24" height="24" version="1.1" viewBox="0 0 24 24">

        <path  d="M17,10c-1.381,0-2.5,1.119-2.5,2.5s1.119,2.5,2.5,2.5,2.5-1.119,2.5-2.5-1.119-2.5-2.5-2.5ZM17,14c-.828,0-1.5-.672-1.5-1.5s.672-1.5,1.5-1.5,1.5.672,1.5,1.5-.672,1.5-1.5,1.5Z"/>
        <path  d="M7,11.5c0-.828-.672-1.5-1.5-1.5s-1.5.672-1.5,1.5.672,1.5,1.5,1.5,1.5-.672,1.5-1.5ZM5.5,12c-.276,0-.5-.224-.5-.5s.224-.5.5-.5.5.224.5.5-.224.5-.5.5Z"/>
        <path  d="M8,15c-.828,0-1.5.672-1.5,1.5s.672,1.5,1.5,1.5,1.5-.672,1.5-1.5-.672-1.5-1.5-1.5ZM8,17c-.276,0-.5-.224-.5-.5s.224-.5.5-.5.5.224.5.5-.224.5-.5.5Z"/>
        <path  d="M13,17c-.828,0-1.5.672-1.5,1.5s.672,1.5,1.5,1.5,1.5-.672,1.5-1.5-.672-1.5-1.5-1.5ZM13,19c-.276,0-.5-.224-.5-.5s.224-.5.5-.5.5.224.5.5-.224.5-.5.5Z"/>
        <path  d="M22.879,10.805c-.268-1.614-1.05-3.311-2.914-4.281-.005-.003-.011-.005-.016-.008-2.54-1.206-4.869-.561-6.687.011-.109.034-.215.068-.318.101-.792.251-1.445.459-2.014.511-.598.055-1.019-.069-1.363-.485-.075-.097-.112-.233-.082-.478.029-.238.11-.499.21-.823l.034-.112c.199-.649.503-1.64-.149-2.454-.43-.63-1.19-.812-1.862-.785-.694.028-1.434.277-1.995.673C2.807,4.71,1,8.066,1,11.821c0,6.192,4.921,11.178,11.057,11.178,5.031,0,9.349-3.458,10.654-8.131l.003-.01.003-.011c.201-.862.429-2.438.162-4.042ZM21.745,14.61c-1.193,4.252-5.126,7.39-9.688,7.39-5.573,0-10.057-4.527-10.057-10.178,0-3.428,1.647-6.478,4.297-8.327l.003-.002c.399-.283.953-.471,1.459-.491.519-.021.853.132,1.002.358.01.015.02.029.032.043.284.345.211.796-.02,1.55l-.034.111c-.095.306-.204.658-.245.991-.048.389-.014.835.293,1.223l.006.008c.615.746,1.405.924,2.229.849.686-.063,1.455-.308,2.225-.553.106-.034.211-.067.316-.1,1.803-.568,3.79-1.087,5.949-.066,1.489.778,2.145,2.136,2.381,3.554.236,1.423.035,2.85-.147,3.641Z"/>

</svg>