<?xml version="1.0" encoding="UTF-8"?>
<svg xmlns="http://www.w3.org/2000/svg" width="24" height="25" version="1.1" viewBox="0 0 24 25">
  <defs>
    <style>
      .cls-1 {
        fill: #363636;
      }
    </style>
  </defs>
  <!-- Generator: Adobe Illustrator 28.7.1, SVG Export Plug-In . SVG Version: 1.2.0 Build 142)  -->
  <g>
    <g id="Camada_1">
      <path class="cls-1" d="M21.5,1.35H5.5c-.276,0-.5.224-.5.5v5c0,.276.224.5.5.5h2.5v3.29l-3.391,3.31c-2.142,2.147-2.142,5.64,0,7.787,1.038,1.04,2.417,1.612,3.885,1.612s2.848-.572,3.887-1.614l6.475-6.533c.093-.093.145-.22.145-.352v-7.5h2.5c.276,0,.5-.224.5-.5V1.85c0-.276-.224-.5-.5-.5ZM18,14.644l-6.329,6.386c-.849.852-1.977,1.319-3.177,1.319s-2.329-.468-3.177-1.319c-1.753-1.757-1.753-4.616-.005-6.369l3.537-3.453c.097-.094.151-.223.151-.358v-3.5h9v7.294ZM21,6.35H6V2.35h15v4Z"/>
    </g>
  </g>
</svg>