<?xml version="1.0" encoding="utf-8"?>
<!-- Generator: Adobe Illustrator 28.4.1, SVG Export Plug-In . SVG Version: 6.00 Build 0)  -->
<svg version="1.0" id="Camada_1" xmlns="http://www.w3.org/2000/svg" xmlns:xlink="http://www.w3.org/1999/xlink" x="0px" y="0px"
	 width="24px" height="24px" viewBox="0 0 24 24" enable-background="new 0 0 24 24" xml:space="preserve">
<path fill-rule="evenodd" clip-rule="evenodd"    d="M22.3,1.6c-0.1-0.1-0.3-0.2-0.4-0.1l0,0l0,0l0,0c0,0-0.1,0-0.1,0
	c-0.1,0-0.2,0-0.4,0.1c-0.3,0.1-0.8,0.2-1.3,0.3C19,2.1,17.5,2.5,15.9,3c-0.2,0.1-0.3,0.2-0.3,0.4l-0.7,3.3l-1.4-2.3
	C13.3,4.1,13,4,12.8,4.1C10.9,4.9,9,5.9,7.7,7.2c-2.4,2.4-2.9,5.1-2.7,7.1c0.1,1,0.3,1.9,0.6,2.5c0.1,0.3,0.2,0.5,0.3,0.6l-4.2,4.2
	c-0.2,0.2-0.2,0.5,0,0.7c0.2,0.2,0.5,0.2,0.7,0l4.3-4.3c0.2,0.1,0.4,0.2,0.6,0.3c0.6,0.2,1.5,0.5,2.5,0.6c2,0.2,4.7-0.2,7.1-2.6
	c2.2-2.2,3.6-5.8,4.5-8.8C21.7,6,22,4.7,22.2,3.7c0.1-0.5,0.2-0.9,0.2-1.2c0-0.1,0-0.2,0-0.3c0,0,0-0.1,0-0.1l0,0l0,0l0,0
	C22.5,1.9,22.5,1.8,22.3,1.6z M7.4,17.3c0.1,0,0.1,0.1,0.2,0.1c0.5,0.2,1.3,0.4,2.2,0.5c1.8,0.2,4.1-0.2,6.3-2.3
	c2-2,3.4-5.4,4.3-8.3c0.4-1.5,0.7-2.8,0.9-3.7c0.1-0.3,0.1-0.6,0.2-0.9c-0.3,0.1-0.7,0.1-1.1,0.2c-1,0.2-2.4,0.6-3.9,1l-0.9,4.2
	c0,0.2-0.2,0.4-0.4,0.4c-0.2,0-0.4-0.1-0.5-0.2l-1.8-3.1C11.1,6,9.5,6.9,8.4,7.9c-2.2,2.2-2.6,4.5-2.4,6.3c0.1,0.9,0.3,1.7,0.5,2.2
	c0,0.1,0.1,0.2,0.1,0.2l6-6c0.2-0.2,0.5-0.2,0.7,0c0.2,0.2,0.2,0.5,0,0.7L7.4,17.3z"/>
</svg>
