<?xml version="1.0" encoding="UTF-8"?>
<svg xmlns="http://www.w3.org/2000/svg" width="24" height="24" version="1.1" viewBox="0 0 24 24">

      <path  d="M21.854,10.146c-.094-.094-.221-.146-.354-.146h-2.023l2.122-3.5c.399-.693.506-1.501.3-2.276-.208-.774-.705-1.421-1.398-1.822-.693-.4-1.502-.507-2.277-.299-.763.205-1.427.714-1.814,1.388l-3.958,6.51H2.5c-.133,0-.26.053-.354.146s-.146.221-.146.354c0,2.119.586,4.195,1.694,6.001,1.053,1.72,2.538,3.129,4.306,4.091v.908c0,.276.224.5.5.5h7c.276,0,.5-.224.5-.5v-.908c1.769-.962,3.253-2.37,4.307-4.09,1.106-1.807,1.692-3.882,1.693-6.002,0-.132-.053-.26-.146-.354ZM17.269,4c.263-.456.705-.795,1.214-.931.513-.137,1.055-.068,1.518.2.463.267.794.698.932,1.214.138.517.067,1.056-.194,1.509l-2.43,4.009h-4.688l3.649-6ZM19.453,15.979c-1.011,1.65-2.456,2.986-4.18,3.865-.168.085-.273.257-.273.445v.71h-6v-.71c0-.188-.105-.36-.273-.445-1.725-.879-3.17-2.216-4.181-3.866-.924-1.507-1.45-3.219-1.534-4.979h17.976c-.085,1.76-.611,3.472-1.535,4.979Z"/>

</svg>