<svg xmlns="http://www.w3.org/2000/svg" width="24" height="24" viewBox="0 0 24 24"><defs><style>.a{opacity:0;}.b{fill-rule:evenodd;}</style></defs><rect class="a" width="24" height="24"/><g transform="translate(2.348 2.598)"><path d="M14.6,2.45A9.085,9.085,0,0,0,3.256,16.494a.479.479,0,0,0,.679-.673,8.128,8.128,0,0,1,9.6-12.9q.263.14.514.3Z" transform="translate(0 0.361)"/><path class="b" d="M12.208,14.4a7.55,7.55,0,0,1-.745.788.479.479,0,0,1-.645-.706,8.14,8.14,0,0,0,.925-1,8.131,8.131,0,0,0,.66-8.649.479.479,0,0,1,.845-.447A9.085,9.085,0,0,1,12.219,14.4Z" transform="translate(4.377 1.725)"/><path d="M14.01.374a.453.453,0,1,1,.719.55L7.04,10.973a.453.453,0,0,1-.719-.55Z" transform="translate(2.438)"/></g></svg>