<?xml version="1.0" encoding="UTF-8"?>
<svg xmlns="http://www.w3.org/2000/svg" width="24" height="24" version="1.1" viewBox="0 0 24 24">
  <defs>
    <style>
      .cls-1 {
        fill: #363636;
        fill-rule: evenodd;
      }
    </style>
  </defs>
  <!-- Generator: Adobe Illustrator 28.6.0, SVG Export Plug-In . SVG Version: 1.2.0 Build 709)  -->
  <g>
    <g id="Camada_1">
      <g>
        <path class="cls-1" d="M13.223,12.057c-.806.422-1.636.427-2.499-.004-.247-.123-.547-.023-.671.224-.124.247-.023.547.224.671,1.137.569,2.307.573,3.41-.004.245-.128.339-.43.211-.675-.128-.245-.43-.339-.675-.211Z"/>
        <path class="cls-1" d="M21.5,2h-.432c-.272,0-.495.218-.5.49-.057,2.948-1.563,5.923-3.571,7.899-.058-1.329-1.154-2.389-2.498-2.389h-5c-1.343,0-2.439,1.06-2.498,2.389-2.007-1.976-3.513-4.951-3.571-7.899-.005-.272-.228-.49-.5-.49h-.432c-.276,0-.5.224-.5.5v8.497c0,1.637.553,2.731,1.167,3.729.005.008.01.016.016.024l4.908,7.036c.094.134.247.214.41.214h6.909c.162,0,.314-.078.408-.211l5.154-7.26c.008-.011.016-.023.023-.035.459-.778,1.006-1.868,1.006-3.498V2.5c0-.276-.224-.5-.5-.5ZM21,10.997c0,1.366-.445,2.271-.857,2.972l-4.992,7.032h-6.39l-4.75-6.81c-.568-.925-1.011-1.829-1.011-3.193v-5.234c.801,2.456,2.368,4.672,4.188,6.128.15.12.356.143.529.06.173-.083.283-.258.283-.451v-1c0-.828.672-1.5,1.5-1.5h5c.828,0,1.5.672,1.5,1.5v1c0,.192.11.367.283.451.173.083.379.06.529-.06,1.82-1.456,3.386-3.672,4.188-6.128v5.234Z"/>
      </g>
    </g>
  </g>
</svg>