<?xml version="1.0" encoding="UTF-8"?>
<svg xmlns="http://www.w3.org/2000/svg" width="24" height="24" version="1.1" viewBox="0 0 24 24">
  <defs>
    <style>
      .cls-1, .cls-2 {
        fill: #363636;
      }

      .cls-2 {
        fill-rule: evenodd;
      }
    </style>
  </defs>
  <!-- Generator: Adobe Illustrator 28.7.1, SVG Export Plug-In . SVG Version: 1.2.0 Build 142)  -->
  <g>
    <g id="Camada_1">
      <g>
        <circle class="cls-1" cx="10.5" cy="7.5" r="1"/>
        <circle class="cls-1" cx="14.5" cy="7.5" r="1"/>
        <path class="cls-2" d="M11.222,9.584c-.082.055-.147.133-.185.225-.038.091-.048.192-.028.289.019.097.067.186.137.256l1,1c.047.047.102.083.162.109.061.025.126.038.192.038s.131-.013.192-.038c.061-.025.116-.062.162-.109l1-1c.07-.07.117-.159.137-.256.019-.097.009-.198-.029-.289-.038-.091-.102-.17-.184-.225-.082-.055-.179-.084-.278-.084h-2c-.099,0-.196.029-.278.084Z"/>
        <path class="cls-2" d="M22,17.499c-.003-1.359-.509-2.668-1.422-3.674-.732-.806-1.682-1.372-2.727-1.634.725-1.049,1.149-2.32,1.149-3.691,0-.957-.207-1.866-.578-2.685.215-.085.418-.2.603-.342.377-.289.663-.68.825-1.126.162-.446.194-.93.091-1.393-.103-.464-.336-.888-.672-1.224-.336-.336-.76-.569-1.224-.672-.464-.103-.947-.071-1.393.091-.446.162-.837.449-1.126.825-.142.185-.257.388-.342.603-.818-.372-1.727-.579-2.685-.579s-1.866.207-2.685.579c-.085-.215-.2-.418-.342-.603-.289-.377-.68-.663-1.126-.825-.446-.162-.93-.194-1.393-.091-.464.103-.888.336-1.224.672s-.569.76-.672,1.224c-.103.464-.071.947.091,1.393.162.446.449.837.825,1.126.185.142.388.257.603.342-.372.818-.579,1.727-.579,2.685,0,1.371.424,2.643,1.149,3.691-1.045.262-1.995.828-2.727,1.634-.913,1.006-1.42,2.316-1.422,3.675,0,.663.263,1.299.732,1.768.349.349.791.585,1.268.682,0,.017,0,.034,0,.05,0,1.657,1.343,3,3,3,1.035,0,1.947-.524,2.487-1.321,1.308.428,2.719.428,4.027,0,.539.797,1.452,1.321,2.487,1.321,1.657,0,3-1.343,3-3,0-.017,0-.034,0-.05.477-.097.919-.333,1.268-.682.469-.469.732-1.106.732-1.769ZM16.32,2.584c.173-.226.407-.397.675-.494.267-.097.557-.116.835-.055.278.062.532.201.733.402.201.201.341.456.402.733.062.278.043.567-.055.835-.097.267-.269.501-.495.675-.146.112-.31.195-.485.247-.487-.739-1.12-1.372-1.859-1.859.052-.175.135-.339.247-.485ZM6.09,4.006c-.097-.267-.116-.557-.055-.835.062-.278.201-.532.402-.733s.456-.341.733-.402c.278-.062.567-.043.835.055.267.097.501.269.675.494.112.146.195.31.247.485-.739.487-1.372,1.12-1.859,1.859-.175-.052-.339-.135-.485-.247-.226-.173-.397-.407-.494-.675ZM7,8.5c0-.984.258-1.907.711-2.706.03-.038.055-.08.073-.125.464-.772,1.113-1.42,1.884-1.884.046-.018.088-.043.126-.074.799-.452,1.722-.711,2.706-.711s1.907.258,2.706.711c.038.03.08.055.126.074.772.464,1.42,1.113,1.884,1.884.018.046.043.088.074.126.452.799.711,1.722.711,2.706,0,1.382-.51,2.645-1.352,3.611-.007.006-.014.011-.02.017-.034.031-.063.065-.086.102-1.005,1.088-2.444,1.77-4.042,1.77s-3.037-.682-4.042-1.77c-.023-.036-.052-.07-.086-.101-.007-.006-.013-.012-.02-.017-.842-.966-1.352-2.229-1.352-3.612ZM5.183,18.966c-.279-.06-.538-.2-.744-.405-.281-.281-.439-.663-.439-1.06.002-1.111.417-2.181,1.163-3.003.461-.508,1.029-.9,1.657-1.151-.351.629-.596,1.315-.722,2.031-.134.763-.13,1.54.009,2.295-.414.337-.736.783-.923,1.293ZM9.842,20.779c-.02.029-.037.061-.051.095-.007.016-.012.033-.017.049-.334.64-1.003,1.077-1.775,1.077-1.105,0-2-.896-2-2s.895-2,2-2,2,.895,2,2c0,.276-.056.54-.158.779ZM14,20c0,.263.034.518.097.762-1.041.318-2.154.318-3.195,0,.064-.243.097-.498.097-.762,0-1.657-1.343-3-3-3-.336,0-.659.055-.961.157-.064-.532-.05-1.073.043-1.606.147-.834.485-1.62.984-2.298,1.161,1.083,2.72,1.747,4.433,1.747s3.272-.663,4.433-1.746c.499.678.837,1.464.984,2.298.094.533.107,1.074.043,1.606-.302-.102-.624-.157-.96-.157-1.657,0-3,1.343-3,3ZM17,22c-.771,0-1.441-.437-1.775-1.077-.005-.017-.01-.033-.017-.049-.014-.034-.031-.066-.051-.095-.101-.24-.157-.503-.157-.779,0-1.105.895-2,2-2s2,.895,2,2-.895,2-2,2ZM20.561,18.56c-.205.205-.464.345-.744.405-.188-.511-.51-.956-.924-1.294.139-.755.143-1.532.009-2.294-.126-.716-.371-1.403-.722-2.032.628.251,1.196.642,1.658,1.151.746.823,1.161,1.893,1.163,3.003,0,.398-.158.779-.439,1.06Z"/>
      </g>
    </g>
  </g>
</svg>