<?xml version="1.0" encoding="utf-8"?>
<!-- Generator: Adobe Illustrator 27.0.1, SVG Export Plug-In . SVG Version: 6.00 Build 0)  -->
<svg version="1.1" id="Layer_1" xmlns="http://www.w3.org/2000/svg" xmlns:xlink="http://www.w3.org/1999/xlink" x="0px" y="0px"
	 width="24px" height="24px" viewBox="0 0 24 24" style="enable-background:new 0 0 24 24;" xml:space="preserve">
<path d="M19.9,8c-0.3-0.1-0.5,0-0.6,0.3c-0.7,2.2-2.4,3.9-4.5,4.7c-1.9,0.7-3.9,0.6-5.7-0.2c-1.9-0.9-3.3-2.5-4-4.5
	C4.9,8.1,4.6,7.9,4.3,8C4.1,8.1,3.9,8.4,4,8.7c0.3,0.9,0.8,1.7,1.3,2.4l-1.1,1.2c-0.2,0.2-0.2,0.5,0,0.7c0.2,0.2,0.5,0.2,0.7,0
	c0,0,0,0,0,0L6,11.9c0.6,0.6,1.3,1.2,2.1,1.6l-0.6,1.4c-0.1,0.3,0,0.6,0.3,0.7c0.1,0,0.1,0,0.2,0c0.2,0,0.4-0.1,0.4-0.3L9,13.9
	c0.4,0.2,0.8,0.3,1.3,0.4l0,0c0.4,0.1,0.9,0.2,1.3,0.2l0,0V16c0,0.3,0.2,0.5,0.4,0.5s0.5-0.2,0.5-0.4c0,0,0-0.1,0-0.1v-1.5
	c0.8,0,1.7-0.2,2.5-0.5c0,0,0.1,0,0.1-0.1l0.5,1.4c0.1,0.2,0.2,0.3,0.4,0.3c0.1,0,0.1,0,0.2,0c0.3-0.1,0.4-0.4,0.3-0.7l-0.6-1.4
	c0.8-0.4,1.5-1,2.1-1.6l1.1,1.1c0.2,0.2,0.5,0.2,0.7,0c0,0,0,0,0,0c0.2-0.2,0.2-0.5,0-0.7l-1.1-1.2c0.6-0.7,1-1.6,1.3-2.4
	C20.3,8.4,20.1,8.1,19.9,8"/>
</svg>
