<?xml version="1.0" encoding="UTF-8"?>
<svg id="Camada_1" xmlns="http://www.w3.org/2000/svg" width="24" height="24" version="1.1" viewBox="0 0 24 24">
  <!-- Generator: Adobe Illustrator 29.2.1, SVG Export Plug-In . SVG Version: 2.1.0 Build 116)  -->
  <path d="M18.056,13.901c2.806-.501,4.945-2.953,4.945-5.901,0-.833-.17-1.643-.506-2.408-.066-.151-.203-.26-.365-.29-.166-.03-.329.021-.446.138l-3.02,3.018-2.121-2.121,3.019-3.019c.117-.117.168-.284.138-.446s-.139-.299-.29-.366c-.765-.335-1.575-.506-2.408-.506-3.309,0-6,2.691-6,6,0,.639.103,1.254.288,1.832l-.395.356-2.894-2.894v-2.793c0-.167-.083-.323-.223-.416l-3-2c-.197-.132-.461-.106-.631.062l-2,2c-.168.168-.195.433-.062.631l2,3c.093.139.249.223.416.223h2.793l2.857,2.857-7.048,6.343c-.685.616-1.076,1.464-1.1,2.386-.024.921.321,1.788.973,2.439.631.631,1.461.975,2.348.975.038,0,.075,0,.113-.002.917-.03,1.79-.442,2.395-1.133l4.56-5.207,5.489,5.463c.566.566,1.319.879,2.121.879s1.555-.312,2.121-.879c.567-.565.88-1.319.879-2.121,0-.801-.312-1.555-.879-2.122l-4.065-3.977ZM3.144,4.563l1.42-1.42,2.437,1.624v2.232h-2.232l-1.624-2.437ZM17.001,3c.44,0,.873.057,1.293.17l-2.812,2.812c-.195.195-.195.512,0,.707l2.828,2.828c.195.196.513.196.708,0l2.812-2.812c.113.42.171.853.171,1.293,0,2.757-2.243,5-5,5s-5-2.243-5-5,2.243-5,5-5ZM7.078,21.206c-.429.49-1.024.771-1.675.793-.652.005-1.262-.221-1.722-.681-.456-.456-.698-1.062-.681-1.706s.29-1.237.77-1.668l7.931-7.138c.54,1.016,1.364,1.857,2.364,2.421l-6.988,7.978ZM21.414,21.414c-.756.756-2.072.756-2.828,0l-5.536-5.51,1.969-2.248c.539.189,1.111.302,1.707.33.011.012.015.028.027.039l2.901,2.8,1.76,1.76c.378.378.586.881.586,1.415s-.208,1.036-.586,1.414Z" fill="#363636"/>
</svg>