<svg xmlns="http://www.w3.org/2000/svg" width="24" height="24" viewBox="0 0 24 24">
  <g id="Create-Here">
    <g>
      <rect id="Bounds" width="24" height="24" style="fill: none"/>
      <path d="M4.94,4a.5.5,0,0,0-.5.5V6.81H4.37a.49.49,0,0,0-.48.38l-.38,1.5h-1a.5.5,0,0,0-.5.5,25,25,0,0,0,.66,6.16,7.1,7.1,0,0,0,1.49,3.2,1.66,1.66,0,0,0,1.16.51H7.65a1.66,1.66,0,0,0,1.16-.51l0,0a5.83,5.83,0,0,0,1-2.49h-1a4.62,4.62,0,0,1-.75,1.83.65.65,0,0,1-.44.2H5.31a.7.7,0,0,1-.46-.22,6.26,6.26,0,0,1-1.22-2.73A23.84,23.84,0,0,1,3,9.69H9.47c0,.11,0,.23,0,.34h1c0-.27,0-.55,0-.84a.5.5,0,0,0-.14-.35A.51.51,0,0,0,10,8.69H9l-.37-1.5a.52.52,0,0,0-.46-.38V4.5a.5.5,0,0,0-.5-.5ZM14.5,18.06V16h1v2h5.56V8.75H15.5V10h-1V8.75a1,1,0,0,1,1-1h.88V6.88h-.44a.5.5,0,0,1-.5-.5V4.5a.5.5,0,0,1,.5-.5h4.68a.5.5,0,0,1,.5.5V6.38a.5.5,0,0,1-.5.5h-.43v.87h.87a1,1,0,0,1,1,1v9.31a1,1,0,0,1-1,1H15.5A1,1,0,0,1,14.5,18.06ZM7.15,6.81H5.44V5H7.15ZM4.54,8.69H8l-.22-.88h-3ZM17.38,6.88h1.81v.87H17.38ZM16.44,5v.88h3.68V5ZM9,13a1,1,0,1,1-1-1A1,1,0,0,1,9,13Zm3,1a1,1,0,1,0-1-1A1,1,0,0,0,12,14Zm4,0a1,1,0,1,0-1-1A1,1,0,0,0,16,14Z" style="fill-rule: evenodd"/>
    </g>
  </g>
</svg>
