<?xml version="1.0" encoding="UTF-8"?>
<svg xmlns="http://www.w3.org/2000/svg" width="24" height="24" version="1.1" viewBox="0 0 24 24">

        <path class="cls-1" d="M11,22H3v-10.955c0-.923.257-1.843.622-2.756.152-.381.298-.807.37-1.197.1-.539.097-1.211.075-1.723-.006-.132-.013-.256-.021-.368h5.909c-.008.112-.015.236-.021.368-.023.512-.025,1.184.075,1.723.072.39.217.816.37,1.197.365.913.622,1.833.622,2.756v1.205l1-.268v-.937c0-1.104-.306-2.159-.693-3.127-.142-.357-.26-.712-.315-1.009-.078-.421-.081-.999-.059-1.497.011-.244.027-.459.04-.613.007-.077.013-.138.017-.18l.005-.047v-.012s.002-.003.002-.003c.016-.142-.029-.284-.123-.39-.095-.107-.231-.167-.373-.167h-.5v-2h2.499c.276,0,.5-.224.5-.5s-.224-.5-.5-.5H3.5c-.276,0-.5.224-.5.5s.224.5.5.5h.5v2h-.5c-.143,0-.278.061-.373.167-.095.106-.14.249-.123.39v.003s.002.012.002.012l.005.047c.004.042.01.103.017.18.013.154.03.369.04.613.022.498.019,1.076-.059,1.497-.055.296-.173.652-.315,1.009-.387.969-.693,2.024-.693,3.127v11.455c0,.276.224.5.5.5h9c.276,0,.5-.224.5-.5v-2.5h-1v2ZM5,2h4v2h-4v-2Z"/>
        <path class="cls-1" d="M17.911,13.299l-1.543-.414c-.267-.071-.541.087-.612.354-.071.267.087.541.354.612l2.732.732c.267.072.541-.087.612-.353l.732-2.732c.071-.267-.087-.541-.354-.612-.267-.071-.541.087-.612.354l-.426,1.589-2.361-4.078c-.089-.154-.254-.249-.433-.249-.178,0-.343.095-.433.249l-1.449,2.5c-.139.239-.057.545.182.683s.545.057.683-.182l1.016-1.753,1.911,3.302Z"/>
        <path class="cls-1" d="M14.164,12.955c-.072-.267-.346-.425-.612-.354l-2.732.732c-.267.071-.425.346-.354.612.071.267.346.425.612.354l1.51-.404-2.521,4.354c-.09.155-.09.345,0,.5.089.155.255.25.433.25h3c.276,0,.5-.224.5-.5s-.224-.5-.5-.5h-2.133l2.128-3.676.435,1.622c.072.267.346.425.612.354s.425-.346.354-.612l-.732-2.732Z"/>
        <path class="cls-1" d="M21.933,18.25l-1.449-2.516c-.138-.239-.443-.322-.683-.184-.239.138-.322.444-.184.683l1.017,1.766h-3.928l1.146-1.146c.195-.195.195-.512,0-.707s-.512-.195-.707,0l-2,2c-.048.048-.084.103-.109.162-.024.058-.037.122-.038.188v.006c0,.067.014.13.038.188.024.059.061.114.109.162l2,2c.195.195.512.195.707,0s.195-.512,0-.707l-1.146-1.146h4.793c.179,0,.344-.095.433-.25.089-.155.089-.345,0-.5Z"/>

</svg>