<?xml version="1.0" encoding="UTF-8"?>
<svg id="Camada_1" data-name="Camada 1" xmlns="http://www.w3.org/2000/svg" width="24" height="24" version="1.1" viewBox="0 0 24 24">
  <path d="M12.007,21.5C4.694,21.5.123,13.583,3.78,7.25,7.436.917,16.578.917,20.234,7.25c.834,1.444,1.273,3.082,1.273,4.75-.006,5.244-4.256,9.494-9.5,9.5ZM12.007,3.5c-6.543,0-10.633,7.083-7.361,12.75,3.271,5.667,11.451,5.667,14.722,0,.746-1.292,1.139-2.758,1.139-4.25-.006-4.692-3.808-8.494-8.5-8.5ZM18.007,12.5H6.007c-.385,0-.625-.417-.433-.75.089-.155.254-.25.433-.25h12c.385,0,.625.417.433.75-.089.155-.254.25-.433.25Z" fill="#363636" stroke-width="0"/>
</svg>