<?xml version="1.0" encoding="utf-8"?>
<!-- Generator: Adobe Illustrator 28.4.1, SVG Export Plug-In . SVG Version: 6.00 Build 0)  -->
<svg version="1.0" id="Camada_1" xmlns="http://www.w3.org/2000/svg" xmlns:xlink="http://www.w3.org/1999/xlink" x="0px" y="0px"
	 width="24px" height="24px" viewBox="0 0 24 24" enable-background="new 0 0 24 24" xml:space="preserve">
<path    d="M6.5,10c0-0.3,0.2-0.5,0.5-0.5h2.5V7c0-0.3,0.2-0.5,0.5-0.5c0.3,0,0.5,0.2,0.5,0.5v2.5H13
	c0.3,0,0.5,0.2,0.5,0.5c0,0.3-0.2,0.5-0.5,0.5h-2.5V13c0,0.3-0.2,0.5-0.5,0.5c-0.3,0-0.5-0.2-0.5-0.5v-2.5H7
	C6.7,10.5,6.5,10.3,6.5,10z"/>
<path fill-rule="evenodd" clip-rule="evenodd"    d="M9.9,17.6c-5.8,0-9.4-6.3-6.5-11.3c2.9-5,10.1-5,13,0
	c0.7,1.1,1,2.4,1,3.8c0,1.9-0.7,3.6-1.8,4.9l5.8,5.7c0.2,0.2,0.2,0.5,0,0.7c-0.1,0.1-0.2,0.1-0.4,0.1c-0.1,0-0.3,0-0.4-0.1l-5.8-5.7
	C13.6,16.8,11.8,17.6,9.9,17.6z M9.9,3.6c-5,0-8.1,5.4-5.6,9.8c2.2,3.8,7.3,4.3,10.2,1.3c0,0,0,0,0.1-0.1c0,0,0,0,0.1,0
	c0.3-0.4,0.6-0.8,0.9-1.2c0.6-1,0.9-2.1,0.9-3.2C16.4,6.5,13.5,3.6,9.9,3.6z"/>
</svg>
