<svg width="80" height="80" viewBox="0 0 80 80" fill="none" xmlns="http://www.w3.org/2000/svg">
<path fill-rule="evenodd" clip-rule="evenodd" d="M66.9046 26.3057C71.377 26.3059 75.0032 29.9319 75.0033 34.4043V74.5029C75.0031 75.331 74.3313 76.0026 73.5033 76.0029H47.1087C47.1022 76.0029 47.0957 76.0021 47.0892 76.002H20.7347C20.7282 76.0021 20.7217 76.0029 20.7152 76.0029H7.51793C6.68957 76.0029 6.01804 75.3313 6.01793 74.5029V61.8135C6.01799 57.3409 9.64393 53.7149 14.1166 53.7149C16.0491 53.7149 17.823 54.3927 19.2152 55.5225V54.707C19.2154 50.2346 22.8413 46.6084 27.3138 46.6084C29.248 46.6085 31.0237 47.2874 32.4164 48.419C32.5213 44.0377 36.1037 40.5178 40.5101 40.5176C42.4425 40.5176 44.2166 41.1956 45.6087 42.3252V41.5108C45.6087 37.0381 49.2347 33.4121 53.7074 33.4121C55.64 33.4122 57.4138 34.09 58.806 35.2197V34.4043C58.8061 29.9317 62.4321 26.3057 66.9046 26.3057ZM14.1166 56.7149C11.3008 56.7149 9.01799 58.9977 9.01793 61.8135V73.0029H19.2152V61.8135C19.2151 58.9978 16.9322 56.715 14.1166 56.7149ZM53.7074 36.4121C50.8916 36.4121 48.6087 38.6949 48.6087 41.5108V73.0029H58.806V41.5108C58.806 38.695 56.5231 36.4122 53.7074 36.4121ZM66.9046 29.3057C64.0889 29.3057 61.8061 31.5886 61.806 34.4043V73.0029H72.0033V34.4043C72.0032 31.5888 69.7202 29.3059 66.9046 29.3057ZM27.3138 49.6084C24.4982 49.6084 22.2155 51.8914 22.2152 54.707V73.002H32.4115V54.669C32.3908 51.8711 30.1165 49.6087 27.3138 49.6084ZM40.5101 43.5176C37.6946 43.5178 35.4117 45.8007 35.4115 48.6162V54.669C35.4115 54.6816 35.4125 54.6943 35.4125 54.707V73.002H45.6087V48.6162C45.6086 45.8006 43.3257 43.5177 40.5101 43.5176Z" fill="#363636"/>
<path d="M5.88512 43.7227C6.64002 43.3815 7.5283 43.7168 7.86949 44.4717C8.18916 45.1793 7.91466 46.0043 7.25719 46.3858L7.12047 46.4561L6.97789 46.5127C6.25709 46.7542 5.45602 46.4146 5.13609 45.707C4.79494 44.9522 5.13035 44.0639 5.88512 43.7227Z" fill="#363636"/>
<path d="M11.4711 41.1485C12.2213 40.7971 13.1148 41.1209 13.4662 41.8711C13.8171 42.6212 13.4936 43.514 12.7435 43.8652L12.7425 43.8662C11.9925 44.2172 11.0998 43.8934 10.7484 43.1436C10.3971 42.3935 10.7202 41.501 11.4701 41.1494L11.4711 41.1485Z" fill="#363636"/>
<path d="M16.9984 38.4912C17.7394 38.1207 18.6406 38.4212 19.0111 39.1621C19.3814 39.9031 19.0811 40.8044 18.3402 41.1748C17.5994 41.5449 16.698 41.2446 16.3275 40.5039C15.9802 39.8093 16.2225 38.9744 16.8646 38.5674L16.9984 38.4912Z" fill="#363636"/>
<path d="M67.0599 4.04006C67.5909 3.91192 68.1501 4.08243 68.5189 4.48537C68.8875 4.88829 69.0079 5.4601 68.8334 5.97756L65.0629 17.1445C64.7979 17.9293 63.9463 18.3508 63.1615 18.086C62.3767 17.8208 61.9551 16.9694 62.2201 16.1846L64.2962 10.0322C63.8837 10.3863 63.3633 10.8337 62.7504 11.3545C61.1146 12.7443 58.8247 14.6697 56.2064 16.8106C50.9822 21.0822 44.4052 26.2511 39.1087 29.7363C34.8459 32.5415 29.5108 35.4897 24.4486 38.1065C23.7129 38.4865 22.8086 38.1984 22.4281 37.4629C22.0477 36.727 22.3358 35.8219 23.0716 35.4414C28.0993 32.8425 33.327 29.9504 37.4603 27.2305C42.6185 23.8362 49.0935 18.7511 54.307 14.4883C56.9075 12.362 59.183 10.449 60.808 9.06838C61.0587 8.85537 61.2925 8.65323 61.5111 8.46681L54.5677 10.1465C53.7625 10.3412 52.9519 9.84626 52.7572 9.04103C52.5625 8.23582 53.0575 7.42517 53.8627 7.23049L67.0599 4.04006Z" fill="#363636"/>
</svg>
