<svg width="80" height="80" viewBox="0 0 80 80" fill="none" xmlns="http://www.w3.org/2000/svg">
<path d="M15.1236 69.5513C15.8958 69.2513 16.765 69.6346 17.065 70.4067C17.3649 71.1789 16.9825 72.0481 16.2105 72.3482C15.4384 72.6479 14.5681 72.2648 14.2681 71.4927C13.9686 70.7207 14.3517 69.8513 15.1236 69.5513Z" fill="#363636"/>
<path d="M62.9556 70.4067C63.2556 69.6346 64.1249 69.2515 64.897 69.5513C65.6691 69.8512 66.0522 70.7206 65.7525 71.4927C65.4525 72.2649 64.5833 72.6481 63.8111 72.3482C63.0393 72.048 62.6558 71.1788 62.9556 70.4067Z" fill="#363636"/>
<path d="M22.9595 66.5073C23.7317 66.2074 24.6019 66.5907 24.9019 67.3628C25.2017 68.135 24.8186 69.0043 24.0465 69.3042C23.2744 69.6037 22.4049 69.2207 22.1051 68.4487C21.8054 67.6767 22.1876 66.8073 22.9595 66.5073Z" fill="#363636"/>
<path d="M55.1187 67.3628C55.4187 66.5907 56.2889 66.2075 57.0611 66.5073C57.8333 66.8073 58.2154 67.6766 57.9156 68.4487C57.6157 69.2208 56.7473 69.6039 55.9752 69.3042C55.2032 69.0042 54.819 68.1349 55.1187 67.3628Z" fill="#363636"/>
<path fill-rule="evenodd" clip-rule="evenodd" d="M50.6617 7.55323L56.2261 7.92628L56.5718 7.95753C58.1769 8.13905 59.664 8.83135 60.8052 9.94679L61.0445 10.1919L61.0465 10.1939C62.2179 11.4605 62.8482 13.0804 62.8082 14.7778L62.7916 15.1187L62.401 20.2173C62.5646 19.8655 62.7622 19.5255 62.9947 19.2026C63.9915 17.819 65.4917 16.9025 67.1832 16.5933H67.1851L72.1685 15.6919L72.3179 15.6733C73.0639 15.6141 73.7505 16.1194 73.9039 16.8677L74.8638 21.5464L74.9195 21.8589C75.1557 23.4224 74.7703 24.9944 73.8326 26.2964C72.8358 27.6801 71.3357 28.5966 69.6441 28.9058H69.6412L64.9029 29.7622C64.982 30.624 65.0085 31.5172 64.9654 32.4321C65.0261 32.3783 65.0871 32.3247 65.15 32.273C66.4437 31.2087 68.0487 30.7222 69.6763 30.9399L70.0025 30.9927L74.7847 31.9116C75.5718 32.0629 76.1006 32.8059 75.9859 33.5991L75.1881 39.1001C74.9268 40.9026 74.0607 42.5417 72.691 43.6685C71.3972 44.7325 69.7922 45.2184 68.1646 45.0005L67.8385 44.9478L63.0562 44.0298C62.4577 43.9146 62.0096 43.4567 61.8795 42.895C61.6497 43.3176 61.4081 43.7331 61.1578 44.1431C62.6382 44.3533 63.9817 45.1027 65.0015 46.2554L68.522 50.2358C69.0303 50.8107 69.0227 51.6767 68.5045 52.2427L64.9234 56.1538C63.6978 57.4925 62.0315 58.258 60.2398 58.2437C58.556 58.23 56.9977 57.5257 55.8189 56.3179L55.5885 56.0698L53.0933 53.2485C52.6051 53.6586 52.1105 54.0615 51.608 54.4536C48.8866 56.5771 45.9448 58.462 42.9937 60.1509C45.3896 61.3715 47.7336 62.4825 49.9156 63.5024C50.6661 63.8533 50.99 64.7461 50.6392 65.4966C50.2884 66.2469 49.3965 66.5708 48.6461 66.2202C45.9394 64.955 42.9202 63.5264 39.8306 61.8921C36.7413 63.5262 33.7226 64.9551 31.0162 66.2202C30.2658 66.5708 29.3738 66.2469 29.023 65.4966C28.6722 64.7461 28.9962 63.8533 29.7467 63.5024C31.9284 62.4826 34.2719 61.3713 36.6676 60.1509C33.7167 58.4621 30.7755 56.577 28.0543 54.4536C27.4183 53.9573 26.7928 53.4465 26.1802 52.9214L23.398 56.0698C22.1958 57.4287 20.5426 58.2292 18.7467 58.2437C17.0667 58.2572 15.497 57.5852 14.2974 56.398L14.0631 56.1538L10.481 52.2427C9.96292 51.6768 9.95547 50.8107 10.4635 50.2358L13.984 46.2554C15.1491 44.9383 16.7375 44.1473 18.4693 44.0864C18.3032 43.8129 18.142 43.5364 17.9849 43.2573C17.7791 43.6459 17.407 43.9408 16.9439 44.0298L12.1617 44.9478L11.8355 45.0005C10.208 45.2183 8.60285 44.7325 7.30915 43.6685C5.93972 42.5417 5.0733 40.9024 4.81208 39.1001L4.01423 33.5991C3.8996 32.8061 4.42855 32.063 5.21541 31.9116L9.99763 30.9937L10.3238 30.9399C11.8841 30.7311 13.4227 31.171 14.6871 32.145C14.6611 31.3185 14.6873 30.5107 14.7603 29.729L9.77986 28.9107L9.77693 28.9097C7.98996 28.6128 6.37363 27.7291 5.28181 26.3511C4.17996 24.9603 3.75186 23.2301 4.13728 21.5171L5.19294 16.8384L5.23201 16.6968C5.4609 16.0035 6.1644 15.5675 6.899 15.688L12.3795 16.5894H12.3824C14.1695 16.8862 15.7856 17.7699 16.8775 19.148C17.1691 19.516 17.4124 19.9081 17.607 20.3169L17.2095 15.1187C17.071 13.2984 17.7053 11.545 18.9547 10.1939L18.9576 10.1899C20.2057 8.84917 21.9203 8.05101 23.7769 7.92725L29.3404 7.55323L29.4927 7.55128C30.2476 7.57688 30.8773 8.16693 30.9361 8.93604L31.3345 14.1441C31.4729 15.9639 30.8394 17.7179 29.5904 19.0689L29.5865 19.0728C28.3383 20.4137 26.623 21.2118 24.7662 21.3355L24.7672 21.3364L20.4342 21.6265C20.3685 21.7432 20.2951 21.876 20.2164 22.0239C19.8645 22.6858 19.4019 23.6453 18.9674 24.8169C18.8452 25.1462 18.7264 25.4906 18.6129 25.8482C18.7989 25.7507 18.9912 25.6631 19.189 25.5855L23.4986 23.8901C23.8878 23.737 24.3241 23.7533 24.7008 23.9351C25.0772 24.117 25.3609 24.4483 25.483 24.8482L26.9761 29.7466C27.4752 31.3888 27.3844 33.1582 26.7115 34.7339L26.7105 34.7368C26.0342 36.3116 24.8292 37.5625 23.2652 38.1763L23.2662 38.1773L19.5269 39.648C20.3768 41.5777 21.4831 43.3856 22.7886 45.0855C22.9566 43.6578 23.5773 42.3327 24.5767 41.2896L24.8111 41.0571L28.5201 37.5425C28.8087 37.2689 29.1948 37.1198 29.5924 37.1304C29.9899 37.1411 30.3676 37.3106 30.6412 37.5991L34.1578 41.3101L34.1588 41.311C35.3696 42.5913 36.0133 44.2725 35.9664 46.0366V46.0405C35.9155 47.8033 35.1831 49.4507 33.901 50.6636L31.2906 53.1372C34.0083 55.1243 36.9205 56.8929 39.8306 58.4849C42.6629 56.9356 45.497 55.2189 48.1519 53.2964L45.3736 50.6636C44.0914 49.4506 43.359 47.8025 43.3082 46.0396V45.7075C43.3445 44.0644 43.9806 42.5114 45.1158 41.311L45.1177 41.3091L48.6343 37.5982C48.9079 37.3097 49.2848 37.1411 49.6822 37.1304C50.0799 37.1197 50.4657 37.2688 50.7545 37.5425L54.4644 41.0571L54.6988 41.2896C55.7694 42.407 56.4037 43.848 56.5142 45.3921C56.6054 45.3216 56.6984 45.2542 56.7926 45.189C58.1385 43.4519 59.2765 41.6017 60.1451 39.6235L56.1119 38.1948L56.1109 38.1958C54.4469 37.6082 53.1137 36.3886 52.3511 34.7905L52.3492 34.7876C51.5903 33.1878 51.4854 31.3796 52.0513 29.7036L53.7105 24.8042C53.8394 24.4243 54.1153 24.1113 54.4761 23.936C54.792 23.7827 55.1508 23.7458 55.4888 23.8286L55.6324 23.8716L60.4215 25.5679C60.6332 25.6427 60.8401 25.728 61.0406 25.8228C60.9295 25.4743 60.8141 25.1383 60.6949 24.8169C60.2604 23.6453 59.7978 22.6858 59.4459 22.0239C59.3618 21.8659 59.2835 21.7254 59.2144 21.603L55.232 21.3364C53.3756 21.2127 51.6596 20.4136 50.4136 19.0708L50.4117 19.0689C49.1624 17.7179 48.5282 15.965 48.6666 14.145L49.065 8.93604L49.0845 8.78468C49.2174 8.04097 49.8919 7.50164 50.6617 7.55323ZM18.6588 47.0816C17.7712 47.0888 16.9086 47.4777 16.231 48.2437L16.2301 48.2427L13.6051 51.2114L16.275 54.1274L16.276 54.1284C16.9624 54.878 17.8308 55.2508 18.7222 55.2437C19.6097 55.2365 20.4724 54.8481 21.15 54.0825L23.776 51.1128L21.106 48.1978C20.4194 47.4477 19.5505 47.0744 18.6588 47.0816ZM60.3267 47.0816C59.8101 47.0775 59.3016 47.2011 58.8316 47.4517C57.7587 48.7915 56.5806 50.0542 55.3297 51.2485L57.8355 54.0825L57.9644 54.2212C58.6207 54.895 59.4312 55.2368 60.2633 55.2437C61.1548 55.2508 62.024 54.8781 62.7105 54.1284L65.3804 51.2114L62.7545 48.2427C62.0769 47.477 61.2142 47.0887 60.3267 47.0816ZM26.8736 43.2358L26.8717 43.2368C26.1712 43.8996 25.7719 44.7927 25.7437 45.7671C25.7187 46.7365 26.0682 47.6471 26.732 48.3491L29.2154 50.9702L31.8385 48.4858L31.9664 48.3579C32.5873 47.7108 32.9402 46.8702 32.9674 45.9575C32.9932 44.9869 32.6438 44.0754 31.9791 43.3726L29.4947 40.7515L26.8736 43.2358ZM47.2965 43.3716C46.6316 44.0744 46.2823 44.9868 46.3082 45.9575C46.3372 46.9309 46.7362 47.8228 47.4361 48.4849L50.0592 50.9702L52.5435 48.3491C53.2076 47.647 53.5559 46.7367 53.5308 45.7671C53.5026 44.7926 53.1034 43.8996 52.4029 43.2368L52.401 43.2358L49.7808 40.7515L47.2965 43.3716ZM12.9449 34.5894C12.216 33.9899 11.3771 33.7837 10.5621 33.9399L7.18904 34.5864L7.78083 38.6694C7.94521 39.804 8.47529 40.7428 9.21443 41.3511C9.94316 41.9506 10.7813 42.1575 11.5963 42.0015L14.9713 41.353L14.3785 37.271C14.214 36.1365 13.6841 35.1976 12.9449 34.5894ZM69.4381 33.9399C68.623 33.7838 67.7841 33.9898 67.0552 34.5894C66.316 35.1976 65.7861 36.1365 65.6217 37.271L65.0289 41.353L68.4039 42.0015C69.2189 42.1576 70.0569 41.9506 70.7857 41.3511C71.5251 40.7428 72.0549 39.8041 72.2193 38.6694L72.8111 34.5864L69.4381 33.9399ZM54.8931 30.6646C54.5762 31.604 54.6355 32.6062 55.0601 33.5015C55.4885 34.3975 56.2167 35.0512 57.1099 35.3667L57.1109 35.3677L60.4674 36.5562L61.6383 33.0991C61.9554 32.1593 61.8963 31.1569 61.4713 30.2612L61.4722 30.2603C61.0437 29.3647 60.3145 28.7113 59.4215 28.396L56.065 27.2066L54.8931 30.6646ZM20.2867 28.3774L20.2847 28.3784C19.5466 28.6681 18.8959 29.29 18.5006 30.2105C18.109 31.1292 18.0532 32.1698 18.3482 33.1421L19.3677 36.4868L22.1676 35.3853H22.1695C22.9078 35.0956 23.5582 34.4739 23.9537 33.5532C24.3455 32.6341 24.4014 31.5933 24.106 30.6206L23.0855 27.2749L20.2867 28.3774ZM7.06404 22.1773C6.88816 22.9599 7.0648 23.7701 7.63337 24.4878C8.21177 25.2178 9.12996 25.7603 10.2652 25.9497L14.3511 26.6216L15.0953 23.3218C15.2712 22.539 15.0947 21.729 14.526 21.0112C13.947 20.2805 13.0279 19.7382 11.8912 19.5493L7.8072 18.8774L7.06404 22.1773ZM67.7193 19.5454L67.7183 19.5444C66.7537 19.7217 65.9497 20.2327 65.4283 20.9566C64.91 21.6765 64.732 22.5205 64.9019 23.3511L65.566 26.5933L69.107 25.9536C70.072 25.7766 70.8764 25.2665 71.398 24.5425C71.9163 23.8228 72.094 22.9794 71.9244 22.1489L71.2594 18.9048L67.7193 19.5454ZM23.9781 10.9194L23.9771 10.9204C22.8587 10.9949 21.8657 11.4694 21.1539 12.2339C20.4524 12.9943 20.128 13.9329 20.2008 14.8901L20.4849 18.6167L24.567 18.3433L24.776 18.3247C25.8091 18.2083 26.7239 17.7456 27.3912 17.0288C28.0484 16.3162 28.3737 15.4465 28.3521 14.5523L28.3433 14.3726L28.0582 10.646L23.9781 10.9194ZM51.6578 14.3726C51.585 15.3302 51.9093 16.2701 52.6119 17.0308C53.3194 17.7932 54.3127 18.2688 55.4322 18.3433L59.5152 18.6167L59.8004 14.8901L59.8092 14.7114C59.8311 13.8155 59.5042 12.9446 58.8443 12.231C58.1373 11.47 57.142 10.9948 56.026 10.9204L51.942 10.646L51.6578 14.3726Z" fill="#363636"/>
</svg>
