<svg width="80" height="80" viewBox="0 0 80 80" fill="none" xmlns="http://www.w3.org/2000/svg">
<path fill-rule="evenodd" clip-rule="evenodd" d="M39.6338 7.04634C39.9312 6.97144 40.2456 6.98915 40.5342 7.09908L51.0342 11.0991L51.1787 11.1626C51.3195 11.234 51.4484 11.3278 51.5605 11.4399L58.5605 18.4399L58.6367 18.5219C58.8061 18.7188 58.9227 18.9572 58.9727 19.2133L62.9727 39.7133C63.01 39.9051 63.009 40.1028 62.9707 40.2944L58.9707 60.2944C58.916 60.5674 58.7866 60.8204 58.5967 61.0239L52.2568 67.8149C52.1615 67.9623 52.041 68.0944 51.8955 68.2026L51.5967 68.5239C51.4406 68.6911 51.2479 68.8203 51.0342 68.9018L40.5342 72.9018C40.2044 73.0274 39.8401 73.0333 39.5068 72.9174L28.0068 68.9174C27.7404 68.8247 27.5055 68.6581 27.3291 68.4379L21.3291 60.9379C21.1794 60.7508 21.0764 60.5294 21.0293 60.2944L17.0293 40.2944C16.991 40.1028 16.99 39.9051 17.0273 39.7133L21.0273 19.2133L21.0771 19.0258C21.1383 18.8425 21.2348 18.6715 21.3613 18.5239L27.3613 11.5239L27.5 11.3823C27.6471 11.2507 27.8193 11.1488 28.0068 11.0835L39.5068 7.08345L39.6338 7.04634ZM30.7871 66.7075L36.3242 68.6333L32.3311 63.3618L30.7871 66.7075ZM40.0225 68.5463L45.1797 62.0004H35.0635L40.0225 68.5463ZM43.9736 68.3803L49.085 66.4331L47.7637 63.5698L43.9736 68.3803ZM24.8828 60.5786L28.3252 64.8813L30.2773 60.6508L27.6729 57.2133L24.8828 60.5786ZM49.8477 60.9243L51.415 64.3188L55.2334 60.228L52.7373 57.2563L49.8477 60.9243ZM29.6406 54.8413L32.791 59.0004H47.5439L50.7666 54.9077L40.1104 42.2153L29.6406 54.8413ZM23.5303 57.5102L25.8711 54.6879L21.4619 47.1665L23.5303 57.5102ZM54.5654 54.767L56.5439 57.1245L58.4092 47.7993L54.5654 54.767ZM29 50.9155L38.1504 39.8803L29 28.9799V50.9155ZM42.0566 39.8676L51 50.52V29.0844L42.0566 39.8676ZM54 49.5805L59.2734 40.0219L54 31.0258V49.5805ZM20.7383 40.0004L26 48.9751V31.0239L20.7383 40.0004ZM29.6719 25.1157L40.0967 37.5327L50.3594 25.1586L47.209 21.0004H32.791L29.6719 25.1157ZM21.4082 32.9253L25.8916 25.2778L23.4639 22.3862L21.4082 32.9253ZM54.1279 25.312L58.5898 32.9233L56.5371 22.4067L54.1279 25.312ZM49.7217 19.3491L52.3262 22.7866L55.2002 19.3217L51.46 15.5815L49.7217 19.3491ZM24.7188 19.2153L27.6943 22.7592L30.2773 19.3491L28.292 15.0473L24.7188 19.2153ZM35.0635 18.0004H44.9365L40 11.4838L35.0635 18.0004ZM30.7871 13.2924L32.3311 16.6381L36.3252 11.3657L30.7871 13.2924ZM47.668 16.6381L49.0859 13.5659L43.8203 11.56L47.668 16.6381Z" fill="#363636"/>
<path d="M15.5 55.0004C16.3284 55.0004 17 55.672 17 56.5004C16.9998 57.3287 16.3283 58.0004 15.5 58.0004C14.6717 58.0004 14.0002 57.3287 14 56.5004C14 55.672 14.6716 55.0004 15.5 55.0004Z" fill="#363636"/>
<path d="M64.5 55.0004C65.3284 55.0004 66 55.672 66 56.5004C65.9998 57.3287 65.3283 58.0004 64.5 58.0004C63.6717 58.0004 63.0002 57.3287 63 56.5004C63 55.672 63.6716 55.0004 64.5 55.0004Z" fill="#363636"/>
<path d="M12.3291 49.6586C13.0701 49.2882 13.9713 49.5886 14.3418 50.3295C14.712 51.0704 14.4117 51.9718 13.6709 52.3422L7.6709 55.3422C6.93008 55.7125 6.02877 55.412 5.6582 54.6713C5.28775 53.9304 5.58825 53.0292 6.3291 52.6586L12.3291 49.6586Z" fill="#363636"/>
<path d="M65.6582 50.3295C66.0287 49.5886 66.9299 49.2882 67.6709 49.6586L73.6709 52.6586C74.4117 53.0292 74.7122 53.9304 74.3418 54.6713C73.9712 55.412 73.0699 55.7125 72.3291 55.3422L66.3291 52.3422C65.5882 51.9718 65.288 51.0705 65.6582 50.3295Z" fill="#363636"/>
<path d="M11.5 44.0004C12.3284 44.0004 13 44.672 13 45.5004C12.9998 46.3287 12.3283 47.0004 11.5 47.0004C10.6717 47.0004 10.0002 46.3287 10 45.5004C10 44.672 10.6716 44.0004 11.5 44.0004Z" fill="#363636"/>
<path d="M68.5 44.0004C69.3284 44.0004 70 44.672 70 45.5004C69.9998 46.3287 69.3283 47.0004 68.5 47.0004C67.6717 47.0004 67.0002 46.3287 67 45.5004C67 44.672 67.6716 44.0004 68.5 44.0004Z" fill="#363636"/>
<path d="M12.5 38.5004C13.3284 38.5004 14 39.172 14 40.0004C13.9998 40.8287 13.3283 41.5004 12.5 41.5004H5.5C4.67172 41.5004 4.00024 40.8287 4 40.0004C4 39.172 4.67157 38.5004 5.5 38.5004H12.5Z" fill="#363636"/>
<path d="M74.5 38.5004C75.3284 38.5004 76 39.172 76 40.0004C75.9998 40.8287 75.3283 41.5004 74.5 41.5004H67.5C66.6717 41.5004 66.0002 40.8287 66 40.0004C66 39.172 66.6716 38.5004 67.5 38.5004H74.5Z" fill="#363636"/>
<path d="M11.5 33.0004C12.3284 33.0004 13 33.672 13 34.5004C12.9998 35.3287 12.3283 36.0004 11.5 36.0004C10.6717 36.0004 10.0002 35.3287 10 34.5004C10 33.672 10.6716 33.0004 11.5 33.0004Z" fill="#363636"/>
<path d="M68.5 33.0004C69.3284 33.0004 70 33.672 70 34.5004C69.9998 35.3287 69.3283 36.0004 68.5 36.0004C67.6717 36.0004 67.0002 35.3287 67 34.5004C67 33.672 67.6716 33.0004 68.5 33.0004Z" fill="#363636"/>
<path d="M5.6582 25.3295C6.02869 24.5886 6.92993 24.2882 7.6709 24.6586L13.6709 27.6586C14.4117 28.0292 14.7122 28.9304 14.3418 29.6713C13.9712 30.412 13.0699 30.7125 12.3291 30.3422L6.3291 27.3422C5.58825 26.9718 5.28799 26.0704 5.6582 25.3295Z" fill="#363636"/>
<path d="M72.3291 24.6586C73.0701 24.2882 73.9713 24.5886 74.3418 25.3295C74.712 26.0704 74.4117 26.9718 73.6709 27.3422L67.6709 30.3422C66.9301 30.7125 66.0288 30.412 65.6582 29.6713C65.2877 28.9304 65.5883 28.0292 66.3291 27.6586L72.3291 24.6586Z" fill="#363636"/>
<path d="M15.5 22.0004C16.3284 22.0004 17 22.672 17 23.5004C16.9998 24.3287 16.3283 25.0004 15.5 25.0004C14.6717 25.0004 14.0002 24.3287 14 23.5004C14 22.672 14.6716 22.0004 15.5 22.0004Z" fill="#363636"/>
<path d="M64.5 22.0004C65.3284 22.0004 66 22.672 66 23.5004C65.9998 24.3287 65.3283 25.0004 64.5 25.0004C63.6717 25.0004 63.0002 24.3287 63 23.5004C63 22.672 63.6716 22.0004 64.5 22.0004Z" fill="#363636"/>
</svg>
