<svg width="80" height="80" viewBox="0 0 80 80" fill="none" xmlns="http://www.w3.org/2000/svg">
<path d="M32.4998 34C33.3282 34 33.9998 34.6716 33.9998 35.5C33.9998 36.3284 33.3282 37 32.4998 37C31.6714 36.9999 30.9998 36.3284 30.9998 35.5C30.9998 34.6716 31.6714 34.0001 32.4998 34Z" fill="#363636"/>
<path d="M32.4998 29C33.3282 29 33.9998 29.6716 33.9998 30.5C33.9998 31.3284 33.3282 32 32.4998 32C31.6714 31.9999 30.9998 31.3284 30.9998 30.5C30.9998 29.6716 31.6714 29.0001 32.4998 29Z" fill="#363636"/>
<path fill-rule="evenodd" clip-rule="evenodd" d="M40.0271 4.00098C40.0447 4.00138 40.0623 4.0019 40.0799 4.00293C40.0968 4.00393 40.1138 4.00526 40.1306 4.00684C40.1447 4.00815 40.1587 4.01001 40.1726 4.01172C40.1909 4.01394 40.2091 4.01662 40.2273 4.01953C40.2453 4.02239 40.2632 4.02482 40.281 4.02832C40.2902 4.03012 40.2993 4.03221 40.3084 4.03418C40.3292 4.0387 40.3501 4.04338 40.3709 4.04883C40.3872 4.0531 40.4035 4.05768 40.4197 4.0625C40.4364 4.06746 40.453 4.07259 40.4695 4.07812C40.4803 4.08177 40.491 4.08594 40.5017 4.08984C40.5181 4.09577 40.5344 4.10191 40.5506 4.1084C40.568 4.1154 40.5851 4.12321 40.6023 4.13086C40.6107 4.1346 40.6194 4.1377 40.6277 4.1416C40.6347 4.14485 40.6414 4.149 40.6482 4.15234C40.6609 4.15853 40.6738 4.16436 40.6863 4.1709C40.7056 4.18094 40.7241 4.19224 40.743 4.20312C40.7543 4.20971 40.766 4.21581 40.7771 4.22266C40.7886 4.2297 40.8 4.23678 40.8113 4.24414C40.8317 4.25739 40.8511 4.27187 40.8709 4.28613C40.8804 4.29298 40.8899 4.2996 40.8992 4.30664C40.9092 4.31424 40.9197 4.32124 40.9295 4.3291C40.9399 4.33745 40.9495 4.34682 40.9597 4.35547C40.982 4.3743 41.0042 4.39312 41.0252 4.41309C41.034 4.42149 41.0429 4.42984 41.0515 4.43848L57.5437 20.4229C57.5468 20.4259 57.5494 20.4296 57.5525 20.4326C57.5606 20.4405 57.5681 20.4489 57.576 20.457C57.6033 20.4853 57.6301 20.5138 57.6551 20.5439C57.8094 20.7302 57.9196 20.9541 57.9695 21.2002C57.9895 21.2981 57.9998 21.3985 57.9998 21.5V42.5C57.9998 43.3284 57.3282 44 56.4998 44C55.6715 43.9999 54.9998 43.3284 54.9998 42.5V23H49.9998V57H54.9998V52.5C54.9998 51.6716 55.6715 51.0001 56.4998 51C57.3282 51 57.9998 51.6716 57.9998 52.5V58.5C57.9998 58.8139 57.9029 59.1048 57.7381 59.3457C57.6946 59.4093 57.6449 59.4686 57.5916 59.5254C57.5786 59.5392 57.566 59.5531 57.5525 59.5664C57.5493 59.5696 57.547 59.574 57.5437 59.5771L41.0515 75.5605C41.0429 75.5692 41.034 75.5775 41.0252 75.5859C41.007 75.6032 40.9877 75.6193 40.9685 75.6357C40.9554 75.647 40.943 75.6591 40.9295 75.6699C40.9216 75.6762 40.913 75.6814 40.9051 75.6875C40.8901 75.699 40.8746 75.7097 40.8592 75.7207C40.8431 75.7321 40.8277 75.7442 40.8113 75.7549C40.8016 75.7612 40.7918 75.7673 40.782 75.7734C40.7652 75.7838 40.7476 75.7929 40.7303 75.8027C40.7155 75.8111 40.7013 75.8203 40.6863 75.8281C40.6761 75.8335 40.6654 75.8377 40.6551 75.8428C40.6457 75.8474 40.6372 75.854 40.6277 75.8584C40.6172 75.8633 40.606 75.8665 40.5955 75.8711C40.5805 75.8777 40.5657 75.8845 40.5506 75.8906C40.5386 75.8954 40.5265 75.8998 40.5144 75.9043C40.4963 75.9111 40.478 75.9168 40.4597 75.9229C40.4463 75.9273 40.4332 75.9325 40.4197 75.9365C40.4052 75.9409 40.3904 75.9444 40.3758 75.9482C40.3517 75.9547 40.3277 75.9607 40.3035 75.9658C40.296 75.9674 40.2886 75.9692 40.281 75.9707C40.2661 75.9736 40.2511 75.976 40.2361 75.9785C40.2133 75.9823 40.1906 75.9856 40.1678 75.9883C40.1554 75.9898 40.143 75.991 40.1306 75.9922C40.1167 75.9935 40.1027 75.9942 40.0887 75.9951C40.0665 75.9965 40.0444 75.9976 40.0222 75.998C40.0105 75.9983 39.9988 75.9991 39.9871 75.999C39.9807 75.999 39.974 76.0001 39.9676 76C39.9545 75.9998 39.9415 75.9976 39.9285 75.9971C39.9145 75.9965 39.9005 75.9961 39.8865 75.9951C39.8712 75.994 39.8559 75.9928 39.8406 75.9912C39.8233 75.9894 39.8061 75.9867 39.7888 75.9844C39.7705 75.9818 39.7524 75.9788 39.7342 75.9756C39.7211 75.9733 39.7081 75.9714 39.6951 75.9688C39.6794 75.9656 39.6638 75.9617 39.6482 75.958C39.6315 75.9541 39.615 75.9498 39.5984 75.9453C39.5803 75.9403 39.5618 75.9363 39.5437 75.9307C39.5335 75.9275 39.5236 75.9233 39.5135 75.9199C39.4941 75.9134 39.4749 75.9067 39.4558 75.8994C39.4392 75.893 39.4225 75.8869 39.406 75.8799C39.3945 75.875 39.3833 75.8695 39.3719 75.8643C39.3508 75.8547 39.33 75.8445 39.3094 75.834C39.3024 75.8304 39.2948 75.8279 39.2879 75.8242C39.2841 75.8222 39.2808 75.8194 39.2771 75.8174C39.2666 75.8117 39.2563 75.8058 39.2459 75.7998C39.2233 75.7869 39.2014 75.7729 39.1795 75.7588C39.1701 75.7528 39.1603 75.7474 39.1512 75.7412C39.1392 75.7331 39.1277 75.7243 39.116 75.7158C39.1015 75.7054 39.0872 75.6946 39.073 75.6836C39.0692 75.6806 39.0651 75.6778 39.0613 75.6748C39.05 75.6659 39.0381 75.6577 39.0271 75.6484C39.0165 75.6395 39.0062 75.6303 38.9959 75.6211C38.9888 75.6148 38.9823 75.608 38.9754 75.6016C38.9545 75.5823 38.9335 75.5633 38.9138 75.543L23.4226 59.543C23.4165 59.5367 23.411 59.5298 23.4051 59.5234C23.3143 59.4264 23.2362 59.3177 23.1736 59.1992C23.1627 59.1785 23.1533 59.157 23.1433 59.1357C23.0728 58.9856 23.0238 58.8228 23.0066 58.6504C23.0016 58.6007 22.9998 58.5504 22.9998 58.5V21.5C22.9998 21.4026 23.0096 21.3062 23.0281 21.2119C23.0538 21.0801 23.0973 20.9549 23.1551 20.8379C23.162 20.8238 23.1691 20.8098 23.1765 20.7959C23.2388 20.6791 23.3154 20.5714 23.4051 20.4756C23.4109 20.4694 23.4167 20.4632 23.4226 20.457L38.9138 4.45703L38.9158 4.4541C38.9395 4.42977 38.9645 4.40663 38.99 4.38379C39.0024 4.37269 39.0144 4.36124 39.0271 4.35059C39.0424 4.33779 39.0591 4.3267 39.075 4.31445L39.0789 4.31055C39.0905 4.30162 39.1022 4.29274 39.114 4.28418C39.1264 4.27529 39.1386 4.26631 39.1512 4.25781C39.1619 4.25055 39.1734 4.24432 39.1844 4.2373C39.1867 4.2358 39.1888 4.23392 39.1912 4.23242C39.2086 4.22142 39.2261 4.21045 39.2439 4.2002C39.2549 4.19387 39.266 4.18769 39.2771 4.18164C39.2807 4.1797 39.2843 4.1777 39.2879 4.17578C39.3004 4.16914 39.3134 4.16348 39.326 4.15723C39.339 4.15076 39.3518 4.14378 39.365 4.1377C39.3787 4.13142 39.3922 4.12501 39.406 4.11914C39.4244 4.11132 39.4432 4.10469 39.4617 4.09766C39.4762 4.09215 39.4909 4.08708 39.5056 4.08203C39.5184 4.07765 39.5309 4.0724 39.5437 4.06836C39.5644 4.06185 39.5854 4.05635 39.6062 4.05078C39.6169 4.04793 39.6277 4.04558 39.6385 4.04297C39.6573 4.0384 39.6761 4.03412 39.6951 4.03027C39.7104 4.02717 39.7257 4.02409 39.741 4.02148C39.7537 4.01932 39.7664 4.01746 39.7791 4.01562C39.7995 4.01268 39.82 4.00991 39.8406 4.00781C39.8595 4.0059 39.8784 4.00412 39.8972 4.00293C39.9021 4.00262 39.907 4.00222 39.9119 4.00195C39.9304 4.00096 39.949 4.0003 39.9676 4H40.0037C40.0115 4.00007 40.0193 4.00079 40.0271 4.00098ZM40.076 71.1436L46.0027 60H34.8582L40.076 71.1436ZM34.8299 67.0137L31.5457 60H28.0388L34.8299 67.0137ZM45.7898 66.7891L52.7957 60H49.4012L45.7898 66.7891ZM25.9998 57H30.9998V40.5C30.9998 39.6716 31.6715 39.0001 32.4998 39C33.3282 39 33.9998 39.6716 33.9998 40.5V57H46.9998V23H33.9998V25.5C33.9998 26.3284 33.3282 27 32.4998 27C31.6714 26.9999 30.9998 26.3284 30.9998 25.5V23H25.9998V57ZM28.0379 20H31.5457L34.8318 12.9824L28.0379 20ZM34.8582 20H46.0037L40.0769 8.85449L34.8582 20ZM49.4012 20H52.7967L45.7888 13.208L49.4012 20Z" fill="#363636"/>
<path d="M17.4998 50C18.3282 50 18.9998 50.6716 18.9998 51.5C18.9998 52.3284 18.3282 53 17.4998 53C16.6715 52.9999 15.9998 52.3284 15.9998 51.5C15.9998 50.6716 16.6715 50.0001 17.4998 50Z" fill="#363636"/>
<path d="M63.4998 50C64.3282 50 64.9998 50.6716 64.9998 51.5C64.9998 52.3284 64.3282 53 63.4998 53C62.6715 52.9999 61.9998 52.3284 61.9998 51.5C61.9998 50.6716 62.6715 50.0001 63.4998 50Z" fill="#363636"/>
<path d="M13.6375 43.248C14.3288 42.7916 15.2592 42.9825 15.7156 43.6738C16.172 44.3651 15.982 45.2955 15.2908 45.752L7.82694 50.6797C7.1356 51.1361 6.20429 50.9462 5.74783 50.2549C5.29144 49.5636 5.48236 48.6332 6.17361 48.1768L13.6375 43.248Z" fill="#363636"/>
<path d="M63.658 43.3291C64.0285 42.5882 64.9297 42.2878 65.6707 42.6582L73.6707 46.6582C74.4116 47.0287 74.712 47.9299 74.3416 48.6709C73.9711 49.4118 73.0698 49.7123 72.3289 49.3418L64.3289 45.3418C63.5881 44.9713 63.2876 44.07 63.658 43.3291Z" fill="#363636"/>
<path d="M56.4998 46C57.3282 46 57.9998 46.6716 57.9998 47.5C57.9998 48.3284 57.3282 49 56.4998 49C55.6715 48.9999 54.9998 48.3284 54.9998 47.5C54.9998 46.6716 55.6715 46.0001 56.4998 46Z" fill="#363636"/>
<path d="M72.3289 30.6582C73.0698 30.2877 73.9711 30.5882 74.3416 31.3291C74.7121 32.0701 74.4117 32.9713 73.6707 33.3418L65.6707 37.3418C64.9298 37.7122 64.0285 37.4118 63.658 36.6709C63.2876 35.93 63.5881 35.0287 64.3289 34.6582L72.3289 30.6582Z" fill="#363636"/>
<path d="M5.74783 29.9932C6.20429 29.3018 7.1356 29.1109 7.82694 29.5674L15.2908 34.4961C15.9819 34.9526 16.172 35.883 15.7156 36.5742C15.2591 37.2654 14.3287 37.4563 13.6375 37L6.17361 32.0713C5.48238 31.6149 5.29163 30.6845 5.74783 29.9932Z" fill="#363636"/>
<path d="M17.4998 28C18.3282 28 18.9998 28.6716 18.9998 29.5C18.9998 30.3284 18.3282 31 17.4998 31C16.6715 30.9999 15.9998 30.3284 15.9998 29.5C15.9998 28.6716 16.6715 28.0001 17.4998 28Z" fill="#363636"/>
<path d="M63.4998 28C64.3282 28 64.9998 28.6716 64.9998 29.5C64.9998 30.3284 64.3282 31 63.4998 31C62.6715 30.9999 61.9998 30.3284 61.9998 29.5C61.9998 28.6716 62.6715 28.0001 63.4998 28Z" fill="#363636"/>
</svg>
