<svg width="80" height="80" viewBox="0 0 80 80" fill="none" xmlns="http://www.w3.org/2000/svg">
<path d="M39.9998 73C40.8282 73 41.4998 73.6716 41.4998 74.5C41.4998 75.3284 40.8282 76 39.9998 76C39.1714 75.9999 38.4998 75.3284 38.4998 74.5C38.4998 73.6716 39.1714 73.0001 39.9998 73Z" fill="#363636"/>
<path d="M39.9998 67C40.8282 67 41.4998 67.6716 41.4998 68.5C41.4998 69.3284 40.8282 70 39.9998 70C39.1714 69.9999 38.4998 69.3284 38.4998 68.5C38.4998 67.6716 39.1714 67.0001 39.9998 67Z" fill="#363636"/>
<path fill-rule="evenodd" clip-rule="evenodd" d="M40.4529 4.00098C44.9623 4.00098 48.9891 6.06835 51.6375 9.30078C52.0027 9.25567 52.3583 9.21446 52.699 9.17773C53.7801 9.06119 54.7409 8.98167 55.4314 8.93164C55.7766 8.90663 56.0554 8.88953 56.2488 8.87793C56.3454 8.87214 56.4216 8.86709 56.4734 8.86426C56.499 8.86286 56.5192 8.86204 56.533 8.86133C56.5395 8.86099 56.5449 8.86055 56.5486 8.86035H56.699C57.4125 8.89262 58.0135 9.42887 58.115 10.1494L58.116 10.1533C58.116 10.1533 58.1165 10.1581 58.117 10.1611C58.1179 10.1677 58.1193 10.177 58.1209 10.1885C58.124 10.2116 58.1281 10.2448 58.1336 10.2871C58.1445 10.3722 58.1594 10.4957 58.1775 10.6533C58.2137 10.9688 58.2617 11.424 58.3093 11.9912C58.4045 13.125 58.4998 14.7146 58.4998 16.5459C58.4997 20.1748 58.1285 24.898 56.5457 28.9092C54.9484 32.9569 52.165 36.1716 49.2009 38.375C46.6821 40.2473 43.9121 41.472 41.4998 41.7793V47.7471C42.7708 46.196 44.5474 44.5259 47.0007 43.0762C50.589 40.956 54.7085 40.8942 57.7859 41.2891C59.3438 41.489 60.6876 41.813 61.6433 42.0869C62.1222 42.2242 62.5073 42.3495 62.7761 42.4424C62.9104 42.4888 63.0162 42.5271 63.0906 42.5547C63.1276 42.5684 63.1573 42.5798 63.1785 42.5879C63.189 42.5919 63.1984 42.5951 63.2048 42.5977C63.2079 42.5988 63.2106 42.5998 63.2127 42.6006L63.2156 42.6025C63.2137 42.6088 63.2175 42.6025 63.2175 42.6025C63.8738 42.8618 64.2602 43.5449 64.1462 44.2412V44.2461C64.1458 44.2481 64.1448 44.251 64.1443 44.2539C64.1431 44.2607 64.1413 44.2703 64.1394 44.2812C64.1355 44.3037 64.13 44.3357 64.1228 44.375C64.1083 44.4542 64.0866 44.5671 64.0574 44.709C63.9989 44.9932 63.9092 45.3969 63.782 45.8896C63.5279 46.8737 63.1207 48.2266 62.5066 49.7041C61.2962 52.616 59.1932 56.2286 55.6648 58.3135C53.1869 59.7774 50.4592 60.2563 48.0193 60.2881C47.1912 60.2987 46.5108 59.6357 46.4998 58.8076C46.4892 57.9795 47.1521 57.3 47.9802 57.2891C50.0793 57.2617 52.247 56.8486 54.1394 55.7305C56.844 54.1323 58.6236 51.2315 59.7371 48.5527C60.2846 47.2354 60.6499 46.0218 60.8777 45.1396C60.89 45.0921 60.9004 45.0446 60.9119 44.999C60.8808 44.99 60.8493 44.9799 60.8171 44.9707C59.9704 44.728 58.7782 44.441 57.4041 44.2646C54.6171 43.9071 51.2852 44.0295 48.5271 45.6592C45.5845 47.3981 43.8049 49.4766 42.7644 51.0967C42.2432 51.9083 41.9065 52.6069 41.7039 53.0898C41.6072 53.3202 41.5407 53.5011 41.4998 53.6211V61.501C41.4997 62.3293 40.8281 63.001 39.9998 63.001C39.1715 63.0008 38.4999 62.3292 38.4998 61.501V56.0508C38.3837 55.8676 38.2232 55.6173 38.0222 55.3184C37.5716 54.648 36.9261 53.7359 36.1472 52.7695C34.541 50.7767 32.547 48.7818 30.6521 47.9805C28.5603 47.096 25.448 47.1868 22.6277 47.6045C21.2611 47.8069 20.0393 48.0737 19.1599 48.29C19.1421 48.2944 19.1238 48.2984 19.1062 48.3027C19.1119 48.3251 19.1169 48.3483 19.1228 48.3711C19.3506 49.2533 19.7158 50.4666 20.2634 51.7842C21.3769 54.4631 23.1564 57.3627 25.8611 58.9609C27.7536 60.0792 29.9211 60.4922 32.0203 60.5195C32.8481 60.5307 33.5103 61.2112 33.4998 62.0391C33.489 62.8672 32.8092 63.5299 31.9812 63.5195C29.541 63.4877 26.8129 63.0082 24.3347 61.5439C20.8064 59.4589 18.7032 55.8475 17.4929 52.9355C16.8788 51.4578 16.4716 50.1051 16.2175 49.1211C16.0903 48.6283 16.0006 48.2246 15.9421 47.9404C15.913 47.7986 15.8913 47.6856 15.8767 47.6064C15.8695 47.567 15.864 47.5351 15.8601 47.5127C15.8582 47.5016 15.8573 47.4921 15.8562 47.4854C15.8556 47.4821 15.8546 47.4788 15.8543 47.4766V47.4736L15.8533 47.4727C15.7324 46.7334 16.1766 46.0169 16.8923 45.7959L16.9002 45.793C16.8982 45.7935 16.8953 45.7939 16.8953 45.7939L16.9255 45.7852C16.9455 45.7791 16.9745 45.7704 17.0105 45.7598C17.0831 45.7383 17.1882 45.7082 17.3211 45.6709C17.5878 45.5961 17.9711 45.4924 18.4441 45.376C19.3891 45.1435 20.7057 44.8563 22.1882 44.6367C25.0675 44.2103 28.9065 43.9858 31.8201 45.2178C34.4496 46.3297 36.8385 48.8462 38.4832 50.8867C38.4887 50.8935 38.4943 50.9004 38.4998 50.9072V41.7168C33.5391 40.9979 26.9015 37.4077 23.2546 28.9521C21.4562 24.7821 21.3329 19.9956 21.615 16.3613C21.7576 14.5253 22.0079 12.9393 22.2224 11.8105C22.3298 11.2455 22.4288 10.7922 22.5017 10.4775C22.5381 10.3206 22.5682 10.1977 22.5896 10.1123C22.6002 10.0699 22.6089 10.0362 22.615 10.0127C22.618 10.0011 22.62 9.99121 22.6218 9.98438C22.6227 9.98108 22.6241 9.97775 22.6248 9.97559V9.97266L22.6257 9.97168C22.8154 9.26192 23.4914 8.79309 24.2224 8.86523L24.2283 8.86621C24.2309 8.86648 24.2348 8.86676 24.239 8.86719C24.2475 8.86807 24.2597 8.86953 24.2742 8.87109C24.3036 8.87427 24.3457 8.8786 24.3982 8.88477C24.5038 8.89719 24.6544 8.91627 24.8416 8.94238C25.2158 8.99462 25.7404 9.07655 26.3503 9.19727C27.0791 9.34152 27.955 9.54646 28.8543 9.83008C31.4861 6.2954 35.7018 4.00111 40.4529 4.00098ZM25.1697 12.3701C24.971 13.4156 24.7385 14.8897 24.6062 16.5928C24.3388 20.0374 24.4944 24.2516 26.0095 27.7646C29.3548 35.5209 35.4137 38.3902 39.365 38.8027C39.369 38.7866 39.3752 38.7646 39.3816 38.7383C39.3989 38.6672 39.4245 38.5595 39.4568 38.4199C39.5216 38.1398 39.6125 37.7289 39.7156 37.2168C39.9222 36.1904 40.1761 34.7625 40.363 33.1582C40.7454 29.8771 40.8138 26.129 39.8572 23.5137C38.8609 20.7901 38.1702 19.3555 36.3054 17.3916C34.2186 15.1939 32.0876 14.4465 29.3777 13.2256C28.2269 12.7072 26.8732 12.3593 25.7683 12.1406C25.5805 12.1035 25.4011 12.0722 25.2341 12.043C25.2134 12.1466 25.1914 12.2558 25.1697 12.3701ZM55.2927 11.9521C54.6704 12.0002 53.8846 12.067 53.0203 12.1602C50.9122 12.3874 48.4471 12.751 46.7185 13.29C44.4022 14.0125 41.4504 15.6566 39.6843 16.709C41.0928 18.4919 41.8196 20.1452 42.6746 22.4824C43.8903 25.8061 43.7318 30.1653 43.3425 33.5059C43.1437 35.212 42.8755 36.7242 42.657 37.8096C42.6054 38.0657 42.5551 38.2984 42.5105 38.5049C43.9934 38.0704 45.7092 37.2317 47.4109 35.9668C49.9959 34.0453 52.3924 31.2597 53.7546 27.8076C55.1313 24.3189 55.4997 20.0419 55.4998 16.5459C55.4998 14.8152 55.4098 13.3105 55.3201 12.2412C55.3117 12.1409 55.3011 12.0445 55.2927 11.9521ZM40.4529 7.00098C36.9767 7.0011 33.8626 8.54923 31.7605 10.998C33.6501 11.8252 35.6603 12.7339 37.5916 14.4648C39.2816 13.4339 42.8951 11.3406 45.825 10.4268C46.5022 10.2155 47.2567 10.0337 48.0398 9.87402C46.0186 8.08493 43.3623 7.00098 40.4529 7.00098Z" fill="#363636"/>
<path d="M32.9998 55.501C33.8282 55.501 34.4997 56.1726 34.4998 57.001C34.4998 57.8294 33.8282 58.501 32.9998 58.501C32.1714 58.5009 31.4998 57.8293 31.4998 57.001C31.4998 56.1726 32.1714 55.5011 32.9998 55.501Z" fill="#363636"/>
<path d="M25.9998 51.501C26.8282 51.501 27.4997 52.1726 27.4998 53.001C27.4998 53.8294 26.8282 54.501 25.9998 54.501C25.1714 54.5009 24.4998 53.8293 24.4998 53.001C24.4998 52.1726 25.1714 51.5011 25.9998 51.501Z" fill="#363636"/>
<path d="M46.9998 51.501C47.8282 51.501 48.4997 52.1726 48.4998 53.001C48.4998 53.8294 47.8282 54.501 46.9998 54.501C46.1714 54.5009 45.4998 53.8293 45.4998 53.001C45.4998 52.1726 46.1714 51.5011 46.9998 51.501Z" fill="#363636"/>
<path d="M53.9998 47.501C54.8282 47.501 55.4997 48.1726 55.4998 49.001C55.4998 49.8294 54.8282 50.501 53.9998 50.501C53.1714 50.5009 52.4998 49.8293 52.4998 49.001C52.4998 48.1726 53.1714 47.5011 53.9998 47.501Z" fill="#363636"/>
</svg>
