<svg width="256" height="27" viewBox="0 0 256 27" fill="none" xmlns="http://www.w3.org/2000/svg">
<path d="M247.356 12.6995H241.432V5.28534H247.356C247.856 5.21397 248.365 5.26054 248.845 5.42131C249.323 5.58207 249.758 5.85259 250.113 6.21123C250.468 6.56988 250.736 7.00671 250.891 7.48681C251.048 7.96691 251.091 8.47698 251.014 8.97624C251.096 9.47794 251.058 9.99175 250.904 10.4761C250.751 10.9605 250.485 11.4018 250.128 11.7643C249.772 12.1268 249.335 12.4004 248.853 12.563C248.373 12.7253 247.859 12.7721 247.356 12.6995ZM247.356 1.59442H237.643V24.9054H241.463V16.3904H247.227C248.243 16.4944 249.271 16.3774 250.239 16.0471C251.206 15.7168 252.091 15.1811 252.833 14.4768C253.573 13.7726 254.154 12.9165 254.533 11.967C254.912 11.0175 255.081 9.99731 255.03 8.97624C255.094 7.97324 254.941 6.96806 254.581 6.02985C254.221 5.09163 253.661 4.24263 252.941 3.54119C252.22 2.83976 251.358 2.30255 250.411 1.9665C249.463 1.63044 248.454 1.5035 247.453 1.59442H247.356ZM223.171 5.09108C226.797 5.09108 229.258 8.32871 229.258 13.2823C229.258 18.2359 226.926 21.4088 223.301 21.4088C219.674 21.4088 217.213 18.1711 217.213 13.2175C217.213 8.26396 219.545 5.09108 223.171 5.09108ZM223.171 1.23828C217.181 1.23828 213.166 6.09475 213.166 13.2823C213.166 20.4698 217.149 25.2939 223.107 25.2939C229.064 25.2939 233.111 20.4375 233.111 13.2175C233.111 5.99762 229.129 1.23828 223.171 1.23828ZM204.749 10.9512H194.679V1.59442H190.794V24.9054H194.679V14.7392H204.716V24.9054H208.601V1.59442H204.716L204.749 10.9512ZM178.847 11.1131C174.704 9.88278 174.024 9.10575 174.024 7.87544C174.024 6.64515 175.351 5.25296 177.618 5.25296C178.58 5.20335 179.543 5.36945 180.434 5.73915C181.323 6.10884 182.12 6.67278 182.765 7.3898L185.517 4.60543L185.355 4.44355C184.373 3.40798 183.187 2.58606 181.872 2.02902C180.558 1.47198 179.142 1.19178 177.714 1.20591C176.773 1.08913 175.819 1.16671 174.909 1.43387C174 1.70102 173.154 2.15205 172.426 2.75904C171.697 3.36604 171.101 4.11607 170.674 4.96273C170.248 5.80937 169.999 6.73462 169.944 7.68118C169.944 12.1168 172.696 13.2823 177.261 14.6421C181.081 15.7753 182.247 16.617 182.247 18.2035C182.247 18.9481 182.247 21.2792 177.747 21.2792C176.66 21.25 175.59 21.0029 174.6 20.5524C173.609 20.1019 172.72 19.4573 171.984 18.6568V18.4949L169.2 21.1821C170.229 22.4851 171.543 23.5337 173.042 24.2467C174.541 24.9598 176.184 25.318 177.843 25.2939C185.388 25.2939 186.521 20.7936 186.521 18.1387C186.521 13.6384 183.283 12.2463 179.042 11.016L178.847 11.1131ZM152.397 8.0697C151.684 9.33238 150.745 11.1131 150.259 12.1491C149.741 11.0807 148.77 9.23525 148.09 8.00495L144.464 1.52967H139.737L148.122 15.6457V24.8407H151.942V15.7105L160.329 1.59442H155.893L152.397 8.0697ZM125.232 5.38247H127.823C128.858 5.29344 129.901 5.43982 130.872 5.81061C131.844 6.18141 132.718 6.76705 133.431 7.52371C134.145 8.28036 134.677 9.18846 134.99 10.1801C135.302 11.1717 135.386 12.2211 135.237 13.2499C135.391 14.2935 135.305 15.3587 134.984 16.3635C134.662 17.3685 134.115 18.2862 133.382 19.0462C132.651 19.8061 131.755 20.388 130.762 20.747C129.771 21.1062 128.709 21.2328 127.661 21.1174H125.07L125.232 5.38247ZM127.823 1.59442H121.347V24.9054H127.823C129.353 24.987 130.883 24.7374 132.308 24.1736C133.732 23.6099 135.02 22.7452 136.08 21.6388C137.141 20.5323 137.949 19.21 138.452 17.7623C138.954 16.3146 139.139 14.7755 138.993 13.2499C139.154 11.7047 138.974 10.1429 138.463 8.67524C137.954 7.20761 137.128 5.87012 136.043 4.75773C134.958 3.64533 133.642 2.78527 132.188 2.23857C130.733 1.69189 129.177 1.47197 127.629 1.59442H127.823ZM106.616 5.09108C110.242 5.09108 112.703 8.32871 112.703 13.2823C112.703 18.2359 110.372 21.4088 106.745 21.4088C103.119 21.4088 100.659 18.1711 100.659 13.2175C100.659 8.26396 102.99 5.09108 106.616 5.09108ZM106.616 1.23828C100.626 1.23828 96.6116 6.09475 96.6116 13.2823C96.6116 20.4698 100.594 25.2939 106.551 25.2939C112.508 25.2939 116.555 20.4375 116.555 13.2175C116.555 5.99762 112.573 1.23828 106.616 1.23828ZM85.4094 10.6598H79.614V5.18821H85.5065C85.8934 5.12671 86.2892 5.15487 86.6634 5.27053C87.0376 5.38618 87.3802 5.58624 87.6649 5.85528C87.9496 6.12431 88.1687 6.45513 88.3053 6.82223C88.4419 7.18932 88.4923 7.58289 88.4528 7.97257C88.4651 8.35139 88.395 8.72835 88.2477 9.07751C88.1003 9.42668 87.8789 9.73975 87.5989 9.99516C87.3188 10.2506 86.9868 10.4422 86.6256 10.557C86.2643 10.6717 85.8826 10.7068 85.5065 10.6598H85.4094ZM85.5065 21.3116H79.614V14.2212H85.5713C86.0679 14.1273 86.5798 14.151 87.0658 14.2905C87.5517 14.4299 87.9982 14.6812 88.3696 15.0242C88.741 15.3673 89.0269 15.7926 89.2043 16.2659C89.3818 16.7393 89.446 17.2476 89.3917 17.7502C89.3917 20.1461 88.129 21.3116 85.4741 21.3116H85.5065ZM89.7802 12.2786C90.5825 11.8402 91.2468 11.1868 91.6986 10.3919C92.1503 9.59704 92.3717 8.69201 92.3379 7.77831C92.3745 6.90262 92.2185 6.02956 91.8808 5.22076C91.5431 4.41195 91.032 3.68712 90.3837 3.09739C89.7353 2.50766 88.9653 2.06742 88.1283 1.80773C87.2911 1.54804 86.4072 1.47522 85.5389 1.59442H75.8259V24.9054H85.118C90.3306 24.9054 93.1797 22.3477 93.1797 17.6531C93.2265 16.5052 92.9151 15.3712 92.2886 14.4082C91.6621 13.4451 90.7515 12.701 89.6831 12.2786H89.7802ZM49.1802 14.3831H55.6554V10.5951H49.1802V5.38247H60.4795V1.59442H45.3922V24.9054H61.0623V21.1174H49.2774L49.1802 14.3831ZM35.8088 10.8541H25.8368V1.59442H21.9516V24.9054H25.8368V14.7392H35.9059V24.9054H39.7911V1.59442H35.9059L35.8088 10.8541ZM1.03645 5.41484H7.51174V24.8407H11.3969V5.41484H18.2283V1.59442H1.03645V5.41484Z" fill="white"/>
</svg>
