<svg width="256" height="55" viewBox="0 0 256 55" fill="none" xmlns="http://www.w3.org/2000/svg">
<path d="M98.1112 22.5205C108.572 22.5205 113.371 29.0427 113.371 35.442V49.3479H106.726V35.442C106.726 31.504 104.387 25.1047 98.1112 25.1047C91.7121 25.1047 89.4969 31.504 89.4969 35.442V49.3479H82.9746V35.442C82.8515 29.0427 87.651 22.5205 98.1112 22.5205Z" fill="black"/>
<path d="M188.686 49.717C178.225 49.717 173.425 43.1947 173.425 36.7956V23.0126H179.947V36.9185C179.947 40.8566 182.286 47.2558 188.563 47.2558C194.961 47.2558 197.177 40.8566 197.177 36.9185V23.0126H203.699V36.9185C203.822 43.1947 199.023 49.717 188.686 49.717Z" fill="black"/>
<path d="M139.952 47.3788C138.599 48.4864 136.753 49.3479 134.661 49.594C128.016 50.5785 118.786 46.2714 118.417 36.6725C118.047 26.8276 127.77 22.6434 134.169 22.8895C144.875 23.1356 148.69 31.2577 148.69 35.8111V49.3479H142.044V35.9342C142.044 32.9807 140.69 25.4738 133.922 25.3508C127.278 25.2277 125.185 31.3808 125.062 35.9342C125.062 38.8876 125.678 46.0252 133.307 46.5174C135.646 46.6405 138.967 46.0252 139.829 45.1638V47.3788H139.952Z" fill="black"/>
<path d="M169.364 53.1628C168.503 53.5319 166.042 54.0242 163.334 53.2859C160.257 52.5474 155.089 51.0708 155.089 40.4874C155.089 36.9186 155.089 11.1986 155.089 11.1986H161.734V22.7664H167.888V27.0736H161.734C161.734 27.0736 161.857 35.3188 161.734 41.9642C161.611 47.8711 163.457 49.9632 164.688 50.5785C166.288 51.4399 168.996 51.0708 169.242 50.8246V53.1628H169.364Z" fill="black"/>
<path d="M210.097 34.5804C210.097 28.0581 213.42 23.5049 219.451 22.8896C223.634 22.5204 225.111 23.2587 225.111 23.2587V25.8431C225.111 25.8431 222.896 25.2277 220.434 25.9662C217.728 26.8276 216.62 30.8886 216.62 32.2422V49.471H210.097V34.5804Z" fill="black"/>
<path d="M247.263 47.3788C245.909 48.4864 244.063 49.3479 241.97 49.594C235.326 50.5785 226.096 46.2714 225.727 36.6725C225.358 26.8276 235.079 22.6434 241.478 22.8895C252.185 23.1356 256 31.2577 256 35.8111V49.3479H249.355V35.9342C249.355 32.9807 248.001 25.4738 241.232 25.3508C234.587 25.2277 232.495 31.3808 232.372 35.9342C232.372 38.8876 232.987 46.0252 240.618 46.5174C242.955 46.6405 246.278 46.0252 247.14 45.1638V47.3788H247.263Z" fill="black"/>
<path d="M35.9649 23.6279C36.7033 21.4128 37.0725 20.1822 38.4261 15.875C40.026 10.4603 43.7178 6.15311 49.5018 7.99904C56.2702 10.0911 54.6704 16.8596 53.5628 19.69C52.7013 21.9051 51.963 24.2432 50.4863 27.9351C49.3787 30.8886 51.8399 31.0117 53.1936 30.7655C54.6704 30.3963 59.1006 28.1812 61.931 26.8276C64.023 25.8431 67.838 23.6279 69.9301 25.8431C72.1451 28.0582 69.6839 31.8731 67.0996 34.2113C64.5153 36.5494 57.6239 39.3799 55.5318 40.2414C53.4398 41.1028 52.5783 42.3334 53.6859 42.9487C54.6704 43.5639 57.747 44.1793 58.7314 44.1793C59.4698 44.3024 60.2081 44.4255 60.2081 45.0407C60.2081 45.656 58.4853 47.0097 54.3012 48.4865C52.086 49.2249 47.9019 49.717 45.5637 49.3479C41.8719 48.7326 41.3797 48.1173 39.6567 48.7326C38.4261 49.2249 38.3031 50.2094 36.4571 50.9477C34.6112 51.686 31.9039 51.5631 29.8118 51.1938C27.7198 50.8246 24.1509 50.4555 23.7818 48.8556C23.6587 48.2404 24.397 47.7481 25.0124 47.1328C25.6277 46.5175 26.1199 45.1638 23.5356 44.6715C22.4281 44.3024 15.1674 43.0718 10.7372 40.8566C6.18388 38.5184 4.461 35.0727 4.95326 33.8421C5.32244 32.8576 6.30693 32.7345 7.78368 32.9807C9.38348 33.2268 16.275 35.1958 18.367 35.1958C19.2284 35.1958 19.8438 35.0727 20.2129 34.4574C21.0743 32.9807 18.4901 31.2577 16.398 28.7966C13.4446 25.2277 7.66062 19.3207 11.9678 14.029C14.7983 10.5833 20.4591 12.7984 22.7973 15.5058C24.6432 17.5979 27.7198 21.782 30.058 24.7355C31.0425 25.8431 32.027 26.4583 33.0114 26.4583C34.2421 26.2122 35.3495 25.3508 35.9649 23.6279ZM35.4726 7.50679C33.7498 10.7064 31.7808 17.721 31.7808 17.721C31.7808 17.721 31.6577 18.2132 31.2885 17.5979C31.0425 17.2287 28.2119 13.4138 26.8583 11.6909C25.2585 9.72191 17.9978 2.09206 9.75268 6.39922C2.24588 10.3372 5.07631 19.813 7.4145 23.3818C8.76817 25.5969 11.4755 28.9196 12.2139 29.9041C12.337 30.0272 12.337 30.1503 12.0909 30.0272C11.4755 29.9041 9.75268 29.4118 6.67612 28.6735C3.96875 27.9351 1.26139 28.0582 0.523014 29.2887C-0.0922966 30.1503 -0.338421 31.5039 0.769139 33.4729C2.98426 37.4108 9.0143 43.687 18.9823 45.656C19.2284 45.656 19.1054 45.9022 18.9823 46.1483C18.367 47.2559 18.7362 48.1173 19.1054 48.7326C20.5822 50.4555 22.1819 51.1938 28.8273 52.3014C37.9339 53.9012 41.2566 50.8246 41.6257 50.3324C41.6257 50.3324 41.6257 50.3324 41.7488 50.3324C43.2256 50.7015 49.0095 52.0553 55.9009 49.1018C62.3002 46.3945 64.7615 43.9332 64.7615 42.4564C64.7615 41.1028 61.4388 41.2258 60.4543 40.9797C60.2081 40.8566 60.2081 40.7335 60.4543 40.6105C60.9465 40.3644 62.054 39.8721 62.9156 39.3799C63.9001 38.8876 73.1297 34.2113 74.9756 26.3353C76.8215 18.4593 69.6839 18.3362 65.746 20.0591C61.931 21.659 58.2391 23.5049 57.3777 23.8741C57.2546 23.8741 57.2547 23.8741 57.2547 23.751C57.6239 22.8896 58.9775 19.3207 59.7159 16.1211C60.5774 12.4293 60.2081 2.09206 49.994 0.246124C49.3787 0.123062 48.6402 0 47.7788 0C43.1025 0 38.057 2.70737 35.4726 7.50679Z" fill="black"/>
</svg>
