<svg width="256" height="192" viewBox="0 0 256 192" fill="none" xmlns="http://www.w3.org/2000/svg">
<path d="M22.5231 145.558C37.9077 145.558 45.0461 155.281 45.0461 164.635V185.312H35.3231V164.635C35.3231 158.727 31.8769 149.25 22.5231 149.25C13.0462 149.25 9.72308 158.727 9.72308 164.635V185.312H0V164.635C0 155.281 7.13846 145.558 22.5231 145.558Z" fill="white"/>
<path d="M156.431 185.927C141.046 185.927 133.908 176.204 133.908 166.85V146.174H143.631V166.85C143.631 172.758 147.077 182.235 156.431 182.235C165.785 182.235 169.231 172.758 169.231 166.85V146.174H178.954V166.85C178.954 176.204 171.815 185.927 156.431 185.927Z" fill="white"/>
<path d="M84.3078 182.481C82.2155 184.081 79.6309 185.312 76.4309 185.804C66.5847 187.404 52.9232 180.881 52.4309 166.604C51.9386 151.958 66.3386 145.804 75.6924 146.05C91.5693 146.42 97.2309 158.481 97.2309 165.25V185.312H87.3847V165.374C87.3847 161.066 85.4155 149.866 75.3232 149.62C65.477 149.374 62.277 158.481 62.277 165.25C62.277 169.558 63.2616 180.266 74.5847 180.881C78.0309 181.127 82.954 180.143 84.3078 178.912V182.481Z" fill="white"/>
<path d="M127.877 191.097C126.523 191.589 122.954 192.327 118.892 191.343C114.338 190.112 106.708 188.143 106.708 172.389C106.708 167.097 106.708 128.943 106.708 128.943H116.554V146.174H125.538V152.204H116.554C116.554 152.204 116.8 164.389 116.554 174.235C116.308 182.974 119.015 186.05 120.985 187.035C123.323 188.266 127.261 187.774 127.754 187.527V191.097H127.877Z" fill="white"/>
<path d="M188.062 163.404C188.062 153.804 193.108 146.912 201.846 146.05C208 145.435 210.338 146.543 210.338 146.543V150.481C210.338 150.481 207.138 149.62 203.446 150.604C199.385 151.835 197.908 157.866 197.908 159.958V185.558H188.062V163.404Z" fill="white"/>
<path d="M243.077 182.481C240.985 184.081 238.4 185.312 235.2 185.804C225.354 187.404 211.692 180.881 211.2 166.604C210.708 151.958 225.108 145.804 234.462 146.05C250.338 146.42 256 158.481 256 165.25V185.312H246.277V165.374C246.277 161.066 244.308 149.866 234.215 149.62C224.369 149.374 221.169 158.481 221.169 165.25C221.169 169.558 222.154 180.266 233.477 180.881C236.923 181.127 241.846 180.143 243.2 178.912V182.481H243.077Z" fill="white"/>
<path d="M175.754 35.5279C174.154 42.7894 171.077 50.5433 170.215 52.5125C170.092 52.8817 170.215 52.8817 170.462 52.7587C172.308 51.8971 180.308 47.9586 188.8 44.2663C197.292 40.6971 213.169 40.6971 209.108 58.2971C205.046 75.774 184.492 86.1125 182.4 87.2202C180.431 88.2048 177.969 89.3125 176.985 89.9279C176.615 90.174 176.369 90.4202 177.108 90.6663C179.323 91.2817 186.585 90.7894 186.585 93.8663C186.462 97.1894 181.169 102.605 167.015 108.636C151.631 115.159 138.954 112.205 135.754 111.466C135.631 111.466 135.631 111.466 135.508 111.589C134.646 112.451 127.508 119.343 107.323 115.897C92.7999 113.436 89.2307 111.959 85.9076 108.02C84.923 106.913 84.3076 104.82 85.5384 102.359C85.9076 101.743 85.9076 101.374 85.4153 101.251C63.5076 96.6971 50.2153 82.9125 45.2922 74.174C42.8307 69.7433 43.5691 66.7894 44.7999 64.9433C46.523 62.3586 52.4307 62.1125 58.4614 63.5894C65.2307 65.3125 68.923 66.2971 70.2768 66.6663C70.7691 66.7894 70.7691 66.6663 70.523 66.2971C68.7999 64.2048 62.8922 56.6971 59.8153 51.8971C54.7691 44.0202 48.4922 22.974 64.9845 14.3586C83.323 4.88173 99.1999 21.6202 102.769 26.051C105.846 29.8663 112.123 38.2356 112.615 39.2202C113.354 40.574 113.846 39.3433 113.846 39.3433C113.846 39.3433 118.154 23.8356 121.969 16.6971C128.492 4.26635 142.154 -1.76442 153.969 0.450961C176.738 4.5125 177.6 27.1586 175.754 35.5279ZM152.738 17.4356C139.938 13.4971 132.062 22.974 128.369 34.9125C125.415 44.5125 124.8 47.0971 123.077 52.1433C120.615 59.1587 114.708 59.774 110.154 54.2356C104.861 47.8356 97.9691 38.4817 94.0307 33.9279C88.8614 27.8971 76.4307 22.851 70.1537 30.6048C60.6768 42.2971 73.2307 55.4663 79.8768 63.3433C84.4307 68.8817 90.0922 72.6971 88.2461 75.8971C87.6307 77.1279 86.1538 77.4971 84.1845 77.4971C79.5076 77.4971 64.2461 73.3125 60.6768 72.574C57.5999 71.9586 55.3845 72.2048 54.523 74.4202C53.5384 77.1279 57.3537 84.8817 67.323 90.051C77.1691 95.0971 93.1691 97.6817 94.7691 98.051C100.554 99.2817 99.4461 102.112 98.0922 103.589C96.7384 105.066 95.1384 105.928 95.5076 107.405C96.3691 111.097 104.246 111.836 108.923 112.574C113.477 113.312 119.385 113.682 123.569 112.082C127.631 110.482 127.877 108.266 130.585 107.159C134.277 105.682 135.631 107.036 143.631 108.512C148.8 109.497 157.785 108.266 162.831 106.666C172.185 103.589 176 100.636 176 99.1586C176 98.051 174.4 97.5586 172.677 97.3125C170.708 97.0663 163.938 95.9587 161.723 94.4817C159.385 93.0048 161.108 90.4202 165.908 88.451C170.585 86.6048 185.723 80.3279 191.508 75.1586C197.169 70.1125 202.585 61.6202 197.785 56.6971C193.108 51.774 184.738 56.8202 180.185 58.9125C174.154 61.7433 164.308 66.7894 160.985 67.5279C158.031 68.1433 152.615 68.0202 155.077 61.374C158.277 53.1279 159.754 48.0817 161.723 43.1586C164.185 37.1279 167.754 21.9894 152.738 17.4356Z" fill="white"/>
</svg>
