<svg width="256" height="82" viewBox="0 0 256 82" fill="none" xmlns="http://www.w3.org/2000/svg">
<g clip-path="url(#clip0)">
<path d="M14.9284 36.7298C11.712 43.8166 9.10168 51.1631 7.12544 58.6905C6.00123 58.4044 4.84966 58.2394 3.69036 58.1981C2.44701 58.2477 1.21094 58.4126 -0.00195312 58.6905C7.45897 42.4357 19.8651 15.0892 25.8146 0C26.5078 0.137535 27.2107 0.21986 27.9169 0.246169C28.5427 0.251104 29.1662 0.16823 29.7691 0C36.2183 17.6197 54.7463 58.3668 54.9211 58.6905C53.2902 58.3685 51.6322 58.2037 49.9698 58.1981C48.1694 58.2098 46.3735 58.3745 44.6012 58.6905C42.3454 51.1639 39.5142 43.822 36.1323 36.7298H14.9284ZM25.4121 11.7391L16.5974 32.5391H34.4644L25.4121 11.7391Z" fill="white"/>
<path d="M68.4172 38.3225C68.4172 40.6708 68.4172 45.4474 70.6781 49.2948C71.8357 51.3669 73.5465 53.0763 75.6196 54.2321C77.6925 55.3879 80.0461 55.9446 82.4172 55.84C85.0293 55.911 87.6177 55.3283 89.9474 54.1449C92.2772 52.9614 94.2743 51.2147 95.7575 49.0634L96.7668 49.2948C96.4117 50.9497 96.2127 52.6341 96.1723 54.3262C92.4874 57.8548 87.3674 59.7895 80.576 59.7895C67.8289 59.7895 60.0308 51.7403 60.0308 38.8172C60.0308 27.248 66.4037 17.5249 80.1625 17.5249C98.8554 17.5249 98.6006 33.7957 98.5255 38.3249L68.4172 38.3225ZM90.1366 34.7939C90.1366 32.0271 90.1366 20.8726 80.0775 20.8726C72.7791 20.8726 69.2554 26.4111 68.4985 34.7939H90.1366Z" fill="white"/>
<path d="M130.459 27.2468C130.272 26.2358 129.888 25.2716 129.328 24.4097C128.767 23.5478 128.042 22.8049 127.194 22.224C125.559 21.2179 123.663 20.7205 121.744 20.7951C116.632 20.7951 113.95 23.4782 113.95 27.0794C113.95 31.9446 118.901 33.7083 121.827 34.464C129.291 36.3914 135.337 37.9926 135.337 46.3754C135.337 52.7483 130.885 59.8695 119.23 59.8695C114.843 59.9189 110.536 58.6986 106.827 56.3557C107.774 54.2156 108.422 51.9558 108.753 49.6394L109.754 49.3932C110.538 51.7307 112.151 53.7006 114.287 54.9317C116.143 56.0099 118.259 56.5589 120.405 56.5194C124.77 56.5194 128.874 54.4271 128.874 49.6455C128.874 44.864 126.023 43.9409 117.225 41.0954C113.614 39.9163 107.659 37.3169 107.659 29.9409C107.659 25.1692 110.597 17.4548 122.174 17.4548C126.038 17.3863 129.854 18.3358 133.234 20.208C132.33 22.4607 131.765 24.8353 131.559 27.2542L130.459 27.2468Z" fill="white"/>
<path d="M187.065 38.1502C187.065 51.4856 177.841 59.8683 165.109 59.8683C156.207 59.8683 143.799 55.8388 143.799 38.6449C143.799 25.5742 152.517 17.4462 165.109 17.4462C181.025 17.4474 187.065 27.9286 187.065 38.1502ZM152.348 38.4049C152.348 50.0616 157.465 56.5132 165.178 56.5132C173.232 56.5132 178.514 49.5557 178.514 38.4849C178.514 31.9446 176.5 20.7951 165.591 20.7951C152.347 20.7939 152.347 35.8806 152.347 38.4049H152.348Z" fill="white"/>
<path d="M219.182 59.9532C211.291 59.9532 206.858 55.6 205.511 52.16C205.511 65.3145 205.429 72.96 205.934 80.6609C204.51 80.2878 203.039 80.122 201.567 80.1686C200.044 80.1231 198.522 80.2888 197.045 80.6609C197.713 69.7662 197.964 58.7852 197.964 47.8806C197.964 40.2499 197.802 29.9348 197.542 17.7785C198.891 18.0938 200.27 18.259 201.654 18.2708C203.038 18.2512 204.414 18.0862 205.762 17.7785C205.429 22.3877 205.429 23.6406 205.429 25.4092C206.816 22.8723 208.886 20.7739 211.403 19.3514C213.921 17.929 216.786 17.2392 219.675 17.36C228.063 17.36 238.303 23.4782 238.303 38.4062C238.302 51.6492 230.16 59.9532 219.182 59.9532ZM208.784 25.9126C207.104 28.0049 205.338 31.0277 205.338 39.328C205.338 46.704 207.013 49.4794 208.784 51.5643C209.845 52.8911 211.199 53.9535 212.74 54.668C214.281 55.3824 215.967 55.7292 217.664 55.6812C229.658 55.6812 229.658 41.5102 229.658 38.8197C229.658 26.1576 223.618 21.5619 218.175 21.5619C216.377 21.4894 214.587 21.8462 212.954 22.6028C211.321 23.3594 209.892 24.4939 208.784 25.9126Z" fill="white"/>
<path d="M92.0898 9.66892H68.9182V7.05109H92.0898V9.66892Z" fill="white"/>
<path d="M250.513 48.5624C251.602 48.5558 252.67 48.8728 253.578 49.4731C254.487 50.0735 255.198 50.9301 255.618 51.9344C256.039 52.9388 256.154 54.0458 255.946 55.1148C255.737 56.184 255.216 57.1671 254.448 57.9397C253.68 58.7124 252.7 59.2396 251.633 59.4546C250.565 59.6698 249.457 59.5629 248.45 59.1478C247.444 58.7327 246.582 58.0279 245.977 57.1228C245.37 56.2178 245.046 55.1532 245.046 54.064C245.039 53.3423 245.175 52.6263 245.446 51.9578C245.718 51.2891 246.119 50.6812 246.629 50.1692C247.137 49.6573 247.743 49.2517 248.41 48.9759C249.077 48.6999 249.792 48.5595 250.513 48.5624ZM250.513 49.5471C249.329 49.5666 248.199 50.0508 247.37 50.8951C246.539 51.7396 246.074 52.8765 246.074 54.0609C246.074 55.2453 246.539 56.3823 247.37 57.2266C248.199 58.071 249.329 58.5552 250.513 58.5747C251.697 58.5552 252.827 58.071 253.658 57.2266C254.487 56.3823 254.954 55.2453 254.954 54.0609C254.954 52.8765 254.487 51.7396 253.658 50.8951C252.827 50.0508 251.697 49.5666 250.513 49.5471ZM253.489 57.0252C253.282 56.9888 253.072 56.967 252.862 56.96C252.649 56.96 252.436 57.0018 252.101 57.0252C251.349 55.9626 250.53 54.9485 249.65 53.9889H249.446C249.446 54.9403 249.446 55.6788 249.525 57.0252C249.294 56.9894 249.06 56.9676 248.825 56.96C248.63 56.9627 248.436 56.9846 248.245 57.0252C248.335 55.9553 248.369 54.8815 248.347 53.808C248.347 52.2523 248.315 51.4868 248.277 50.8283C248.741 50.8468 249.071 50.8468 249.781 50.8468C251.318 50.8468 252.886 50.8283 252.886 52.3138C252.886 53.6086 251.484 53.808 250.866 53.8683C251.27 54.4258 253.141 56.5292 253.536 56.9267L253.489 57.0252ZM249.47 51.2788C249.446 52.1058 249.446 52.8381 249.446 53.5668C250.11 53.5668 251.697 53.5668 251.697 52.384C251.698 51.2824 250.476 51.2824 249.47 51.2824V51.2788Z" fill="white"/>
</g>
<defs>
<clipPath id="clip0">
<rect width="256" height="81.2308" fill="white"/>
</clipPath>
</defs>
</svg>
