<svg width="192" height="32" viewBox="0 0 192 32" fill="none" xmlns="http://www.w3.org/2000/svg">
<path d="M5.72394 13.0319C3.4088 13.0319 1.90726 11.3635 1.90726 9.36148C1.90726 7.35942 3.44381 5.70958 5.74454 5.70958C7.14721 5.70958 8.21004 6.22451 9.05453 7.10814V5.49743C8.34804 4.79094 7.18841 4.39135 5.50355 4.39135C2.48192 4.39135 0.350098 6.54171 0.350098 9.35942C0.350098 12.1751 2.48192 14.344 5.52208 14.344C7.09366 14.344 8.39541 13.93 9.21313 13.2235V11.6272C8.28831 12.5582 7.0813 13.0319 5.72394 13.0319Z" fill="#111111"/>
<path d="M15.6518 4.39341C12.5211 4.39341 10.4634 6.50669 10.4634 9.36148C10.4634 12.2163 12.5211 14.346 15.6518 14.346C18.7847 14.346 20.8238 12.2163 20.8238 9.36148C20.8238 6.50463 18.7847 4.39341 15.6518 4.39341ZM15.6518 13.0319C13.4088 13.0319 12.0185 11.3821 12.0185 9.36148C12.0185 7.35942 13.4088 5.70958 15.6518 5.70958C17.8949 5.70958 19.2852 7.35942 19.2852 9.36148C19.2852 11.3821 17.8949 13.0319 15.6518 13.0319Z" fill="#111111"/>
<path d="M27.932 4.39341C26.0226 4.39341 24.8362 5.42945 24.2409 6.76416V4.61586H22.6858V14.1236H24.2409V7.45005C25.003 6.42842 26.0967 5.72606 27.3738 5.72606C29.0792 5.72606 29.969 6.69001 29.969 8.33986V14.1236H31.5262V8.06385C31.5262 5.8208 30.2471 4.39341 27.932 4.39341Z" fill="#111111"/>
<path d="M38.8568 8.56437L36.3171 8.19361C35.2976 8.06385 34.7806 7.74665 34.7806 7.04428C34.7806 6.09681 35.8001 5.61689 37.45 5.61689C39.0257 5.61689 40.2286 6.17096 41.0628 6.85891V5.33471C40.3398 4.79506 38.8218 4.39135 37.4129 4.39135C34.9103 4.39135 33.2976 5.37384 33.2976 7.11638C33.2976 8.4861 34.2451 9.26468 36.0411 9.5448L38.7105 9.95263C39.7672 10.0989 40.3254 10.6014 40.3254 11.3409C40.3254 12.5088 39.2111 13.104 37.5818 13.104C36.0061 13.104 34.5046 12.5644 33.2626 11.6395V13.1679C34.21 13.7611 35.8187 14.346 37.5612 14.346C39.9711 14.346 41.8063 13.2338 41.8063 11.2338C41.8022 9.7137 40.7826 8.84037 38.8568 8.56437Z" fill="#111111"/>
<path d="M50.7435 4.61586V11.3059C50.0041 12.3069 48.9474 13.0093 47.6683 13.0093C45.9443 13.0093 45.0916 12.0288 45.0916 10.414V4.61586H43.5344V10.6756C43.5344 12.9001 44.7579 14.346 47.1307 14.346C49.001 14.346 50.1524 13.2915 50.7435 11.9753V14.1256H52.3007V4.61586H50.7435Z" fill="#111111"/>
<path d="M66.5025 5.95057V4.61586H62.4428V1.44593L60.8856 1.75901V4.61586H58.4943V5.95057H60.8856V10.9372C60.8856 13.0319 61.9237 14.309 64.1297 14.309C64.9969 14.309 65.7507 14.1256 66.1627 13.8867V12.5314C65.6951 12.7806 65.104 12.9578 64.3892 12.9578C63.036 12.9578 62.4428 12.1977 62.4428 10.8424V5.95057H66.5025Z" fill="#111111"/>
<path d="M72.589 4.39341C69.4562 4.39341 67.3985 6.50669 67.3985 9.36148C67.3985 12.2163 69.4562 14.346 72.589 14.346C75.7198 14.346 77.761 12.2163 77.761 9.36148C77.761 6.50463 75.7198 4.39341 72.589 4.39341ZM72.589 13.0319C70.346 13.0319 68.9557 11.3821 68.9557 9.36148C68.9557 7.35942 70.346 5.70958 72.589 5.70958C74.8321 5.70958 76.2203 7.35942 76.2203 9.36148C76.2203 11.3821 74.8321 13.0319 72.589 13.0319Z" fill="#111111"/>
<path d="M81.1781 8.33986V4.61586H79.6209V14.1236H81.1781V9.02781C82.2842 7.6725 83.9938 6.81977 85.3738 6.21627V4.4346C83.8187 5.15963 82.0288 6.38105 81.1781 8.33986Z" fill="#111111"/>
<path d="M87.0978 4.61586V14.1236H88.6549V4.61586H87.0978Z" fill="#111111"/>
<path d="M95.8372 4.39341C94.1936 4.39341 92.8074 4.87333 91.8413 5.72194V7.207C92.8815 6.24511 94.2986 5.69104 95.6518 5.69104C97.3758 5.69104 97.9505 6.45108 97.9505 7.65396V7.76519L94.1132 8.61998C91.9629 9.0999 90.7023 9.93409 90.7023 11.5304C90.7023 13.2523 91.7569 14.346 93.7404 14.346C95.7795 14.346 97.3367 13.0505 97.9484 12.0103V14.1256H99.5035V7.59835C99.5056 5.45005 98.2286 4.39341 95.8372 4.39341ZM97.9505 11.1967C97.1534 12.2698 95.7445 13.1432 94.2245 13.1432C92.8897 13.1432 92.2595 12.5129 92.2595 11.4748C92.2595 10.5479 93.0566 9.99176 94.449 9.62101L97.9526 8.67353V11.1967H97.9505Z" fill="#111111"/>
<path d="M58.2059 12.9104V14.2781C57.9649 14.3234 57.691 14.346 57.3738 14.346C56.2718 14.346 55.6107 14.0268 55.2275 13.4459C54.8444 12.8671 54.7353 12.0227 54.7353 10.9763V0.593203L56.2924 0.298661V10.8795H56.2945C56.2945 12.2348 56.2801 12.9557 57.6333 12.9557C57.8496 12.9557 58.037 12.9372 58.2059 12.9104Z" fill="#111111"/>
<path d="M88.5005 3.41916H87.3573L88.1874 0.797116H90.107L88.5005 3.41916Z" fill="#111111"/>
<path d="M18.6405 17.8229V24.105C18.0844 22.7147 16.6941 21.621 14.7476 21.621C11.7837 21.621 9.98347 23.7899 9.98347 26.5891C9.98347 29.3862 11.7816 31.5757 14.7476 31.5757C16.7126 31.5757 18.0659 30.4614 18.6405 29.0731V31.3532H20.1977V17.5263L18.6405 17.8229ZM18.6405 28.2019C17.7878 29.518 16.5643 30.2595 15.1019 30.2595C12.7456 30.2595 11.5427 28.5355 11.5427 26.5891C11.5427 24.6612 12.7456 22.9372 15.1019 22.9372C16.5828 22.9372 17.7899 23.6787 18.6405 24.9949V28.2019Z" fill="#111111"/>
<path d="M32.105 26.4779C32.105 23.829 30.3439 21.6231 27.2667 21.6231C24.0597 21.6231 22.0576 23.7734 22.0576 26.5911C22.0576 29.3347 24.0411 31.5778 27.656 31.5778C29.3964 31.5778 30.8589 31.0237 31.658 30.3584V28.7909C30.6776 29.7075 29.3367 30.2987 27.7507 30.2987C25.1925 30.2987 23.726 28.8898 23.6168 26.8342H32.107V26.4779H32.105ZM23.6889 25.6643C23.9835 24.0494 25.209 22.7909 27.2481 22.7909C29.2111 22.7909 30.3048 24.1071 30.5849 25.6643H23.6889Z" fill="#111111"/>
<path d="M42.4613 21.621C40.5334 21.621 39.1431 22.7147 38.5684 24.105V17.5242L37.0133 17.8208V31.3512H38.5684V29.0711C39.1616 30.4593 40.5169 31.5736 42.4613 31.5736C45.4273 31.5736 47.2255 29.3841 47.2255 26.587C47.2234 23.7899 45.4273 21.621 42.4613 21.621ZM42.1277 30.2595C40.6446 30.2595 39.4397 29.518 38.5684 28.2019V24.9969C39.4397 23.6807 40.6446 22.9392 42.1091 22.9392C44.4799 22.9392 45.6683 24.6632 45.6683 26.5911C45.6683 28.5355 44.4819 30.2595 42.1277 30.2595Z" fill="#111111"/>
<path d="M82.6982 30.0742L89.2234 23.0484V21.8455H80.9927V23.1246H87.314L80.7909 30.1318V31.3553H89.2976V30.0762H82.6982V30.0742Z" fill="#111111"/>
<path d="M58.5952 26.4779C58.5952 23.829 56.8341 21.6231 53.7569 21.6231C50.5499 21.6231 48.5478 23.7734 48.5478 26.5911C48.5478 29.3347 50.5314 31.5778 54.1462 31.5778C55.8867 31.5778 57.3491 31.0237 58.1482 30.3584V28.7909C57.1678 29.7075 55.8269 30.2987 54.2409 30.2987C51.6827 30.2987 50.2162 28.8898 50.1071 26.8342H58.5973V26.4779H58.5952ZM50.1791 25.6643C50.4737 24.0494 51.6992 22.7909 53.7384 22.7909C55.7013 22.7909 56.795 24.1071 57.0751 25.6643H50.1791Z" fill="#111111"/>
<path d="M79.3552 26.4779C79.3552 23.829 77.5942 21.6231 74.5169 21.6231C71.3099 21.6231 69.3079 23.7734 69.3079 26.5911C69.3079 29.3347 71.2914 31.5778 74.9062 31.5778C76.6467 31.5778 78.1091 31.0237 78.9083 30.3584V28.7909C77.9279 29.7075 76.587 30.2987 75.001 30.2987C72.4428 30.2987 70.9763 28.8898 70.8671 26.8342H79.3573V26.4779H79.3552ZM70.9392 25.6643C71.2337 24.0494 72.4593 22.7909 74.4984 22.7909C76.4613 22.7909 77.555 24.1071 77.8352 25.6643H70.9392Z" fill="#111111"/>
<path d="M95.8187 21.6231C94.175 21.6231 92.7888 22.103 91.8228 22.9516V24.4367C92.863 23.4748 94.2801 22.9207 95.6333 22.9207C97.3573 22.9207 97.932 23.6807 97.932 24.8836V24.9949L94.0947 25.8496C91.9443 26.3296 90.6838 27.1637 90.6838 28.76C90.6838 30.482 91.7384 31.5757 93.7219 31.5757C95.761 31.5757 97.3182 30.2801 97.9299 29.24V31.3553H99.485V24.828C99.4871 22.6797 98.21 21.6231 95.8187 21.6231ZM97.932 28.4264C97.1348 29.4995 95.726 30.3728 94.2059 30.3728C92.8712 30.3728 92.2409 29.7425 92.2409 28.7044C92.2409 27.7775 93.038 27.2214 94.4304 26.8507L97.934 25.9032V28.4264H97.932Z" fill="#111111"/>
<path d="M68.5787 30.0844V31.5077C68.3377 31.553 68.0638 31.5757 67.7466 31.5757C66.6446 31.5757 65.9835 31.2564 65.6004 30.6756C65.2172 30.0968 65.1081 29.2523 65.1081 28.206V17.8229L66.6652 17.5283V28.1092H66.6673C66.6673 29.4645 66.6529 30.1298 68.0061 30.1298C68.2224 30.1277 68.4098 30.1112 68.5787 30.0844Z" fill="#111111"/>
<path d="M63.8434 30.0844V31.5077C63.6024 31.553 63.3285 31.5757 63.0113 31.5757C61.9093 31.5757 61.2481 31.2564 60.865 30.6756C60.4819 30.0968 60.3728 29.2523 60.3728 28.206V17.8229L61.9299 17.5283V28.1092H61.932C61.932 29.4645 61.9176 30.1298 63.2708 30.1298C63.4871 30.1277 63.6745 30.1112 63.8434 30.0844Z" fill="#111111"/>
<path d="M170.237 24.966L169.567 26.4902C169.71 26.4779 169.837 26.4717 169.957 26.4717C170.202 26.4717 170.416 26.4943 170.591 26.5417C170.77 26.5891 170.919 26.655 171.038 26.7394L170.237 24.966ZM181.639 25.4027C181.567 25.2194 181.464 25.0608 181.328 24.9248C181.199 24.793 181.048 24.69 180.863 24.6097C180.69 24.5335 180.492 24.4943 180.276 24.4943C180.056 24.4943 179.856 24.5355 179.683 24.6097C179.497 24.688 179.347 24.793 179.217 24.9248C179.087 25.0546 178.984 25.2132 178.906 25.4068C178.83 25.5963 178.793 25.8002 178.793 26.0144C178.793 26.2307 178.83 26.4387 178.906 26.6344C178.982 26.8301 179.085 26.9887 179.217 27.1246C179.349 27.2606 179.506 27.3677 179.683 27.4418C179.856 27.518 180.058 27.5572 180.276 27.5572C180.492 27.5572 180.69 27.516 180.863 27.4418C181.038 27.3656 181.197 27.2585 181.328 27.1246C181.464 26.9866 181.572 26.8218 181.639 26.6365C181.716 26.447 181.753 26.2369 181.753 26.0144C181.751 25.7981 181.714 25.5942 181.639 25.4027ZM181.639 25.4027C181.567 25.2194 181.464 25.0608 181.328 24.9248C181.199 24.793 181.048 24.69 180.863 24.6097C180.69 24.5335 180.492 24.4943 180.276 24.4943C180.056 24.4943 179.856 24.5355 179.683 24.6097C179.497 24.688 179.347 24.793 179.217 24.9248C179.087 25.0546 178.984 25.2132 178.906 25.4068C178.83 25.5963 178.793 25.8002 178.793 26.0144C178.793 26.2307 178.83 26.4387 178.906 26.6344C178.982 26.8301 179.085 26.9887 179.217 27.1246C179.349 27.2606 179.506 27.3677 179.683 27.4418C179.856 27.518 180.058 27.5572 180.276 27.5572C180.492 27.5572 180.69 27.516 180.863 27.4418C181.038 27.3656 181.197 27.2585 181.328 27.1246C181.464 26.9866 181.572 26.8218 181.639 26.6365C181.716 26.447 181.753 26.2369 181.753 26.0144C181.751 25.7981 181.714 25.5942 181.639 25.4027ZM165.098 4.3378V30.8939H191.65V4.3378H165.098ZM171.705 28.2987C171.596 28.1133 171.481 27.9526 171.355 27.8187C171.23 27.6849 171.096 27.5757 170.947 27.4851C170.797 27.3924 170.632 27.3306 170.453 27.2894C170.274 27.2482 170.074 27.2276 169.86 27.2276C169.757 27.2276 169.654 27.2317 169.545 27.24C169.44 27.2461 169.324 27.2585 169.209 27.2791L168.764 28.2987H167.773L169.889 23.7528H170.575L172.688 28.2987H171.705ZM177.304 23.8146L175.238 28.2945H174.515L174.503 28.2698L172.449 23.7528H173.58L174.896 26.7765L176.216 23.7528H177.328L177.304 23.8146ZM182.591 26.9907C182.461 27.2935 182.286 27.5572 182.066 27.7673C181.845 27.9835 181.578 28.1565 181.271 28.2822C180.96 28.4058 180.624 28.4676 180.274 28.4676C179.92 28.4676 179.582 28.4037 179.275 28.2822C178.964 28.1565 178.696 27.9835 178.476 27.7673C178.255 27.553 178.08 27.2935 177.951 26.9907C177.821 26.6982 177.759 26.3708 177.759 26.0185C177.759 25.6704 177.823 25.345 177.951 25.0505C178.08 24.7477 178.253 24.4964 178.476 24.2781C178.698 24.0639 178.966 23.8908 179.275 23.7652C179.584 23.6457 179.92 23.5819 180.274 23.5819C180.622 23.5819 180.96 23.6457 181.267 23.7652C181.576 23.8908 181.841 24.0639 182.066 24.2781C182.288 24.4985 182.461 24.7497 182.591 25.0505C182.721 25.345 182.783 25.6704 182.783 26.0185C182.783 26.3708 182.721 26.6982 182.591 26.9907ZM188.196 28.2945H187.423L187.407 28.2822L185.083 25.5345V28.2945H184.08V23.7528H184.857L184.869 23.7693L187.193 26.5129V23.7528H188.196V28.2945ZM181.326 24.9248C181.197 24.793 181.046 24.69 180.861 24.6097C180.688 24.5335 180.49 24.4943 180.274 24.4943C180.053 24.4943 179.854 24.5355 179.681 24.6097C179.495 24.688 179.345 24.793 179.215 24.9248C179.085 25.0546 178.982 25.2132 178.904 25.4068C178.828 25.5963 178.791 25.8002 178.791 26.0144C178.791 26.2307 178.828 26.4387 178.904 26.6344C178.98 26.8301 179.083 26.9887 179.215 27.1246C179.347 27.2606 179.504 27.3677 179.681 27.4418C179.854 27.518 180.056 27.5572 180.274 27.5572C180.49 27.5572 180.688 27.516 180.861 27.4418C181.036 27.3656 181.195 27.2585 181.326 27.1246C181.462 26.9866 181.569 26.8218 181.637 26.6365C181.714 26.447 181.751 26.2369 181.751 26.0144C181.751 25.8002 181.714 25.5963 181.637 25.4047C181.565 25.2194 181.462 25.0608 181.326 24.9248Z" fill="#111111"/>
<path d="M124.964 24.9928C122.962 24.9928 121.839 26.1936 121.839 28.1442V30.7085H123.201V28.0103C123.201 26.5149 123.734 25.6066 124.964 25.6066C126.113 25.6066 126.647 26.5149 126.647 28.0103V30.7085H128.008V28.1442C128.008 26.1936 126.995 24.9928 124.964 24.9928Z" fill="#111111"/>
<path d="M132.282 24.9928C130.653 24.9928 129.158 26.0886 129.158 28.0103C129.158 29.827 130.385 30.8939 132.095 30.8939C133.003 30.8939 133.697 30.5191 134.07 29.8249V30.7065H135.378V28.1689C135.38 26.2204 134.311 24.9928 132.282 24.9928ZM132.282 30.2801C131.081 30.2801 130.519 29.4789 130.519 28.0103C130.519 26.6756 131.079 25.6066 132.282 25.6066C133.483 25.6066 134.018 26.6756 134.018 28.0103C134.018 29.3986 133.296 30.2801 132.282 30.2801Z" fill="#111111"/>
<path d="M145.635 27.8764C145.635 29.3718 145.155 30.2801 143.979 30.2801C142.857 30.2801 142.377 29.3718 142.377 27.8764V25.1782H141.015V27.7425C141.015 29.6931 141.977 30.8939 143.979 30.8939C145.93 30.8939 146.997 29.6931 146.997 27.7425V25.1782H145.635V27.8764Z" fill="#111111"/>
<path d="M155.036 24.9928C153.407 24.9928 151.911 26.0886 151.911 28.0103C151.911 29.827 153.139 30.8939 154.849 30.8939C155.757 30.8939 156.451 30.5191 156.824 29.8249V30.7065H158.132V28.1689C158.134 26.2204 157.065 24.9928 155.036 24.9928ZM155.036 30.2801C153.835 30.2801 153.273 29.4789 153.273 28.0103C153.273 26.6756 153.833 25.6066 155.036 25.6066C156.239 25.6066 156.772 26.6756 156.772 28.0103C156.772 29.3986 156.051 30.2801 155.036 30.2801Z" fill="#111111"/>
<path d="M148.465 27.5551V30.7065H149.827V27.3944C149.827 26.3254 150.068 25.6313 151.162 25.6313C151.296 25.6313 151.456 25.6313 151.615 25.6581V25.0978C151.32 25.0175 151.028 24.9907 150.733 24.9907C149.427 24.9928 148.465 25.7405 148.465 27.5551Z" fill="#111111"/>
<path d="M139.279 30.2533C138.612 30.2533 138.21 29.827 138.21 28.517V25.8187H140V25.1782H138.21V23.7899H136.849V28.3028C136.849 30.2781 137.918 30.8939 139.065 30.8939C139.625 30.8939 140.134 30.7333 140.507 30.4676C140.373 30.3337 140.266 30.173 140.212 30.0144C139.946 30.173 139.652 30.2533 139.279 30.2533Z" fill="#111111"/>
<path d="M145.178 12.0783C145.178 12.8651 144.779 13.8187 144.496 14.3234C144.34 14.6035 144.301 14.6674 144.301 14.7106C144.301 14.7415 144.319 14.7662 144.356 14.7662C144.546 14.7662 146.119 13.5551 147.223 13.5551C147.87 13.5551 148.463 13.8991 148.463 14.7106C148.463 15.5448 147.911 16.8713 146.074 17.8558C145.942 17.9258 145.666 18.0721 145.473 18.1751C145.225 18.3069 145.16 18.3708 145.16 18.4531C145.16 18.6612 145.891 18.5623 145.891 18.9907C145.891 19.2194 145.613 19.5963 144.882 20.0041C144.214 20.3769 143.324 20.6818 142.22 20.6818C141.434 20.6818 140.993 20.5273 140.908 20.5273C140.875 20.5273 140.851 20.5376 140.816 20.5685C140.77 20.6076 140.206 21.0896 138.894 21.0896C137.386 21.0896 135.697 20.4717 135.697 19.897C135.697 19.6169 136.051 19.5386 136.051 19.4789C136.051 19.4542 136.01 19.4459 135.992 19.4418C133.887 18.8733 131.512 17.7528 131.512 16.241C131.512 15.8229 131.806 15.6066 132.233 15.6066C132.972 15.6066 133.996 15.9485 134.218 15.9485C134.272 15.9485 134.292 15.9197 134.292 15.8888C134.292 15.8476 134.259 15.8023 134.196 15.7487C132.846 14.6035 132.284 13.5489 132.284 12.6674C132.284 11.5263 133.108 10.6632 134.202 10.447C136.218 10.0494 137.434 11.7714 138.509 13.1535C138.54 13.1926 138.593 13.2729 138.661 13.2729C138.743 13.2729 138.764 13.1926 138.84 12.8898C138.914 12.587 138.937 12.4923 139.032 12.105C139.347 10.826 140.105 9.20082 142.294 9.20082C143.584 9.19876 145.178 10.0721 145.178 12.0783ZM138.939 14.9537C138.531 14.9537 138.317 14.725 137.901 14.206C137.835 14.1236 137.547 13.7755 137.473 13.6869C136.468 12.4717 135.736 11.9238 134.904 11.9238C134.402 11.9238 133.646 12.206 133.646 13.1658C133.646 13.2915 133.662 13.829 134.183 14.4676C134.849 15.2791 135.81 16.3522 135.897 16.4531C135.988 16.5561 136.035 16.6653 136.033 16.7621C136.033 16.8157 136.016 17.0525 135.615 17.0525C135.223 17.0525 133.51 16.552 132.91 16.552C132.632 16.552 132.453 16.6715 132.453 16.8754C132.453 17.4027 133.481 18.484 136.713 19.2132C137.118 19.3038 137.153 19.4501 137.153 19.4995C137.153 19.689 136.651 19.7755 136.651 20.0968C136.651 20.5664 138.169 20.7745 138.606 20.7745C139.38 20.7745 139.761 20.5479 140.049 20.3481C140.297 20.1792 140.437 20.1133 140.601 20.1133C140.947 20.1133 141.273 20.3296 142.325 20.3296C143.607 20.3296 144.952 19.6601 144.952 19.2976C144.952 19.1555 144.739 19.1184 144.262 18.9619C144.01 18.8795 143.866 18.7765 143.866 18.62C143.866 18.4717 143.988 18.3522 144.35 18.1957C144.737 18.0268 145.013 17.9032 145.3 17.7673C146.857 17.0175 147.46 16.1009 147.464 15.4398C147.466 15.0154 147.223 14.7271 146.826 14.7271C146.303 14.7271 145.728 15.0299 145.168 15.3141C144.119 15.8455 143.738 16.0474 143.372 16.0474C143.112 16.0474 142.991 15.8249 142.989 15.6931C142.989 15.6169 143.001 15.5304 143.034 15.4356C143.17 15.069 143.265 14.8239 143.413 14.4325C143.631 13.8558 143.895 13.1967 143.895 12.5438C143.895 11.5242 143.104 10.8301 142.064 10.8301C140.9 10.8301 140.404 11.9258 140.107 12.7971C140.027 13.036 139.72 13.9629 139.627 14.243C139.466 14.7271 139.25 14.9537 138.939 14.9537Z" fill="#111111"/>
<path d="M119.88 1.3656V0H119.009C113.567 0 109.141 4.42636 109.141 9.86612V32H110.507V9.86612C110.507 5.17817 114.319 1.3656 119.007 1.3656H119.88Z" fill="#111111"/>
</svg>
