<svg xmlns="http://www.w3.org/2000/svg" viewBox="0 0 24 24">
  <path d="M14.83,9.42c-.09,0-.2-.06-.31-.1V7.23l1.86-1a.5.5,0,0,0,.25-.44V3a.5.5,0,0,0-.5-.5H7.87a.5.5,0,0,0-.5.5V5.75a.5.5,0,0,0,.25.44l1.86,1v2a4.11,4.11,0,0,0-1.36.56,7.64,7.64,0,0,0-4.78,7.08V21a.5.5,0,0,0,.5.5H20.16a.5.5,0,0,0,.5-.5V16.84A7.66,7.66,0,0,0,14.83,9.42Zm3,6.67a1.14,1.14,0,0,1-1.14,1.13A1.17,1.17,0,0,1,15.56,16l-.91-5.58C17.18,11.67,17.83,16.09,17.84,16.09Zm-3.27,0a1.14,1.14,0,0,1-2.27,0v-5.9H13c.2,0,.4,0,.59,0ZM13.49,7.44h0V9.19h-3V7.44h3ZM11,6.44V4.94h2v1.5Zm-2.64-1v-2h7.26v2L14,6.39V4.44a.5.5,0,0,0-.5-.5h-3a.5.5,0,0,0-.5.5V6.39ZM10,10.28a6.64,6.64,0,0,1,1-.09h.31v5.9a1.13,1.13,0,0,1-2.26,0Zm-1.41.37.36-.13L8,16.09a1.14,1.14,0,0,1-2.27,0C5.83,15.72,6.46,12.05,8.58,10.65ZM4.34,16.84a6.62,6.62,0,0,1,1.36-4,13.08,13.08,0,0,0-.94,3.26,1.12,1.12,0,0,1-.42.86ZM19.66,20.5H4.34V18.09a2.14,2.14,0,0,0,.93-.63,2.11,2.11,0,0,0,1.63.76,2.16,2.16,0,0,0,1.64-.77,2.1,2.1,0,0,0,3.26,0,2.1,2.1,0,0,0,3.27,0,2.12,2.12,0,0,0,3.27,0,2.16,2.16,0,0,0,1.32.73Zm0-3.34a1.16,1.16,0,0,1-.82-1v0h0s0-.05,0-.07a12.61,12.61,0,0,0-1.41-4.14,6.63,6.63,0,0,1,2.24,5Z"/>
</svg>
