<svg xmlns="http://www.w3.org/2000/svg" viewBox="0 0 24 24">
  <path d="M3,6.5v11A1.5,1.5,0,0,0,4.5,19H5V18H4.5a.5.5,0,0,1-.5-.5V6.5A.5.5,0,0,1,4.5,6H5V5H4.5A1.5,1.5,0,0,0,3,6.5ZM19.5,5H19V6h.5a.5.5,0,0,1,.5.5v11a.5.5,0,0,1-.5.5H19v1h.5A1.5,1.5,0,0,0,21,17.5V6.5A1.5,1.5,0,0,0,19.5,5ZM13.65,8.21a.51.51,0,0,0-.12-.39l-.12-.08V7.22a.49.49,0,0,0,.37-.47.5.5,0,0,0-.5-.5H9.67a.5.5,0,0,0,0,1h.57v.49a.34.34,0,0,0-.12.09.52.52,0,0,0-.13.38,2.61,2.61,0,0,1-.05.9,5.93,5.93,0,0,0-.49,2.45v5.1a.8.8,0,0,0,.75.87h3.28a.79.79,0,0,0,.72-.85V11.57a5.7,5.7,0,0,0-.47-2.39A2.88,2.88,0,0,1,13.65,8.21Zm-2.41-1h1.17v.41H11.24Zm2,9.28H10.45v-5a5.3,5.3,0,0,1,.43-2.13A3.34,3.34,0,0,0,11,8.66h1.65a3.86,3.86,0,0,0,.14.85,5,5,0,0,1,.41,2.05ZM16,3H8A2,2,0,0,0,6,5V19a2,2,0,0,0,2,2h8a2,2,0,0,0,2-2V5A2,2,0,0,0,16,3Zm1,16a1,1,0,0,1-1,1H8a1,1,0,0,1-1-1V5A1,1,0,0,1,8,4h8a1,1,0,0,1,1,1Z"/>
</svg>
