<svg xmlns="http://www.w3.org/2000/svg" viewBox="0 0 24 24">
  <path d="M12,13.69a.49.49,0,1,0,.47.48A.48.48,0,0,0,12,13.69Zm-2,1.57a.48.48,0,0,0-.47.48.48.48,0,1,0,.95,0A.48.48,0,0,0,10,15.26Zm-1.95,1.6a.49.49,0,0,0,0,1,.49.49,0,0,0,0-1ZM12,11.49a.47.47,0,0,0-.47.48.47.47,0,1,0,.94,0A.47.47,0,0,0,12,11.49ZM6.23,17.91a1.78,1.78,0,1,0-2.64,0A3,3,0,0,0,2,20.53a.47.47,0,1,0,.93,0,2,2,0,0,1,.58-1.42,2,2,0,0,1,1.36-.59h.07a2,2,0,0,1,1.95,2,.47.47,0,1,0,.93,0A3,3,0,0,0,6.23,17.91Zm-1.3-.33h0a.86.86,0,0,1-.83-.86.85.85,0,1,1,1.7,0A.86.86,0,0,1,4.93,17.58Zm15.48.33a1.78,1.78,0,1,0-2.64,0,3,3,0,0,0-1.59,2.62.47.47,0,1,0,.93,0,2,2,0,0,1,.58-1.42,2,2,0,0,1,1.36-.59h.08a2,2,0,0,1,1.94,2,.47.47,0,1,0,.93,0A3,3,0,0,0,20.41,17.91Zm-1.3-.33h0a.86.86,0,0,1-.83-.86.85.85,0,1,1,1.7,0A.86.86,0,0,1,19.11,17.58Zm-2.72-.23a.49.49,0,0,0-.48-.49.49.49,0,0,0,0,1A.49.49,0,0,0,16.39,17.35ZM14,15.26a.48.48,0,0,0-.48.48.48.48,0,1,0,.48-.48ZM13.32,6a1.78,1.78,0,1,0-2.64,0A3,3,0,0,0,9.09,8.62a.47.47,0,1,0,.93,0,2,2,0,0,1,.58-1.43A1.94,1.94,0,0,1,12,6.61H12a2,2,0,0,1,1.94,2,.47.47,0,1,0,.93,0A3,3,0,0,0,13.32,6ZM12,5.67h0a.86.86,0,1,1,.87-.85A.87.87,0,0,1,12,5.67Zm0,3.65a.47.47,0,0,0-.47.48.47.47,0,1,0,.94,0A.47.47,0,0,0,12,9.32Z"/>
</svg>
