<?xml version="1.0" encoding="UTF-8"?><svg id="Camada_2" width="256" height="60.45" xmlns="http://www.w3.org/2000/svg" viewBox="0 0 256 60.45"><g id="Artwork"><path fill="#ffffff" d="m12.19,58.29l5.53-12.59c1.44-.21,2.83-.37,4.17-.48,1.33-.11,2.62-.16,3.85-.16,2.67,0,5.12.25,7.34.76,2.22.51,4.25,1.31,6.09,2.41,1.84,1.1,3.53,2.47,5.05,4.13,1.52,1.66,2.95,3.64,4.29,5.93h12.19L34.56,2.16h-8.42L0,58.29h12.19ZM30.39,16.92l10.1,22.29c-1.5-1.07-3.37-1.9-5.61-2.49-2.24-.59-4.92-.88-8.02-.88-1.5,0-3.13.08-4.89.24l8.42-19.16Zm62.62,41.37L118.9,2.16h-12.83l-17,38.88L72.16,2.16h-13.07l25.5,56.12h8.42Zm63.74,2.16c4.44,0,8.55-.76,12.35-2.29,3.79-1.52,7.08-3.65,9.86-6.37,2.78-2.73,4.96-5.93,6.53-9.62,1.58-3.69,2.37-7.7,2.37-12.03s-.79-8.26-2.37-11.95c-1.58-3.69-3.76-6.88-6.53-9.58-2.78-2.7-6.07-4.81-9.86-6.33-3.8-1.52-7.91-2.29-12.35-2.29s-8.55.76-12.35,2.29c-3.8,1.52-7.08,3.64-9.86,6.33-2.78,2.7-4.96,5.89-6.53,9.58-1.58,3.69-2.37,7.67-2.37,11.95s.79,8.34,2.37,12.03c1.58,3.69,3.75,6.89,6.53,9.62,2.78,2.73,6.07,4.85,9.86,6.37,3.79,1.52,7.91,2.29,12.35,2.29Zm0-10.42c-2.78,0-5.33-.49-7.66-1.48-2.32-.99-4.34-2.36-6.05-4.13-1.71-1.76-3.05-3.87-4.01-6.33-.96-2.46-1.44-5.13-1.44-8.02s.48-5.45,1.44-7.86,2.3-4.48,4.01-6.21c1.71-1.74,3.73-3.1,6.05-4.09,2.33-.99,4.88-1.48,7.66-1.48s5.33.49,7.66,1.48c2.32.99,4.34,2.35,6.05,4.09,1.71,1.74,3.05,3.81,4.01,6.21s1.44,5.03,1.44,7.86-.48,5.63-1.44,8.06c-.96,2.43-2.3,4.53-4.01,6.29-1.71,1.76-3.73,3.14-6.05,4.13-2.33.99-4.88,1.48-7.66,1.48ZM205.25,2.16v56.12h11.55V22.61l30.23,35.68h8.98V2.16h-11.55v35.68L214.23,2.16h-8.98Z"/></g></svg>